<svg xmlns="http://www.w3.org/2000/svg" version="1.1" viewBox="0 0 250 250" data-logo-id="1822direkt" data-primary-color="#003854" data-author="YAXI GmbH" data-secondary-color="#ee0000" data-maskable="false"><path d="m-2.56e-6-2.56e-6v250h250v-250zm79.951 67.571 21.982.02195c7.0044 0 10.777 3.7672 10.777 10.777v4.7388a6.8628 6.8628 0 01-2.727 6.1474 7.2192 7.2192 0 014.1208 7.0558v6.6404c0 7.0044-3.7644 10.774-10.774 10.774h-24.778c-7.0044 0-10.777-3.7673-10.777-10.774v-6.66a7.2217 7.2217 0 014.1237-7.0558 6.8774 6.8774 0 01-2.7246-6.1474v-4.7412c0-7.0044 3.7648-10.777 10.777-10.777zm45.154.0124h24.871c7.7808 0 12.737 4.6091 12.737 12.177 0 7.2656-4.8661 11.323-12.11 12.83l-16.013 3.7889a5.127 5.127 0 00-4.2844 5.5175v3.8819h16.506v.0319h9.3017a5.8301 5.8301 0 012.2974.45633 5.6421 5.6421 0 011.8702 1.2646 5.9766 5.9766 0 011.2474 1.8702 5.7251 5.7251 0 01.4592 2.2831v2.0847h-40.771v-11.875c0-7.2437 3.4936-11.828 11.152-13.413l16.529-3.7718c2.8491-.71289 4.7188-2.5977 4.6554-5.3077 0-2.6318-2.0308-4.0526-5.4488-4.0526h-22.998zm47.705 0h24.87c7.7808 0 12.737 4.6091 12.737 12.177 0 7.2656-4.8656 11.323-12.109 12.83l-16.013 3.7889a5.127 5.127 0 00-4.2844 5.5175v3.8819h16.518v.0319h9.3117a5.8423 5.8423 0 012.2998.45633 5.6421 5.6421 0 011.8702 1.2646 5.9766 5.9766 0 011.2474 1.8702 5.7251 5.7251 0 01.4592 2.2831v2.0847h-40.806v-11.875c0-7.2437 3.494-11.828 11.155-13.413l16.528-3.7718c2.8467-.71289 4.7193-2.5977 4.6558-5.3077 0-2.6318-2.0313-4.0526-5.4493-4.0526h-22.991zm-124.39.0072h7.1583v38.511h5.8155v7.6637h-21.096v-7.6637h6.1646v-28.501h-6.3772v-5.6567zm32.583 7.5817a2.9053 2.9053 0 00-.36621.02336 3.0469 3.0469 0 00-2.6541 3.418v4.2725a2.9053 2.9053 0 000 .73242 3.0493 3.0493 0 003.396 2.6565h19.167a3.1445 3.1445 0 00.73242 0 3.0518 3.0518 0 002.6541-3.3984v-4.2629l-.01-.02909a3.1445 3.1445 0 000-.73242 3.0493 3.0493 0 00-3.396-2.6565h-19.157a2.9053 2.9053 0 00-.36621-.02336zm-1.2403 18.672a2.9297 2.9297 0 00-.36621.02288 3.0493 3.0493 0 00-2.6565 3.3984v5.5175a3.2153 3.2153 0 000 .73242 3.0444 3.0444 0 003.3789 2.666h21.631a3.1104 3.1104 0 00.73242 0 3.0615 3.0615 0 002.6856-3.3984v-5.5299l-.0119.01001a2.9614 2.9614 0 000-.73242 3.042 3.042 0 00-3.3812-2.6636h-21.646a2.9297 2.9297 0 00-.36621-.02288zm5.0883 30.11a4.0918 4.0918 0 11.20218 8.1792 4.0991 4.0991 0 01-4.1018-4.0917 4.0918 4.0918 0 013.8996-4.0874zm-17.72.37861h6.6233v35.027h-26.001c-5.2979 0-8.1735-2.8614-8.1735-8.1763l.01191.01v-9.2502c0-5.3174 2.8614-8.1739 8.1739-8.1739h19.365zm89.389 0h6.6433v21.389l15.296-11.958h9.8219l-12.471 9.4309 14.782 16.165h-9.2359l-10.774-12.224-7.4196 5.6176v6.6066h-6.6433zm36.465 4.1504h6.7186v5.281h9.9487v5.6882h-9.9487v11.641a2.3145 2.3145 0 002.0046 2.583 2.4219 2.4219 0 00.56362 0h3.6817a4.3945 4.3945 0 011.6556.33665 4.3091 4.3091 0 011.4205.9594 4.6582 4.6582 0 01.94748 1.4186 4.3945 4.3945 0 01.33712 1.6408v1.3328h-9.17c-5.2978 0-8.1592-2.8614-8.1592-8.1763zm-66.924 5.2614h15.825c5.3174 0 8.174 2.8638 8.174 8.1763v7.5951h-25.552v1.8506a2.2974 2.2974 0 002.0018 2.5635 2.2559 2.2559 0 00.57411 0h22.705v5.4054h-23.728c-5.3174 0-8.1735-2.859-8.1735-8.1739v-9.2406c0-5.3174 2.861-8.1763 8.1735-8.1763zm-21.628.0195h10.31v5.6882h-9.16a2.3145 2.3145 0 00-2.5783 2.0142 2.1802 2.1802 0 000 .5641v17.334h-6.7458v-17.426c0-5.3149 2.859-8.174 8.1739-8.174zm-22.815 2.8391h2.3632a4.4604 4.4604 0 011.7433.34666 4.2725 4.2725 0 011.421.95988 4.6582 4.6582 0 01.947 1.4181 4.3604 4.3604 0 01.30995 1.3647v18.667h-6.7844zm59.587 2.5401a2.312 2.312 0 00-.32234.0162h-13.811a2.312 2.312 0 00-2.5635 2.0213 2.4219 2.4219 0 000 .5641v2.3656h18.945v-2.3656a2.312 2.312 0 00-2.2483-2.6016zm-92.607.29517a2.3169 2.3169 0 00-2.2759 2.0332 2.3999 2.3999 0 000 .56124v9.0628a2.3145 2.3145 0 002.0142 2.5778 2.4219 2.4219 0 00.5641 0h18.235v-14.199l-18.235-.0191a2.3169 2.3169 0 00-.30231-.0167z" fill="#003854" /><path d="m203.21 174.44c8.1763 0 7.0801 7.9736 7.0801 7.9736h-163.57c-8.1763 0-7.0801-7.9736-7.0801-7.9736z" fill="#e00" /></svg>
