<svg data-author="YAXI GmbH" data-logo-id="1822direkt" data-primary-color="#003854" data-secondary-color="#ee0000" data-maskable="true" version="1.1" viewBox="0 0 250 250" xmlns="http://www.w3.org/2000/svg"><path d="m79.951 67.57c-7.0122 1e-6-10.777 3.7729-10.777 10.777v4.7422a6.8774 6.8774 0 002.7246 6.1465 7.2217 7.2217 0 00-4.123 7.0566v6.6602c0 7.0067 3.7729 10.773 10.777 10.773h24.777c7.0096 0 10.773-3.769 10.773-10.773v-6.6406a7.2192 7.2192 0 00-4.1211-7.0566 6.8628 6.8628 0 002.7285-6.1465v-4.7402c0-7.0098-3.773-10.775-10.777-10.775l-21.982-.023438zm45.154.013672v7.7656h22.998c3.418 0 5.4492 1.4209 5.4492 4.0527.0634 2.71-1.8052 4.5938-4.6543 5.3066l-16.529 3.7734c-7.6584 1.585-11.152 6.1684-11.152 13.412v11.875h40.771v-2.084a5.7251 5.7251 0 00-.46094-2.2832 5.9766 5.9766 0 00-1.2461-1.8711 5.6421 5.6421 0 00-1.8711-1.2637 5.8301 5.8301 0 00-2.2969-.45703h-9.3008v-.03125h-16.508v-3.8828a5.127 5.127 0 014.2852-5.5176l16.014-3.7891c7.2439-1.507 12.109-5.5645 12.109-12.83 0-7.5679-4.9555-12.176-12.736-12.176h-24.871zm47.705 0-.00196 7.7656h22.992c3.418 0 5.4492 1.4209 5.4492 4.0527.0635 2.71-1.8096 4.5938-4.6562 5.3066l-16.527 3.7734c-7.661 1.585-11.156 6.1684-11.156 13.412v11.875h40.807v-2.084a5.7251 5.7251 0 00-.45899-2.2832 5.9766 5.9766 0 00-1.248-1.8711 5.6421 5.6421 0 00-1.8692-1.2637 5.8423 5.8423 0 00-2.3008-.45703h-9.3105v-.03125h-16.52v-3.8828a5.127 5.127 0 014.2852-5.5176l16.014-3.7891c7.2434-1.507 12.109-5.5645 12.109-12.83 0-7.5679-4.9575-12.176-12.738-12.176h-24.869zm-124.39.00586-8.334 4.3535v5.6582h6.377v28.5h-6.166v7.6641h21.098v-7.6641h-5.8164v-38.512h-7.1582zm32.584 7.582a2.9053 2.9053 0 01.36524.023437h19.156a3.0493 3.0493 0 013.3965 2.6562 3.1445 3.1445 0 010 .73242l.00976.029297v4.2637a3.0518 3.0518 0 01-2.6543 3.3984 3.1445 3.1445 0 01-.73242 0h-19.166a3.0493 3.0493 0 01-3.3965-2.6562 2.9053 2.9053 0 010-.73242v-4.2734a3.0469 3.0469 0 012.6543-3.418 2.9053 2.9053 0 01.36719-.023437zm-1.2422 18.672h.001953a2.9297 2.9297 0 01.36523.023438h21.646a3.042 3.042 0 013.3809 2.6641 2.9614 2.9614 0 010 .73242l.01172-.009766v5.5293a3.0615 3.0615 0 01-2.6856 3.3984 3.1104 3.1104 0 01-.73242 0h-21.631a3.0444 3.0444 0 01-3.3789-2.666 3.2153 3.2153 0 010-.73242v-5.5176a3.0493 3.0493 0 012.6562-3.3984 2.9297 2.9297 0 01.36524-.023438zm5.0898 30.111a4.0918 4.0918 0 00-3.9004 4.0859 4.0991 4.0991 0 004.1016 4.0918 4.0918 4.0918 0 10-.20117-8.1777zm-17.721.37695v9.4375h-19.365c-5.3125 0-8.1738 2.8564-8.1738 8.1738v9.25l-.011719-.00977c0 5.3149 2.8759 8.1758 8.1738 8.1758h26v-35.027h-6.623zm89.389 0v35.027h6.6426v-6.6055l7.4199-5.6172 10.773 12.223h9.2363l-14.781-16.164 12.471-9.4316h-9.8223l-15.295 11.959v-21.391h-6.6445zm36.465 4.1504v22.705c-1e-5 5.3149 2.8624 8.1777 8.1602 8.1777h9.1699v-1.334a4.3945 4.3945 0 00-.33789-1.6406 4.6582 4.6582 0 00-.94726-1.418 4.3091 4.3091 0 00-1.4199-.95899 4.3945 4.3945 0 00-1.6563-.33789h-3.6816a2.4219 2.4219 0 01-.5625 0 2.3145 2.3145 0 01-2.0059-2.582v-11.641h9.9492v-5.6894h-9.9492v-5.2812h-6.7187zm-66.924 5.2617c-5.3125 0-8.1738 2.8603-8.1738 8.1777v9.2402c0 5.3149 2.8564 8.1738 8.1738 8.1738h23.729v-5.4062h-22.705a2.2559 2.2559 0 01-.57421 0 2.2974 2.2974 0 01-2.002-2.5625v-1.8516h25.553v-7.5937c0-5.3125-2.8564-8.1777-8.1738-8.1777h-15.826zm-21.627.01953v.00195c-5.3149 1e-5-8.1738 2.8589-8.1738 8.1738v17.426h6.7441v-17.334a2.1802 2.1802 0 010-.56445 2.3145 2.3145 0 012.5781-2.0137h9.1602v-5.6894h-10.309zm-22.816 2.8398v22.756h6.7852v-18.666a4.3604 4.3604 0 00-.31055-1.3652 4.6582 4.6582 0 00-.94727-1.418 4.2725 4.2725 0 00-1.4199-.96094 4.4604 4.4604 0 00-1.7441-.3457h-2.3633zm59.588 2.5391a2.312 2.312 0 012.248 2.6016v2.3672h-18.945v-2.3672a2.4219 2.4219 0 010-.5625 2.312 2.312 0 012.5645-2.0215h13.811a2.312 2.312 0 01.32227-.01758zm-92.607.29687a2.3169 2.3169 0 01.30274.01563l18.234.01953v14.199h-18.234a2.4219 2.4219 0 01-.56445 0 2.3145 2.3145 0 01-2.0137-2.5781v-9.0625a2.3999 2.3999 0 010-.56054 2.3169 2.3169 0 012.2754-2.0332zm-8.957 35s-1.0962 7.9746 7.0801 7.9746h163.57s1.0962-7.9746-7.0801-7.9746h-163.57z"/></svg>
