<svg data-author="YAXI GmbH" data-logo-id="agrar" data-primary-color="#0066b3" data-secondary-color="#ff6600" data-maskable="true" version="1.1" viewBox="0 0 250 250" xmlns="http://www.w3.org/2000/svg"><path d="m250 208.33v-29.166h-95.788c-2.555 13.458-4.7188 24.728-5.5566 29.166zm-250-29.17v29.168h100.64l-6.5733-29.168z" fill="#f60"/><path d="m50.513 109.93-7.1731-30.327h61.203l19.82 87.062h.84072l12.488-55.773c6.2973-25.314 8.6695-31.288 44.129-31.288h25.502s-5.1502 23.339-11.556 48.671c-2.4491 9.6602-23.739 8.5166-22.677-.50541.11177-.93778 1.1231-7.7317 1.9197-12.565 1.1584-6.9552-6.9175-7.8194-8.3695-.94071-1.0348 4.9272-5.712 29.395-10.087 52.402h93.447v-125h-250v125h91.295l-12.708-56.691z" fill="#0066b3"/></svg>
