<svg xmlns="http://www.w3.org/2000/svg" version="1.1" viewBox="0 0 250 250" xml:space="preserve" data-logo-id="akf" data-primary-color="#003671" data-author="YAXI GmbH" data-maskable="true"><path d="m158.87 249.58v.3114h4.6561v-.3114c.0544-26.459 21.491-47.895 47.95-47.95h38.474v-4.6511h-38.474c-29.034.0544-52.551 23.572-52.606 52.601zm91.13-198.4v-4.6561h-12.861c3.4945-15.12 5.2344-30.586 5.185-46.096v-.37071h-10.424v.37071c.005 15.535-1.8585 31.006-5.5557 46.096h-14.922c-8.9711 0-17.937.5783-26.834 1.7448 4.9724-15.387 7.513-31.461 7.513-47.633v-.5783h-10.424v.5783c-.00494 16.894-2.9607 33.66-8.7339 49.536-20.265 3.8949-39.804 10.869-57.949 20.69 17.349-19.272 26.948-44.292 26.938-70.227v-.5783h-10.429v.5783c0 52.339-42.602 94.946-94.995 94.946h-36.507v10.419h36.512c13.573.0148 27.017-2.6098 39.587-7.7255-15.382 13.751-28.594 29.76-39.162 47.47h-36.883v10.424h31.065c-6.5887 12.663-11.828 25.984-15.614 39.75h-15.451v10.419h12.91c-3.0892 14.21-4.6462 28.703-4.6561 43.239v.37071h4.6561v-.36577c-.0049-14.542 1.5916-29.044 4.7599-43.239h18.575c9.7026 0 19.395-.69199 29.004-2.0661-4.5177 14.586-6.8012 29.765-6.7765 45.038v.5783h4.6561v-.5783c.0099-15.565 2.4763-31.031 7.3054-45.829 22.445-3.7565 44.104-11.225 64.088-22.119-16.672 18.684-25.88 42.854-25.88 67.899v.5783h4.6561v-.5783c0-53.935 43.926-97.807 97.906-97.807h38.736v-4.6511h-38.791c-13.034 0-25.95 2.4961-38.049 7.3548 17.033-15.15 31.446-33.018 42.656-52.868h34.135v-4.6561h-31.599c7.686-14.408 13.598-29.691 17.626-45.513zm-79.01 4.1766c-20.952 51.232-70.385 87.907-128.55 90.289 28.203-45.622 74.354-79.064 128.55-90.289zm-134.69 140.57h-15.985c3.8751-13.8 9.2529-27.126 16.039-39.75h.15323c23.35.0346 46.398-5.2146 67.424-15.342-15.026 14.858-26.824 32.657-34.664 52.285-10.889 1.8585-21.916 2.7976-32.968 2.8075zm38.366-3.8158c21.491-51.069 70.864-87.635 129.03-90.606-28.001 46.096-74.463 79.756-129.03 90.606zm131.72-95.311c-21.125.63267-41.895 5.6644-60.964 14.764 16.731-16.395 29.558-36.344 37.525-58.374 9.4258-1.3741 18.946-2.0661 28.47-2.0611h13.761c-4.2706 15.97-10.587 31.322-18.792 45.671zm-114.63-96.265v-.42508h-10.424v.42508c-.054371 24.818-20.166 44.925-44.984 44.979h-36.305v10.429h36.305c30.566-.088969 55.319-24.842 55.408-55.408z" fill="#003671"/></svg>
