<svg data-author="YAXI GmbH" data-logo-id="aktiv" data-maskable="true" data-primary-color="#1861cd" version="1.1" viewBox="0 0 250 250" xmlns="http://www.w3.org/2000/svg"><path d="m125.01 1.9696c-67.939 0-136.9 48.829-123.28 123.01 10.968 59.817 61.812 123.05 123.31 123.05 61.495 0 112.28-63.237 123.25-123.04h-.0344c13.631-74.193-55.301-123.02-123.25-123.02zm77.237 153.1c-3.2426 10.725-13.18 21.6-21.646 27.553-12.798 9.022-26.128 11.906-37.837 11.906-19.434 0-23.661-14.686-24.367-16.735-.63688-1.9574-.96146-4.6094-3.2082-4.6094s-3.4975 3.6483-3.4975 3.6483l-8.6286 15.716h-29.128l32.869-63.039s2.409-4.0303.74138-4.4819c-1.7951-.47499-2.8258.28934-7.0532 2.1078-4.2622 1.7602-19.816 10.562-36.621 2.2701-16.805-8.2229-19.724-26.788-12.311-46.082 5.7446-14.94 26.487-37.791 58-37.791 20.835 0 25.236 15.23 26.035 18.982.28934 1.1463.76433 2.1774 1.9918 2.3971 2.6291.70655 4.1-3.9955 4.1-3.9955l8.4663-16.029h29.185l-33.795 65.157s-1.5754 3.3934.83361 3.7758c1.8647.32418 3.8799-1.7258 7.8872-3.3241 4.0418-1.5402 18.276-6.9143 30.112-3.1385 11.848 3.7524 27.784 13.296 17.87 45.714zm-33.471-41.996c-17.662-2.1426-33.436 17.476-39.816 28.548-20.326 35.648-1.5053 44.74 4.2274 46.015 7.1458 1.5635 28.41.28974 43.64-23.198 17.57-27.298 7.7946-49.407-8.0491-51.362zm-35.355-42.167c.32418-8.7323-7.0184-24.032-28.861-17.245-14.743 4.6094-31.039 18.333-36.262 40.964-3.5323 15.392 1.7602 30.239 17.117 32.614 13.782 2.1426 30.842-15.102 37.768-26.846 6.2307-10.516 9.8442-20.407 10.238-29.487z" fill="#1861cd"/></svg>
