<svg width="250" height="250" data-author="YAXI GmbH" data-logo-id="apo" data-primary-color="#012169" data-maskable="true" version="1.1" viewBox="-1.8658 -1.8658 250 250" xmlns="http://www.w3.org/2000/svg"><path d="m185.68 247.06h62.453v-123.03c0-69.035-55.966-125-124.99-125-69.041 0-125.01 55.966-125.01 125v.005c0 67.16 52.999 123.2 125.01 123.2 0 0 15.837.21194 31.356-4.0364v-56.422c-15.874 3.7876-31.356 2.9121-31.356 2.9121-33.347-.39163-62.588-27.661-62.588-65.397 0-34.711 27.739-62.588 62.558-62.588 34.245 0 62.553 27.882 62.553 62.535-.014.24884.0228 122.82.0228 122.82" fill="#012169"/></svg>
