<svg width="250" height="250" data-author="YAXI GmbH" data-logo-id="baader" data-primary-color="#062949" data-maskable="true" version="1.1" viewBox="-1.872 -1.872 250 250" xmlns="http://www.w3.org/2000/svg"><path d="m248.13 36.73h-4.9845l-61.198 172.8h4.9845zm-183.82 0h-4.9845l-61.198 172.8h4.9845z" fill="#8ca0aa"/><path d="m112.19 181.17-19.996-.006.05815-34.426 20.902-.006c16.773 0 26.861 2.4922 26.861 16.892.0498 14.887-9.2407 17.656-27.794 17.656m-20.065-73.787 19.417-.0581c21.865 0 26.03 6.3691 26.03 16.061 0 8.9139-3.8159 17.003-24.997 17.003l-20.387.0332v-33.039zm37.013 36.005c-.55383-.108-.91105 0 .19385-.1883 6.4632-1.8858 14.538-6.2611 14.538-21.167 0-12.519-7.8534-21.057-29.699-21.057h-28.611v86.503h32.588c15.984 0 28.716-6.2306 28.716-24.252 0-11.409-6.7041-17.778-17.781-19.716"/></svg>
