<svg data-author="YAXI GmbH" data-logo-id="baer" data-primary-color="#141e55" data-maskable="true" version="1.1" viewBox="0 0 250 250" xmlns="http://www.w3.org/2000/svg"><path class="cls-3" d="m7.6884-2.5452e-6v8.306h17.725v188.98c-.81348 24.875-3.8961 40.032-17.126 43.842l-3.5964.94192v7.8779s8.0063.42815 16.055-1.2416c23.462-4.838 36.606-22.863 37.12-50.821v-197.89zm179.52 14.985c-4.4955-4.4955-10.661-6.6791-18.881-6.6791h-24.661v76.081h22.221c22.178 0 30.398-9.7189 30.398-35.836 0-26.117-.94191-25.432-9.0767-33.567m12.416 88.497c-6.1653-6.1653-14.685-9.1623-26.074-9.1623h-29.842v94.106h25.475c36.906 0 41.873-23.762 41.873-47.053 0-23.291-3.7248-30.227-11.389-37.891m45.597 40.074c0 17.04-4.2386 29.542-12.93 38.233-10.19 10.19-26.288 14.942-50.607 14.942h-89.482v-8.306h18.838v-180.12h-18.838v-8.306h87.299c18.581 0 31.683 4.0674 40.074 12.459 7.3641 7.3641 10.918 18.068 10.918 32.796 0 23.077-13.572 37.891-40.203 44.099 27.572 3.682 54.974 13.487 54.974 54.203" fill="#141e55"/></svg>
