<svg data-author="YAXI GmbH" data-logo-id="bank11" data-primary-color="#5a2382" data-secondary-color="#e60055" data-maskable="true" version="1.1" viewBox="0 0 250 250" xmlns="http://www.w3.org/2000/svg"><path d="m119.43 59.726v130.57h130.57v-130.57zm58.289 19.379v91.803h-24.734v-71h-13.608v-20.797zm49.531 0v91.803h-24.73v-71h-13.608v-20.797z" fill="#e60055"/><path d="m59.308 167.74c2.6967.012 5.387-.26267 8.0256-.81926 2.401-.48507 4.6908-1.4125 6.7526-2.7351 1.9702-1.3068 3.5726-3.0968 4.654-5.1992 1.2467-2.6172 1.8413-5.4973 1.733-8.3942 0-6.6885-1.8906-11.463-5.6718-14.324-4.3767-3.0422-9.6372-4.5501-14.961-4.2885h-31.195v35.764zm2.0009-108.03c5.698-.04934 11.385.5009 16.968 1.6417 4.6886.92118 9.152 2.7494 13.14 5.3819 3.6572 2.5073 6.585 5.9385 8.4856 9.9445 2.1455 4.8167 3.1743 10.056 3.0092 15.326.21354 5.8016-1.3462 11.53-4.4713 16.423-3.3723 4.705-7.9415 8.4224-13.234 10.767 7.2403 1.7783 13.609 6.081 17.961 12.134 4.0731 6.1916 6.1434 13.486 5.9302 20.894.15101 5.9153-1.1642 11.776-3.8285 17.06-2.4503 4.6863-5.9839 8.72-10.307 11.766-4.4824 3.1188-9.4892 5.4061-14.781 6.7526-5.5671 1.4702-11.302 2.2116-17.059 2.2057h-63.121v-130.3zm-3.6489 52.745c4.4867.18997 8.9126-1.0913 12.604-3.6488 3.497-2.8997 5.3404-7.3363 4.9282-11.86.1013-2.5928-.4639-5.1683-1.6417-7.4805-1.0398-1.8769-2.5573-3.4456-4.3988-4.5469-1.9432-1.14-4.0793-1.9133-6.302-2.2813-2.4405-.42913-4.9143-.64003-7.3922-.6302h-26.809v30.473z" fill="#5a2382"/></svg>
