<svg data-author="YAXI GmbH" data-logo-id="bfw" data-primary-color="#325f87" data-maskable="true" version="1.1" viewBox="0 0 250 250" xml:space="preserve" xmlns="http://www.w3.org/2000/svg"><defs><linearGradient id="linearGradient7" x1=".060876" x2="264.81" y1="267.48" y2="267.48" gradientTransform="matrix(.94429 0 0 .94429 -.05151 -127.58)" gradientUnits="userSpaceOnUse"><stop stop-color="#20497f" offset="0"/><stop stop-color="#469cd8" offset="1"/></linearGradient></defs><path d="m122.33 66.359-118.6 106.04a11.171 11.171 0 00-3.7249 8.3276v1.2492a4.9968 4.9968 0 004.9968 4.9968h95.941a4.9968 4.9968 0 004.9968-4.9968v-1.2492a4.9968 4.9968 0 00-4.9968-4.9968h-79.1a1.9082 1.9082 0 01-1.2719-3.3307l101.76-90.986a2.2351 2.2351 0 013.7249 1.6662v98.897a4.9968 4.9968 0 004.9968 4.9968h113.96a4.9968 4.9968 0 004.9968-4.9968v-113.96a4.9968 4.9968 0 00-4.9968-4.9968h-82.271a4.9968 4.9968 0 00-4.9968 4.9968v1.2492a4.9968 4.9968 0 004.9968 4.9968h71.031a4.9968 4.9968 0 014.9968 4.9968v91.47a4.9968 4.9968 0 01-4.9968 4.9968h-91.47a4.9968 4.9968 0 01-4.9968-4.9968v-102.71a4.9968 4.9968 0 00-4.9968-4.9968h-1.2492a13.085 13.085 0 00-8.7218 3.3307z" fill="url(#linearGradient7)"/></svg>
