<svg data-author="YAXI GmbH" data-logo-id="bib" data-primary-color="#242753" data-maskable="true" version="1.1" viewBox="0 0 250 250" xmlns="http://www.w3.org/2000/svg"><path d="m182.69 0c3.527 26.013 5.1426 46.587 5.7305 72.453-66.73 8.966-125.07 20.872-188.42 39.537v138.01l.0039062-109.94c78.48-33.656 188.71-41.152 188.71-41.152 0 59.526-3.5278 103.47-13.375 151.09h42.18v-.00195c-.294-45.86-1.1753-103.91-4.2617-151.97 11.905 0 24.103.44048 36.742 1.3223v-34.975c-11.424 1.4647-24.599 3.0747-38.943 4.9766 6e-4.006413-6e-4.01312 0 .019532h-.14648c.04861-.006449.09789-.013087.14648-.019532-2.2045-23.659-5.2906-51.132-7.3477-69.352h-21.02z"/></svg>
