<svg data-author="YAXI GmbH" data-logo-id="bib" data-primary-color="#242753" data-maskable="false" version="1.1" viewBox="0 0 250 250" xmlns="http://www.w3.org/2000/svg"><path fill="#242753" d="m0 250h175.34c9.847-47.618 13.374-91.562 13.374-151.09 0 0-110.23 7.4954-188.71 41.151zm217.52 0h32.48v-150.65c-12.64-.88181-24.838-1.3228-36.742-1.3228 3.0863 48.059 3.9681 106.11 4.2621 151.97zm-34.829-250h-182.69v111.99c63.344-18.665 121.69-30.569 188.42-39.535-.58788-25.866-2.2046-46.442-5.7318-72.456zm28.219 69.37c14.403-1.9106 27.63-3.5272 39.094-4.997v-64.373h-46.295c2.0576 18.225 5.1439 45.707 7.3484 69.37z"/></svg>
