<svg data-author="YAXI GmbH" data-logo-id="bnp" data-primary-color="#016c47" data-maskable="true" version="1.1" viewBox="0 0 250 250" xml:space="preserve" xmlns="http://www.w3.org/2000/svg">
<path d="m128.3 186.67c-3.8546 5.5066-7.7092 9.9119-12.115 14.868-6.6079 1.652-14.317 1.1013-20.374 1.1013l-.55066 1.652c4.4053 2.2026 8.8106 3.8546 13.767 4.9559-3.8546 3.304-8.8106 6.0573-12.665 8.8106l-.55066 1.652c7.7093-1.652 18.172-4.956 25.881-9.9119 3.8546 0 7.7092 0 10.463-.55066l.55066-1.652c-.55066-1.652-2.2026-2.7533-2.7533-5.5066 7.1586-5.5066 12.115-10.463 18.172-16.52l1.1013-1.652c-6.0573 3.8546-13.216 9.9119-19.824 13.216-.55066-3.8546-1.1013-6.6079-1.1013-10.463zm-24.23-109.58s-3.304 6.0573-6.0573 13.767h-.55066c19.273 2.7533 37.445 10.463 41.85 13.216l-.55066 1.652c-19.824-3.304-30.286-3.304-37.996-2.2026-7.1586.55066-8.8106 1.652-8.8106 1.652-4.4053 9.3612-6.6079 24.78-7.7093 30.286l-.55066 1.652c-3.8546-8.8106-8.8106-26.432-8.8106-26.432-9.9119 5.5066-33.04 26.982-33.04 26.982 12.665-25.33 25.881-36.894 25.881-36.894-4.4053-4.4053-15.969-6.6079-24.78-7.1586l.55066-1.652c5.5066-1.652 16.52-2.2026 23.678-2.7533h13.767c7.1586-6.0573 18.722-11.564 23.128-12.115zm-23.123 125.55.55066-1.652c-8.2599-3.304-16.52-5.5066-23.128-12.115 2.2026-6.0573 4.4053-10.463 8.2599-15.969l.55066-1.652c-7.1586 1.1013-13.216 3.8546-19.273 4.956-4.9559-8.2599-6.6079-19.824-9.3612-30.837v1.1013c-1.1013 12.665-1.652 21.476 0 31.388-4.9559 1.652-9.3612 1.652-13.767 3.304l-.55066 1.652c6.6079 3.8546 11.564 7.1586 19.273 10.463 3.8546 8.2599 8.2599 14.317 14.868 20.925l.55066-1.652c-1.1013-4.956-2.7533-8.8106-2.2026-14.317 8.2599 2.7533 14.868 3.8546 24.229 4.4053zm112.88-135.46c-15.418 8.8106-20.374 9.9119-36.894 19.824l.55066-1.652c8.8106-9.3612 12.665-13.767 18.172-22.026-15.418 1.1013-37.996 2.7533-53.965 6.0573l1.1013-1.652c14.868-7.1586 41.85-14.317 55.617-15.969-3.304-4.9559-30.837-19.824-37.445-22.577l.55066-1.652c20.925 2.2026 48.458 12.115 60.022 19.273 4.956-1.652 10.463-1.652 19.824-2.7533 0 0-1.652 5.5066-11.564 12.665 2.7533 6.6079-3.304 44.604-8.8106 54.515 0-15.419-1.1013-35.242-7.1586-44.053z"/></svg>
