<svg data-author="YAXI GmbH" data-logo-id="bnp" data-primary-color="#016c47" data-maskable="false" version="1.1" viewBox="0 0 250 250" xml:space="preserve" xmlns="http://www.w3.org/2000/svg">
<defs>
<linearGradient id="SVGID_1_" x1="22.677" x2="22.677" y1="-1.1157" y2="46.762" gradientTransform="matrix(5.5066 0 0 5.5066 1.0088e-6 1.0088e-6)" gradientUnits="userSpaceOnUse">
	<stop stop-color="#008053" offset="0"/>
	<stop stop-color="#7FCBAE" offset=".6"/>
	<stop stop-color="#00A76D" offset="1"/>
</linearGradient>
<linearGradient id="SVGID_2_" x1="22.606" x2="22.606" y1="-11.267" y2="42.534" gradientTransform="matrix(5.5066 0 0 5.5066 1.0088e-6 1.0088e-6)" gradientUnits="userSpaceOnUse">
	<stop stop-color="#00A76D" offset="0"/>
	<stop stop-color="#7FCBAE" offset=".3"/>
	<stop stop-color="#00A76D" offset=".55"/>
	<stop stop-color="#008053" offset=".8352"/>
	<stop stop-color="#008558" offset=".8691"/>
	<stop stop-color="#009264" offset=".9244"/>
	<stop stop-color="#00A97A" offset=".9939"/>
	<stop stop-color="#00AD7D" offset="1"/>
</linearGradient>
<linearGradient id="SVGID_3_" x1="31.224" x2="31.224" y1="39.563" y2="4.7475" gradientTransform="matrix(5.5066 0 0 5.5066 1.0088e-6 1.0088e-6)" gradientUnits="userSpaceOnUse">
	<stop stop-color="#00B387" offset="0"/>
	<stop stop-color="#00A76D" offset="1"/>
</linearGradient>
<linearGradient id="SVGID_4_" x1="9.6226" x2="9.6226" y1="39.565" y2="4.7389" gradientTransform="matrix(5.5066 0 0 5.5066 1.0088e-6 1.0088e-6)" gradientUnits="userSpaceOnUse">
	<stop stop-color="#00B387" offset="0"/>
	<stop stop-color="#00A76D" offset="1"/>
</linearGradient>
<linearGradient id="SVGID_5_" x1="16.352" x2="16.352" y1="39.557" y2="4.754" gradientTransform="matrix(5.5066 0 0 5.5066 1.0088e-6 1.0088e-6)" gradientUnits="userSpaceOnUse">
	<stop stop-color="#00B387" offset="0"/>
	<stop stop-color="#00A76D" offset="1"/>
</linearGradient>
<linearGradient id="SVGID_6_" x1="22.169" x2="22.169" y1="39.562" y2="4.7469" gradientTransform="matrix(5.5066 0 0 5.5066 1.0088e-6 1.0088e-6)" gradientUnits="userSpaceOnUse">
	<stop stop-color="#00B387" offset="0"/>
	<stop stop-color="#00A76D" offset="1"/>
</linearGradient>
</defs>
<style type="text/css">
	.st0{fill:url(#SVGID_1_);}
	.st1{fill:url(#SVGID_2_);}
	.st2{fill:url(#SVGID_3_);}
	.st3{fill:url(#SVGID_4_);}
	.st4{fill:url(#SVGID_5_);}
	.st5{fill:url(#SVGID_6_);}
	.st6{fill:#FFFFFF;}
</style><g>
<rect class="st0" x="1.0088e-6" y="1.0088e-6" width="250" height="250" fill="url(#SVGID_1_)"/><path class="st1" d="m242.29 126.1c0 52.313 2.2026 105.73 2.2026 105.73 0 6.0573-3.8546 9.9119-8.8106 9.9119h-216.41c-4.9559 0-8.2599-4.4053-8.8106-9.9119 0 0-6.0573-45.705-6.0573-115.09 0-69.934 6.6079-102.42 6.6079-102.42.55066-5.5066 3.8546-9.9119 8.8106-9.9119h216.41c4.956 0 8.8106 4.4053 8.8106 9.9119-.55066 0-2.7533 60.022-2.7533 111.78z" fill="url(#SVGID_2_)"/><path class="st2" d="m193.83 67.181c-15.418 8.8106-20.374 9.9119-36.894 19.824l.55066-1.652c8.8106-9.3612 12.665-13.767 18.172-22.026-15.418 1.1013-37.996 2.7533-53.965 6.0573l1.1013-1.652c14.868-7.1586 41.85-14.317 55.617-15.969-3.304-4.9559-30.837-19.824-37.445-22.577l.55066-1.652c20.925 2.2026 48.458 12.115 60.022 19.273 4.956-1.652 10.463-1.652 19.824-2.7533 0 0-1.652 5.5066-11.564 12.665 2.7533 6.6079-3.304 44.604-8.8106 54.515 0-15.419-1.1013-35.242-7.1586-44.053z" fill="url(#SVGID_3_)"/><path class="st3" d="m80.947 202.64.55066-1.652c-8.2599-3.304-16.52-5.5066-23.128-12.115 2.2026-6.0573 4.4053-10.463 8.2599-15.969l.55066-1.652c-7.1586 1.1013-13.216 3.8546-19.273 4.956-4.9559-8.2599-6.6079-19.824-9.3612-30.837v1.1013c-1.1013 12.665-1.652 21.476 0 31.388-4.9559 1.652-9.3612 1.652-13.767 3.304l-.55066 1.652c6.6079 3.8546 11.564 7.1586 19.273 10.463 3.8546 8.2599 8.2599 14.317 14.868 20.925l.55066-1.652c-1.1013-4.956-2.7533-8.8106-2.2026-14.317 8.2599 2.7533 14.868 3.8546 24.229 4.4053z" fill="url(#SVGID_4_)"/><path class="st4" d="m104.07 77.093s-3.304 6.0573-6.0573 13.767h-.55066c19.273 2.7533 37.445 10.463 41.85 13.216l-.55066 1.652c-19.824-3.304-30.286-3.304-37.996-2.2026-7.1586.55066-8.8106 1.652-8.8106 1.652-4.4053 9.3612-6.6079 24.78-7.7093 30.286l-.55066 1.652c-3.8546-8.8106-8.8106-26.432-8.8106-26.432-9.9119 5.5066-33.04 26.982-33.04 26.982 12.665-25.33 25.881-36.894 25.881-36.894-4.4053-4.4053-15.969-6.6079-24.78-7.1586l.55066-1.652c5.5066-1.652 16.52-2.2026 23.678-2.7533h13.767c7.1586-6.0573 18.722-11.564 23.128-12.115z" fill="url(#SVGID_5_)"/><path class="st5" d="m128.3 186.67c-3.8546 5.5066-7.7092 9.9119-12.115 14.868-6.6079 1.652-14.317 1.1013-20.374 1.1013l-.55066 1.652c4.4053 2.2026 8.8106 3.8546 13.767 4.9559-3.8546 3.304-8.8106 6.0573-12.665 8.8106l-.55066 1.652c7.7093-1.652 18.172-4.956 25.881-9.9119 3.8546 0 7.7092 0 10.463-.55066l.55066-1.652c-.55066-1.652-2.2026-2.7533-2.7533-5.5066 7.1586-5.5066 12.115-10.463 18.172-16.52l1.1013-1.652c-6.0573 3.8546-13.216 9.9119-19.824 13.216-.55066-3.8546-1.1013-6.6079-1.1013-10.463z" fill="url(#SVGID_6_)"/><path class="st6" d="m194.93 65.529c-15.418 8.8106-20.374 9.9119-36.894 19.824 9.9119-10.463 13.216-14.868 19.273-24.229-15.418.55066-37.996 2.7533-53.965 6.0573 13.767-7.7093 41.85-15.969 56.167-17.621-3.304-4.4053-30.837-18.722-37.996-22.026 21.476 1.652 48.458 9.9119 61.123 17.621 4.956-1.652 10.463-1.652 19.824-2.7533-2.2026 4.4053-2.2026 7.1586-11.564 13.216 2.7533 6.6079-3.304 44.604-8.8106 54.515 0-15.969-1.652-35.793-7.1586-44.604z"/><path class="st6" d="m82.048 200.99c-8.8106-3.304-15.419-7.1586-22.026-13.767 2.2026-6.0573 4.4053-10.463 8.2599-15.969-7.1586 1.1013-12.665 1.652-18.722 3.304-5.5066-9.3612-7.7092-18.172-9.9119-29.736-1.652 12.665-1.652 21.476 0 31.388-5.5066 1.652-9.9119 2.7533-14.317 4.9559 6.6079 3.8546 12.115 7.1586 19.273 10.463 3.8546 8.2599 8.2599 14.317 14.868 20.925-1.652-5.5066-2.2026-9.9119-1.1013-15.969 7.1586 2.7533 14.317 3.8546 23.678 4.4053z"/><path class="st6" d="m105.18 75.441c-2.7533 3.8546-6.0573 10.463-6.6079 13.216 22.577 3.304 41.3 14.868 41.3 14.868-19.824-3.304-30.286-3.304-37.996-2.2026-7.1586.55066-8.8106 1.652-8.8106 1.652-5.5066 11.564-8.8106 31.938-8.8106 31.938-3.8546-8.8106-8.8106-26.432-8.8106-26.432-9.9119 5.5066-33.04 26.982-33.04 26.982 12.665-25.33 25.881-36.894 25.881-36.894-4.4053-4.4053-15.969-6.6079-24.78-7.1586 4.4053-1.652 15.969-3.8546 24.78-4.4053h13.767c7.1586-5.5066 18.722-11.013 23.128-11.564z"/><path class="st6" d="m129.41 185.02c-3.8546 5.5066-7.7092 9.9119-12.115 14.868-7.7093 2.2026-13.767 2.7533-21.476 2.7533 4.4053 2.2026 8.8106 3.8546 13.767 4.956-4.9559 4.4053-8.8106 7.1586-13.767 10.463 7.7093-1.652 18.172-4.956 25.881-9.9119 3.8546 0 7.7092 0 10.463-.55066-.55066-2.2026-1.1013-3.8546-1.652-7.1586 7.1586-5.5066 12.665-10.463 18.172-16.52-6.6079 4.4053-12.115 7.7092-19.273 11.013v-9.9119z"/>
</g></svg>
