<svg width="250" height="250" data-author="YAXI GmbH" data-logo-id="btv" data-primary-color="#d00017" data-maskable="true" version="1.1" viewBox="-5.088 -5.088 250 250" xmlns="http://www.w3.org/2000/svg"><path d="m25.808 69.214c-7.5974 0-14.182.20221-19.551.60739-5.4701.40518-9.2172.80998-11.344 1.1139v97.854c1.9247.30388 5.3675.60739 10.432 1.1139 5.0649.4052 11.244.70828 18.639.70828 12.358 0 21.779-2.9369 28.463-8.812 6.6856-5.8753 9.928-13.879 9.928-24.009 0-6.179-1.4174-11.041-4.2536-14.384s-5.6729-5.571-8.5094-6.6852c-2.8365-1.1141-5.0656-1.7228-6.3826-1.8241 1.2156-.30388 2.9388-1.0118 5.2687-2.3286 2.4311-1.2156 4.8619-3.5461 7.1918-6.8889 2.4311-3.3428 3.5454-7.6986 3.5454-13.169 0-7.496-2.8367-13.27-8.5094-17.321-5.5713-3.9506-13.877-5.9769-24.918-5.9769zm42.645 1.7212v18.133h31.807v79.722h20.36v-79.722h31.605v-18.133zm86.407 0 36.263 97.854h16.006l37.783-97.854h-20.26l-24.108 63.92-23.197-63.92zm-130.37 14.587c4.6598 0 8.3075 1.0126 10.84 3.1398 2.5325 2.0259 3.848 4.8623 3.848 8.6103 0 4.1532-1.2148 7.3962-3.7473 9.7261s-6.4826 3.5454-11.75 3.5454c-2.2285 0-4.0534-.002-5.6743-.10289-1.5195-.10129-2.6329-.20179-3.2407-.20179v-24.209c.50649-.10129 1.5195-.20139 3.0388-.3027 1.5195-.10129 3.8489-.20379 6.6852-.20379zm.71026 39c11.345 0 17.118 4.8619 17.118 14.789 0 10.737-5.3673 16.107-16.105 16.107-2.8362 0-5.2687-.20219-7.2946-.60739-2.0259-.4052-3.4438-.70948-4.1527-.91209v-29.071c.91167 0 2.3291-.1025 4.2536-.20379 1.9247-.10129 4.0534-.10089 6.1807-.10089z" fill="#d00017"/></svg>
