<svg xmlns="http://www.w3.org/2000/svg" version="1.1" viewBox="0 0 250 250" xml:space="preserve" data-logo-id="bundes" data-primary-color="#0068a5" data-author="YAXI GmbH" data-secondary-color="#fdbb32" data-maskable="true"><path d="m171.3 5e-8v250h41.839v-250z" fill="#0068a5"/><path d="m51.261 93.753-9.1717 6.6703 3.484-10.809-9.1717-6.6703h11.345l3.5138-10.78 3.5138 10.78h11.345l-9.1717 6.6703 3.5138 10.809m-10.422 39.367-3.5138-10.809 9.1717-6.6703h-11.345l-3.5138-10.78-3.484 10.78h-11.375l9.2014 6.6405-3.5138 10.809 9.1717-6.7001m19.981 45.531-3.484-10.78 9.1717-6.6405h-11.345l-3.5138-10.809-3.5138 10.809h-11.345l9.1717 6.6703-3.5138 10.75 9.1717-6.6703m135.22-77.751-9.1717 6.6405 3.5138-10.809-9.1717-6.6703h11.345l3.5138-10.78 3.5138 10.78h11.345l-9.1717 6.6703 3.5138 10.809m10.661 38.98-3.5138-10.809 9.2014-6.6405h-11.375l-3.484-10.78-3.5138 10.78h-11.375l9.1717 6.6703-3.5138 10.809 9.1717-6.7001m-1.4591 46.752-3.5138-10.78 9.1717-6.6703h-11.345l-3.5138-10.809-3.5138 10.809h-11.345l9.1717 6.6703-3.484 10.78 9.1717-6.6405m-77.304-111.82 9.2014-6.7001 9.1717 6.6703-3.5138-10.809 9.1717-6.6703h-11.345l-3.5138-10.78-3.5138 10.78h-11.345l9.1717 6.6703m52.32 20.517-3.4841-10.78 9.1717-6.6703h-11.345l-3.5138-10.78-3.484 10.78h-11.345l9.1717 6.6703-3.5138 10.78 9.1716-6.6703m9.2014 143.77-3.5138-10.809 9.2015-6.6703h-11.345l-3.5138-10.78-3.5138 10.78h-11.345l9.1717 6.6703-3.5138 10.78 9.1716-6.6703m-28.259 16.974-3.5138-10.809 9.1717-6.6703h-11.345l-3.484-10.78-3.484 10.78h-11.345l9.1717 6.6703-3.5138 10.78 9.2014-6.6703m-29.867-139.87-3.484-10.78 9.1717-6.6703h-11.345l-3.5138-10.809-3.5138 10.809h-11.345l9.1717 6.6703-3.484 10.78 9.1717-6.6703m9.4694 142.76-3.5138-10.78 9.1717-6.6703h-11.345l-3.5138-10.809-3.5138 10.809h-11.345l9.2014 6.6703-3.5138 10.809 9.2014-6.6703" fill="#fdbb32"/></svg>
