<svg fill="none" data-author="YAXI GmbH" data-logo-id="c24" data-primary-color="#0949cfff" data-maskable="true" version="1.1" viewBox="0 0 250 250" xmlns="http://www.w3.org/2000/svg"><path d="m236.01 101.79v-62.386h-17.156l-45.453 65.212v11.183h46.487v27.266l16.121-3.8951v-23.371h13.993v-14.01zm-44.17 0 28.079-40.993v40.993zm-112.51 19.382c-.21908.12565-21.256 11.026-37.315 6.1255-15.684-4.8062-24.355-17.873-24.355-36.815 0-6.7852 1.1582-12.911 3.4749-18.22 3.0677-6.848 7.8574-12 14.243-15.36 5.1651-2.6387 11.52-3.9894 18.595-4.0209 14.526 0 24.698 7.005 27.58 9.3924v-16.272c-3.1304-2.5759-9.2347-5.0574-12.396-5.9999-10.205-3.0784-20.942-2.5759-31.272-.34554-10.33 2.2303-20.223 7.6333-26.827 16.146-6.0731 7.5704-11.05 19.508-11.05 35.748 0 15.927 5.0399 29.214 14.62 38.418 7.294 7.005 16.748 11.277 28.081 12.785 2.6989.35195 5.4174.53031 8.1392.53406 15.996 0 28.956-5.9999 30.897-7.5704v-15.833zm125.62 39.548 10.989 4.9947c-15.277 13.445-35.687 23.308-59.01 29.025-50.181 12.345-100.39-5.654-119.77-16.052-20.912-11.214-35.061-23.591-35.061-23.591 1.5965 5.0574 34.028 57.235 121.02 57.235h.0939c37.784 0 75.725-13.005 101.49-34.743 7.2036-6.1106 13.554-13.169 18.877-20.984l4.2575-6.2512zm-81.324-32.228 5.1965-4.8376c20.505-19.79 34.998-35.339 34.998-55.099 0-15.36-9.9866-30.878-32.306-30.878-8.9223-.02391-17.658 2.5633-25.138 7.4448l-.75127.50261v16.303l2.6294-1.8848c.4383-.31411 11.238-7.7274 20.379-7.7274 15.84.18847 18.282 11.309 18.282 17.905-.15597 14.764-11.864 27.581-36.72 51.328l-11.113 10.837v10.743h67.21v-14.638z" fill="#0949cf"/></svg>
