<svg data-author="YAXI GmbH" data-logo-id="calenberger" data-primary-color="#0a369c" data-maskable="true" version="1.1" viewBox="0 0 250 250" xmlns="http://www.w3.org/2000/svg"><path d="m146.64 0v14.499h60.512v117.15a74.102 74.102 0 01-5.2995 27.139l-46.094-36.03 47.614-60.931h-18.51l-62.285 79.72-.11114.14651a54.324 54.324 0 01-16.055 14.741l-.27279.1263a43.381 43.381 0 01-19.419 4.5467 43.866 43.866 0 01-43.815-43.81 43.861 43.861 0 0143.815-43.81 43.75 43.75 0 0116.317 3.1726v-15.428a58.218 58.218 0 00-16.317-2.3592 58.258 58.258 0 00-43.861 19.904v-64.28h74.733v109.72l14.534-18.601v-105.61h-103.77v131.65c0 30.241 16.343 60.117 47.261 86.388a228.95 228.95 0 0046.336 30.514l3.0615 1.4347 3.0665-1.4347a228.64 228.64 0 0046.321-30.489c30.903-26.27 47.235-56.163 47.235-86.388v-131.67zm18.626 206.8a222.95 222.95 0 01-40.243 27.073 223.02 223.02 0 01-40.264-27.073 130.89 130.89 0 01-35.11-44.432 58.137 58.137 0 0037.066 13.301 57.864 57.864 0 0025.765-5.9713 68.085 68.085 0 0021.647-19.243l12.68-16.232 48.499 37.889a141.24 141.24 0 01-30.054 34.671" fill="#0a369c"/></svg>
