<svg fill="none" data-author="YAXI GmbH" data-logo-id="castell" data-primary-color="#f10003" data-maskable="true" version="1.1" viewBox="0 0 250 250" xmlns="http://www.w3.org/2000/svg"><path d="m79.842 50.338c1.6185-1.9335 3.7623-3.3365 6.1619-4.0327-1.9364 9.3834-1.8327 19.084.30369 28.422-1.746.47679-3.0366.87619-3.7957 1.1339-1.802-3.8054-3.2875-7.7572-4.441-11.815-1.2652-5.9655-.61994-10.577 1.8346-13.708zm27.835-.09024c2.6398 1.5452 5.4141 2.8391 8.2875 3.8652v15.68c-3.1758.21905-6.1869.52798-9.0215.88869-.53506-6.9417-.55619-13.914-.0633-20.859zm-15.296-4.8959c2.9808.02935 5.9311.61453 8.7048 1.7265-.69566 8.1435-.72101 16.332-.0759 24.479-3.3276.55417-6.3262 1.147-8.8566 1.7393-2.0629-9.2018-1.9805-18.769.24042-27.932zm32.656 10.152c.77179 0 1.5436 0 2.3154-.10304l.70846-.06446v20.241l2.8595.14167c11.566.57619 23.028 2.5042 34.161 5.7464-1.1512 2.4351-2.2649 4.7417-3.1881 6.6226-9.3631-2.1-23.243-4.9732-36.819-4.9732-13.576 0-27.519 2.8732-36.857 4.9732-.93625-1.881-2.0496-4.1875-3.1884-6.6226 11.133-3.2423 22.596-5.1703 34.161-5.7464l2.8468-.14167v-20.254l.72113.06441c.75917 0 1.5436.1031 2.3028.1031zm18.067-5.6818c.52083 6.9429.52083 13.916 0 20.859-2.8214-.36072-5.8328-.66964-9.0084-.88869v-15.68c2.8726-1.0287 5.6464-2.3224 8.2875-3.8653l.79703-.42512zm5.8964-2.7443c2.7738-1.112 5.7238-1.6971 8.7048-1.7265 2.2167 9.1643 2.2988 18.73.24047 27.933-2.5304-.59286-5.5548-1.1857-8.8566-1.7399.67678-8.1453.67678-16.334 0-24.479zm21.319 3.2467c2.4548 3.1308 3.0619 7.7304 1.8345 13.708-1.153 4.0595-2.6429 8.0119-4.4536 11.815-.78453-.25774-2.075-.65714-3.7958-1.1339 2.1298-9.3399 2.2202-19.042.26607-28.422 2.4036.69393 4.5524 2.0971 6.1744 4.0327zm-85.292 44.759c9.1096-2.0744 24.748-5.8494 39.994-5.8494s30.897 3.775 40.007 5.8494c1.0756-1.9839 11.286-22.135 12.867-29.775 3.872-18.707-8.0846-25.91-19.839-26.064h-.39226c-5.2411.1131-10.384 1.472-15.018 3.9683-5.0607 2.5768-9.2232 5.5916-15.79 6.0941-.60733 0-1.2652.07726-1.8346.07726-.56941 0-1.2652 0-1.822-.07726-6.5667-.5025-10.717-3.5689-15.803-6.0941-4.6291-2.4974-9.7679-3.8565-15.006-3.9683h-.3922c-11.754.15458-23.723 7.3566-19.839 26.064 1.5816 7.6405 11.792 27.791 12.867 29.775zm90.112 71.119c-15.546-2.9036-31.302-4.4893-47.105-4.7411v-50.66c18.979.50238 37.363 5.5268 42.765 7.1244.53155 2.2161 1.4423 6.0298 1.7333 7.5762 1.5375 8.0429 2.4935 16.191 2.8595 24.376.26726 5.4667.18274 10.946-.25297 16.401zm-4.3018 21.736c.11369-5.5018 0-10.591-.15179-16.234 1.4673.24464 2.7328.48928 3.7952.68274-.74584 5.2822-1.9524 10.487-3.606 15.551zm-6.6679 15.048v.0643c-2.2798 3.956-4.8155 7.7518-7.5917 11.364.65774-15.087.68333-30.11.0762-44.785 2.9476.36072 5.6554.73453 8.0846 1.0952.47797 10.738.29643 21.495-.54405 32.21zm-14.095 19.004c-2.4548 2.6804-5.053 5.2572-7.7941 7.7304v-61.506c2.8595.19346 5.6179.4381 8.2363.69584.74227 17.69.59465 35.407-.44226 53.082zm-13.804 12.884c-1.9988 1.5976-4.0488 3.1566-6.1613 4.6512l-2.075 1.456v-73.441c2.7958 0 5.5542.12917 8.2363.25774zm-14.246-73.441c-2.7835 0-5.5544.12857-8.2744.25774v-50.248c2.7203-.27084 5.4912-.48929 8.2744-.61846zm0 79.548c-.72119-.48928-1.4297-.99226-2.1256-1.4946-13.762-9.5506-25.351-21.998-33.985-36.5-5.3804-9.403-8.8929-19.791-10.337-30.574 15.335-2.8357 30.865-4.4429 46.447-4.8054zm-47.408-91.155c.36869-8.1852 1.3201-16.332 2.8468-24.377.29101-1.4946 1.1387-5.1536 1.6827-7.331-.81965 15.803-.78161 31.64.11387 47.439l-4.3777.77322c-.44696-5.4893-.53576-11.003-.26572-16.504zm10.616-33.499c2.3533-.55357 5.1495-1.1851 8.2744-1.8161-.77179 17.535-.75917 33.64 0 48.959-2.9986.36072-5.7948.74703-8.3125 1.1077-.88042-16.071-.88042-32.179 0-48.251zm14.348-2.95c2.5305-.45119 5.3394-.88929 8.1732-1.2887v49.977c-2.8468.20655-5.605.4512-8.2494.72143-.77179-15.461-.74649-31.682.07589-49.435zm76.31 0-1.2655-.63155c-.15178-.0774-24.824-8.1167-49.648-8.1167h-.076c-16.781.69941-33.422 3.4244-49.572 8.1167l-1.2652.63155-.27835 1.2881c-.07591.29643-1.746 7.1768-2.2142 9.5732-1.5859 8.3506-2.5754 16.807-2.9607 25.304-1.0122 22.135 2.948 40.636 12.121 56.6 9.0774 15.277 21.26 28.399 35.73 38.485 2.2882 1.6673 4.6663 3.203 7.1232 4.5994l1.4171.77322 1.4171-.77322c2.4602-1.3905 4.8388-2.9262 7.1232-4.5994 14.476-10.079 26.66-23.202 35.73-38.485 9.1858-15.912 13.146-34.413 12.121-56.561-.38095-8.4798-1.3702-16.92-2.9607-25.252-.45536-2.3964-2.1381-9.2762-2.2012-9.5726zm-50.853-89.117c1.001 0 1.9794.30226 2.8117.86852.83233.56631 1.4811 1.3712 1.8639 2.3129.38333.94173.48333 1.9779.2881 2.9776-.19524.9997-.67739 1.918-1.3851 2.6387-.70768.72078-1.6095 1.2116-2.5912 1.4104-.98173.19887-1.9993.09679-2.924-.29328-.92483-.39006-1.7152-1.0506-2.2713-1.8981-.55613-.8475-.85292-1.8439-.85292-2.8632 0-1.3668.53322-2.6777 1.4823-3.6441.94911-.96649 2.2364-1.5095 3.5786-1.5095zm-11.121 5.1536c-.007 2.1063.56417 4.1725 1.6484 5.9661 1.0842 1.7936 2.6386 3.2436 4.4883 4.1863 1.8496.94268 3.9211 1.3408 5.981 1.1495 2.0598-.19125 4.0264-.96435 5.6782-2.2322 1.6512-1.2678 2.9226-2.9801 3.6702-4.9439.74822-1.9638.94227-4.1011.56191-6.1714-.38095-2.0702-1.3214-3.9911-2.7167-5.5464-1.3946-1.5552-3.1881-2.683-5.1786-3.2564v-5.6045h7.4649v-6.1197h-7.5917v-6.8417h-5.9086v6.8286h-7.5917v6.1197h7.5917v5.6045c-2.334.66548-4.3906 2.0892-5.8569 4.0544-1.4663 1.9652-2.2619 4.3645-2.2659 6.8328" fill="#f10003"/></svg>
