<svg data-author="YAXI GmbH" data-logo-id="commerz" data-primary-color="#ffd701" data-maskable="true" version="1.1" viewBox="0 0 250 250" xmlns="http://www.w3.org/2000/svg"><defs><radialGradient id="Gradient_1" cx="68.113" cy="-.071" r="53.406" gradientTransform="matrix(3.6232,0,0,3.6232,-92.393,16.304)" gradientUnits="userSpaceOnUse"><stop stop-color="#FFEF19" offset="0"/><stop stop-color="#FFDF08" offset=".246"/><stop stop-color="#FFD700" offset=".44"/><stop stop-color="#FDD401" offset=".588"/><stop stop-color="#F7C903" offset=".713"/><stop stop-color="#ECB808" offset=".829"/><stop stop-color="#E3A90B" offset=".9"/><stop stop-color="#D98B07" offset="1"/></radialGradient><radialGradient id="Gradient_2" cx="29.667" cy="39.018" r="53.076" gradientTransform="matrix(3.6232,0,0,3.6232,-92.393,16.304)" gradientUnits="userSpaceOnUse"><stop stop-color="#FFEF19" offset="0"/><stop stop-color="#FFDF08" offset=".246"/><stop stop-color="#FFD700" offset=".44"/><stop stop-color="#FDD401" offset=".588"/><stop stop-color="#F7C903" offset=".713"/><stop stop-color="#ECB808" offset=".829"/><stop stop-color="#E3A90B" offset=".9"/><stop stop-color="#D98B07" offset="1"/></radialGradient><radialGradient id="Gradient_3" cx="82.281" cy="52.934" r="53.363" gradientTransform="matrix(3.6232,0,0,3.6232,-92.393,16.304)" gradientUnits="userSpaceOnUse"><stop stop-color="#FFEF19" offset="0"/><stop stop-color="#FFDF08" offset=".246"/><stop stop-color="#FFD700" offset=".44"/><stop stop-color="#FDD401" offset=".588"/><stop stop-color="#F7C903" offset=".713"/><stop stop-color="#ECB808" offset=".829"/><stop stop-color="#E3A90B" offset=".9"/><stop stop-color="#D98B07" offset="1"/></radialGradient></defs><g><path d="m159.72 16.304h-92.859c-.07609 0-.14493.04348-.18841.1087l-66.649 115.45c-.036232.0688-.036232.15218 0 .21739l47.377 82.076c-.17754-.56884-.49638-1.1993-.49638-1.1993-1-1.8623-1.7428-3.3044-2.1377-4.2138-1.942-4.4384-3.0725-10.572-2.7573-16.547.78261-15.739 8.6486-31.257 12.844-38.529 9.8805-17.087 28.953-50.123 28.953-50.123s19.073-33.04 28.924-50.127c2.442-4.2319 6.6051-11.076 12.261-17.743l.17753.20652s.20653-.22826.2174-.23913c4.0616-4.7862 8.895-9.4819 14.402-13.044 5.0399-3.2536 10.92-5.3515 15.746-5.8841 1.5942-.17754 4.1486-.40942 4.1486-.40942" fill="url(#Gradient_1)"/><path d="m240.27 148.72c-2.2174 3.721-3.9457 6.4892-4.8804 7.7754-2.8623 3.8986-7.6268 7.9602-12.946 10.685-14.036 7.192-31.645 7.692-40.054 7.692h-115.28c-8.3913 0-25.529-.5-39.547-7.692-5.3189-2.7246-10.091-6.7862-12.953-10.685-.94566-1.2862-2.1594-2.9022-2.1594-2.9022l46.178 79.997c.03986.0652.1087.1087.19203.1087h132.34c.0797 0 .14855-.0435.18841-.1087l49.192-85.174s-.10507.0217-.26812.30435z" fill="url(#Gradient_2)"/><path d="m183.12 16.304h-23.797s-2.5544.23188-4.1486.40942c-4.8225.53261-10.703 2.6304-15.746 5.8841-5.5181 3.5689-10.362 8.279-14.431 13.076 5.6522 6.6667 9.8261 13.507 12.246 17.743 9.8624 17.087 28.957 50.131 28.957 50.131s19.058 33.033 28.931 50.12c4.1993 7.2718 12.076 22.79 12.855 38.529.26812 5.4239-.62681 10.971-2.2428 15.272l-1.4022 3.6232 45.634-79.018c.0399-.0652.0399-.14855 0-.2174l-66.667-115.44c-.0399-.06522-.10869-.1087-.1884-.1087z" fill="url(#Gradient_3)"/></g></svg>
