<svg xmlns="http://www.w3.org/2000/svg" version="1.0" viewBox="0 0 250 250" data-logo-id="consors" data-primary-color="#00769e" data-author="YAXI GmbH" data-maskable="true"><defs><linearGradient id="linearGradient20" x1="86.2" x2="295.5" y1="1.1" y2="877.5" gradientUnits="userSpaceOnUse"><stop stop-color="#02d3e2" offset="0" /><stop stop-color="#0081a8" offset="1" /></linearGradient></defs><g transform="matrix(.24465 0 0 .24465 -.26032 -.036317)"><path d="m305.3 580.8c-5.9 2.1-11.2 5.9-14.2 10-2.2 3.1-4.1 10.2-3.6 13 .2.9.6 2.9.9 4.4 2.1 9.7 16.8 16.2 31.7 13.8 18.7-2.8 27.4-13.1 26.7-31.1l-.3-7.3-6-1.9c-8.9-2.9-28.3-3.4-35.2-.9zm-136.4-46.4c-7.1 2-14.8 5.9-21.6 11l-6.3 4.6v53.8l5.3 3.9c11.7 8.9 20.6 11.7 35.1 11.1 8.4-.3 11.1-.9 16.3-3.2 14.8-6.7 23.2-22.9 22-42.1-1.6-25.1-16.7-40.7-39.4-40.4-3.7 0-8.9.6-11.4 1.3zm488.6-246.5c-11.3 5.3-18.2 15.7-20.5 30.4-3 20.2 5.5 38.9 21.5 46.8 5.8 2.8 7.1 3.1 14.2 2.8 18-.9 30.5-13.6 33.2-33.9 2.7-20.2-5.9-38.8-21.4-46.1-8.5-4.1-18.5-4.1-27 0zm-367.9-1.1c-6.4 2.1-15.6 10.6-18.6 17-7.5 15.7-6.6 34.6 2.2 48.4 11.4 17.9 34.1 21.5 49.1 7.8 9.1-8.4 13.7-19.3 13.7-33 0-17.8-8.3-32.6-21.9-39.1-6.2-3-17.7-3.5-24.5-1.1zm-203.4-285.7c-15.3 3-26.2 14.4-29.1 30.3-.8 4.3-1.1 121.6-1.1 409 0 333.1.3 404 1.4 408.1 3.9 14.9 14.2 24.8 28.5 27.5 3 .5 20.5 1 39 1h33.6l32.1 36.3c17.6 19.9 44.1 49.9 58.9 66.7 38.9 44.3 36.7 42 40.2 42 1.7 0 3.6-.6 4.2-1.3.8-1 1.2-21.9 1.3-72.3l.3-70.9 321-.5c304.9-.5 321.2-.6 325.5-2.3 10.9-4.3 19.2-11.4 23.5-20.1l2.5-5v-821.3l-3-6c-5.4-10.8-17.4-19.2-30.6-21.3-7.4-1.2-842.1-1.1-848.2.1zm128.3 217.9c6 1.9 19.2 7.4 20.2 8.4.2.1-1.8 5.4-4.3 11.7s-5 12.4-5.5 13.7l-.9 2.2-4-2.5c-2.2-1.4-7.5-3.7-11.7-5.2-10.7-3.6-26.4-3.9-36.8-.6-37.5 11.9-54.1 52.6-36.3 89 6.4 13.2 16.6 22.5 31 28.2 16.9 6.8 36.8 5.8 54-2.5 2.1-.9 3.9-1.6 4.1-1.3.4.4 5.1 11.8 8.6 20.7l2.1 5.3-7.2 3.4c-11.9 5.6-18.3 6.9-35.8 6.9-13 .1-16.8-.3-23.6-2.1-30.3-8.3-53.5-29.7-63-58.1-17.2-51.7 11.1-104 64-118.3 10.3-2.8 35-2.2 45.1 1.1zm100 41.2c17 3.6 32 15.9 40.5 33.3 9 18.1 10.2 38.6 3.6 57.7-7 20-24 36.3-43.2 41.3-7.3 1.9-22.2 1.9-29.2.1-29.7-8-48.8-36.4-46.9-70.1 2.4-42.2 36.6-70.6 75.2-62.3zm371.4-.1c19.3 4.7 36.4 21.1 43.7 42.4 2.6 7.3 2.8 9.2 2.9 23 0 13.9-.2 15.6-2.9 23.9-8.8 26.7-32 44.5-58.3 44.6-9.9 0-16.4-1.5-26.1-6.2-14.6-6.9-25.8-20.1-32-37.7-2.5-7-2.7-8.8-2.7-23.6s.2-16.6 2.7-23.6c3.9-11.1 9.2-19.5 17.3-27.6 8-7.9 17.8-13.3 27.5-15.2 3-.6 6.4-1.3 7.5-1.5 2.9-.7 15 .2 20.4 1.5zm-228.6 2.4c16.1 3.4 26.3 13.5 31.4 31.2 1.4 5 1.7 12.7 2.1 53l.4 47.3h-25.2v-36.8c-.1-48.1-1-54.4-9-63.6-11.4-12.9-35.5-12-46 1.7-7.5 9.8-7.4 9.3-7.8 56.5l-.3 42.3-25.4-.6v-129l12.8-.3 12.7-.3v26.6l4.4-6.5c12.5-18.7 29.3-25.9 49.9-21.5zm361.7 13.2v14.8l-9.9-.3c-8.3-.3-10.4-.1-13.8 1.6-5.3 2.8-10.9 9.2-14.4 16.6-4.8 10.4-5.9 20.2-5.9 54.7v30.9h-26v-130h25.9l.3 11.7.3 11.6 5.3-7.1c4.8-6.4 11.1-12 17-15.1 2.9-1.5 13.6-3.9 18-4l3.2-.1zm-251.6-11.7c8 2 23.6 9.1 25.7 11.6 1 1.3.4 3.3-3.6 11.5-2.7 5.4-5.3 9.9-5.8 9.9s-3.6-1.5-7-3.4c-8.9-5-18.1-7.7-25.9-7.7-10.3-.1-15.7 3.6-16.5 11.3-.9 7.8 3.9 11.6 25.3 19.6 7.2 2.8 14.9 5.9 17 7 5.7 2.9 14 10.7 17.2 16.1 2.5 4.3 2.7 5.4 2.7 16.1 0 10.6-.2 12-2.9 17.8-3.2 6.9-11.3 15.2-17.5 17.8-14.4 6.3-33.3 6-50.2-.6-6-2.4-15.4-7.9-19.8-11.6l-2.9-2.4 6-10 6-10.1 4.8 3.5c18.3 13.2 39.5 16.3 48.7 7.1 2.8-2.8 3.3-4 3.3-8.3 0-8.6-4-11.5-26.8-19.3-14.6-5.1-20.5-8.2-26.2-13.9-6.1-6.1-9.2-12.8-9.8-21.5-1.3-19.8 10-35.8 28.8-41.1 7-1.9 20.6-1.7 29.4.6zm323.5.5c6.3 1.9 18.4 7.7 22.1 10.5l2.4 1.8-4.9 9.7c-2.8 5.3-5.5 9.9-6.2 10.2-.6.2-3.1-.8-5.4-2.3-2.4-1.5-7.9-4-12.3-5.6-17.3-6.3-31.6-2.1-31.6 9.3 0 7.2 6.1 11.8 24.9 18.6 20.5 7.4 29.7 13.8 34.8 24.1 2.5 5.1 2.8 6.7 2.7 15.7 0 7.9-.5 11.2-2.3 15.7-4.2 10.8-15 19.7-27.6 22.7-7.1 1.8-21.9 1.5-30.1-.5-11-2.7-22.1-8.2-31.8-15.8-1.7-1.4-1.6-1.9 3.5-10.3 2.8-4.8 5.6-9.3 6.1-10 .7-.8 3.1.3 8.8 4.1 22.3 15 49 13.1 49-3.4 0-8.1-4.3-11.2-26.2-18.8-15.7-5.5-21.2-8.4-27.3-14.6-7.4-7.4-9.8-14.2-9.3-26.1.3-7.2 1-10.3 3.2-15.2 4.5-9.8 13.8-17.5 25.6-20.9 6-1.8 24.7-1.1 31.9 1.1zm-749.9 228.6c0 16 .3 28.9.8 28.7 19.2-9.9 27.1-12.2 41.7-12.1 13.1 0 23.5 2.9 33.1 9.1 12.2 8 20.3 19.2 25 34.7 2.4 7.9 2.7 10.6 2.7 23 0 12.3-.3 15.1-2.7 23-3.6 11.8-6.8 17.6-14.3 25.5-7.2 7.7-13.9 11.9-24.8 15.7-7.2 2.5-9.3 2.7-21.5 2.7-14.2 0-22.1-1.4-32.5-5.7-10.7-4.5-23-14.2-30-23.7l-3.5-4.8v-145.2h26zm435.2 23.9.3 52.9 27-29.4 27-29.5h16.9c15.9 0 16.8.1 15.5 1.7-1.2 1.6-29.2 31.2-45.6 48.4l-5.4 5.5 26.5 37 26.5 36.9-15.2.3c-11.2.2-15.4-.1-16.3-1-.7-.7-9.4-13.2-19.4-27.8s-18.4-26.6-18.9-26.8c-.4-.1-4.8 4-9.9 9.1l-9.2 9.4v37.3h-26v-177h26zm198.8 14v67h-26v-134h26zm-295-21.9c17.6 2.8 29.2 13.2 33.9 30.6 2 7.6 2.1 10.1 2.1 54.6v46.7h-25v-41.5c0-39.7-.1-41.7-2.2-48-4.2-12.9-13.6-19.7-27.3-19.8-12.6 0-20.8 4-26.6 13.1-5.7 9-5.9 10.7-5.9 55.4v40.8h-26v-130.1l12.8.3 12.7.3.3 12.9.3 13 3.9-6c8-12.3 19.7-20.7 31.4-22.4 7.4-1.1 8.4-1.1 15.6.1zm-149.2.9c20.2 3.3 35 16.7 39.7 36.1 2.2 8.6 3.2 43.4 1.6 54.9-1.5 11.5-5.4 19.5-13.4 27.4-7.3 7.4-12 10-22.5 12.7-16.7 4.2-37 3.4-49.5-2-6.1-2.6-15.6-11.7-18.6-17.6-7.5-14.9-4.2-36 7.5-48.6 6.2-6.5 10.9-9.2 20.9-12 6.9-1.9 9.7-2.1 21-1.6 8.7.3 15.5 1.2 20.5 2.6 4.1 1.1 7.9 2.1 8.4 2.1.9 0 .1-8.3-1.5-14.3-4.2-15.7-27.2-20.7-54.3-11.6-4.9 1.6-9 2.8-9.1 2.7-.1-.2-1.8-4.9-3.8-10.6-4.1-11.8-4.9-10.3 8.3-15 7.3-2.5 13.6-3.9 25-5.6 5.2-.7 13.7-.5 19.8.4zm444 119.7.3 11.3h-26.1v-10.8c0-6 .3-11.2.7-11.6.4-.3 6.1-.5 12.7-.4l12.1.3z" fill="url(#linearGradient20)" /><path d="m390.3 956.6c-.3.8 2.5 8.2 6.6 16.9 3.9 8.4 7.1 16 7.1 16.7 0 3.5-3 5.7-8.3 6-6 .3-7 2.4-2.3 4.7 3.6 1.7 9.2.3 12.4-3.2 2.5-2.6 17.2-37.4 17.2-40.6 0-1.7-.5-2.2-2.2-1.9-1.9.2-3.2 2.5-7.7 14.1-3 7.6-5.8 13.4-6.2 13-.3-.5-3.2-6.8-6.4-14.1-4.5-10.3-6.2-13.2-7.7-13.2-1 0-2.1.7-2.5 1.6zm549.8-12.9c-4.3 2.2-7.1 6.7-7.1 11.8 0 7.2 2.9 9.6 17 14 5.7 1.8 8.5 3.3 9.6 5 2.2 3.4 1.1 7.1-2.9 9.6-4.3 2.7-12.4 2-17.8-1.5-4.5-3-6.7-3.3-7.6-.9-1.4 3.7 9.9 9.3 18.8 9.3 11.7 0 18.5-7.4 15.8-17.3-1.2-4.7-4.5-6.9-15.5-10.2-9.1-2.8-11.4-4.7-11.4-9.3 0-6.5 11-9 19.5-4.4 3.3 1.8 4.2 2 5.3.9 2.1-2.1.4-4.4-4.8-6.6-5.9-2.5-14.2-2.7-18.9-.4zm-45.3 0c-.9 1-5.9 11.4-11.3 23.2-8.6 19.2-9.5 21.5-8.1 22.9 2.1 2.1 3.9.4 6.7-6.4l2.3-5.4h25.7l2.5 5.4c3.1 6.9 4.9 8.5 7 6.4 1.4-1.4.6-3.8-8.6-23.9-11.4-25.1-12.4-26.5-16.2-22.2zm12.1 27c.1 1-2.5 1.3-9.8 1.3h-10l2.8-6.3c1.6-3.4 3.9-8.5 5.1-11.2l2.2-5 4.9 10c2.6 5.5 4.8 10.6 4.8 11.2zm-80.9-27.8c-1.2.8-1.6 4.6-1.8 20.8-.2 10.9-.1 21.3.3 23l.6 3.3h13.5c15.4 0 19.2-1.1 22.4-6.2 3.8-6.3 2.1-13.1-4.1-16.3l-3-1.6 3.1-3c2.5-2.5 3-3.9 3-7.8 0-9.4-4.6-12.2-21-12.8-6.9-.3-12.1 0-13 .6zm24.5 6.1c3.6 1.4 4.9 5.2 3.1 9.5-1.8 4.1-4 4.9-15.1 4.9l-8 .1-.3-7.8-.3-7.7h9c4.9 0 10.1.4 11.6 1zm2 21.4c3.7 1.6 5.2 4.8 4.1 9.1-1 4.1-5.3 5.5-16.6 5.5h-10v-16h9.5c6 0 10.8.5 13 1.4zm-50.3-27.2c-.9.9-1.2 7.5-1.2 23.4 0 18.5.2 22.4 1.5 23.4 1.2 1 1.8 1 3 0 1.3-1 1.5-4.9 1.5-23.4 0-21.2-.4-24.6-3-24.6-.3 0-1.1.5-1.8 1.2zm-52.4-.2c-1.6 1-1.8 3.3-1.8 23.9 0 19.2.2 23 1.5 23.5 3.1 1.1 4.5-2.2 4.5-10.5v-7.9h12.8l6.7 8.7c3.7 4.9 7.3 9.2 8.1 9.6 1.5.8 4.4-.7 4.4-2.3 0-.4-2.7-4.2-6.1-8.4-3.3-4.3-5.8-8-5.6-8.3.3-.2 2-1.3 3.8-2.2 5.1-2.8 7.4-6.5 7.4-12.1 0-5.8-2.4-9.7-7.9-12.4-4.6-2.2-24.9-3.4-27.8-1.6zm25.9 6.9c5.4 3.4 5.3 11.1-.3 14.8-1.9 1.2-5.3 1.8-12 2.1l-9.4.4v-19.2h9.3c7.3 0 9.8.4 12.4 1.9zm-67.9-6.2c-.8 1-5.9 11.4-11.2 23.2-8.6 19.1-9.5 21.6-8.2 23 1.4 1.3 1.7 1.3 3.3-.1 1-.9 2.7-3.9 3.8-6.7l1.9-5.1h26.2l2.3 5.4c2.8 6.9 4.6 8.5 6.8 6.3 1.4-1.4.6-3.5-8.8-24.4-10.9-23.9-12.4-25.9-16.1-21.6zm8.3 17.8 4.8 10.5h-20.8l4.1-8.8c2.2-4.8 4.4-9.8 4.9-11.1s1.2-2.1 1.6-1.8c.3.4 2.7 5.4 5.4 11.2zm-68.3-18.5c-1.6 1-1.8 3.3-1.8 23.9 0 19.2.2 23 1.5 23.5 2.9 1.1 4.5-2.2 4.5-9.5v-6.9h6.3c15.1-.1 22.8-5.3 22.9-15.7 0-11.1-5.6-15.3-21.6-16-6.3-.2-10.8 0-11.8.7zm23 7c6.4 3.9 6.5 11.5.3 15.7-2.8 1.9-4.7 2.3-11.2 2.3h-7.9v-20h7.8c5.9 0 8.4.5 11 2zm-97-7c-1.6 1-1.8 3.2-1.8 23.4 0 18.7.2 22.6 1.5 23.6 2.9 2.4 4.5-.5 4.5-8.5v-7.2l8.8-.5c14.9-.9 20.6-5.3 20.7-15.9 0-6.8-2.1-10.4-7.9-13.3-4.5-2.2-23-3.4-25.8-1.6zm23.1 6.4c4.5 2.4 6.2 8 4 12.9-1.9 4.2-5.9 5.7-14.8 5.7h-8.1v-20h8c5.1 0 9.1.5 10.9 1.4zm-81.3-5.8c-2.2 2.2-2.4 42.9-.2 45.9 1.2 1.6 1.6 1.7 3 .6 1.3-1.1 1.6-4.3 1.8-19.6l.3-18.2 13.5 17.4c16.2 20.8 17.4 22.1 19.5 20.3 2.2-1.8 2.3-45.1 0-47-1.2-1-1.8-1-3 0s-1.5 4.7-1.7 18.8l-.3 17.5-13.3-17.2c-17.3-22.2-16.6-21.5-19.6-18.5zm-52.9-.2c-1.5 1.5-1.7 4.3-1.7 22.6 0 11.5.3 21.5.6 22.4.5 1.4 2.7 1.6 14 1.6 18.5 0 23.1-2.2 24.1-11.4.6-5.4-1.1-8.7-5.9-11.2-3.1-1.6-3.1-1.6-1.1-3.3 4.6-3.6 5.9-11 2.9-15.6-2.9-4.4-7.1-5.8-19.6-6.3-10-.4-11.8-.2-13.3 1.2zm24.6 5.7c3 1.6 3.7 2.8 3.7 6.6 0 5.9-3.8 7.7-16 7.8h-7.5l-.3-7.8-.3-7.7h9.1c5 0 10.1.5 11.3 1.1zm1.6 21c6.7 2.3 6.9 10.3.4 13.7-1.2.7-6.5 1.2-12.2 1.2h-10.1v-16h9.4c5.1 0 10.7.5 12.5 1.1zm-143.2-29.5c-.4.4-.7 11.6-.7 25 0 18.4.3 24.3 1.3 24.6 2.2.9 3.7-.3 3.7-2.8v-2.5l3.7 2.8c3.1 2.4 4.6 2.8 9.9 2.8 10.4 0 15.6-5.3 16.2-16.5.4-6.1.1-7.5-2.2-11.4-2.8-4.8-9-8.6-13.9-8.6-3.5 0-8.8 2.2-10.6 4.3-.7 1-1.7 1.7-2.2 1.7-.4 0-1-4.4-1.1-9.7-.2-7.9-.6-9.8-1.8-10.1-.9-.1-1.9 0-2.3.4zm23.7 21c3.4 2.2 6 9.3 5.2 13.9-2.9 15.2-23.8 12.9-24-2.6-.2-10.5 10.4-16.9 18.8-11.3z" /></g></svg>
