<svg width="250" height="250" data-author="YAXI GmbH" data-logo-id="cvw" data-primary-color="#76bc1e" data-secondary-color="#ffdb00" data-maskable="true" version="1.1" viewBox="-2.7793 -2.7793 250 250" xmlns="http://www.w3.org/2000/svg"><path d="m93.661 123.61c11.628 0 21.059-9.428 21.059-21.056 0-11.631-9.4314-21.056-21.059-21.056-11.628 0-21.056 9.4244-21.056 21.056 0 11.628 9.428 21.056 21.056 21.056" fill="#ffdb00"/><path d="m187.5 19.031s-58.542 72.349-85.714 127.21l-70.55-27.429s47.144 48.264 80.066 106.6c0 0 15.188-101.65 76.198-206.38zm-144.73 68.282c-16.838 0-30.781 6.7665-38.923 21.809-4.6918 8.697-6.6262 17.806-6.6262 29.818 0 13.66 3.4485 26.225 11.04 34.644 8.8309 9.6613 19.604 13.247 31.473 13.247 14.078 0 23.877-4.1391 29.949-9.7984l-10.623-16.837c-5.385 4.829-10.353 6.3497-16.565 6.3497-5.107 0-9.1125-2.351-12.287-6.0782-4.0019-4.6918-4.6907-12.28-4.6907-28.155 0-11.319 1.5189-16.292 6.2141-21.12 2.4814-2.6222 6.4874-3.7254 10.764-3.7254 5.2478 0 10.075 1.796 14.358 5.108l10.487-18.225c-4.4204-4.2763-14.771-7.0385-24.569-7.0385zm130.2 6.1839-4.9672 26.642c-2.6222 14.216-4.2789 26.227-4.8315 33.955h-.14077c-.13718-3.5865-.96579-12.974-5.5201-34.644l-3.7656-18.109s-9.2522 23.654-15.615 41.965c.0618.25051.5279 2.2222.5279 2.2222l10.714 44.176h26.912l5.108-27.882c2.3476-12.558 4.4176-25.393 4.6956-30.225h.13077c.41528 6.0748 2.6261 18.632 4.6956 30.225l4.9721 27.882h26.364l24.976-96.206h-26.358l-4.8315 23.88c-1.9288 9.3869-4.8318 28.024-5.3844 36.58h-.1357c-.55254-11.731-2.4864-20.983-3.8662-28.299l-6.2089-32.16z" fill="#76bc1e"/></svg>
