<svg data-author="YAXI GmbH" data-logo-id="dkb" data-primary-color="#148dea" data-maskable="true" version="1.1" viewBox="0 0 250 250" xmlns="http://www.w3.org/2000/svg"><path d="m5e-6 78.17v93.425h36.464c20.734 0 45.521-18.113 45.521-46.71 0-31.22-24.785-46.71-45.521-46.71zm92.232 0v93.66h25.977v-40.276h.23881l23.117 40.276h30.029l-30.029-50.761 27.408-42.899h-30.029l-20.496 35.033h-.23881v-35.033zm86.509 0v93.425h41.23c15.73 0 30.029-9.7719 30.029-28.599 0-12.393-9.2946-20.495-15.253-22.64v-.23881c7.1496-2.1449 10.248-9.7715 10.248-18.589 0-13.108-11.678-23.356-28.598-23.356zm25.977 21.21h7.8652c4.29 0 8.103 3.0983 8.103 8.103 0 5.2433-3.5749 8.103-8.103 8.103h-7.8652zm-178.74 2.1452c14.538 0 30.028 3.813 30.028 23.356 0 19.543-15.729 23.356-30.028 23.356zm178.74 29.314h9.0568c5.2433 0 9.2946 4.0515 9.2946 9.2946s-2.8599 9.2946-8.103 9.2946v.23799h-10.248z" fill="#148dea"/></svg>
