<svg width="250" height="250" data-author="YAXI GmbH" data-logo-id="dkm" data-maskable="true" data-primary-color="#435152" version="1.0" viewBox="-.99656 -.99656 250 250" xmlns="http://www.w3.org/2000/svg"><path d="m-.99656 76.532v94.943h60.297c6.296 0 11.789-5.0899 11.789-11.429v-71.995c0-6.3392-5.3994-11.519-11.699-11.519zm98.271 0v39.777l28.708-39.777zm58.855 0-30.868 42.657 28.978 52.285h9.8992v-56.248l29.608 56.157 30.688-56.157.0898 56.248h24.478l-.0898-87.294.09-7.6493h-31.768l-23.219 42.927-22.679-42.927zm-133.64 16.649h18.899c2.8941 8.6e-5 5.7594 2.9338 5.7594 5.8497v48.508c-4.3e-5 2.9158-2.8654 5.5794-5.7594 5.5794h-18.899zm74.784 34.198v44.096h24.118z" fill="#435152"/></svg>
