<svg width="250" height="250" data-author="YAXI GmbH" data-logo-id="donnerreuschel" data-primary-color="#014b92" data-maskable="true" version="1.0" viewBox="-3.4008 -3.4008 250 250" xmlns="http://www.w3.org/2000/svg"><path d="m75.758 106.79h52.312c-31.478 86.223-43.463 118.95-48.059 131.37-43.123-18.309-72.939-64.251-72.939-116.56 0-67.821 50.15-125 114.52-125 64.389 0 114.54 57.177 114.54 125 0 67.869-50.15 125-114.54 125-8.7335 0-17.24-1.0462-25.359-3.0477l49.945-136.76h35.706l-41.028 112.29c39.415-9.7798 70.074-48.832 70.074-97.479 0-56.313-41.119-99.822-89.339-99.822-48.193 0-89.339 43.51-89.339 99.822 0 21.971 6.2772 42.03 16.785 58.27l26.724-73.077" fill="#014b92"/></svg>
