<svg width="250" height="250" data-author="YAXI GmbH" data-logo-id="edeka" data-primary-color="#004b69" data-secondary-color="#fdc200" data-maskable="true" version="1.1" viewBox="-.85039 -.85039 250 250" xmlns="http://www.w3.org/2000/svg"><path d="m153.14 24.625c-.00859-13.576-11.866-25.475-25.299-25.475h-81.992c-14.403 0-25.453 12.076-25.453 25.232l-.03526 32.963c0 13.973 11.227 25.398 25.398 25.398h17.303v-25.42c0-14.094 12.142-25.42 25.409-25.376.01775 0 64.658-.03526 64.658-.03526l.009-7.2895z" fill="#fdc200"/><path d="m181.99 203.95c-1.8528 2.7791-4.2458 4.9075-7.1905 6.4292-2.9445 1.5109-6.2311 2.5585-9.8484 3.1541-3.6172.58406-7.1024.88225-10.477.88225h-24.218v-40.87h23.964c9.2524 0 16.663 1.4226 22.222 4.2899 5.5471 2.8673 8.3262 7.9845 8.3262 15.384 0 4.3782-.92634 7.9513-2.7791 10.731m-9.9692-94.866c4.6317 2.7791 6.9478 7.1905 6.9478 13.245 0 6.4074-2.2387 11.227-6.6942 14.502-4.4663 3.2864-10.731 4.9185-18.803 4.9185h-23.214v-36.823h21.185c9.0985 0 15.958 1.3785 20.578 4.1576m53.001 72.277c-1.6101-3.7275-4.5436-8.8334-7.819-12.352-3.2754-3.529-7.1464-6.4406-11.602-8.7121-4.4664-2.2718-9.2192-3.8268-14.26-4.6759v-.49585c8.7344-2.8563 15.804-7.5214 21.196-13.995s8.1717-14.667 8.0726-24.615c-.0882-9.2965-1.8527-16.553-5.5471-22.442-3.7054-5.8779-8.4917-10.554-14.392-14.005-5.8888-3.4407-12.396-6.0765-19.586-7.6868-6.9037-1.5329-12.715-2.1615-21.659-2.1505h-49.847c-12.219.05267-21.108 9.9806-21.108 21.02l.0086 157.9h71.418c8.569 0 16.829-.81608 25.001-2.5806 8.1608-1.7645 15.429-4.6649 21.825-8.7012 6.3965-4.0363 11.524-9.3738 15.406-16.013 3.8709-6.6501 5.8006-14.855 5.8006-24.593 0-5.9002-.88225-11.227-2.9114-15.903" fill="#004b69"/></svg>
