<svg data-author="YAXI GmbH" data-logo-id="ellwanger" data-primary-color="#efdfba" data-secondary-color="#001b32" data-maskable="true" version="1.1" viewBox="0 0 250 250" xml:space="preserve" xmlns="http://www.w3.org/2000/svg"><path fill="#efdfba" d="m176.14 125c0 28.259-22.9 51.159-51.159 51.159s-51.159-22.9-51.159-51.159 22.9-51.159 51.159-51.159c28.259.0198 51.159 22.92 51.159 51.159m37.019 0c0-48.687-39.472-88.159-88.159-88.159s-88.159 39.472-88.159 88.159 39.472 88.159 88.159 88.159c48.687.0198 88.159-39.452 88.159-88.159m12.28 0c0 55.47-44.969 100.44-100.44 100.44s-100.44-44.969-100.44-100.44c0-55.47 44.969-100.44 100.44-100.44 55.47.0198 100.44 44.969 100.44 100.44m24.561 0c0-69.036-55.964-125-125-125s-125 55.964-125 125 55.964 125 125 125c69.036.0198 125-55.944 125-125"/></svg>
