<svg data-author="YAXI GmbH" data-logo-id="evenord" data-primary-color="#0066b3" data-secondary-color="#ff800f" data-maskable="true" version="1.1" viewBox="0 0 250 250" xml:space="preserve" xmlns="http://www.w3.org/2000/svg"><path d="m163.31 27.92c-44.271 0-77.274 31.202-84.758 77.032h-78.548l12.576 33.065h64.987c.46077 4.6932 1.1762 9.2491 2.1349 13.654h-61.933l12.576 33.065h62.904c15.183 23.214 40.196 37.345 71.73 37.345 42.679 0 76.692-25.676 83.193-62.609h-44.849c-4.5015 14.422-17.676 23.741-36.849 23.741-25.842 0-40.846-17.76-41.682-45.197h125.21v-13.892c0-56.63-34.849-96.206-86.701-96.206zm1.0017 39.399c22.174 0 36.848 14.418 39.35 37.633h-78.529c2.6676-23.215 17.174-37.633 39.18-37.633z" fill="#0066b3"/></svg>
