<svg xmlns="http://www.w3.org/2000/svg" version="1.1" viewBox="0 0 250 250" data-logo-id="fbg" data-primary-color="#005279" data-author="YAXI GmbH" data-secondary-color="#767665" data-maskable="true"><path d="m-1.3e-6 179.32h14.937v-47.642h35.377v-11.792h-35.377v-36.95h40.88l1.7296-11.95h-57.547z" fill="#767665"/><path d="m127.52 121.78c10.377-2.2012 20.126-9.9056 20.126-23.428 0-19.811-16.981-27.673-44.969-27.673h-28.459v108.65h32.704c26.415 0 45.44-7.3899 45.44-31.289 0-18.082-12.421-23.899-24.843-26.258zm-22.799-35.849c14.151 0 21.698 3.1447 21.698 14.151 0 10.22-7.3899 15.252-18.711 15.252h-12.736v-29.403zm2.3585 77.83h-12.107v-33.962h14.308c12.107 0 21.384 4.4025 21.384 17.453 0 13.679-9.9057 16.509-23.585 16.509zm107.39-95.44c-27.201 0-49.843 19.811-49.843 56.604 0 37.264 16.981 56.761 47.956 56.761 13.679 0 26.572-4.088 37.421-10.692v-53.145h-38.994l2.2013 15.409h16.352v28.302c-5.1887 2.9874-11.164 4.2453-17.296 4.2453-16.981 0-25.786-11.164-25.786-40.881 0-29.245 13.208-40.88 28.616-40.88 9.2767 0 15.409 2.8302 22.799 8.6478l11.164-11.635c-9.1195-7.7044-19.497-12.736-34.591-12.736z" fill="#005279"/></svg>
