<svg data-author="YAXI GmbH" data-logo-id="flatex" data-primary-color="#009fdf" data-secondary-color="#f47323" data-maskable="true" version="1.1" viewBox="0 0 250 250" xmlns="http://www.w3.org/2000/svg"><path d="m107.96 167.81h142.04v-34.644h-142.04zm0-51.1h142.04v-33.775h-142.04z" fill="#009fdf"/><path d="m67.038 118.7 17.781-17.781c2.1722-2.1582 3.4133-5.0809 3.4579-8.1427.04456-3.0617-1.1111-6.0193-3.2196-8.2398-4.5705-4.8493-12.434-4.6755-17.138.02828l-17.518 17.518c-.0055.006-.0088.014-.0088.0222 0 .008.0033.0162.0088.0222l16.569 16.568c.0018.007.0063.014.01215.0188.0059.005.01326.007.02062.008.0077.00074.0151-.001.02173-.006.0063-.004.01142-.01.01399-.0169zm-12.985-.41-34.054-34.022c-4.6796-4.9463-13.113-4.5947-17.567 1.0587-3.7218 4.7281-3.0591 11.57 1.2123 15.825l23.818 23.822c.0042.002.0076.006.01002.0103.0024.004.0037.009.0037.0136 0 .005-.0013.01-.0037.014s-.0059.008-.01002.0103l-23.802 23.802c-4.7038 4.7038-4.8493 12.568-.028314 17.138 2.2205 2.1084 5.1781 3.2642 8.2399 3.2196 3.0617-.0446 5.9844-1.2857 8.1427-3.4579l34.058-34.058c1.7707-1.7766 2.7633-4.1838 2.7592-6.6922-.0037-2.5084-1.0036-4.9122-2.7795-6.6837zm30.943 30.82-17.983-17.858-16.645 16.649 17.833 17.833c1.089 1.096 2.3843 1.9659 3.8107 2.5592 1.4268.59368 2.9566.89899 4.5016.89899 1.5453 0 3.0752-.30531 4.5016-.89899 1.4268-.59332 2.722-1.4632 3.8111-2.5592 4.6191-4.6187 4.7885-12.006.16978-16.625z" fill="#f47323"/></svg>
