<svg data-author="YAXI GmbH" data-logo-id="fugger" data-primary-color="#003663" data-secondary-color="#baa06b" data-maskable="true" version="1.1" viewBox="0 0 250 250" xml:space="preserve" xmlns="http://www.w3.org/2000/svg"> <path fill="#003663" d="m85.849 92.371c-5.982 4.3505-9.2449 10.876-10.876 17.946-2.1753 7.0696-2.7191 14.139-3.2629 21.209h-7.0696c.54382-13.052 2.7191-25.559 5.982-36.979 3.2629-10.332 8.1572-21.209 17.946-27.191 10.332-5.982 22.296-1.6314 25.016 10.332 1.6314 7.0696-1.0876 15.227-7.0696 19.577-2.1753 1.6314-3.2629 2.1753-5.4382 2.7191-1.6314.54381 1.0876-1.6314 0-4.8943-1.0876-7.0696-10.332-6.5258-15.227-2.7191zm-14.139 54.382c1.0876 9.2449 2.7191 18.49 8.701 25.559 1.6314 1.6314 3.8067 3.2629 5.982 3.8067 3.8067 1.0876 8.1572-1.0876 8.701-4.8943.54382-2.7191 3.2629 2.7191 3.2629 3.2629.54382 1.0876.54382 2.7191 1.0876 3.8067 1.0876 8.1572-7.6134 15.227-15.771 12.508-6.5258-1.6314-11.42-8.1572-13.595-14.139-2.7191-9.2449-4.3505-19.577-4.8943-29.91zm-10.876 0c0 3.8067 0 7.6134.54382 11.42.54382 5.982 1.6314 12.508 2.1753 18.49 1.0876 5.982 2.7191 12.508 2.7191 18.49 0 4.8943-1.0876 10.332-4.3505 14.683-1.6314 1.6314-2.7191 3.2629-4.3505 3.8067h-1.0876c-1.6314-.54381-3.2629-2.1753-4.3505-3.8067-3.2629-3.8067-4.3505-9.2449-4.3505-14.683 0-6.5258 1.6314-12.508 2.7191-18.49s1.6314-11.964 2.1753-18.49c0-3.8067.54382-7.6134.54382-11.42zm0-15.227c.54382-9.7887 1.6314-19.577 3.8067-29.366 2.1753-9.7887 4.8943-19.034 6.5258-28.822 1.6314-7.6134 1.0876-15.771-2.1753-22.84-2.1753-5.4382-7.0696-10.332-11.42-14.139h-1.0876c-4.3505 3.8067-9.2449 9.2449-11.42 14.139-3.2629 7.0696-3.8067 15.227-2.1753 22.84 1.6314 9.7887 4.3505 19.034 6.5258 28.822 1.6314 9.7887 3.2629 19.577 3.8067 29.366zm10.876 11.964c2.7191 0 4.3505-2.1753 4.3505-4.3505 0-2.1753-2.1753-4.3505-4.3505-4.3505h-28.822c-2.7191 0-4.3505 2.1753-4.3505 4.3505 0 2.1753 2.1753 4.3505 4.3505 4.3505zm-43.505-51.119c5.982 4.3505 9.2449 10.876 10.876 17.946 2.1753 7.0696 2.7191 14.139 3.2629 21.209h7.0696c-.54382-13.052-2.7191-25.559-5.982-36.979-3.2629-10.332-8.1572-21.209-17.946-27.191-10.332-5.982-22.296-1.6314-25.016 10.332-1.6314 7.0696 1.0876 15.227 7.0696 19.577 2.1753 1.6314 3.2629 2.1753 5.4382 2.7191 1.6314.54381-1.0876-1.6314 0-4.8943 1.0876-7.0696 10.332-6.5258 15.227-2.7191zm14.139 54.382c-1.0876 9.2449-2.7191 18.49-8.701 25.559-1.6314 1.6314-3.8067 3.2629-5.982 3.8067-3.8067 1.0876-8.1572-1.0876-8.701-4.8943-.54382-2.7191-3.2629 2.7191-3.2629 3.2629-.54382 1.0876-.54382 2.7191-1.0876 3.8067-1.0876 8.1572 7.6134 15.227 15.771 12.508 6.5258-1.6314 11.42-8.1572 13.595-14.139 2.7191-9.2449 4.3505-19.577 4.8943-29.91z"/><path fill="#003663" d="m233.77 66.812c6.5258 0 11.42 4.3505 13.052 11.42 1.6314 6.5258-1.0876 13.595-5.982 17.402-.54381.54382-1.0876.54382-1.0876 1.0876 0-.54382 0-1.6314-.54381-2.1753-1.0876-4.3505-4.8943-7.0696-9.7887-7.0696-3.2629 0-7.0696 1.0876-9.2449 3.2629-5.4382 3.8067-9.2449 10.332-11.964 19.034-1.6314 5.982-2.7191 11.964-3.2629 19.577h-2.1753c.54381-11.964 2.7191-23.384 5.982-34.26 2.7191-8.1572 7.0696-19.577 16.858-26.103 2.7191-1.0876 5.4382-2.1753 8.1572-2.1753m0-2.1753c-3.2629 0-6.5258 1.0876-9.7887 2.7191-9.2449 5.982-14.683 16.858-17.946 27.191-3.2629 11.42-5.4382 23.928-5.982 36.979h7.0696c.54381-7.0696 1.0876-14.683 3.2629-21.209 1.6314-7.0696 4.8943-13.595 10.876-17.946 2.1753-1.6314 5.4382-2.7191 8.1572-2.7191 3.2629 0 6.5258 1.6314 7.6134 5.4382 1.0876 3.2629-1.0876 4.8943-.54382 4.8943h.54382c2.1753-.54382 3.2629-1.0876 5.4382-2.7191 5.982-4.3505 8.701-12.508 7.0696-19.577-2.1753-8.701-8.1572-13.052-15.771-13.052zm-28.822 84.291c.54381 7.6134 2.1753 16.858 8.701 24.472 1.6314 1.6314 3.8067 3.8067 7.0696 4.3505h2.1753c3.2629 0 6.5258-1.0876 8.1572-3.8067.54381 1.0876.54381 2.1753.54381 3.2629.54382 2.7191-.54381 4.8943-2.1753 7.0696-2.1753 2.1753-4.8943 3.8067-7.6134 3.8067-1.0876 0-1.6314 0-2.7191-.54382-7.0696-1.6314-10.332-9.2449-11.42-12.508-2.7191-8.1572-4.3505-17.402-4.8943-27.191h2.1753m2.1753-1.0876h-7.0696c.54381 10.332 2.1753 20.665 4.8943 29.91 2.1753 5.982 6.5258 12.508 13.595 14.139 1.0876.54381 2.1753.54381 3.2629.54381 7.0696 0 13.052-5.982 12.508-13.052 0-1.0876-.54382-2.7191-1.0876-3.8067 0-.54382-2.1753-4.3505-2.7191-4.3505 0 0-.54381 0-.54381.54382-.54382 3.2629-3.8067 5.4382-7.0696 5.4382h-1.6314c-2.1753-.54381-4.3505-2.1753-5.982-3.8067-5.4382-7.6134-7.0696-16.858-8.1572-25.559zm-13.052 2.1753c0 3.2629 0 5.982.54382 9.2449.54381 5.4382 1.0876 11.42 2.1753 18.49.54381 1.6314.54381 3.2629 1.0876 4.8943 1.0876 4.3505 1.6314 8.701 1.6314 13.052 0 5.4382-1.0876 9.7887-3.8067 12.508l-.54382.54381c-1.0876 1.0876-1.6314 1.6314-2.7191 2.1753-.54381-.54382-1.6314-1.6314-2.7191-2.1753l-.54382-.54381c-2.7191-3.2629-3.8067-7.6134-3.8067-13.052 0-4.3505.54382-8.701 1.6314-13.052.54382-1.6314.54382-3.2629 1.0876-4.8943 1.0876-7.0696 2.1753-13.052 2.1753-18.49 0-2.7191.54382-5.982.54382-9.2449h3.2629m2.1753-1.6314h-7.6134c0 3.8067 0 7.6134-.54382 11.42-.54381 5.982-1.6314 12.508-2.1753 18.49-1.0876 5.982-2.7191 12.508-2.7191 18.49 0 4.8943 1.0876 10.332 4.3505 14.683 1.6314 1.6314 2.7191 3.2629 4.3505 3.8067h1.0876c1.6314-.54381 3.2629-2.1753 4.3505-3.8067 3.2629-3.8067 4.3505-9.2449 4.3505-14.683 0-6.5258-1.6314-12.508-2.7191-18.49s-1.6314-11.964-2.1753-18.49c-.54382-3.8067-.54382-7.6134-.54382-11.42zm-3.8067-107.68c3.8067 3.8067 7.6134 8.1572 9.7887 12.508 2.7191 6.5258 3.2629 13.595 1.6314 21.209-1.0876 5.982-2.1753 12.508-3.8067 18.49-.54382 3.2629-1.6314 6.5258-2.1753 10.332-1.6314 9.2449-2.7191 18.49-3.2629 27.735h-3.8067c-.54382-9.2449-1.6314-18.49-3.2629-27.735-.54382-3.2629-1.6314-7.0696-2.1753-10.332-1.6314-5.982-2.7191-11.964-3.8067-18.49-1.6314-7.6134-1.0876-14.683 2.1753-21.209.54381-3.8067 4.3505-8.1572 8.701-12.508m0-2.7191c-.54381 0-.54381 0 0 0-4.8943 4.3505-9.7887 9.2449-11.964 14.683-3.2629 7.0696-3.8067 15.227-2.1753 22.84 1.6314 9.7887 4.3505 19.034 6.5258 28.822 1.6314 9.7887 3.2629 19.577 3.8067 29.366h8.1572c.54381-9.7887 1.6314-19.577 3.8067-29.366 2.1753-9.7887 4.8943-19.034 6.5258-28.822 1.6314-7.6134 1.0876-15.771-2.1753-22.84-3.2629-5.4382-8.1572-10.332-12.508-14.683zm14.139 98.431h-28.822c-2.7191 0-4.3505 2.1753-4.3505 4.3505 0 2.7191 2.1753 4.3505 4.3505 4.3505h28.822c2.7191 0 4.3505-2.1753 4.3505-4.3505.54381-2.7191-1.6314-4.3505-4.3505-4.3505zm-56.013-67.977c2.7191 0 5.982 1.0876 8.1572 2.1753 9.7887 5.982 14.139 17.946 16.858 26.103 3.2629 10.876 4.8943 22.296 5.982 34.26h-2.1753c-.54382-7.6134-1.6314-14.139-3.2629-19.577-2.1753-9.2449-5.982-15.771-11.42-19.034-2.7191-2.1753-5.982-3.2629-9.7887-3.2629-4.8943 0-8.701 2.7191-9.7887 7.0696 0 .54382-.54382 1.6314-.54382 2.1753-.54381 0-.54381-.54382-1.0876-1.0876-4.8943-3.8067-7.6134-10.876-5.982-17.402 1.6314-7.0696 6.5258-11.42 13.052-11.42m0-2.1753c-7.0696 0-13.595 4.8943-15.227 13.052-1.6314 7.0696 1.0876 15.227 7.0696 19.577 2.1753 1.6314 3.2629 2.1753 5.4382 2.7191h.54382c1.0876 0-1.0876-1.6314-.54382-4.8943 1.0876-3.8067 4.3505-5.4382 7.6134-5.4382 2.7191 0 5.982 1.0876 8.1572 2.7191 5.982 4.3505 9.2449 10.876 10.876 17.946 2.1753 7.0696 2.7191 14.139 3.2629 21.209h7.0696c-.54382-13.052-2.7191-25.559-5.982-36.979-3.2629-10.332-8.1572-21.209-17.946-27.191-3.8067-1.6314-7.0696-2.7191-10.332-2.7191zm30.997 84.291c-.54382 9.7887-2.1753 19.034-4.8943 27.191-1.0876 3.2629-4.3505 10.876-11.964 12.508-.54382 0-1.6314.54381-2.7191.54381-2.7191 0-5.982-1.0876-7.6134-3.8067-1.6314-2.1753-2.7191-4.3505-2.1753-7.0696 0-1.0876.54381-2.1753.54381-3.2629v-.54381c1.6314 2.7191 4.8943 3.8067 8.1572 3.8067.54382 0 1.6314 0 2.1753-.54381 3.2629-1.0876 5.4382-2.7191 7.0696-4.8943 5.982-7.6134 7.6134-16.858 8.701-24.472h2.7191m-4.3505-1.6314c-.54381 9.2449-2.1753 18.49-8.1572 25.559-1.6314 1.6314-3.8067 3.2629-5.982 3.8067h-1.6314c-3.2629 0-6.5258-1.6314-7.0696-5.4382 0-.54382-.54382-.54382-.54382-.54382-1.0876 0-2.7191 3.8067-2.7191 4.3505-.54382 1.0876-.54382 2.7191-1.0876 3.8067-1.0876 7.0696 5.4382 13.052 12.508 13.052 1.0876 0 2.1753 0 3.2629-.54381 6.5258-1.6314 11.42-8.1572 13.595-14.139 2.7191-9.2449 4.3505-19.577 4.8943-29.91h-7.0696c.54382 0 0 0 0 0z"/></svg>
