<svg data-author="YAXI GmbH" data-logo-id="gls" data-primary-color="#00d75c" data-secondary-color="#001472" data-maskable="true" version="1" viewBox="0 0 250 250" xml:space="preserve" xmlns="http://www.w3.org/2000/svg"><path d="m1.525e-6 196.5v31.249h250v-62.5h-250z" fill="#00d75c"/><path d="m40.909 23.543c-23.181 6.5909-36.591 25.455-35 48.977 1.4773 20.568 14.204 35.681 34.432 41.023 13.068 3.4091 33.636 1.8181 43.523-3.2955l3.6364-1.9319v-45.455l-17.841.34091-17.955.34091-.34091 8.1819-.34091 8.2955h17.159v16.819l-4.6591.79545c-2.5.45455-7.5.45455-11.023 0-16.704-2.0455-25.341-11.477-25.681-27.841-.22727-13.864 4.3181-22.159 14.887-26.932 5.7955-2.7273 7.1591-2.8409 19.545-2.3864 10.341.34091 14.319 1.0227 18.749 2.9545 3.0681 1.3636 5.6819 2.3864 5.7955 2.2727.22728-.22727.68181-4.2045 1.1364-8.9772l.79545-8.75-6.7045-2.5c-8.1819-3.1819-31.819-4.3181-40.113-1.9319zm152.27-.45455c-15 4.8864-22.159 14.545-21.364 28.749.68183 12.841 7.0455 18.636 27.613 25.227 15.227 4.8864 19.432 7.9545 18.181 12.955-1.5909 6.4773-4.0909 7.6136-16.249 7.5-8.6364-.11364-12.841-.68181-19.319-2.9545-4.4319-1.4773-8.4091-2.5-8.75-2.2727-.34091.34091-.56819 4.5455-.56819 9.3181v8.6364l6.5909 2.1591c9.2045 2.9545 28.636 3.6364 36.704 1.25 13.636-3.8636 21.477-13.977 21.477-27.273 0-12.955-6.1364-19.091-25.113-25-14.659-4.6591-18.977-6.8181-20.455-10.114-2.8409-6.3636 3.8636-12.159 13.977-12.159 5.9091 0 17.955 2.7273 22.5 5.1136l3.1819 1.7045 1.9319-8.6364c1.0227-4.7727 1.7045-8.8636 1.3636-9.0909-.22728-.34091-3.5227-1.5909-7.1591-2.9545-7.2727-2.6136-29.091-3.9773-34.545-2.1591zm-89.772 45.568v45.455h61.364v-17.045h-40.909v-73.864h-20.455z" fill="#001472"/></svg>
