<svg data-author="YAXI GmbH" data-logo-id="grenke" data-primary-color="#000000" data-maskable="true" version="1.1" viewBox="0 0 250 250" xml:space="preserve" xmlns="http://www.w3.org/2000/svg"><path d="m125-2e-6a125 125 0 00-125 125 125 125 0 00125 125 125 125 0 00125-125 125 125 0 00-125-125zm-6.3834 41.738c16.381 0 31.55 6.0662 43.683 16.987v-16.987h23.052v112.84c0 37.008-29.121 66.128-66.736 66.128-15.774 0-29.727-4.8534-41.254-13.954l16.379-16.379c7.2803 5.4602 15.168 8.4913 24.875 8.4913 23.661 0 41.863-18.2 43.683-41.254-12.134 10.92-27.303 16.987-43.683 16.987-36.401 0-64.918-28.514-64.918-66.128 2e-6-37.615 28.516-66.736 64.918-66.736zm1.2148 22.449c-23.661 0-42.469 19.412-42.469 44.287 0 24.874 18.808 44.287 42.469 44.287s42.469-19.412 42.469-44.287c0-24.874-18.808-44.287-42.469-44.287z"/></svg>
