<svg class="mmm-header-desktop-logo" data-author="YAXI GmbH" data-logo-id="haus" data-primary-color="#727877" data-secondary-color="#b3b6b6" data-maskable="true" version="1.1" viewBox="0 0 250 250" xmlns="http://www.w3.org/2000/svg"><path d="m190.2 210a152.67 152.67 0 01-40.011-4.7359v-165.29h24.179v55a111 111 0 01-2.0236 21.471h.41984a37.48 37.48 0 0135.893-22.806c26.673 0 41.347 18.978 41.347 52.88-.16374 39.058-22.537 63.476-59.804 63.476zm12.109-96.54c-18.054 0-27.865 21.072-27.865 40.121v34.881a57.83 57.83 0 0017.676 2.2756c19.267 0 32.53-11.781 32.53-42.144-.14695-22.663-7.1584-35.133-22.34-35.133z" fill="#b3b6b6"/><path d="m1.168e-6 39.986h30.686v167.78h-30.686zm98.236 1e-6v69.505h-49.588l-11.819 20.312h61.406v77.928h30.686v-167.75z" fill="#727877"/></svg>
