<svg data-author="YAXI GmbH" data-logo-id="hoerner" data-primary-color="#9c2340" data-maskable="false" version="1.1" viewBox="0 0 250 250" xml:space="preserve" xmlns="http://www.w3.org/2000/svg"><defs><radialGradient id="radialGradient4696" cx="4618" cy="13485" r="21.428" gradientTransform="matrix(3.8225 0 0 -3.8225 -17440 51569)" gradientUnits="userSpaceOnUse"><stop stop-color="#f6e3e2" offset="0"/><stop stop-color="#b51d48" offset="1"/></radialGradient><radialGradient id="radialGradient4694-9" cx="4619" cy="13485" r="21.954" gradientTransform="matrix(12.783 0 0 -12.783 -58868 172427)" gradientUnits="userSpaceOnUse"><stop stop-color="#faf1f0" offset="0"/><stop stop-color="#cd6978" offset="1"/></radialGradient></defs><path d="m0 125c0-69.03 55.965-125 125-125s125 55.965 125 125c0 69.03-55.964 125-125 125-69.035 0-125-55.965-125-125z" fill="url(#radialGradient4694-9)"/><path d="m109.45 6.7012-2.3535 4.7168 23.215 2.3281-10.182 12.246 6.1465 10.188 13.465-11.25 5.625 2.9531 33.686-15.492-.0742-.16406c-.00054-.000258-.001.000259-.002 0-3.702-1.7749-7.5055-3.3731-11.398-4.7832h-12.375l-5.5742 3.2344-40.178-3.8613zm-12.045 7.3379-6.1406 2.3535 9.543 4.6523-11.191 5.0234 9.6738 5.2031 12.76-4.0137.47265-7.3379-15.113-5.8809zm-16.283 3.7969-.01172.32031-23.35 3.6426-1.5996-1.1445c-23.128 15.288-40.877 38.058-49.795 64.859l5.2656-1.459 7.084 2.5938-2.291 6.7637 6.7676-.76758-.41016-7.9766 15.986-7.4922 4.0684-7.4395 4.9062 1.6738 14.57-10.443 9.3359-2.1719-1.8906 3.2324 1.0488 2.1738 14.375-6.4551v-1.6875l-9.6738 1.0234 3.8555-3.8613-2.1016-4.7051 10.867 1.0234 4.2754-2.9414h6.166l.5-4.2812-4.9766-.63867 5.4004-7.5039-1.3359-.89648-7.4277 2.5195-2.1797-1.2793 2.8086-3.0039-6.8711-3.6426-8.9629 4.832-13.465 10.176-.43555 4.6914-7.0215-2.6719 5.7617-3.0801.62695-2.8008-7.9219-4.9082 3.4336-2.7988 20.967-4.0781 6.7969-4.2695 6.4551.38281 1.2656-3.5664-7.5039 1.2773zm80.211 6.6465-2.5039 2.0469 10.111 6.084 4.4883-6.084zm33.211 1.5605-9.6641 1.3691.002.05078-6.2422.25391-7.2148 8.2852-6.9297 2.2871.9082 6.4688 8.5215-1.5215 2.209 6.6855 9.4805-6.1348-2.7148-4.4355 8.2891-7.1602 3.1211 1.3809-6.0801 5.3945 3.4141 4.6543 7.3789-3.8105 1.8223 2.7363-16.191 7.8223-13.463 1.1504-23.838 9.9473 5.4375 5.2793-1.7539 2.9531-12.779-.51172-2.2773 9.6641 11.023 2.6582 7.6074-2.8887-1.1367-4.7168 8.0625-1.5977-1.0606-4.4863 11.18 1.584 10.342 6.4824-1.3867 6.1094 8.084-5.8809-10.955-7.1582 2.2109-2.5059 12.389 9.6641.61523 4.9473 8.3574 4.9355 3.8555-1.623-5.6797-2.4043 1.5996-2.9023-3.6445-2.9531 5.3984-2.4414 3.3438 3.5801-1.9766 1.8145 6.6973 5.5625 9.4258-2.9023 3.6445 2.2871-1.3672 8.7578 21.072 24.633-.46094 5.1777 5.3945 5.625 1.3652-.71484c.0162-.82861.0234-1.6597.0234-2.4922 0-35.497-14.798-67.54-38.562-90.295l-2.2969 1.5117-6.541-4.9336 5.3965.25c-1.4442-1.2832-2.919-2.5358-4.4219-3.752zm-44.271 17.207v9.7402s-6.6794 4.0658-5.543 4.2832c1.1377.25567 11.934-.64062 11.934-.64063l-2.7344-12.617zm-6.4551 5.0488-5.3301 4.5 5.7852 2.2617 3.1895-3.5664zm-48.535 2.0957-8.502 4.9609 7.0918 4.7168 6.1348-6.3672zm79.715 31.104-19.25.25391.004.002-2.5039 3.1309-14.143-.25586-5.332 4.2578-.22851 5.1777-17.721 13.461.61328 10.801-4.6504 6.457 12.141 14.699 7.7891.12891.90821 4.9336 25.33-4.7168 3.1895 4.4863 10.043.89649 3.1894 7.1582-2.502 2.9531.45898 4.5 4.4941 1.8144 3.5703 15.225-5.1758 5.7793v4.334l5.082 4.3848 8.4648 22.678-1.3809 4.959 4.9434 4.0898 10.27-3.1816 2.459 1.0976c8.4599-7.0621 15.971-15.22 22.316-24.258.00052-.00073.001-.001.002-.002l.40039-6.8926 5.3125-2.0234c3.2132-5.5159 6.0161-11.3 8.3672-17.311l-3.8691-5.8242 8.3594-7.9922c2.2442-8.5861 3.5996-17.533 3.959-26.734l-3.7305.87696-10.566-9.6641 1.3672-3.1191-14.6-18.396.90625-2.2109-2.0527-3.6445-26.965-5.6621-.4082 4.6016-5.1699 1.0234-7.6074-5.1777-6.4668-1.0215zm-164.35 18.613 12.902 8.9746 5.6113-4.5-10.662-4.4746zm-8.748 3.0625c-.16064.91201-.31043 1.8274-.45117 2.7461l1.4199-1.375zm33.428 2.498v.0391l-7.8516 5.625 8.4141.51172 5.6055-3.9258zm-34.75 7.252c-.38109 3.9743-.57617 8.004-.57617 12.078 0 1.1973.015377 2.3908.048828 3.5801l10.316 4.4453 2.0352-3.8613 1.6094 6.8008-9.6738 13.461 2.3848 11.57 4.0703.38281 5.5352 7.082 2.9277 10.021 18.457 14.102-2.3848 5.957 11.361 18.434-.62695 2.9531 1.8789 3.4941c.000724.00057.0012.001.002.002 8.5467 6.7004 17.988 12.313 28.115 16.627l.57226-1.5117-6.6602-10.021 10.236-8.7695-5.1172-3.6426 1.541-2.0976 4.4863 1.6875 6.168-12.426-2.8027-5.0996 2.3848-3.375 10.441-2.5957 3.6465-8.5508-2.8008-3.0176 8.4805-17.41-8.0625-11.199-13.846.38281-1.0859-3.5781-9.6074.63868-3.6445-6.8652 1.9668-1.9043-7.0859-8.1172-19.418-9.1914-3.0156 3.8613-8.3438-6.6738-14.09 3.0176-3.0195 5.5352-8.6699-2.3652-5.543-3.1836 3.7695-7.2734-.2168-3.2344z" fill="#b51d48"/><path transform="matrix(3.3443,0,0,3.3443,-542.58,-34.334)" d="m202.14 10.352-3.0404 3.6542 1.8379 3.0503 4.0262-3.3639 1.6814.88654 5.0366-2.3203c-3.0246-1.0312-6.2235-1.6854-9.5411-1.9068-.00019-1.3e-5-.00039 1.3e-5-.00058 0zm-8.8794.4532c-.82273.14088-1.6366.30912-2.44.50284l2.5013 1.2264-3.3464 1.4986 2.8926 1.5517 3.8148-1.1966.14192-2.1901-3.5637-1.3929zm-5.2941 1.3129c-2.6651.8732-5.1979 2.0382-7.5613 3.4568l5.9313-1.154 2.0341-1.2802 1.9278.11447.37844-1.0699-2.2432.38195zm23.453 1.4367-.74813.61205 3.0235 1.8233 1.3421-1.8233zm5.519.96188-.3434.01402-2.1574 2.4774-2.0721.68038.27157 1.9337 2.5475-.45436.66052 2.0026 2.8354-1.8344-.81237-1.3269 2.0394-1.7573c-.96031-.62206-1.9508-1.2015-2.9691-1.7351zm-28.502.09169-2.6806 1.4489-4.0256 3.0386-.13024 1.4069-2.0995-.79893 1.7228-.92158.18747-.8404-2.3688-1.4641.27682-.22602c-5.8045 3.7601-10.5 9.0865-13.489 15.38l.82405-.22777 2.1182.77616-.68447 2.0184 2.023-.22952-.12264-2.3816 4.7802-2.2438 1.2171-2.2204 1.467.50459 4.3562-3.1268 2.7922-.65001-.56533.96304.31361.65001 4.2984-1.9267v-.5005l-2.8926.30602 1.1528-1.1546-.6284-1.4028 3.2495.30602 1.2778-.88303h1.8443l.14542-1.2767-1.4892-.19156 1.6142-2.2397-.39771-.26748-2.2228.7528-.64942-.38195.83806-.90639zm32.274 2.1784-1.2486 1.1079 1.0209 1.3876 2.1346-1.0985c-.62031-.48504-1.256-.95114-1.9068-1.397zm2.1095 1.5564.41348.61789-4.8415 2.3472-4.0256.34398-7.1273 2.9779 1.6247 1.5745-.52386.88303-3.823-.11447-.67921 2.8862 3.2962.79835 2.2753-.86376-.34048-1.4104 2.4114-.47773-.32121-1.3415 3.3447.47773 3.093 1.9343-.41465 1.8268 2.4172-1.7585-3.2775-2.1363.66111-.75338 3.7044 2.8897.18338 1.4758 2.499 1.4793 1.1534-.48181-1.6983-.72593.47773-.86026-1.0904-.88712 1.6148-.73002 1.0004 1.0705-.5916.54664 2.0026 1.6586 2.8185-.86376 1.0898.68038-.40822 2.6146 6.2986 7.3697-.13374 1.5482.89938.93559c-1.0343-10.329-6.2743-19.419-13.983-25.532zm-14.71.82814v2.9166s-1.9974 1.2119-1.6557 1.2807c.3402.07645 3.5689-.19156 3.5689-.19156l-.81762-3.7762zm-1.9284 1.5097-1.5938 1.3421 1.7299.68388.95428-1.074zm-14.513.63015-2.5416 1.4752 2.12 1.4145 1.835-1.9074zm23.838 9.297-5.7561.07651-.00059.0041-.7487.93267-4.2294-.07651-1.5938 1.2726-.0689 1.5441-5.2988 4.0291.18396 3.2261-1.3911 1.9383 3.6302 4.3918 2.3296.03796.27157 1.4793 7.5735-1.4063.95428 1.338 3.003.26748.9537 2.1404-.74871.88303.13783 1.3415 1.3432.55073 1.0658 4.5448-1.5453 1.7316v1.2918l1.5173 1.3111 2.5329 6.7851-.41231 1.4828 1.4764 1.2235 3.0719-.95195 1.0693.47422 3.3657-2.0224 2.8874-3.8872.20265-3.5473 2.8839-1.0974c.57446-1.389 1.0676-2.8205 1.4735-4.2878l-1.4221-2.141 2.3559-2.2526c.27376-1.8244.41523-3.6919.41523-5.5925 0-.77513-.0236-1.5446-.0701-2.308l-.13257.03095-3.1595-2.8897.40823-.93267-4.3655-5.5003.27157-.66169-.61205-1.0892-8.0629-1.6972-.12264 1.3759-1.5453.30602-2.2753-1.5441-1.9354-.30602zm-49.146 5.5651 3.858 2.6836 1.6761-1.3421-3.1858-1.3415zm-2.6222.94027c-.0935.31904-.18289.63936-.26806.96187l.56182-.54372zm10.002.72243v.01518l-2.3483 1.6744 2.5159.15301 1.6767-1.1739zm-10.73 2.1936c-.0485.23414-.0943.46919-.13841.70491l.19389 2.8214-.64242.2996c-2e-5.000192 2e-5.000391 0 .000584-.0171.17024-.0331.34127-.0479.51218l3.8983 1.6796.60854-1.1581.48182 2.0411-2.8926 4.0215.71249 3.4626 1.2171.11505 1.6557 2.1176.87544 2.9966 5.519 4.216-.71308 1.7812 3.3955 5.5125-.18747.88303 2.0978 3.8948 1.4034.07651.77674 1.3456-.65177.64943 4.5968 3.5514 4.4817.72652.2523-.77616-3.0608-1.1546-1.2171-1.5325.46313-1.2159-1.9915-2.9966 3.0585-2.6222-1.5301-1.0892.46313-.62723 1.3415.50109 1.8443-3.712-.83806-1.529.71309-1.0051 3.1222-.77616 1.0904-2.5568-.83806-.9023 2.5364-5.21-2.4114-3.3447-4.1395.11447-.32471-1.074-2.8728.19156-1.0898-2.0569.58811-.56182-2.1188-2.4348-5.8063-2.7484-.90172 1.1546-2.4949-1.988-4.2148.89822-.90114 1.6551-2.5942-.70724-1.6557-.94786 1.1272-2.1825-.0648-.96304z" fill="url(#radialGradient4696)"/></svg>
