<svg data-author="YAXI GmbH" data-logo-id="hoerner" data-primary-color="#9c2340" data-maskable="true" version="1.1" viewBox="0 0 250 250" xml:space="preserve" xmlns="http://www.w3.org/2000/svg"><path d="m125 0c-25.431 0-49.057 7.6401-68.797 20.686l1.5566 1.1133 23.35-3.6426.011719-.32031 3.3633 3.2207 7.5039-1.2773-1.2656 3.5664-6.4551-.38281-6.7969 4.2695-20.967 4.0781-3.4336 2.7988 7.9219 4.9082-.62695 2.8008-5.7617 3.0801 7.0215 2.6719.43555-4.6914 13.465-10.176 8.9629-4.832 6.8711 3.6426-2.8086 3.0039 2.1797 1.2793 7.4277-2.5195 1.3359.89648-5.4004 7.5039 4.9766.63867-.5 4.2812h-6.166l-4.2754 2.9414-10.867-1.0234 2.1016 4.7051-3.8555 3.8613 9.6738-1.0234v1.6875l-14.375 6.4551-1.0488-2.1738 1.8906-3.2324-9.3359 2.1719-14.57 10.443-4.9062-1.6738-4.0684 7.4395-15.986 7.4922.41016 7.9766-6.7676.76758 2.291-6.7637-7.084-2.5938-5.1523 1.4277c-1.9238 5.7704-3.4039 11.728-4.4746 17.838l.86523 1.2246-1.2363 1.1973c-.37001 2.386-.79042 4.7531-1.0234 7.1816l6.1113.15039.2168 3.2344-3.7695 7.2734 5.543 3.1836 8.6699 2.3652 3.0195-5.5371 14.09-3.0176 8.3438 6.6738 3.0156-3.8613 19.418 9.1914 7.0859 8.1172-1.9668 1.9043 3.6445 6.8652 9.6074-.63868 1.0859 3.5781 13.846-.38281 8.0625 11.199-8.4805 17.41 2.8008 3.0176-3.6465 8.5508-10.441 2.5957-2.3848 3.375 2.8027 5.0996-6.168 12.426-4.4863-1.6875-1.541 2.0976 5.1172 3.6426-10.236 8.7695 6.6602 10.021-.56836 1.5c15.032 6.4033 31.569 9.959 48.939 9.959 30.458 0 58.371-10.894 80.057-28.998l-2.4551-1.0957-10.27 3.1816-4.9434-4.0898 1.3809-4.959-8.4648-22.68-5.082-4.3848v-4.334l5.1758-5.7793-3.5703-15.225-4.4941-1.8144-.45898-4.5 2.502-2.9531-3.1894-7.1582-10.043-.89649-3.1894-4.4863-25.33 4.7168-.9082-4.9336-7.7891-.12891-12.141-14.699 4.6504-6.457-.61328-10.801 17.721-13.461.22852-5.1777 5.332-4.2578 14.143.25586 2.5039-3.1309-.0039-.001953 19.25-.25391-.38282 6.0742 6.4668 1.0215 7.6074 5.1777 5.1699-1.0234.4082-4.6016 26.965 5.6621 2.0527 3.6445-.90625 2.2109 14.6 18.395-1.3672 3.1191 10.566 9.6641 3.7246-.875c.03207-.82058.0561-1.6442.07227-2.4688l-1.3594.71093-5.3945-5.625.46094-5.1777-21.072-24.633 1.3672-8.7578-3.6445-2.2871-9.4258 2.9023-6.6973-5.5625 1.9766-1.8145-3.3438-3.5801-5.3984 2.4414 3.6445 2.9531-1.5996 2.9023 5.6797 2.4043-3.8555 1.623-8.3574-4.9355-.61524-4.9473-12.389-9.6641-2.2109 2.5059 10.955 7.1582-8.084 5.8809 1.3867-6.1094-10.342-6.4824-11.18-1.584 1.0606 4.4863-8.0625 1.5977 1.1367 4.7168-7.6074 2.8887-11.023-2.6582 2.2773-9.6641 12.779.51172 1.7539-2.9531-5.4375-5.2793 23.838-9.9473 13.463-1.1504 16.191-7.8223-1.8223-2.7363-7.3789 3.8105-3.4141-4.6543 6.0801-5.3945-3.1211-1.3809-8.2891 7.1602 2.7148 4.4355-9.4805 6.1348-2.209-6.6855-8.5215 1.5215-.90821-6.4688 6.9297-2.2871 7.2148-8.2852 6.2422-.25391-.00195-.050782 9.6641-1.3691 8.918 1.7188c-7.4741-6.0385-15.696-11.149-24.445-15.355l-33.652 15.477-5.625-2.9531-13.465 11.25-6.1465-10.188 10.182-12.246-23.215-2.3281 2.3535-4.7168.00195.11523 40.178 3.8613 5.5742-3.2344h11.953c-13.188-4.7319-27.34-7.4434-42.156-7.4434zm45.455 8.6504c2.0104.7862 3.9987 1.6142 5.957 2.5-1.9599-.88665-3.9448-1.7131-5.957-2.5zm-73.051 5.3887h.005859l15.113 5.8809-.47266 7.3379-12.76 4.0137-9.6738-5.2031 11.189-5.0234-9.543-4.6523 6.1406-2.3535zm-41.752 6.9805c-1.0174.67993-1.9727 1.4378-2.9688 2.1465.99554-.70824 1.9519-1.467 2.9688-2.1465zm105.68 3.4629 12.096 2.0469-4.4883 6.084-10.111-6.084 2.5039-2.0469zm-114.75 3.2441c-1.1473.92606-2.2421 1.9058-3.3555 2.8711 1.1124-.96437 2.2091-1.9459 3.3555-2.8711zm157.62.5918c.27326.2242.53726.459.8086.68555-.27166-.22669-.53499-.46113-.8086-.68555zm-1.6055 2.9668 6.541 4.9336 2.2109-1.4551c-1.1598-1.1103-2.3626-2.1729-3.5644-3.2383l-5.1875-.24024zm-164.46 3.9395c-1.1094 1.0735-2.1848 2.1735-3.2539 3.2871 1.0681-1.1124 2.1456-2.2147 3.2539-3.2871zm174.21.44727c1.5514 1.5173 3.0035 3.1308 4.4746 4.7266-1.472-1.597-2.9221-3.2082-4.4746-4.7266zm-62.082 7.5781 3.6562.76562 2.7344 12.617c0 1e-5-10.796.8963-11.934.64063-1.1364-.2174 5.543-4.2832 5.543-4.2832v-9.7402zm-119.94.27344c-.98608 1.1446-1.9654 2.2885-2.9102 3.4688.9439-1.1789 1.925-2.3253 2.9102-3.4688zm190.32 1.0762c1.3982 1.6615 2.6826 3.4167 3.9941 5.1504-1.3121-1.7346-2.5953-3.4881-3.9941-5.1504zm-76.83 3.6992 3.6445 3.1953-3.1894 3.5664-5.7852-2.2617 5.3301-4.5zm-48.535 2.0957 4.7246 3.3105-6.1348 6.3672-7.0918-4.7168 8.502-4.9609zm-72.123 2.2969c-.8114 1.1406-1.6483 2.2572-2.4219 3.4258.7731-1.1676 1.6111-2.2861 2.4219-3.4258zm204.87 1.5859c1.2466 1.8124 2.3638 3.716 3.5156 5.5957-1.1523-1.8809-2.2683-3.7822-3.5156-5.5957zm-211.61 8.957c-.49278.8643-1.0391 1.6913-1.5117 2.5684.47237-.87647 1.0192-1.7046 1.5117-2.5684zm218.05 1.4551c1.07 1.9376 1.9965 3.9602 2.9648 5.959-.96857-1.9995-1.8946-4.0206-2.9648-5.959zm5.4102 11.035c.90774 2.1131 1.6507 4.3091 2.4434 6.4805-.79286-2.1722-1.5353-4.3665-2.4434-6.4805zm-229.9.30274c-.35367.82949-.62871 1.6966-.96484 2.5352.33594-.83802.61138-1.7062.96484-2.5352zm234.23 11.314c.71934 2.2786 1.2535 4.6339 1.8438 6.9668-.59017-2.3332-1.1244-4.6879-1.8438-6.9668zm3.1738 12.145c.51865 2.4997.83037 5.0691 1.1973 7.6211-.36683-2.5522-.67866-5.1211-1.1973-7.6211zm-236.73.625h7.8516l10.662 4.4746-5.6113 4.5-12.902-8.9746zm24.68 5.5606 6.168 2.25-5.6055 3.9258-8.4141-.51172 7.8516-5.625v-.03906zm214.01 6.4004c.3484 3.3893.46118 6.8445.53321 10.309-.07194-3.4642-.18491-6.9192-.53321-10.309zm-249.3 12.178c-.0015037.25284-.037109.49681-.037109.75 0 .01779.0019457.03495.0019531.05273-6.193e-6-.01697 0-.0338 0-.05078 0-.25362.033646-.49867.035156-.75195zm.14648 4.3887c1.1074 38.381 19.452 72.378 47.637 94.561l-1.7578-3.2695.62695-2.9531-11.361-18.434 2.3848-5.957-18.457-14.102-2.9277-10.021-5.5352-7.082-4.0703-.38281-2.3848-11.57 9.6738-13.461-1.6094-6.8008-2.0352 3.8613-10.184-4.3887zm245.76 28.066-8.3535 7.9863 3.8652 5.8184c1.7528-4.4816 3.2553-9.0887 4.4883-13.805zm-12.859 31.125-5.3047 2.0195-.40039 6.8848c2.0228-2.8815 3.9265-5.8514 5.7051-8.9043zm-183.04 37.033c3.0013 2.2564 6.0984 4.3756 9.3008 6.3594-3.2002-1.9828-6.3015-4.1045-9.3008-6.3594zm12.928 8.5644c4.0546 2.3248 8.2135 4.4807 12.537 6.3477-4.3225-1.8668-8.4835-4.0233-12.537-6.3477z"/></svg>
