<svg data-author="YAXI GmbH" data-logo-id="ikano" data-primary-color="#ed1c24" data-maskable="true" version="1.0" viewBox="0 0 250 250" xmlns="http://www.w3.org/2000/svg"><path d="m104.03 102.44 5.7716-16.415 5.9545 16.415zm36.829 15.735-16.489-45.298h-13.118l-14.193 39.83c-.89725 2.5286-2.2617 4.1724-4.202 4.9683-.60806.24965-1.4534.4993-2.2839.4993h-2.1035l-18.575-32.234s6.1251-6.1275 6.7578-6.7603c1.9972-2.0021 5.1907-3.2084 7.487-3.458 1.0085-.10381 2.321-.18291 3.4679-.18291v-2.6621h-21.967v2.6621h2.2666c1.0925 0 3.2899-.03955 4.1328 1.4139.56604.97388.23235 2.5459-1.0357 3.8139l-15.441 15.486v-20.713h4.5406v-2.6621h-27.61v2.6621h4.8224v42.636h-4.8224v2.798h27.587v-2.798h-4.5184v-21.85l12.579 21.85h-5.1685v2.798h41.432v-2.8055h-.68964c-.3411 0-1.1988-.0742-1.3743-.11864-3.3987-.87748-2.5904-3.4481-1.9057-5.3885l2.4767-7.0495h14.015l4.5258 12.564h-4.16v2.798h26.73v-2.798zm41.431-45.294v2.6621h.24718c5.2674 0 5.994 1.2482 5.994 5.4033v17.587l-18.573-25.652h-23.702v2.6621h.24965c1.0975 0 2.9587.23976 3.7744 1.3669.29661.41526.88984 1.2334 1.5646 2.1653v33.772c0 4.1575-.24965 5.3341-5.4478 5.3341h-.14089v2.7956h14.858v-2.7956h-.30898c-5.1339 0-5.5788-1.1642-5.5788-5.3341v-29.59l27.249 37.719h9.3062v-40.03c0-4.1551.72175-5.4033 5.9174-5.4033h.42268v-2.6621zm41.58 47.469c3.2578 0 5.0325-2.5632 5.0325-8.3843v-29.659c0-5.8186-1.7747-8.315-5.0325-8.315-3.2603 0-4.9633 2.5608-4.9633 8.315v29.659c0 5.7543 1.703 8.3843 4.9633 8.3843m-19.055-40.745c4.7829-4.9213 11.36-7.5537 19.055-7.5537 15.525 0 26.129 11.158 26.129 25.086 0 13.928-10.604 25.155-26.129 25.155-6.7183 0-12.68-2.0788-17.189-5.8235-5.47-4.5036-8.8687-11.916-8.8687-19.332 0-6.5156 2.7041-13.167 7.0025-17.532m-204.81 38.575h5.3094v-42.638h-5.3094v-2.6596h28.519v2.6596h-5.3069v42.638h5.3069v2.7956h-28.519zm-.0026877 11.42v48.35h249.59v-48.35zm60.131 12.27h16.135c7.4796 0 12.375 2.2525 12.375 6.1875 0 2.8079-3.1499 4.4936-6.6055 5.2129v.0606c4.1575.62289 7.4336 2.5903 7.4336 5.8086 0 3.0304-2.4016 6.3418-12.022 6.3418h-17.316zm42.195 0h10.186l11.326 23.611h-9.8379l-1.9668-4.4961h-11.281l-2.1426 4.4961h-7.4785zm25.623 0h8.7872l11.764 12.523h.084v-12.523h7.2598v23.611h-7.082l-13.465-13.367h-.0898v13.367h-7.2578zm34.32 0h9.4434v9.4629h.0879l9.6622-9.4629h9.0059l-8.1328 7.8086 10.279 15.803h-10.102l-6.5156-10.088-4.2852 4.0899v5.9981h-9.4434zm-92.694 4.3106v5.0606h4.8106c2.405 0 4.8086-.53406 4.8086-2.5313 0-1.9379-2.5346-2.5293-4.8086-2.5293zm36.902 2.2188-3.6289 7.711h7.043l-3.3242-7.711zm-36.902 7.5235v5.2481h5.334c2.3161 0 4.5879-.7494 4.5879-2.623 0-2.1208-1.9209-2.625-4.5879-2.625z" fill="#ed1c24"/></svg>
