<svg data-author="YAXI GmbH" data-logo-id="ing" data-primary-color="#ff6200" data-maskable="true" version="1.1" viewBox="0 0 250 250" xml:space="preserve" xmlns="http://www.w3.org/2000/svg"><path d="m250 0v36.02l-5.4727-3.541h-.00195v-.001954c-7.2704-4.5227-14.937-8.7924-22.604-11.82-6.1011 5.072-10.219 9.1875-13.232 9.1875-3.0138 0-1.0293-6.0997-1.0293-10.143-3.0876 0-5.0709-.000193-8.1582-1.0293-2.0585 7.1302-3.0882 16.319-8.1602 18.377-1.2496.73508-2.6463 1.0293-4.043 1.0293v-8.3789c-1e-5-1.0291 4.0435-8.1603 3.0879-9.1895 0 0-9.1898 2.0588-11.248 3.0879-1.0294 1.0291-7.1291 4.1152-8.1582 4.1152-1.3231-.44102-2.7206-.80682-4.1172-1.0273-3.0141-2.0582-5.0709-2.0583-8.1582-4.043-4.0429 12.202-5.0723 15.289-5.0723 13.23 0 0-14.261-9.1899-19.406-15.291-13.231 2.0585-13.23 4.1172-24.477 8.1602-4.1164 4.0429-10.219 9.1899-14.262 15.291-2.0582 4.0426-4.1169 6.1004-6.1016 10.217l10.145 4.043c2.6463-3.2345 4.9972-6.6181 7.1289-10.146 7.2037-4.1164 19.406-11.318 23.449-15.361 1.0291 2.0582 13.231 9.1893 18.377 12.203 4.0429 3.0873 8.1583 4.1169 12.201 6.1016 2.7933-3.9694 4.8539-8.4544 6.1035-13.232 3.087 2.0582 7.1295 2.0588 10.217 3.0879 0 4.1164-.00176 8.1602 1.0273 12.203 0 2.0582 2.0587 1.0289 6.1016-1.0293 6.1011-2.0582 12.204-3.0874 15.291-4.043 7.1302-4.0429 11.246-12.203 17.273-12.203 5.1455 0 14.26 3.0141 16.318 5.0723 3.0141 1.0291 5.1464 2.0586 8.1602 2.0586 2.9992 0 6.5521-.96334 8.8203-2.8672v17.77 106.61c-11.247-4.5575-20.287-6.3965-28.152-6.3965 0-1.0291-2.0589-2.0574-.07422-2.9394 1.9112-1.1761 3.6009-2.4993 5.1445-4.043 2.7933-3.6019 4.8519-7.7946 6.1016-12.205 3.0876-6.1746 6.1019-4.1144 8.1602-17.346-3.0138 0-4.117 1.9826-7.1308 3.0117 1.0291-3.0873 2.0586-6.1002 2.0586-9.1875 1.0291-6.1011 3.0879-10.143 3.0879-17.273 3.0873-1.0294 8.2319-4.1172 9.1875-8.1602 0-2.7936.36773-5.5119 1.0293-8.1582 0-6.1011 1.0289-11.175-1.0293-15.291 0-1.0291-7.1292-11.246-12.201-14.26-7.1302-3.0873-10.146-2.0584-15.291-1.0293-6.0276 0-14.188 6.1745-14.188 17.348-6.1746 0-18.376 1.0297-25.506 7.1309-6.1746-3.0138-11.246-4.0433-16.318-5.0723h-9.1875c-.9556-4.4841-3.529-8.4528-7.1309-11.246-5.1455-3.0873-11.247-7.1309-18.377-7.1309-3.0873 0-6.1021-1.0292-9.1894 1.0293-3.0873 2.0585-8.1584 4.1153-9.1875 8.1582-2.0582 5.072-4.043 9.1897-4.043 14.262 0 5.072 3.0142 9.1878 6.1016 14.26 1.0291 2.0582 1.9848 2.0588 4.043 3.0879.9556 0 5.0705 1.9846 6.0996 3.0137 1.0291 1.0291-1.0273 4.1157-1.0273 10.217 0 5.1455-.00177 5.1465 1.0273 9.1894.14701 3.8224.80896 7.6442 2.0586 11.246-3.0138 0-5.0707-3.0875-7.1289-1.0293 0 1.9847 2.057 7.0554 4.1152 11.172 5.072 5.1455 10.219 10.217 13.232 16.318 0 1.0291 2e-4 3.0879 1.0293 3.0879-7.1302 1.0291-14.262 1.0297-21.393 3.0879-6.6892 2.279-13.156 4.9993-19.404 8.1602 0 2.4258.36578 4.7767 1.0273 7.1289 1.0291 0 10.291-5.1442 18.377-7.1289 13.231-4.1164 20.363-3.0879 20.363-3.0879 1.0291 2.0582 2.0584 5.0725 1.0293 6.1016-12.349 5.072-24.332 11.173-35.652 18.303 1.0291 2.0582.00038 5.0707 2.0586 7.1289 11.1-6.6157 22.713-12.423 34.621-17.348 4.0429-1.0291 4.0434 0 6.1016 0 1.0291.9556 3.0141 5.0723 5.0723 5.0723 3.0873 0 6.1756-3.0861 9.1894-4.1152 6.1746-2.0582 11.247-4.0432 17.348-5.0723 2.0582-1.0291 2.0586-3.0883 2.0586-5.1465 1.0293-1.9847 1.0273-1.985 1.0273-5.0723 0-1.0291-4.0414-2.0586-6.0996-6.1016-2.0582-3.0138-2e-4-6.0996-1.0293-6.0996-3.0141 2.0582-7.131 4.0429-8.1602 0-1.0291-3.0876-1.0287-7.131 2.0586-8.1602 10.134-4.1164 21.473-4.1164 31.607 0 1.9847 0 3.0156 1.9848 3.0156 4.043 1.0291 2.0582-.00039 4.0434-2.0586 6.1016-3.0873 1.0291-6.1035-3.0873-6.1035 0 0 3.0873-2.0569 7.1293-7.1289 9.1875-1.0291 1.0291 2e-4 4.0436 1.0293 7.1309 0 .9556 2e-4 3.0137 1.0293 3.0137 4.0429 1.0291 10.219 1.9848 13.232 4.043 4.0429 2.0582 11.172 8.158 12.201 7.1289 3.0873-1.9847 4.0414-5.0707 6.0996-7.1289 10.27 4.6956 18.858 7.6337 31.168 15.172v57.381h-14.617l-1.9297-6.2695-.00195-.00391c-.0022-.0043-.01558-.03311-.01758-.03711-.56069-1.1285-4.2368-8.0466-4.4551-10.156-2.0582-2.0582 2.0576-9.1894-3.0879-9.1894-2.0585-1.0291-8.1602-3.0859-8.1602-3.0859-1.0291 3.0873-1.0291 9.1893 0 12.203 0 2.1847 6.4803 13.191 8.7422 16.539h-16.086c-.58254-2.5657-1.3355-6.4963-1.7695-8.3047v-16.32c-4.0429 1.0291-5.0725 2.0586-6.1016 2.0586-3.0873 2.0582-5.0723 3.0141-5.0723 5.0723 0 4.0431 1.0293 8.1598 1.0293 10.145 0 3.0873 2e-4 5.1447 1.0293 6.1738 1.4472.50654 2.6648.8184 3.748 1.1758l-17.537.00195h64.289v-64.506c-6.5348-3.5973-15.368-8.3438-16.906-9.0762-4.1161-.95559-6.1758-3.0139-10.219-4.043v-8.1582c5.6601 1.6172 15.952 2.6469 27.125 7.1309v-171.35h-.00195zm-64.287 250c1.8376-2.5726 3.646-4.6326 4.6016-7.4258.9556-2.9403-.07442-8.0127-1.1035-13.158v-.00196c-4.0429 1.0291-12.201 2.0585-12.201 5.0723-1.0291 3.0141 0 6.1019 0 8.1602.97525 1.9508 1.0274 3.7828 1.0274 7.3535h7.6758zm-7.6758 0-8.4531-.00195c-.44104-1.3966-.73509-2.7916-.80859-4.2617-.95545-3.0138.07403-6.1021-.95508-9.1894-1.0291-1.9112-3.0148-3.0872-5.1465-3.0137-2.0582 0-7.1309-3.0875-7.1309-1.0293-5.1455 0-1.0293 5.0728-1.0293 8.1602 0 2.2051 2.9423 6.1732 5.6621 9.334h-69.465c.9556-.66157 1.9102-1.3965 2.7188-2.2051 2.0582-3.0138 8.1605-9.1872 10.219-11.172-2.0582-2.0582-3.0881-5.0726-4.1172-7.1309-4.0429 0-19.332 6.1016-19.332 6.1016 2.7198 4.5575 4.8503 9.4077 6.541 14.406h-86.738v.00195h178.04zm49.949-190.2c1.0141-.002294 2.0381.1306 3.0488.40625 5.0723 1.0291 6.1 2.057 8.1582 4.1152 3.0873 4.1164 2.0584 12.278 1.0293 17.35-1.1026 3.0138-3.8965 4.9988-7.1309 5.0723-5.1455-6.1014-10.217-10.145-17.348-12.203-1.0291-4.0431 2.0583-8.1607 4.043-11.248 2.205-2.2604 5.1566-3.4853 8.1992-3.4922zm-135.3.9668c-2.6359.092619-5.1003 1.0561-6.3867 3.6289-2.0582 3.0138-2.0586 6.1002-2.0586 9.1875 0 5.072 1.0295 9.1899 2.0586 15.291-4.1161 3.0138-6.1004 5.0707-10.217 7.1289 1.0291 6.1746 2.0586 17.348 2.0586 17.348 2.0582-3.0138 2.0583-3.0128 4.043-5.1445 4.1163-3.0138 6.0999-5.1465 11.172-9.1894 1.0291-2.0582 2.0585-1.0277 5.0723-3.0859 1.0291-1.0291 2.0586-1.9846 2.0586-3.0137 0-2.0582-1.0295-4.1166-2.0586-6.1016-1.0291-1.985-3.0137-7.1311-3.0137-8.1602 1e-6-8.1593 1.0288-10.143 1.9844-17.273-1.4885-.41348-3.1313-.6708-4.7129-.61523zm39.486.52734c2.2301.062334 4.369.78588 6.1699 2.0723 4.1167 2.0582 6.1754 2.0573 8.1602 9.1875 0 1.0291-.00018 2.0586-1.0293 2.0586 0 0-6.1 4.0434-8.1582 6.1016-5.1452 3.0138-6.1749 8.0859-9.1152 8.0859-2.0585-2.0582-6.1755-5.0711-8.1602-9.1875-3.0873-4.0426-2.0586-8.0861-2.0586-9.1152 2.0582-6.1011 9.116-8.1603 13.232-9.1895.32157-.018371.64041-.022572.95899-.013672zm57.5 20.281c2.4346-.01007 7.6132 1.4369 10.783 2.0801 2.0585 0 19.409 4.042 8.1621 9.1875-1.9847 2.0582-7.0596 1.0293-12.205 1.0293 0-1.9847.00157-6.1016-2.0566-6.1016-2.0582-1.9847-5.1458-1.9835-5.0723-4.1152-1.5437-1.5437-1.0718-2.0742.38868-2.0801zm-18.598.96484c1.0429-.02286 1.8164.28703 1.8164 1.1875 2e-5 4.0431-3.0123 6.1016-6.0996 10.145-2.0585 3.0873-3.0881 1.0293-8.1602 1.0293h-5.0723c0-3.0138 2.0585-4.0435 5.0723-7.1309 3.0876-1.9847 6.1754-4.043 8.1602-4.043 1.1577-.57885 2.9423-1.1581 4.2832-1.1875zm-22.588 20.52h13.232c3.0873 1.0291 5.0723 3.0883 5.0723 5.1465 0 1.0288-.95775 7.1277-1.0312 8.0098-1.0291 6.1746-1.0295 8.1612-2.0586 17.35v3.0879c-1.0291 2.0582-5.0707 3.0883-7.1289 5.1465-1.0291 3.0138-.95565 5.0705-4.043 6.0996-3.0873 1.0291-5.0707 4.117-7.1289 3.0879-3.0873-2.0582-2.0582-7.203 0-10.217 2.0582-3.0138 6.1737-5.0724 9.1875-6.1016 4.0429-1.0291 3.0137-9.1877 3.0137-10.217 1.0291-2.0582 0-5.0726 0-7.1309-2.0582 1.0291-2.0586 2e-4-6.1016 1.0293-4.0432 0-6.1-1.9848-8.1582-4.043s-7.1312-6.1023-9.1895-10.219c5.1455-1.0291 9.1885-1.0293 14.334-1.0293zm51.088 0s19.333.00019 28.521 1.0293c0 0-1.0295 2.0586-2.0586 2.0586-1.0291 2.0582-3.0883 3.0881-5.1465 4.1172-1.0291 0-2.0586 1.9846-2.0586 3.0137-2.0582 3.0138-5.0711 4.043-9.1875 4.043-2.0585 0-6.1019-6e-5-8.1602-4.043-2e-5 0 1.0293 12.203 1.0293 15.217v.07226c0 .51453.44248.95508.95703.95508 4.0429 1.0291 5.0707 5.0726 7.1289 7.1309.58806.58806 1.25.9558 2.0586 1.0293 4.0429 3.0873 13.232 7.1309 9.1895 7.1309 0 2.1317-3.0879 7.2031-3.8965 7.2031-3.0138-3.0873-8.1583-5.0726-12.201-7.1309-1.1026-2.0582-2.1342-4.0414-3.0898-6.0996-2.1317-2.0582-3.0846-2.059-6.1719-4.1172 0-7.1299-1.0293-7.1295-1.0293-14.26 0-1.0291-1.9863-12.203-1.9863-12.203 0-1.0291 3.0142-4.1174 6.1016-5.1465zm-100.42 6.3008c-2.8158.10048-6.4666.9043-7.707.9043-5.072.95559-14.26 4.0453-14.26 6.1035-1.0291 3.0138-1.0293 10.143-1.0293 11.172 1.0291 3.0873 1.0295 6.1002 2.0586 9.1875 3.0138-3.0873 4.0414-4.1167 6.0996-5.0723 1.0291-1.0291 12.203-9.1889 13.232-10.145 1.9847-2.1317 3.0139-1.1032 4.043-3.0879 0-6.1014 2.0584-6.1 1.0293-8.1582-.38592-.77185-1.7752-.9646-3.4648-.9043h-.001953zm1.4082 24.279c-10.218 3.0873-17.348 5.0726-19.406 7.1309-5.0723 3.0876-7.1292 5.1444-12.201 8.1582 0 6.1011-.001761 6.1002 1.0273 9.1875l1.0293 12.203c1.9847-3.0873 8.16-9.1895 11.174-13.232 4.5575-5.1458 10.144-9.2609 16.318-12.201 1.0291-4.1166 2.0586-7.1297 2.0586-11.246zm107 27.234c3.5975.19296 5.874 1.5446 8.1895 2.3164 0 1.0291-1.0293 6.0989-1.0293 6.0254-4.0429-.9556-7.1331-4.043-12.205-4.043 0-3.0138.00144-3.0139.95703-4.043 1.5437-.25686 2.8888-.32016 4.0879-.25586zm-54.955 1.2852c2.0582 0 4.0434.00215 6.1016 1.0312-1.1026 1.0291-5.1458 3.0859-5.0723 3.0859-2.0582 1.0291-3.0878 1.9865-6.1016 3.0156-.88209-1.9847-1.544-4.0434-2.0586-6.1016 2.3522-.58807 4.7051-.95775 7.1309-1.0312zm-67.26 5.0723c-4.1899 2.0582-9.1884 5.1469-13.305 7.2051v5.0703c0 2.0582 1.0293 13.233 1.0293 16.32 1.0291 3.0873 1.0275 6.1002 2.0566 9.1875 1.0291 2.0582 2.0586 4.0434 2.0586 6.1016 1.3231-.73508 2.3528-1.7648 3.0879-3.0879 3.0138-3.087 4.0434-6.1739 6.1016-10.217-1.0291-7.1302-3.0879-13.231-3.0879-15.289 0-8.1593 1.0295-10.219 2.0586-15.291zm94.75 15.365c-9.1884 0-19.405 1.028-29.549 8.1582.9556 3.8957 2.2795 7.6435 4.1172 11.172 1.0291 0 2.0581 2.0586 3.0137 2.0586 2.0582-2.0582 4.1151-5.0725 7.1289-6.1016v4.043c0 3.0876.00018 5.1463 1.0293 8.1602 0 3.0873 3.088 3.0879 7.1309 3.0879 4.0429-1e-5 5.1465-7.1311 5.1465-8.1602 0 0 1.0278 4.0436 7.1289 7.1309 0 0 7.1289-2e-4 7.1289-1.0293 1.0291-5.1452 2.0584-6.1004 1.0293-10.217 0 0 6.1021 4.1153 9.1894 8.1582 1.9847-2.0582 4.043-6.1018 4.043-7.1309 1.9848-4.0429 1.9844-9.1876 1.9844-13.23-8.1593-5.072-18.304-6.0996-28.521-6.0996zm-89.752 22.346c-1.0291 1.0291-6.1018 4.0414-7.1309 6.0996-2.0582 1.0291-4.0412 2.0581-5.0703 3.0137 0 2.0582 1.0275 3.0883 2.0566 5.1465 0 2.0582.95703 7.2032.95703 11.246 0 0 3.0859-2.057 3.0859-4.1152 5.0723-6.1014 11.248-11.174 12.203-12.203-2.0582-5.072-3.0878-6.1002-6.1016-9.1875zm23.523.07032c-2.0582 0-4.1172 4.0437-4.1172 8.1602.29403 4.1164.95597 8.2318 2.0586 12.201 0 1.0291 2.0583 2.0581 4.043 3.0137 3.0873 2.0582 6.1002 3.0883 9.1875 5.1465 0 0-3.0874-9.1858-4.043-14.258-1.0291-3.087.9554-7.1314-1.0293-10.219-1.0291-2.0582-4.1149-3.0874-6.0996-4.043v-.00195zm20.988 7.875c-.25664.0098-.49444.09415-.70118.28711 0-1e-5-1.0295 8.1584-2.0586 9.1875 2.0582 3.0876 4.0439 5.1466 5.1465 8.1602s2.0563 7.1295 4.041 10.217c1.0291-4.1899 4.1191-6.1745 4.1191-13.305 0 0-1.0295-5.1462-2.0586-7.1309-1.0291-2.4992-2.7935-4.6295-5.0723-6.0996-.83615 0-2.3038-1.3589-3.416-1.3164zm99.195 2.2695c.73508 3.455 1.7628 6.8367 3.0859 10.145.80035 1.6006 7.9629 9.1776 9.4121 10.131v-2.9414c-1.0877-1.8932-3.3106-14.401-3.3106-15.275-2.0582-1.0291-2.0585-1.0293-5.0723-1.0293-1.0291-1.0291-3.0861-1.0293-4.1152-1.0293z"/></svg>
