<svg data-author="YAXI GmbH" data-logo-id="ing" data-primary-color="#ff6200" data-maskable="false" version="1.1" viewBox="0 0 250 250" xml:space="preserve" xmlns="http://www.w3.org/2000/svg"><path d="m0 0v250h86.738c-1.6907-4.9985-3.8212-9.8488-6.541-14.406 0 0 15.289-6.1016 19.332-6.1016 1.0291 2.0582 2.059 5.0727 4.1172 7.1309-2.0582 1.9847-8.1605 8.1581-10.219 11.172-.80858.80859-1.7632 1.5435-2.7188 2.2051h69.465c-2.7198-3.1608-5.6621-7.1289-5.6621-9.334 0-3.0873-4.1162-8.1602 1.0293-8.1602 0-2.0582 5.0726 1.0293 7.1309 1.0293 2.1317-.0735 4.1174 1.1025 5.1465 3.0137 1.0291 3.0873-.00037 6.1756.95508 9.1894.0735 1.4701.36755 2.8651.80859 4.2617l8.4531.002c0-3.5708-.0521-5.4027-1.0274-7.3535 0-2.0582-1.0291-5.146 0-8.1602 0-3.0138 8.1583-4.0432 12.201-5.0723v.002c1.0291 5.1455 2.0591 10.218 1.1035 13.158-.9556 2.7933-2.7639 4.8532-4.6016 7.4259l17.537-.002c-1.0833-.35738-2.3008-.66924-3.748-1.1758-1.0291-1.0291-1.0293-3.0865-1.0293-6.1738 0-1.9847-1.0293-6.1015-1.0293-10.145 0-2.0582 1.985-3.0141 5.0723-5.0723 1.0291 0 2.0586-1.0295 6.1016-2.0586v16.32c.43401 1.8084 1.187 5.739 1.7695 8.3047h16.086c-2.2618-3.3479-8.7422-14.354-8.7422-16.539-1.0291-3.0138-1.0291-9.1158 0-12.203 0 0 6.1016 2.0568 8.1602 3.0859 5.1455 0 1.0297 7.1312 3.0879 9.1894.21824 2.1096 3.8944 9.0277 4.4551 10.156.002.004.0154.0328.0176.0371l.002.004 1.9297 6.2695h14.617v-57.381c-12.31-7.5382-20.898-10.476-31.168-15.172-2.0582 2.0582-3.0123 5.1442-6.0996 7.1289-1.0291 1.0291-8.1583-5.0707-12.201-7.1289-3.0138-2.0582-9.1895-3.0139-13.232-4.043-1.0291 0-1.0293-2.0581-1.0293-3.0137-1.0291-3.0873-2.0584-6.1018-1.0293-7.1309 5.072-2.0582 7.1289-6.1002 7.1289-9.1875 0-3.0873 3.0162 1.0291 6.1035 0 2.0582-2.0582 3.0877-4.0434 2.0586-6.1016 0-2.0582-1.0309-4.043-3.0156-4.043-10.134-4.1164-21.473-4.1164-31.607 0-3.0873 1.0291-3.0877 5.0726-2.0586 8.1602 1.0291 4.0429 5.146 2.0582 8.1602 0 1.0291 0-1.0289 3.0858 1.0293 6.0996 2.0582 4.0429 6.0996 5.0724 6.0996 6.1016 0 3.0873.002 3.0876-1.0273 5.0723 0 2.0582-.00038 4.1174-2.0586 5.1465-6.1011 1.0291-11.173 3.014-17.348 5.0723-3.0138 1.0291-6.1021 4.1152-9.1894 4.1152-2.0582 0-4.0432-4.1167-5.0723-5.0723-2.0582 0-2.0587-1.0291-6.1016 0-11.908 4.925-23.521 10.732-34.621 17.348-2.0582-2.0582-1.0295-5.0707-2.0586-7.1289 11.32-7.1302 23.303-13.231 35.652-18.303 1.0291-1.0291-.00019-4.0434-1.0293-6.1016 0 0-7.1321-1.0285-20.363 3.0879-8.0858 1.9847-17.348 7.1289-18.377 7.1289-.66157-2.3522-1.0273-4.7032-1.0273-7.1289 6.2481-3.1608 12.715-5.8811 19.404-8.1602 7.1302-2.0582 14.262-2.0588 21.393-3.0879-1.0291 0-1.0293-2.0588-1.0293-3.0879-3.0138-6.1011-8.1604-11.173-13.232-16.318-2.0582-4.1164-4.1152-9.1872-4.1152-11.172 2.0582-2.0582 4.1151 1.0293 7.1289 1.0293-1.2496-3.6019-1.9116-7.4237-2.0586-11.246-1.0291-4.0429-1.0273-4.0439-1.0273-9.1894 0-6.1011 2.0564-9.1877 1.0273-10.217-1.0291-1.0291-5.144-3.0137-6.0996-3.0137-2.0582-1.0291-3.0139-1.0297-4.043-3.0879-3.0873-5.072-6.1016-9.1878-6.1016-14.26 0-5.072 1.9848-9.1897 4.043-14.262 1.0291-4.0429 6.1002-6.0997 9.1875-8.1582 3.0873-2.0585 6.1021-1.0293 9.1894-1.0293 7.1302 0 13.231 4.0435 18.377 7.1309 3.6019 2.7933 6.1753 6.762 7.1309 11.246h9.1875c5.072 1.029 10.144 2.0585 16.318 5.0723 7.1302-6.1011 19.331-7.1309 25.506-7.1309 0-11.173 8.1599-17.348 14.188-17.348 5.1455-1.0291 8.1608-2.058 15.291 1.0293 5.072 3.0138 12.201 13.231 12.201 14.26 2.0582 4.1164 1.0293 9.1899 1.0293 15.291-.66157 2.6463-1.0293 5.3646-1.0293 8.1582-.9556 4.0429-6.1002 7.1308-9.1875 8.1602 0 7.1302-2.0588 11.172-3.0879 17.273 0 3.0873-1.0295 6.1002-2.0586 9.1875 3.0138-1.0291 4.117-3.0117 7.1308-3.0117-2.0582 13.231-5.0725 11.171-8.1602 17.346-1.2496 4.4104-3.3083 8.6032-6.1016 12.205-1.5437 1.5437-3.2334 2.8668-5.1445 4.043-1.9847.88209.0742 1.9104.0742 2.9394 7.8653 0 16.906 1.839 28.152 6.3965v-124.38c-2.2682 1.9038-5.8211 2.8672-8.8203 2.8672-3.0138 0-5.146-1.0295-8.1602-2.0586-2.0582-2.0582-11.173-5.0723-16.318-5.0723-6.0276 0-10.143 8.1602-17.273 12.203-3.0873.9556-9.1899 1.9848-15.291 4.043-4.0429 2.0582-6.1016 3.0875-6.1016 1.0293-1.0291-4.0429-1.0273-8.0867-1.0273-12.203-3.0873-1.0291-7.1298-1.0297-10.217-3.0879-1.2496 4.778-3.3102 9.263-6.1035 13.232-4.0429-1.9847-8.1583-3.0142-12.201-6.1016-5.1455-3.0138-17.348-10.145-18.377-12.203-4.0429 4.0429-16.245 11.245-23.449 15.361-2.1317 3.5284-4.4826 6.912-7.1289 10.146l-10.145-4.043c1.9847-4.1164 4.0434-6.1742 6.1016-10.217 4.0429-6.1011 10.145-11.248 14.262-15.291 11.247-4.0429 11.245-6.1017 24.477-8.1602 5.1455 6.1011 19.406 15.291 19.406 15.291 0 2.0582 1.0294-1.0282 5.0723-13.23 3.0873 1.9847 5.1441 1.9848 8.1582 4.043 1.3966.22052 2.7941.58633 4.1172 1.0273 1.0291 0 7.1288-3.0861 8.1582-4.1152 2.0582-1.0291 11.248-3.0879 11.248-3.0879.9556 1.0291-3.0879 8.1603-3.0879 9.1895v8.3789c1.3966 0 2.7933-.29422 4.043-1.0293 5.072-2.0582 6.1017-11.247 8.1602-18.377 3.0873 1.0291 5.0706 1.0293 8.1582 1.0293 0 4.0429-1.9845 10.143 1.0293 10.143 3.0138 0 7.1313-4.1155 13.232-9.1875 7.6665 3.0279 15.333 7.2976 22.604 11.82v.002h.002l5.4727 3.541v-36.02zm227.98 59.797c-3.0426.0069-5.9942 1.2318-8.1992 3.4922-1.9847 3.0873-5.0721 7.205-4.043 11.248 7.1302 2.0582 12.202 6.1017 17.348 12.203 3.2343-.07351 6.0282-2.0585 7.1309-5.0723 1.0291-5.072 2.058-13.233-1.0293-17.35-2.0582-2.0582-3.0859-3.0861-8.1582-4.1152-1.0107-.27565-2.0347-.40854-3.0488-.40625zm-135.3.9668c1.5816-.05557 3.2244.20175 4.7129.61523-.9556 7.1302-1.9844 9.1141-1.9844 17.273 0 1.0291 1.9846 6.1752 3.0137 8.1602 1.0291 1.985 2.0586 4.0434 2.0586 6.1016 0 1.0291-1.0295 1.9846-2.0586 3.0137-3.0138 2.0582-4.0432 1.0277-5.0723 3.0859-5.072 4.0429-7.0556 6.1756-11.172 9.1894-1.9847 2.1317-1.9848 2.1307-4.043 5.1445 0 0-1.0295-11.173-2.0586-17.348 4.1164-2.0582 6.1007-4.1151 10.217-7.1289-1.0291-6.1011-2.0586-10.219-2.0586-15.291 0-3.0873.000371-6.1737 2.0586-9.1875 1.2864-2.5728 3.7508-3.5363 6.3867-3.6289zm39.486.52734c-.31858-.0089-.63742-.0047-.95899.01367-4.1164 1.0291-11.174 3.0883-13.232 9.1895 0 1.0291-1.0287 5.0726 2.0586 9.1152 1.9847 4.1164 6.1017 7.1293 8.1602 9.1875 2.9403 0 3.97-5.0721 9.1152-8.0859 2.0582-2.0582 8.1582-6.1016 8.1582-6.1016 1.0291 0 1.0293-1.0295 1.0293-2.0586-1.9847-7.1302-4.0434-7.1293-8.1602-9.1875-1.8009-1.2864-3.9398-2.0099-6.1699-2.0723zm57.5 20.281c-1.4605.0059-1.9323.53641-.38868 2.0801-.0735 2.1317 3.0141 2.1305 5.0723 4.1152 2.0582 0 2.0566 4.1169 2.0566 6.1016 5.1455 0 10.22 1.0289 12.205-1.0293 11.247-5.1455-6.1036-9.1875-8.1621-9.1875-3.17-.64319-8.3486-2.0901-10.783-2.0801zm-18.598.96484c-1.3409.0294-3.1255.60865-4.2832 1.1875-1.9847 0-5.0726 2.0583-8.1602 4.043-3.0138 3.0873-5.0723 4.1171-5.0723 7.1309h5.0723c5.072 0 6.1016 2.058 8.1602-1.0293 3.0873-4.0429 6.0996-6.1015 6.0996-10.145 0-.90047-.77348-1.2104-1.8164-1.1875zm-22.588 20.52c-5.1455 0-9.1885.00019-14.334 1.0293 2.0582 4.1164 7.1312 8.1605 9.1895 10.219s4.115 4.043 8.1582 4.043c4.0429-1.0291 4.0434-.00019 6.1016-1.0293 0 2.0582 1.0291 5.0727 0 7.1309 0 1.0291 1.0292 9.1877-3.0137 10.217-3.0138 1.0291-7.1293 3.0878-9.1875 6.1016-2.0582 3.0138-3.0873 8.1586 0 10.217 2.0582 1.0291 4.0416-2.0588 7.1289-3.0879 3.0873-1.0291 3.0139-3.0858 4.043-6.0996 2.0582-2.0582 6.0998-3.0883 7.1289-5.1465v-3.0879c1.0291-9.1884 1.0295-11.175 2.0586-17.35.0735-.88209 1.0312-6.981 1.0312-8.0098 0-2.0582-1.985-4.1174-5.0723-5.1465zm51.088 0c-3.0873 1.0291-6.1016 4.1174-6.1016 5.1465 0 0 1.9863 11.174 1.9863 12.203 0 7.1302 1.0293 7.1298 1.0293 14.26 3.0873 2.0582 4.0402 2.059 6.1719 4.1172.9556 2.0582 1.9872 4.0414 3.0898 6.0996 4.0429 2.0582 9.1874 4.0436 12.201 7.1309.80858 0 3.8965-5.0714 3.8965-7.2031 4.0429 0-5.1466-4.0436-9.1895-7.1309-.80858-.0735-1.4705-.44124-2.0586-1.0293-2.0582-2.0582-3.086-6.1018-7.1289-7.1309-.51455 0-.95703-.44055-.95703-.95508v-.0723c0-3.0138-1.0293-15.217-1.0293-15.217 2.0582 4.0429 6.1016 4.043 8.1602 4.043 4.1164 0 7.1293-1.0292 9.1875-4.043 0-1.0291 1.0295-3.0137 2.0586-3.0137 2.0582-1.0291 4.1174-2.059 5.1465-4.1172 1.0291 0 2.0586-2.0586 2.0586-2.0586-9.1884-1.0291-28.521-1.0293-28.521-1.0293zm-100.42 6.3008h.002c1.6896-.0603 3.0789.13245 3.4648.9043 1.0291 2.0582-1.0293 2.0568-1.0293 8.1582-1.0291 1.9847-2.0583.95617-4.043 3.0879-1.0291.95559-12.203 9.1154-13.232 10.145-2.0582.9556-3.0858 1.985-6.0996 5.0723-1.0291-3.0873-1.0295-6.1002-2.0586-9.1875 0-1.0291.000186-8.1581 1.0293-11.172 0-2.0582 9.1878-5.1479 14.26-6.1035 1.2404 0 4.8912-.80382 7.707-.9043zm1.4082 24.279c0 4.1164-1.0295 7.1295-2.0586 11.246-6.1746 2.9403-11.761 7.0554-16.318 12.201-3.0138 4.0429-9.1891 10.145-11.174 13.232l-1.0293-12.203c-1.0291-3.0873-1.0273-3.0864-1.0273-9.1875 5.072-3.0138 7.1289-5.0706 12.201-8.1582 2.0582-2.0582 9.1887-4.0436 19.406-7.1309zm107 27.234c-1.199-.0643-2.5442-.001-4.0879.25586-.95559 1.0291-.95703 1.0292-.95703 4.043 5.072 0 8.1622 3.0874 12.205 4.043 0 .0735 1.0293-4.9963 1.0293-6.0254-2.3155-.77183-4.592-2.1234-8.1895-2.3164zm-54.955 1.2852c-2.4257.0735-4.7786.44318-7.1309 1.0312.51456 2.0582 1.1765 4.1169 2.0586 6.1016 3.0138-1.0291 4.0434-1.9865 6.1016-3.0156-.0735 0 3.9696-2.0568 5.0723-3.0859-2.0582-1.0291-4.0434-1.0312-6.1016-1.0312zm70.271 2.0606v8.1582c4.0429 1.0291 6.1026 3.0874 10.219 4.043 1.5378.73233 10.371 5.4789 16.906 9.0762v-14.146c-11.173-4.484-21.465-5.5137-27.125-7.1309zm-137.53 3.0117c-1.0291 5.0718-2.0586 7.1317-2.0586 15.291 0 2.0582 2.0588 8.1588 3.0879 15.289-2.0582 4.0429-3.0878 7.1298-6.1016 10.217-.73508 1.3231-1.7648 2.3528-3.0879 3.0879 0-2.0582-1.0295-4.0434-2.0586-6.1016-1.0291-3.0873-1.0275-6.1002-2.0566-9.1875 0-3.0873-1.0293-14.262-1.0293-16.32v-5.0703c4.1163-2.0582 9.1148-5.1469 13.305-7.2051zm94.75 15.365c10.218 0 20.362 1.0276 28.521 6.0996 0 4.0429.00048 9.1876-1.9844 13.23 0 1.0291-2.0583 5.0726-4.043 7.1309-3.0873-4.0429-9.1894-8.1582-9.1894-8.1582 1.0291 4.1164-.00019 5.0716-1.0293 10.217 0 1.0291-7.1289 1.0293-7.1289 1.0293-6.1011-3.0873-7.1289-7.1309-7.1289-7.1309 0 1.0291-1.1036 8.1602-5.1465 8.1602s-7.1309-6e-4-7.1309-3.0879c-1.0291-3.0138-1.0293-5.0726-1.0293-8.1602v-4.043c-3.0138 1.0291-5.0707 4.0434-7.1289 6.1016-.95559 0-1.9846-2.0586-3.0137-2.0586-1.8377-3.5284-3.1616-7.2761-4.1172-11.172 10.144-7.1302 20.36-8.1582 29.549-8.1582zm-89.752 22.346c3.0138 3.0873 4.0434 4.1155 6.1016 9.1875-.9556 1.0291-7.1308 6.1017-12.203 12.203 0 2.0582-3.0859 4.1152-3.0859 4.1152 0-4.0429-.95703-9.1879-.95703-11.246-1.0291-2.0582-2.0566-3.0883-2.0566-5.1465 1.0291-.9556 3.0121-1.9846 5.0703-3.0137 1.0291-2.0582 6.1018-5.0705 7.1309-6.0996zm23.523.0703v.002c1.9847.9556 5.0705 1.9848 6.0996 4.043 1.9847 3.0873.00019 7.1317 1.0293 10.219.95559 5.072 4.043 14.258 4.043 14.258-3.0873-2.0582-6.1002-3.0883-9.1875-5.1465-1.9847-.95559-4.043-1.9846-4.043-3.0137-1.1026-3.9694-1.7646-8.0848-2.0586-12.201 0-4.1164 2.059-8.1602 4.1172-8.1602zm20.988 7.875c1.1122-.0425 2.5799 1.3164 3.416 1.3164 2.2787 1.4702 4.0432 3.6004 5.0723 6.0996 1.0291 1.9847 2.0586 7.1309 2.0586 7.1309 0 7.1302-3.09 9.1148-4.1191 13.305-1.9847-3.0873-2.9384-7.2033-4.041-10.217s-3.0883-5.0725-5.1465-8.1602c1.0291-1.0291 2.0586-9.1875 2.0586-9.1875.20674-.19296.44454-.27731.70118-.28711zm99.195 2.2695c1.0291 0 3.0861.00018 4.1152 1.0293 3.0138 0 3.0141.00018 5.0723 1.0293 0 .87488 2.2228 13.382 3.3106 15.275v2.9414c-1.4492-.95324-8.6118-8.5302-9.4121-10.131-1.3231-3.3078-2.3509-6.6895-3.0859-10.145z" fill="#ff6200"/></svg>
