<svg data-author="YAXI GmbH" data-logo-id="is" data-primary-color="#00559f" data-maskable="true" version="1.1" viewBox="0 0 250 250" xmlns="http://www.w3.org/2000/svg"><path d="m122.92-5e-6c-7.5393 0-13.664 6.1184-13.664 13.664 0 7.5393 6.1247 13.664 13.664 13.664 7.5515 0 13.672-6.1247 13.672-13.664 0-7.5456-6.12-13.664-13.672-13.664zm-20.938 32.726v3.3449l3.2988.86889c6.5228 1.6527 5.685 7.6865 5.8747 9.4503v4.5137c-.97451.06925-2.0114.13401-2.9296.3076-21.075 2.9767-36.432 19.627-36.432 39.748 0 14.981 7.1133 24.361 18.462 32.88 5.8921 4.4283 9.8968 6.3318 17.001 10.227l3.9062 2.1684v42.7c-.18503 1.7708.62512 7.7153-5.7208 9.4117l-3.4602.93809v3.3295h41.893v-3.3295l-3.2987-.8766c-6.5169-1.6598-5.6893-7.6987-5.8669-9.481l-.008-29.558 4.583 2.576s13.79 6.7106 19.101 18.862c5.3346 12.151 1.8548 29.581-19.393 37.224 0 0-25.278 7.8629-48.196-13.61 0 0-7.9094-8.2964-11.811-19.431-.61342-1.734-1.3149-4.5291-1.3149-4.5291h-3.3141v42.299h2.8066s1.6945-2.4642 3.1526-3.6524c.38669-.32428.67389-.5537 1.0304-.76893 1.8492-1.1274 4.5039-2.5861 11.057-1.0919l.49212.15378c1.4953.34956 8.981 2.9373 8.981 2.9373 5.5184 2.3212 10.112 3.9811 15.233 4.9058-4.4035 2.1878-7.4432 6.7346-7.4432 11.996-1e-5 5.6594 3.5172 10.068 8.466 11.826 1.9607.95602 2.1975 1.6547 2.7605 3.4064.47684 1.4953-1.0842 7.5279-1.0842 7.5279h3.4679s2.2498-2.7734 5.398-7.1279c1.3772-1.8933 3.4888-5.7236 4.7444-7.4204 1.6853-2.4744 3.0527-4.8299 3.0527-8.2046 0-4.6307-2.3608-8.7058-5.9133-11.119.8148-.0252 1.0073-.0692 1.0073-.0692 7.7413-.45373 14.918-3.4141 14.918-3.4141 24.597-8.3479 30.204-30.058 30.204-30.058.96759-3.6748 1.5148-7.5472 1.5148-11.534 0-13.193-6.9877-25.074-16.101-33.257 0 0-2.8152-2.7111-5.1366-4.4137-4.7834-3.724-20.116-11.903-20.116-11.903s-25.765-13.992-32.257-18.047c-6.4862-4.0555-9.5503-7.2511-9.5503-7.2511-4.9732-4.2504-8.1661-10.033-8.1661-17.37 0-11.404 10.293-19.369 22.292-21.384 0 0 .82255-.09224 1.9916-.16146v43.685l23.545 12.987v-67.543c.18504-1.7453-.62472-7.7015 5.7208-9.4042l3.4525-.90735v-3.3526h-41.893zm59.33 20.462-1.6071 2.4299c-1.4582 1.8611-2.7711 2.5295-5.5826 2.8297-3.2519.36811-7.4279-1.4072-7.4279-1.4072l-6.1594-2.4606v6.2208c2.6704 1.5 3.8629 2.7123 5.1673 3.6678 1.6181 1.2016 4.1622 3.6871 7.1511 7.7046 2.9887 4.024 5.181 9.1369 5.8976 11.311.52774 1.5811 1.233 4.9236 1.5686 6.859l.41523 2.5913h3.614v-39.746h-3.0373z" fill="#00559f"/></svg>
