<svg data-author="YAXI GmbH" data-logo-id="jt" data-primary-color="#212529" data-secondary-color="#8b715c" data-maskable="true" version="1.1" viewBox="0 0 250 250" xml:space="preserve" xmlns="http://www.w3.org/2000/svg"><path d="m123.47 68.381c-21.784 0-34.13 4.3863-34.13 26.278 0 12.486 2.7988 15.94 10.096 22.051-14.196 3.9787-22.704 3.3128-22.704 30.271 0 34.785 17.665 34.639 42.36 34.639 17.786 0 35.187-8e-4 41.566-14.594l16.45 13.676 6.7819-8.7682-20.31-16.192c1.059-5.0424 1.3152-10.368 1.3152-15.542 0-2.9246-.14034-5.8443-.2618-8.7495h-11.552c0 2.5263.52414 5.174.26179 7.7002-.12144 2.5117-.26219 4.9067-.40307 7.428l-43.272-36.388c-5.8493-4.8925-7.6961-7.695-7.6961-15.531 0-14.726 9.4211-15.128 21.503-15.128 16.591 0 18.724 2.7785 18.845 16.853v6.1066h12.627v-6.1066c0-23.494-11.29-28.002-31.476-28.002zm-96.914.66904v78.054h-26.56v33.321h38.113c3.1724 0 5.1778-.27219 5.1778-.27219 11.674-1.7191 20.711-11.538 20.973-23.606v-87.497h-37.701zm142.85 0v33.444h21.384v77.935h37.83v-77.935h21.376v-33.444h-80.589zm-62.4 54.296 43.552 35.713c-2.5117 12.349-19.652 11.291-31.734 11.291-26.293 0-29.745-1.6029-29.745-23.373 0-17.665 1.6038-19.919 17.927-23.631z" fill="#212529"/></svg>
