<svg width="250" height="250" data-author="YAXI GmbH" data-logo-id="liga" data-primary-color="#003e79" data-secondary-color="#0095d7" data-maskable="true" version="1.1" viewBox="-2.2327 -2.2327 250 250" xml:space="preserve" xmlns="http://www.w3.org/2000/svg"><path d="m247.77 48.909a50.791 50.791 0 01-50.791 50.791 50.791 50.791 0 01-50.791-50.791 50.791 50.791 0 0150.791-50.791 50.791 50.791 0 0150.791 50.791zm-250-1.5422v150.8a49.248 49.248 0 0049.248 49.248h150.8a49.248 49.248 0 0049.248-49.248v-3.4488a49.248 49.248 0 00-49.248-49.248h-62.376a35.732 35.732 0 01-35.732-35.732v-62.376a49.248 49.248 0 00-49.248-49.248h-3.4488a49.248 49.248 0 00-49.248 49.248z" fill="#003e79"/><path d="m-2.2282 47.366v150.8c0 27.199 22.05 49.248 49.248 49.248h150.8c27.199 0 49.248-22.05 49.248-49.248v-3.4488c0-27.199-22.05-49.248-49.248-49.248h-62.376c-87.812 4.1741-137.68-49.248-137.68-98.107z" fill="#0095d7"/></svg>
