<svg data-author="YAXI GmbH" data-logo-id="merkur" data-primary-color="#787d81" data-maskable="true" version="1.1" viewBox="0 0 250 250" xml:space="preserve" xmlns="http://www.w3.org/2000/svg"><path d="m138.71 63.766c7.7472-1.492 14.002-5.6648 18.47-10.428h47.082c.5984 0 1.1968.59839.89361 1.492l-5.0664 12.814c-.8936 1.7872-2.3776 2.0824-3.5744 2.0824h-58.1zm-27.42 0c-7.7472-1.492-14.002-5.6648-18.478-10.428h-47.074c-.59839 0-1.1968.59839-.8936 1.492l5.0664 12.814c.8936 1.7872 2.3776 2.0824 3.5744 2.0824h58.1zm-30.391-43.801h-61.978c-.59839 0-1.1888.8936-.8936 1.492l7.7472 19.364c3.2792 8.944 2.976 7.1568 15.494 7.452h48.566c.30319 0 .30319-.29521 0-.29521-8.0424-10.731-7.444-24.135-8.0424-27.414 0-.30319-.29521-.59839-.8936-.59839m30.991 71.215h-36.949c-.59839 0-.8936.29521-.59839.59839l2.984 7.1488c0 .29521.29521.29521.59042.29521h34.571c.29521 0 .8936-.29521.59042-.59042l-.29521-7.1568c-.29521 0-.59839-.29521-.8936-.29521m-62.577 97.14h38.736c8.936 0 14.002-15.494 13.707-16.683l-31.882-79.267c-.29521-.8936-1.492-.8936-2.0904 0l-31.882 79.267c-.59042 1.1888 4.476 16.683 13.412 16.683m-9.5344-17.88 28.906-71.217 28.898 71.217zm72.111-79.26h-36.949c-.59839 0-.8936.29521-.59839 1.1888l2.6808 6.8536c0 .30319.30319.30319.59839.30319h34.563c.30318 0 .8936-.30319.59839-.59839l-.29521-7.1488c0-.30319-.30318-.59839-.59839-.59839m102.5 80.45-31.882-79.259c-.29521-.8936-1.492-.8936-2.0904 0l-31.882 79.259c-.29521 1.1888 4.7712 16.683 13.707 16.683h38.736c8.6408 0 13.707-15.494 13.412-16.683m-61.978-1.1888 28.906-71.217 28.898 71.217zm16.687-150.48h61.978c.5984 0 1.1968.8936.8936 1.492l-7.7472 19.364c-3.2792 8.944-2.976 7.1568-15.494 7.452h-48.566c-.30318 0-.30318-.29521 0-.29521 8.0424-10.731 7.444-24.135 8.0424-27.414.29521-.30319.59839-.59839.8936-.59839m-44.1 230.03c-.59839 0-1.1888 0-1.7872-.29521l-8.3456-210.08c2.984 1.492 6.5584 2.0904 10.133 2.0904s6.8536-.8936 10.133-2.0904l-8.3456 210.08c-.59839 0-1.1888.29521-1.7872.29521m-4e-4-250c9.702 0 17.577 7.8749 17.577 17.577 0 9.7099-7.8749 17.585-17.577 17.585s-17.577-7.8749-17.577-17.585c0-9.702 7.8749-17.577 17.577-17.577m13.41 91.18h36.949c.59839 0 .8936.29521.59839 1.1888l-2.6808 6.8536c0 .30319-.30319.30319-.59839.30319h-34.563c-.30318 0-.8936-.30319-.59839-.59839l.29521-7.1488c-.29521-.30319 0-.59839.59839-.59839" fill="#787d81"/></svg>
