<svg data-author="YAXI GmbH" data-logo-id="mlp" data-primary-color="#a3825b" data-maskable="true" version="1.0" viewBox="0 0 250 250" xmlns="http://www.w3.org/2000/svg"><path d="m125.06.003938c-68.997-.38868-125.04 56.061-125.04 124.96 0 37.77 16.736 71.545 43.19 94.436v-94.447c.10793-21.908 8.7461-42.445 24.079-57.843 15.441-15.397 35.848-23.884 57.767-23.884 21.703 0 42.219 8.4762 57.659 23.863 15.333 15.387 23.971 35.934 24.079 57.864.21598 21.444-8.6381 42.629-24.295 58.134-15.657 15.592-36.172 24.003-57.551 23.69-.97183-.0216-2.0516-.054-3.0233-.10794v43.277c.97174.0324 2.0515.0432 3.1313.054 69.861.24837 124.93-56.741 124.93-125.04 0-68.921-55.824-124.57-124.93-124.96m15.124 109.84c4.1031 4.0599 6.3706 9.4263 6.3706 15.128 0 11.91-9.7178 21.595-21.595 21.595-.97183 0-2.0516-.0648-3.0233-.16199v41.83c.97174.054 2.0515.097 3.1313.10793 16.628.19439 32.393-6.1978 44.378-18.01 12.201-12.039 18.896-28.149 18.896-45.361 0-34.466-28.398-62.853-63.382-63.306-16.412-.20518-32.069 6.1006-44.054 17.762-12.201 12.039-19.112 28.203-19.22 45.534v107.68c12.741 7.472 26.778 12.795 41.787 15.441v-123.13c.10794-11.802 9.7178-21.412 21.595-21.412 5.7227 0 11.122 2.2351 15.117 6.295" fill="#a3825b"/></svg>
