<svg data-author="YAXI GmbH" data-logo-id="mufg" data-primary-color="#d32c1f" data-maskable="true" version="1.1" viewBox="0 0 250 250" xmlns="http://www.w3.org/2000/svg"><path d="m161.72 125.05a36.682 36.682 0 01-36.682 36.682 36.682 36.682 0 01-36.682-36.682 36.682 36.682 0 0136.682-36.682 36.682 36.682 0 0136.682 36.682zm-92.344 87.149c-39.085-9.1926-65.987-41.544-69.099-81.016-5.1832-65.821 63.373-115.77 124.27-87.939q.50946.23259 1.019 0c30.845-14.033 65.732-8.5945 91.804 12.56q30.834 25.008 32.551 65.976c1.9714 47.026-32.208 85.779-78.535 91.97-16.347 2.193-29.04-.36549-44.445-6.0914-.96356-.36549-2.7467-.54269-3.6881-.14398q-25.972 11.253-53.87 4.6848zm56.557-6.02a81.205 80.274 89.3 0079.276-82.179 81.205 80.274 89.3 00-81.26-80.218 81.205 80.274 89.3 00-79.276 82.179 81.205 80.274 89.3 0081.26 80.218z" fill="#d32c1f"/></svg>
