<svg data-author="YAXI GmbH" data-logo-id="national" data-primary-color="#02a242" data-maskable="true" version="1.1" viewBox="0 0 250 250" xml:space="preserve" xmlns="http://www.w3.org/2000/svg"><path d="m235.04 172.41c26.184-37.392 17.096-88.932-20.298-115.12-17.481-12.242-38.053-16.771-57.681-14.304 12.94 1.6116 25.688 6.3032 37.113 14.304 37.395 26.183 46.482 77.722 20.298 115.12-13.942 19.914-35.076 31.794-57.433 34.603 29.41 3.6665 59.819-8.635 78.002-34.603m-62.234-115.12c-17.603-12.323-38.34-16.828-58.089-14.248 12.806 1.6599 25.41 6.3303 36.722 14.251 37.393 26.183 46.481 77.722 20.298 115.12-13.859 19.793-34.819 31.648-57.025 34.548 29.531 3.8243 60.129-8.4654 78.392-34.548 26.184-37.392 17.096-88.932-20.297-115.12m-42.737.003c-37.395-26.184-88.933-17.096-115.12 20.297-26.183 37.395-17.095 88.932 20.298 115.12 37.394 26.182 88.932 17.096 115.12-20.3 26.183-37.392 17.095-88.932-20.298-115.12" fill="#02a242"/></svg>
