<svg data-author="YAXI GmbH" data-logo-id="nibc" data-primary-color="#e50000" data-secondary-color="#00a5d6" data-maskable="false" version="1.1" viewBox="0 0 250 250" xmlns="http://www.w3.org/2000/svg"><path d="m3.4e-8 48.552h177.36a22.1 22.1 0 0122.1 22.1v56.748a22.1 22.1 0 01-22.1 22.1h-155.26a22.1 22.1 0 01-22.1-22.1z" fill="#e50000"/><path d="m250 201.45h-177.36a22.1 22.1 0 01-22.1-22.1v-56.748a22.1 22.1 0 0122.1-22.1h155.26a22.1 22.1 0 0122.1 22.1z" fill="#00a5d6"/><path d="m72.648 100.49a22.1 22.1 0 00-22.1 22.1v26.906h126.81a22.1 22.1 0 0022.1-22.1v-26.906z" fill="#1a1a1a"/></svg>
