<svg data-author="YAXI GmbH" data-logo-id="ober" data-primary-color="#c90000" data-maskable="true" preserveAspectRatio="xMidYMid" version="1.0" viewBox="0 0 250 250" xmlns="http://www.w3.org/2000/svg"><path d="m125.39.033868c-.0516.10315-3.4041.30946-7.3755.51577-3.9714.15473-7.6849.41261-8.3038.51577-.61892.10315-2.321.36104-3.8682.56734-5.3124.6705-13.462 2.3725-19.496 4.1261-30.998 9.0259-54.207 28.161-67.359 55.548-3.3009 6.9113-5.9313 13.719-7.3239 18.98-1.2894 5.0029-3.7651 16.659-4.0746 19.496-.15473 1.4957-.36104 3.1978-.46419 3.8167-.97996 5.0545-1.3926 27.8-.6705 37.29 1.341 17.742 5.364 33.576 12.224 47.966 9.1806 19.238 22.126 33.422 41.055 45.026 11.811 7.2207 31.101 13.565 46.419 15.267 1.4441.15473 3.9714.41261 5.6734.61892 3.5588.30946 16.762.30946 20.631 0 4.1261-.41261 8.6649-.92838 9.7996-1.1347.56734-.10315 1.9083-.30946 2.9399-.46419 6.5502-.82522 18.413-4.1777 26.871-7.5302 38.476-15.37 63.646-48.224 69.989-91.6.30946-2.2178.67049-4.5903.82522-5.3124.97996-5.6218 1.3926-28.986.61892-37.135-1.3926-15.164-5.1577-30.275-10.573-42.551-13.358-29.966-40.333-51.628-74.58-59.777-5.9829-1.4441-9.7996-2.2178-13.513-2.682-1.3926-.15473-3.043-.41261-3.6104-.51577-.56734-.10315-4.023-.36104-7.7365-.51577-3.6619-.15473-6.9628-.36104-7.3239-.46419-.30946-.10315-.6705-.10315-.77365-.051577zm11.45 34.402c22.487 3.2493 39.662 13.41 52.041 30.74 7.066 9.8511 12.997 24.912 14.751 37.445.15473 1.3926.41261 2.8883.51576 3.3525.77365 4.2293 1.1347 21.353.56735 27.697-.77365 8.1491-.92838 9.748-1.0831 10.47-.0516.46419-.30946 1.9083-.51577 3.1978-.20631 1.2894-.46419 2.7851-.61892 3.3525-.10315.56735-.25788 1.5989-.36104 2.321-1.2894 8.768-7.3239 23.725-13.049 32.39-3.6619 5.5187-12.017 13.977-17.072 17.278-8.407 5.5187-20.063 10.109-28.986 11.398-4.3324.61892-6.6018.8768-8.5102 1.0831-2.682.30946-16.659.30946-18.31.0516-.72207-.10316-2.682-.36104-4.384-.56734-7.7881-.87681-15.421-3.1978-23.725-7.2207-13.565-6.6018-24.086-17.33-31.255-31.978-3.3009-6.8081-6.3955-15.525-7.4786-21.043-.10315-.51577-.25788-1.341-.41261-1.8052-.46419-1.6504-1.9083-12.121-2.2178-16.556-.6705-8.6133-.36104-24.912.56734-30.482.15473-.72207.36104-2.2178.51577-3.3525.61892-4.2809.92838-5.7766 1.9599-10.057 2.8883-11.914 8.8196-24.705 14.906-32.287 2.9914-3.7651 10.986-11.037 14.906-13.668 10.522-6.9628 24.086-11.347 37.29-12.121 2.8883-.20631 5.3124-.36104 5.4156-.46419.30946-.25788 11.141.30946 14.545.82523z" fill="#c90000"/></svg>
