<svg data-author="YAXI GmbH" data-logo-id="olb" data-primary-color="#005f3d" data-secondary-color="#8de23c" data-maskable="true" version="1.1" viewBox="0 0 250 250" xmlns="http://www.w3.org/2000/svg"><path fill="#8de23c" d="m145.97 27.982c1.8393 17.198-10.581 32.633-27.742 34.476-31.316 3.3636-55.724 29.982-55.724 62.273 0 17.915 7.4647 34.032 19.535 45.488 12.531 11.893 13.069 31.715 1.2015 44.273-11.868 12.558-31.647 13.097-44.178 1.2037-24.014-22.792-39.058-55.143-39.058-90.964 0-64.642 48.832-117.81 111.56-124.55 17.161-1.8432 32.563 10.604 34.402 27.801z"/><path d="m143.17 64.784c25.657 7.7985 44.333 31.687 44.333 59.947 0 34.592-27.982 62.634-62.5 62.634-16.658 0-31.737-6.4897-42.965-17.147-12.531-11.893-32.31-11.354-44.178 1.2037-11.868 12.558-11.33 32.38 1.2011 44.273 22.373 21.234 52.668 34.304 85.942 34.304 69.036 0 125-56.085 125-125.27 0-61.714-44.532-113.01-103.15-123.36 6.2684 6.7067 10.493 15.436 11.545 25.277 1.6052 15.008-4.5467 29.058-15.228 38.137z" fill="#005f3d"/></svg>
