<svg data-author="YAXI GmbH" data-logo-id="pax" data-primary-color="#ea6200" data-maskable="true" version="1.1" viewBox="0 0 250 250" xml:space="preserve" xmlns="http://www.w3.org/2000/svg"><path d="m42.242-4.96e-7c-23.327 0-42.237 18.91-42.237 42.237v165.53c0 23.327 18.91 42.237 42.237 42.237h207.75v-65.478c0-5.8319-1.3398-15.103-3.5043-20.517-4.4192-11.052-10.372-21.408-17.614-30.851-1.9876-2.5919-4.0723-5.1135-6.2489-7.5636 2.1767-2.4503 4.2613-4.9718 6.2489-7.5636 7.242-9.4436 13.195-19.799 17.614-30.851 2.1645-5.4132 3.5042-14.685 3.5042-20.517v-66.655h-24.073zm2.6398 21.118h183.99v42.252c0 5.8319-1.4609 15.07-3.8596 20.383-4.4395 9.8322-10.362 18.978-17.522 27.195-25.734-21.413-59.76-34.4-96.833-34.4-33.666 0-64.823 10.709-89.537 28.713v-60.388c0-13.121 10.637-23.758 23.758-23.758zm65.779 76.549c31.402 0 59.871 10.563 81.549 27.919-21.68 17.358-50.148 27.924-81.549 27.924-31.402 0-59.871-10.566-81.554-27.924 21.683-17.355 50.154-27.919 81.554-27.919zm96.833 42.556c7.1597 8.2166 13.082 17.359 17.521 27.191 2.3992 5.3129 3.8601 14.551 3.8601 20.383v41.082h-183.99c-13.121 0-23.758-10.637-23.758-23.758v-59.206c24.715 18.005 55.874 28.713 89.537 28.713 37.073 0 71.1-12.99 96.833-34.405z" fill="#ea6200"/></svg>
