<svg width="250" height="250" data-author="YAXI GmbH" data-logo-id="psd" data-primary-color="#019966" data-maskable="true" version="1.0" viewBox="-1.3824 -1.3824 250 250" xmlns="http://www.w3.org/2000/svg"><path d="m136.14 22.168v.001953c-4.0535.0679-8.1433.31121-12.256.73633-56.347 5.821-97.606 43.902-98.535 88.043 0 0 .21777.81339.5957 0 3.061-41.136 43.2-75.235 96.109-78.879 31.671-2.184 61.415 6.9936 82.928 23.307l6.6543-11.65c-20.494-13.949-47.119-22.034-75.496-21.559zm38.52 45.799c-4.739-.06404-9.1716.18515-14.91.83203-18.03 3.696-19.925 20.452-21.75 36.662l-.17969 1.5234-.04492.05078-.00586.07226c-.4932 3.7852-1.0199 6.7374-1.6348 9.248l-.30078 1.4473c-.8133 3.9897-1.6586 8.1208-4.5215 11.451-4.015 4.9957-10.464 5.3796-15.979 5.418l.02539 12.17c5.8987.4354 11.496-.63569 15.287-1.6797 9.2682-2.223 14.937-11.162 17.166-18.822l3.4902-19.043.0332-.30664 2.0547-12.193c.8261-4.8162 2.5099-8.2298 5.2832-10.715 4.337-4.0349 10.837-4.0349 16.012-3.7852l-.02539-12.33zm-72.879.064453c-16.44 0-29.762 12.605-29.762 28.219 0 .326-.005859 50.174-.005859 50.174h13.359v-42.865l4.6562 18.715c3.5991 1.4731 7.5698 2.2988 11.752 2.2988 16.434 0 29.758-12.662 29.758-28.27 0-15.615-13.323-28.271-29.758-28.271zm101.69.12891v42.865l-4.6562-18.715c-3.6054-1.473-7.576-2.293-11.752-2.293-16.434 0-29.762 12.657-29.762 28.271 0 15.608 13.327 28.27 29.762 28.27 16.434 0 29.762-12.605 29.762-28.219v-50.18h-13.354zm-101.69 12.648c9.0056 0 16.309 6.9359 16.309 15.492 0 8.5564-7.3035 15.486-16.309 15.486-9.0119 0-16.313-6.9293-16.313-15.486s7.3011-15.492 16.313-15.492zm85.287 21.986c9.0119 0 16.312 6.9371 16.312 15.494 0 8.5567-7.301 15.492-16.312 15.492-9.0056 0-16.307-6.9352-16.307-15.492 0-8.5567 7.3017-15.494 16.307-15.494zm-140.88 56.375-19.51.32618v41.105l-.011719 23.268 10.881.01368c.05765-7.192-.070771-16.089-.019531-23.281v-4.6953h11.779c.807.01281 1.6266.08886 2.4336.23633 2.4465.5253 4.7855 1.7623 6.3418 3.6133 1.8958 2.3821 2.9074 7.4033 1.2422 10.145-1.7482 3.3816-5.4575 5.4882-10.018 5.4629h-11.701l2.9082 8.5059h9.1719c7.884.4034 14.275-2.8381 18.342-8.0195 4.0926-4.425 4.163-13.468 1.377-18.502-1.5305-2.9718-4.0908-5.4053-7.2227-7.1602.9991-.8006 1.9069-1.6775 2.7012-2.6445 4.0989-4.207 4.1947-13.45 1.4023-18.234-3.356-6.2128-9.3697-9.7223-20.098-10.139zm130.53 1.332v63.385h11.104v-25.387l20.549 25.4h13.502l-21.426-26.867 17.939-20.52h-13.033l-17.531 18.861v-34.873h-11.104zm-130.02 7.416h.001953c2.2762-.0156 11.381.41616 11.381 8.3516 0 0 .87188 9.3182-7.7617 10.811-.22409 0-.7811-.01286-1.0117-.00586h-11.779v-19.143h8.6602s.18456-.01167.50977-.01367zm104.06 8.1191c-.59792.0104-.93945.04102-.93945.04102-2.7796.2114-5.7136.44957-8.2754 2.3262-1.0825 4.8293-1.8444 9.3371-2.8692 13.865l-.29492 1.0117v-16.785l-11.072.01953.01757 47.375h11.088v-26.355l.02539-.53125c.12804-1.4411.53735-2.8451 1.1074-4.0684 1.7868-3.5482 5.5655-5.9878 9.5684-6.1992 0 0 11.837-1.0494 11.779 10.268v26.887h11.068v-27.643c-.258-19.38-17.018-20.287-21.203-20.211zm-52.189.02149c-13.445 0-24.346 10.902-24.346 24.346s10.902 24.344 24.346 24.344c3.5546 0 6.928-.76807 9.9766-2.1387 1.0185-4.6496 3.1973-14.391 3.1973-14.391l.00586 10.35v2.293l.00782 3.041h11.131l-.01367-20.027.02539-3.4707c.282-13.566-10.886-24.346-24.33-24.346zm-.13477 10.799c7.4806 0 13.547 6.0641 13.547 13.545 0 7.4806-6.0663 13.547-13.547 13.547-7.4805 0-13.553-6.0661-13.553-13.547 0-7.4806 6.0719-13.545 13.553-13.545z" fill="#019966"/></svg>
