<svg data-author="YAXI GmbH" data-logo-id="quintet" data-primary-color="#008e96" data-secondary-color="#ffdc23" data-maskable="true" version="1.0" viewBox="0 0 250 250" xmlns="http://www.w3.org/2000/svg"><path d="m135.75 20.906c-62.911 2e-6-113.98 51.072-113.98 113.98-3e-6 62.911 51.072 113.98 113.98 113.98 17.163 2e-5 33.444-3.8014 48.048-10.607-2.0866-1.3807-4.0458-2.9402-5.855-4.6554-12.949 5.5357-27.21 8.6004-42.193 8.6004-59.311 0-107.32-48.011-107.32-107.32 2e-6-59.311 48.011-107.32 107.32-107.32 59.311-5e-6 107.32 48.011 107.32 107.32 0 12.906-2.2727 25.276-6.4406 36.733 1.8143 1.717 3.4781 3.591 4.9703 5.6 5.2455-13.091 8.132-27.377 8.132-42.333 0-62.911-51.07-113.98-113.98-113.98z" fill="#72bbd7"/><path d="m125.19 1.1268c-46.51 0-86.548 27.913-104.26 67.887 6.4879-9.1547 14.293-17.312 23.137-24.196 19.672-22.69 48.711-37.03 81.127-37.03 59.311 6e-7 107.32 48.011 107.32 107.32 0 11.786-1.8961 23.125-5.3996 33.73-.41389 3.3677-.97446 6.6911-1.6759 9.9614 1.282.99441 2.5064 2.0594 3.6666 3.1903 6.4691-14.303 10.071-30.174 10.071-46.882 0-62.911-51.07-113.98-113.98-113.98zm-98.432 71.119c-6.2661 8.7238-11.255 18.429-14.695 28.841-.56487 4.596-.85614 9.2758-.85614 14.023 2e-6 62.911 51.072 113.98 113.98 113.98 14.936 0 29.203-2.8794 42.279-8.1112-1.533-1.7157-2.928-3.5542-4.1714-5.5011-11.84 4.4922-24.684 6.9506-38.107 6.9506-59.311 0-107.32-48.008-107.32-107.32 0-15.242 3.1711-29.738 8.8893-42.864z" fill="#00686b"/><path d="m207.3 159.93c-23.544 0-42.7 19.159-42.7 42.703 0 23.544 19.156 42.7 42.7 42.7 23.544 0 42.703-19.156 42.703-42.7 0-23.544-19.159-42.703-42.703-42.703zm0 6.6617c19.944 0 36.041 16.097 36.041 36.041-2e-5 19.944-16.097 36.038-36.041 36.038s-36.038-16.095-36.038-36.038c-2e-5-19.944 16.095-36.041 36.038-36.041z" fill="#ffdc23"/><path d="m113.98 20.834c-62.911 0-113.98 51.072-113.98 113.98 2.2783e-6 62.911 51.072 113.98 113.98 113.98 23.574-1e-5 45.485-7.1709 63.669-19.449-.78302-.46271-1.535-.97044-2.2848-1.4807 6.8352 4.6496 15.07 7.3904 23.941 7.3904 23.439-1e-5 42.532-18.989 42.703-42.388-1.9016-6.8075-5.7481-12.792-10.903-17.326-.13557-.25351-.3166-.47623-.458-.72604 2.9652 5.239 4.6997 11.273 4.6996 17.737 0 19.944-16.097 36.041-36.041 36.041-19.944 0-36.038-16.097-36.038-36.041 0-19.944 16.095-36.041 36.038-36.041 6.3207 1e-5 12.256 1.6165 17.414 4.4602 7.4881 1.6933 14.236 5.3593 19.668 10.422-2.7979-4.8835-6.5333-9.1652-10.958-12.597 1.6587-7.7337 2.532-15.759 2.532-23.985 2e-5-62.911-51.07-113.98-113.98-113.98zm0 6.6617c59.311 2e-6 107.32 48.011 107.32 107.32 0 6.8649-.64424 13.579-1.8736 20.084-5.9988-3.2185-12.851-5.0457-20.121-5.0458-23.544 0-42.7 19.159-42.7 42.703 1e-5 13.098 5.9291 24.839 15.244 32.679-16.693 10.7-36.551 16.902-57.869 16.902-59.311 0-107.32-48.011-107.32-107.32-2.8e-6-59.311 48.011-107.32 107.32-107.32zm106.93 136.2c.41175.30834.77843.66873 1.1762.99405-.39812-.32556-.7641-.6855-1.1762-.99405zm3.7368 3.2398c.46195.45691.87479.96037 1.3115 1.4416-.4375-.48213-.8487-.98397-1.3115-1.4416zm3.2632 3.7212c.42332.55262.80312 1.1376 1.1944 1.7149-.39195-.57833-.77038-1.1614-1.1944-1.7149z" fill="#008e96"/></svg>
