<svg data-author="YAXI GmbH" data-logo-id="raiffeisen" data-primary-color="#ffed00" data-secondary-color="#000000" data-maskable="false" version="1.1" viewBox="0 0 250 250" xml:space="preserve" xmlns="http://www.w3.org/2000/svg"><rect width="250" height="250" fill="#ffed00"/><path transform="matrix(6.3131 0 0 6.3131 -1305.6 -63.131)" d="m226.6 34.4-12.1 12.1-4.7-4.7 12.1-12.1-2.4-2.4v-4.7l-1.7-1.7v3.9l-1.7 1.7-5.9-5.9-1.6 1.6c0-1 .3-4.6 3.1-7.3 3.1-3 6.3-1.3 7.4-.2l5.8 5.8-1.4 1.4 3.1 3.1 3.1-3.1-1.4-1.4 5.8-5.8c1.1-1.1 4.2-2.9 7.4.2 2.8 2.7 3 6.2 3 7.3l-1.5-1.5-5.9 5.9-1.7-1.7v-3.9l-1.7 1.7v4.7l-2.4 2.4 12.1 12.1-4.7 4.7z"/></svg>
