<svg data-author="YAXI GmbH" data-logo-id="rautenschlein" data-primary-color="#9c6900" data-maskable="true" version="1.1" viewBox="0 0 250 250" xmlns="http://www.w3.org/2000/svg"><g fill="#9c6900"><path d="m58.291 226.69h12.458l-15.644 23.287h-1.5004a7.1588 7.1588 0 01-6.7703-3.5215z"/><path d="m29.42 35.5v191.16h28.877l7.377-12.971c-2.6701-1.51-4.8465-2.8438-6.5273-4.0039a28.78 28.78 0 01-5.1367-7.1602 21.84 21.84 0 01-3.625-8.3984v-27.082h2.5c.6751 5.8472 1.4296 11.782 2.2617 17.803a41.068 41.068 0 005.5098 16.289c1.6754 2.5158 2.9288 3.7723 3.7637 3.7695a4.7243 4.7243 0 001.7578-.62891 6.1131 6.1131 0 011.5-.62695c1.3392 0 2.9217 1.4176 4.7734 4.2695a8.5311 8.5311 0 007.5234 4.252h.49609a5.923 5.923 0 003.1406 5.2793 13.226 13.226 0 006.1387 1.4961h1.7598c-.1736 0 1.3276-.08387 4.502-.25196 3.1743-.16808 5.7635-.25195 7.7695-.25195a25.143 25.143 0 014.0176.25195 4.0589 4.0589 0 01-2.7559 3.2695 83.004 83.004 0 01-15.037 2.2441 19.588 19.588 0 01-13.805-6.0059l-5.459 8.457h149.84v-191.16h-28.752c-5.6382 7.6306-8.502 11.646-8.502 11.904 0 .50839.07924.75977.23633.75976h2.5117a3.9307 3.9307 0 001.7539-.87891 5.2782 5.2782 0 011.5078-.87695c-2.8478 7.0265-4.2695 10.618-4.2695 10.779v.24805a31.632 31.632 0 0011.041-7.7656c8.024-7.0321 12.287-10.713 12.791-11.041v3.7656l-36.877 34.096h-4.7559v-13.041a4.2531 4.2531 0 00-2.5098-3.5078 11.986 11.986 0 01-5.2734 1.7598 24.44 24.44 0 01-2.998-.25586 27.11 27.11 0 00-3.0117-.25195 4.8731 4.8731 0 00-5.0098 3.5215v-2.5176a89.101 89.101 0 016.9356-26.697h-8.2949l-6.4277 39.762c-1.1656-.50012-2.1788-.91589-3.0137-1.2383v-2.2578a129.94 129.94 0 015.0137-22.08c1.3411-4.676 2.6742-9.4128 4-14.186h-117.26zm127.73 0c-.31128 1.6548-.74913 3.9139-1.3008 6.7832-1.2606 6.4396-1.8848 9.8324-1.8848 10.146v1.7656a3.5918 3.5918 0 00.49609 2l8.2559-20.695h-5.5664zm9.4844 0a14.615 14.615 0 00-.39062 2.8945 2.8478 2.8478 0 00.25976 1.2402 33.579 33.579 0 003.3926-4.1348h-3.2617zm15.193 0a35.422 35.422 0 00-3.5273 8.1523v.75586l.24414-.25586 7.1113-8.6523h-3.8281zm-49.166 15.691c.33066 0 .58639 1.603.75586 4.7773-1.6754 13.714-2.5171 20.485-2.5254 20.314a16.273 16.273 0 005.5137 14.053 15.132 15.132 0 01.50781 3.7656 19.774 19.774 0 01-.74414 4.3809 19.84 19.84 0 00-.75977 4.8789 13.751 13.751 0 00.25586 2.7598 2.6577 2.6577 0 002.7617 2.5098c5.511-11.372 9.6037-17.055 12.279-17.047h11.275l-.48828.74414a9.7958 9.7958 0 01-.63086 2.6387 9.9901 9.9901 0 00-.61719 2.8926 2.48 2.48 0 001.2402 2.2559 115.76 115.76 0 0017.303-11.283c9.8592-7.528 17.464-13.039 22.818-16.533a77.081 77.081 0 01-15.789 15.293 66.417 66.417 0 00-14.809 14.285h.9961c7.867-3.1964 13.722-5.7956 17.566-7.7988a69.026 69.026 0 01-30.838 22.059v-1.2402a62.921 62.921 0 00.74024-8.5234v-.50391l-.4961-.24805h-1.2402a48.062 48.062 0 00-17.303 6.5137c-4.5163 2.3449-9.0302 4.6879-13.541 7.0273a21.832 21.832 0 01-4.5137-12.289 47.119 47.119 0 012.5137-12.779c1.1614-4.0299 2.2539-8.1177 3.25-12.305a7.9855 7.9855 0 00.51172-2.9922c0-.82665-.09028-2.1822-.25977-4.0215-.16947-1.8393-.25195-3.096-.25195-3.7656a41.775 41.775 0 011.7559-9.7832c1.8434-6.1999 2.7617-9.5061 2.7617-10.035zm-9.041 9.2695v16.807a27.201 27.201 0 01-6.2656 17.549 150.76 150.76 0 001.9961-15.289 70.819 70.819 0 014.2695-19.066zm74.975.76562c-14.877 16.536-24.322 24.81-28.334 24.824h-2.252v-3.0059l30.586-21.818zm-44.879 8.2617h4.7656v2.5098a25.994 25.994 0 01-5.0234 12.398c-3.3369 5.2658-5.9261 8.0704-7.7695 8.4121h-3.2578c-.15706-.82665-.50356-2.2232-1.0078-4.1328a23.56 23.56 0 01-.74804-3.3906 19.802 19.802 0 011.9961-6.0254 21.538 21.538 0 014.5469-5.5137c3.1496-2.8272 5.3242-4.2578 6.498-4.2578zm-43.145 3.5078c0 1.8352.16314 5.4716.48828 10.908.34306 5.4352.50391 9.4032.50391 11.912a30.867 30.867 0 01-.73828 8.0195h-3.0176l2.7637-30.84zm-11.043 15.029 3.5 26.594a57.254 57.254 0 007.7832-5.5254c1.8324 0 3.9196 2.673 6.2617 8.0215a35.749 35.749 0 013.5137 10.545v.24804a112.09 112.09 0 0130.586-10.035 7.7333 7.7333 0 011.0039 2.7598 7.8945 7.8945 0 01-1.5078 3.3906 15.177 15.177 0 00-1.4961 2.6328v.74414l.24805.25977a60.474 60.474 0 0020.566-9.7871 195.05 195.05 0 0118.799-11.523 68.43 68.43 0 01-17.299 14.541 116.02 116.02 0 00-18.801 14.801l3 .23828c8.0323-3.5105 13.968-6.1824 17.807-8.0176a88.7 88.7 0 01-12.793 11.279 29.053 29.053 0 01-13.789 6.5273h-2v-2.0098c.82665-1.1738 1.4052-2.0038 1.7441-2.5039a7.1671 7.1671 0 00-3.5098-1.5c-1.5045 0-2.6694 2.0056-3.4961 6.0176-.82665 4.497-1.843 7.0257-3.0293 7.5176a44.689 44.689 0 01-21.051 5.2656c-.33479 0-1.8479-.28416-4.5469-.87109a42.316 42.316 0 00-4.5059-.88868 1.9468 1.9468 0 00-1.752.75977 7.878 7.878 0 01-2.0078 2.7539 24.386 24.386 0 0015.049 4.5039 26.598 26.598 0 007.5215-.73828c15.541-7.0266 27.744-12.713 36.605-17.059a11.251 11.251 0 01-5.2578 6.0137c-3.8577 2.6701-5.9471 4.1782-6.2695 4.5254a10.746 10.746 0 012.0039 2c.82665 1.0044 1.504 1.7577 2 2.2578-4.3358 2.6742-8.6804 5.4302-13.041 8.2656a18.848 18.848 0 01-9.7734 3.2578 26.345 26.345 0 01-6.0273-.75586 13.45 13.45 0 01-3.4922 4.6406c-1.8434 1.7566-2.7734 3.1284-2.7734 4.1328 0 .50013.0947.74414.25586.74414h.25586a16.12 16.12 0 004.7617.7539 20.815 20.815 0 007.0273-1.7578c4.1718-1.3226 6.9342-2.1556 8.2871-2.5a22.886 22.886 0 01-9.7832 8.1543 29.917 29.917 0 01-13.545 4.6328h-1.5137a23.146 23.146 0 00.25586-3.5078 10.052 10.052 0 00-.25586-2.5098h-1.5078a24.44 24.44 0 01-11.531 2.0137 44.317 44.317 0 01-9.4043-1.0039 24.163 24.163 0 01-4.1328-1.0098c-.82665 0-2.1698 1.3353-4.0215 4.0137a17.062 17.062 0 0012.297 4.5137c4.8525.34719 7.5255 2.1885 8.0215 5.5254a23.915 23.915 0 019.7793-3.5 16.351 16.351 0 012.2578.24023 15.777 15.777 0 001.9961.25196 20.989 20.989 0 008.0312-1.2402c-.66959 2.0088-3.3469 4.0132-8.0312 6.0137a31.049 31.049 0 01-11.785 3.0215l-1.2012.0039c-1.1697-2.3394-2.0142-4.0996-2.502-5.2734a37.026 37.026 0 00-6.5254 4.2695 10.689 10.689 0 01-6.2578 2.752h-1.2734a20.017 20.017 0 01-4.248-2.752 3.1619 3.1619 0 01-2.7656 1.5078c-3.6731-.17359-6.5974-2.8466-8.7715-8.0215a29.301 29.301 0 01-2.7559-12.289v-2.5078a18.955 18.955 0 011.5039-7.0273 24.684 24.684 0 001.9961-5.7871 28.904 28.904 0 00-2.748-6.6465 40.766 40.766 0 01-2.7734-17.174c0-1.8352.33662-5.7624 1.0117-11.783a36.22 36.22 0 014.5098 14.537 61.941 61.941 0 002.7656 18.562 14.103 14.103 0 0014.289 10.031c.99612 0 1.838-.67427 2.5117-2.0176-5.6901-3.6676-8.5329-10.687-8.5273-21.059a39.2 39.2 0 011.75-10.791c1.3392-5.3443 3.1083-8.0195 5.2617-8.0195 2.0143 0 4.1441 2.1764 6.3926 6.5274 2.2526 4.3523 4.3938 6.5058 6.3984 6.5058 1.674 0 2.5059-.91115 2.5059-2.7422a23.431 23.431 0 00-2.8945-8.1582 23.146 23.146 0 01-2.8926-9.1465 14.099 14.099 0 011.7559-6.0234 36.691 36.691 0 01-3.0078-2.5078c-2.0088 3.8481-3.5049 6.692-4.5176 8.5312l3.5215-39.631zm-11.016 11.297a75.271 75.271 0 013.5059 20.324 31.826 31.826 0 01-1.4883 9.0176 27.222 27.222 0 01-3.0215-13.289v-.99023c0-2.5158.33432-7.5372 1.0039-15.063zm-9.5234 14.057a92.006 92.006 0 012.4805 20.068v1.2383a58.329 58.329 0 01-3.7578 21.58l-.48633-22.328v-3.0078a81.859 81.859 0 011.7637-17.551zm67.936 18.803c-3.0145.82665-5.4379 1.4103-7.2676 1.752a12.4 12.4 0 00-3.6523 1.7617 10.052 10.052 0 01-2.873 1.5h-11.797a4.8235 4.8235 0 00-2.3848 1.3809c-1.087.91759-1.6211 1.72-1.6211 2.373l2.5391.0039c1.8393 0 4.4765.08617 7.8906.25977 3.4141.17359 5.981.25195 7.6426.25195a28.288 28.288 0 0010.283-5.7656 13.115 13.115 0 001.2402-3.5176zm-86.75 27.09a39.526 39.526 0 013.3809 11.16 73.494 73.494 0 012.1328 13.928v11.541a55.737 55.737 0 01-6.7695-26.846c0 .16533.42093-3.1038 1.2559-9.7832zm31.082 48.652c.005556-.00061.012347 0 .017578 0 .33479 0 2.2927.21558 5.8887.6289 3.5959.41333 5.5597.61913 5.8945.61915a65.892 65.892 0 0012.037-.98829 32.653 32.653 0 01-17.547 6.2578l-1.0156-.00782c-4.5108 0-7.2673-.91678-8.2676-2.752 1.6478-2.4738 2.6422-3.7195 2.9922-3.7578z"/><path d="m169.57 18.302a3.9555 3.9555 0 011.24 3.2611 20.906 20.906 0 01-2.3684 8.7791 27.437 27.437 0 00-1.8393 5.0798h-3.8274z"/><path d="m209.26 6.7703v4.7781q0 .48772-13.098 18.186c-1.5665 2.1038-2.9305 3.9638-4.2159 5.708h-6.0924z"/><path d="m177.3 21.319a128.69 128.69 0 018.994-19.811v.49186a82.14 82.14 0 01-5.8734 14.797 57.138 57.138 0 00-5.861 17.306v.50012l.25626.25213a72.572 72.572 0 0012.222-14.545q8.994-14.541 13.226-20.311a118.51 118.51 0 01-11.986 23.82c-2.6412 4.6623-4.7491 8.5145-6.3694 11.602h-11.817a68.761 68.761 0 007.2084-14.103z"/><path d="m157.59 30.09v2.5089c0 .17773-.15293 1.1201-.47119 2.8272h-1.6037c.64479-1.7153 1.335-3.4885 2.0749-5.336z"/></g></svg>
