<svg data-author="YAXI GmbH" data-logo-id="renten" data-primary-color="#009966" data-maskable="true" version="1.1" viewBox="0 0 250 250" xmlns="http://www.w3.org/2000/svg"><path fill="#009966" d="m108.38 140.17 9.3931-9.3931-117.77-117.77v18.786zm-6.8642-140.17h-13.367v87.428l13.367 13.367zm-100.79 0 77.673 77.673v-77.673zm86.705 230.85-87.428-87.428v106.58h87.428zm0-32.876-87.428-87.428v18.786l87.428 87.428zm55.997 52.023h106.21v-106.21zm-32.153-139.45 13.367 13.367v-123.92h-13.367zm138.37.36127-139.09 139.09h18.786l119.94-119.94v-18.786h.36127zm-152.46 73.338 152.82-152.82v-18.786l-152.82 152.82zm-9.7543-18.786-87.428-87.428v18.786l87.428 87.428zm14.09-18.425-101.52-101.52v18.425l92.486 92.124 9.3931-9.3931h-.36127zm-4.3353 102.6 152.82-152.82v-18.786l-152.82 152.82zm83.815-182.08 67.558-67.558h-67.558zm-83.815 149.57 152.82-152.82v-18.786l-152.82 152.82zm60.694-126.45 13.367-13.367v-77.312h-13.367zm-23.483 23.483 13.367-13.367v-100.79h-13.367z"/></svg>
