<svg data-author="YAXI GmbH" data-logo-id="revolut" data-primary-color="#000000" data-maskable="true" version="1.0" viewBox="0 0 250 250" xmlns="http://www.w3.org/2000/svg"><path d="m25.515 249.82.89737.0408c.44868 0 10.85.0408 23.046.0408 14.97.0408 22.23-.12237 22.434-.40789.34752-62.501.20395-125.01.20395-187.51l-46.582-.20395zm.857-249.71-.85658.12237v19.987c0 14.643.12237 19.946.48948 19.987.24474 0 27.084.04079 59.594.08158 47.805.08158 59.553.20395 61.184.65264 7.9948 2.1211 13.42 5.2619 18.192 10.605 6.2816 6.975 9.0145 15.663 7.9132 25.33-.16316 1.4684-.3671 2.7737-.48947 2.9776-.0816.16316-.28553.81579-.36711 1.4276-.12237.61184-.73421 2.325-1.3461 3.8342-3.2632 7.7092-9.8303 14.195-17.662 17.336-5.6698 2.325-5.4658 2.2842-32.346 2.3658-26.269.0816-26.472.0816-26.921 1.9579-.12237.48947-.16316 9.2592-.12237 19.457l.12237 18.559 75.909 105.2h27.574c27.451.0408 27.574.0408 27.166-.775-.24473-.44869-.57105-.89737-.69342-1.0197l-73.992-102.91c-.0816-.44868.20395-.48947 3.9158-.85657 12.808-1.1829 27.044-7.2198 37.853-16.112 11.584-9.5448 20.68-23.821 24.27-38.179.16316-.69342.32632-1.4276.4079-1.6316.24474-.97895 1.0197-5.0579 1.3053-6.9342.3671-2.6513.3671-14.317 0-17.743-1.4276-12.849-7.0974-26.228-15.582-36.711-2.7737-3.3855-8.1171-8.8106-10.401-10.524-.81579-.61184-1.7132-1.3461-2.0395-1.6316-1.2237-1.1421-6.8119-4.7316-10.157-6.4856-8.9737-4.6908-18.478-7.4237-28.022-8.1171-3.5895-.28553-123.14-.48948-124.9-.24474z"/></svg>
