<svg data-author="YAXI GmbH" data-logo-id="rki" data-name="Ebene 3" data-primary-color="#a71921" data-maskable="true" version="1.1" viewBox="0 0 250 250" xmlns="http://www.w3.org/2000/svg"><path d="m124.99 0c-38.27 19.203-75.117 20.709-110.29 1.4512 2e-6 0-.84927 114.45 8.5195 145.3 20.952 69.062 92.561 99.552 101.82 103.25 9.317-3.727 80.872-34.244 101.8-103.25 9.3414-30.85 8.4648-145.3 8.4648-145.3-35.175 19.258-72.021 17.752-110.29-1.4512h-.02344zm-2.8789 22.574h5.7812v3.7246h3.4238v5.7812h-3.4238v2.3555c1.6984 1.0683 2.8203 2.9042 2.8203 5.041 0 .41088-.05451.84886-.13671 1.2598 1.6984-.38351 3.781-.74023 6.0273-.74023 3.3147 0 6.2731 1.4525 8.6016 3.8906 1.6984-.52046 4.6304-1.2598 8.0274-1.2598 6.6839 0 12.107 6.7651 12.107 14.463 0 7.6976-4.7672 14.792-4.9863 15.094h.05664c-.10957.13697-.2205.24784-.33008.35742-.68487 1.9998-.95881 4.1081-1.041 4.8203.16435.4383.24804.90344.24804 1.3691 0 8.0539-23.944 8.9316-34.244 8.9316h-2.1367c-12.683 0-26.655-1.7251-30.654-5.6699-1.2054-1.2053-1.4785-2.4398-1.4785-3.2891 0-.46569.081724-.95823.24609-1.3691-.08221-.7123-.35611-2.8751-1.0684-4.9023-.10958-.08218-.2186-.16581-.30078-.27539-.2192-.328-4.9863-7.1222-4.9863-15.094s5.4232-14.463 12.107-14.463c3.4243 0 6.3289.73928 8.0273 1.2598 2.3285-2.4107 5.3417-3.8906 8.6016-3.8906 1.9997 0 3.8622.24739 5.4785.60352-.05478-.35616-.10937-.73953-.10938-1.123 0-2.3285 1.3694-4.3283 3.3418-5.3145v-2.0547h-3.9707v-5.7812h3.9707v-3.7246zm-8.6836 23.174c-3.5612 0-7.3965 4.1371-7.3965 10.301 0 2.4655.6294 4.8772 1.4238 6.877.41089.27394.84875.57357 1.3144.92969 4.6022 3.3969 6.8496 4.6028 7.918 4.9863 1.7806-1.2875 4.1363-3.0684 5.4512-4.1094v-17.176c-.21915-.0274-.41171-.10923-.63086-.19141-.0548-.0274-3.7792-1.6172-8.0801-1.6172zm23.203.001953c-4.3009 0-8.082 1.6152-8.082 1.6152-.21915.08218-.4117.19141-.63086.19141v17.258c1.2328.9588 3.3692 2.5206 5.4512 4.0273 1.0957-.3836 3.3158-1.5894 7.918-4.9863.46567-.38351.90354-.65575 1.3145-.92969.79443-2.0272 1.4258-4.4115 1.4258-6.877 0-6.1635-3.8079-10.299-7.3965-10.299zm-39.818 2.6289c-3.0643.009931-6.3418 3.3769-6.3418 8.7383 0 3.7257 1.5896 7.4803 2.7676 9.7266 1.1231.2466 2.3003.87559 3.6426 1.6152 1.2054.6301 3.2615 1.726 4.4395 2.0273.52048-.7945 1.0678-2.603 1.3691-3.9727-1.2875-2.822-2.4375-6.4926-2.4375-10.465 0-2.5477.46518-4.9589 1.3418-7.0957-1.2841-.30055-2.9515-.57279-4.7812-.57422zm56.445.001953c-1.8244.002848-3.5121.2725-4.7656.57227.8766 2.1367 1.3418 4.5754 1.3418 7.0957 0 3.9726-1.2048 7.6432-2.4648 10.465.3013 1.3424.84866 3.1508 1.3692 3.9727 1.2054-.274 3.2595-1.3973 4.4375-2.0273 1.3423-.71229 2.5487-1.3706 3.6445-1.6172 1.1505-2.2464 2.7656-5.9716 2.7656-9.7246 0-5.4081-3.2677-8.7168-6.3281-8.7363zm-28.242 27.172c-14.601 0-23.833 1.7532-27.313 3.1777 3.534 1.5067 12.901 3.3969 27.256 3.1777 14.547 0 23.751-1.7806 27.285-3.1777-3.534-1.4245-12.71-3.1777-27.229-3.1777zm-49.932 5.8184c.64775.023359 1.2893.265 1.8047.73242l48.158 42.736 48.16-42.736c1.2054-1.041 3.041-.95725 4.082.24805 1.041 1.2053.92995 3.0117-.24805 4.0801l-3.8066 3.3711 2.793 3.1777-6.4102 5.6973 3.4238 3.8633 6.4121-5.6992 3.834 4.3555 4.6582 5.2871-4.3301 3.8359-4.6562-5.2871-3.918 3.4785 4.6582 5.2871-4.3281 3.8359-4.6582-5.2871-4 3.5605 4.6582 5.2871-4.3281 3.8359-6.6016-7.4238.05469-.05469-1.918-2.1641 5.998-5.3144-3.4238-3.8633-5.998 5.3144-2.7949-3.1777-22.957 20.381 13.342 11.834c1.4519-1.3149 3.671-1.3696 5.1777-.05469 1.2602 1.0958 1.5889 2.8215 1.041 4.2734l3.6699.41211c6.109.6848 12.356.32874 18.355-1.0684l3.9707-.93164c-.7123-1.3971-.54692-3.1228.52148-4.3555 1.4244-1.5888 3.8349-1.7546 5.4512-.33008l3.7246 3.3145c1.5888 1.4245 1.7546 3.8368.33008 5.4531-1.0684 1.2602-2.7942 1.6162-4.2461 1.0684l-.43945 4.0527c-.68481 6.136-.30146 12.356 1.123 18.355l.83789 3.5391c1.3632-.68721 3.0927-.5433 4.3125.54101 1.5888 1.4244 1.7546 3.8368.33008 5.4531l-3.3164 3.7246c-1.4245 1.5888-3.8349 1.7526-5.4512.32812-1.2602-1.0958-1.5889-2.8215-1.041-4.2734l-3.6699-.41015c-6.109-.6848-12.354-.32874-18.354 1.0684l-3.9727.93164c.7123 1.3971.54692 3.1228-.52148 4.3555-1.4244 1.5888-3.8349 1.7526-5.4512.32812l-3.7246-3.3144c-1.5888-1.4245-1.7546-3.8349-.33008-5.4512 1.0684-1.2602 2.7942-1.6162 4.2461-1.0684l.43946-4.0547c.6848-6.136.30145-12.354-1.123-18.354l-.84961-3.5898c-1.3697.71221-3.1228.57627-4.3555-.51953-1.5067-1.3149-1.672-3.5615-.54883-5.1504l-13.861-12.326-13.861 12.326c1.1505 1.5889.95982 3.8355-.54688 5.1504-1.2054 1.0958-2.9877 1.2592-4.3574.51953l-.84766 3.5898c-1.4519 5.999-1.8079 12.217-1.123 18.354l.4375 4.0547c1.4519-.5205 3.1777-.16434 4.2461 1.0684 1.4245 1.5889 1.2882 4.0267-.32812 5.4512l-3.7266 3.3144c-1.5889 1.4245-4.0267 1.2882-5.4512-.32812-1.0684-1.2328-1.2337-2.9858-.52148-4.3555l-3.9707-.93164c-5.999-1.4245-12.219-1.7806-18.355-1.0684l-3.6699.41015c.5479 1.4519.19168 3.1776-1.041 4.2734-1.5889 1.4245-4.0267 1.2882-5.4512-.32812l-3.3145-3.7246c-1.4245-1.5888-1.2882-4.0286.32813-5.4531 1.2054-1.0958 2.9858-1.2592 4.3555-.51953l.84961-3.5879c1.4519-5.999 1.8079-12.219 1.123-18.355l-.4375-4.0547c-1.4519.5205-3.1777.16434-4.2461-1.0684-1.4245-1.5889-1.2882-4.0267.32812-5.4512l3.7246-3.3144c1.5889-1.4245 4.0286-1.2882 5.4531.32812 1.0684 1.2328 1.2318 2.9877.51953 4.3574l3.9727.92968c5.999 1.4245 12.217 1.7806 18.354 1.0684l3.6719-.41015c-.5479-1.4519-.19169-3.1776 1.041-4.2734 1.5067-1.3423 3.7239-1.2602 5.1758.05469l13.342-11.834-22.955-20.381-2.7949 3.1777-6-5.3145-3.4238 3.8633 6 5.3144-1.918 2.1641.054688.05469-6.6016 7.4238-4.3281-3.8359 4.6562-5.2871-4-3.5606-4.6562 5.2871-4.3281-3.8359 4.6562-5.2871-3.918-3.4785-4.6562 5.2871-4.3281-3.8359 4.6562-5.2871 3.8359-4.3281 6.4102 5.6992 3.4238-3.8633-6.4102-5.6973 2.7949-3.1777-3.8086-3.3711c-1.2054-1.0683-1.3145-2.9021-.24609-4.0801.60092-.67801 1.4445-1.0105 2.2773-.98047zm.13281 67.766.30078 2.6035c.7671 6.794.35648 13.642-1.2324 20.326l-.49414 2.1094 2.1641-.24609c6.794-.767 13.644-.38377 20.328 1.1777l2.5469.60352-.30078-2.6035c-.7671-6.794-.35648-13.642 1.2324-20.326l.49414-2.1094-2.1641.24609c-6.794.767-13.644.38376-20.328-1.1777l-2.5469-.60351zm99.687.02734-2.5469.60352c-6.657 1.5615-13.534 1.9722-20.328 1.1777l-2.1641-.24609.49414 2.1094c1.5888 6.657 1.9995 13.505 1.2324 20.326l-.30078 2.6035 2.5469-.60351c6.657-1.5615 13.532-1.9722 20.326-1.1777l2.1641.24609-.49219-2.1094c-1.5888-6.657-1.9995-13.505-1.2324-20.326l.30078-2.6035z" fill="#a71921"/></svg>
