<svg xmlns="http://www.w3.org/2000/svg" fill="none" version="1.1" viewBox="0 0 250 250" data-logo-id="santander" data-primary-color="#ec0000" data-author="YAXI GmbH" data-maskable="true"><path d="m171.97 89.592-39.142-69.098c-2.9841-5.2697-5.047-10.916-6.1924-16.707l-1.6341 2.8876c-9.6879 17.104-9.6879 38.172-.002 55.276l31.315 55.281c9.6864 17.102 9.6864 38.174 0 55.277l-1.6364 2.8879c-1.1455-5.7902-3.2076-11.437-6.1924-16.706l-46.97-82.919c-2.9848-5.2697-5.0454-10.916-6.1924-16.707l-1.6341 2.8876c-9.6553 17.046-9.6848 38.031-.09545 55.105l31.408 55.451c9.6879 17.102 9.6879 38.174 0 55.278l-1.6364 2.8871c-1.1455-5.7902-3.2076-11.436-6.1924-16.705l-39.14-69.1c-5.25-9.2667-7.6492-19.699-7.2091-30.035-41.902 11.158-70.823 34.85-70.823 62.281 0 38.16 55.964 69.096 125 69.096 69.035 0 125-30.936 125-69.096 0-27.433-28.918-51.131-70.823-62.288-.37121-8.7356-2.7704-17.402-7.2083-25.236z" fill="#ec0000"/></svg>
