<svg data-author="YAXI GmbH" data-logo-id="seeliger" data-primary-color="#816949" data-maskable="true" version="1.1" viewBox="0 0 250 250" xmlns="http://www.w3.org/2000/svg"><path d="m50.08 211.56v-38.441l-1.9732-.0274c-1.0852-.0151-2.6822-.99798-3.5489-2.1842l-1.5757-2.1568h50.375l-2.0597 2.1842c-1.1328 1.2013-2.7801 2.1842-3.6608 2.1842h-1.6011v76.883h-35.956zm115.47 37.859c-.32156-.32034-.58465-17.423-.58465-38.005v-37.423h-1.1627c-1.1786 0-4.9763-3.5435-4.9763-4.6431 0-.32943 11.322-.59895 25.158-.59895h25.158l-2.5206 2.621c-1.3864 1.4416-3.0387 2.621-3.672 2.621h-1.1514v76.009h-17.832c-9.8075 0-18.095-.26211-18.417-.58246zm-115.44-95.303c.01195-4.2046-.87503-13.64-1.971-20.968l-1.9927-13.324h-2.1968v-7.7632l1.8804-3.175 1.8804-3.175-1.813-5.8852 3.3141-2.9879v-7.9334l-2.3566-2.4504-2.3565-2.4504h4.713v-9.6104l-4.8234-.05728-6.6997-7.8057h6.3162l.56024-1.529c.30814-.84091 1.2823-2.4666 2.1649-3.6125.88258-1.146 1.6047-3.21 1.6047-4.5868 0-1.3767.39463-2.5031.87699-2.5031.5048 0 .87333-2.6881.8684-6.3342l-.0085-6.3342-4.4237-9.4673 1.7859-1.7792-1.4859-1.6356-1.4859-1.6357.86898-1.3725c.47793-.75482 2.2372-1.813 3.9095-2.3515l3.0407-.97904.43849-3.4947.43848-3.4947h4.3849l.29514 2.5847c.16234 1.4216 1.2182 3.6776 2.3466 5.0135 1.1283 1.3358 2.5196 4.5126 3.0916 7.0596l1.0403 4.6308-2.7291 4.287c-1.501 2.3579-2.7266 5.0947-2.7236 6.0818.0021.98709.59493 2.9208 1.3155 4.2972.72054 1.3763 1.3101 3.0472 1.3101 3.7131 0 .66585.39464 1.2107.87698 1.2107.48234 0 .87699 1.0091.87699 2.2424 0 1.2334.98661 3.5311 2.1924 5.1061 1.2059 1.575 2.1924 3.318 2.1924 3.8733 0 .55529 1.2628 1.0096 2.8064 1.0096h2.8064l-1.0524-1.0484c-1.3047-1.2997-1.352-4.824-.11242-8.3665l.94002-2.6863-1.3984-2.1262c-.76913-1.1694-1.1499-2.7713-.84617-3.5598l.55222-1.4336h12.09l.0043-3.7132c.0043-4.7215 2.5752-8.9787 6.5681-10.876l3.0752-1.461v-2.0641c0-1.1352.9866-2.975 2.1924-4.0883 1.2059-1.1133 2.1924-2.4706 2.1924-3.0161 0-.54553.9866-.9919 2.1924-.9919h2.1924v-10.101l11.181-5.4982 11.182-5.4982 22.363 10.567v10.531h2.6309c1.447 0 2.6309.43469 2.6309.96597 0 .53129.98661 2.1341 2.1924 3.5617 1.2059 1.4276 2.2077 3.2536 2.2262 4.0577.0187.80404 1.2864 2.2482 2.8175 3.2093 1.531.96104 3.6864 3.0832 4.7896 4.7159l2.006 2.9686v6.731h11.456l.56147 1.4576c.30881.8017-.0112 2.4726-.71126 3.7131l-1.2727 2.2555 2.3042 6.8721-.86127 2.4612-.86126 2.4613h6.9246v-1.4028c0-.77155.98661-2.5709 2.1924-3.9986 1.2059-1.4276 2.1924-3.5485 2.1924-4.7129 0-1.1644.29855-2.1171.66345-2.1171.90591 0 2.8455-6.405 2.84-9.3782-.002-1.329-.97676-3.989-2.1651-5.911-1.1884-1.9221-2.1729-4.5264-2.1879-5.7874-.0377-3.1579 2.3997-9.7555 3.9164-10.601.6862-.38256 1.5106-2.0923 1.8321-3.7995.32146-1.7071 1.1316-3.3131 1.8004-3.5686 1.8776-.71781 4.0147 1.5523 3.5824 3.8055-.44557 2.3219 1.4888 4.3685 4.5375 4.8006 1.1566.16394 2.5213.96308 3.0325 1.7759l.92969 1.4778-1.4859 1.6357-1.4859 1.6356 1.8196 1.8127-4.4744 8.3835v6.8593c0 3.9904.3668 6.8593.87697 6.8593.48235 0 .87699 1.2158.87699 2.7016s.78928 3.7012 1.7539 4.923c.96469 1.2218 1.754 2.7581 1.754 3.4141v1.1926h3.0694c1.6882 0 3.0694.20501 3.0694.45557 0 .25055-1.039 2.0197-2.309 3.9315l-2.309 3.4759h-5.0288v9.6104h2.1924c1.2059 0 2.1924.32673 2.1924.72604s-.9866 1.252-2.1924 1.8949l-2.1924 1.169v9.1012l2.7794 2.298-.55328 3.6756-.55328 3.6756 1.7912 2.927c1.0594 1.7311 1.7926 4.444 1.7946 6.6401l.003 3.713h-2.3075l-1.9226 12.886c-1.0574 7.0877-1.9195 16.582-1.9157 21.099l.007 8.2122-8.0275-.56767c-4.4153-.31221-9.151-.56765-10.524-.56765h-2.4962v-3.7479c0-9.3321-5.8068-23.206-13.127-31.366-7.435-8.2872-19.1-14.952-30.881-17.645l-2.352-.5376-.55724 1.7491-.55723 1.7491h-13.699l-2.4064-3.4328-4.3849.94025c-6.0613 1.2997-15.744 5.9029-21.389 10.169-5.1937 3.9246-10.418 9.8354-13.85 15.668-3.2396 5.5071-6.1873 14.679-6.8873 21.43l-.61148 5.8973h-19.965l.02165-7.6447zm143.81-74.917v-4.8052h-135.94v9.6104h135.94zm-117.51 79.961c0-2.9226 4.1624-12.933 7.3759-17.738 6.5765-9.8346 16.822-17.457 28.142-20.936l6.1389-1.8867 7.8929.0287c4.3411.0158 9.6686.51961 11.839 1.1197 2.1706.60008 6.8616 2.4763 10.425 4.1694l6.4784 3.0783 13.53 13.361 3.1869 6.5525c1.7528 3.6039 3.4408 8.2234 3.751 10.266l.56419 3.7131h-6.9084l-1.1091-4.311c-.60998-2.3711-2.4846-6.5974-4.1657-9.392-7.5285-12.514-19.28-20.131-33.539-21.739-7.2272-.81458-16.634.9819-23.774 4.5404-10.389 5.1777-19.75 16.321-22.143 26.359l-1.083 4.5417h-6.6007v-1.7274z" fill="#816949"/></svg>
