<svg data-author="YAXI GmbH" data-logo-id="skb" data-primary-color="#006657" data-secondary-color="#6b6e6e" data-maskable="true" version="1.0" viewBox="0 0 250 250" xmlns="http://www.w3.org/2000/svg"><path d="m241.95 167.54c3.4808-9.2228 5.9198-18.979 7.1393-29.014h-248.22c1.2195 10.036 3.6332 19.792 7.1393 29.014" fill="#006657"/><path d="m151.95 1.6119h-53.939c-3.7857.81302-7.5459 1.8293-11.204 3.0489h76.373c-3.7095-1.2195-7.4188-2.2358-11.23-3.0489m57.401 29.93c-3.0489-2.7947-6.2247-5.4879-9.5276-7.9015h-149.7c-3.303 2.4136-6.5042 5.056-9.553 7.9015m192.89 30.057c-2.439-4.1667-5.0305-8.181-7.8507-11.992h-201.27c-2.8201 3.8111-5.4625 7.8253-7.8507 11.992m230.06 32.974c-1.5751-6.6058-3.6586-13.008-6.2247-19.08h-230.69c-2.5915 6.0722-4.6749 12.475-6.2501 19.08m245.15 9.9402c.96549 6.1993 1.4736 12.525 1.4736 18.979 0 2.3374-.10158 4.6749-.20325 7.0123h-249.64c-.1016-2.3374-.15245-4.6749-.15245-7.0123 0-6.4534.45737-12.78 1.3974-18.979m217.87 100.89c8.5367-9.8071 15.523-20.91 20.706-32.979h-229.98c5.183 12.068 12.221 23.171 20.757 32.979m184.91 3.9601c-22.79 23.984-55.057 39.025-90.627 39.025-35.672 0-67.887-15.041-90.678-39.025" fill="#6b6e6e"/></svg>
