<svg data-author="YAXI GmbH" data-logo-id="sozial" data-primary-color="#ea7600" data-maskable="true" version="1.1" viewBox="0 0 250 250" xmlns="http://www.w3.org/2000/svg"><path fill="#ea7600" d="m78.762 77.498c7.8059-7.5949 17.44-13.291 28.27-16.315l-29.887-51.688c-10.127 4.2194-19.62 9.7046-28.2 16.315l29.887 51.688zm92.478 94.934c-7.8059 7.5949-17.44 13.291-28.27 16.315l29.887 51.758c10.127-4.2194 19.62-9.7046 28.2-16.315l-29.887-51.688zm-94.095 68.01 29.887-51.758c-10.759-3.0239-20.464-8.7201-28.27-16.315l-29.887 51.688c8.5795 6.6104 18.073 12.096 28.2 16.315zm114.13-115.48c0 5.6259-.70324 11.111-2.0394 16.315h59.705c.70323-5.3446 1.0548-10.76 1.0548-16.315 0-5.5556-.35162-10.97-1.0548-16.315h-59.705c1.3361 5.2039 2.0394 10.689 2.0394 16.315zm-132.56 0c0-5.6259.70323-11.111 2.0394-16.315h-59.705c-.70323 5.3446-1.0549 10.759-1.0549 16.315 0 5.5556.35162 10.97 1.0549 16.315h59.705c-1.3361-5.2039-2.0394-10.689-2.0394-16.315zm114.14-115.47-29.887 51.758c10.759 3.0239 20.464 8.7201 28.27 16.315l29.887-51.688c-8.5795-6.6104-18.073-12.096-28.2-16.315z"/></svg>
