<svg data-author="YAXI GmbH" data-logo-id="sparkasse" data-primary-color="#ee0000" data-maskable="true" version="1.1" viewBox="0 0 250 250" xmlns="http://www.w3.org/2000/svg"><path d="m95.325 44.43c1.7122 3.8699 4.0046 7.2684 6.8799 10.196 2.8727 2.9297 6.2711 5.2221 10.196 6.8799 3.9218 1.6578 8.0947 2.4867 12.517 2.4867 4.419 0 8.5636-.82891 12.434-2.4867 3.8674-1.6578 7.2658-3.9502 10.196-6.8799 2.9271-2.9271 5.2221-6.3255 6.8799-10.196 1.6578-3.8673 2.4867-8.0119 2.4867-12.434 0-4.419-.82892-8.5636-2.4867-12.434-1.6578-3.8673-3.9528-7.2658-6.8799-10.196-2.9297-2.9271-6.3281-5.222-10.196-6.8799-3.8699-1.6578-8.0145-2.4867-12.434-2.4867-4.4216 0-8.5947.8289-12.517 2.4867-3.9243 1.6578-7.3228 3.9528-10.196 6.8799-2.8753 2.9297-5.1677 6.3281-6.8799 10.196-1.7148 3.8699-2.5696 8.0145-2.5696 12.434 0 4.4216.85481 8.5662 2.5696 12.434zm-64.074 186.01c1.6578 3.8699 3.9502 7.2684 6.8799 10.196 2.9271 2.9297 6.3255 5.2221 10.196 6.8799 3.8673 1.6578 8.0119 2.4867 12.434 2.4867h128.48c4.419 0 8.5921-.8289 12.517-2.4867 3.9217-1.6578 7.3202-3.9502 10.196-6.8799 2.8727-2.9271 5.1392-6.3255 6.797-10.196 1.6578-3.8674 2.4867-8.0119 2.4867-12.434v-70.622h-147.71v-19.231h147.71v-12.765c0-4.419-.82889-8.5636-2.4867-12.434-1.6578-3.8673-3.9244-7.2658-6.797-10.196-2.8753-2.9271-6.2737-5.2221-10.196-6.8799-3.9244-1.6578-8.0973-2.4867-12.517-2.4867h-128.48c-4.4216 0-8.5662.82889-12.434 2.4867-3.8699 1.6578-7.2684 3.9528-10.196 6.8799-2.9297 2.9297-5.2221 6.3281-6.8799 10.196-1.6578 3.87-2.4867 8.0145-2.4867 12.434v70.622h147.38v19.231h-147.38v12.765c0 4.4216.8289 8.5662 2.4867 12.434z" fill="#e00"/></svg>
