<svg data-author="YAXI GmbH" data-logo-id="suedtiroler" data-primary-color="#e2001a" data-maskable="true" version="1.1" viewBox="0 0 250 250" xmlns="http://www.w3.org/2000/svg"><path d="m0 0v250h250v-250zm5.043 4.9922h239.9v120.01h-49.803c3.6676-2.468 5.635-4.2387 8.5059-7.5644l-25.25-20.119c-.63804-.91176-.79739-1.8231 0-2.5742.79739-.8051 2.0196-.32091 2.0723-.26758l25.676 20.547-.0547-.0566c4.8904-5.3652 9.3552-11.481 13.023-17.65l-29.715-13.145c-.90405-.48255-1.1699-1.5551-.47851-2.5742.47869-.75113 1.3296-1.1265 2.127-.69726l29.715 13.143c3.2423-6.1697 6.1131-12.767 8.5586-19.742l-32.586-5.7402c-.63804-.16128-1.3812-.75041-1.0625-2.3066.26601-1.287 1.4868-1.4485 1.9121-1.3945l32.586 6.1699c2.0201-6.169 3.2446-12.768 3.6699-19.742h-33.385c-.42536 0-1.8066-.32197-1.8066-1.7168 0-.91202.95592-1.6094 1.8066-1.6094h33.809v-25.912h-42.734v21.617c.37203 27.093-14.724 46.299-36.307 56.17-3.6683 1.6089-6.1133 2.0371-6.1133 2.0371s-1.5422.48432-2.127-.75c-.37204-.75113.16023-1.6639.90429-2.1465 0 0 2.0193-.85701 4.4648-1.6621 18.34-7.0275 33.383-25.913 35.031-45.227.3957-2.6952.47023-24.658.47851-30.039h-20.363c-4.4656 0-8.1328 3.7003-8.1328 8.207l.42578 29.99c0 4.1308-4.4661 7.4023-7.7617 7.4023v-4.5059h4.4648l-4.8906-12.34 4.8906-1.6621-7.7617-10.676 3.2441-2.8965-12.229-6.5996 2.4453-4.5059-23.602.42773c-5.9538.32191-6.538 1.6644-8.1328 4.5078-.42536 1.2339-.7973 2.4672-1.2227 3.7012-5.3157.42915-10.207 1.2338-13.822 5.7402-2.4449 3.2725-3.2427 6.9737-2.4453 11.48 0 .42922.42526 1.2344 1.2227 1.2344.79739 0 1.2227-1.2343 1.2227-2.0391.79739-3.2725 4.4661-4.9355 7.709-5.7402 2.4449-.42915 5.3158-.42868 7.3359.42969 2.4449 1.6631 3.2422 3.4873 3.2422 5.1504h-10.154c2.4455 2.0387 4.8924 5.9538 7.3379 8.4219-1.6481 3.2725-3.244 6.6006-4.4668 9.873h-8.1328c-4.4657 0-8.5586-4.1324-8.5586-8.6387v-28.754c0-4.5065-3.6672-8.209-8.1328-8.209h-15.309c.0079 5.2868.08147 27.389.47852 30.094 1.6481 19.313 16.691 38.198 35.031 45.227 2.4455.80446 4.4648 1.6621 4.4648 1.6621 1.0101.42922 1.3826 1.1272 1.1172 1.9316-.58472 1.5023-2.3379.96484-2.3379.96484v-.10742s-2.447-.4295-6.1152-2.0391c-21.582-9.8713-36.679-29.078-36.307-56.17v-21.562h-47.951v25.482l33.809.42969c1.2758 0 1.5953.53548 1.6484 1.6621 0 1.3948-.85104 1.6104-1.6484 1.6641h-33.383c.42523 6.9741 1.648 13.573 3.668 19.742l32.586-6.1699c.79733 0 1.7537.000337 2.0195 1.502.31896 1.6096-.42526 1.9866-1.2227 2.2012-.26575.05333-32.586 5.7383-32.586 5.7383 2.4453 6.9748 4.8906 13.574 8.5586 19.744l29.717-13.145c.79739-.42922 1.7531-.26824 2.3379.91211.85053 1.6629-.26416 2.1455-.68945 2.4141l-29.717 13.145c3.668 6.1697 8.1324 12.339 13.023 17.65l25.676-20.549c.42536-.42921 1.5416-.53617 2.1797.32227.90405 1.127.26656 2.147-.10547 2.5762l-25.25 20.117c2.8706 3.2724 4.9956 5.0964 8.5039 7.5644h-48.75zm112.28 30.684h11.377v.80469h-2.8184c0 1.6631-1.5941 2.4688-3.2422 2.4688-1.6475 0-2.8711-.80566-2.8711-2.4688h-2.4453zm51.99 69.383c.66769.00031 1.0361.54867 1.3281.84375l14.354 19.098v.10742h-4.4141l-12.811-17.113c-.3187-.8051-.63762-1.8237.42578-2.5215.44857-.3016.81369-.41421 1.1172-.41407zm-84.043.14258c.30844.006.66002.11085 1.0586.37891 1.2228.85843.90507 1.6643.37305 2.4688l-12.758 17.059-4.4668-.10742 14.354-19.045c.29244-.29509.76088-.76619 1.4395-.75391zm15.076 6.7207c.23761-.0118.49391.0317.75977.15234 1.1694.48319 1.2752 1.2873 1.0625 2.0918l-4.3066 10.783h-3.6133l4.6777-12.018c.15903-.44239.70709-.97444 1.4199-1.0098zm53.961.14062c.54515-.0155.89072.3027 1.2363.86914l4.7324 12.178-.0547-.0527h-3.666l-4.3066-10.891c-.26601-1.2337.79836-1.8245 1.6484-2.0391.14951-.0402.28435-.0609.41016-.0644zm-116.19 28.551c3.1896 0 5.4766 2.3082 5.4766 5.5273 0 3.2185-2.287 6.0078-5.4766 6.0078-3.1896 0-5.9531-2.7893-5.9531-6.0078 0-3.2191 2.7636-5.5273 5.9531-5.5273zm56.988 0c3.1896 0 5.4766 2.3082 5.4766 5.5273 0 3.2185-2.287 6.0078-5.4766 6.0078-3.1896 0-5.9531-2.7893-5.9531-6.0078 0-3.2191 2.7636-5.5273 5.9531-5.5273zm59.91 0c3.1896 0 5.4766 2.3082 5.4766 5.5273 0 3.2185-2.287 6.0078-5.4766 6.0078-3.1896 0-5.9531-2.7893-5.9531-6.0078 0-3.2191 2.7636-5.5273 5.9531-5.5273zm57.25 0c3.1896 0 5.4766 2.3082 5.4766 5.5273 0 3.2185-2.287 6.0078-5.4766 6.0078-3.1896 0-5.9531-2.7893-5.9531-6.0078 0-3.2191 2.7636-5.5273 5.9531-5.5273zm-184.99.42969h2.2852v5.0957c0 1.8775.42643 3.7027 1.8086 5.0977v-.0547c.90367.96574 2.2852 1.8789 2.2852 1.8789v12.928c0 .48255-.47908 1.3945-1.3828 1.3945h-2.7637v8.7988h-2.2852v-8.7988h-4.0938c-.90367 0-1.808-1.3941-.9043-2.7891l8.7188-10.623s-3.668-2.3062-3.668-7.832zm19.084 0h2.2852v5.0957c0 5.5258-3.668 7.832-3.668 7.832l8.7188 10.623c.90373 1.395-.000629 2.7891-.9043 2.7891h-4.0918v8.7988h-2.2871v-8.7988h-2.7637c-.90373 0-1.3828-.91198-1.3828-1.3945v-12.928s1.3834-.91317 2.2871-1.8789v.0547c1.3822-1.395 1.8066-3.2202 1.8066-5.0977zm37.902 0h2.2852v5.0957c1e-6 1.8775.42649 3.7027 1.8086 5.0977l.05273-.0547c.90405.96574 2.2852 1.8789 2.2852 1.8789v12.928c0 .48255-.47745 1.3945-1.3809 1.3945h-2.7656v8.7988h-2.2852v-8.7988h-4.1465c-.90405 0-1.8077-1.3941-.9043-2.7891l8.7188-10.623s-3.668-2.3062-3.668-7.832zm19.086 0h2.2852v5.0957c0 5.5258-3.668 7.832-3.668 7.832l8.7188 10.623c.90341 1.395-.00024 2.7891-.9043 2.7891h-4.0938v8.7988h-2.2852v-8.7988h-2.7656c-.90336 0-1.3809-.91198-1.3809-1.3945v-12.928s1.3811-.91317 2.2852-1.8789v.0547c1.3821-1.395 1.8086-3.2202 1.8086-5.0977zm40.773 0h2.2852v5.0957c0 1.8775.42453 3.7027 1.8066 5.0977v-.0547c.90405.96574 2.2871 1.8789 2.2871 1.8789v12.928c0 .48255-.4794 1.3945-1.3828 1.3945h-2.7637v8.7988h-2.2852v-8.7988h-4.0938c-.90406 0-1.8077-1.3941-.9043-2.7891l8.7188-10.623s-3.668-2.3062-3.668-7.832zm19.137 0h2.2852v5.0957c0 5.5258-3.668 7.832-3.668 7.832l8.7188 10.623c.90405 1.395-.00089 2.7891-.9043 2.7891h-4.0918v8.7988h-2.2871v-8.7988h-2.7637c-.90341 0-1.3828-.91198-1.3828-1.3945v-12.928s1.3818-.91317 2.2852-1.8789v.0547c1.3821-1.395 1.8086-3.2202 1.8086-5.0977zm38.113 0h2.2852v5.0957c0 1.8775.42649 3.7027 1.8086 5.0977v-.0547c.90341.96574 2.2852 1.8789 2.2852 1.8789v12.928c0 .48255-.47876 1.3945-1.3828 1.3945h-2.7637v8.7988h-2.2852v-8.7988h-4.0938c-.90341 0-1.8084-1.3941-.9043-2.7891l8.7188-10.623s-3.668-2.3062-3.668-7.832zm19.137 0h2.2852v5.0957c0 5.5258-3.668 7.832-3.668 7.832l8.7188 10.623c.90341 1.395-.00089 2.7891-.9043 2.7891h-4.1465v8.7988h-2.2852v-8.7988h-2.7637c-.90406 0-1.3828-.91198-1.3828-1.3945v-12.928s1.3817-.91317 2.2852-1.8789l.0547.0547c1.3821-1.395 1.8066-3.2202 1.8066-5.0977zm-184.67 13.406h4.1465v4.6152h-4.1465zm56.986 0h4.0938v4.6152h-4.0938zm59.914 0h4.0938v4.6152h-4.0938zm57.25 0h4.0938v4.6152h-4.0938zm-174.15 7.4102h4.1465v4.1308h-4.1465zm56.986 0h4.0938v4.1308h-4.0938zm59.914 0h4.0938v4.1308h-4.0938zm57.25 0h4.0938v4.1308h-4.0938zm-178.72 7.4004h13.291c0 3.7017-2.7654 6.4902-6.4336 6.4902-3.6682 0-6.8574-2.7886-6.8574-6.4902zm56.988 0h13.289c0 3.7017-2.7634 6.4902-6.4316 6.4902-3.6676 0-6.8574-2.7886-6.8574-6.4902zm59.91 0h13.289c0 3.7017-2.7634 6.4902-6.4316 6.4902-3.6676 0-6.8574-2.7886-6.8574-6.4902zm57.25 0h13.291c0 3.7017-2.7653 6.4902-6.4336 6.4902-3.6683 0-6.8574-2.7886-6.8574-6.4902zm-138.85 7.1367c3.1896 0 5.4746 2.3069 5.4746 5.5254 0 3.2191-2.285 6.0098-5.4746 6.0098-3.1897 0-5.9551-2.7906-5.9551-6.0098 0-3.2185 2.7654-5.5254 5.9551-5.5254zm117.01 0c3.1889 0 5.4746 2.3069 5.4746 5.5254 0 3.2191-2.2857 6.0098-5.4746 6.0098-3.1896 0-5.9551-2.7906-5.9551-6.0098 0-3.2185 2.7655-5.5254 5.9551-5.5254zm-127.9.42969h2.2852v5.0957c0 1.8781.42649 3.7027 1.8086 5.0976.90373.91241 2.2852 1.8242 2.2852 1.8242v12.928c0 .48255-.47914 1.3965-1.3828 1.3965h-2.7637v8.7969h-2.2852v-8.7969h-4.0938c-.90373 0-1.808-1.3961-.9043-2.791l8.7188-10.623s-3.668-2.3062-3.668-7.832zm19.137 0h2.2852v5.0957c0 5.5258-3.668 7.832-3.668 7.832l8.7188 10.623c.90341 1.395-.000243 2.791-.9043 2.791h-4.1465v8.7969h-2.2852v-8.7969h-2.7637c-.90405 0-1.3828-.91394-1.3828-1.3965v-12.928s1.3817-.91181 2.2852-1.8242h.05469c1.3821-1.395 1.8066-3.2195 1.8066-5.0976zm97.863 0h2.2852v5.0957c0 1.8781.42585 3.7027 1.8086 5.0976.90341.91241 2.2852 1.8242 2.2852 1.8242v12.928c0 .48255-.4794 1.3965-1.3828 1.3965h-2.7637v8.7969h-2.2871v-8.7969h-4.0918c-.90341 0-1.8084-1.3961-.90429-2.791l8.7188-10.623s-3.668-2.3062-3.668-7.832zm19.137 0h2.2852v5.0957c0 5.5258-3.666 7.832-3.666 7.832l8.7168 10.623c.90341 1.395-.00024 2.791-.90429 2.791h-4.0918v8.7969h-2.2871v-8.7969h-2.7637c-.90341 0-1.3828-.91394-1.3828-1.3965v-12.928s1.383-.91181 2.2871-1.8242c1.3821-1.395 1.8066-3.2195 1.8066-5.0976zm-127.53 13.414h4.0938v4.6133h-4.0938zm117 0h4.0938v4.6133h-4.0938zm-55.652 3.5371c3.1896 0 5.4766 2.3069 5.4766 5.5254 0 3.2191-2.287 6.0098-5.4766 6.0098s-5.9531-2.7906-5.9531-6.0098c0-3.2185 2.7636-5.5254 5.9531-5.5254zm-10.896.42969h2.2852v5.0957c0 1.8782.42649 3.7027 1.8086 5.0977.90405.91241 2.2852 1.8223 2.2852 1.8223v12.93c0 .48255-.4794 1.3945-1.3828 1.3945h-2.7637v8.7988h-2.2852v-8.7988h-4.0938c-.90405-1e-5-1.8077-1.3941-.90429-2.7891l8.7188-10.623s-3.668-2.3062-3.668-7.832zm19.137 0h2.2852v5.0957c0 5.5258-3.668 7.832-3.668 7.832l8.7188 10.623c.90341 1.395-.00024 2.789-.90429 2.7891h-4.0938v8.7988h-2.2852v-8.7988h-2.7637c-.90341 0-1.3828-.91199-1.3828-1.3945v-12.93s1.383-.90986 2.2871-1.8223c1.3821-1.395 1.8066-3.2195 1.8066-5.0977zm-69.588 3.4336h4.0938v4.1309h-4.0938zm117 0h4.0938v4.1309h-4.0938zm-121.57 7.4004h13.291c0 3.7017-2.7653 6.4922-6.4336 6.4922-3.668 0-6.8574-2.7905-6.8574-6.4922zm117 0h13.291c0 3.7017-2.764 6.4922-6.4316 6.4922-3.6683 0-6.8594-2.7905-6.8594-6.4922zm-53.369 2.5781h4.1465v4.6152h-4.1465zm0 7.4004h4.1465v4.1309h-4.1465zm-4.5684 7.4024h13.291c0 3.7017-2.7653 6.4922-6.4336 6.4922-3.6676 0-6.8574-2.7905-6.8574-6.4922z" fill="#e2001a"/></svg>
