<svg xmlns="http://www.w3.org/2000/svg" version="1.1" viewBox="0 0 250 250" data-logo-id="syd" data-primary-color="#002c5c" data-author="YAXI GmbH" data-maskable="true"><path d="m125 0c-69.033 0-125 55.967-125 125 0 69.033 55.967 125 125 125 69.033 0 125-55.967 125-125 0-69.033-55.967-125-125-125zm-5.9719 36.416c33.896 0 54.825 10.24 54.825 10.24v28.008h-14.053l-4.7121-17.822c0-.03418-13.334-4.3259-30.839-4.3259-21.226 0-34.688 4.2327-34.688 25.58 0 30.024 49.267 25.03 77.441 42.862l-.0343.0439c15.898 10.015 21.724 21.46 21.797 43.432 0 41.782-29.648 49.146-68.604 49.146-27.822.0635-57.392-12.656-57.392-12.656v-31.948h14.009l4.3745 20.576s17.637 8.0767 37.369 8.0767c23.779-.0635 41.855-4.3113 39.858-33.862-1.1133-16.445-10.17-22.803-41.811-31.231-40.859-10.898-55.327-21.714-55.327-51.758 0-30.044 23.96-44.355 57.788-44.36z" fill="#002c5c"/></svg>
