<svg data-author="YAXI GmbH" data-logo-id="targo" data-primary-color="#002c57" data-secondary-color="#c20831" data-maskable="true" version="1.1" viewBox="0 0 250 250" xmlns="http://www.w3.org/2000/svg"><path fill="#c20831" d="m93.571 32.472c-.5811-17.365 13.013-31.874 30.353-32.455 17.365-.56874 31.886 13.038 32.468 30.378.5811 17.365-13.038 31.886-30.366 32.449-17.359.57492-31.874-13.032-32.455-30.372z"/><path fill="#7599bd" d="m139.82 133.7c7.7521 7.783 19.127 8.123 26.261 1.0015l53.536-53.536c6.9918-7.1278 6.6765-18.626-.97675-26.286-7.6656-7.6594-19.306-8.086-26.286-.97674l-53.536 53.536c-7.1278 7.1278-6.6765 18.564 1.0015 26.261zm-29.66.04c-7.7521 7.783-19.127 8.1292-26.261.9953l-53.536-53.536c-6.9918-7.1278-6.6827-18.62.97674-26.279 7.6594-7.6656 19.3-8.086 26.279-.97674l53.536 53.536c7.1278 7.1216 6.6827 18.564-.99529 26.261z"/><path fill="#002c57" d="m220.43 243.98c-7.7521 7.783-19.257 8.0118-26.539.72329l-54.71-54.71c-7.1463-7.2761-6.967-18.898.69855-26.558 7.6656-7.6594 19.43-7.9623 26.564-.69237l54.698 54.698c7.2823 7.2823 6.9547 18.843-.71093 26.539zm-190.86 0c7.7521 7.783 19.251 8.0118 26.533.72329l54.704-54.71c7.1463-7.2761 6.967-18.898-.69856-26.558-7.6532-7.6594-19.417-7.9623-26.551-.69237l-54.71 54.698c-7.2761 7.2823-6.9547 18.843.72329 26.539z"/></svg>
