<svg xmlns="http://www.w3.org/2000/svg" version="1.1" viewBox="0 0 250 250" data-logo-id="ten31" data-primary-color="#08182e" data-author="YAXI GmbH" data-maskable="true"><path d="m118.48 90.658 45.919-76.439h-151.39v44.312h73.093l-39.869 66.469h33.224c19.576 0 35.439 14.712 35.439 33.234s-15.862 33.234-35.439 33.234c-17.299 0-39.16-8.8625-55.75-29.091l-23.7 39.482c22.216 21.403 50.811 33.921 79.45 33.921 43.969 0 79.737-34.785 79.737-77.547-.0831-13.885-3.912-27.49-11.078-39.382-7.1592-11.893-17.4-21.633-29.634-28.194zm82.089-76.439-26.58 44.312h31.718v137.37l44.299-73.758v-107.92z" fill="#08182e"/></svg>
