<svg data-author="YAXI GmbH" data-logo-id="tomorrow" data-primary-color="#ff8454" data-maskable="true" version="1.1" viewBox="0 0 250 250" xmlns="http://www.w3.org/2000/svg"><path d="m85.299 91.638v-.2024c-3.4563-7.2188-4.4942-11.687-4.4942-21.522v-57.896l7.608.41517c5.3973.61757 13.56 11.344 19.514 19.872l1.7282-.34771-3.9441-21.932h-65.935l-4.0168 21.932 1.7334.34771c5.9474-8.5267 14.043-19.254 19.373-19.877l7.8156-.40998v57.896c0 9.8344-1.1054 14.302-4.6343 21.522v.20759zm155.77 109.41c4.9302 0 8.9263-3.9701 8.9263-8.8692 0-4.899-3.996-8.8744-8.9263-8.8744-4.9302 0-8.9263 3.9753-8.9263 8.8796 0 4.9043 3.996 8.8744 8.9263 8.8744zm-83.451-1.5828 14.11 39.815h3.0463l14.25-37.132 12.797 37.132h3.0463l14.738-39.4c3.0412-7.769 5.2572-11.002 9.2013-15.127v-.20759h-12.937v.20759c1.9358 2.4755 3.9441 8.3866.89781 16.436l-6.8504 18.081-6.5027-20.214c-2.1434-6.6687-1.5932-11.967.14011-14.302v-.20759h-22.902v.20759c2.6987 2.6831 4.4942 5.7087 7.4004 14.375l-8.0959 20.832-6.8504-20.972c-2.1434-6.2588-1.4531-11.967.20759-14.302v-.20758h-23.25v.27505c2.8439 3.0256 4.5046 6.3937 7.5458 14.712zm-35.253-14.365c9.8967 0 14.25 11.962 14.25 26.468 0 14.65-4.3593 26.338-14.25 26.338-9.9642 0-14.116-11.687-14.116-26.333 0-14.51 4.2918-26.478 14.116-26.478zm0 54.866c16.192 0 29.405-13.27 29.405-28.466 0-15.262-13.353-28.673-29.405-28.673-16.052 0-29.405 13.41-29.405 28.673 0 15.195 13.145 28.471 29.405 28.471zm-66.942-1.6504h19.514v-.20759c-2.1486-5.7087-2.5637-11.069-2.5637-20.557v-19.529c2.1434-2.543 4.4994-3.9857 6.2951-3.9857 2.6987 0 8.3035 2.1278 10.659 4.8108h.55011l1.0379-15.954c-8.4385-.34251-14.25 8.1166-18.891 13.067h-.13493v-13.685l-19.166 6.1238v.2024c3.2487 3.9182 5.2572 8.2516 5.2572 15.954v12.922c0 9.8345-.76288 14.717-2.5585 20.562zm103.51-73.631h19.514v-.20759c-2.1486-5.7087-2.5637-11.069-2.5637-20.557v-19.529c2.1486-2.543 4.4994-3.9908 6.3003-3.9908 2.6987 0 8.3035 2.133 10.654 4.816h.5553l1.0379-15.954c-8.4437-.34253-14.256 8.1114-18.891 13.062h-.14012v-13.68l-19.166 6.1186v.20759c3.2539 3.9182 5.2572 8.2516 5.2572 15.948v12.927c0 9.8344-.7577 14.717-2.5585 20.562zm-36.572-53.221c9.8967 0 14.25 11.967 14.25 26.473 0 14.645-4.3593 26.338-14.25 26.338-9.9642 0-14.116-11.692-14.116-26.338 0-14.505 4.2192-26.468 14.116-26.468zm0 54.871c16.192 0 29.405-13.27 29.405-28.466 0-15.262-13.353-28.673-29.405-28.673s-29.405 13.41-29.405 28.673c0 15.195 13.145 28.466 29.405 28.466zm-100.29-1.6504v-.20759c-2.1486-5.7087-2.5637-11.069-2.5637-20.557v-21.32c2.5585-3.9857 6.3677-5.9163 10.312-5.9163 5.7398 0 7.5406 4.2659 7.5406 9.2895v18.081c0 9.1442-.41517 14.712-2.5637 20.422v.20759h19.514v-.20759c-2.1434-5.7087-2.6987-10.929-2.6987-20.629v-21.247c1.1157-1.7957 2.6727-3.2799 4.5254-4.3126 1.8528-1.0327 3.9389-1.588 6.0616-1.5984 5.745 0 7.4056 4.2607 7.4056 9.2844v18.081c0 9.1442-.41517 14.712-2.5637 20.422v.20759h19.514v-.20759c-2.1434-5.7087-2.5585-10.929-2.5585-20.629v-19.664c0-9.3518-5.1897-14.92-14.598-14.92-8.096 0-13.84 4.6084-17.713 10.519h-.20759c-1.3181-6.6687-6.1602-10.519-14.256-10.519-8.096 0-13.908 4.6084-17.645 10.519l-.41517-.13493v-11.002l-19.166 6.1186v.20759c3.2539 3.9182 5.2624 8.2516 5.2624 15.948v12.927c0 9.8344-.76288 14.717-2.5637 20.562v.20759h19.373zm100.35-126.19c9.8915 0 14.25 11.962 14.25 26.468 0 14.645-4.3593 26.338-14.25 26.338-9.9642 0-14.116-11.692-14.116-26.338-.0675-14.505 4.2192-26.468 14.116-26.468zm0 54.866c16.192 0 29.405-13.27 29.405-28.466 0-15.262-13.353-28.673-29.405-28.673-16.052 0-29.477 13.41-29.477 28.673 0 15.195 13.145 28.466 29.477 28.466z" fill="#ff8454"/></svg>
