<svg xmlns="http://www.w3.org/2000/svg" version="1.1" viewBox="0 0 250 250" xml:space="preserve" data-logo-id="triodos" data-primary-color="#00937b" data-author="YAXI GmbH" data-maskable="true"><path d="m250 130.78c0-33.379-12.262-64.714-34.741-89.237-11.58-12.262-24.523-22.48-39.51-29.973l-3.406 5.4496c8.1744 4.7684 15.668 10.899 22.48 17.711 23.161 23.842 36.104 55.177 36.785 88.556 0 4.7684 0 12.943-.68119 19.755-4.0872-14.305-11.58-27.248-21.798-38.147-3.406-4.0872-6.812-7.4932-11.58-9.5368-.6812 10.218-2.7248 20.436-5.4496 30.654 4.0872 2.7248 7.4932 6.1308 10.899 9.5368 8.8556 8.1744 14.305 19.755 14.986 32.016 0 6.1308-2.7248 12.262-7.4932 16.349-6.812 5.4496-14.986 8.1744-23.842 8.1744-12.943-.6812-25.886-4.7684-36.785-12.262 17.03-17.03 29.292-38.147 34.741-61.308 2.7248-10.218 4.0872-20.436 4.0872-31.335 0-17.711-4.0872-35.422-12.943-51.09-11.58-21.798-34.06-35.422-58.583-35.422-30.654.6812-59.946 14.305-80.381 36.785-23.161 22.48-36.785 53.815-36.785 86.512 0 5.4496 0 10.899.68119 16.349h6.1308c0-32.698 12.943-63.351 36.785-85.831 12.262-11.58 25.886-21.798 41.553-28.61-10.899 10.218-18.392 23.842-22.48 38.147-1.3624 4.7684-2.0436 9.5368-2.0436 14.305 9.5368-4.7684 19.074-8.1744 29.292-10.218 1.3624-14.305 7.4932-27.248 17.03-38.147 4.7684-4.7684 10.899-8.1744 17.711-8.1744 10.899.6812 20.436 7.4932 25.204 17.03 6.1308 11.58 8.8556 25.204 7.4932 38.147-23.161-7.4932-47.684-7.4932-70.845 0-19.755 4.7684-37.466 14.986-51.771 29.292-14.986 14.305-23.842 33.379-25.204 53.815.6812 20.436 9.5368 39.51 24.523 53.134 24.523 23.161 56.54 36.785 90.599 36.104 26.567 0 51.771-8.1744 73.569-23.161l-1.3624-4.0872c-17.03 9.5368-36.104 14.305-55.858 14.305-29.973.6812-58.583-8.8556-82.425-26.567 6.1308 2.0436 12.943 3.406 19.755 3.406 12.943 0 25.886-2.7248 37.466-8.1744-8.8556-6.1308-17.03-12.943-23.842-20.436-8.8556 3.406-19.074 6.1308-28.61 6.1308-9.5368.68119-18.392-2.7248-25.204-8.8556-4.0872-4.0872-6.1308-9.5368-6.1308-15.668.6812-11.58 6.1308-23.161 14.986-30.654 5.4496-6.1308 12.262-10.899 19.755-14.305 6.1308 23.161 18.392 44.959 35.422 61.989 19.755 20.436 47.003 32.698 75.613 34.06 18.392.6812 36.104-6.1308 49.046-18.392 14.986-19.074 23.161-43.597 23.161-68.12m-94.687-20.436c-6.1308 19.074-17.03 36.104-31.335 50.409-13.624-14.986-22.48-32.698-27.248-52.452 8.1744-2.0436 16.349-2.7248 24.523-2.7248 11.58 0 23.161 2.0436 34.06 4.7684" fill="#00937b"/></svg>
