<svg xmlns="http://www.w3.org/2000/svg" version="1.1" viewBox="0 0 250 250" data-logo-id="umwelt" data-primary-color="#077d66" data-author="YAXI GmbH" data-maskable="true"><path d="m221.48 188.03c0-81.816-62.886-110.34-95.379-120.96l-28.498-9.3064-24.608 7.344c-.38978.12763-.78639.24074-1.1762.35447-16.388 4.9189-30.517.12072-37.347-10.128-3.4222-2.4875-5.4138-4.2952-5.3355-3.8985 3.925 21.2 21.546 38.756 42.356 44.859l54.047 17.655c25.196 8.9225 49.848 36.951 49.848 59.76 0 22.808-23.28 33.971-48.467 25.743l-31.184-10.679-60.755 20.98c-.65185.21242-3.3723 3.8349-3.3723 3.8349l94.469 30.852c30.645 10.007 53.833 6.0456 71.716-8.2004 13.484-10.738 23.684-27.295 23.684-48.21z" fill="#077d66"/><path d="m221.42 61.971c0-20.916-10.2-37.473-23.683-48.211-17.883-14.246-41.072-18.208-71.716-8.2007l-91.061 29.748c-3.5574 1.1619-6.4339 4.5215-6.4339 10.149 0 20.065 19.244 31.166 42.902 23.44l58.902-19.042c25.189-8.2292 45.001 3.6286 45.001 26.437 0 22.808-24.652 50.837-49.848 59.065l-54.048 19.738c-23.651 7.7249-42.895 27.261-42.895 52.338 0 5.7476 2.8841 7.1008 6.4408 5.9381l91.062-29.747c30.636-10.014 95.378-40.442 95.378-121.65z" fill="#397"/></svg>
