<svg data-author="YAXI GmbH" data-logo-id="unicredit" data-primary-color="#e2001a" data-maskable="true" version="1.1" viewBox="0 0 250 250" xmlns="http://www.w3.org/2000/svg"><path d="m48.783 224.08c21.096 16.246 47.527 25.916 76.22 25.916 69.039 0 125-55.958 125-125 0-20.897-5.1176-40.585-14.183-57.892l.01.0098c4.3042-4.1457 9.2632-10.711 6.0004-18.933-1.0115-2.4487-5.8713-8.004-7.1212-9.3526l.16868.47512c3.0447 9.184-2.9753 14.936-7.2995 18.854-2.3703 2.1507-34.108 32.075-71.331 64.625-32.809 28.682-69.506 57.872-90.76 73.791-29.902 22.385-35.724 25.638-35.724 25.638-.78353.42734-2.1026.79282-3.0745.79282-1.8249 0-3.4119-.82374-4.4136-2.1226l-.03093-.0562-.07028.96149c3.2036 5.187 8.5196 11.207 11.614 11.207.9719 0 2.291-.36548 3.0844-.78438 0 0 2.3405-1.3101 11.912-8.1426m76.219-224.06c-69.039 0-125 55.964-125 125 0 30.335 10.806 58.128 28.78 79.776 15.731-22.621 54.437-78.193 62.922-89.551 10.711-14.341 36.436-47.9 36.436-47.9s.30532-.38235 2.1502-3.0802c1.9241-2.8058 1.115-4.9081-.1743-6.029l-20.209-12.436c-1.3984-.94182-2.3101-2.5387-2.3101-4.3731 0-2.8662 1.7147-5.04 5.6225-6.1308 2.5893-.71128 6.521-1.3495 11.274-1.9174 18.133-2.1676 48.092-3.2978 59.885-3.2978h.059c5.1673 0 14.055-.02783 22.039.1968l-.33395-.33456c-21.829-18.656-50.166-29.913-81.14-29.913z" fill="#e2001a"/></svg>
