<svg width="250" height="250" data-author="YAXI GmbH" data-logo-id="union" data-primary-color="#bf6019" data-secondary-color="#132e63" data-maskable="true" version="1.1" viewBox="-2.6063 -2.6063 250 250" xmlns="http://www.w3.org/2000/svg"><path d="m164.79-2.6063v63.029c-12.925-6.2479-27.427-9.7493-42.748-9.7493-14.871 0-28.947 3.1463-41.588 8.8686l-.2401-62.144h-56.321l-.21384 151.64c0 54.324 44.034 98.357 98.362 98.357 54.324 0 98.362-44.034 98.362-98.357l.70531-151.64zm45.519 108.19c-7.4681-15.152-18.733-28.107-32.544-37.621v-58.323h32.544zm-141.28 38.366c-.16131 1.6957.16881 3.3864.16881 5.0822 0 29.182 23.66 52.837 52.843 52.837 27.411 0 54.885-18.558 55.161-52.697 0-.23514.31512-68.075.27389-69.932 20.309 16.027 32.129 41.513 32.129 69.791 0 48.36-39.207 87.563-87.563 87.563-48.366 0-87.531-40.597-87.531-88.955v-138.58h34.5c0 3.1463.07502 126.98.03724 134.89m53.012 47.05c-23.18 0-41.968-18.793-41.968-41.968 0-23.18 18.788-41.968 41.968-41.968 23.175 0 43.398 18.783 43.398 41.968 0 23.18-20.223 41.968-43.398 41.968m43.704-118.05-.42505 46.009c-9.9641-14.176-25.871-22.62-43.278-22.62-16.602 0-31.929 7.678-41.972 20.814l.3264-45.419c12.905-7.3029 26.881-10.404 41.648-10.404 15.391 0 30.353 3.9717 43.703 11.62" fill="#bf6019"/></svg>
