<svg fill="none" data-author="YAXI GmbH" data-logo-id="vakif" data-primary-color="#fdb913" data-secondary-color="#212121" data-maskable="true" version="1.1" viewBox="0 0 250 250" xmlns="http://www.w3.org/2000/svg"><path d="m76.988 38.269c-31.099 0-50.578 22.606-54.029 45.393l.04367-.0655-23.002 128.13h161.66c47.649-.24706 75.11-11.629 80.088-48.254 3.3314-24.709-17.091-40.609-33.788-43.93 16.883-3.2671 37.386-9.3625 41.66-35.088 3.1989-19.3-13.558-46.19-59.204-46.19zm99.127 18.57c4.0132-.08472 6.4302.18559 6.4302.18559s-15.067 2.1544-39.356 34.935c-11.547 15.512-53.594 69.378-62.075 79.619-18.684 22.526-56.919 19.58-58.363 18.919-.0046-.003-.02935-.0196-.03276-.0218l-.0109-.0112c0-.0827 14.111-70.746 18.69-90.678 12.49-54.223 55.743-41.387 55.743-41.387-7.812 1.6678-14.781 6.174-19.651 12.708-8.2955 11.16-17.584 65.492-22.893 90.874 24.741-30.68 58.766-70.281 64.553-77.708v.0655c18.526-23.772 44.926-27.246 56.966-27.5z" fill="#fdb913"/></svg>
