<svg data-author="YAXI GmbH" data-logo-id="vw" data-primary-color="#004666" data-maskable="true" version="1.1" viewBox="0 0 250 250" xml:space="preserve" xmlns="http://www.w3.org/2000/svg"><path d="m56.932 57.342 18.828 55.982h14.018l18.744-55.982h-11.115l-10.867 33.34c-1.245 4.0634-2.4853 8.7937-3.3984 12.609h-.16797c-.9113-3.8979-2.2403-8.7082-3.3184-12.439l-10.781-33.51h-11.941zm54.516 0 14.016 55.982h13.436l8.3789-30.604c.74624-2.9868 1.2415-6.6329 1.7402-10.199h.16406c.4162 3.4012 1.08 7.2123 1.8281 10.199l8.543 30.604h13.352l13.936-55.982h-10.617l-7.3828 31.268c-.9131 4.3973-1.5769 8.9571-2.1582 13.271h-.16406c-.6638-4.479-1.7437-9.2898-2.9043-13.436l-8.709-31.104h-10.781l-8.459 30.77c-1.245 4.8941-2.073 9.5395-2.6543 13.77h-.16602c-.5812-4.2296-1.3282-8.7079-2.4062-13.934l-7.4629-30.605h-11.527zm-67.143 78.84c-8.3774 0-17.168.41406-17.168.41406v55.898c7.0504 0 12.688.16797 16.502.16797 16.091 0 22.727-8.8738 22.727-17.332 0-6.3866-3.8944-11.032-10.033-12.609v-.08398c5.2257-2.073 8.125-6.8832 8.125-12.191 0-9.2063-6.7173-14.264-20.152-14.264zm41.801.32813-18.744 55.984h10.865l3.8965-11.943h21.066l3.8164 11.943h11.941l-18.828-55.984h-14.014zm37.453 0v55.984h10.451v-15.26c0-9.04-.41766-19.575-.83204-25.215h.16993c1.6575 3.7316 3.3989 7.0525 6.5508 12.111l17.582 28.363h11.363v-55.984h-10.451v13.605c0 9.206.41765 19.076.83203 25.215h-.16992c-1.575-3.4843-3.8104-7.7154-6.7148-12.277l-16.506-26.543h-12.275zm55.518 0 .00195 55.984h10.785v-26.873l19.57 26.873h13.436l-21.977-29.275 20.65-26.709h-12.773l-18.908 25.383v-25.383h-10.785zm-135.52 8.2148c7.05 0 9.5352 3.0649 9.5352 7.2949 0 4.8113-3.3171 7.7969-10.367 7.7969-2.0738 0-3.483.00242-4.8086-.08008v-14.848c1.7419-.0825 3.7337-.16406 5.6406-.16406zm49.014 1.4102h.16797c.5813 2.6531 1.3252 5.4725 2.2383 8.375l5.8086 17.498h-16.176l5.8027-17.582c.8306-2.7375 1.5769-5.6378 2.1582-8.291zm-49.594 21.729c8.3778 0 11.773 2.9846 11.773 7.9609 0 4.8113-3.3994 8.2109-10.781 8.2109-1.9087 0-4.7271-.08312-6.0527-.25v-15.838c1.1607-.0822 4.0649-.08399 5.0605-.08399z" fill="#004666"/></svg>
