<svg data-author="YAXI GmbH" data-logo-id="weberbank" data-primary-color="#662046" data-maskable="true" version="1.1" viewBox="0 0 250 250" xmlns="http://www.w3.org/2000/svg"><path d="m80.601 224.89h-10.517c-1.1659-2.3318-1.1659-4.6755-1.1659-5.8414-1.1659-4.6754-1.1659-7.0072-2.3318-9.3509l-2.3318-10.517-1.1659-4.6755-38.558-134.35c-4.6755-18.69-10.517-23.365-24.531-24.531v-10.517c16.358 1.1659 22.199 2.3318 39.724 2.3318 15.192 0 22.199-1.1659 38.558-2.3318v10.517c-15.192 2.3318-18.69 3.5096-18.69 10.517 0 2.3318 1.1659 5.8414 2.3318 12.849l24.531 87.62 43.221-121.5h11.683l43.221 126.18 25.697-91.13c2.3318-7.0072 3.5096-11.683 3.5096-14.014 0-8.1731-3.5096-10.517-17.524-10.517v-10.517c11.683 0 16.358 1.1659 25.697 1.1659s16.358-1.1659 28.041-1.1659v10.517h-2.3318c-12.849 2.3318-15.192 5.8414-19.856 22.199l-38.558 132.01c-3.5096 9.3509-3.5096 10.517-4.6754 17.524-1.1659 2.3318-4.6755 17.524-4.6755 17.524h-11.683c-2.3318-12.849-3.5096-18.69-7.0072-29.207l-35.048-114.5-36.214 108.65c-3.5096 12.849-4.6754 17.524-7.0072 28.041l-2.3318 7.0072" fill="#662046"/></svg>
