<svg width="250" height="250" data-author="YAXI GmbH" data-logo-id="werhahn" data-primary-color="#03a3be" data-maskable="false" version="1.1" viewBox="-1.131 -1.131 250 250" xmlns="http://www.w3.org/2000/svg"><g><path d="m152.3-1.1251c-3.4486 9.4779-7.1929 19.738-10.543 28.855 25.551 9.2832 44.746 27.945 55.446 50.754 10.61 22.81 12.547 49.56 3.2637 75.065l-.0268.0178c-9.2832 25.507-27.932 44.739-50.744 55.391-12.908 6.0118-27.009 9.2342-41.508 9.2342-11.14 0-22.461-1.9035-33.557-5.9707l-10.516 28.864c14.544 5.2607 29.441 7.7835 44.073 7.7835 19.009 0 37.617-4.246 54.46-12.071 29.884-13.925 54.504-39.345 66.658-72.722 12.157-33.42 9.6385-68.739-4.2868-98.535-13.925-29.884-39.345-54.514-72.722-66.673z" fill="#d6173f"/><path d="m108.2 41.147c-11.626 0-22.984 2.5636-33.285 7.3822-18.252 8.5296-33.36 24.085-40.744 44.5-.0013.0038.0014.0064 0 .01784-7.4659 20.376-5.9271 42.026 2.6033 60.237 8.4875 18.257 24.051 33.344 44.474 40.77l10.607-29.14c-12.466-4.5533-21.743-13.615-27.003-24.711-5.172-11.14-6.1019-24.139-1.593-36.561 4.5534-12.466 13.609-21.787 24.75-27.003 6.2773-2.9176 13.175-4.4682 20.204-4.4682 5.393 0 10.925.93011 16.319 2.8752l8.7422-23.921c-5.0888-1.685-4.1576-1.3248-.006-.02651l1.9038-5.1804c-8.8854-3.2271-17.99-4.766-26.964-4.766z" fill="#03a3be"/><path d="m108.2 16.121c-15.34 0-30.276 3.3994-43.892 9.7653-24.049 11.184-43.9 31.701-53.672 58.577l23.519 8.5737v.0084l5.1675 1.852c6.9402-19.053 20.862-33.364 37.882-41.366 9.637-4.4649 20.206-6.8639 30.992-6.8639 8.3107 0 16.75 1.4233 25.06 4.4293 1.7282-4.7201 0-3.109 0 .02651 19.053 6.9402 33.377 20.818 41.379 37.882 7.9133 17.064 9.3754 36.968 2.4349 56.065l28.7 10.426c9.8138-26.878 7.7761-55.356-3.4968-79.406-11.184-24.049-31.643-43.895-58.567-53.707l-.0198.0086c-11.671-4.2439-23.696-6.2813-35.499-6.2813z" fill="#696d6f"/><path d="m39.324 94.903-5.172-1.8567c7.3827-20.423 22.501-35.984 40.759-44.516 10.3-4.8185 21.662-7.3827 33.288-7.3827 8.9741 0 18.08 1.5472 26.966 4.7743l-1.9009 5.172c-8.3107-3.006-16.755-4.4207-25.065-4.4207-10.786 0-21.352 2.3872-30.989 6.8521-17.02 8.0015-30.945 22.324-37.885 41.377" fill="#0c4552"/><path d="m205.77 155.49-5.3048-1.9451c9.2832-25.507 7.3381-52.25-3.2714-75.065-10.698-22.81-29.883-41.466-55.436-50.749l1.9451-5.3489c26.922 9.8138 47.39 29.663 58.572 53.712 11.273 24.049 13.306 52.518 3.4924 79.396" fill="#5c1019"/></g></svg>
