<svg data-author="YAXI GmbH" data-logo-id="werther" data-primary-color="#1e3d74" data-maskable="true" version="1.1" viewBox="0 0 250 250" xml:space="preserve" xmlns="http://www.w3.org/2000/svg"><defs><linearGradient id="gradient1" gradientTransform="matrix(3.1607 0 0 3.1607 -27.187 -75.702)" gradientUnits="userSpaceOnUse"><stop stop-color="#1E3D74" offset="0"/><stop stop-color="#395485" offset=".025531"/><stop stop-color="#62789E" offset=".070043"/><stop stop-color="#8898B5" offset=".12"/><stop stop-color="#A8B4C9" offset=".1745"/><stop stop-color="#C4CCDA" offset=".2347"/><stop stop-color="#DADFE8" offset=".3027"/><stop stop-color="#EAEDF2" offset=".382"/><stop stop-color="#F6F8FA" offset=".4802"/><stop stop-color="#FDFDFE" offset=".6179"/><stop stop-color="#fff" offset="1"/></linearGradient><linearGradient href="#gradient1" id="SVGID_1_" x1="28.761" x2="28.761" y1="63.499" y2="28.065"/><linearGradient href="#gradient1" id="g11" x1="33.111" x2="33.111" y1="63.499" y2="35.25"/><linearGradient href="#gradient1" id="g12" x1="37.126" x2="37.126" y1="63.499" y2="42.444"/><linearGradient href="#gradient1" id="g13" x1="41.156" x2="41.156" y1="63.499" y2="49.634"/><linearGradient id="gradient2" x1="38.65" x2="38.65" y1="63.499" y2="28.065" gradientTransform="matrix(3.1607 0 0 3.1607 -27.187 -75.702)" gradientUnits="userSpaceOnUse"><stop stop-color="#fff" offset="0"/><stop stop-color="#E9ECF2" offset=".028148"/><stop stop-color="#B4BED1" offset=".1037"/><stop stop-color="#8697B4" offset=".1803"/><stop stop-color="#60769D" offset=".2563"/><stop stop-color="#435D8B" offset=".3316"/><stop stop-color="#2F4B7E" offset=".4061"/><stop stop-color="#224177" offset=".4793"/><stop stop-color="#1E3D74" offset=".55"/></linearGradient><linearGradient href="#gradient2" id="g21" x1="38.65" x2="38.65" y1="63.499" y2="28.065"/><linearGradient href="#gradient2" id="g22" x1="48.068" x2="48.068" y1="63.499" y2="35.25"/><linearGradient href="#gradient2" id="g23" x1="55.035" x2="55.035" y1="63.499" y2="42.444"/><linearGradient href="#gradient2" id="g24" x1="60.767" x2="60.767" y1="63.499" y2="49.634"/><linearGradient href="#gradient1" id="gradient3" gradientTransform="matrix(-3.1607 0 0 -3.1607 277.19 213.71)"/><linearGradient href="#gradient3" id="g31" x1="28.761" x2="28.761" y1="28.068" y2="-7.3648"/><linearGradient href="#gradient3" id="g32" x1="33.111" x2="33.111" y1="28.068" y2="-.1803"/><linearGradient href="#gradient3" id="g33" x1="37.126" x2="37.126" y1="28.068" y2="7.0141"/><linearGradient href="#gradient3" id="g34" x1="41.156" x2="41.156" y1="28.068" y2="14.204"/><linearGradient href="#gradient2" id="gradient4" gradientTransform="matrix(-3.1607 0 0 -3.1607 277.19 213.71)"/><linearGradient href="#gradient4" id="g41" x1="38.65" x2="38.65" y1="28.068" y2="-7.3648"/><linearGradient href="#gradient4" id="g42" x1="48.068" x2="48.068" y1="28.068" y2="-.1803"/><linearGradient href="#gradient4" id="g43" x1="55.035" x2="55.035" y1="28.068" y2="7.0141"/><linearGradient href="#gradient4" id="g44" x1="60.767" x2="60.767" y1="28.068" y2="14.204"/></defs><path class="st0" d="m40.451 45.667c25.602-23.073 59.42-32.239 86.602-32.555h-1.2642c-27.498 0-62.581 8.8499-88.499 32.555-23.389 21.177-36.663 49.307-36.98 79.333h3.1607c.31607-30.026 13.59-58.156 36.98-79.333z" fill="url(#SVGID_1_)"/><path d="m58.467 61.787c18.648-16.752 43.934-25.918 70.483-25.918h-3.1607c-26.866 0-51.835 9.1659-70.483 25.918-18.964 16.752-29.394 39.192-29.394 63.213h3.1607c.31607-24.021 10.746-46.462 29.394-63.213z" fill="url(#SVGID_1_)"/><path d="m76.483 77.906c13.907-12.642 32.871-19.28 52.783-19.28h-3.1607c-19.913 0-38.56 6.9534-52.783 19.28-13.907 12.642-21.809 29.394-22.125 47.094h3.1607c.31607-18.016 7.9017-34.767 22.125-47.094z" fill="url(#g12)"/><path d="m94.499 94.026c9.1659-8.2177 21.493-12.642 34.767-12.642h-3.1607c-12.958 0-25.285 4.425-34.767 12.642-9.1659 8.2177-14.54 19.28-14.54 30.974h3.1607c0-11.694 5.0571-22.757 14.54-30.974z" fill="url(#g13)"/><path d="m128.95 13.112c-27.498 0-62.581 8.8499-88.499 32.555-23.389 21.177-36.663 49.307-36.98 79.333h13.59c.31607-26.55 11.694-51.519 32.555-70.167 21.177-18.964 49.307-29.394 79.333-29.394h57.524c-16.12-7.5856-36.031-12.326-57.524-12.326z" fill="url(#g21)"/><path d="m58.467 61.787c-18.964 16.752-29.394 39.192-29.394 63.213h13.906c.31607-20.545 9.1659-39.824 24.969-54.364 16.12-14.54 37.928-22.757 61.317-22.757h91.343c-4.741-4.425-9.798-8.5338-15.488-12.326h-75.856c-26.866.31607-51.835 9.482-70.799 26.234" fill="url(#g22)"/><path d="m76.483 77.906c-13.906 12.642-21.809 29.394-22.125 47.094h13.907c.31607-14.54 6.3213-28.13 17.7-38.244 11.378-10.43 26.866-16.12 43.302-16.12h109.99c-2.5285-4.425-5.6892-8.5338-8.8499-12.326h-101.14c-20.229 0-38.876 6.9535-52.783 19.596" fill="url(#g23)"/><path d="m94.499 94.026c-9.1659 8.2177-14.54 19.28-14.54 30.974h13.906c0-8.5338 3.7928-16.436 10.43-22.125 6.6374-6.0053 15.488-9.1659 24.969-9.1659h120.73c-1.2642-4.1088-3.1607-8.2177-5.0571-12.326h-115.68c-13.274-.31607-25.602 4.425-34.767 12.642" fill="url(#g24)"/><path d="m209.54 204.33c-25.602 23.073-59.737 32.239-86.918 32.555h1.2642c27.498 0 62.581-8.8499 88.499-32.555 23.389-21.177 36.663-49.307 36.98-79.333h-3.1607c0 30.026-13.274 58.156-36.663 79.333z" fill="url(#g31)"/><path d="m191.53 188.21c-18.648 16.752-43.934 25.918-70.483 25.918h3.1607c26.866 0 51.835-9.1659 70.483-25.918 18.964-16.752 29.394-39.192 29.394-63.213h-3.1607c0 24.021-10.746 46.462-29.394 63.213z" fill="url(#g32)"/><path d="m173.51 172.09c-13.906 12.642-32.871 19.28-52.783 19.28h3.1607c19.913 0 38.56-6.9534 52.783-19.28 13.906-12.642 21.809-29.394 22.125-47.094h-3.1607c-.31606 18.016-7.9017 34.767-22.125 47.094z" fill="url(#g33)"/><path d="m155.5 155.97c-9.1659 8.2177-21.493 12.642-34.767 12.642h3.1607c12.958 0 25.285-4.425 34.767-12.642 9.1659-8.2177 14.54-19.28 14.54-30.974h-3.1607c0 11.694-5.0571 22.757-14.54 30.974z" fill="url(#g34)"/><path d="m121.05 236.88c27.498 0 62.581-8.8499 88.499-32.555 23.389-21.177 36.663-49.307 36.98-79.333h-13.906c-.31606 26.55-11.694 51.519-32.555 70.167-21.177 18.964-49.307 29.394-79.333 29.394h-57.524c16.436 7.5856 36.347 12.326 57.84 12.326z" fill="url(#g41)"/><path d="m191.53 188.21c18.964-16.752 29.394-39.192 29.394-63.213h-13.906c-.31607 20.545-9.1659 39.824-24.969 54.364-16.12 14.54-37.928 22.757-61.317 22.757h-91.343c4.741 4.425 9.7981 8.5338 15.488 12.326h75.856c26.866-.31606 51.835-9.482 70.799-26.234" fill="url(#g42)"/><path d="m173.51 172.09c13.906-12.642 21.809-29.394 22.125-47.094h-13.906c-.31607 14.54-6.3213 28.13-17.7 38.244-11.378 10.43-26.866 16.12-43.302 16.12h-109.99c2.5285 4.425 5.6892 8.5338 8.8499 12.326h101.14c20.229 0 38.876-6.9534 52.783-19.596" fill="url(#g43)"/><path d="m155.5 155.97c9.1659-8.2177 14.54-19.28 14.54-30.974h-13.906c0 8.5338-3.7928 16.436-10.43 22.125-6.6374 6.0053-15.488 9.1659-24.969 9.1659h-120.73c1.2642 4.1088 3.1607 8.2177 5.0571 12.326h115.68c13.274.31606 25.601-4.425 34.767-12.642" fill="url(#g44)"/></svg>
