<svg xmlns="http://www.w3.org/2000/svg" version="1.1" viewBox="0 0 250 250" data-logo-id="yapikredi" data-primary-color="#004587" data-author="YAXI GmbH" data-maskable="true"><path d="m247.06 102.93c-13.583-38.979-52.419-41.134-56.404-41.243a71.399 71.399 0 00-51.166 19.984 91.171 91.171 0 00-14.504 18.014 90.914 90.914 0 00-14.47-18.014 71.466 71.466 0 00-51.2-19.984c-3.9741.10945-42.813 2.2645-56.359 41.243a59.174 59.174 0 003.4684 45.289c7.1708 15.319 24.252 27.811 42.27 26.547a36.986 36.986 0 0032.672-22.033 31.861 31.861 0 00-7.1708-35.099 12.787 12.787 0 01-2.2154 9.6051 14.202 14.202 0 01-17.361 4.6799 11.537 11.537 0 01-7.5482-12.666 13.489 13.489 0 018.3408-10.371c7.8992-3.4193 15.172-1.6832 22.297 5.0988 11.624 13.013 12.99 32.733 18.527 47.701 3.9175 12.319 10.122 23.022 23.698 26.098a22.192 22.192 0 005.0611.54724 21.833 21.833 0 005.0535-.54724c13.587-3.0646 19.788-13.779 23.705-26.098 5.5328-14.968 6.8991-34.688 18.565-47.701 7.0878-6.7934 14.36-8.5182 22.267-5.0988a13.477 13.477 0 018.3408 10.371 11.492 11.492 0 01-7.5709 12.666 14.221 14.221 0 01-17.361-4.6799 12.764 12.764 0 01-2.2154-9.6051 31.989 31.989 0 00-7.1708 35.099 36.986 36.986 0 0032.669 22.033c18.018 1.2643 35.099-11.228 42.27-26.547a59.197 59.197 0 003.5137-45.289m-27.43 46.501a26.521 26.521 0 01-28.128 5.3555 19.112 19.112 0 01-10.45-12.077c7.4954 7.4501 21.003 11.254 33.412-1.8078 0 0 11.594-10.749 5.0196-31-3.2835-10.02-15.542-18.353-25.77-19.388a38.975 38.975 0 00-39.53 16.666c-11.737 18.116-13.209 38.269-21.709 58.416a8.3861 8.3861 0 01-14.979 0c-8.488-20.146-9.9674-40.311-21.701-58.416a38.956 38.956 0 00-39.556-16.67c-10.19 1.0341-22.475 9.3673-25.77 19.388-6.5669 20.252 5.0233 31.001 5.0233 31.001 12.405 13.066 25.913 9.2579 33.446 1.8078a19.248 19.248 0 01-10.488 12.077 26.517 26.517 0 01-28.125-5.3555 39.032 39.032 0 01-9.1862-41.828c5.8499-17.327 23.377-26.022 37.33-27.117 16.5-1.453 39.277 8.6804 48.395 25.936 2.106 3.9892 6.5707 14.285 6.5707 14.285h23.143s4.4308-10.296 6.567-14.285c9.0767-17.263 31.853-27.37 48.358-25.936 13.964 1.0945 31.484 9.79 37.307 27.117a38.956 38.956 0 01-9.1824 41.832" fill="#004587"/></svg>
