<?xml version="1.0" encoding="UTF-8"?><svg id="uuid-7dee9ba8-107c-4a66-bc7e-3ea053539495" xmlns="http://www.w3.org/2000/svg" xmlns:xlink="http://www.w3.org/1999/xlink" viewBox="0 0 82.1 98.5">
<title>Aldi logo - Brandlogos.net</title><defs><linearGradient id="uuid-275176db-0c8a-4792-8739-f0e168b5713d" x1="32.7" y1="582.9" x2="32.7" y2="545.1" gradientTransform="translate(0 -528)" gradientUnits="userSpaceOnUse"><stop offset="0" stop-color="#1482af"/><stop offset=".02" stop-color="#3798bf"/><stop offset=".05" stop-color="#6eb9d8"/><stop offset=".08" stop-color="#95d1ea"/><stop offset=".11" stop-color="#aee0f5"/><stop offset=".12" stop-color="#b7e5f9"/><stop offset=".2" stop-color="#97daf6"/><stop offset=".33" stop-color="#67caf2"/><stop offset=".4" stop-color="#55c3f0"/><stop offset=".6" stop-color="#55c3f0"/><stop offset=".67" stop-color="#67caf2"/><stop offset=".8" stop-color="#97daf6"/><stop offset=".88" stop-color="#b7e5f9"/><stop offset=".89" stop-color="#aee0f5"/><stop offset=".92" stop-color="#95d1ea"/><stop offset=".95" stop-color="#6eb9d8"/><stop offset=".98" stop-color="#3798bf"/><stop offset="1" stop-color="#1482af"/></linearGradient><linearGradient id="uuid-f54daccf-9041-4c69-a172-4d292b88efcb" x1="41.85" y1="582.8" x2="41.85" y2="545.06" xlink:href="#uuid-275176db-0c8a-4792-8739-f0e168b5713d"/><linearGradient id="uuid-6bb1ac7a-d680-4636-87f9-bd611a0fc5c6" x1="24.7" y1="583" x2="24.7" y2="545.2" xlink:href="#uuid-275176db-0c8a-4792-8739-f0e168b5713d"/><linearGradient id="uuid-54a507dd-e8cd-4019-862a-532b3e003bff" x1="48.2" y1="562.53" x2="59.22" y2="557.97" gradientTransform="translate(0 -528)" gradientUnits="userSpaceOnUse"><stop offset=".2" stop-color="#55c3f0"/><stop offset=".32" stop-color="#67caf2"/><stop offset=".55" stop-color="#97daf6"/><stop offset=".69" stop-color="#b7e5f9"/><stop offset=".73" stop-color="#aee0f5"/><stop offset=".79" stop-color="#95d1ea"/><stop offset=".86" stop-color="#6eb9d8"/><stop offset=".95" stop-color="#3798bf"/><stop offset="1" stop-color="#1482af"/></linearGradient><linearGradient id="uuid-89e10b96-183d-4776-8e81-316119348863" x1="45.84" y1="572.19" x2="62.28" y2="565.38" gradientTransform="translate(0 -528)" gradientUnits="userSpaceOnUse"><stop offset=".3" stop-color="#55c3f0"/><stop offset=".41" stop-color="#67caf2"/><stop offset=".63" stop-color="#97daf6"/><stop offset=".76" stop-color="#b7e5f9"/><stop offset=".79" stop-color="#aee0f5"/><stop offset=".83" stop-color="#95d1ea"/><stop offset=".89" stop-color="#6eb9d8"/><stop offset=".96" stop-color="#3798bf"/><stop offset="1" stop-color="#1482af"/></linearGradient><linearGradient id="uuid-73cddaa9-1716-4f71-8da8-8fb68fe9be38" x1="43.34" y1="581.7" x2="65.16" y2="572.67" gradientTransform="translate(0 -528)" gradientUnits="userSpaceOnUse"><stop offset="0" stop-color="#73cdf3"/><stop offset=".12" stop-color="#62c8f1"/><stop offset=".24" stop-color="#58c4f0"/><stop offset=".4" stop-color="#55c3f0"/><stop offset=".5" stop-color="#67caf2"/><stop offset=".69" stop-color="#97daf6"/><stop offset=".81" stop-color="#b7e5f9"/><stop offset=".83" stop-color="#aee0f5"/><stop offset=".87" stop-color="#95d1ea"/><stop offset=".92" stop-color="#6eb9d8"/><stop offset=".97" stop-color="#3798bf"/><stop offset="1" stop-color="#1482af"/></linearGradient></defs><path d="M82.1,95.2c0,1.8-1.5,3.3-3.3,3.3H3.3c-1.8,0-3.3-1.5-3.3-3.3V3.3C0,1.5,1.5,0,3.3,0h75.5c1.8,0,3.3,1.5,3.3,3.3,0,0,0,91.9,0,91.9Z" style="fill:#ffc800;"/><path d="M78.2,92.4c0,1.2-1,2.2-2.2,2.2H6.2c-1.2,0-2.2-1-2.2-2.2V6.1c0-1.2,1-2.2,2.2-2.2h69.7c1.2,0,2.2,1,2.2,2.2v86.3s.1,0,.1,0Z" style="fill:#ff7800;"/><path d="M75.2,90.2c0,.9-.7,1.6-1.6,1.6H8.5c-.9,0-1.6-.7-1.6-1.6V8.4c0-.9.7-1.7,1.6-1.7h65.1c.9,0,1.6.7,1.6,1.6v81.9Z" style="fill:#d70000;"/><path d="M72.9,88.3c0,.7-.6,1.2-1.2,1.2H10.5c-.7,0-1.2-.6-1.2-1.2V10.2c0-.7.6-1.2,1.2-1.2h61.2c.7,0,1.2.6,1.2,1.2,0,0,0,78.1,0,78.1Z" style="fill:#00005f;"/><path d="M26.2,76.5c-.2-.8-.5-2.2-.7-2.8h-5.4c-.2.6-.5,2-.7,2.8h-4.9c2.1-6.5,3-9.3,5.3-15.1h6c2.3,5.8,3.3,8.6,5.3,15.1,0,0-4.9,0-4.9,0ZM20.7,70.4h4.1c-.6-2-1.7-5.4-2-6.3-.5.9-1.5,4.3-2.1,6.3ZM36.4,76.5c-2.5,0-3.9-1.4-3.9-4.1v-11h4.6v10.2c0,1.3.3,1.6,1.7,1.6h4.4l.7,3.4-7.5-.1ZM62.3,61.4h4.6v15.1h-4.6v-15.1ZM45.7,76.5v-15.1h6.3c4.6,0,7.9,1.9,7.9,7.4s-2.6,7.7-7.7,7.7c0,0-6.5,0-6.5,0ZM50.3,73.2h1.2c2.8,0,3.9-1.3,3.9-4.4s-1.4-4.2-4.1-4.2h-1.1s.1,8.6.1,8.6Z" style="fill:#fff;"/><path d="M39.3,17.1c-2.8,0-4,1.9-5,5.1l-9.7,28.4c-.8,2.4-1.9,3.9-3.6,4.1v.2h5c2.8,0,4-1.9,5-5.1l9.7-28.4c.8-2.4,2-3.9,3.7-4.1v-.2s-5.1,0-5.1,0Z" style="fill:url(#uuid-275176db-0c8a-4792-8739-f0e168b5713d);"/><path d="M48.4,17.1c-2.8,0-4,1.9-5,5.1l-9.6,28.4c-.8,2.4-1.9,3.9-3.6,4.1v.2h5c2.8,0,4-1.9,5-5.1l9.6-28.4c.8-2.4,2-3.9,3.7-4.1v-.2s-5.1,0-5.1,0Z" style="fill:url(#uuid-f54daccf-9041-4c69-a172-4d292b88efcb);"/><path d="M30.2,17.2c-2.8,0-4,1.9-5,5.1l-11.1,32.7h2.8c2.8,0,4-1.9,5-5.1l9.7-28.4c.8-2.4,2-3.9,3.7-4.1v-.2s-5.1,0-5.1,0Z" style="fill:url(#uuid-6bb1ac7a-d680-4636-87f9-bd611a0fc5c6);"/><path d="M59.1,30.3c-1.1-2.1-2.2-2.4-4.2-2.4h-5l-2,5.9h9.9c1.4,0,2.6.2,3.4,1.2h.2c-.1,0-2.1-4.1-2.3-4.7Z" style="fill:url(#uuid-54a507dd-e8cd-4019-862a-532b3e003bff);"/><path d="M62.7,38.8c-1-2.1-2.2-2.4-4.2-2.4h-11.5l-2,5.9h16.3c1.5,0,2.5.2,3.4,1.3h.2c-.1-.1-2-4.3-2.2-4.8Z" style="fill:url(#uuid-89e10b96-183d-4776-8e81-316119348863);"/><path d="M66.4,47.5c-1-2.3-2.3-2.7-4.3-2.7h-18l-1.6,4.9c-.1.4-.2.7-.4,1h22.7c1.3,0,2.4.2,3.2,1.3h.2c0,.1-1.7-4.2-1.8-4.5Z" style="fill:url(#uuid-73cddaa9-1716-4f71-8da8-8fb68fe9be38);"/></svg>