<?xml version="1.0" encoding="utf-8"?>
<!-- Generator: Adobe Illustrator 14.0.0, SVG Export Plug-In . SVG Version: 6.00 Build 43363)  -->
<!DOCTYPE svg PUBLIC "-//W3C//DTD SVG 1.0//EN" "http://www.w3.org/TR/2001/REC-SVG-20010904/DTD/svg10.dtd">
<svg version="1.0" id="Ebene_1" xmlns="http://www.w3.org/2000/svg" xmlns:xlink="http://www.w3.org/1999/xlink" x="0px" y="0px"
	 width="382.677px" height="70.866px" viewBox="0 0 382.677 70.866" enable-background="new 0 0 382.677 70.866"
	 xml:space="preserve">
<g>
	<g>
		<defs>
			<rect id="SVGID_1_" width="382.677" height="70.865"/>
		</defs>
		<clipPath id="SVGID_2_">
			<use xlink:href="#SVGID_1_"  overflow="visible"/>
		</clipPath>
		<polygon clip-path="url(#SVGID_2_)" fill="#FFFFFF" points="0,0 0,70.865 382.677,70.865 382.677,0 0,0 		"/>
	</g>
	<polygon fill="#0072BA" points="296.29,9.034 266.634,62.182 86.223,62.215 115.938,9.035 	"/>
	<path fill="#FFFFFF" d="M156.087,52.586c-1.164,3.113-0.233,4.445,1.989,4.445s4.145-1.332,5.309-4.445
		c1.167-3.113,0.235-4.439-1.986-4.439c-2.226,0-4.146,1.326-5.308,4.432L156.087,52.586L156.087,52.586L156.087,52.586
		L156.087,52.586z M160.982,49.252c0.937,0,1.48,0.787,0.53,3.334c-0.943,2.521-2.077,3.318-3.014,3.318
		c-0.938,0-1.479-0.797-0.536-3.318c0.952-2.547,2.083-3.334,3.009-3.334H160.982L160.982,49.252L160.982,49.252L160.982,49.252z"/>
	<path fill="#FFFFFF" d="M166.242,56.861l1.2-3.211h1.001c2.227,0,3.811-0.76,4.543-2.719c0.62-1.654-0.015-2.619-2.48-2.619h-2.897
		l-3.198,8.549H166.242L166.242,56.861L166.242,56.861L166.242,56.861z M167.861,52.531l1.16-3.1h1.02
		c1.069,0,1.472,0.432,1.066,1.514c-0.443,1.186-1.158,1.586-2.319,1.586H167.861L167.861,52.531L167.861,52.531L167.861,52.531z"/>
	<polygon fill="#FFFFFF" points="181.824,48.313 175.605,48.313 175.189,49.428 177.383,49.428 174.606,56.861 176.436,56.861 
		179.213,49.428 181.406,49.428 181.824,48.313 181.824,48.313 181.824,48.313 	"/>
	<polygon fill="#FFFFFF" points="182.975,56.861 186.173,48.313 184.318,48.313 181.125,56.861 182.975,56.861 182.975,56.861 
		182.975,56.861 	"/>
	<path fill="#FFFFFF" d="M189.619,52.398c0.269-0.656,0.469-1.193,0.746-1.93l0.807-2.156h-1.854l-3.195,8.549h1.854l0.936-2.504
		l1.241-1.119l0.515,3.623h2.073l-1.02-4.914l3.853-3.635h-2.008l-2.08,2.156c-0.692,0.75-1.212,1.252-1.821,1.93H189.619
		L189.619,52.398L189.619,52.398L189.619,52.398z"/>
	<path fill="#FFFFFF" d="M110.055,44.566h6l4.056-7.863h3.407l-2.245,7.863h6.779l6.994-28.856h-8.903L110.055,44.566
		L110.055,44.566L110.055,44.566L110.055,44.566z M122.264,32.569l5.625-11.835h0.408l-3.622,11.835H122.264L122.264,32.569
		L122.264,32.569L122.264,32.569z"/>
	<path fill="#FFFFFF" d="M134.879,44.566l3.561-9.312h0.985c3.422,0,6.981-1.173,8.377-4.823l1.993-5.149
		c1.398-3.649-1.263-4.822-4.685-4.822h-6.533l-9.249,24.106H134.879L134.879,44.566L134.879,44.566L134.879,44.566z
		 M142.698,23.915l1.023-0.055c0.903,0,1.157,0.369,0.723,1.507l-1.795,4.909c-0.437,1.139-0.971,1.507-1.875,1.507l-1.024,0.056
		L142.698,23.915L142.698,23.915L142.698,23.915L142.698,23.915z"/>
	<polygon fill="#FFFFFF" points="170.426,44.566 171.84,41.016 166.922,41.016 174.634,20.718 169.084,20.718 159.96,44.566 
		170.426,44.566 170.426,44.566 170.426,44.566 	"/>
	<polygon fill="#FFFFFF" points="182.287,44.566 183.701,41.016 178.784,41.016 186.495,20.718 180.948,20.718 171.82,44.566 
		182.287,44.566 182.287,44.566 182.287,44.566 	"/>
	<path fill="#FFFFFF" d="M192.52,39.912c-0.256,0.668-0.939,1.572-1.808,1.572c-0.863,0-0.854-0.904-0.599-1.572l5.564-14.539
		c0.255-0.669,0.939-1.572,1.806-1.572c0.862,0,0.855,0.903,0.6,1.572L192.52,39.912L192.52,39.912L192.52,39.912L192.52,39.912z
		 M184.731,40.678c-1.215,3.186,1.442,4.355,4.867,4.355c3.424,0,6.98-1.17,8.199-4.355l6.15-16.075
		c1.22-3.182-1.442-4.354-4.865-4.354s-6.981,1.172-8.198,4.354L184.731,40.678L184.731,40.678L184.731,40.678L184.731,40.678z"/>
	<path fill="#FFFFFF" d="M153.633,39.912c-0.256,0.668-0.938,1.572-1.805,1.572c-0.866,0-0.857-0.904-0.599-1.572l5.561-14.539
		c0.255-0.669,0.938-1.572,1.803-1.572c0.867,0,0.858,0.903,0.601,1.572L153.633,39.912L153.633,39.912L153.633,39.912
		L153.633,39.912z M145.844,40.678c-1.215,3.186,1.443,4.355,4.868,4.355c3.42,0,6.979-1.17,8.198-4.355l6.151-16.075
		c1.217-3.182-1.442-4.354-4.865-4.354c-3.424,0-6.983,1.172-8.198,4.354L145.844,40.678L145.844,40.678L145.844,40.678
		L145.844,40.678z"/>
	<path fill="#FFFFFF" d="M209.804,36.719c5.205-8.997,14.934-15.051,26.075-15.051c9.367,0,17.734,4.279,23.254,10.989
		c-5.05-4.469-11.811-7.2-19.242-7.2c-10.478,0-19.627,5.433-24.522,13.504c3.753,6.189,10.003,10.824,17.438,12.652
		C222.965,50.615,214.525,44.877,209.804,36.719L209.804,36.719L209.804,36.719z"/>
	<path fill="none" stroke="#FFFFFF" stroke-width="0.2169" stroke-miterlimit="3.8637" d="M209.804,36.719
		c5.205-8.997,14.934-15.051,26.075-15.051c9.367,0,17.734,4.279,23.254,10.989c-5.05-4.469-11.811-7.2-19.242-7.2
		c-10.478,0-19.627,5.433-24.522,13.504c3.753,6.189,10.003,10.824,17.438,12.652C222.965,50.615,214.525,44.877,209.804,36.719
		L209.804,36.719L209.804,36.719z"/>
	<path fill="#FFFFFF" d="M270.705,34.069c-4.563,9.339-13.844,16.056-24.959,16.833c-9.343,0.652-17.99-3.031-23.965-9.338
		c5.352,4.104,12.286,6.357,19.699,5.838c10.452-0.73,19.2-6.787,23.521-15.182c-4.177-5.911-10.734-10.1-18.278-11.405
		C256.609,21.125,265.429,26.26,270.705,34.069L270.705,34.069L270.705,34.069z"/>
	<path fill="none" stroke="#FFFFFF" stroke-width="0.2169" stroke-miterlimit="3.8637" d="M270.705,34.069
		c-4.563,9.339-13.844,16.056-24.959,16.833c-9.343,0.652-17.99-3.031-23.965-9.338c5.352,4.104,12.286,6.357,19.699,5.838
		c10.452-0.73,19.2-6.787,23.521-15.182c-4.177-5.911-10.734-10.1-18.278-11.405C256.609,21.125,265.429,26.26,270.705,34.069
		L270.705,34.069L270.705,34.069z"/>
	<path fill="#F49B00" d="M234.302,36.139c0-3.236,2.625-5.858,5.86-5.858s5.858,2.622,5.858,5.858s-2.623,5.859-5.858,5.859
		S234.302,39.375,234.302,36.139L234.302,36.139L234.302,36.139z"/>
	<path fill="none" stroke="#F49B00" stroke-width="0.1773" stroke-miterlimit="3.8637" d="M234.302,36.139
		c0-3.236,2.625-5.858,5.86-5.858s5.858,2.622,5.858,5.858s-2.623,5.859-5.858,5.859S234.302,39.375,234.302,36.139L234.302,36.139
		L234.302,36.139z"/>
	<g>
		<defs>
			<rect id="SVGID_3_" width="382.677" height="70.865"/>
		</defs>
		<clipPath id="SVGID_4_">
			<use xlink:href="#SVGID_3_"  overflow="visible"/>
		</clipPath>
		<polygon clip-path="url(#SVGID_4_)" fill="#F49B00" points="306.563,9.032 277.003,62.24 382.677,62.24 382.677,9.032 
			306.563,9.032 		"/>
		<polygon clip-path="url(#SVGID_4_)" fill="#D0E1F2" points="0,9.032 105.563,9.032 75.863,62.24 0,62.24 0,9.032 		"/>
	</g>
</g>
</svg>
