<?xml version="1.0" encoding="utf-8"?>
<!-- Generator: Adobe Illustrator 16.0.4, SVG Export Plug-In . SVG Version: 6.00 Build 0)  -->
<!DOCTYPE svg PUBLIC "-//W3C//DTD SVG 1.1//EN" "http://www.w3.org/Graphics/SVG/1.1/DTD/svg11.dtd">
<svg version="1.1" id="Logo" xmlns="http://www.w3.org/2000/svg" xmlns:xlink="http://www.w3.org/1999/xlink" x="0px" y="0px"
	 width="1265.455px" height="283.465px" viewBox="0 0 1265.455 283.465" enable-background="new 0 0 1265.455 283.465"
	 xml:space="preserve">
<g>
	<rect x="1090.38" y="0.001" fill="#C8CDD0" width="82.928" height="82.928"/>
	<rect x="1182.534" y="0.001" fill="#FDC300" width="82.928" height="82.928"/>
	<rect x="1090.38" y="92.161" fill="#979A9C" width="82.928" height="82.928"/>
	<rect x="1182.534" y="92.161" fill="#C8CDD0" width="82.928" height="82.926"/>
</g>
<g>
	<path fill="#FDC300" d="M958.521,172.215c47.462-10.694,75.713-42.413,75.713-85.177v-0.747c0-22.525-8.027-42.979-22.617-57.599
		C993.146,10.191,964.604,0,931.222,0H809.007v279.319h45.841V43.658h74.122c37.521,0,59.039,15.948,59.039,43.756v0.752
		c0,30.967-19.43,46.021-59.409,46.021h-64.592v42.9h41.09l88.439,101.818l0.36,0.414h57.672L958.521,172.215z"/>
	<path fill="#FDC300" d="M643.312,283.465c-34.84,0-64.156-10.933-84.771-31.602c-21.363-21.431-32.658-52.818-32.658-90.769V0
		h45.896v159.211c0,51.226,26.347,80.602,72.286,80.602c45.879,0,71.156-27.959,71.156-78.718V0h45.895v158.836
		C761.116,236.878,717.077,283.465,643.312,283.465z"/>
	<polygon fill="#FDC300" points="398.422,0.01 358.46,0.01 232.243,279.319 280.472,279.319 378.046,60.704 425.264,166.872 
		340.843,166.872 321.737,209.777 444.105,209.777 474.889,279.319 524.64,279.319 	"/>
	<path fill="#FDC300" d="M124.928,279.319H0V0h120.045c31.504,0,57.231,8.858,74.406,25.605
		c12.896,13.35,19.345,29.405,19.345,47.902v0.756c0,25.06-10.522,45.557-30.459,59.42c29.932,13.49,45.107,35.348,45.107,64.985
		v0.753c0,24.59-10.18,45.103-29.443,59.331C180.779,272.206,155.167,279.319,124.928,279.319z M45.514,236.419h80.166
		c35.382,0,56.495-14.531,56.495-38.878v-0.756c0-30.573-33.58-36.994-61.753-36.994H45.514V236.419z M45.514,117.267h69.649
		c15.742,0,52.368-3.784,52.368-38.868v-0.757c0-22.075-18.266-34.736-50.112-34.736H45.514V117.267z"/>
</g>
</svg>
