<?xml version="1.0" encoding="UTF-8" standalone="no"?>
<!-- Created with Inkscape (http://www.inkscape.org/) -->
<svg
   xmlns:dc="http://purl.org/dc/elements/1.1/"
   xmlns:cc="http://web.resource.org/cc/"
   xmlns:rdf="http://www.w3.org/1999/02/22-rdf-syntax-ns#"
   xmlns:svg="http://www.w3.org/2000/svg"
   xmlns="http://www.w3.org/2000/svg"
   xmlns:sodipodi="http://sodipodi.sourceforge.net/DTD/sodipodi-0.dtd"
   xmlns:inkscape="http://www.inkscape.org/namespaces/inkscape"
   version="1.0"
   id="Ebene_1"
   width="441"
   height="147"
   viewBox="0 0 441 147"
   overflow="visible"
   enable-background="new 0 0 441 147"
   xml:space="preserve"
   sodipodi:version="0.32"
   inkscape:version="0.45"
   sodipodi:docname="Breuniger-Logo.svg"
   inkscape:output_extension="org.inkscape.output.svg.inkscape"
   sodipodi:docbase="C:\Home\xavax\Desktop"
   sodipodi:modified="true"><metadata
     id="metadata30"><rdf:RDF><cc:Work
         rdf:about=""><dc:format>image/svg+xml</dc:format><dc:type
           rdf:resource="http://purl.org/dc/dcmitype/StillImage" /></cc:Work></rdf:RDF></metadata><defs
     id="defs28" /><sodipodi:namedview
     inkscape:window-height="760"
     inkscape:window-width="1072"
     inkscape:pageshadow="2"
     inkscape:pageopacity="0.0"
     guidetolerance="10.0"
     gridtolerance="10.0"
     objecttolerance="10.0"
     borderopacity="1.0"
     bordercolor="#666666"
     pagecolor="#ffffff"
     id="base"
     inkscape:zoom="1.6258503"
     inkscape:cx="220.5"
     inkscape:cy="73.5"
     inkscape:window-x="140"
     inkscape:window-y="121"
     inkscape:current-layer="Ebene_1" /><path
     fill="#1F1D21"
     d="M398.055,58.667c-7.356-0.223-11.024,4.251-11.024,4.251s0-2.83,0-3.568c-0.724,0-1.922,0-2.646,0  c0,1.368,0,24.54,0,25.907c0.762,0,2.121,0,2.886,0c0-1.371,0-17.024,0-17.024c0-3.551,4.207-8.068,11.886-7.605  c0-0.439,0-1.494,0-1.925C398.635,58.684,398.055,58.667,398.055,58.667"
     id="path3" /><path
     fill="#1F1D21"
     d="M198.678,70.341h-17.08v-4.573c0-2.153,1.131-5.373,8.695-5.373c7.371,0,8.385,3.223,8.385,5.373V70.341   M190.293,58.661c-7.45,0-11.543,2.285-11.543,6.788v13.696c0,4.506,4.093,6.789,11.543,6.789s11.279-2.178,11.224-6.789  c0,0,0-0.623,0-1.186c-0.759,0-2.08,0-2.839,0c0,0.563,0,0.869,0,0.869c0,2.156-0.929,5.172-8.81,5.172  c-7.562,0-8.271-3.016-8.271-5.172v-6.691c0,0,18.545,0,19.919,0c0-1.201,0-6.688,0-6.688  C201.517,60.946,197.743,58.661,190.293,58.661z"
     id="path5" /><path
     fill="#1F1D21"
     d="M301.563,58.664c-6.231-0.015-8.856,2.376-8.856,2.376s0-1.266,0-1.693c-0.762,0-2.086,0-2.848,0  c0,1.368,0,24.537,0,25.904c0.762,0,2.086,0,2.848,0c0-1.379,0-18.694,0-18.694c0-4.901,4.055-6.176,8.619-6.176  c4.623,0,7.412,1.726,7.412,5.385c0,0,0,18.106,0,19.485c0.765,0,2.086,0,2.851,0c0-1.379,0-19.798,0-19.798  C311.588,61.136,307.932,58.675,301.563,58.664"
     id="path7" /><path
     fill="#1F1D21"
     d="M229.762,78.047c0,4.898-4.055,6.172-8.619,6.172c-4.623,0-7.412-1.719-7.412-5.385c0,0,0-18.108,0-19.485  c-0.765,0-2.086,0-2.848,0c0,1.377,0,19.799,0,19.799c0,4.314,3.656,6.775,10.022,6.787c6.231,0.018,8.856-2.375,8.856-2.375  s0,1.266,0,1.693c0.765,0,2.083,0,2.848,0c0-1.365,0-24.537,0-25.905c-0.765,0-2.083,0-2.848,0  C229.762,60.726,229.762,78.047,229.762,78.047"
     id="path9" /><path
     fill="#1F1D21"
     d="M254.764,58.669c-6.234-0.015-8.859,2.376-8.859,2.376s0-1.266,0-1.69c-0.762,0-2.08,0-2.845,0  c0,1.365,0,24.536,0,25.905c0.765,0,2.083,0,2.845,0c0-1.381,0-18.698,0-18.698c0-4.901,4.061-6.176,8.622-6.176  c4.623,0,7.412,1.723,7.412,5.385c0,0,0,18.108,0,19.489c0.765,0,2.083,0,2.851,0c0-1.381,0-19.802,0-19.802  C264.789,61.142,261.13,58.681,254.764,58.669"
     id="path11" /><path
     fill="#1F1D21"
     d="M145.891,78.709c0,2.156-1.57,5.215-8.218,5.215c-7.427,0-8.534-3.439-8.534-5.271V65.774  c0-1.585,0.826-5.068,8.247-5.068c6.876,0,8.505,2.971,8.505,5.124V78.709 M137.91,58.667c-3.237,0-5.452,0.299-7.644,1.638  l-1.128,0.697c0,0,0-11.947,0-13.254c-0.765,0-2.086,0-2.848,0c0,1.397,0,36.102,0,37.508c0.724,0,1.884,0,2.602,0  c0-0.342,0-1.934,0-1.934l1.175,0.832c2.027,1.441,4.087,1.785,7.605,1.785c5.045,0,11.065-1.176,11.065-6.789V65.455  C148.738,59.551,141.956,58.667,137.91,58.667z"
     id="path13" /><path
     fill="#1F1D21"
     d="M161.233,62.917c0,0,0-2.83,0-3.568c-0.724,0-1.919,0-2.643,0c0,1.368,0,24.54,0,25.907  c0.759,0,2.121,0,2.883,0c0-1.371,0-17.024,0-17.024c0-3.551,4.21-8.068,11.889-7.605c0-0.439,0-1.494,0-1.925  c-0.521-0.018-1.104-0.035-1.104-0.035C164.901,58.444,161.233,62.917,161.233,62.917"
     id="path15" /><path
     fill="#1F1D21"
     d="M275.456,85.256c0.762,0,2.083,0,2.848,0c0-1.367,0-24.536,0-25.901c-0.765,0-2.086,0-2.848,0  C275.456,60.72,275.456,83.889,275.456,85.256"
     id="path17" /><path
     fill="#1F1D21"
     d="M372.224,70.338l-17.08-0.003v-4.57c0-2.153,1.131-5.376,8.698-5.376c7.368,0,8.382,3.226,8.382,5.376  V70.338 M363.842,58.658c-7.45,0-11.54,2.282-11.54,6.788v13.697c0,4.502,4.09,6.785,11.54,6.785c7.447,0,11.227-2.174,11.227-6.785  c0,0,0-0.625,0-1.188c-0.762,0-2.083,0-2.845,0c0,0.563,0,0.871,0,0.871c0,2.15-0.923,5.168-8.804,5.168  c-7.564,0-8.276-3.018-8.276-5.168v-6.695c0,0,18.551,0,19.925,0c0-1.198,0-6.685,0-6.685  C375.068,60.94,371.289,58.658,363.842,58.658z"
     id="path19" /><path
     fill="#1F1D21"
     d="M340.498,78.828c0,2.156-0.826,5.068-8.253,5.068c-7.063,0-8.502-2.912-8.502-5.068V65.95  c0-2.156,1.219-5.273,8.218-5.273c7.427,0,8.537,3.117,8.537,5.273V78.828 M340.738,61.283l-1.175-0.835  c-2.024-1.438-4.087-1.784-7.6-1.784c-5.048,0-11.068,1.175-11.068,6.791v13.694c0,5.906,6.785,6.787,10.825,6.787  c3.24,0,5.458-0.299,7.646-1.637l1.119-0.691c0,0,0.003,0.012,0.003,0.055v5.881c0,2.15-0.715,5.168-8.276,5.168  c-7.57,0-8.801-2.682-8.801-4.832c0,0,0-0.646,0-1.207c-0.768,0-2.083,0-2.845,0c0,0.561,0,1.188,0,1.188  c0,4.502,3.773,6.785,11.229,6.785c7.597,0,11.534-2.283,11.534-6.785c0,0,0.012-29.11,0.012-30.513c-0.724,0-1.878,0-2.604,0  C340.738,59.689,340.738,61.283,340.738,61.283z"
     id="path21" /><path
     fill-rule="evenodd"
     clip-rule="evenodd"
     fill="#8E192A"
     d="M54.634,53.759c0,0,4.986-0.223,10.784,0.091  c1.611,0.094,3.357,0.179,5.007,0.36c2.06,0.237,4.011,0.618,5.941,1.102c3.943,0.987,6.788,2.443,9.129,3.888  c2.895,1.793,4.825,3.51,4.825,3.51c0,0.003,1.69-3.012,1.922-7.389c0.135-2.763-0.308-6.138-1.459-9.035  c-0.439-1.107-1.066-2.15-1.69-3.056c-2.007-2.938-5.309-5.405-8.722-6.662c-1.808-0.659-3.894-1.131-5.751-1.395  c-2.763-0.404-5.007-0.41-5.007-0.41H54.634V53.759 M41.998,22.957c0,0,5.865,0.006,15.103,0.056  c2.464,0.012,5.701-0.149,8.669-0.129c4.354,0.032,8.15,0.129,8.15,0.129s7.937,0.167,15.223,3.665  c5.587,2.678,10.383,7.86,13.327,13.726c2.681,5.358,3.442,14.221,1.799,20.856c-1.652,6.642-5.587,11.047-5.587,11.047  s5.147,5.371,6.369,13.756c1.277,8.76-0.668,14.701-2.889,19.213c-4.743,9.645-14.458,13.365-17.153,14.221  c-1.854,0.586-4.415,1.219-7.052,1.541c-2.065,0.254-5.754,0.422-9.062,0.459c-3.674,0.039-8.848-0.125-8.848-0.125l-18.056-0.033  l0.006-42.779h23.171c0,0,2.443,0.08,5.259-0.334c1.553-0.225,3.188-0.674,4.641-1.201c1.84-0.658,3.504-1.461,4.772-2.311  c1.931-1.287,3.032-2.555,3.032-2.555s-0.756-0.821-2.382-1.902c-1.213-0.806-2.991-1.784-4.875-2.479  c-2.218-0.832-5.016-1.474-7.468-1.819c-2.464-0.343-4.585-0.381-4.585-0.381l-21.565,0.015V22.957z M54.763,109.256V90.539  c0,0,4.98,0.229,10.781-0.1c1.611-0.088,3.352-0.17,5.007-0.361c2.057-0.234,4.017-0.615,5.941-1.092  c3.943-0.988,6.788-2.699,9.135-4.148c2.889-1.791,4.813-3.252,4.813-3.252s1.693,3.008,1.919,7.389  c0.193,3.82-0.896,8.813-3.141,12.09c-2.001,2.941-5.303,5.406-8.722,6.66c-4.506,1.658-10.758,1.531-10.758,1.531H54.763z"
     id="path23" /><rect
     fill="none"
     width="441"
     height="147"
     id="rect25" /></svg>