<?xml version="1.0" encoding="UTF-8" standalone="no"?>
<svg
   xmlns:dc="http://purl.org/dc/elements/1.1/"
   xmlns:cc="http://creativecommons.org/ns#"
   xmlns:rdf="http://www.w3.org/1999/02/22-rdf-syntax-ns#"
   xmlns:svg="http://www.w3.org/2000/svg"
   xmlns="http://www.w3.org/2000/svg"
   xmlns:sodipodi="http://sodipodi.sourceforge.net/DTD/sodipodi-0.dtd"
   xmlns:inkscape="http://www.inkscape.org/namespaces/inkscape"
   width="400"
   height="327.12378"
   viewBox="0 0 400 327.12378"
   version="1.1"
   style="color:#0faae6;font-weight:500;font-size:16px;line-height:24px;text-decoration:none;text-decoration-line:none;text-decoration-style:solid;text-decoration-color:#0faae6;letter-spacing:0.5px;inline-size:40px"
   id="svg20"
   sodipodi:docname="Budni Logo (Pilotfilialen) 05.2021.svg"
   inkscape:version="1.0.2-2 (e86c870879, 2021-01-15)">
  <metadata
     id="metadata26">
    <rdf:RDF>
      <cc:Work
         rdf:about="">
        <dc:format>image/svg+xml</dc:format>
        <dc:type
           rdf:resource="http://purl.org/dc/dcmitype/StillImage" />
        <dc:title></dc:title>
      </cc:Work>
    </rdf:RDF>
  </metadata>
  <defs
     id="defs24" />
  <sodipodi:namedview
     pagecolor="#ffffff"
     bordercolor="#666666"
     borderopacity="1"
     objecttolerance="10"
     gridtolerance="10"
     guidetolerance="10"
     inkscape:pageopacity="0"
     inkscape:pageshadow="2"
     inkscape:window-width="1600"
     inkscape:window-height="837"
     id="namedview22"
     showgrid="false"
     fit-margin-top="0"
     fit-margin-left="0"
     fit-margin-right="0"
     fit-margin-bottom="0"
     inkscape:zoom="1.9890199"
     inkscape:cx="191.66674"
     inkscape:cy="158.03158"
     inkscape:window-x="-8"
     inkscape:window-y="-8"
     inkscape:window-maximized="1"
     inkscape:current-layer="svg20" />
  <path
     fill="#0FAAE6"
     d="M 59.19115,203.24429 C 17.638116,68.715951 103.87397,13.506647 224.51652,6.8506499 77.124784,-37.435724 -47.471722,144.31055 17.784173,227.41661 80.348457,307.09036 132.02111,343.11411 206.66635,320.44408 144.48807,319.14001 84.990963,286.75723 59.19115,203.24429"
     style="color:#0faae6;font-weight:500;font-size:16px;line-height:24px;text-decoration:none;text-decoration-line:none;text-decoration-style:solid;text-decoration-color:#0faae6;letter-spacing:0.5px;fill:#0faae6;fill-rule:evenodd;stroke-width:10.4326"
     id="path4" />
  <path
     fill="#1E3E95"
     d="M 301.09178,50.834479 C 275.45889,28.519154 249.65908,14.393418 224.51652,6.8506499 103.87397,13.506647 17.638116,68.715951 59.19115,203.24429 c 25.799813,83.51294 85.29692,115.88528 147.4752,117.19979 16.50436,-5.00765 34.12502,-12.88426 53.23754,-23.79675 105.57788,-60.25868 153.92253,-147.71514 41.18789,-245.812851"
     style="color:#0faae6;font-weight:500;font-size:16px;line-height:24px;text-decoration:none;text-decoration-line:none;text-decoration-style:solid;text-decoration-color:#0faae6;letter-spacing:0.5px;fill:#1e3e95;fill-rule:evenodd;stroke-width:10.4326"
     id="path6" />
  <path
     fill="#FF7864"
     d="M 399.66939,176.41165 C 388.08921,56.749762 354.36062,1.4152669 230.56742,6.5481049 c -2.02392,0.09389 -4.04784,0.187787 -6.0509,0.302545 25.13212,7.5427681 50.93194,21.6685041 76.57526,43.9838291 112.72421,98.097711 64.36912,185.554171 -41.18789,245.812851 -19.12295,10.91249 -36.74361,18.77867 -53.24798,23.79675 96.77277,2.03436 200.04505,-71.18161 193.00305,-144.03243"
     style="color:#0faae6;font-weight:500;font-size:16px;line-height:24px;text-decoration:none;text-decoration-line:none;text-decoration-style:solid;text-decoration-color:#0faae6;letter-spacing:0.5px;fill:#ff7864;fill-rule:evenodd;stroke-width:10.4326"
     id="path8" />
  <path
     d="m 305.08747,190.66257 h 12.04964 v -52.06909 h -12.04964 z m 13.35372,-67.30068 c 0,2.25344 -0.73028,4.04785 -2.19085,5.37279 -1.46056,1.32494 -3.19237,1.98219 -5.185,1.98219 -2.05522,0 -3.81833,-0.65725 -5.27889,-1.98219 -1.46056,-1.32494 -2.19085,-3.12978 -2.19085,-5.37279 0,-2.32647 0.73029,-4.15217 2.19085,-5.48754 1.46056,-1.32494 3.22367,-1.9822 5.27889,-1.9822 1.9822,0 3.71401,0.65726 5.17457,1.9822 1.46057,1.33537 2.19085,3.16107 2.19085,5.48754 z m -67.75972,16.92167 c 2.32647,-0.66768 5.34149,-1.29364 9.06593,-1.8883 3.714,-0.60509 7.82445,-0.8972 12.34176,-0.8972 4.24607,0 7.80358,0.58423 10.65168,1.74224 2.85853,1.15802 5.13284,2.78551 6.82292,4.87203 1.70051,2.08652 2.88983,4.62164 3.58881,7.57406 0.69899,2.95243 1.04326,6.18653 1.04326,9.70232 v 29.27386 h -12.03921 v -27.37513 c 0,-2.7855 -0.17736,-5.16414 -0.5425,-7.12546 -0.36514,-1.9509 -0.97023,-3.54709 -1.7944,-4.77813 -0.83461,-1.23105 -1.96133,-2.11782 -3.3906,-2.69161 -1.41883,-0.56336 -3.17151,-0.83461 -5.2163,-0.83461 -1.53359,0 -3.12978,0.0939 -4.78856,0.29211 -1.65878,0.20865 -2.88983,0.36514 -3.68271,0.50077 v 42.01206 H 250.6919 v -50.37901 z m -45.97645,24.1932 c 0,5.32062 1.25191,9.48323 3.78703,12.49825 2.51426,3.02545 5.99874,4.52774 10.45346,4.52774 1.9196,0 3.56795,-0.0835 4.92419,-0.25038 1.35624,-0.15649 2.47252,-0.34427 3.33843,-0.54249 v -29.86853 c -1.06413,-0.73028 -2.47253,-1.4084 -4.23564,-2.04479 -1.75267,-0.62595 -3.63054,-0.93893 -5.6336,-0.93893 -4.37126,0 -7.57406,1.48143 -9.59799,4.47558 -2.02392,2.98373 -3.03588,7.03157 -3.03588,12.14355 z m 34.55276,24.60006 c -2.3995,0.73028 -5.39365,1.38754 -9.01377,1.98219 -3.62011,0.60509 -7.41757,0.90764 -11.40282,0.90764 -4.11045,0 -7.79315,-0.63639 -11.05856,-1.89873 -3.24453,-1.25191 -6.01961,-3.06719 -8.30434,-5.42495 -2.29518,-2.35777 -4.04785,-5.2163 -5.2789,-8.55473 -1.23104,-3.3593 -1.84657,-7.12547 -1.84657,-11.30894 0,-4.11044 0.52163,-7.85574 1.54403,-11.20461 1.03282,-3.34886 2.54555,-6.21783 4.53818,-8.60689 1.98219,-2.3995 4.41298,-4.23563 7.26108,-5.52928 2.85854,-1.29364 6.1448,-1.94046 9.85881,-1.94046 2.52469,0 4.74683,0.29211 6.67686,0.8972 1.9196,0.59466 3.57838,1.25192 4.97635,1.9822 v -24.97564 l 12.04965,-2.00306 z m -55.7831,0 c -2.32647,0.59466 -5.34149,1.21018 -9.05549,1.83614 -3.72444,0.62595 -7.80358,0.94936 -12.24787,0.94936 -4.18347,0 -7.68882,-0.59465 -10.50563,-1.7944 -2.8168,-1.18932 -5.08067,-2.8481 -6.78118,-4.97635 -1.67965,-2.12825 -2.90027,-4.66337 -3.63055,-7.6158 -0.73028,-2.95242 -1.09542,-6.18653 -1.09542,-9.70231 v -29.19041 h 12.04965 v 27.29167 c 0,5.57101 0.81374,9.55626 2.44123,11.94533 1.62748,2.3995 4.46515,3.58881 8.513,3.58881 1.46056,0 3.00458,-0.0626 4.63207,-0.20865 1.62748,-0.12519 2.83767,-0.29211 3.63054,-0.49033 v -42.1164 h 12.04965 z m -63.73273,-24.60006 c 0,-5.11198 -1.01196,-9.15982 -3.03589,-12.14355 -2.02392,-2.99415 -5.22673,-4.48601 -9.60842,-4.48601 -1.99263,0 -3.86006,0.31297 -5.6336,0.8972 -1.752684,0.59466 -3.161084,1.26234 -4.225204,1.99263 v 29.97285 c 0.8659,0.19822 1.98219,0.386 3.338434,0.54249 1.35623,0.16692 3.00458,0.25038 4.92418,0.25038 4.44429,0 7.92878,-1.50229 10.45346,-4.52774 2.52469,-3.02546 3.78704,-7.17763 3.78704,-12.49825 m 12.34176,0.20865 c 0,4.17304 -0.61552,7.9392 -1.83614,11.2985 -1.23104,3.34886 -2.99415,6.21783 -5.27889,8.60689 -2.29517,2.3995 -5.05981,4.21477 -8.31478,5.47712 -3.25497,1.25191 -6.93768,1.89873 -11.05855,1.89873 -3.97482,0 -7.772294,-0.31298 -11.392404,-0.8972 -3.620112,-0.60509 -6.624699,-1.26235 -9.013764,-1.99263 v -73.69587 l 12.049654,-1.98219 v 26.98913 c 1.39796,-0.73028 3.098484,-1.39797 5.122404,-1.99263 2.03436,-0.60509 4.27737,-0.8972 6.72903,-0.8972 3.6514,0 6.91681,0.64682 9.80664,1.94046 2.88983,1.29365 5.28932,3.12978 7.21935,5.52928 1.9196,2.38906 3.40103,5.25803 4.43386,8.60689 1.02239,3.34887 1.53359,7.05244 1.53359,11.10029"
     style="color:#0faae6;font-weight:500;font-size:16px;line-height:24px;text-decoration:none;text-decoration-line:none;text-decoration-style:solid;text-decoration-color:#0faae6;letter-spacing:0.5px;fill:#ffffff;fill-rule:evenodd;stroke-width:10.4326"
     id="path12" />
</svg>
