<?xml version="1.0" encoding="UTF-8" standalone="no"?>
<!DOCTYPE svg PUBLIC "-//W3C//DTD SVG 1.0//EN" "http://www.w3.org/TR/2001/REC-SVG-20010904/DTD/svg10.dtd">
<!-- Created with Inkscape (http://www.inkscape.org/) by Steadfast-->
<svg
   xmlns:svg="http://www.w3.org/2000/svg"
   xmlns="http://www.w3.org/2000/svg"
   version="1.0"
   width="900"
   height="326.24399"
   id="svg2610">
  <defs
     id="defs2612">
    <clipPath
       id="clipPath129">
      <path
         d="M 444.409,87.232 L 444.409,59.124 L 521.947,59.124 L 521.947,87.232"
         id="path131" />
    </clipPath>
  </defs>
  <g
     id="layer1">
    <g
       transform="matrix(9.2857696,0,0,9.2857696,-2468.3847,-4806.8013)"
       id="g2646">
      <g
         transform="matrix(1.25,0,0,-1.25,-289.68679,626.6912)"
         id="g125">
        <g
           clip-path="url(#clipPath129)"
           id="g127">
          <path
             d="M 444.409,65.907 L 521.947,65.907 L 521.947,87.231 L 444.409,87.231 L 444.409,65.907 z"
             id="path133"
             style="fill:#fee011;fill-opacity:1;fill-rule:nonzero;stroke:none" />
        </g>
      </g>
      <path
         d="M 265.82446,552.7862 L 362.74696,552.7862 L 362.74696,544.3052 L 265.82446,544.3052 L 265.82446,552.7862 z"
         id="path135"
         style="fill:#231f20;fill-opacity:1;fill-rule:nonzero;stroke:none" />
      <path
         d="M 357.89571,539.3487 L 353.41821,539.3162 C 353.09196,538.6137 352.86321,537.84745 352.57071,537.1437 L 352.36321,537.08495 L 346.21696,537.08495 C 345.80696,537.7612 345.59946,538.6137 345.22071,539.3162 L 340.76821,539.28995 L 340.70946,539.19995 L 347.56446,522.0662 C 347.99446,522.0387 348.40696,522.0287 348.81571,522.0287 C 349.63321,522.0287 350.43071,522.0662 351.30946,522.0662 L 357.95946,539.2587 L 357.89571,539.3487 M 349.37446,528.41495 C 348.70446,530.17745 348.00071,531.9137 347.44696,533.6762 C 348.28571,533.6762 349.12321,533.6887 349.95321,533.6887 C 350.36821,533.6887 350.78196,533.6862 351.19196,533.6762 C 350.60571,531.9137 350.01946,530.12495 349.37446,528.41495"
         id="path137"
         style="fill:#fee011;fill-opacity:1;fill-rule:nonzero;stroke:none" />
      <path
         d="M 357.89571,539.3487 L 353.41821,539.3162 C 353.09196,538.6137 352.86321,537.84745 352.57071,537.1437 L 352.36321,537.08495 L 346.21696,537.08495 C 345.80696,537.7612 345.59946,538.6137 345.22071,539.3162 L 340.76821,539.28995 L 340.70946,539.19995 L 347.56446,522.0662 C 347.99446,522.0387 348.40696,522.0287 348.81571,522.0287 C 349.63321,522.0287 350.43071,522.0662 351.30946,522.0662 L 357.95946,539.2587 L 357.89571,539.3487 M 349.37446,528.41495 C 348.70446,530.17745 348.00071,531.9137 347.44696,533.6762 C 348.28571,533.6762 349.12321,533.6887 349.95321,533.6887 C 350.36821,533.6887 350.78196,533.6862 351.19196,533.6762 C 350.60571,531.9137 350.01946,530.12495 349.37446,528.41495"
         id="path139"
         style="fill:#231f20;fill-opacity:1;fill-rule:nonzero;stroke:none" />
      <path
         d="M 332.39571,539.6187 C 332.30196,539.6187 332.20946,539.61745 332.11446,539.61495 L 326.84696,539.5837 L 326.75696,539.49245 L 326.78821,522.3062 C 328.08196,522.3062 329.39821,522.2587 330.69446,522.2587 C 331.89196,522.2587 333.07071,522.29995 334.19696,522.45495 C 336.71071,522.9237 339.14446,524.8362 340.25696,527.2437 C 341.63696,529.88995 341.25321,533.73495 339.43696,536.05745 C 337.68071,538.3912 335.18446,539.6187 332.39571,539.6187 M 332.15446,526.5187 C 331.83446,526.5187 331.50821,526.5437 331.17696,526.5937 L 331.17696,535.35495 C 331.41196,535.36745 331.66071,535.37495 331.90571,535.37495 C 332.15196,535.37495 332.39446,535.36745 332.61446,535.35495 C 334.24946,535.32245 335.77946,534.29495 336.44946,532.79745 C 337.09321,531.47245 336.91821,529.64995 336.09821,528.4787 C 335.15071,527.13245 333.73446,526.5187 332.15446,526.5187"
         id="path141"
         style="fill:#fee011;fill-opacity:1;fill-rule:nonzero;stroke:none" />
      <path
         d="M 332.39571,539.6187 C 332.30196,539.6187 332.20946,539.61745 332.11446,539.61495 L 326.84696,539.5837 L 326.75696,539.49245 L 326.78821,522.3062 C 328.08196,522.3062 329.39821,522.2587 330.69446,522.2587 C 331.89196,522.2587 333.07071,522.29995 334.19696,522.45495 C 336.71071,522.9237 339.14446,524.8362 340.25696,527.2437 C 341.63696,529.88995 341.25321,533.73495 339.43696,536.05745 C 337.68071,538.3912 335.18446,539.6187 332.39571,539.6187 M 332.15446,526.5187 C 331.83446,526.5187 331.50821,526.5437 331.17696,526.5937 L 331.17696,535.35495 C 331.41196,535.36745 331.66071,535.37495 331.90571,535.37495 C 332.15196,535.37495 332.39446,535.36745 332.61446,535.35495 C 334.24946,535.32245 335.77946,534.29495 336.44946,532.79745 C 337.09321,531.47245 336.91821,529.64995 336.09821,528.4787 C 335.15071,527.13245 333.73446,526.5187 332.15446,526.5187"
         id="path143"
         style="fill:#231f20;fill-opacity:1;fill-rule:nonzero;stroke:none" />
      <path
         d="M 301.01696,539.5587 C 300.15071,539.5587 299.28321,539.54245 298.43446,539.52495 C 298.08321,538.8487 297.87446,538.0862 297.58196,537.3512 C 296.88946,537.31245 296.18696,537.29995 295.47446,537.29995 C 294.05071,537.29995 292.58696,537.3512 291.08446,537.3512 L 290.26446,539.49245 L 290.14696,539.5562 L 285.69446,539.5562 L 285.66821,539.4662 L 292.51696,522.3062 C 293.10321,522.27745 293.73321,522.26245 294.36321,522.26245 C 294.99196,522.26245 295.62196,522.27745 296.20821,522.3062 L 302.97196,539.52495 C 302.32696,539.54995 301.67321,539.5587 301.01696,539.5587 M 292.99821,533.8762 C 293.30571,533.8762 293.61696,533.8837 293.92321,533.88995 C 294.27321,533.89745 294.62196,533.90495 294.96446,533.90495 C 295.37696,533.90495 295.78321,533.8937 296.17571,533.85245 L 294.36571,528.65495 C 293.68946,530.38495 293.04446,532.1212 292.46446,533.88495 C 292.64071,533.8787 292.81821,533.8762 292.99821,533.8762"
         id="path145"
         style="fill:#fee011;fill-opacity:1;fill-rule:nonzero;stroke:none" />
      <path
         d="M 301.01696,539.5587 C 300.15071,539.5587 299.28321,539.54245 298.43446,539.52495 C 298.08321,538.8487 297.87446,538.0862 297.58196,537.3512 C 296.88946,537.31245 296.18696,537.29995 295.47446,537.29995 C 294.05071,537.29995 292.58696,537.3512 291.08446,537.3512 L 290.26446,539.49245 L 290.14696,539.5562 L 285.69446,539.5562 L 285.66821,539.4662 L 292.51696,522.3062 C 293.10321,522.27745 293.73321,522.26245 294.36321,522.26245 C 294.99196,522.26245 295.62196,522.27745 296.20821,522.3062 L 302.97196,539.52495 C 302.32696,539.54995 301.67321,539.5587 301.01696,539.5587 M 292.99821,533.8762 C 293.30571,533.8762 293.61696,533.8837 293.92321,533.88995 C 294.27321,533.89745 294.62196,533.90495 294.96446,533.90495 C 295.37696,533.90495 295.78321,533.8937 296.17571,533.85245 L 294.36571,528.65495 C 293.68946,530.38495 293.04446,532.1212 292.46446,533.88495 C 292.64071,533.8787 292.81821,533.8762 292.99821,533.8762"
         id="path147"
         style="fill:#231f20;fill-opacity:1;fill-rule:nonzero;stroke:none" />
      <path
         d="M 278.64321,540.1137 C 277.68446,540.1137 276.72321,539.9687 275.80446,539.6737 C 272.75821,538.76245 270.09071,535.61495 269.65321,532.50495 C 269.06821,528.62245 270.76696,524.9537 274.16446,522.9562 C 275.44946,522.15495 277.06321,521.7587 278.68071,521.7587 C 280.26946,521.7587 281.86196,522.13995 283.15446,522.89745 C 283.70821,523.2487 284.29446,523.59995 284.79446,524.1012 C 284.00196,525.09745 283.09571,526.0987 282.21696,527.0362 C 281.24946,526.45745 280.02196,526.0937 278.81321,526.0937 C 278.11946,526.0937 277.43071,526.2137 276.80071,526.4812 C 275.27821,527.06745 274.10571,528.6862 273.90321,530.2687 C 273.66946,532.2712 274.54321,534.08745 276.26821,535.1462 C 276.98571,535.63245 277.89696,535.8512 278.82446,535.8512 C 280.02446,535.8512 281.25321,535.48495 282.12696,534.8537 C 282.28446,534.77745 282.44196,534.5512 282.59946,534.5512 C 282.61821,534.5512 282.63571,534.5537 282.65446,534.5612 L 284.61946,537.90495 C 283.00821,539.35745 280.83196,540.1137 278.64321,540.1137"
         id="path149"
         style="fill:#fee011;fill-opacity:1;fill-rule:nonzero;stroke:none" />
      <path
         d="M 278.64321,540.1137 C 277.68446,540.1137 276.72321,539.9687 275.80446,539.6737 C 272.75821,538.76245 270.09071,535.61495 269.65321,532.50495 C 269.06821,528.62245 270.76696,524.9537 274.16446,522.9562 C 275.44946,522.15495 277.06321,521.7587 278.68071,521.7587 C 280.26946,521.7587 281.86196,522.13995 283.15446,522.89745 C 283.70821,523.2487 284.29446,523.59995 284.79446,524.1012 C 284.00196,525.09745 283.09571,526.0987 282.21696,527.0362 C 281.24946,526.45745 280.02196,526.0937 278.81321,526.0937 C 278.11946,526.0937 277.43071,526.2137 276.80071,526.4812 C 275.27821,527.06745 274.10571,528.6862 273.90321,530.2687 C 273.66946,532.2712 274.54321,534.08745 276.26821,535.1462 C 276.98571,535.63245 277.89696,535.8512 278.82446,535.8512 C 280.02446,535.8512 281.25321,535.48495 282.12696,534.8537 C 282.28446,534.77745 282.44196,534.5512 282.59946,534.5512 C 282.61821,534.5512 282.63571,534.5537 282.65446,534.5612 L 284.61946,537.90495 C 283.00821,539.35745 280.83196,540.1137 278.64321,540.1137"
         id="path151"
         style="fill:#231f20;fill-opacity:1;fill-rule:nonzero;stroke:none" />
      <path
         d="M 322.74571,539.5612 L 318.34696,539.5562 L 318.32071,522.3062 L 318.37946,522.27995 L 322.74571,522.2637 L 322.74571,539.5612"
         id="path153"
         style="fill:#fee011;fill-opacity:1;fill-rule:nonzero;stroke:none" />
      <path
         d="M 322.74571,539.5612 L 318.34696,539.5562 L 318.32071,522.3062 L 318.37946,522.27995 L 322.74571,522.2637 L 322.74571,539.5612"
         id="path155"
         style="fill:#231f20;fill-opacity:1;fill-rule:nonzero;stroke:none" />
      <path
         d="M 315.65196,539.5612 L 305.16571,539.5562 L 305.10696,522.3062 C 305.64071,522.2837 306.39821,522.27745 307.13196,522.27745 C 308.33321,522.27745 309.47446,522.2962 309.47446,522.2962 L 309.47446,535.52495 C 310.21696,535.55745 310.97071,535.56495 311.72446,535.56495 C 312.07321,535.56495 312.42196,535.5637 312.77071,535.56245 C 313.00696,535.56245 313.24321,535.5612 313.47821,535.5612 C 314.18696,535.5612 314.89446,535.56495 315.59321,535.5887 C 315.65196,535.93995 315.65196,539.5612 315.65196,539.5612"
         id="path157"
         style="fill:#fee011;fill-opacity:1;fill-rule:nonzero;stroke:none" />
      <path
         d="M 315.65196,539.5612 L 305.16571,539.5562 L 305.10696,522.3062 C 305.64071,522.2837 306.39821,522.27745 307.13196,522.27745 C 308.33321,522.27745 309.47446,522.2962 309.47446,522.2962 L 309.47446,535.52495 C 310.21696,535.55745 310.97071,535.56495 311.72446,535.56495 C 312.07321,535.56495 312.42196,535.5637 312.77071,535.56245 C 313.00696,535.56245 313.24321,535.5612 313.47821,535.5612 C 314.18696,535.5612 314.89446,535.56495 315.59321,535.5887 C 315.65196,535.93995 315.65196,539.5612 315.65196,539.5612"
         id="path159"
         style="fill:#231f20;fill-opacity:1;fill-rule:nonzero;stroke:none" />
      <path
         d="M 271.60196,548.9762 L 272.37321,548.9762 C 272.76321,548.9762 273.04821,549.14995 273.04821,549.4762 C 273.04821,549.85995 272.83446,550.0212 272.22446,550.0212 L 271.60196,550.0212 L 271.60196,548.9762 z M 270.49571,546.39745 L 270.49571,550.83495 L 272.65196,550.83495 C 273.94196,550.83495 274.21571,550.04245 274.21571,549.53495 C 274.21571,549.0137 273.90571,548.5587 273.27571,548.39495 C 273.64571,548.2137 273.87821,547.87995 273.87821,547.5087 C 273.87821,547.01495 273.45321,546.39745 272.41071,546.39745 L 270.49571,546.39745 z M 271.60196,547.20995 L 272.17946,547.20995 C 272.58071,547.20995 272.74321,547.45245 272.74321,547.67995 C 272.74321,547.91495 272.58071,548.16245 272.17946,548.16245 L 271.60196,548.16245 L 271.60196,547.20995"
         id="path161"
         style="fill:#ffffff;fill-opacity:1;fill-rule:nonzero;stroke:none" />
      <path
         d="M 286.68946,548.6162 C 286.68946,547.5487 285.82571,546.3387 284.15696,546.3387 C 282.48946,546.3387 281.61821,547.54245 281.61821,548.6162 C 281.61821,549.74995 282.53571,550.8962 284.15696,550.8962 C 285.74696,550.8962 286.68946,549.7562 286.68946,548.6162 z M 285.55321,548.6162 C 285.55321,549.42995 284.99321,549.9712 284.15696,549.9712 C 283.31446,549.9712 282.75571,549.42995 282.75571,548.6162 C 282.75571,547.8012 283.31446,547.2612 284.15696,547.2612 C 284.99321,547.2612 285.55321,547.8012 285.55321,548.6162"
         id="path163"
         style="fill:#ffffff;fill-opacity:1;fill-rule:nonzero;stroke:none" />
      <path
         d="M 294.26196,546.39745 L 294.26196,550.83495 L 296.09196,550.83495 C 297.85696,550.83495 298.66071,549.89995 298.66071,548.62245 C 298.66071,547.40745 297.82946,546.39745 296.21571,546.39745 L 294.26196,546.39745 z M 295.36571,547.20995 L 296.07196,547.20995 C 297.11821,547.20995 297.52571,547.85495 297.52571,548.6162 C 297.52571,549.26745 297.19321,550.0212 296.08446,550.0212 L 295.36571,550.0212 L 295.36571,547.20995"
         id="path165"
         style="fill:#ffffff;fill-opacity:1;fill-rule:nonzero;stroke:none" />
      <path
         d="M 306.86071,548.75995 L 305.11196,546.39745 L 306.44946,546.39745 L 307.41071,547.7887 L 308.37946,546.39745 L 309.70821,546.39745 L 307.96196,548.75995 L 307.96196,550.83495 L 306.86071,550.83495 L 306.86071,548.75995"
         id="path167"
         style="fill:#ffffff;fill-opacity:1;fill-rule:nonzero;stroke:none" />
      <path
         d="M 318.90321,550.8962 L 318.42946,550.8962 L 316.48321,546.39745 L 317.65071,546.39745 L 318.69571,548.84995 L 319.83071,546.39745 L 320.72071,546.39745 L 321.85696,548.84995 L 322.89446,546.39745 L 324.06196,546.39745 L 322.12446,550.8962 L 321.64821,550.8962 L 320.27196,547.9987 L 318.90321,550.8962"
         id="path169"
         style="fill:#ffffff;fill-opacity:1;fill-rule:nonzero;stroke:none" />
      <path
         d="M 334.61321,550.83495 L 331.34946,550.83495 L 331.34946,546.39745 L 334.56696,546.39745 L 334.56696,547.20995 L 332.45321,547.20995 L 332.45321,548.1412 L 334.46946,548.1412 L 334.46946,548.95495 L 332.45321,548.95495 L 332.45321,550.0212 L 334.61321,550.0212 L 334.61321,550.83495"
         id="path171"
         style="fill:#ffffff;fill-opacity:1;fill-rule:nonzero;stroke:none" />
      <path
         d="M 344.82946,546.39745 L 343.55071,546.39745 L 341.76571,550.83495 L 342.93321,550.83495 L 343.26446,549.9562 L 345.24321,549.9562 L 345.60696,550.83495 L 346.79446,550.83495 L 344.82946,546.39745 z M 344.91696,549.1837 L 343.55696,549.1837 L 344.20321,547.45745 L 344.91696,549.1837"
         id="path173"
         style="fill:#ffffff;fill-opacity:1;fill-rule:nonzero;stroke:none" />
      <path
         d="M 354.08946,546.39745 L 354.08946,550.83495 L 355.19196,550.83495 L 355.19196,549.03495 L 355.50946,549.03495 C 356.10821,549.03495 356.28196,549.88495 356.75446,550.83495 L 357.97071,550.83495 C 357.34571,549.53495 357.20946,548.9887 356.75446,548.75995 C 357.26196,548.52745 357.51696,548.16245 357.51696,547.67245 C 357.51696,547.00995 356.97696,546.39745 356.06821,546.39745 L 354.08946,546.39745 z M 355.19196,547.20995 L 355.74946,547.20995 C 356.16571,547.20995 356.37946,547.3787 356.37946,547.71245 C 356.37946,548.0887 356.08071,548.21995 355.77696,548.21995 L 355.19196,548.21995 L 355.19196,547.20995"
         id="path175"
         style="fill:#ffffff;fill-opacity:1;fill-rule:nonzero;stroke:none" />
    </g>
  </g>
</svg>
