<?xml version="1.0" encoding="utf-8"?>
<!-- Generator: Adobe Illustrator 21.1.0, SVG Export Plug-In . SVG Version: 6.00 Build 0)  -->
<svg version="1.1" id="Ebene_1" xmlns="http://www.w3.org/2000/svg" xmlns:xlink="http://www.w3.org/1999/xlink" x="0px" y="0px"
	 viewBox="0 0 2500 775" style="enable-background:new 0 0 2500 775;" xml:space="preserve">
<style type="text/css">
	.st0{fill:#1D99FA;}
	.st1{fill:#333333;}
</style>
<g>
	<g>
		<path d="M861,278.4c-64.2,0-88.5,28.3-88.5,80.5c0,51.7,24.6,79.7,88.5,79.7c65.5,0,88.2-27,88.2-79.7
			C949.2,306.7,925.4,278.4,861,278.4z M889.9,373c-0.5,4.7-0.8,9.4-2.3,13.8c-3.1,9.1-10.9,16.1-26.4,16.1
			c-15.8,0-23.8-7-26.9-16.1c-1.6-4.4-2.1-9.1-2.3-13.8c0-4.7,0.1-9.9,0.1-14.3v-15.4c0.3-4.4,0.8-9.1,2.3-13.2
			c3.4-8.8,11.1-15.6,26.4-15.6c15.5,0,23.5,6.2,26.9,15.3c1.6,4.2,1.8,8.8,2.3,13.5c0.3,4.4,0,11,0,15.6
			C890,363.1,890.2,368.3,889.9,373z M689.8,213.9c37.1,0,70.9,14.1,96.3,37.4c0,0,0,0,0.1,0c14.4-10.2,31-17.6,49-21.2
			c-36.2-42.1-85.8-72.5-145.6-72.5c-74,0-138.4,40.5-172.9,100.5h-93.9l-25.6,56.5c0,0,147.4,0,156.1,0
			C571.5,256.2,625.7,213.9,689.8,213.9z M689.8,501.1c-63.2,0-116.9-41.2-135.8-98.3c-10.4,0-229,0-229,0l20.1,52.6h170.5
			c34.2,60.8,99.4,102.1,173.9,102.1c59.6,0,109.1-30.2,145.3-72.2c-18-3.7-34.6-11.1-49-21.4C760.5,487.1,726.8,501.1,689.8,501.1z
			 M695,314.6h60c8.1,0,12.6-9.4,7.5-15.7c-17.9-22.4-45.8-36.3-76.9-35c-48.3,2-87.5,41.6-89.3,90c-2,53.4,40.5,97.4,93.3,97.4
			c28.2,0,53.5-12.6,70.6-32.4c5.4-6.2,0.9-16-7.3-16h-58c-18.2,0-33.1-15-33.1-33.3v-21.7C661.9,329.5,676.8,314.6,695,314.6z
			 M1644,332.4c0-40.5-35.5-51.4-81-51.4h-73.8v155.8h56.4v-63.4l42.4,63.4l65,0l-44.3-58.2C1636,367.2,1644,353.7,1644,332.4z
			 M1563.5,354.3h-18.1V315h18.1c17.9,0,21.5,6,21.5,19.2C1585,347.5,1582.2,354.3,1563.5,354.3z M1835.5,278.4
			c-64.2,0-88.5,28.3-88.5,80.5c0,51.7,24.6,79.7,88.5,79.7c65.5,0,88.2-27,88.2-79.7C1923.7,306.7,1899.9,278.4,1835.5,278.4z
			 M1864.2,373c-0.5,4.7-0.8,9.4-2.3,13.8c-3.1,9.1-10.9,16.1-26.4,16.1c-15.8,0-23.8-7-26.9-16.1c-1.6-4.4-2.1-9.1-2.3-13.8v-29.6
			c0.3-4.4,0.8-9.1,2.3-13.2c3.4-8.8,11.1-15.6,26.4-15.6c15.8,0,23.8,6.2,26.9,15.3c1.6,4.2,1.8,8.8,2.3,13.5
			c0.3,4.4,0,10.9,0,15.6C1864.2,363.1,1864.5,368.3,1864.2,373z M1385.9,278.4c-64.2,0-88.5,28.3-88.5,80.5
			c0,51.7,24.8,79.7,88.5,79.7c65.5,0,88.2-27,88.2-79.7C1474.2,306.7,1450.3,278.4,1385.9,278.4z M1414.9,373
			c-0.5,4.7-0.8,9.4-2.3,13.8c-3.1,9.1-10.9,16.1-26.4,16.1c-15.8,0-23.8-7-26.9-16.1c-1.6-4.4-2.1-9.1-2.3-13.8v-14.3
			c0-4.2,0.1-10.7,0.1-15.3c0.3-4.4,0.8-9.1,2.3-13.2c3.4-8.8,11.1-15.6,26.4-15.6c15.8,0,23.5,6.2,26.9,15.3
			c1.6,4.2,1.8,8.8,2.3,13.5c0.3,4.4-0.1,10.9-0.1,15.6C1414.9,363.1,1415.2,368.3,1414.9,373z M1668.2,436.9h63.7V281h-63.7V436.9z
			 M1142,314.5h45.8v122.3h57.4V314.5h45l0-33.5H1142V314.5z M1078.2,359.6l-6-7.1l-60.6-72.6h-47.3v156.6h49.4v-86l74.9,86.3h39
			V280.2h-49.4V359.6z M2052,280.2v79.4l-6-7.1l-60.6-72.6h-47.3v156.6h49.4v-86l74.9,86.3h39V280.2H2052z"/>
	</g>
	<path class="st0" d="M1320,554.6h10.4l5.5-26.4h26l1.8-8.5h-26.1l3.2-15.6h30.1l1.8-9h-40.4L1320,554.6z M1424.5,531.8
		c-0.7,3.1-1.5,5.6-2.6,7.5c-1.1,2-2.3,3.5-3.6,4.7c-1.4,1.1-2.9,1.9-4.6,2.4s-3.5,0.7-5.5,0.7c-1.8,0-3.5-0.2-5.1-0.5
		s-2.9-1-4.1-1.8c-1.2-0.8-2.1-1.9-2.7-3.3c-0.6-1.4-0.9-3-0.9-5c0.1-0.8,0.1-1.7,0.2-2.5c0.1-0.8,0.3-1.6,0.4-2.4l7.6-36.4h-10.4
		l-7.3,34.5c-0.3,1.3-0.5,2.7-0.7,4c-0.2,1.3-0.3,2.7-0.3,4c0,3.1,0.6,5.8,1.8,8.1c1.2,2.3,2.8,4.2,4.8,5.7c2,1.5,4.3,2.6,7,3.4
		c2.7,0.7,5.4,1.1,8.4,1.1c5.4,0,9.7-0.8,13.1-2.3c3.4-1.5,6.1-3.5,8.1-5.8c2-2.3,3.5-4.9,4.4-7.7c0.9-2.8,1.7-5.4,2.2-7.8l7.8-37.3
		h-10.4L1424.5,531.8z M1432.5,479.4h-9.1l-1.6,9h9.1L1432.5,479.4z M1058.5,495.2h-10.4l-12.3,59.4h40.2l1.8-9h-29.9L1058.5,495.2z
		 M1118.1,495.2h-10.4l-12.3,59.4h40.2l1.8-9h-29.9L1118.1,495.2z M997.2,495.2l-35.5,59.4h11.1l9.1-15.7h23.5l2.4,15.7h10.5
		l-10.3-59.4H997.2z M986.4,531l14.3-25.3h0.2l3.6,25.3H986.4z M1154.9,554.6h43.4l1.8-9h-33.2l3.6-17.4h30.6l1.7-8.5h-30.5
		l3.2-15.6h32.9l1.8-9h-43.1L1154.9,554.6z M1264.3,498c-2-1.5-4.3-2.6-7-3.2c-2.7-0.7-5.6-1-8.7-1c-3.5,0-6.6,0.5-9.3,1.4
		s-5,2.2-6.9,3.8s-3.3,3.6-4.3,5.9c-1,2.3-1.5,4.7-1.5,7.4c0,2.8,0.6,5.2,1.8,7c1.2,1.8,2.6,3.3,4.4,4.5c1.7,1.1,3.5,2,5.3,2.6
		c1.8,0.6,3.4,1,4.7,1.4c1.8,0.5,3.6,1,5.3,1.5c1.7,0.5,3.2,1.2,4.5,1.9c1.3,0.7,2.4,1.7,3.2,2.8c0.8,1.1,1.2,2.5,1.2,4.2
		c0,1.8-0.4,3.3-1.3,4.5c-0.9,1.2-1.9,2.2-3.2,2.9c-1.3,0.8-2.7,1.3-4.3,1.6c-1.6,0.3-3.1,0.5-4.4,0.5c-4.3,0-7.7-0.9-10.2-2.8
		c-2.5-1.9-3.6-5.1-3.4-9.7h-10c-0.1,3.7,0.3,6.9,1.4,9.6s2.5,4.8,4.5,6.5c2,1.7,4.4,2.9,7.2,3.7c2.8,0.8,6,1.2,9.5,1.2
		c4.5,0,8.3-0.6,11.4-1.7c3.1-1.1,5.7-2.6,7.6-4.5c2-1.8,3.4-3.9,4.3-6.2c0.9-2.3,1.3-4.6,1.3-6.9c0-3.1-0.5-5.6-1.6-7.6
		c-1.1-1.9-2.5-3.5-4.2-4.7c-1.7-1.2-3.7-2.1-5.8-2.8c-2.1-0.7-4.2-1.3-6.3-1.8c-1.7-0.4-3.2-0.8-4.7-1.2c-1.5-0.4-2.8-1-3.9-1.7
		c-1.1-0.7-2-1.5-2.7-2.4c-0.7-0.9-1-2.1-1-3.6c0-2,0.5-3.6,1.4-4.7c0.9-1.1,2-2,3.3-2.6c1.3-0.6,2.5-1,3.8-1.2
		c1.3-0.2,2.3-0.2,3-0.2c4,0,7,0.8,9,2.5c2,1.6,3,4.3,3.1,8h10c0.1-3.5-0.4-6.5-1.5-8.9C1267.8,501.5,1266.3,499.5,1264.3,498z
		 M1503.7,497.3c-2-1-4.1-1.6-6.2-1.8c-2.1-0.2-3.8-0.3-5.1-0.3h-25.6l-12.3,59.4h10.5l5.1-24.5h12.4c1.4,0,2.7,0,4.1,0.1
		c1.3,0.1,2.5,0.3,3.6,0.7c1,0.4,1.9,1.1,2.5,2c0.6,0.9,1,2.3,1,4c0,2.2-0.2,4.3-0.5,6.5c-0.3,2.1-0.5,4.3-0.5,6.5
		c0,0.8,0,1.6,0.1,2.3c0.1,0.7,0.3,1.5,0.5,2.2h10.9c-0.4-0.8-0.7-1.6-0.9-2.4c-0.1-0.8-0.2-1.7-0.2-2.5c-0.1-2.1,0.1-4.1,0.4-6.2
		c0.3-2.1,0.5-4.1,0.5-6.2c0-2.5-0.4-4.7-1.3-6.5c-0.9-1.9-2.5-3.3-5-4.2v-0.2c4.2-0.8,7.5-2.5,9.9-5.1c2.4-2.6,3.6-6.3,3.6-11
		c0-3.6-0.7-6.4-2.2-8.4C1507.5,499.9,1505.8,498.3,1503.7,497.3z M1497.3,519.4c-2.4,1.9-5.8,2.8-10.2,2.8h-15.2l3.8-18.6h14.5
		c1.4,0,2.7,0.1,4,0.3c1.3,0.2,2.4,0.6,3.4,1.1c1,0.6,1.8,1.3,2.4,2.4s0.9,2.3,0.9,4C1500.8,514.9,1499.6,517.6,1497.3,519.4z
		 M1417.5,479.4h-9.1l-1.6,9h9.1L1417.5,479.4z M2015.9,554.6h10.4l5.5-26.4h26l1.8-8.5h-26.1l3.2-15.6h30.1l1.8-9h-40.4
		L2015.9,554.6z M1994,501c-2.2-2.3-5-4.1-8.2-5.4c-3.2-1.3-6.7-1.9-10.6-1.9s-7.7,0.7-11.5,2.2c-3.8,1.4-7.2,3.7-10.2,6.6
		c-3,3-5.4,6.7-7.3,11.3c-1.9,4.6-2.8,10-2.8,16.2c0,3.7,0.6,7.1,1.7,10.2c1.2,3.2,2.8,5.9,5.1,8.2c2.2,2.3,4.9,4.2,8.2,5.5
		c3.3,1.3,7,2,11.3,2c4,0,7.8-0.7,11.6-2.2c3.8-1.4,7.1-3.6,10-6.6c2.9-3,5.3-6.7,7-11.3c1.8-4.5,2.7-10,2.7-16.2
		c0-3.8-0.6-7.3-1.9-10.5C1997.9,506.1,1996.2,503.4,1994,501z M1989.4,530c-0.9,3.3-2.2,6.2-3.9,8.8c-1.7,2.6-3.9,4.7-6.5,6.3
		c-2.6,1.6-5.6,2.4-9,2.4c-5.2,0-9.2-1.6-12-4.7c-2.8-3.2-4.2-7.5-4.2-13.1c0-3.3,0.4-6.6,1.3-9.9c0.9-3.3,2.2-6.2,3.9-8.8
		c1.7-2.6,3.9-4.7,6.6-6.3c2.6-1.6,5.7-2.4,9.2-2.4c5.2,0,9.1,1.6,11.8,4.7c2.7,3.2,4,7.5,4,13.1
		C1990.7,523.4,1990.3,526.7,1989.4,530z M2077.3,554.6h10.4l12.4-59.4h-10.4L2077.3,554.6z M1857.4,506.1c-0.3-1.3-0.9-2.6-1.6-4
		c-0.7-1.3-1.8-2.5-3.2-3.5c-1.4-1-3.1-1.9-5.2-2.5c-2.1-0.6-4.7-1-7.8-1h-23.8l-12.3,59.4h10.4l4.7-22.8h17.7
		c3.6,0,6.6-0.4,9.1-1.3c2.5-0.9,4.5-2,6.1-3.4c1.6-1.4,2.8-2.8,3.7-4.4c0.9-1.6,1.5-3.1,1.9-4.4c0.4-1.4,0.7-2.5,0.7-3.5
		c0.1-0.9,0.1-1.4,0.1-1.5c0-0.9,0-2.1-0.1-3.3C1857.9,508.7,1857.7,507.4,1857.4,506.1z M1847.1,515.9c-0.4,1.4-1,2.6-1.8,3.7
		s-2,2-3.6,2.7c-1.5,0.7-3.4,1-5.8,1h-15.7l4.1-19.6h13.4c2.1,0,3.8,0.3,5.1,0.8s2.3,1.2,3,2c0.7,0.8,1.2,1.7,1.4,2.7
		c0.2,0.9,0.4,1.8,0.4,2.7C1847.6,513.2,1847.5,514.5,1847.1,515.9z M1738.2,539.5h-0.2l-18.2-44.4h-11.4l-12.3,59.4h10.4l9-44.1
		h0.2l18.2,44.1h11.4l12.3-59.4h-10.4L1738.2,539.5z M1919.7,497.3c-2-1-4.1-1.6-6.2-1.8c-2.1-0.2-3.8-0.3-5.1-0.3h-25.6l-12.3,59.4
		h10.5l5.1-24.5h12.4c1.4,0,2.7,0,4.1,0.1c1.3,0.1,2.5,0.3,3.6,0.7c1,0.4,1.9,1.1,2.5,2c0.6,0.9,1,2.3,1,4c0,2.2-0.2,4.3-0.5,6.5
		s-0.5,4.3-0.5,6.5c0,0.8,0,1.6,0.1,2.3c0.1,0.7,0.3,1.5,0.5,2.2h10.9c-0.4-0.8-0.7-1.6-0.9-2.4c-0.1-0.8-0.2-1.7-0.2-2.5
		c-0.1-2.1,0.1-4.1,0.4-6.2c0.3-2.1,0.5-4.1,0.5-6.2c0-2.5-0.4-4.7-1.3-6.5c-0.9-1.9-2.5-3.3-5-4.2v-0.2c4.2-0.8,7.5-2.5,9.9-5.1
		c2.4-2.6,3.6-6.3,3.6-11c0-3.6-0.7-6.4-2.2-8.4C1923.4,499.9,1921.7,498.3,1919.7,497.3z M1913.2,519.4c-2.4,1.9-5.8,2.8-10.2,2.8
		h-15.2l3.8-18.6h14.5c1.4,0,2.7,0.1,4,0.3c1.3,0.2,2.4,0.6,3.4,1.1c1,0.6,1.8,1.3,2.4,2.4c0.6,1,0.9,2.3,0.9,4
		C1916.7,514.9,1915.5,517.6,1913.2,519.4z M1632,554.6h43.4l1.8-9H1644l3.6-17.4h30.6l1.7-8.5h-30.5l3.2-15.6h32.9l1.8-9h-43.1
		L1632,554.6z M1594.2,495.2h-21.7l-12.4,59.4h20.8c3.7,0,6.9-0.2,9.5-0.6c2.6-0.4,5-1,7-1.8c2-0.8,3.9-1.9,5.6-3.1
		c1.7-1.2,3.4-2.7,5.1-4.5c1.6-1.6,3-3.4,4.1-5.5c1.2-2.1,2.1-4.2,2.9-6.5c0.8-2.2,1.4-4.5,1.7-6.7c0.4-2.2,0.6-4.2,0.6-6
		c0-8.3-2-14.6-5.9-18.7C1607.7,497.2,1601.9,495.2,1594.2,495.2z M1606.7,524c-0.2,1.7-0.7,3.5-1.3,5.4c-0.6,1.9-1.5,3.9-2.6,5.9
		c-1.1,2-2.4,3.8-4,5.4c-1.6,1.6-3.5,2.9-5.8,3.9c-2.2,1-4.9,1.5-7.8,1.5h-12.9l8.9-42.4h12.9c4.1,0,7.4,1.4,9.6,4.2
		c2.3,2.8,3.4,6.9,3.4,12.1C1607.1,521,1607,522.3,1606.7,524z"/>
</g>
</svg>
