<svg width="168" height="55" viewBox="0 0 168 55" fill="none" xmlns="http://www.w3.org/2000/svg">
<g clip-path="url(#clip0_14298_289)">
<path d="M168 0.618652H0V54.3041H168V0.618652Z" fill="#E30613"/>
<path d="M9.99195 29.3246H6.85889V43.7197H10.246C12.617 43.7197 16.7661 43.127 16.7661 36.5221C16.7661 32.1189 14.3952 29.3246 9.99195 29.3246ZM10.754 40.1633V32.881C12.5323 32.881 12.871 35.0826 12.871 36.6068C12.7863 37.9616 12.5323 40.1633 10.754 40.1633ZM19.6452 29.3246L16.1734 43.7197H20.1532L20.492 41.8568H23.117L23.371 43.7197H27.3508L24.3024 29.3246H19.6452ZM21 38.8084L21.5081 35.506C21.6774 34.5745 21.7621 33.7278 21.8468 32.7963C21.9315 33.7278 22.0161 34.5745 22.1008 35.506L22.5242 38.8084H21ZM34.8024 36.6068C35.2258 37.2842 35.4799 38.0463 35.4799 39.0625C35.4799 41.6875 33.617 43.8891 30.9073 43.8891C29.8911 43.8891 28.875 43.7197 28.0282 43.2963V38.8084C28.5363 39.5705 29.4678 40.4173 30.4839 40.4173C30.992 40.4173 31.5847 40.0786 31.5847 39.4858C31.5847 39.1471 31.5 38.8931 31.246 38.7237C31.0766 38.5544 30.8226 38.3004 30.5686 38.131C29.8065 37.5383 29.129 37.0302 28.621 36.2681C28.1129 35.5907 27.8589 34.8286 27.8589 33.7278C27.8589 32.0342 28.9597 28.9858 32.2621 28.9858C33.1936 28.9858 34.2097 29.2399 35.0565 29.7479V34.1512C34.6331 33.3891 33.7016 32.627 32.7702 32.627C32.3468 32.627 31.754 32.9657 31.754 33.4737C31.754 33.8125 31.9234 34.0665 32.0928 34.2358C32.2621 34.4899 32.6008 34.6592 32.7702 34.8286C33.7016 35.4213 34.379 36.0141 34.8024 36.6068ZM39.9678 29.3246H46.8266V32.7116H43.8629V34.8286H46.6573V38.2157H43.8629V43.7197H39.9678V29.3246ZM53.5161 29.3246H57.4113V38.7237C57.4113 40.4173 57.0726 43.9737 52.5 43.9737C48.0121 43.9737 47.5887 40.502 47.5887 38.7237V29.3246H51.4839V38.385C51.4839 38.8084 51.4839 39.2318 51.5686 39.6552C51.6532 40.0786 51.9073 40.3326 52.5 40.3326C53.0928 40.3326 53.2621 39.9939 53.4315 39.6552C53.5161 39.2318 53.5161 38.7237 53.5161 38.385V29.3246ZM58.2581 29.3246H66.4718V32.7963H64.2702V43.635H60.375V32.7963H58.2581V29.3246ZM67.3186 29.3246H75.5323V32.7963H73.3307V43.635H69.4355V32.7963H67.3186V29.3246ZM76.4637 29.3246H83.6613V32.7116H80.3589V34.7439H83.3226V38.131H80.3589V40.3326H83.6613V43.7197H76.4637V29.3246ZM94.0766 34.0665C94.0766 30.256 91.621 29.3246 88.2339 29.3246H84.5081V43.7197H88.4032V39.9092C88.4032 39.2318 88.4032 38.4697 88.3186 37.7923L90.4355 43.8044H94.6694L91.7903 37.7923C93.3992 37.1149 94.0766 35.6754 94.0766 34.0665ZM88.6573 35.9294H88.4032V32.3729C89.5041 32.2883 90.2661 32.881 90.2661 34.0665C90.1815 35.0826 89.6734 35.9294 88.6573 35.9294ZM101.02 29.3246H104.915V43.7197H101.02V37.877H99.1573V43.7197H95.2621V29.3246H99.1573V34.4899H101.02V29.3246ZM108.895 29.3246L105.423 43.7197H109.403L109.742 41.8568H112.367L112.621 43.7197H116.601L113.552 29.3246H108.895ZM110.335 38.8084L110.843 35.506C111.012 34.5745 111.097 33.7278 111.181 32.7963C111.266 33.7278 111.351 34.5745 111.436 35.506L111.859 38.8084H110.335ZM122.613 29.3246H126.508V38.7237C126.508 40.4173 126.169 43.9737 121.597 43.9737C117.109 43.9737 116.686 40.502 116.686 38.7237V29.3246H120.581V38.385C120.581 38.7237 120.581 39.2318 120.665 39.6552C120.75 40.0786 121.004 40.3326 121.597 40.3326C122.19 40.3326 122.359 39.9939 122.528 39.6552C122.613 39.2318 122.613 38.7237 122.613 38.385V29.3246ZM134.891 39.1471C134.891 41.7721 133.028 43.9737 130.319 43.9737C129.302 43.9737 128.286 43.8044 127.44 43.381V38.8931C127.948 39.6552 128.879 40.502 129.895 40.502C130.403 40.502 130.996 40.1633 130.996 39.5705C130.996 39.2318 130.911 38.9778 130.657 38.8084C130.488 38.6391 130.234 38.4697 129.98 38.2157C129.218 37.6229 128.54 37.1149 128.032 36.3528C127.524 35.6754 127.27 34.9133 127.27 33.8125C127.27 32.1189 128.371 29.0705 131.673 29.0705C132.605 29.0705 133.621 29.3245 134.468 29.8326V34.2358C134.044 33.4737 133.113 32.7116 132.181 32.7116C131.758 32.7116 131.165 33.0504 131.165 33.5584C131.165 33.8971 131.335 34.1512 131.504 34.3205C131.673 34.5745 132.012 34.7439 132.181 34.9133C133.028 35.506 133.621 36.0141 134.044 36.6915C134.637 37.2842 134.891 38.0463 134.891 39.1471Z" fill="white"/>
<path d="M162.327 45.9212C161.988 45.3285 161.141 44.7357 160.803 44.4817L160.04 43.8889C160.04 43.8889 160.295 43.2962 160.295 43.2115C161.141 41.1793 159.532 38.7236 158.262 37.3688C157.246 36.3527 155.807 34.9978 154.621 33.897C154.113 33.4736 153.774 33.1349 153.436 32.7962C152.42 31.8648 151.403 30.0865 151.403 30.0865L151.319 30.0019C151.319 29.9172 151.149 29.6631 151.065 29.4938C150.98 29.4091 150.98 29.2398 150.895 29.1551C151.065 28.4777 151.065 27.8002 150.895 27.3769C150.726 26.9535 150.218 26.6148 149.795 26.3607C149.879 26.276 149.964 26.1914 150.049 26.1914L150.303 25.9373L150.726 25.5986C150.811 25.6833 150.895 25.6833 150.895 25.6833C150.895 25.6833 151.234 25.768 151.319 25.6833C151.403 25.5139 151.234 25.3446 151.234 25.3446C151.234 25.3446 151.065 25.0059 150.895 24.4131C150.811 24.0744 150.895 23.9051 150.895 23.8204C151.149 23.7357 152.589 23.0583 152.758 21.7881C152.928 20.518 151.488 18.147 151.065 17.4696C151.234 16.9615 151.911 15.4373 151.911 14.0825C151.827 12.5583 150.557 10.6107 150.557 10.526C150.557 10.526 150.387 10.3567 150.303 10.3567C150.218 10.3567 150.049 10.6107 150.049 10.6107C150.049 10.6107 149.964 10.7801 149.625 10.7801C149.54 10.7801 149.54 10.7801 149.456 10.7801C149.117 10.7801 148.609 10.6107 147.932 10.3567L147.593 10.272V10.6107C147.593 10.6954 147.593 10.8648 147.508 10.9494C147.424 11.2881 147.339 11.6269 147.17 11.9656C147.085 12.0502 147.085 12.0502 147.085 12.1349C147 12.2196 146.831 12.5583 146.407 12.8123C146.069 13.0664 145.645 12.9817 145.645 12.9817L145.561 12.897C145.307 12.8123 145.137 12.5583 144.968 12.3043L144.883 12.1349L144.714 11.9656L144.29 11.8809C143.782 11.7962 143.359 11.7115 143.19 11.5422C142.936 11.3728 142.851 11.0341 142.766 10.6954C142.682 10.4414 142.682 10.1873 142.512 9.9333C142.343 9.59459 141.75 9.34056 140.819 9.00185C140.395 8.8325 139.887 8.66314 139.803 8.49379C139.718 8.40911 139.633 8.32443 139.549 8.23975C139.379 7.98572 139.125 7.73169 138.786 7.73169C138.702 7.73169 138.532 7.73169 138.448 7.81637L138.278 7.90104L138.363 8.0704C138.448 8.57846 138.363 9.25588 138.194 9.67927C138.024 10.018 137.347 10.526 136.754 10.8648C136.67 10.9494 136.585 10.9494 136.585 11.0341L136.415 11.1188L136.077 11.2035H135.823L135.653 11.4575C135.315 11.8809 135.061 13.0664 135.145 13.7438C135.145 14.4212 135.907 14.7599 135.907 14.7599L136.077 14.8446C136.161 14.8446 136.246 14.8446 136.246 14.8446C136.246 14.8446 136.5 14.8446 136.5 14.7599C136.754 15.268 137.432 15.9454 138.448 16.1148C138.532 16.1148 138.532 16.1148 138.617 16.1148C139.464 16.1148 140.057 15.3527 140.395 14.9293C140.48 14.8446 140.565 14.7599 140.565 14.6752H140.649C140.903 14.5059 140.903 14.5059 140.988 14.5059C141.073 14.5906 141.242 14.7599 141.327 14.9293C141.581 15.3527 141.835 15.6914 142.258 15.776H142.343C142.428 15.776 142.512 15.776 142.682 15.6914L142.766 15.9454L142.851 16.1994C143.867 18.147 144.629 21.6188 144.629 21.9575C144.629 22.0422 144.629 22.0422 144.629 22.1269C144.629 22.4656 144.545 22.8043 145.053 23.0583C145.645 23.3123 146.238 23.397 146.746 23.397C147.254 23.397 147.847 23.3123 147.847 23.3123C148.101 23.7357 148.355 24.0744 148.694 24.4131C148.694 24.4978 148.524 24.6672 148.44 24.6672C148.44 24.6672 148.186 24.8365 147.424 24.9212C147.254 24.9212 147.17 24.9212 147 24.9212C145.815 24.9212 144.545 24.5825 143.782 23.9898L143.613 23.9051L143.444 23.9898C143.359 24.0744 143.19 24.1591 143.02 24.2438C142.512 24.5825 141.665 25.0906 141.327 25.4293C140.565 26.022 140.988 26.9535 141.242 27.5462C141.327 27.6309 141.327 27.8002 141.411 27.8849C141.411 27.9696 141.496 28.2236 141.665 28.4777C142.343 30.0865 144.375 35.0825 144.375 37.1148C144.375 38.9777 144.206 42.026 144.206 43.0422C143.613 42.7881 142.343 42.2801 141.327 42.2801C140.734 42.2801 140.311 42.4494 140.057 42.7881C139.803 43.1269 139.549 43.4656 139.464 43.7196V43.8889C139.464 43.9736 139.379 44.2277 139.379 44.397C139.379 44.397 139.379 44.4817 139.379 44.5664L139.295 44.651C138.702 45.5825 138.532 47.276 138.956 47.6994C139.21 47.9535 139.633 48.0381 139.887 48.0381C140.057 48.0381 140.141 48.0381 140.141 48.0381L140.395 47.9535C140.48 47.9535 140.565 47.9535 140.565 47.8688C140.565 47.8688 140.649 47.8688 140.649 47.7841C140.734 47.9535 140.819 48.1228 140.903 48.2075C141.073 48.3769 141.327 48.5462 141.581 48.5462C141.665 48.5462 141.665 48.5462 141.75 48.5462C142.174 48.5462 142.936 48.4615 143.782 48.4615C144.29 48.4615 144.545 48.3769 144.968 48.3769C144.968 48.3769 145.476 48.6309 145.645 48.7156C146.238 48.8849 147.847 48.8849 147.932 48.8849C148.016 48.8849 153.436 48.6309 153.859 48.6309C155.214 48.5462 159.617 48.8849 160.04 48.8849C160.295 48.8849 160.633 48.8849 160.803 48.8002C161.48 48.5462 162.242 48.0381 162.665 47.1914C162.665 46.768 162.581 46.3446 162.327 45.9212Z" fill="#FFCC00"/>
<path d="M138.448 10.3573C138.194 10.5267 138.448 10.6961 138.448 10.8654C138.533 10.9501 138.533 10.7807 138.702 10.7807C138.787 10.696 138.787 10.5267 138.787 10.442C138.787 10.3573 138.617 10.2727 138.448 10.3573Z" fill="black"/>
<path d="M138.278 12.2201C138.278 12.3895 138.278 12.4741 138.448 12.5588C138.702 12.4741 138.532 12.3048 138.532 12.1354L138.363 11.9661C138.363 11.9661 138.278 12.1354 138.278 12.2201Z" fill="black"/>
<path d="M139.464 12.2201C139.379 12.3895 139.548 12.3895 139.633 12.4742C139.718 12.3895 139.802 12.2201 139.718 12.0508C139.633 12.1355 139.379 12.0508 139.464 12.2201Z" fill="black"/>
<path d="M137.516 12.8129C137.516 12.8976 137.601 12.9823 137.601 13.1516C137.855 13.2363 137.94 12.9823 138.024 12.8129C137.855 12.6436 137.516 12.5589 137.516 12.8129Z" fill="black"/>
<path d="M138.787 13.2363C138.871 13.3209 138.787 13.575 138.956 13.6596C139.21 13.6596 139.21 13.4056 139.295 13.2363C139.125 13.0669 138.871 12.9822 138.787 13.2363Z" fill="black"/>
<path d="M137.262 13.8293C137.178 13.9986 137.347 13.9986 137.432 14.168C137.601 14.168 137.686 13.9139 137.77 13.8293C137.686 13.6599 137.516 13.6599 137.432 13.6599C137.432 13.7446 137.347 13.7446 137.262 13.8293Z" fill="black"/>
<path d="M139.041 14.0825C139.125 14.1671 139.21 14.4212 139.379 14.3365C139.295 14.1671 139.718 13.9131 139.379 13.8284C139.21 13.7438 139.041 13.9131 139.041 14.0825Z" fill="black"/>
<path d="M147.509 39.9942C147.763 39.8249 148.44 39.4862 149.456 39.6555C152.42 40.1636 155.299 43.212 155.299 43.212L154.114 42.4499C154.114 42.4499 151.827 40.587 149.372 40.5023C148.525 40.5023 147.763 40.841 147.509 41.0104V39.9942Z" fill="black"/>
<path d="M163.004 46.6838C162.834 45.4983 160.972 44.1435 160.548 43.8048C160.633 43.6354 160.718 43.5507 160.802 43.3814C160.972 42.958 161.141 41.7725 161.056 41.1798C160.802 39.9943 159.871 38.6395 158.855 37.6233C157.839 36.6072 153.689 33.5588 152.589 31.5265C151.742 30.0024 151.403 29.2403 151.403 29.2403C151.403 29.2403 151.742 27.8007 151.572 27.2927C151.403 26.7846 150.81 26.2765 150.81 26.2765C150.81 26.2765 151.657 26.4459 151.826 26.0225C151.911 25.5991 151.318 24.6677 151.488 24.1596C151.572 23.6515 153.351 23.1435 153.351 21.7886C153.351 20.4338 151.403 17.4701 151.403 17.4701C151.403 17.4701 152.589 15.1838 152.419 13.9136C152.334 12.6435 150.726 10.4419 150.556 10.2725C150.387 10.1032 150.133 10.0185 149.964 10.1032C149.709 10.1878 149.794 10.3572 149.032 10.2725C148.693 10.2725 148.27 10.1032 147.931 9.9338C147.931 9.84913 147.931 9.76445 147.931 9.67977C147.931 9.59509 147.931 9.51042 147.847 9.34106C147.847 9.34106 147.847 9.34106 147.847 9.25638V9.17171V9.08703C147.847 9.08703 147.847 9.08703 147.847 9.00235C147.847 9.00235 147.847 8.91767 147.762 8.91767C147.762 8.833 147.762 8.833 147.677 8.833C147.423 8.40961 147.169 8.15558 146.746 8.0709C146.407 7.98622 146.153 8.0709 145.814 8.32493C145.052 8.15558 144.205 9.08703 143.951 10.2725C143.867 10.6112 143.867 10.8653 143.951 11.204C143.697 11.1193 143.528 10.9499 143.359 10.7806C143.105 10.4419 142.935 9.25638 141.834 8.91767C140.734 8.57896 139.633 7.13945 139.209 7.05477C138.786 6.97009 138.447 7.05477 138.447 7.05477C138.447 7.05477 138.193 6.03864 137.177 5.53058C136.161 5.02251 134.383 5.36122 133.705 5.95396C133.028 6.54671 132.943 7.22413 132.943 7.73219C132.943 8.32493 133.367 9.67977 134.044 10.2725C134.891 11.0346 135.399 11.1193 135.399 11.1193C135.145 11.712 134.722 13.4903 134.976 14.1677C135.145 14.8451 136.246 15.2685 136.246 15.2685C136.246 15.2685 136.839 16.5386 137.77 16.708C139.379 17.0467 140.31 15.9459 140.564 15.6072C140.734 15.3532 140.734 15.1838 140.903 15.0991C141.072 15.0991 141.326 15.6919 141.665 16.0306C141.834 16.2846 142.512 16.1153 142.512 16.1999C142.851 16.962 143.189 17.6394 143.443 18.2322C143.867 19.4177 144.121 20.3491 144.29 21.704C144.29 21.704 143.697 21.6193 143.443 21.8733C143.189 22.1274 143.189 23.3975 143.189 23.3975C143.189 23.3975 142.258 23.9903 141.75 24.329C141.157 24.6677 140.31 25.4298 140.141 26.1072C139.972 26.7846 140.988 28.3088 141.665 29.9177C142.343 31.5265 143.951 35.5064 144.036 37.5386C144.121 39.5709 143.867 42.6193 143.867 42.6193C143.105 42.1959 142.004 41.9419 141.242 41.8572C140.48 41.7725 139.464 42.0265 138.955 42.958C138.701 43.4661 138.701 44.0588 138.701 44.4822C138.363 44.9903 138.109 45.4983 138.109 45.7524C138.024 46.1757 137.431 48.208 138.701 48.5467C139.718 48.8007 140.141 48.5467 140.141 48.5467C140.141 48.5467 140.48 49.0548 141.072 49.0548C141.665 49.1395 143.274 49.0548 143.274 49.0548C143.274 49.0548 143.951 48.9701 144.968 48.8854C145.814 49.1394 146.661 49.1394 146.661 49.1394H159.955C162.496 49.2241 163.258 48.0386 163.004 46.6838ZM136.161 12.5588C135.992 13.3209 136.076 14.5064 136.076 14.5064C136.076 14.5064 135.314 14.1677 135.314 13.5749C135.314 12.9822 135.653 11.7967 135.992 11.3733C135.992 11.7967 136.246 12.1354 136.161 12.5588ZM143.105 16.0306C143.105 16.0306 143.443 15.8612 143.697 15.8612C143.951 15.8612 144.29 16.3693 144.883 16.3693C145.645 16.3693 146.407 15.0991 146.746 14.4217C146.746 14.4217 146.746 14.4217 146.83 14.4217C146.915 14.5064 147 14.6757 147 14.6757C147 14.6757 147.169 14.4217 147.084 14.2524C147 14.083 146.83 14.083 146.83 14.083C146.576 14.5064 145.56 15.7765 144.883 15.6919C144.544 15.6919 144.205 14.9298 143.867 14.9298C143.528 14.9298 142.766 15.4378 142.343 15.3532C141.919 15.3532 141.496 14.1677 141.157 14.083C140.818 13.9983 140.734 14.1677 140.48 14.337C140.226 14.5064 139.633 15.7765 138.617 15.6919C137.601 15.6072 136.923 14.6757 136.839 14.337C136.415 13.0669 137.177 12.4741 136.839 11.0346C137.516 10.6112 138.363 10.1032 138.532 9.59509C138.701 9.08703 138.871 8.40961 138.786 7.81687C139.209 7.56284 139.379 8.0709 139.802 8.40961C140.226 8.833 142.173 9.25638 142.427 9.76445C142.681 10.2725 142.681 10.9499 143.105 11.3733C143.443 11.6274 143.951 11.712 144.375 11.7967L144.714 11.8814L144.883 12.1354C145.052 12.4741 145.306 12.7282 145.645 12.8975C145.73 12.8975 145.814 12.9822 145.814 12.9822C146.407 13.0669 147 12.7282 147.423 12.0507C147.508 11.9661 147.508 11.8814 147.508 11.8814C147.677 11.5427 147.762 11.204 147.847 10.7806C147.847 10.6959 147.847 10.5265 147.931 10.4419C148.355 10.6112 148.947 10.7806 149.455 10.8653C150.133 10.9499 150.302 10.6112 150.302 10.6112C150.302 10.6112 151.572 12.4741 151.657 13.9983C151.657 15.5225 150.81 17.3854 150.81 17.3854C150.81 17.3854 152.758 20.2644 152.504 21.6193C152.334 22.8894 150.81 23.4822 150.81 23.4822C150.81 23.4822 150.472 23.6515 150.641 24.329C150.81 25.0064 150.98 25.3451 150.98 25.3451C150.98 25.3451 148.693 24.2443 148.016 22.4661C147.169 20.1798 147.423 17.5548 147.931 16.2846C148.439 15.0144 150.048 13.3209 150.048 13.3209L149.709 11.9661C149.709 11.9661 149.794 12.6435 149.201 13.5749V13.6596C149.201 13.6596 148.863 14.1677 148.524 14.5064C148.27 14.8451 147.423 15.9459 147.084 17.2161C146.576 19.1636 146.661 19.7564 146.83 20.7725C147 21.8733 147.423 22.8048 147.423 22.8048C147.423 22.8048 146.746 23.1435 145.222 22.5507C144.883 22.3814 144.968 22.0427 144.968 21.704C144.883 21.6193 144.121 18.0628 143.105 16.0306ZM141.411 48.2927C140.818 48.2927 140.649 47.6153 140.734 47.1072C140.818 46.5145 141.242 45.837 141.242 45.837C141.242 45.837 140.056 46.3451 139.972 47.0225C139.887 47.3612 139.972 47.6999 139.972 47.6999C139.972 47.6999 139.379 47.7846 139.04 47.4459C138.701 47.1072 138.871 45.6677 139.464 44.7362C140.056 43.8894 141.496 44.4822 142.512 44.8209V44.1435C142.089 43.9741 141.326 43.7201 140.564 43.6354C140.31 43.6354 140.056 43.6354 139.802 43.8048C139.887 43.5507 139.972 43.2967 140.31 42.958C141.326 41.8572 144.544 43.4661 144.544 43.4661C144.544 43.4661 144.798 39.4862 144.798 37.1153C144.798 34.7443 142.004 28.3935 141.834 27.8007C141.58 27.208 141.072 26.2765 141.75 25.6838C142.258 25.1757 143.613 24.4136 143.867 24.2443C144.883 25.0064 146.576 25.3451 147.677 25.1757C148.524 25.0911 148.863 24.9217 148.863 24.9217C148.863 24.9217 149.964 25.7685 150.133 25.9378C149.964 26.1072 149.625 26.4459 149.625 26.4459C149.625 26.4459 150.726 26.954 150.895 27.462C151.064 27.9701 151.064 29.0709 150.556 30.0024C150.048 30.8491 149.371 31.3572 149.286 31.9499C149.201 32.458 149.625 32.7967 149.879 33.1354C150.048 33.4741 148.863 33.4741 148.609 33.8128C148.439 34.1515 149.201 34.4056 149.286 34.6596C149.371 34.9136 148.524 35.083 148.27 35.083C148.185 35.083 148.101 35.083 148.101 35.083C148.101 35.083 146.915 38.7241 146.746 40.333C146.576 41.9419 147 45.9217 147 45.9217C147 45.9217 147.254 46.0911 147.593 46.0064C147.931 45.9217 148.27 45.7524 148.27 45.7524C148.101 45.583 147.847 45.2443 147.762 44.9056C147.677 44.5669 147.254 42.4499 147.508 39.9943C147.762 37.7927 148.778 35.5064 148.947 35.083C148.947 35.083 149.032 35.083 149.117 35.083C149.371 35.083 150.218 34.9983 150.218 34.7443C150.302 34.4903 149.286 33.8975 149.54 33.8128C149.879 33.7282 150.556 33.8128 150.726 33.4741C150.895 33.1354 149.964 32.1193 150.133 31.8653C150.641 31.2725 151.318 30.1717 151.318 30.1717C151.318 30.1717 152.419 31.9499 153.435 32.9661C154.451 33.8975 156.907 36.0144 158.262 37.454C159.447 38.7241 161.141 41.0951 160.209 43.0427C159.955 43.6354 159.193 44.5669 158.685 44.9056C157.669 44.4822 155.722 44.2282 154.282 44.3975C152.589 44.5669 149.455 45.837 147.931 46.3451C146.407 46.8532 142.851 44.2282 142.851 44.2282C142.851 44.2282 143.105 46.8532 143.867 48.0386C143.867 48.1233 143.951 48.1233 143.951 48.208C142.766 48.2927 141.75 48.2927 141.411 48.2927ZM160.464 48.6314C159.617 48.8854 156.992 48.208 154.875 48.208C152.758 48.208 147.254 48.8007 146.153 48.5467C143.697 48.1233 143.443 45.4136 143.443 45.4136C143.443 45.4136 145.306 47.0225 146.915 47.1072C149.032 47.2765 150.895 45.329 153.774 44.9056C156.653 44.4822 158.177 45.6677 158.77 45.9217C159.278 46.1757 159.786 46.1757 159.786 46.1757C159.786 46.1757 159.532 45.6677 159.532 45.2443C159.701 45.0749 159.955 44.8209 160.209 44.4822C160.718 44.7362 161.903 45.4983 162.326 46.3451C162.58 47.0225 161.31 48.3774 160.464 48.6314Z" fill="black"/>
<path d="M145.476 44.8206C145.476 44.8206 145.391 42.5343 145.476 40.8407C145.561 39.1472 145.73 37.623 145.645 36.6915C145.561 35.7601 145.137 34.6593 145.053 32.7964C144.883 30.9335 145.391 27.5464 145.391 27.5464C145.391 27.5464 144.29 31.1875 144.46 32.627C144.544 34.0665 145.053 36.0141 145.053 36.9456C145.053 37.877 144.968 39.0625 144.883 40.3327C144.883 41.6028 144.714 44.2278 144.714 44.2278C144.714 44.2278 144.121 44.2278 143.528 44.3125L144.375 44.9053C144.883 44.8206 145.476 44.8206 145.476 44.8206Z" fill="black"/>
<path d="M144.968 7.47811C144.968 7.47811 145.561 6.54666 146.069 6.54666C146.407 6.54666 146.407 6.71601 146.746 6.71601C147.085 6.71601 147.508 6.29263 147.847 6.63134C148.27 7.05472 148.355 8.91763 148.355 8.91763C148.355 8.91763 147.847 7.05472 147.085 7.05472C146.746 7.05472 146.577 7.1394 146.407 7.1394C146.238 7.1394 146.069 6.97005 145.899 6.97005C145.73 6.97005 144.968 7.47811 144.968 7.47811Z" fill="black"/>
<path d="M135.145 6.96972C135.061 7.64714 135.823 8.40923 136.077 8.49391C136.331 8.66327 136.923 8.83262 137.093 8.40923C137.347 7.90117 137.347 7.05439 136.923 6.71568C136.585 6.46165 135.315 6.2923 135.145 6.96972Z" fill="white"/>
<path d="M143.782 23.3125C143.951 23.6512 144.629 24.498 145.899 24.5826C147.169 24.752 148.016 24.3286 148.016 24.3286L147.508 23.4818C147.508 23.4818 146.153 23.8205 145.137 23.3972C144.375 23.0584 143.782 22.2117 143.782 22.2117C143.782 22.2117 143.697 22.9738 143.782 23.3125Z" fill="white"/>
<path d="M147.254 10.695C147.424 9.50955 147.085 8.49342 146.492 8.40875C146.238 8.32407 145.984 8.49342 145.73 8.74746C145.645 8.66278 145.561 8.66278 145.561 8.66278C145.053 8.5781 144.46 9.25552 144.291 10.2716C144.206 10.695 144.206 11.0337 144.291 11.3725C144.375 11.3725 144.46 11.4571 144.545 11.4571C144.629 11.4571 144.714 11.4571 144.799 11.4571L144.883 11.2031C144.883 11.9652 145.222 12.5579 145.73 12.6426C146.069 12.7273 146.407 12.4733 146.662 12.1346C146.662 12.1346 146.662 12.0499 146.746 12.0499C147 11.7112 147.17 11.2031 147.254 10.695Z" fill="white"/>
<path d="M145.222 9.67963C145.222 9.51028 145.137 9.4256 145.052 9.4256C144.968 9.34092 144.714 9.51028 144.629 9.67963C144.29 10.103 144.544 10.6958 144.714 10.7804C144.798 10.7804 144.968 10.6958 145.052 10.5264C145.052 10.2724 145.137 9.93366 145.222 9.67963Z" fill="black"/>
<path d="M145.56 9.67953C145.645 9.51017 145.899 9.34082 146.068 9.34082C146.153 9.4255 146.322 9.76421 146.238 10.1876C146.153 10.611 145.899 10.9497 145.73 10.865C145.476 10.865 145.137 10.1876 145.56 9.67953Z" fill="black"/>
</g>
<defs>
<clipPath id="clip0_14298_289">
<rect width="168" height="54.9231" fill="white"/>
</clipPath>
</defs>
</svg>
