<?xml version="1.0" encoding="UTF-8" standalone="no"?>
<svg
   xmlns:dc="http://purl.org/dc/elements/1.1/"
   xmlns:cc="http://creativecommons.org/ns#"
   xmlns:rdf="http://www.w3.org/1999/02/22-rdf-syntax-ns#"
   xmlns:svg="http://www.w3.org/2000/svg"
   xmlns="http://www.w3.org/2000/svg"
   viewBox="0 0 188.90074 79.266265"
   height="79.266266"
   width="188.90074"
   xml:space="preserve"
   id="svg2"
   version="1.1"><metadata
     id="metadata8"><rdf:RDF><cc:Work
         rdf:about=""><dc:format>image/svg+xml</dc:format><dc:type
           rdf:resource="http://purl.org/dc/dcmitype/StillImage" /><dc:title></dc:title></cc:Work></rdf:RDF></metadata><defs
     id="defs6" /><g
     transform="matrix(1.3333333,0,0,-1.3333333,-205.18264,1256.3573)"
     id="g10"><path
       d="m 230.34949,933.28303 c 0,-5.073 -2.823,-8.268 -6.307,-8.268 -3.487,0 -6.311,3.181 -6.311,8.268 0,6.245 6.312,8.985 6.312,8.985 0,0 6.306,-2.74 6.306,-8.985"
       style="fill:#c11933;fill-opacity:1;fill-rule:nonzero;stroke:none"
       id="path1418" /><path
       d="m 204.98948,925.90993 c 4.455,-2.435 5.903,-6.448 4.233,-9.503 -1.669,-3.057 -5.82,-4.004 -10.282,-1.567 -5.476,2.992 -4.862,9.842 -4.862,9.842 0,0 5.434,4.217 10.911,1.228"
       style="fill:#ffd800;fill-opacity:1;fill-rule:nonzero;stroke:none"
       id="path1422" /><path
       d="m 249.15217,914.83963 c -4.461,-2.423 -8.615,-1.456 -10.272,1.609 -1.656,3.062 -0.207,7.064 4.267,9.484 5.491,2.965 10.909,-1.271 10.909,-1.271 0,0 0.586,-6.846 -4.904,-9.822"
       style="fill:#00467f;fill-opacity:1;fill-rule:nonzero;stroke:none"
       id="path1426" /><path
       d="m 216.70648,933.00353 c 2.581,-4.381 1.775,-8.562 -1.228,-10.333 -2.996,-1.767 -7.053,-0.465 -9.639,3.918 -3.169,5.373 0.87,10.945 0.87,10.945 0,0 6.83,0.842 9.997,-4.53"
       style="fill:#f99d1c;fill-opacity:1;fill-rule:nonzero;stroke:none"
       id="path1430" /><path
       d="m 242.23988,926.57033 c -2.587,-4.365 -6.647,-5.674 -9.649,-3.899 -2.991,1.778 -3.799,5.951 -1.203,10.336 3.186,5.365 10.008,4.51 10.008,4.51 0,0 4.026,-5.578 0.844,-10.947"
       style="fill:#6d2c91;fill-opacity:1;fill-rule:nonzero;stroke:none"
       id="path1434" /><path
       d="m 291.59859,916.73233 h -53.336 c -2.91,4.792 -8.183,7.995 -14.203,7.995 -6.012,0 -11.287,-3.203 -14.194,-7.995 h -52.02 c -2.789,0 -4.5,-2.217 -3.803,-4.926 l 6.229,-24.065 c 0.695,-2.706 3.559,-4.923 6.351,-4.923 h 116.206 c 2.795,0 5.649,2.217 6.35,4.923 l 6.227,24.065 c 0.701,2.709 -1.013,4.926 -3.807,4.926"
       style="fill:#005837;fill-opacity:1;fill-rule:nonzero;stroke:none"
       id="path1438" /><path
       d="m 203.66548,899.48983 c 0.625,1.165 1.385,3.628 -0.85,3.628 -2.079,0 -2.68,-2.147 -3.073,-3.628 z m -4.916,-2.397 c -0.553,-1.816 -2.008,-4.8 0.73,-4.8 0.985,0 2.355,0.6 2.564,2.64 h 6.53 c -0.387,-2.496 -2.76,-5.602 -9.934,-5.553 -5.096,0.035 -8.143,3.172 -6.457,8.496 1.47,4.646 3.919,8.37 11.262,8.349 6.316,-0.028 8.51,-4.029 6.252,-9.132 z"
       style="fill:#ffffff;fill-opacity:1;fill-rule:nonzero;stroke:none"
       id="path1442" /><path
       d="m 262.12788,899.48983 c 0.622,1.165 1.384,3.628 -0.856,3.628 -2.075,0 -2.674,-2.147 -3.066,-3.628 z m -4.917,-2.397 c -0.556,-1.816 -2.013,-4.8 0.728,-4.8 0.982,0 2.356,0.6 2.564,2.64 h 6.537 c -0.393,-2.496 -2.766,-5.602 -9.943,-5.553 -5.093,0.035 -8.138,3.172 -6.456,8.496 1.47,4.646 3.927,8.37 11.262,8.349 6.323,-0.028 8.522,-4.029 6.252,-9.132 z"
       style="fill:#ffffff;fill-opacity:1;fill-rule:nonzero;stroke:none"
       id="path1446" /><path
       d="m 216.47488,910.33223 h 6.127 l -2.198,-6.785 h 0.061 c 1.39,1.19 2.965,2.072 5.467,2.051 3.435,-0.021 4.762,-1.7 3.637,-5.237 l -3.261,-10.253 h -6.135 l 2.48,7.758 c 0.561,1.783 1.633,4.617 -0.43,4.651 -2.176,0.043 -2.588,-2.125 -3.37,-4.596 l -2.492,-7.813 h -6.363 z"
       style="fill:#ffffff;fill-opacity:1;fill-rule:nonzero;stroke:none"
       id="path1450" /><path
       d="m 234.54619,905.42543 h 6.174 l -0.345,-1.329 c 1.66,0.848 2.874,1.797 5.228,1.77 3.095,-0.034 5.01,-1.654 3.831,-5.435 l -3.306,-10.326 h -6.091 l 2.472,7.914 c 0.595,2.043 1.879,4.643 -0.548,4.715 -1.548,0.049 -2.532,-1.542 -3.313,-4.012 l -2.833,-8.66 -6.13,0.043 z"
       style="fill:#ffffff;fill-opacity:1;fill-rule:nonzero;stroke:none"
       id="path1454" /><path
       d="m 284.19208,902.35533 c -2.939,0.045 -3.494,-0.311 -4.344,-0.867 -1.42,-0.931 -2.188,-2.21 -2.611,-3.367 l -2.362,-8.013 h -6.356 l 4.883,15.369 6.171,0.014 -0.15,-1.126 c 3.259,1.69 4.75,1.673 6.005,1.632 z"
       style="fill:#ffffff;fill-opacity:1;fill-rule:nonzero;stroke:none"
       id="path1458" /><path
       d="m 175.57847,893.33673 h 2.559 c 2.005,-0.022 4.208,2.626 5.2,6.27 1.068,3.951 1.632,6.188 -1.164,6.188 h -2.537 z m -1.887,15.456 h 12.12 c 6.531,0.021 5.939,-5.328 4.948,-9.466 -0.984,-4.119 -4.521,-9.219 -10.672,-9.219 h -12.259 z"
       style="fill:#ffffff;fill-opacity:1;fill-rule:nonzero;stroke:none"
       id="path1462" /></g></svg>