<?xml version="1.0" encoding="UTF-8" standalone="no"?>
<!-- Created with Inkscape (http://www.inkscape.org/) -->

<svg
   version="1.1"
   id="svg2"
   width="158.74001"
   height="79.369736"
   viewBox="0 0 158.74001 79.369736"
   sodipodi:docname="EF_Logo_ClaimOutline4c_DE.ai"
   xmlns:inkscape="http://www.inkscape.org/namespaces/inkscape"
   xmlns:sodipodi="http://sodipodi.sourceforge.net/DTD/sodipodi-0.dtd"
   xmlns="http://www.w3.org/2000/svg"
   xmlns:svg="http://www.w3.org/2000/svg">
  <defs
     id="defs6">
    <clipPath
       clipPathUnits="userSpaceOnUse"
       id="clipPath18">
      <path
         d="M 0,59.527 H 119.055 V 0 H 0 Z"
         id="path16" />
    </clipPath>
  </defs>
  <sodipodi:namedview
     id="namedview4"
     pagecolor="#ffffff"
     bordercolor="#000000"
     borderopacity="0.25"
     inkscape:showpageshadow="2"
     inkscape:pageopacity="0.0"
     inkscape:pagecheckerboard="0"
     inkscape:deskcolor="#d1d1d1" />
  <g
     id="g8"
     inkscape:groupmode="layer"
     inkscape:label="EF_Logo_ClaimOutline4c_DE"
     transform="matrix(1.3333333,0,0,-1.3333333,0,79.369733)">
    <path
       d="M 0,0 H 119.055 V 59.527 H 0 Z"
       style="fill:#ffffff;fill-opacity:1;fill-rule:nonzero;stroke:none"
       id="path10" />
    <g
       id="g12">
      <g
         id="g14"
         clip-path="url(#clipPath18)">
        <g
           id="g20"
           transform="translate(15.98,16.4755)">
          <path
             d="m 0,0 c -0.156,0 -0.278,-0.089 -0.363,-0.265 l -0.909,-2.439 -0.038,-0.101 -0.038,0.101 -0.91,2.443 C -2.341,-0.089 -2.463,0 -2.62,0 c -0.198,0 -0.412,-0.145 -0.412,-0.382 0,-0.075 0.01,-0.131 0.038,-0.203 l 1.287,-3.272 c 0.079,-0.195 0.173,-0.315 0.397,-0.315 0.224,0 0.318,0.12 0.398,0.316 l 1.287,3.271 c 0.027,0.072 0.038,0.128 0.038,0.203 C 0.413,-0.145 0.198,0 0,0"
             style="fill:#e3000f;fill-opacity:1;fill-rule:nonzero;stroke:none"
             id="path22" />
        </g>
        <g
           id="g24"
           transform="translate(17.8066,12.9638)">
          <path
             d="m 0,0 c -0.488,0 -0.71,0.462 -0.71,0.892 0,0.434 0.222,0.903 0.71,0.903 0.487,0 0.71,-0.469 0.71,-0.903 C 0.71,0.462 0.487,0 0,0 m 0,2.49 c -0.924,0 -1.475,-0.812 -1.475,-1.598 0,-0.905 0.634,-1.587 1.475,-1.587 0.841,0 1.476,0.682 1.476,1.587 C 1.476,1.678 0.924,2.49 0,2.49"
             style="fill:#e3000f;fill-opacity:1;fill-rule:nonzero;stroke:none"
             id="path26" />
        </g>
        <g
           id="g28"
           transform="translate(21.3975,15.4541)">
          <path
             d="m 0,0 c -0.374,0 -0.623,-0.105 -0.784,-0.33 l -0.057,-0.08 -0.015,0.098 c -0.026,0.175 -0.153,0.277 -0.348,0.277 -0.229,0 -0.383,-0.173 -0.383,-0.431 v -2.256 c 0,-0.257 0.154,-0.428 0.383,-0.428 0.229,0 0.383,0.171 0.383,0.428 v 1.475 c 0,0.372 0.233,0.622 0.58,0.622 0.365,0 0.593,-0.238 0.593,-0.622 v -1.475 c 0,-0.257 0.153,-0.428 0.382,-0.428 0.229,0 0.383,0.171 0.383,0.428 V -1.1 C 1.117,-0.432 0.679,0 0,0"
             style="fill:#e3000f;fill-opacity:1;fill-rule:nonzero;stroke:none"
             id="path30" />
        </g>
        <g
           id="g32"
           transform="translate(25.0234,12.7324)">
          <path
             d="m 0,0 c 0,-0.257 0.154,-0.429 0.383,-0.429 0.229,0 0.383,0.172 0.383,0.429 V 1.991 H 1.07 c 0.178,0 0.389,0.058 0.389,0.33 0,0.222 -0.127,0.33 -0.389,0.33 H 0.766 v 0.386 c 0,0.353 0.178,0.353 0.322,0.353 0.215,0 0.307,0.094 0.307,0.317 C 1.395,3.99 1.097,4.05 0.847,4.05 0.325,4.05 0,3.696 0,3.126 V 2.651 h -0.228 c -0.188,0 -0.33,-0.141 -0.33,-0.33 0,-0.207 0.123,-0.33 0.33,-0.33 l 0.228,0 z"
             style="fill:#e3000f;fill-opacity:1;fill-rule:nonzero;stroke:none"
             id="path34" />
        </g>
        <g
           id="g36"
           transform="translate(28.2324,15.4189)">
          <path
             d="m 0,0 c -0.237,0 -0.4,-0.097 -0.56,-0.335 l -0.073,-0.108 -0.012,0.131 C -0.645,-0.102 -0.767,0 -1.016,0 -1.212,0 -1.411,-0.132 -1.411,-0.383 v -2.303 c 0,-0.257 0.154,-0.429 0.383,-0.429 0.229,0 0.383,0.172 0.383,0.429 v 1.298 c 0,0.354 0.264,0.476 0.519,0.594 0.072,0.033 0.128,0.055 0.182,0.075 0.183,0.069 0.315,0.118 0.315,0.306 C 0.371,-0.128 0.185,0 0,0"
             style="fill:#e3000f;fill-opacity:1;fill-rule:nonzero;stroke:none"
             id="path38" />
        </g>
        <g
           id="g40"
           transform="translate(29.5845,15.8808)">
          <path
             d="M 0,0 C 0.211,0 0.383,0.172 0.383,0.383 0.383,0.594 0.211,0.766 0,0.766 -0.211,0.766 -0.383,0.594 -0.383,0.383 -0.383,0.172 -0.211,0 0,0 m 0.646,-2.917 c -0.487,0 -0.71,0.462 -0.71,0.892 0,0.434 0.223,0.903 0.71,0.903 0.488,0 0.71,-0.469 0.71,-0.903 0,-0.43 -0.222,-0.892 -0.71,-0.892 m 0,2.49 c -0.923,0 -1.475,-0.812 -1.475,-1.598 0,-0.905 0.634,-1.587 1.475,-1.587 0.842,0 1.476,0.682 1.476,1.587 0,0.786 -0.552,1.598 -1.476,1.598 M 1.292,0 C 1.504,0 1.676,0.172 1.676,0.383 1.676,0.594 1.504,0.766 1.292,0.766 1.081,0.766 0.91,0.594 0.91,0.383 0.91,0.172 1.081,0 1.292,0"
             style="fill:#e3000f;fill-opacity:1;fill-rule:nonzero;stroke:none"
             id="path42" />
        </g>
        <g
           id="g44"
           transform="translate(33.8218,15.4541)">
          <path
             d="m 0,0 c -0.12,0 -0.529,-0.021 -0.738,-0.279 l -0.072,-0.088 -0.011,0.113 v 1.151 c 0,0.258 -0.154,0.431 -0.383,0.431 -0.229,0 -0.383,-0.173 -0.383,-0.431 v -3.619 c 0,-0.257 0.154,-0.428 0.383,-0.428 0.229,0 0.383,0.171 0.383,0.428 v 1.475 c 0,0.372 0.233,0.622 0.58,0.622 0.365,0 0.593,-0.238 0.593,-0.622 v -1.475 c 0,-0.257 0.153,-0.428 0.382,-0.428 0.229,0 0.383,0.171 0.383,0.428 V -1.1 C 1.117,-0.432 0.679,0 0,0"
             style="fill:#e3000f;fill-opacity:1;fill-rule:nonzero;stroke:none"
             id="path46" />
        </g>
        <g
           id="g48"
           transform="translate(35.9619,16.7822)">
          <path
             d="M 0,0 C -0.229,0 -0.383,-0.173 -0.383,-0.431 V -4.05 c 0,-0.257 0.154,-0.429 0.383,-0.429 0.229,0 0.383,0.172 0.383,0.429 v 3.619 C 0.383,-0.173 0.229,0 0,0"
             style="fill:#e3000f;fill-opacity:1;fill-rule:nonzero;stroke:none"
             id="path50" />
        </g>
        <g
           id="g52"
           transform="translate(37.355,15.4189)">
          <path
             d="m 0,0 c -0.229,0 -0.383,-0.173 -0.383,-0.431 v -2.255 c 0,-0.257 0.154,-0.429 0.383,-0.429 0.229,0 0.383,0.172 0.383,0.429 v 2.255 C 0.383,-0.173 0.229,0 0,0 m 0,0.396 c 0.24,0 0.436,0.202 0.436,0.449 C 0.436,1.067 0.228,1.27 0,1.27 -0.228,1.27 -0.436,1.067 -0.436,0.845 -0.436,0.61 -0.228,0.396 0,0.396"
             style="fill:#e3000f;fill-opacity:1;fill-rule:nonzero;stroke:none"
             id="path54" />
        </g>
        <g
           id="g56"
           transform="translate(40.3984,13.1396)">
          <path
             d="m 0,0 c -0.034,0 -0.112,-0.029 -0.194,-0.062 -0.135,-0.05 -0.302,-0.114 -0.434,-0.114 -0.488,0 -0.751,0.459 -0.751,0.892 0,0.434 0.234,0.903 0.751,0.903 0.15,0 0.278,-0.049 0.39,-0.092 0.096,-0.037 0.187,-0.072 0.279,-0.072 0.175,0 0.283,0.212 0.283,0.364 0,0.374 -0.67,0.495 -0.994,0.495 -0.924,0 -1.476,-0.812 -1.476,-1.598 0,-0.905 0.635,-1.587 1.476,-1.587 0.266,0 0.994,0.128 0.994,0.541 C 0.324,-0.151 0.176,0 0,0"
             style="fill:#e3000f;fill-opacity:1;fill-rule:nonzero;stroke:none"
             id="path58" />
        </g>
        <g
           id="g60"
           transform="translate(42.7729,15.4541)">
          <path
             d="m 0,0 c -0.12,0 -0.529,-0.021 -0.738,-0.279 l -0.071,-0.088 -0.012,0.113 v 1.151 c 0,0.258 -0.154,0.431 -0.383,0.431 -0.229,0 -0.383,-0.173 -0.383,-0.431 v -3.619 c 0,-0.257 0.154,-0.428 0.383,-0.428 0.229,0 0.383,0.171 0.383,0.428 v 1.475 c 0,0.372 0.233,0.622 0.58,0.622 0.366,0 0.593,-0.238 0.593,-0.622 v -1.475 c 0,-0.257 0.153,-0.428 0.382,-0.428 0.229,0 0.383,0.171 0.383,0.428 V -1.1 C 1.117,-0.432 0.679,0 0,0"
             style="fill:#e3000f;fill-opacity:1;fill-rule:nonzero;stroke:none"
             id="path62" />
        </g>
        <g
           id="g64"
           transform="translate(45.1265,14.1474)">
          <path
             d="M 0,0 C 0.045,0.401 0.337,0.682 0.709,0.682 1.097,0.682 1.371,0.421 1.424,0 L 1.43,-0.045 H -0.005 Z M 1.813,-0.879 C 1.73,-0.879 1.628,-0.936 1.509,-1.002 1.335,-1.099 1.12,-1.219 0.856,-1.219 c -0.461,0 -0.783,0.247 -0.838,0.645 L 0.011,-0.528 H 1.86 c 0.232,0 0.33,0.1 0.33,0.336 0,0.709 -0.608,1.499 -1.481,1.499 -0.924,0 -1.476,-0.813 -1.476,-1.599 0,-0.935 0.636,-1.587 1.546,-1.587 0.639,0 1.341,0.354 1.341,0.676 0,0.164 -0.152,0.324 -0.307,0.324"
             style="fill:#e3000f;fill-opacity:1;fill-rule:nonzero;stroke:none"
             id="path66" />
        </g>
        <g
           id="g68"
           transform="translate(49.3735,15.4541)">
          <path
             d="m 0,0 c -0.374,0 -0.623,-0.105 -0.784,-0.33 l -0.058,-0.08 -0.014,0.098 c -0.027,0.175 -0.154,0.277 -0.349,0.277 -0.229,0 -0.382,-0.173 -0.382,-0.431 v -2.256 c 0,-0.257 0.153,-0.428 0.382,-0.428 0.23,0 0.384,0.171 0.384,0.428 v 1.475 c 0,0.372 0.233,0.622 0.58,0.622 0.365,0 0.592,-0.238 0.592,-0.622 v -1.475 c 0,-0.257 0.154,-0.428 0.383,-0.428 0.229,0 0.383,0.171 0.383,0.428 V -1.1 C 1.117,-0.432 0.679,0 0,0"
             style="fill:#e3000f;fill-opacity:1;fill-rule:nonzero;stroke:none"
             id="path70" />
        </g>
        <g
           id="g72"
           transform="translate(55.1045,16.0761)">
          <path
             d="m 0,0 c 0,0.176 -0.111,0.364 -0.354,0.364 h -1.503 c -0.288,0 -0.418,-0.216 -0.418,-0.417 v -3.302 c 0,-0.257 0.153,-0.417 0.4,-0.417 0.247,0 0.4,0.16 0.4,0.417 v 1.321 h 0.951 c 0.263,0 0.383,0.192 0.383,0.371 0,0.173 -0.12,0.359 -0.383,0.359 h -0.951 v 0.938 h 1.121 C -0.111,-0.366 0,-0.177 0,0"
             style="fill:#e3000f;fill-opacity:1;fill-rule:nonzero;stroke:none"
             id="path74" />
        </g>
        <g
           id="g76"
           transform="translate(56.8555,12.9638)">
          <path
             d="m 0,0 c -0.488,0 -0.71,0.462 -0.71,0.892 0,0.434 0.222,0.903 0.71,0.903 0.454,0 0.692,-0.454 0.692,-0.903 C 0.692,0.448 0.454,0 0,0 M 1.093,2.455 C 0.905,2.455 0.747,2.318 0.727,2.138 L 0.715,2.034 0.655,2.119 C 0.487,2.355 0.206,2.49 -0.118,2.49 c -0.761,0 -1.358,-0.702 -1.358,-1.598 0,-0.92 0.572,-1.587 1.358,-1.587 0.306,0 0.56,0.124 0.775,0.378 l 0.049,0.059 0.02,-0.075 c 0.062,-0.235 0.165,-0.327 0.367,-0.327 0.365,0 0.365,0.296 0.365,0.512 v 2.09 c 0,0.217 0,0.513 -0.365,0.513"
             style="fill:#e3000f;fill-opacity:1;fill-rule:nonzero;stroke:none"
             id="path78" />
        </g>
        <g
           id="g80"
           transform="translate(62.291,15.4541)">
          <path
             d="m 0,0 c -0.295,0 -0.649,-0.171 -0.862,-0.415 l -0.031,-0.036 -0.031,0.038 C -1.142,-0.139 -1.425,0 -1.768,0 -2.06,0 -2.321,-0.117 -2.526,-0.34 l -0.057,-0.061 -0.012,0.083 c -0.027,0.182 -0.15,0.283 -0.348,0.283 -0.229,0 -0.383,-0.173 -0.383,-0.431 v -2.256 c 0,-0.257 0.154,-0.428 0.383,-0.428 0.229,0 0.383,0.171 0.383,0.428 v 1.475 c 0,0.395 0.197,0.622 0.54,0.622 0.318,0 0.533,-0.25 0.533,-0.622 v -1.475 c 0,-0.257 0.154,-0.428 0.383,-0.428 0.229,0 0.383,0.171 0.383,0.428 v 1.475 c 0,0.372 0.217,0.622 0.539,0.622 0.32,0 0.534,-0.25 0.534,-0.622 v -1.475 c 0,-0.257 0.154,-0.428 0.382,-0.428 0.229,0 0.383,0.171 0.383,0.428 V -1.1 C 1.117,-0.411 0.699,0 0,0"
             style="fill:#e3000f;fill-opacity:1;fill-rule:nonzero;stroke:none"
             id="path82" />
        </g>
        <g
           id="g84"
           transform="translate(64.4316,15.4189)">
          <path
             d="m 0,0 c -0.229,0 -0.383,-0.173 -0.383,-0.431 v -2.255 c 0,-0.257 0.154,-0.429 0.383,-0.429 0.229,0 0.384,0.172 0.384,0.429 v 2.255 C 0.384,-0.173 0.229,0 0,0 m 0,0.396 c 0.24,0 0.437,0.202 0.437,0.449 C 0.437,1.067 0.229,1.27 0,1.27 -0.228,1.27 -0.436,1.067 -0.436,0.845 -0.436,0.61 -0.228,0.396 0,0.396"
             style="fill:#e3000f;fill-opacity:1;fill-rule:nonzero;stroke:none"
             id="path86" />
        </g>
        <g
           id="g88"
           transform="translate(65.8242,16.7822)">
          <path
             d="M 0,0 C -0.229,0 -0.383,-0.173 -0.383,-0.431 V -4.05 c 0,-0.257 0.154,-0.429 0.383,-0.429 0.23,0 0.384,0.172 0.384,0.429 v 3.619 C 0.384,-0.173 0.23,0 0,0"
             style="fill:#e3000f;fill-opacity:1;fill-rule:nonzero;stroke:none"
             id="path90" />
        </g>
        <g
           id="g92"
           transform="translate(67.2178,15.8154)">
          <path
             d="M 0,0 C 0.24,0 0.436,0.201 0.436,0.448 0.436,0.675 0.232,0.873 0,0.873 -0.228,0.873 -0.436,0.671 -0.436,0.448 -0.436,0.214 -0.228,0 0,0 m 0,-0.396 c -0.229,0 -0.383,-0.173 -0.383,-0.431 v -2.256 c 0,-0.257 0.154,-0.429 0.383,-0.429 0.229,0 0.383,0.172 0.383,0.429 v 2.256 c 0,0.258 -0.154,0.431 -0.383,0.431"
             style="fill:#e3000f;fill-opacity:1;fill-rule:nonzero;stroke:none"
             id="path94" />
        </g>
        <g
           id="g96"
           transform="translate(68.8232,14.1474)">
          <path
             d="M 0,0 C 0.046,0.401 0.338,0.682 0.71,0.682 1.099,0.682 1.372,0.421 1.426,0 l 0.005,-0.045 h -1.436 z m 1.815,-0.879 c -0.083,0 -0.186,-0.057 -0.305,-0.123 -0.174,-0.097 -0.39,-0.217 -0.653,-0.217 -0.461,0 -0.783,0.247 -0.839,0.645 l -0.006,0.046 h 1.849 c 0.232,0 0.33,0.1 0.33,0.336 0,0.709 -0.608,1.499 -1.481,1.499 -0.924,0 -1.476,-0.813 -1.476,-1.599 0,-0.935 0.636,-1.587 1.546,-1.587 0.639,0 1.341,0.354 1.341,0.676 0,0.164 -0.152,0.324 -0.306,0.324"
             style="fill:#e3000f;fill-opacity:1;fill-rule:nonzero;stroke:none"
             id="path98" />
        </g>
        <g
           id="g100"
           transform="translate(73.0713,15.4541)">
          <path
             d="m 0,0 c -0.374,0 -0.623,-0.105 -0.784,-0.33 l -0.057,-0.079 -0.014,0.097 c -0.029,0.175 -0.156,0.277 -0.349,0.277 -0.23,0 -0.384,-0.173 -0.384,-0.431 v -2.256 c 0,-0.257 0.154,-0.428 0.384,-0.428 0.228,0 0.383,0.171 0.383,0.428 v 1.475 c 0,0.372 0.233,0.622 0.58,0.622 0.286,0 0.593,-0.163 0.593,-0.622 v -1.475 c 0,-0.257 0.154,-0.428 0.382,-0.428 0.23,0 0.383,0.171 0.383,0.428 V -1.1 C 1.117,-0.432 0.679,0 0,0"
             style="fill:#e3000f;fill-opacity:1;fill-rule:nonzero;stroke:none"
             id="path102" />
        </g>
        <g
           id="g104"
           transform="translate(77.0869,14.1474)">
          <path
             d="M 0,0 C 0.046,0.401 0.338,0.682 0.71,0.682 1.099,0.682 1.372,0.421 1.426,0 l 0.005,-0.045 h -1.436 z m 1.814,-0.879 c -0.082,0 -0.185,-0.057 -0.304,-0.123 -0.174,-0.097 -0.39,-0.217 -0.653,-0.217 -0.461,0 -0.783,0.247 -0.839,0.645 l -0.006,0.046 h 1.849 c 0.232,0 0.33,0.1 0.33,0.336 0,0.709 -0.608,1.499 -1.481,1.499 -0.924,0 -1.476,-0.813 -1.476,-1.599 0,-0.935 0.636,-1.587 1.546,-1.587 0.639,0 1.341,0.354 1.341,0.676 0,0.164 -0.152,0.324 -0.307,0.324"
             style="fill:#e3000f;fill-opacity:1;fill-rule:nonzero;stroke:none"
             id="path106" />
        </g>
        <g
           id="g108"
           transform="translate(83.0732,15.4541)">
          <path
             d="m 0,0 c -0.295,0 -0.649,-0.171 -0.862,-0.415 l -0.031,-0.036 -0.031,0.038 C -1.142,-0.139 -1.425,0 -1.767,0 -2.059,0 -2.321,-0.117 -2.525,-0.34 l -0.057,-0.061 -0.013,0.083 c -0.027,0.182 -0.15,0.283 -0.347,0.283 -0.23,0 -0.384,-0.173 -0.384,-0.431 v -2.256 c 0,-0.257 0.154,-0.428 0.384,-0.428 0.228,0 0.383,0.171 0.383,0.428 v 1.475 c 0,0.395 0.196,0.622 0.539,0.622 0.319,0 0.533,-0.25 0.533,-0.622 v -1.475 c 0,-0.257 0.154,-0.428 0.383,-0.428 0.229,0 0.383,0.171 0.383,0.428 v 1.475 c 0,0.372 0.217,0.622 0.539,0.622 0.32,0 0.534,-0.25 0.534,-0.622 v -1.475 c 0,-0.257 0.154,-0.428 0.382,-0.428 0.23,0 0.383,0.171 0.383,0.428 V -1.1 C 1.117,-0.411 0.699,0 0,0"
             style="fill:#e3000f;fill-opacity:1;fill-rule:nonzero;stroke:none"
             id="path110" />
        </g>
        <g
           id="g112"
           transform="translate(86.3125,12.9638)">
          <path
             d="m 0,0 c -0.483,0 -0.703,0.478 -0.703,0.921 0,0.421 0.22,0.874 0.703,0.874 0.453,0 0.698,-0.466 0.698,-0.903 C 0.698,0.459 0.453,0 0,0 M 0.142,2.49 C 0.08,2.49 0.023,2.48 -0.035,2.472 -0.076,2.465 -0.116,2.457 -0.155,2.446 -0.361,2.389 -0.533,2.277 -0.629,2.122 L -0.68,2.039 -0.702,2.134 C -0.753,2.35 -0.879,2.455 -1.086,2.455 -1.315,2.455 -1.47,2.282 -1.47,2.024 v -3.5 c 0,-0.257 0.155,-0.43 0.384,-0.43 0.229,0 0.383,0.173 0.383,0.43 v 1.121 l 0.066,-0.057 c 0.207,-0.18 0.481,-0.283 0.749,-0.283 0.846,0 1.352,0.789 1.352,1.551 0,0.812 -0.454,1.634 -1.322,1.634"
             style="fill:#e3000f;fill-opacity:1;fill-rule:nonzero;stroke:none"
             id="path114" />
        </g>
        <g
           id="g116"
           transform="translate(89.5693,15.3837)">
          <path
             d="m 0,0 h -0.305 v 0.386 c 0,0.352 0.179,0.352 0.323,0.352 0.214,0 0.306,0.095 0.306,0.318 0,0.283 -0.298,0.342 -0.548,0.342 -0.522,0 -0.846,-0.353 -0.846,-0.923 V 0 h -0.229 c -0.188,0 -0.33,-0.142 -0.33,-0.33 0,-0.207 0.123,-0.33 0.33,-0.33 h 0.229 v -1.991 c 0,-0.257 0.153,-0.429 0.383,-0.429 0.228,0 0.382,0.172 0.382,0.429 V -0.66 H 0 c 0.178,0 0.389,0.058 0.389,0.33 C 0.389,-0.108 0.262,0 0,0"
             style="fill:#e3000f;fill-opacity:1;fill-rule:nonzero;stroke:none"
             id="path118" />
        </g>
        <g
           id="g120"
           transform="translate(91.4854,12.9638)">
          <path
             d="m 0,0 c -0.487,0 -0.71,0.462 -0.71,0.892 0,0.434 0.223,0.903 0.71,0.903 0.487,0 0.709,-0.469 0.709,-0.903 C 0.709,0.462 0.487,0 0,0 m 0,2.49 c -0.924,0 -1.476,-0.812 -1.476,-1.598 0,-0.905 0.635,-1.587 1.476,-1.587 0.841,0 1.476,0.682 1.476,1.587 C 1.476,1.678 0.924,2.49 0,2.49"
             style="fill:#e3000f;fill-opacity:1;fill-rule:nonzero;stroke:none"
             id="path122" />
        </g>
        <g
           id="g124"
           transform="translate(95.0762,15.4541)">
          <path
             d="m 0,0 c -0.12,0 -0.529,-0.021 -0.738,-0.279 l -0.072,-0.088 -0.011,0.113 v 1.151 c 0,0.258 -0.154,0.431 -0.383,0.431 -0.23,0 -0.384,-0.173 -0.384,-0.431 v -3.619 c 0,-0.257 0.154,-0.428 0.384,-0.428 0.229,0 0.383,0.171 0.383,0.428 v 1.475 c 0,0.372 0.233,0.622 0.58,0.622 0.286,0 0.593,-0.163 0.593,-0.622 v -1.475 c 0,-0.257 0.154,-0.428 0.382,-0.428 0.23,0 0.383,0.171 0.383,0.428 V -1.1 C 1.117,-0.432 0.679,0 0,0"
             style="fill:#e3000f;fill-opacity:1;fill-rule:nonzero;stroke:none"
             id="path126" />
        </g>
        <g
           id="g128"
           transform="translate(97.5986,16.3515)">
          <path
             d="M 0,0 C 0,0.258 -0.154,0.431 -0.383,0.431 -0.612,0.431 -0.766,0.258 -0.766,0 v -3.619 c 0,-0.257 0.154,-0.429 0.383,-0.429 0.229,0 0.383,0.172 0.383,0.429 z"
             style="fill:#e3000f;fill-opacity:1;fill-rule:nonzero;stroke:none"
             id="path130" />
        </g>
        <g
           id="g132"
           transform="translate(98.8213,14.1474)">
          <path
             d="M 0,0 C 0.046,0.401 0.338,0.682 0.71,0.682 1.099,0.682 1.372,0.421 1.426,0 l 0.005,-0.045 h -1.436 z m 1.814,-0.879 c -0.083,0 -0.185,-0.057 -0.304,-0.123 -0.174,-0.097 -0.39,-0.217 -0.654,-0.217 -0.461,0 -0.782,0.247 -0.838,0.645 l -0.006,0.046 h 1.849 c 0.232,0 0.33,0.1 0.33,0.336 0,0.709 -0.608,1.499 -1.481,1.499 -0.924,0 -1.476,-0.813 -1.476,-1.599 0,-0.935 0.636,-1.587 1.546,-1.587 0.639,0 1.341,0.354 1.341,0.676 0,0.164 -0.152,0.324 -0.307,0.324"
             style="fill:#e3000f;fill-opacity:1;fill-rule:nonzero;stroke:none"
             id="path134" />
        </g>
        <g
           id="g136"
           transform="translate(103.0693,15.4541)">
          <path
             d="m 0,0 c -0.374,0 -0.623,-0.105 -0.784,-0.33 l -0.057,-0.079 -0.014,0.097 c -0.029,0.175 -0.156,0.277 -0.349,0.277 -0.23,0 -0.384,-0.173 -0.384,-0.431 v -2.256 c 0,-0.257 0.154,-0.428 0.384,-0.428 0.228,0 0.383,0.171 0.383,0.428 v 1.475 c 0,0.372 0.233,0.622 0.58,0.622 0.286,0 0.593,-0.163 0.593,-0.622 v -1.475 c 0,-0.257 0.154,-0.428 0.382,-0.428 0.229,0 0.383,0.171 0.383,0.428 V -1.1 C 1.117,-0.432 0.679,0 0,0"
             style="fill:#e3000f;fill-opacity:1;fill-rule:nonzero;stroke:none"
             id="path138" />
        </g>
        <g
           id="g140"
           transform="translate(105.3447,13.1044)">
          <path
             d="m 0,0 c -0.23,0 -0.418,-0.187 -0.418,-0.419 0,-0.229 0.188,-0.417 0.418,-0.417 0.23,0 0.418,0.188 0.418,0.417 C 0.418,-0.187 0.23,0 0,0"
             style="fill:#e3000f;fill-opacity:1;fill-rule:nonzero;stroke:none"
             id="path142" />
        </g>
        <g
           id="g144"
           transform="translate(71.6904,28.0195)">
          <path
             d="m 0,0 c 0,1.289 0.865,2.35 2.023,2.35 1.159,0 2.15,-1.045 2.15,-2.335 0,-1.289 -0.991,-2.335 -2.15,-2.335 C 0.865,-2.32 0,-1.289 0,0 M 1.31,4.163 C 2.392,4.206 3.13,4.106 3.973,3.432 4.39,3.817 4.39,4.138 5.109,4.142 5.616,4.145 6.145,3.715 6.145,3.209 v -6.303 c 0,-0.435 -0.538,-0.823 -1.077,-0.823 -0.978,0 -0.937,0.736 -1.06,0.672 L 3.909,-3.297 C 3.869,-3.317 3.881,-3.432 3.115,-3.799 2.593,-4.048 1.801,-4.22 1.24,-4.138 c -2.374,0.35 -3.344,2.25 -3.321,4.251 0.022,1.843 1.402,3.972 3.391,4.05"
             style="fill:#e3000f;fill-opacity:1;fill-rule:evenodd;stroke:none"
             id="path146" />
        </g>
        <g
           id="g148"
           transform="translate(85.3818,31.3154)">
          <path
             d="m 0,0 c -0.343,0.321 -0.57,0.481 -0.835,0.605 -0.38,0.178 -0.949,0.304 -1.404,0.304 -0.493,0 -1.101,-0.143 -1.499,-0.375 L -4.022,0.374 C -4.041,0.356 -4.061,0.356 -4.08,0.356 c -0.019,0 -0.037,0.018 -0.113,0.125 -0.019,0.037 -0.077,0.072 -0.19,0.143 l -0.171,0.089 c -0.039,0.017 -0.113,0.036 -0.228,0.053 -0.075,0.017 -0.151,0.017 -0.227,0.017 -0.512,0 -1.006,-0.391 -1.062,-0.854 l -0.038,-0.269 0.017,-5.561 0.021,-0.464 c 0.037,-0.427 0.588,-0.837 1.138,-0.837 0.644,0 1.1,0.534 1.1,1.301 v 2.531 c 0,0.625 0.019,1.035 0.037,1.194 0,0.125 0.038,0.25 0.114,0.375 0.077,0.161 0.171,0.285 0.286,0.375 0.208,0.159 0.493,0.249 0.815,0.249 0.493,0 0.777,-0.178 0.948,-0.571 0.058,-0.124 0.096,-0.248 0.096,-0.338 v -3.797 l 0.038,-0.446 c 0.037,-0.445 0.588,-0.856 1.119,-0.856 0.38,0 0.797,0.249 0.986,0.571 0.095,0.16 0.115,0.267 0.152,0.731 v 2.513 c 0,1.266 0.077,1.587 0.494,1.927 0.208,0.176 0.474,0.266 0.759,0.266 0.417,0 0.72,-0.178 0.873,-0.552 0.132,-0.303 0.17,-0.517 0.17,-1.391 L 3.035,-5.835 V -5.906 L 3.092,-6.37 c 0.171,-0.57 0.55,-0.838 1.12,-0.838 0.663,0 1.042,0.429 1.118,1.302 v 3.535 c 0,2.086 -1.061,3.28 -2.902,3.28 C 1.802,0.909 1.081,0.73 0.606,0.445 0.417,0.338 0.303,0.249 0,0"
             style="fill:#e3000f;fill-opacity:1;fill-rule:nonzero;stroke:none"
             id="path150" />
        </g>
        <g
           id="g152"
           transform="translate(101.6953,25.7128)">
          <path
             d="m 0,0 -1.892,-3.395 c -0.075,-0.123 -0.093,-0.25 -0.093,-0.392 0,-0.571 0.473,-1.034 1.081,-1.034 0.38,0 0.74,0.214 0.93,0.57 l 2.043,3.68 2.999,5.602 C 5.145,5.138 5.164,5.245 5.164,5.37 5.164,5.906 4.689,6.369 4.12,6.369 3.834,6.369 3.475,6.227 3.36,6.048 L 3.133,5.744 1.158,2.159 -0.911,5.727 c -0.284,0.462 -0.568,0.642 -1.006,0.642 -0.646,0 -1.12,-0.446 -1.12,-1.053 0,-0.125 0.038,-0.25 0.076,-0.338 z"
             style="fill:#e3000f;fill-opacity:1;fill-rule:nonzero;stroke:none"
             id="path154" />
        </g>
        <g
           id="g156"
           transform="translate(92.0947,31.0288)">
          <path
             d="m 0,0 v -5.85 c 0,-0.571 0.514,-1.054 1.12,-1.054 0.608,0 1.082,0.464 1.082,1.054 V 0 C 2.202,0.571 1.689,1.053 1.083,1.053 0.476,1.053 0,0.59 0,0"
             style="fill:#e3000f;fill-opacity:1;fill-rule:nonzero;stroke:none"
             id="path158" />
        </g>
        <g
           id="g160"
           transform="translate(93.1582,36.1567)">
          <path
             d="m 0,0 c -0.759,0 -1.404,-0.606 -1.404,-1.319 0,-0.732 0.626,-1.321 1.424,-1.321 0.777,0 1.404,0.589 1.404,1.321 C 1.424,-0.588 0.779,0 0,0"
             style="fill:#e3000f;fill-opacity:1;fill-rule:nonzero;stroke:none"
             id="path162" />
        </g>
        <g
           id="g164"
           transform="translate(95.749,36.0947)">
          <path
             d="m 0,0 0.013,-10.984 c -0.014,-0.561 0.39,-0.965 1.01,-0.965 0.602,0 1.042,0.404 1.042,0.977 V 0.021 C 2.065,0.612 1.686,1.003 1.086,1.003 0.484,1.003 0,0.556 0,0"
             style="fill:#e3000f;fill-opacity:1;fill-rule:nonzero;stroke:none"
             id="path166" />
        </g>
        <g
           id="g168"
           transform="translate(69.1006,36.9033)">
          <path
             d="M 0,0 C -0.46,0.056 -0.652,0.057 -0.687,0.056 -1.506,0.018 -1.752,-0.109 -2.253,-0.537 -2.681,-0.901 -2.943,-1.638 -3,-2.193 -3.039,-2.444 -3.057,-2.82 -3.057,-3.357 L -3.061,-4.952 V -5.003 C -3.587,-5.039 -4.018,-5.62 -4,-6.025 c 0.022,-0.501 0.222,-0.855 0.939,-1.037 v -4.642 c 0,-0.61 0.512,-1.11 1.159,-1.11 0.627,0 1.099,0.477 1.099,1.103 v 0.323 l 0.002,4.305 h 0.349 c 0.53,0.004 0.974,0.525 0.969,1.062 -0.006,0.52 -0.473,1.029 -1.045,1.023 h -0.273 l 0.004,1.336 v 0.99 c 0,0.447 0.161,0.755 0.563,0.827 l 0.452,0.111 C 0.505,-1.642 0.729,-1.246 0.71,-0.841 0.692,-0.463 0.442,-0.111 0,0"
             style="fill:#e3000f;fill-opacity:1;fill-rule:nonzero;stroke:none"
             id="path170" />
        </g>
        <g
           id="g172"
           transform="translate(43.2646,31.8579)">
          <path
             d="m 0,0 c -0.05,-0.381 -0.443,-0.925 -1.117,-0.839 -0.41,0.051 -0.54,0.519 -0.489,0.834 0.024,0.155 0.094,0.41 0.276,0.552 0.225,0.178 0.484,0.193 0.684,0.171 C -0.307,0.681 0.053,0.406 0,0"
             style="fill:#1a1a18;fill-opacity:1;fill-rule:nonzero;stroke:none"
             id="path174" />
        </g>
        <g
           id="g176"
           transform="translate(18.561,25.3906)">
          <path
             d="m 0,0 0.1,0.008 c 0.409,-0.11 0.436,-0.668 0.316,-0.871 -0.191,-0.324 -1.793,-1.042 -3.067,-1.231 -1.111,-0.165 -2.647,-0.227 -3.368,0.49 -0.726,0.722 -0.509,1.833 -0.155,2.723 0.18,0.452 0.407,0.871 0.596,1.194 0.186,0.316 0.337,0.538 0.371,0.602 0.246,0.457 1.125,2.017 2.566,3.943 1.119,1.497 1.85,2.398 2.414,2.306 L -0.116,9.153 C -0.065,9.149 0,9.14 0.064,9.117 0.207,9.066 0.341,8.944 0.321,8.711 0.31,8.562 0.224,8.463 0.112,8.346 0.001,8.229 -0.176,8.057 -0.444,7.751 -0.977,7.14 -1.877,5.984 -3.351,3.627 -3.86,2.814 -4.462,1.83 -4.839,0.98 -5.231,0.093 -5.318,-0.521 -5.013,-0.738 c 0.447,-0.321 1.848,-0.189 2.702,-0.034 0.47,0.086 0.904,0.216 1.292,0.356 C -0.627,-0.273 -0.284,-0.122 0,0"
             style="fill:#1a1a18;fill-opacity:1;fill-rule:nonzero;stroke:none"
             id="path178" />
        </g>
        <g
           id="g180"
           transform="translate(21.0645,34.2011)">
          <path
             d="M 0,0 C 0.34,0.066 0.71,0.169 1.027,0.25 1.331,0.326 1.64,0.399 1.813,0.364 2.188,0.288 2.538,-0.037 2.566,-0.358 2.585,-0.582 2.427,-0.691 2.293,-0.74 2.229,-0.764 2.159,-0.78 2.087,-0.794 L 1.9,-0.829 c -1.197,-0.254 -1.943,-0.397 -3.2,-0.57 -1.45,-0.198 -2.164,-0.351 -3.738,-0.339 -0.28,0.003 -1.009,0.324 -0.449,1.081 l 0.131,0.06 c 0.705,-0.042 1.123,-0.044 1.811,-0.004 C -2.796,-0.559 -1.376,-0.268 0,0"
             style="fill:#1a1a18;fill-opacity:1;fill-rule:nonzero;stroke:none"
             id="path182" />
        </g>
        <g
           id="g184"
           transform="translate(13.085,28.8584)">
          <path
             d="M 0,0 C 0.786,-0.022 1.697,0.084 2.486,0.208 3.284,0.332 3.958,0.474 4.259,0.523 5.291,0.69 6.342,0.973 7.197,1.128 8.019,1.278 8.798,1.346 9.126,0.92 L 9.21,0.796 C 9.244,0.732 9.275,0.646 9.29,0.538 9.304,0.439 9.307,0.32 9.29,0.176 9.681,0.589 10.147,0.963 10.77,1.241 11.418,1.532 12.328,1.837 12.831,1.5 12.975,1.403 13.074,1.294 13.075,1.095 13.076,0.955 12.986,0.809 12.898,0.693 12.804,0.569 12.689,0.452 12.598,0.365 L 12.44,0.334 C 12.203,0.424 12.072,0.464 11.835,0.469 11.155,0.484 10.36,-0.276 9.555,-1.11 8.801,-1.892 7.937,-3.313 7.548,-4.041 7.514,-4.107 7.489,-4.166 7.47,-4.218 L 7.426,-4.354 C 7.415,-4.392 7.4,-4.44 7.373,-4.485 7.345,-4.533 7.303,-4.577 7.24,-4.604 7.045,-4.687 6.847,-4.727 6.622,-4.606 c -0.229,0.124 -0.316,0.32 -0.339,0.548 -0.023,0.245 0.164,0.604 0.361,0.948 0.205,0.358 0.464,0.769 0.661,1.16 0.171,0.34 0.407,0.748 0.575,1.111 0.083,0.185 0.143,0.344 0.169,0.471 0.028,0.135 0.015,0.207 -0.008,0.24 -0.009,0.013 -0.05,0.043 -0.176,0.055 C 7.749,-0.062 7.595,-0.07 7.409,-0.093 7.045,-0.139 6.63,-0.235 6.328,-0.288 5.409,-0.45 2.044,-1.002 1.102,-1.062 0.831,-1.08 0.544,-1.101 0.294,-1.081 c -0.252,0.019 -0.513,0.079 -0.677,0.26 -0.22,0.242 -0.184,0.539 -0.113,0.795 l 0.04,0.145 0.149,-0.04 0.183,-0.056 C -0.07,0.008 -0.034,0.001 0,0"
             style="fill:#1a1a18;fill-opacity:1;fill-rule:nonzero;stroke:none"
             id="path186" />
        </g>
        <g
           id="g188"
           transform="translate(29.6431,28.7197)">
          <path
             d="m 0,0 c -0.136,-0.098 -0.304,-0.231 -0.49,-0.391 -0.462,-0.392 -1.013,-0.913 -1.43,-1.316 -1.038,-1.005 -1.61,-1.72 -1.96,-2.177 -0.181,-0.233 -0.304,-0.401 -0.401,-0.508 -0.095,-0.102 -0.218,-0.209 -0.382,-0.177 -0.389,0.076 -0.646,0.317 -0.714,0.704 -0.054,0.318 0.658,1.913 1.27,2.915 0.301,0.492 0.617,1.101 0.93,1.571 0.294,0.441 0.663,0.891 1.077,0.803 0.169,-0.035 0.286,-0.077 0.371,-0.152 0.043,-0.039 0.074,-0.083 0.097,-0.122 L -1.572,1.035 -1.583,0.878 C -1.964,0.333 -2.171,0.018 -2.517,-0.55 -2.664,-0.79 -2.785,-0.992 -2.896,-1.186 L -2.724,-1 c 0.376,0.399 0.78,0.805 1.171,1.122 0.249,0.201 0.483,0.402 0.705,0.579 0.224,0.178 0.443,0.339 0.659,0.456 C 0.252,1.396 0.703,1.46 1.159,1.122 1.621,0.779 1.484,0.304 1.252,-0.101 1.025,-0.498 0.647,-0.93 0.407,-1.333 0.164,-1.739 -0.161,-2.22 -0.379,-2.638 -0.491,-2.851 -0.564,-3.028 -0.591,-3.165 -0.619,-3.307 -0.593,-3.37 -0.56,-3.4 c 0.03,-0.027 0.114,-0.044 0.326,0.08 0.193,0.113 0.44,0.316 0.724,0.584 0.555,0.523 1.193,1.222 1.74,1.734 0.255,0.236 0.512,0.511 0.762,0.791 0.249,0.282 0.491,0.568 0.711,0.83 0.22,0.261 0.423,0.5 0.594,0.683 C 4.462,1.478 4.62,1.627 4.745,1.672 4.915,1.733 5.071,1.665 5.188,1.592 5.295,1.525 5.407,1.428 5.522,1.345 L 5.622,1.272 5.572,1.16 C 5.508,1.017 5.45,0.905 5.401,0.792 5.356,0.687 5.321,0.581 5.295,0.439 5.157,-0.36 5.294,-1.243 5.074,-2.842 4.895,-4.138 3.962,-5.323 2.5,-5.14 c -0.584,0.075 -1.181,0.579 -1.126,1.15 0.032,0.312 0.275,0.552 0.594,0.559 0.067,0.002 0.119,-0.027 0.158,-0.056 0.036,-0.029 0.066,-0.066 0.087,-0.093 0.045,-0.058 0.093,-0.135 0.148,-0.213 0.11,-0.158 0.207,-0.258 0.313,-0.271 0.794,-0.106 1.139,0.649 1.267,1.506 0.089,0.6 0.101,1.364 0.142,2.008 C 3.425,-1.309 2.76,-1.984 1.895,-2.864 1.439,-3.328 0.835,-3.908 0.233,-4.273 c -0.592,-0.36 -1.243,-0.544 -1.736,-0.095 -0.522,0.475 -0.443,1.098 -0.199,1.677 0.122,0.286 0.291,0.58 0.469,0.866 0.173,0.277 0.354,0.549 0.503,0.799 0.168,0.282 0.414,0.598 0.609,0.862 z"
             style="fill:#1a1a18;fill-opacity:1;fill-rule:nonzero;stroke:none"
             id="path190" />
        </g>
        <g
           id="g192"
           transform="translate(58.4985,28.1679)">
          <path
             d="M 0,0 C 0.511,0.479 1.075,1.104 1.548,1.611 1.785,1.862 2.004,2.091 2.185,2.26 2.278,2.344 2.363,2.416 2.439,2.468 2.509,2.517 2.59,2.561 2.667,2.564 2.945,2.576 3.116,2.513 3.232,2.403 L 3.339,2.271 3.493,2.127 3.438,2.016 C 3.369,1.875 3.306,1.767 3.255,1.654 3.207,1.552 3.167,1.446 3.137,1.305 2.971,0.513 2.985,-0.491 2.802,-1.959 2.641,-3.246 1.787,-4.579 0.116,-4.266 c -0.575,0.108 -1.192,0.661 -1.115,1.233 0.04,0.295 0.348,0.618 0.685,0.548 0.14,-0.028 0.227,-0.106 0.28,-0.202 0.026,-0.044 0.044,-0.09 0.057,-0.13 l 0.036,-0.117 c 0.042,-0.128 0.094,-0.24 0.333,-0.295 0.686,-0.157 1.188,0.711 1.246,1.576 0.038,0.569 0.163,1.364 0.265,2.025 C 1.237,-0.359 0.586,-1.022 -0.3,-1.861 -0.48,-2.033 -0.751,-2.285 -1.026,-2.499 -1.292,-2.705 -1.523,-2.792 -1.749,-2.793 -2.284,-2.8 -2.437,-2.381 -2.429,-2.315 l 0.154,0.182 -0.226,-0.083 c 0.317,0.171 0.735,0.529 1.182,0.947 C -0.87,-0.848 -0.406,-0.38 0,0"
             style="fill:#1a1a18;fill-opacity:1;fill-rule:nonzero;stroke:none"
             id="path194" />
        </g>
        <g
           id="g196"
           transform="translate(60.7236,32.5566)">
          <path
             d="m 0,0 c -0.105,-0.47 -0.657,-1.57 -1.545,-1.54 -0.229,0.008 -0.406,0.214 -0.404,0.418 0,0.046 0.016,0.086 0.032,0.115 l 0.191,0.242 c 0.103,0.124 0.236,0.296 0.352,0.545 0.123,0.258 0.166,0.412 0.215,0.699 0.027,0.161 0.156,0.243 0.275,0.28 0.12,0.038 0.257,0.038 0.366,0.02 C -0.158,0.719 0.084,0.371 0,0"
             style="fill:#1a1a18;fill-opacity:1;fill-rule:nonzero;stroke:none"
             id="path198" />
        </g>
        <g
           id="g200"
           transform="translate(36.9102,24.3584)">
          <path
             d="m 0,0 c -0.411,-0.247 -0.86,-0.187 -1.089,0.039 -0.164,0.164 -0.132,0.469 -0.055,0.771 0.082,0.32 0.241,0.718 0.432,1.148 0.384,0.866 0.927,1.911 1.361,2.829 0.576,1.215 1.109,2.337 1.55,3.147 0.222,0.409 0.422,0.74 0.591,0.964 0.086,0.114 0.168,0.207 0.248,0.27 0.074,0.06 0.167,0.111 0.267,0.095 C 3.582,9.218 3.746,9.089 3.837,8.935 3.882,8.859 3.905,8.786 3.918,8.723 3.933,8.665 3.937,8.612 3.942,8.572 2.997,7.03 2.526,6.063 1.79,4.629 1.294,3.662 0.433,1.663 0.261,1.133 0.16,0.824 0.115,0.563 0.085,0.376 L 0.047,0.137 0.023,0.047 Z"
             style="fill:#1a1a18;fill-opacity:1;fill-rule:nonzero;stroke:none"
             id="path202" />
        </g>
        <g
           id="g204"
           transform="translate(40.8389,28.9951)">
          <path
             d="m 0,0 c -0.206,-0.018 -0.571,-0.066 -1.019,-0.129 -0.663,-0.095 -1.413,-0.206 -1.814,-0.219 -0.476,-0.015 -1.024,-0.108 -1.482,-0.111 -0.45,-0.004 -0.933,0.075 -1.078,0.53 -0.089,0.283 0.075,0.675 0.405,0.714 0.442,-0.085 0.844,-0.09 1.289,-0.062 0.45,0.027 0.933,0.086 1.478,0.129 1.048,0.081 1.88,0.226 2.479,0.295 C 0.553,1.18 0.812,1.199 1.018,1.173 1.222,1.149 1.403,1.075 1.492,0.897 1.646,0.589 1.549,0.352 1.357,0.041 1.171,-0.261 0.855,-0.692 0.456,-1.437 0.202,-1.914 -0.062,-2.396 -0.216,-2.781 c -0.08,-0.198 -0.12,-0.348 -0.125,-0.451 -0.005,-0.105 0.023,-0.126 0.037,-0.134 0.178,-0.087 0.575,0.116 1.155,0.607 0.539,0.46 1.129,1.073 1.621,1.544 0.236,0.227 0.475,0.492 0.706,0.764 C 3.413,-0.175 3.64,0.105 3.851,0.354 4.057,0.599 4.259,0.826 4.442,0.99 4.613,1.143 4.806,1.276 4.989,1.247 5.091,1.23 5.23,1.205 5.344,1.146 5.465,1.085 5.57,0.979 5.588,0.803 5.594,0.747 5.575,0.692 5.557,0.65 5.54,0.61 5.515,0.563 5.485,0.515 5.429,0.422 5.348,0.304 5.253,0.167 5.07,-0.099 4.834,-0.441 4.625,-0.817 4.452,-1.126 4.318,-1.369 4.189,-1.613 c 0.161,0.159 0.32,0.316 0.481,0.469 0.391,0.373 0.796,0.731 1.253,1.078 C 6.152,0.108 6.382,0.293 6.611,0.468 6.842,0.645 7.076,0.813 7.31,0.945 7.771,1.206 8.27,1.351 8.736,1.073 8.939,0.953 9.013,0.771 8.997,0.565 8.98,0.374 8.886,0.159 8.771,-0.054 8.538,-0.487 8.15,-1.029 7.823,-1.644 7.674,-1.926 7.528,-2.182 7.404,-2.421 7.282,-2.658 7.188,-2.873 7.134,-3.076 6.949,-3.768 7.139,-4.148 7.729,-4.12 L 7.846,-4.169 C 7.93,-4.257 8.008,-4.36 8.001,-4.527 7.99,-4.913 7.404,-5.069 7.091,-5.02 c -0.834,0.136 -1.4,0.894 -1.251,1.716 0.146,0.809 0.63,1.654 1.047,2.294 0.178,0.274 0.347,0.513 0.478,0.702 C 6.917,-0.648 6.107,-1.337 5.446,-1.926 4.569,-2.706 3.971,-3.393 3.548,-3.883 3.333,-4.133 3.163,-4.332 3.024,-4.468 2.897,-4.595 2.749,-4.722 2.588,-4.714 2.339,-4.703 2.03,-4.608 1.937,-4.289 c -0.081,0.276 0.067,0.676 0.256,1.081 0.069,0.146 0.148,0.301 0.233,0.462 L 2.253,-2.918 c -0.357,-0.351 -0.751,-0.715 -1.15,-1.021 -0.76,-0.585 -1.655,-1.054 -2.282,-0.543 -0.757,0.618 -0.314,1.852 0.172,2.798 0.254,0.497 0.545,0.963 0.767,1.31 z"
             style="fill:#1a1a18;fill-opacity:1;fill-rule:nonzero;stroke:none"
             id="path206" />
        </g>
        <g
           id="g208"
           transform="translate(54.4658,29.4301)">
          <path
             d="m 0,0 c -0.061,0.003 -0.117,-0.005 -0.194,-0.028 -0.151,-0.045 -0.354,-0.135 -0.583,-0.257 -0.456,-0.243 -0.995,-0.605 -1.393,-0.958 -1.025,-0.914 -1.999,-2.134 -1.641,-2.691 0.13,-0.203 0.458,-0.207 0.987,0.019 0.503,0.215 1.095,0.604 1.626,1.002 l 0.097,0.082 c 0.112,0.095 0.231,0.218 0.359,0.366 0.397,0.459 0.852,1.134 1.349,1.918 l 0.082,0.13 0.129,-0.084 0.166,-0.101 C 1.039,-0.637 1.099,-0.675 1.15,-0.722 1.267,-0.83 1.327,-0.972 1.295,-1.175 1.248,-1.463 1.161,-1.634 1.061,-1.781 L 0.917,-1.977 C 0.873,-2.038 0.827,-2.107 0.784,-2.195 0.414,-2.922 0.194,-3.421 -0.12,-4.032 l -0.134,-0.256 -0.195,-0.365 c -0.113,-0.204 -0.216,-0.403 -0.317,-0.596 -0.37,-0.733 -0.647,-1.368 -0.975,-1.957 -0.432,-0.776 -0.951,-1.478 -1.826,-2.13 -0.986,-0.736 -3.314,-1.383 -3.725,-0.055 -0.27,0.874 1.486,2.353 2.772,3.144 0.889,0.548 1.973,1.151 2.951,1.615 0.44,0.208 0.828,0.375 1.175,0.504 l 0.274,0.096 c 0.409,0.136 0.709,0.169 0.953,0.141 C 1.076,-3.919 1.56,-4.084 1.564,-4.509 1.57,-5.044 0.991,-4.921 0.845,-4.961 0.662,-4.934 0.47,-5.071 0.398,-5.054 0.336,-5.042 0.281,-5.033 0.221,-5.033 0.104,-5.03 0.042,-5.035 -0.242,-5.106 -0.431,-5.153 -0.53,-5.18 -0.784,-5.287 -1.194,-5.462 -1.614,-5.67 -2.022,-5.884 l -0.352,-0.189 c -0.47,-0.255 -0.9,-0.505 -1.193,-0.678 -0.623,-0.371 -1.345,-0.934 -1.865,-1.432 -0.261,-0.249 -0.468,-0.477 -0.586,-0.654 -0.06,-0.089 -0.091,-0.157 -0.101,-0.201 0.43,-0.321 1.803,0.336 2.478,1.085 0.377,0.42 0.827,1.122 1.267,1.88 l 0.057,0.097 0.141,0.25 c 0.206,0.359 0.405,0.721 0.589,1.059 l 0.161,0.299 c -0.958,-0.633 -2.237,-1.091 -3.157,-0.213 -1.099,1.05 0.179,2.939 1.491,4.071 1.216,1.05 3.086,2.084 3.933,1.351 0.442,-0.383 0.371,-0.937 0.143,-1.443 L 0.936,-0.696 C 0.737,-1.103 0.436,-1.507 0.169,-1.834 0.092,-1.93 0.03,-2.033 -0.045,-2.138 -0.126,-2.251 -0.226,-2.372 -0.372,-2.49 c -0.067,-0.052 -0.146,-0.104 -0.229,-0.15 -0.154,-0.085 -0.338,-0.161 -0.5,-0.191 -0.043,-0.008 -0.083,-0.013 -0.122,-0.014 -0.278,-0.007 -0.515,0.441 -0.47,0.603 0.012,0.047 0.047,0.086 0.063,0.104 l 0.256,0.219 c 0.144,0.113 0.304,0.243 0.416,0.369 0.267,0.298 0.554,0.627 0.746,0.924 C -0.014,-0.321 0.052,-0.112 0,0"
             style="fill:#1a1a18;fill-opacity:1;fill-rule:nonzero;stroke:none"
             id="path210" />
        </g>
        <g
           id="g212"
           transform="translate(119.0547,46.5468)">
          <path
             d="M 0,0 V -0.001 12.98 H -11.98 V 1.661 C -5.025,0.892 0,0 0,0"
             style="fill:#e5007d;fill-opacity:1;fill-rule:nonzero;stroke:none"
             id="path214" />
        </g>
        <g
           id="g216"
           transform="translate(60.5137,46.4687)">
          <path
             d="m 0,0 c 10.772,1.457 20.948,2.833 28.77,2.833 5.874,0 11.96,-0.468 17.089,-1.018 V 13.059 H -4.633 V -0.623 C -3.087,-0.417 -1.54,-0.208 0,0"
             style="fill:#e3000f;fill-opacity:1;fill-rule:nonzero;stroke:none"
             id="path218" />
        </g>
        <g
           id="g220"
           transform="translate(55.1797,45.7529)">
          <path
             d="M 0,0 V 13.774 H -19.286 V -2.058 C -13.346,-1.692 -6.695,-0.886 0,0"
             style="fill:#f5b4d2;fill-opacity:1;fill-rule:nonzero;stroke:none"
             id="path222" />
        </g>
        <g
           id="g224"
           transform="translate(35.1914,43.6518)">
          <path
             d="M 0,0 V 15.876 H -2.805 V -0.122 C -1.891,-0.093 -0.957,-0.054 0,0"
             style="fill:#73b958;fill-opacity:1;fill-rule:nonzero;stroke:none"
             id="path226" />
        </g>
        <g
           id="g228"
           transform="translate(29.7715,43.4843)">
          <path
             d="M 0,0 C 0.624,0 1.264,0.01 1.913,0.025 V 16.043 H -10.009 V 0.386 C -6.824,0.151 -3.442,0 0,0"
             style="fill:#ffcc00;fill-opacity:1;fill-rule:nonzero;stroke:none"
             id="path230" />
        </g>
        <g
           id="g232"
           transform="translate(19.0605,43.9223)">
          <path
             d="M 0,0 V 15.605 H -2.805 V 0.244 C -1.892,0.157 -0.956,0.075 0,0"
             style="fill:#bbd150;fill-opacity:1;fill-rule:nonzero;stroke:none"
             id="path234" />
        </g>
        <g
           id="g236"
           transform="translate(15.5537,44.2338)">
          <path
             d="M 0,0 V 15.294 H -2.806 V 0.304 C -1.9,0.199 -0.966,0.097 0,0"
             style="fill:#a2ccee;fill-opacity:1;fill-rule:nonzero;stroke:none"
             id="path238" />
        </g>
        <g
           id="g240"
           transform="translate(12.0469,59.5273)">
          <path
             d="m 0,0 h -12.047 v -13.01 c 0.882,-0.182 5.545,-1.114 12.047,-1.897 z"
             style="fill:#0075be;fill-opacity:1;fill-rule:nonzero;stroke:none"
             id="path242" />
        </g>
        <path
           d="M 119.055,0 H 0 v 59.527 h 119.055 z"
           style="fill:none;stroke:#b1b2b3;stroke-width:0.5;stroke-linecap:butt;stroke-linejoin:miter;stroke-miterlimit:4;stroke-dasharray:none;stroke-opacity:1"
           id="path244" />
      </g>
    </g>
  </g>
</svg>
