<svg xmlns="http://www.w3.org/2000/svg" id="svg29" version="1.1" viewBox="0 0 560.24 132.12"><defs id="defs1"><style id="style1">.cls-1{fill:#fd0}</style></defs><g id="CLAIM"><path id="path1" d="M82.28 111.76h14.11v3.11H85.47v6.1h10.38v2.96H85.47v7.78h-3.19v-19.95Z" class="cls-1"/><path id="path2" d="M102.32 125.3c0 2.39 1.34 4.05 3.82 4.05 2.31 0 3.9-1.88 3.9-4.25v-7.35h2.94v14h-2.65l-.17-1.97c-1.37 1.6-2.88 2.28-4.85 2.28-3.45 0-5.93-2.48-5.93-6.73v-7.58h2.94v7.55Zm.74-13.71c.88 0 1.77.6 1.77 1.77s-.88 1.77-1.77 1.77-1.77-.6-1.77-1.77.88-1.77 1.77-1.77Zm6.87 0c.88 0 1.77.6 1.77 1.77s-.88 1.77-1.77 1.77-1.8-.6-1.8-1.77.88-1.77 1.8-1.77Z" class="cls-1"/><path id="path3" d="M120.33 119.52c1.03-1.8 2.62-2.17 4.13-2.17 1.37 0 2.68.48 3.48 1.2l-1.34 2.57c-.71-.57-1.37-.85-2.48-.85-2.02 0-3.79 1.25-3.79 3.85v7.61h-2.94v-13.97h2.74l.2 1.77Z" class="cls-1"/><path id="path4" d="M215.6 119.86c.91-1.68 3.22-2.51 4.93-2.51 4.05 0 7.13 2.54 7.13 7.33s-3.11 7.33-7.18 7.33c-1.91 0-3.76-.71-4.87-2.51l-.17 2.22h-2.77V111.8h2.94v8.07Zm.17 4.82c0 2.76 2.02 4.59 4.5 4.59s4.45-1.74 4.45-4.59-2.02-4.56-4.45-4.56-4.5 1.82-4.5 4.56Z" class="cls-1"/><path id="path5" d="M237.7 129.38c1.45 0 3.19-.51 4.08-1.51l1.91 1.85c-1.45 1.62-3.88 2.39-6.04 2.39-4.62 0-7.58-2.94-7.58-7.44s2.99-7.33 7.38-7.33 7.13 2.39 7.13 7.24c0 .4-.03.83-.06 1.25h-11.4c.26 2.17 2 3.54 4.59 3.54Zm-.17-9.41c-2.17 0-3.9 1.14-4.36 3.39h8.52c-.2-2.25-1.77-3.39-4.16-3.39Z" class="cls-1"/><path id="path6" d="M252.79 119.83c-1.77 0-2.88.6-2.88 1.65 0 1.17 1.23 1.57 3.05 1.79 2.59.31 5.96.77 5.96 4.42 0 2.59-2.37 4.42-5.99 4.42-2.28 0-4.56-.51-6.41-2.59l1.54-2.08c1.34 1.45 3.25 2.08 4.93 2.08 1.37 0 2.99-.51 2.99-1.85 0-1.2-1.2-1.68-3.25-1.88-2.62-.26-5.73-1.14-5.73-4.22s3.22-4.22 5.84-4.22c2.17 0 3.82.48 5.42 1.85l-1.65 1.94c-1.14-1.05-2.37-1.31-3.82-1.31Z" class="cls-1"/><path id="path7" d="M266.21 117.75h4.1v2.54h-4.13v6.64c0 1.48.66 2.31 2.02 2.31.57 0 1.23-.17 1.8-.49l.85 2.51c-1.08.46-1.94.63-3.05.63-2.94 0-4.56-1.71-4.56-4.96v-6.64h-2.71v-2.54h2.71v-3.82l2.96-.31v4.13Z" class="cls-1"/><path id="path8" d="M280.29 129.38c1.45 0 3.19-.51 4.08-1.51l1.91 1.85c-1.45 1.62-3.88 2.39-6.04 2.39-4.62 0-7.58-2.94-7.58-7.44s2.99-7.33 7.38-7.33 7.12 2.39 7.12 7.24c0 .4-.03.83-.06 1.25h-11.4c.26 2.17 2 3.54 4.59 3.54Zm-.17-9.41c-2.17 0-3.91 1.14-4.36 3.39h8.52c-.2-2.25-1.77-3.39-4.16-3.39Z" class="cls-1"/><path id="path9" d="M295.58 119.83c-1.77 0-2.88.6-2.88 1.65 0 1.17 1.23 1.57 3.05 1.79 2.59.31 5.96.77 5.96 4.42 0 2.59-2.37 4.42-5.99 4.42-2.28 0-4.56-.51-6.41-2.59l1.54-2.08c1.34 1.45 3.25 2.08 4.93 2.08 1.37 0 2.99-.51 2.99-1.85 0-1.2-1.2-1.68-3.25-1.88-2.62-.26-5.73-1.14-5.73-4.22s3.22-4.22 5.84-4.22c2.17 0 3.82.48 5.42 1.85l-1.65 1.94c-1.14-1.05-2.37-1.31-3.82-1.31Z" class="cls-1"/><path id="path10" d="M328.12 111.76v1.45l-10.97 15.45h10.97v3.05h-15.48v-1.8l10.77-15.22h-9.86v-2.94h14.57Z" class="cls-1"/><path id="path11" d="M333.54 125.3c0 2.39 1.34 4.05 3.82 4.05 2.31 0 3.91-1.88 3.91-4.25v-7.35h2.94v14h-2.65l-.17-1.97c-1.37 1.6-2.88 2.28-4.85 2.28-3.45 0-5.93-2.48-5.93-6.73v-7.58h2.94v7.55Z" class="cls-1"/><path id="path12" d="M351.16 119.63c1.23-1.71 2.85-2.28 4.56-2.28 3.99 0 5.79 2.65 5.79 6.67v7.7h-2.94v-7.67c0-2.65-1.37-3.96-3.53-3.96-2.28 0-3.88 1.88-3.88 4.19v7.44h-2.94v-19.95h2.94v7.87Z" class="cls-1"/><path id="path13" d="M379.46 117.75v13.97h-2.79l-.14-2.28c-.91 1.82-3.14 2.65-4.85 2.65-4.1 0-7.21-2.62-7.21-7.41s3.25-7.33 7.27-7.33c2.02 0 3.91.94 4.79 2.54l.08-2.14h2.85Zm-12.06 6.93c0 2.88 2.05 4.67 4.56 4.67 3.05 0 4.56-2.34 4.56-4.67s-1.51-4.65-4.56-4.65c-2.51 0-4.56 1.8-4.56 4.65Z" class="cls-1"/><path id="path14" d="M386.18 125.3c0 2.39 1.34 4.05 3.82 4.05 2.31 0 3.91-1.88 3.91-4.25v-7.35h2.94v14h-2.65l-.17-1.97c-1.37 1.6-2.88 2.28-4.85 2.28-3.45 0-5.93-2.48-5.93-6.73v-7.58h2.94v7.55Z" class="cls-1"/><path id="path15" d="M406.02 119.83c-1.77 0-2.88.6-2.88 1.65 0 1.17 1.23 1.57 3.05 1.79 2.59.31 5.96.77 5.96 4.42 0 2.59-2.37 4.42-5.99 4.42-2.28 0-4.56-.51-6.41-2.59l1.54-2.08c1.34 1.45 3.25 2.08 4.93 2.08 1.37 0 2.99-.51 2.99-1.85 0-1.2-1.2-1.68-3.25-1.88-2.62-.26-5.73-1.14-5.73-4.22s3.22-4.22 5.84-4.22c2.17 0 3.82.48 5.42 1.85l-1.65 1.94c-1.14-1.05-2.37-1.31-3.82-1.31Z" class="cls-1"/><path id="path16" d="M421.89 129.38c1.45 0 3.19-.51 4.08-1.51l1.91 1.85c-1.45 1.62-3.88 2.39-6.04 2.39-4.62 0-7.58-2.94-7.58-7.44s2.99-7.33 7.38-7.33 7.13 2.39 7.13 7.24c0 .4-.03.83-.06 1.25h-11.4c.26 2.17 2 3.54 4.59 3.54Zm-.17-9.41c-2.17 0-3.91 1.14-4.36 3.39h8.52c-.2-2.25-1.77-3.39-4.16-3.39Z" class="cls-1"/><path id="path17" d="M454.68 131.72h-2.76l-.17-2.22c-1.11 1.8-3.02 2.51-4.87 2.51-4.08 0-7.18-2.65-7.18-7.33s3.05-7.33 7.12-7.33c1.71 0 4.02.83 4.93 2.51v-8.09h2.94v19.95Zm-12.06-7.04c0 2.85 1.94 4.59 4.45 4.59s4.48-1.82 4.48-4.59-2.05-4.56-4.48-4.56-4.45 1.71-4.45 4.56Z" class="cls-1"/><path id="path18" d="M465.48 129.38c1.45 0 3.19-.51 4.08-1.51l1.91 1.85c-1.45 1.62-3.88 2.39-6.04 2.39-4.62 0-7.58-2.94-7.58-7.44s2.99-7.33 7.38-7.33 7.13 2.39 7.13 7.24c0 .4-.03.83-.06 1.25h-11.4c.26 2.17 2 3.54 4.59 3.54Zm-.17-9.41c-2.17 0-3.91 1.14-4.36 3.39h8.52c-.2-2.25-1.77-3.39-4.16-3.39Z" class="cls-1"/><path id="path19" d="M478.35 119.52c1.03-1.8 2.62-2.17 4.13-2.17 1.37 0 2.68.48 3.48 1.2l-1.34 2.57c-.71-.57-1.37-.85-2.48-.85-2.02 0-3.79 1.25-3.79 3.85v7.61h-2.94v-13.97h2.74l.2 1.77Z" class="cls-1"/><path id="path20" d="m513.08 131.72-2.65-7.04-2.19-6.67-2.2 6.7-2.62 7.01h-2.79l-7.24-19.95h3.56l5.07 15.33 5.16-15.33h2.05l5.27 15.33 4.96-15.33h3.56l-7.13 19.95h-2.82Z" class="cls-1"/><path id="path21" d="M530.07 129.38c1.45 0 3.19-.51 4.08-1.51l1.91 1.85c-1.45 1.62-3.88 2.39-6.04 2.39-4.62 0-7.58-2.94-7.58-7.44s2.99-7.33 7.38-7.33 7.13 2.39 7.13 7.24c0 .4-.03.83-.06 1.25h-11.4c.26 2.17 2 3.54 4.59 3.54Zm-.17-9.41c-2.17 0-3.91 1.14-4.36 3.39h8.52c-.2-2.25-1.77-3.39-4.16-3.39Z" class="cls-1"/><path id="path22" d="M543.15 131.72h-2.94v-19.95h2.94v19.95Z" class="cls-1"/><path id="path23" d="M552.02 117.75h4.1v2.54h-4.13v6.64c0 1.48.66 2.31 2.02 2.31.57 0 1.23-.17 1.8-.49l.85 2.51c-1.08.46-1.94.63-3.05.63-2.94 0-4.56-1.71-4.56-4.96v-6.64h-2.71v-2.54h2.71v-3.82l2.96-.31v4.13Z" class="cls-1"/><path id="path24" d="M170.54 129.38c1.45 0 3.19-.51 4.08-1.51l1.91 1.85c-1.45 1.62-3.88 2.39-6.04 2.39-4.62 0-7.58-2.94-7.58-7.44s2.99-7.33 7.38-7.33 7.13 2.39 7.13 7.24c0 .4-.03.83-.06 1.25h-11.4c.26 2.17 2 3.54 4.59 3.54Zm-.17-9.41c-2.17 0-3.9 1.14-4.36 3.39h8.52c-.2-2.25-1.77-3.39-4.16-3.39Z" class="cls-1"/><path id="path25" d="M153.78 117.38c-1.99 0-3.67.9-4.69 2.49-.83-1.59-2.44-2.49-4.5-2.49-1.48 0-2.79.58-3.67 1.6l-.09-1.28h-2.75v14.01h2.91v-7.91c0-1.82 1.13-3.65 3.3-3.65 1.9 0 3.22 1.47 3.22 3.57v7.99h2.91v-7.99c0-2.04 1.42-3.57 3.3-3.57s3.11 1.38 3.11 3.52v8.05h2.94v-8.05c0-3.88-2.3-6.29-5.99-6.29Z" class="cls-1"/><path id="path26" d="M182.06 111.74c.91 0 1.82.57 1.82 1.79s-.91 1.82-1.82 1.82-1.82-.6-1.82-1.82.91-1.79 1.82-1.79Zm1.45 19.98h-2.94v-13.97h2.94v13.97Z" class="cls-1"/><path id="path27" d="M197.99 124.19c0-2.42-1.37-4.1-3.79-4.1s-3.93 1.97-3.93 4.28v7.35h-2.94v-13.97h2.68l.17 1.94c1.34-1.54 2.91-2.31 4.73-2.31 3.39 0 6.04 2.39 6.04 6.78v7.55h-2.96v-7.53Z" class="cls-1"/></g><g id="EURONICS"><g id="g29"><path id="path28" d="M147.63 31.75c0-5.04 2.52-6.71 6.01-6.71h1.54c3.64 0 6.15 1.54 6.15 6.71V64.2c0 11.61 5.87 18.46 16.08 18.46 8.37 0 14.93-4.73 18.43-11.84.02-.03.02-.07.02-.1V31.75c0-5.04 2.52-6.71 6.02-6.71h1.54c3.64 0 6.16 1.54 6.16 6.71v59.88c0 1.04-2.24 1.94-4.9 1.94-4.2 0-8.53-1.96-8.81-10.63-4.75 6.86-12.02 11.75-22.37 11.75-17.76 0-25.87-12.03-25.87-28.81V31.75Zm72.32 55.24c0 5.03 2.52 6.57 6.15 6.57h1.54c3.49 0 6.15-1.54 6.15-6.57V63.36c0-15.52 4.34-26.15 15.25-26.15 3.77 0 6.43 1.26 8.53 2.94.28.28 4.2-1.82 4.2-7.13 0-5.59-4.06-8.95-11.05-8.95-8.53 0-14.12 4.47-17.06 12.73-.14-9.51-4.61-11.75-8.67-11.75-2.8 0-5.03.84-5.03 1.93v60.03Zm77.25-62.93c-20.84 0-35.38 14.68-35.38 35.24s14.41 35.53 35.24 35.53 35.24-14.68 35.24-35.24-14.54-35.52-35.1-35.52m-.14 59.43c-12.87 0-22.52-10.35-22.52-24.2s9.65-23.91 22.52-23.91 22.38 10.21 22.38 24.19-9.51 23.92-22.38 23.92m42.85 3.49c0 5.03 2.52 6.57 6.15 6.57h1.54c3.5 0 6.15-1.54 6.15-6.57V47.97c3.36-6.99 10.07-11.75 18.88-11.75 9.79 0 15.52 6.99 15.52 18.32v32.45c0 5.03 2.52 6.57 6.15 6.57h1.54c3.5 0 6.15-1.54 6.15-6.57V52.86c0-16.64-8.25-28.81-26.01-28.81-10.35 0-17.76 5.04-22.38 11.89-.42-8.81-4.61-10.91-8.67-10.91-2.8 0-5.04.88-5.04 1.95v60.01Zm71.78-79.16c0 4.9 3.08 7.69 8.25 7.69s8.25-2.66 8.25-7.69c0-5.04-2.94-7.83-8.11-7.83s-8.39 2.8-8.39 7.83m1.26 79.16c0 5.03 2.66 6.57 6.29 6.57h1.4c3.63 0 6.15-1.54 6.15-6.57V31.75c0-5.17-2.52-6.71-6.15-6.71h-1.4c-3.64 0-6.3 1.68-6.3 6.71v55.24Zm57.34-62.93c-20.14 0-34.96 14.82-34.96 35.24s14.68 35.52 34.96 35.52 28.81-12.31 28.81-18.46-7.83-6.99-8.25-6.29c-3.07 7.41-8.95 13.15-20.28 13.15-12.72 0-22.09-10.07-22.09-23.92s9.51-23.64 22.09-23.64c11.47 0 17.21 5.73 20.28 13.14.42.7 8.25-.42 8.25-6.15 0-6.3-8.81-18.6-28.81-18.6m38.97 50.05c-.76-.06-5.38 2.16-5.38 6.32 0 6.43 9.65 14.26 28.39 14.26 17.34 0 27.97-8.25 27.97-21.12 0-14.55-14.4-17.62-24.75-19.86-10.91-2.38-16.78-3.78-16.78-9.93 0-5.6 5.04-9.23 14.55-9.23 8.51 0 15.48 3.89 19.68 9.46.03.03.04.06.08.08.57.22 5.55-2.27 5.55-6.47 0-6.29-8.67-13.57-25.87-13.57s-26.85 8.53-26.85 21.12c0 14.27 13.71 17.34 23.64 19.44 11.05 2.38 17.34 3.64 17.34 10.49 0 5.59-5.32 9.09-14.82 9.09-10.59 0-18.12-4.3-22.6-9.99-.04-.05-.07-.09-.13-.1M133.44 58.32c6.72-2.22 6.59-5.34 5.87-8.74-2.06-10.99-11.01-25.52-30.84-25.52s-34.4 15.25-34.4 35.66c0 20.98 14.26 35.1 35.52 35.1 18.32 0 28.67-9.37 28.67-15.24 0-5.32-5.74-6.85-7.02-6.89-.15 0-.28.08-.35.21-3.51 5.94-9.38 11.01-21.02 11.01-12.63 0-21.81-8.27-22.9-20.56-.33-3.2-.29-6.42.12-9.65 1.68-11.19 10.21-19.16 21.26-19.16 9.83 0 16.53 5.85 18.47 15.14.04.17-.05.36-.21.43-11.31 5.19-32.17 4.91-34.03 4.87-.09 0-.15.05-.17.13-.54 2.37-.43 6.13 0 8.45.02.1.1.17.2.17 13.14.69 25.8-.48 40.83-5.44" style="fill:#17408b;fill-opacity:1"/><path id="path29" d="M48.05 69.18c-.14-2.46 3.05-3.05 3.38-.16.73 6.29 2.32 22.49 2.48 24.73.2 2.77-2.56 4.02-4.78 1.7-.55-.58-14.74-15.23-15.78-16.4-1.02-1.15-1.65-1.17-2.96-.7-.59.21-15.32 5.75-22.11 8.28-4.76 1.77-6.85-1.39-4.5-4.81 3.43-4.98 13.05-18.33 13.34-18.8.8-1.26.77-1.99-.65-3.71-1.03-1.25-10.25-11-12.14-13.34-1.54-1.91-4.82-4.56-4.28-7.32.42-2.13 2.41-3.03 4.39-2.71 2.63.43 18.65 5.52 23.24 6.4.95.19 1.59-.99 3.15-3.44 4.98-7.81 9.33-14.12 11.34-16.79 2.77-3.68 6.54-2.61 6.9 2.01.47 5.96 1.49 17.68 2.07 23.01.16 1.47.73 2.46 1.99 2.9 3.8 1.36 6.4 2.44 15.74 3.87.15.02.26.17.23.32-.63 3.39-.45 6.36-.36 7.29.01.16-.11.29-.27.26-5.01-.89-15.22-2.86-21.51-6.07-1.57-.8-2.7-2.29-3.06-4.11-.29-1.49-.87-13.19-1.14-17.44-2.61 4.04-8.54 13.31-8.92 13.88-.89 1.31-3.22 2.79-6.42 1.83-1.58-.48-11.43-3.37-14.47-4.23 2.27 2.87 9.54 10.7 10.45 11.81 1.1 1.33 2.02 2.79 1.92 4.21-.1 1.47-1.35 2.78-2.14 3.95-1.07 1.59-8.46 10.39-10.44 13.31 3.73-1.34 15.64-6.14 17.41-6.76 2.61-.91 4.3-.2 5.46 1.21 2.94 3.58 11.02 11.87 13.12 14.7l-.68-18.89Z" class="cls-1"/></g></g></svg>