<svg xmlns="http://www.w3.org/2000/svg" xml:space="preserve" width="363" height="275" class="js-colored-logo" viewBox="-0.3 -0.1 363 275"><path d="M287.072 225.069h9.586v46.923h-9.586zm-30.777 47.427-9.586-16.145h-7.569v16.145h-9.586V225.07h17.66c4.54 0 7.567 1.009 10.09 2.018 7.569 4.541 9.586 13.623 5.55 21.19-1.513 2.523-4.036 5.046-6.559 6.055l10.596 17.66zm-16.65-24.722h8.577c2.523 0 3.532-.505 4.541-1.01 3.532-2.018 4.54-6.054 2.523-9.586-.505-1.009-1.514-2.018-2.523-2.522-1.01-.505-2.523-1.01-4.54-1.01h-8.578zm-53.987 5.045h18.164v-8.577h-18.164V234.15h20.182v-9.082h-29.263v46.923h30.273v-9.082h-20.687v-10.09zm-46.923-27.75h-9.586v46.923h28.255v-9.082h-18.669zm-28.758 47.427H99.885l-3.027-8.577H77.181l-3.028 8.577h-10.09L81.72 225.07h11.1zM93.83 255.342l-6.56-19.173-6.559 19.173zm267.41 17.154h-10.09l-3.028-8.577h-19.172l-3.028 8.577h-10.09l17.153-46.922h11.1zm-16.145-17.154-6.559-19.173-6.56 19.173zm-318.87-8.577v8.073h14.127c-2.018 5.55-7.569 9.081-14.128 9.081-8.577 0-15.64-7.064-15.64-15.64s7.063-15.642 15.64-15.642c5.046 0 9.082 1.514 12.11 5.55l7.063-6.054c-5.045-5.55-11.605-8.577-19.173-8.577-13.622 0-24.722 11.1-24.722 24.722 0 13.623 11.1 24.723 24.722 24.723 8.577 0 16.146-4.037 20.182-10.091 2.523-3.532 4.036-8.073 4.036-14.128v-2.018zM133.705 48.024v16.314c-13.739 0-25.759 11.162-25.759 25.759 0 14.596 11.162 25.758 25.759 25.758v16.314c-23.183 0-42.074-18.89-42.074-42.073s18.89-42.073 42.074-42.073zm96.165 0v16.314c14.596 0 25.759 11.162 25.759 25.759 0 12.02-8.586 22.324-20.607 24.9-5.152.859-8.586.859-11.163 0V92.673c0-8.586-.858-13.739-3.434-18.89-6.87-15.456-22.325-25.76-38.639-25.76-23.183 0-42.073 18.891-42.073 42.074 0 6.01 1.717 12.021 4.293 17.173 9.445 20.607 35.204 30.052 55.811 20.607 2.576-1.717 6.01-3.435 7.728-5.152v10.304c0 7.728-.858 11.162-1.717 14.596-4.293 9.445-13.738 15.455-24.042 15.455-14.596 0-25.759-11.162-25.759-25.758h-16.314c0 23.183 18.89 42.073 42.074 42.073 17.173 0 32.628-10.303 38.638-25.759 1.718-5.151 3.435-10.303 3.435-19.748v-2.576c2.576 0 8.586.859 13.738 0 19.749-4.293 33.487-20.607 34.346-41.214 0-23.184-18.89-42.074-42.073-42.074zm-48.083 67.83c-13.739 0-25.76-11.162-25.76-25.759 0-14.596 11.163-25.758 25.76-25.758 13.738 0 25.758 11.162 25.758 25.758 0 14.597-12.02 25.76-25.758 25.76zm0-98.744c13.738 0 25.758 11.162 25.758 25.758h16.314c0-23.183-18.89-42.073-42.073-42.073s-42.073 18.89-42.073 42.073h16.314c0-14.596 12.02-25.758 25.758-25.758z"/></svg>