<?xml version="1.0" encoding="UTF-8" standalone="no"?>
<!-- Created with Inkscape (http://www.inkscape.org/) -->

<svg
   width="105.83334mm"
   height="29.7542mm"
   viewBox="0 0 105.83332 29.7542"
   version="1.1"
   id="svg1"
   inkscape:version="1.3.2 (091e20e, 2023-11-25, custom)"
   sodipodi:docname="Getränke Hoffmann 19.10.2024.svg"
   xmlns:inkscape="http://www.inkscape.org/namespaces/inkscape"
   xmlns:sodipodi="http://sodipodi.sourceforge.net/DTD/sodipodi-0.dtd"
   xmlns="http://www.w3.org/2000/svg"
   xmlns:svg="http://www.w3.org/2000/svg">
  <sodipodi:namedview
     id="namedview1"
     pagecolor="#ffffff"
     bordercolor="#111111"
     borderopacity="1"
     inkscape:showpageshadow="0"
     inkscape:pageopacity="0"
     inkscape:pagecheckerboard="1"
     inkscape:deskcolor="#d1d1d1"
     inkscape:document-units="mm"
     inkscape:zoom="3.4"
     inkscape:cx="200"
     inkscape:cy="56.323529"
     inkscape:window-width="1920"
     inkscape:window-height="1129"
     inkscape:window-x="-8"
     inkscape:window-y="-8"
     inkscape:window-maximized="1"
     inkscape:current-layer="layer1" />
  <defs
     id="defs1" />
  <g
     inkscape:label="Ebene 1"
     inkscape:groupmode="layer"
     id="layer1"
     transform="translate(-53.18125,-133.87913)"
     style="display:inline">
    <path
       class="st0"
       d="m 120.68444,145.13005 0.27012,-0.78335 c -1.94487,2.10695 -4.7001,2.48512 -3.8087,0 l 0.83737,-1.94487 c 0.32415,-0.94542 -1.02646,-1.16152 -1.43164,-0.16207 l -0.94542,2.64719 c -0.70232,1.86383 -2.86329,1.02645 -2.56614,0.18908 l 0.27011,-0.78335 c -3.37651,3.16042 -4.10584,1.10749 -4.15985,0.4322 -2.07994,2.67419 -5.40242,0.89139 -2.97134,-3.02536 1.43164,-2.32303 3.75468,-2.35005 4.0248,-0.62128 l 0.16207,-0.4592 c 0.32415,-0.94542 2.51213,-1.08048 2.48512,-0.13506 -0.0271,0.18909 -0.054,0.37816 -0.0811,0.56725 l -0.59426,1.48566 c -1.35061,3.13341 1.26956,1.43164 1.72877,-0.0811 l 0.64828,-1.83682 c 0.32415,-0.94542 2.51213,-1.08048 2.48512,-0.13506 -0.0271,0.18908 -0.0811,0.37816 -0.13506,0.56725 0,0 1.48567,-1.70176 2.97132,-1.08048 0.45922,0.2161 0.67531,0.75633 0.51323,1.24255 l -0.51323,1.35061 c -1.35059,3.1334 1.3236,1.43164 1.7828,-0.0811 m 0.0271,0.0271 2.29602,-6.56393 c -1.86382,1.16152 -3.07937,1.89084 -5.32137,1.86383 -2.35006,-0.054 -2.70121,-1.40463 -4.88919,-1.97189 -1.70176,-0.43219 -2.21499,-0.27011 -4.18687,0.10806 0.81036,-0.97244 1.97188,-1.59371 3.72766,-1.91786 4.37596,-0.78336 4.78114,1.7828 7.88753,1.70176 1.62072,-0.0271 3.37651,-1.75578 5.42943,-1.40463 1.72877,0.29714 0.16207,0.45921 0.054,0.94543 l -2.0259,5.91564 c 4.7001,-3.88974 6.34784,2.72822 1.18853,1.08049 -0.37817,2.9173 2.56615,2.64717 3.37651,1.40462 0.86438,-4.37596 6.2668,-4.484 6.2668,-2.40407 0,1.97188 -2.26901,1.97188 -3.29548,1.08048 -1.10749,1.97188 1.3236,2.40407 2.24201,2.05292 1.72877,-0.62128 0.94543,0.72932 -0.83737,1.32359 -2.13396,0.75634 -4.0248,0.18908 -4.21389,-1.37762 -1.32359,1.35061 -4.42998,3.18743 -5.78059,-0.32414 l -0.32414,0.89139 c -0.70231,1.86384 -2.86328,1.02647 -2.56615,0.18909 l 0.27013,-0.78335 m -7.67144,0 19.79986,-2.40407 c 0.18909,0.054 0.37816,0.0811 0.56725,0.0811 1.40463,0.054 1.18853,-1.26957 0.40519,-1.24255 -0.70232,0.054 -1.08049,0.54024 -1.48567,1.02646 0.18909,0.054 0.35116,0.0811 0.51323,0.13506 m -44.894081,1.72877 c 0.864387,-4.45699 6.266803,-4.45699 6.266803,-2.43109 0,1.94487 -2.269015,1.94487 -3.295473,1.08049 -1.485664,2.43109 3.376509,3.40352 4.348944,-0.29714 l 0.675302,-1.86383 h -0.621277 c -0.189086,0 -0.351158,-0.13506 -0.37817,-0.32414 0,-0.18909 0.162073,-0.32415 0.351157,-0.32415 0,0 0,0 0,0 h 0.837375 l 0.324145,-0.86439 c 0.324145,-0.83738 0.837374,-1.13451 1.5667,-1.13451 1.485664,0.0271 1.134508,0.72933 0.945424,1.24257 l -0.297134,0.78334 h 0.621279 c 0.189084,0 0.351156,0.13506 0.378168,0.32415 0,0.18909 -0.162073,0.32414 -0.351157,0.32414 0,0 0,0 0,0 h -0.837374 l -0.891399,2.43109 c -1.350604,3.1334 1.647737,1.43164 2.160968,-0.0811 l 0.64829,-1.83681 c 0.32414,-0.94544 2.51212,-1.08049 2.4581,-0.13507 -0.0271,0.18908 -0.0811,0.37817 -0.13506,0.56725 0,0 1.18853,-1.59371 2.242,-1.1345 0.99945,0.43219 0.37816,1.72877 -0.0811,2.64718 -0.21609,0.40518 -1.16152,0.40518 -1.32359,0.27012 -0.0811,-0.13506 -0.10805,-0.29713 -0.054,-0.43219 0.32415,-0.94543 -0.83738,-1.16152 -1.18853,-0.16207 l -0.94543,2.64718 c -0.70231,1.86384 -2.863277,1.02646 -2.566144,0.18908 l 0.27012,-0.78335 c -2.323039,2.13396 -4.700102,2.48512 -4.700102,0 -2.160966,2.29603 -5.942657,2.29603 -6.320826,0 -1.350604,1.53969 -5.402416,3.05237 -4.754126,-0.16207 -4.889187,4.83516 -10.075506,-0.51323 -4.565042,-6.83406 3.673643,-4.24089 10.966905,-3.56559 9.805386,-0.40517 -0.243109,0.75633 -0.783351,1.24255 -1.701762,1.08048 -1.485665,-0.24312 -1.458652,-1.5397 -0.837375,-2.83628 -4.42998,-0.9184 -8.69789,6.72602 -5.024247,8.18467 1.728774,0.6753 2.890293,-0.78335 3.430535,-2.56615 h -1.404629 c -0.216096,0 -0.702313,-0.13505 -0.702313,-0.48621 0,-0.35116 0.378168,-0.48622 0.702313,-0.48622 h 3.349499 c 0.864386,0 0.999447,0.32414 0.78335,0.83738 l -0.702314,1.89084 c -0.918411,2.53913 0.864386,1.97188 1.512676,1.08048 m 4.970223,-2.94432 c -0.675302,0 -1.026459,0.45921 -1.539689,1.02646 2.566148,0.8914 2.512124,-1.02646 1.539689,-1.02646 m 15.504928,-2.35005 c 0,-0.43219 0.35116,-0.78335 0.78336,-0.78335 0.43219,0 0.78335,0.35116 0.78335,0.78335 0,0.43219 -0.35116,0.78335 -0.78335,0.78335 0,0 0,0 0,0 -0.40519,0 -0.75634,-0.35116 -0.78336,-0.78335 0,0 0,0 0,0 m 2.26902,0 c 0,-0.43219 0.35116,-0.78335 0.78336,-0.78335 0.43219,0 0.78334,0.35116 0.78334,0.78335 0,0.43219 -0.35115,0.78335 -0.78334,0.78335 -0.4322,0 -0.78336,-0.32414 -0.78336,-0.75633 0,0 0,-0.0271 0,-0.0271 m -2.78224,5.15931 c 1.02645,0.54024 2.29602,-1.97189 1.24255,-2.51212 -1.05347,-0.54025 -2.29603,1.99889 -1.24255,2.51212"
       style="text-align:center;fill:#e30613;stroke:none;stroke-width:0.27012"
       id="path164" />
    <path
       class="st1"
       d="m 61.257863,148.88473 h 3.295473 v 14.50549 h -3.295473 v -5.72656 h -4.781139 v 5.72656 H 53.18125 v -14.50549 h 3.295474 v 5.8076 h 4.781139 z"
       style="text-align:center;fill:#005ca9;stroke:none;stroke-width:0.27012"
       id="path165" />
    <path
       class="st1"
       d="m 65.822904,156.12397 c 0,-4.07883 3.322486,-7.40131 7.40131,-7.40131 4.078825,0 7.401311,3.32248 7.401311,7.40131 v 0 c 0,4.10584 -3.295474,7.50936 -7.401311,7.50936 -4.105836,0 -7.428322,-3.37651 -7.40131,-7.50936 0,0.027 0,0.027 0,0 z m 11.453122,0 c 0,-2.43109 -1.647736,-4.37596 -4.078824,-4.37596 -2.431087,0 -4.051812,1.94487 -4.051812,4.37596 0,2.43109 1.620725,4.40297 4.051812,4.40297 2.431088,0 4.105837,-1.97188 4.078824,-4.40297 z"
       style="text-align:center;fill:#005ca9;stroke:none;stroke-width:0.27012"
       id="path166" />
    <path
       class="st1"
       d="m 91.025176,151.77503 h -5.888634 v 3.05236 h 4.646079 v 2.86329 h -4.646079 v 5.69954 h -3.295473 v -14.50549 h 9.184107 z"
       style="text-align:center;fill:#005ca9;stroke:none;stroke-width:0.27012"
       id="path167" />
    <path
       class="st1"
       d="m 101.72196,151.77503 h -5.861622 v 3.05236 h 4.646082 v 2.86329 h -4.646082 v 5.69954 h -3.295473 v -14.50549 h 9.184105 z"
       style="text-align:center;fill:#005ca9;stroke:none;stroke-width:0.27012"
       id="path168" />
    <path
       class="st1"
       d="m 119.30683,163.39022 h -3.37651 l -0.94542,-8.2657 -3.16042,6.61796 h -2.53914 l -3.16041,-6.56393 -0.97244,8.23868 h -3.37651 l 1.7828,-14.50548 h 2.75523 l 4.2409,9.04904 4.15986,-9.07606 h 2.80926 z"
       style="text-align:center;fill:#005ca9;stroke:none;stroke-width:0.27012"
       id="path169" />
    <path
       class="st1"
       d="m 129.03117,148.88473 h -5.34839 l 1.08048,1.75579 -4.72711,12.7497 h 3.53859 l 1.08048,-3.37651 h 5.10528 l 1.08049,3.37651 h 3.51156 z m -3.45755,8.29272 1.62073,-5.13231 1.64774,5.13231 z"
       style="text-align:center;fill:#005ca9;stroke:none;stroke-width:0.27012"
       id="path170" />
    <polygon
       class="st1"
       points="343.5,55.4 331.3,55.4 331.3,85.9 314.1,55.4 303.6,55.4 298.8,55.4 302.9,62 302.9,109.1 315.1,109.1 315.1,78.3 332.8,109.1 343.5,109.1 "
       style="text-align:center;fill:#005ca9;stroke:none"
       id="polygon170"
       transform="matrix(0.27012081,0,0,0.27012081,53.18125,133.92004)" />
    <polygon
       class="st1"
       points="391.8,55.4 379.5,55.4 379.5,85.9 362.4,55.4 351.9,55.4 347,55.4 351.1,62 351.1,109.1 363.4,109.1 363.4,78.3 381,109.1 391.8,109.1 "
       style="text-align:center;fill:#005ca9;stroke:none"
       id="polygon171"
       transform="matrix(0.27012081,0,0,0.27012081,53.18125,133.92004)" />
  </g>
</svg>
