<svg xmlns="http://www.w3.org/2000/svg" id="Ebene_1" data-name="Ebene 1" version="1.1" viewBox="0 0 215.15 44.68">
  <defs id="defs1">
    <style id="style1">
      .cls-1{fill:#f42434}
    </style>
  </defs>
  <g id="Hammer_Logo" data-name="Hammer Logo">
    <path id="path1" d="M198.34 9.69h6.58l-.9 5c1.64-3.33 4.19-5 7.64-5h3.47l-1.26 7.14c-2.88.05-6.62-.42-8.72 1.71-1.5 1.49-1.94 3.42-2.39 5.69l-2.26 13h-6.93z" class="cls-1"/>
    <path id="path2" d="M178.6 14.99c-3.84.03-6.57 2.01-7.99 5.41h14.57c-.38-3.59-2.86-5.44-6.58-5.41m-1.56 22.8c-9.33.15-14.88-7.01-13.26-15.96 1.18-7.33 7.81-12.81 15.22-12.7 8.49-.12 13.89 6.86 12.46 15.04l-.3 1.73h-21.3c.23 1.84 1 3.27 2.31 4.31 2.05 1.73 6.28 2.11 8.79.69a11 11 0 0 0 2.91-2.3l5.33 3.72c-3.15 3.65-7.07 5.49-12.16 5.46" class="cls-1"/>
    <path id="path3" d="M119.72 9.69h6.88l-.65 3.57c.97-1.29 2.09-2.3 3.37-3.04 4.04-2.24 10.4-1.14 12.11 3.55 2.28-3.09 5.31-4.64 9.09-4.64 3.04 0 5.8 1 7.59 3.32 1.82 2.44 2.09 5.54 1.51 8.72l-2.91 16.06h-6.93l2.66-15.35c.62-3.61-.08-6.67-4.17-6.58-4.03 0-5.56 3.27-6.28 6.99l-2.61 14.94h-7.03l2.71-15.35c.37-2.04.22-3.64-.43-4.82-1.2-2.19-4.57-2-6.06-1.28-1.31.63-2.1 1.59-2.73 2.72-.57 1.01-1.04 2.27-1.33 3.94-.91 4.94-1.7 9.58-2.66 14.79h-6.88l4.77-27.54z" class="cls-1"/>
    <path id="path4" d="M72.49 9.69h6.88l-.65 3.57c.97-1.29 2.09-2.3 3.37-3.04 4.04-2.24 10.4-1.14 12.11 3.55 2.28-3.09 5.31-4.64 9.09-4.64 3.04 0 5.8 1 7.59 3.32 1.82 2.44 2.09 5.54 1.51 8.72l-2.91 16.06h-6.93l2.66-15.35c.62-3.61-.08-6.67-4.17-6.58-4.03 0-5.56 3.27-6.28 6.99l-2.61 14.94h-7.03l2.71-15.35c.37-2.04.22-3.64-.43-4.82-1.2-2.19-4.57-2-6.06-1.28-1.31.63-2.1 1.59-2.73 2.72-.57 1.01-1.04 2.27-1.33 3.94-.91 4.94-1.7 9.58-2.66 14.79h-6.88l4.77-27.54Z" class="cls-1"/>
    <path id="path5" d="M49.99 31.26c5.1.05 8.97-5.58 7.84-10.38-1.53-6.96-10.54-6.85-13.64-1.1-2.63 4.68-.15 11.59 5.8 11.47m-2.11 6.54c-10.94 0-14.18-12.78-9.62-21.11 1.66-3.05 4.2-5.39 7.41-6.63 4.86-1.89 11.38-1.08 13.62 4.03l.75-4.39h6.88l-4.77 27.54h-6.73l.6-3.57c-2.01 2.57-4.76 4.16-8.14 4.13" class="cls-1"/>
    <path id="polygon5" d="M7.18 37.23H0L6.43 0h7.18L11 14.99h14.92L28.54 0h7.13l-7.74 44.65H20.8l3.92-22.57H9.8z" class="cls-1"/>
  </g>
</svg>
