<?xml version="1.0" encoding="utf-8"?>
<!-- Generator: Adobe Illustrator 19.0.0, SVG Export Plug-In . SVG Version: 6.00 Build 0)  -->
<svg version="1.1" id="layer" xmlns="http://www.w3.org/2000/svg" xmlns:xlink="http://www.w3.org/1999/xlink" x="0px" y="0px"
	 viewBox="-153 -46 652 652" style="enable-background:new -153 -46 652 652;" xml:space="preserve">
<style type="text/css">
	.st0{fill:#89A7D3;}
	.st1{fill:#3E81C0;}
	.st2{fill:#0067B3;}
	.st3{fill:#005A9A;}
	.st4{fill:none;stroke:#0067B3;stroke-width:3.8823;}
	.st5{fill:#FFF000;}
	.st6{fill:#E5001D;}
	.st7{fill:#0F0C17;}
	.st8{fill:#FFFFFF;}
	.st9{clip-path:url(#SVGID_2_);}
	.st10{clip-path:url(#SVGID_4_);fill:url(#SVGID_5_);}
	.st11{fill:#C7001C;}
	.st12{fill:#F4B18E;}
	.st13{clip-path:url(#SVGID_7_);}
	.st14{clip-path:url(#SVGID_9_);fill:url(#SVGID_10_);}
	.st15{clip-path:url(#SVGID_12_);}
	.st16{clip-path:url(#SVGID_14_);fill:url(#SVGID_15_);}
	.st17{clip-path:url(#SVGID_17_);}
	.st18{clip-path:url(#SVGID_19_);fill:url(#SVGID_20_);}
	.st19{clip-path:url(#SVGID_22_);}
	.st20{clip-path:url(#SVGID_24_);fill:url(#SVGID_25_);}
	.st21{clip-path:url(#SVGID_27_);}
	.st22{clip-path:url(#SVGID_29_);fill:url(#SVGID_30_);}
	.st23{clip-path:url(#SVGID_32_);}
	.st24{clip-path:url(#SVGID_34_);fill:url(#SVGID_35_);}
	.st25{clip-path:url(#SVGID_37_);}
	.st26{clip-path:url(#SVGID_39_);fill:url(#SVGID_40_);}
	.st27{clip-path:url(#SVGID_42_);}
	.st28{clip-path:url(#SVGID_44_);fill:url(#SVGID_45_);}
	.st29{fill:none;stroke:#0F0C17;stroke-width:0.7279;}
	.st30{clip-path:url(#SVGID_47_);}
	.st31{clip-path:url(#SVGID_49_);fill:url(#SVGID_50_);}
	.st32{clip-path:url(#SVGID_52_);}
	.st33{clip-path:url(#SVGID_54_);fill:url(#SVGID_55_);}
	.st34{clip-path:url(#SVGID_57_);}
	.st35{clip-path:url(#SVGID_59_);fill:url(#SVGID_60_);}
	.st36{clip-path:url(#SVGID_62_);}
	.st37{clip-path:url(#SVGID_64_);fill:url(#SVGID_65_);}
	.st38{clip-path:url(#SVGID_67_);}
	.st39{clip-path:url(#SVGID_69_);fill:url(#SVGID_70_);}
	.st40{clip-path:url(#SVGID_72_);}
	.st41{clip-path:url(#SVGID_74_);fill:url(#SVGID_75_);}
	.st42{clip-path:url(#SVGID_77_);}
	.st43{clip-path:url(#SVGID_79_);fill:url(#SVGID_80_);}
	.st44{clip-path:url(#SVGID_82_);}
	.st45{clip-path:url(#SVGID_84_);fill:url(#SVGID_85_);}
	.st46{clip-path:url(#SVGID_87_);}
	.st47{clip-path:url(#SVGID_89_);fill:url(#SVGID_90_);}
	.st48{clip-path:url(#SVGID_92_);}
	.st49{clip-path:url(#SVGID_94_);fill:url(#SVGID_95_);}
</style>
<g>
	<path class="st0" d="M99.2,281.6c0,0-145.7-0.1-145.7-0.1l2.1,3.1l143.6,0L99.2,281.6z"/>
	<path class="st1" d="M238.6,277.6l-150.3,6.3l-5.9,3.3c0,0,147.9-6.2,153.4-6.4L238.6,277.6z"/>
	<polygon class="st0" points="233,281.6 167,281.6 168.2,284.7 231,284.7 	"/>
	<path class="st2" d="M239.8,291.1c-2.9-3.7-6.8-9.4-6.8-9.4l-2,3.1l9.8,12.6L239.8,291.1z"/>
	<path class="st2" d="M167,281.6c0,0-3.8,3.4-5.9,5.2l-0.1,4.2l7.1-6.3L167,281.6z"/>
	<path class="st1" d="M161.1,286.9c-1.9-1.9-5.4-5.2-5.4-5.2l-1.6,3.1l6.9,6.3L161.1,286.9z"/>
	<polygon class="st0" points="-98.1,281.6 -132.8,371.2 -129.2,370.5 -96,284.7 	"/>
	<polygon class="st0" points="-55.9,281.6 -98.2,281.6 -96,284.7 -57.5,284.7 	"/>
	<path class="st2" d="M-49.8,290.3c-2.4-3.6-6-8.7-6-8.7l-1.7,3.1l8.1,12.2L-49.8,290.3z"/>
	<path class="st1" d="M-46.5,281.6c0,0-2,5.4-3.3,8.7l0.5,6.6l5-12.2L-46.5,281.6z"/>
	<path class="st1" d="M99.2,284.7c0,0,11.4,0.2,13.1,10.8l-0.5-8.1c-3.7-4.3-9.3-5.8-12.7-5.8V284.7z"/>
	<polygon class="st0" points="155.7,281.6 113.6,281.6 115.3,284.7 154.2,284.7 	"/>
	<path class="st1" d="M113.5,281.6c0,0-1.1,4.1-1.7,5.8l0.5,8.1l3-10.9L113.5,281.6z"/>
	<path class="st3" d="M245.3,284.8l-4.2,9.1c-1.3-5-2.1-10.7-2.5-16.3l-2.8,3.2c0.5,4.8,1.2,9.6,2.3,13.8l2.1,8.4L245.3,284.8z"/>
	<polygon class="st4" points="327.8,299.7 329.5,301.7 329.5,301.9 	"/>
	<path class="st0" d="M88.3,283.9c0,0,27.2-41.3,45.6-55.7l-0.7-3.4l-1.2,0.9c-18.7,14.5-45.2,54.7-46.3,56.4l-3.3,5.1L88.3,283.9z"
		/>
	<path class="st3" d="M257.9,216.4c-0.9,1-1.8,2-2.7,3l0.2,4.7c2.1-2.6,4.3-5.1,6.6-7.5L257.9,216.4z"/>
	<path class="st1" d="M153.4,207.9c0,0,74.6,34.3,86.3,39.7l3.8-1.7l-63.8-29.3l-16.1-7.4l-4.6-2.1L153.4,207.9z"/>
	<path class="st5" d="M241.2,209.2l-31.2-32.7c0,0-33.6,15.3-50.9,30.6l4.6,2.1l16.1,7.4l63.8,29.3c-1.2,3.4-2.2,6.9-3,10.5
		L134,228.3c-18.5,14.4-45.6,55.7-45.6,55.7l150.3-6.3c0.3,5.5,1.2,11.3,2.5,16.3l4.2-9.1h69.2l15,16.9l6.5-16.9l61,0
		c0.4-2.5,0.8-5,1-7.5l55.5,11.4c0.6-15-9.7-42.1-9.7-42.1l-47.6,8c-0.8-3.5-1.9-6.9-3.1-10.1l43.4-14.3
		c-4.1-10.3-18.9-27.1-18.9-27.1l-35,22.4c-2.3-3.2-4.9-6.2-7.7-8.9c0.2,0.1,0.3,0.3,0.4,0.4l27.9-26.7c0,0-12.8-11.6-27.5-17.4
		l-17,31.3c-3.7-2.1-7.5-4-11.6-5.6l14.8-32.8c-10.6-6.2-30.9-9.4-30.9-9.4l-7.1,37.1c-1.8-0.1-3.6-0.2-5.5-0.2
		c-1.8,0-3.5,0.1-5.3,0.2l3.7-38.6c-11.2-2.4-34.8,1.2-34.8,1.2l6.7,42.9c-3.5,1.4-6.9,3.1-10.2,4.9l-13.3-44.9
		c-18,2.6-40.1,11.8-40.1,11.8l36.7,46.1c-2.3,2.4-4.5,4.9-6.6,7.5l-7.2-7.5L241.2,209.2z"/>
	<path class="st6" d="M190.2,216.6l54.5,26.1c-3.4,8.2-5.1,15.8-5.9,22.5l-135.1,2.5c-0.5,0.3-8.2,11.6-8.3,11.8
		c15.4-0.6,126.8-4.6,142.8-5.5c0,12.2,3.5,21,3.5,21l3.6-10.1l5.9,0c0,0-8.3-23.2,6.6-53.3c0,0,13.2-27.1,47.2-37.2
		c0,0-0.8,0.1-2.2,0.4l-4-37.5l-11.6,1l5.9,39.1c-6.1,2-13.9,5.4-21.7,10.8c0-0.1,0-0.1,0.1-0.2l-28.9-40.3l-10.9,4.1l32.4,42.2
		c-4.5,4.1-8.7,9-12.4,14.9c-0.7,1.2-1.4,2.3-2.1,3.5l-31.3-15.8l-14.7-7.4L179.6,197l-12.9,8.2l8.1,3.9L190.2,216.6z"/>
	<path class="st7" d="M326.3,210.9c5.1,6.5,2.2,18.3-2.8,25.1c-4.3,5.6-12.7,8.5-17.9,5.1c-4.5-4.9-3.3-12.7-1.3-18.2
		C307.2,213.5,318.8,202.3,326.3,210.9"/>
	<path class="st7" d="M376.3,232.3c4.7,11.1-8.1,24.6-18.2,27.6c-4.3,1.2-5.8,0.8-9.4-1.9c-4.3-4.4-3.3-9.1,0.1-15.4
		c4.3-7.4,12.4-14.7,20.9-14.7C373.6,228.2,375,229.6,376.3,232.3"/>
	<path class="st8" d="M307.4,235.2c1.6,2.2,4.3,6.1,7.7,5.1c-1.5,1.8-4.9,1.5-7.2,1.1c-6.8-4.6-3.1-17.2-2.4-18.8l3.5-6.6
		C307.6,220.5,303.9,229.6,307.4,235.2"/>
	<path class="st8" d="M353.3,256.5l3.1,1.1l3.5,0.8c-2.5,1.3-8.2,3.1-11.8-3.9c-2.7-6.8,3.1-15.1,10.9-21
		C355.1,240.2,345.2,251.6,353.3,256.5"/>
	<path class="st8" d="M369.3,242.8c2.2,0,4-1.8,4-4c0-2.2-1.8-3.9-4-3.9c-2.2,0-4,1.8-4,3.9C365.3,241,367.1,242.8,369.3,242.8"/>
	<path class="st8" d="M320.8,222.9c2.2,0,4-1.8,4-4c0-2.2-1.8-3.9-4-3.9c-2.2,0-4,1.8-4,3.9C316.9,221.1,318.7,222.9,320.8,222.9"/>
	<polygon class="st6" points="326.9,193.7 334.2,159.3 345.1,162.3 337,195.5 	"/>
	<polygon class="st6" points="361.5,205.7 378.1,176.9 386.9,181.9 368.4,210.5 	"/>
	<polygon class="st6" points="384.8,228.2 417.9,207.7 424.9,216.8 389.6,236.5 	"/>
	<polygon class="st6" points="397.3,258.3 441.8,251.8 445.9,263.3 398.6,268.3 	"/>
	<path class="st7" d="M316.9,287.5c11.2,2.4,19.9-9.8,30.6-12.1c1.5,4.3,5.5,5.4,8.3,7.3l1.2-1.2c-5.8-1.9-11.1-9.7-9.4-16.5
		c-0.9,0-2.1-0.7-2.4,0c0.4,2,0,5.7,1.5,8.4c-6.8,4.3-17.5,6.7-25,2.2c-9.1-3.9-15.5-11.8-17.2-20.9c2.3-1.9,5.4-4.4,6.8-7.5l-1.3-1
		c-2.1,4.1-4.5,6.2-7.9,7.1c-9.9-0.6-7.3-5.2-9.7-2.4c1.4,3.3,7.3,3.2,9.4,4.7c4.5,8.1,0.2,23.6,9.3,29.2
		C310.8,284.8,313,286.6,316.9,287.5"/>
	<path class="st6" d="M329.5,301.5l6.5-17h61l2,3.8c0,0,15.2-7.3,32.3-3.6c11.2,2.4,18.8,7.4,18.8,7.4l12.6,17l-19.3,26.2
		c0,0,27.9,27.3-4.5,53.2c0,0-17,13.6-55,1.8l-4.8,3.6H265.3l-8.1-9.5c0,0-29,23.6-56.9,5.3l-3.6,4.5h-31.1L148.4,376l-10.2,18.1H84
		l-9.5-11l-7.7,11H-56.5l-13.1-14.5l-3.6,14.5h-34.3l-21.7-23.6l33.2-85.9l38.6-0.2l8,12.5l5-12.2l143.6,0.1c0,0,11.4,0.2,13.2,10.8
		l3-10.8l39-0.3l6.7,6.6l7.1-6.3l62.8-0.3l9.9,12.9l4.8-12.9h70.1l13.8,17.4"/>
</g>
<g>
	<g>
		<defs>
			<path id="SVGID_1_" d="M-90.6,370.5l17.4,23.6l3.6-14.5l-8.6-41.6C-80.3,343.7-90.6,370.5-90.6,370.5"/>
		</defs>
		<clipPath id="SVGID_2_">
			<use xlink:href="#SVGID_1_"  style="overflow:visible;"/>
		</clipPath>
		<g class="st9">
			<defs>
				<polygon id="SVGID_3_" points="-97.5,338.8 -69.9,335.3 -62.6,393.2 -90.2,396.7 				"/>
			</defs>
			<clipPath id="SVGID_4_">
				<use xlink:href="#SVGID_3_"  style="overflow:visible;"/>
			</clipPath>
			
				<linearGradient id="SVGID_5_" gradientUnits="userSpaceOnUse" x1="-819.9102" y1="265.4822" x2="-797.852" y2="265.4822" gradientTransform="matrix(0.4215 -5.271500e-002 -5.271500e-002 -0.4215 269.2668 435.9674)">
				<stop  offset="0" style="stop-color:#C6001C"/>
				<stop  offset="1" style="stop-color:#E5001D"/>
			</linearGradient>
			<polygon class="st10" points="-105,336.3 -63.2,331.1 -55.1,395.7 -96.9,401 			"/>
		</g>
	</g>
</g>
<g>
	<g>
		<path class="st11" d="M395,290.1c1.3-3.3,2.2-5.8,2.2-5.8l-1.7,1.2c-0.6,1.7-2.7,7.3-2.7,7.3L395,290.1z"/>
		<path class="st12" d="M231.1,284.4l-62.8-0.2c0,0-10.9,9.1-20.1,16.5l-2.6,3.6c0,0,22.5-18.1,23.1-18.6c0.8,0,57.6-0.1,60.7-0.1
			L231.1,284.4z"/>
		<path class="st11" d="M148.2,300.7c1.4-3.7,6.1-16.3,6.1-16.3l-1.7,1.1c-1,2.6-7,18.7-7,18.7"/>
		<path class="st12" d="M154.3,284.4h-39.2l-3.2,8.7l0.1,3.2c0,0,3.5-9.5,4-10.8h36.7"/>
		<path class="st12" d="M109.7,289.3c-3.1-3.9-7.5-5.1-10.4-5h0.4l-144.3,0l0.8,1.2c1.5,0,142.7,0,143.3,0h0.4
			c2.6-0.1,6.4,1.1,9.1,4.5c0.8,1,1.4,2.2,2,3.5L109.7,289.3z"/>
		<path class="st12" d="M-44.6,284.4c0,0-7.7,19.9-9.8,25.2h-12.8l-1.7,1.2h15.3c0,0,9.2-23.8,9.7-25.2L-44.6,284.4z"/>
		<path class="st11" d="M-67.2,309.7c2.9-7.5,9.8-25.2,9.8-25.2l-1.7,1.2c-1.1,2.8-9.8,25.2-9.8,25.2L-67.2,309.7z"/>
		<path class="st11" d="M111.9,293.1c-0.6-1.4-1.3-2.6-2.1-3.7l1.1,4.2l1.1,2.8L111.9,293.1z"/>
		<path class="st12" d="M144.2,369.4c-0.3-1.8-5-26.6-5-26.6l-0.8,2.1c1.7,8.8,4.8,25.7,4.8,25.7L144.2,369.4z"/>
		<path class="st11" d="M251,358.4l-3.3,2.6c-11.3,9-25.2,9.5-25.7,9.6l-0.2,0c-13,1.3-25.2,0.1-27.5-0.2h-0.3h0l-0.3,0
			c-5.9-0.7-10.7-2.6-14.3-5.6l-2.4-2l1.7,2.9c3.7,3.1,8.7,5.1,14.9,5.8l0.3,0h0.2c2.3,0.2,14.6,1.6,27.6,0.2h0.3
			c0.8,0,14.9-0.6,26.4-9.8L251,358.4z"/>
		<path class="st11" d="M417,312.1c0.9,0.9,2.8,2.1,4.5,2.6l0.2,0.1l0.2,0.1c16.1,7.1,16.9,20.7,16.9,23.4l0,0.3
			c0,9.6-3.1,17.5-9.3,23.3c-11.9,11.2-30.7,10.7-32.8,10.6c0,0,0,0,0,0c-15-0.2-24.8-5.3-29.3-8.3l-1.2-0.8l0.6,1.8
			c4.5,3,14.5,8.3,30,8.5l-0.3,0c0.9,0.1,21.3,1.1,33.9-10.9c6.4-6.1,9.7-14.2,9.7-24.2v-0.3c0-3.1-0.9-17.1-17.6-24.4l-0.2-0.1
			l-0.3-0.1c-1.5-0.5-3.3-1.6-4-2.4c0.6-0.7,2-1,3.9-1c2.6,0.1,6.3,0.6,7.5,1.3l4.2,2.2l16.8-21.8l-1.7,0.4
			c-1.5,1.9-14.3,18.6-15.4,19.9c-1.1-0.6-3.4-1.8-3.4-1.8c-1.6-0.8-5.8-1.3-8.1-1.4c-1.6,0-3.7,0.2-4.8,1.4
			C416.9,310.5,416.1,311.2,417,312.1"/>
	</g>
</g>
<g>
	<g>
		<defs>
			<path id="SVGID_6_" d="M421.5,310.4c-1.9,0-3.2,0.4-3.7,1c0.8,0.8,2.5,1.9,4.1,2.4l0.2,0.1l0.2,0.1c3.4,1.5,6.1,3.2,8.3,5.1
				l2.9-5.1l-4.3-2.3c-1.3-0.7-5-1.2-7.5-1.3H421.5z"/>
		</defs>
		<clipPath id="SVGID_7_">
			<use xlink:href="#SVGID_6_"  style="overflow:visible;"/>
		</clipPath>
		<g class="st13">
			<defs>
				<polygon id="SVGID_8_" points="417.8,309.6 433.9,310.4 433.4,319.7 417.4,319 				"/>
			</defs>
			<clipPath id="SVGID_9_">
				<use xlink:href="#SVGID_8_"  style="overflow:visible;"/>
			</clipPath>
			
				<linearGradient id="SVGID_10_" gradientUnits="userSpaceOnUse" x1="363.167" y1="352.0065" x2="385.2253" y2="352.0065" gradientTransform="matrix(0.4578 2.069480e-002 2.069480e-002 -0.4578 245.4324 468.0037)">
				<stop  offset="0" style="stop-color:#C6001C"/>
				<stop  offset="1" style="stop-color:#E5001D"/>
			</linearGradient>
			<polygon class="st14" points="417.4,308.9 434.3,309.7 433.8,320.4 417,319.7 			"/>
		</g>
	</g>
</g>
<g>
	<g>
		<path class="st11" d="M366.1,363.4c0,0-1.8,4.7-2.3,5.8H246.9l-1.7,1.2h119.4l2-5.2L366.1,363.4z"/>
		<path class="st11" d="M139.2,342.8l-11.7,8.8c0,0-6.5,16.5-7,17.8c-0.9,0-55.5-0.1-56-0.1l-0.9,1.2l57.7,0.1
			c0,0,6.2-15.8,7.2-18.3c1.3-1,5.2-3.9,9.9-7.5L139.2,342.8z"/>
	</g>
</g>
<g>
	<g>
		<defs>
			<path id="SVGID_11_" d="M128.5,352.3l14.8,18.3l-4.9-25.7C133.7,348.4,129.8,351.3,128.5,352.3"/>
		</defs>
		<clipPath id="SVGID_12_">
			<use xlink:href="#SVGID_11_"  style="overflow:visible;"/>
		</clipPath>
		<g class="st15">
			<defs>
				<polygon id="SVGID_13_" points="125.4,345.2 143.1,343 146.4,370.2 128.8,372.4 				"/>
			</defs>
			<clipPath id="SVGID_14_">
				<use xlink:href="#SVGID_13_"  style="overflow:visible;"/>
			</clipPath>
			
				<linearGradient id="SVGID_15_" gradientUnits="userSpaceOnUse" x1="-447.6972" y1="-58.8483" x2="-425.6389" y2="-58.8483" gradientTransform="matrix(0.2645 -3.305310e-002 -3.305310e-002 -0.2645 246.1675 328.0901)">
				<stop  offset="0" style="stop-color:#C6001C"/>
				<stop  offset="1" style="stop-color:#E5001D"/>
			</linearGradient>
			<polygon class="st16" points="121.7,343.5 146.1,340.4 150.1,371.9 125.7,375 			"/>
		</g>
	</g>
</g>
<g>
	<g>
		<path class="st12" d="M64.5,369.3c-0.4-1.5-6.4-21.8-6.4-21.8l-0.2,3.6c2.2,7.6,5.7,19.3,5.7,19.3L64.5,369.3z"/>
		<path class="st12" d="M397.2,284.4h-61.3L314,342.2l0.8,1.2c0,0,21.4-56.3,21.9-57.8h58.9L397.2,284.4z"/>
		<path class="st11" d="M314,342.2h-20c4.4-11.6,21.9-57.8,21.9-57.8l-1.7,1.2c-1.1,3-21.9,57.8-21.9,57.8h22.5L314,342.2z"/>
	</g>
</g>
<g>
	<g>
		<defs>
			<path id="SVGID_16_" d="M293.9,342.2h20l14.7-40.2l-12.8-17.6C315.9,284.4,298.4,330.6,293.9,342.2"/>
		</defs>
		<clipPath id="SVGID_17_">
			<use xlink:href="#SVGID_16_"  style="overflow:visible;"/>
		</clipPath>
		<g class="st17">
			<defs>
				<polygon id="SVGID_18_" points="265.1,313.3 311.3,267 357.6,313.3 311.3,359.5 				"/>
			</defs>
			<clipPath id="SVGID_19_">
				<use xlink:href="#SVGID_18_"  style="overflow:visible;"/>
			</clipPath>
			
				<linearGradient id="SVGID_20_" gradientUnits="userSpaceOnUse" x1="-229.3547" y1="395.6894" x2="-207.2964" y2="395.6894" gradientTransform="matrix(0.4615 -0.4615 -0.4615 -0.4615 577.5581 412.2652)">
				<stop  offset="0" style="stop-color:#C6001C"/>
				<stop  offset="1" style="stop-color:#E5001D"/>
			</linearGradient>
			<polygon class="st18" points="218.8,313.3 311.3,220.8 403.8,313.3 311.3,405.8 			"/>
		</g>
	</g>
</g>
<g>
	<g>
		<path class="st11" d="M58.1,347.5c0,0-7.8,20.4-8.3,21.8c0-0.1-125.8,0-125.8,0.1l-1.7,1.2l128.3-0.1c0,0,4.4-11.5,7.4-19.3
			L58.1,347.5z"/>
		<path class="st12" d="M-76,369.3c1.1-2.9,12.4-32.6,12.4-32.6l-1.7,1.1c-3.4,9-12.4,32.6-12.4,32.6L-76,369.3z"/>
		<path class="st11" d="M-63.7,336.8H-79c0,0-11.8,31.1-12.4,32.6h-36.2l-1.7,1.1h38.8c0,0,10.2-26.8,12.4-32.6h12.8L-63.7,336.8z"
			/>
		<path class="st12" d="M-127.6,369.4c1.1-3,31.7-82.3,32.2-83.7h36.3l1.7-1.2h-38.8l-33.1,86.1L-127.6,369.4z"/>
		<path class="st11" d="M176.9,362.8c0,0,0.9,5.2,1.1,6.6h-33.8l-1,1.1h36.2c0,0-0.3-1.9-0.8-4.9L176.9,362.8z"/>
		<polygon class="st12" points="248.4,361.9 251,358.4 246.8,369.3 245.2,370.4 		"/>
		<polygon class="st5" points="360.7,364.8 367.2,347.9 343.8,347.9 350,331.6 373.3,331.6 379.7,315 356.2,315 359.5,306.7 
			382.8,306.7 389,290.1 339.8,290.1 311.5,364.8 		"/>
		<path class="st5" d="M194.2,365.8c-22.9-2.8-17.1-23.3-17.1-23.3l19.9-52.4h25.9l-15.7,41.4c0,0-6.6,13.4,8.4,13.4
			c15.1,0,18.1-13.4,18.1-13.4l15.7-41.4h25.9c0,0-11.8,31.3-20.1,53.2c-8.3,21.9-33.4,22.8-33.4,22.8h-0.3
			c-13.7,1.5-27.1-0.2-27.1-0.2H194.2z"/>
		<path class="st5" d="M49,290.1h50.7c0,0,13.8-0.9,5,27.6c0,0-4.2,15.2-20.7,18l9.5,29.1H67.9l-9.2-31.4l-12,31.4H20.7L49,290.1
			l-28.3,74.7 M75.7,319.3c5.3,0,7.4-4.9,7.4-4.9c3-8.4-2.7-7.7-2.7-7.7H68.9l-4.7,12.6H75.7z"/>
		<polygon class="st5" points="281.7,290.1 307.6,290.1 285.7,347.9 311.7,347.9 305.1,364.8 253.4,364.8 		"/>
		<polygon class="st5" points="-121,364.8 -92.3,290.1 -65.7,290.1 -75.5,315.3 -50.5,315.3 -40.7,290.1 -15,290.1 -43.7,364.8 
			-69.5,364.8 -57.1,332.2 -82.1,332.2 -94.5,364.8 		"/>
		<polygon class="st5" points="-37.4,364.7 -8.7,290.1 42.8,290.1 36.3,306.6 10.6,306.6 7.3,315 33.2,315 26.9,331.6 -0.4,331.6 
			-6.2,347.3 21.3,347.3 14.6,364.7 		"/>
		<polygon class="st5" points="172.7,364.9 148,364.9 142.3,334.8 123.8,348.7 117.5,364.9 91.5,364.9 119,290.1 146.1,290.1 
			135.6,318.1 170.3,290.2 196.8,290.2 164.2,316.2 		"/>
		<path class="st5" d="M441.7,293.9c0,0-8.8-4.7-20.7-4.9c0,0-34.1-0.6-35.6,27.1c0,0-1.4,15.6,15.4,21c0,0,8.6,2.7,7.8,8.4
			c0,0,0.2,6.6-11.9,5.8c0,0-11.9-0.3-18.7-5.1L367.8,359c0,0,9.7,8.8,28.8,9c0,0,37.6,2.1,37.6-29.4c0,0,0.8-12.9-14.2-19.5
			c0,0-8.2-2.7-8.2-7.8c0,0,0.4-6.7,9.9-6.6c0,0,6.8,0.2,10.1,1.9L441.7,293.9z"/>
	</g>
</g>
<g>
	<g>
		<defs>
			<path id="SVGID_21_" d="M396.5,373.7L396.5,373.7L396.5,373.7z M396.5,373.7h-0.2H396.5c-15.4-0.2-25.5-5.5-29.9-8.4l17.3,25
				c38.1,11.8,55-1.8,55-1.8l-8.7-25.7C418.1,374.2,398.9,373.8,396.5,373.7"/>
		</defs>
		<clipPath id="SVGID_22_">
			<use xlink:href="#SVGID_21_"  style="overflow:visible;"/>
		</clipPath>
		<g class="st19">
			<defs>
				<polygon id="SVGID_23_" points="374,340.9 450.8,366.8 431.5,424 354.7,398.1 				"/>
			</defs>
			<clipPath id="SVGID_24_">
				<use xlink:href="#SVGID_23_"  style="overflow:visible;"/>
			</clipPath>
			
				<linearGradient id="SVGID_25_" gradientUnits="userSpaceOnUse" x1="3.6182" y1="611.6568" x2="25.6764" y2="611.6568" gradientTransform="matrix(1.6963 0.5723 0.5723 -1.6963 9.2347 1405.29)">
				<stop  offset="0" style="stop-color:#C6001C"/>
				<stop  offset="1" style="stop-color:#E5001D"/>
			</linearGradient>
			<polygon class="st20" points="364.5,311.8 476,349.4 441,453.1 329.5,415.5 			"/>
		</g>
	</g>
</g>
<g>
	<g>
		<defs>
			<path id="SVGID_26_" d="M179.4,370.6l17.2,23.5l3.6-4.4l-21.6-24C179.1,368.7,179.4,370.6,179.4,370.6"/>
		</defs>
		<clipPath id="SVGID_27_">
			<use xlink:href="#SVGID_26_"  style="overflow:visible;"/>
		</clipPath>
		<g class="st21">
			<defs>
				<polygon id="SVGID_28_" points="167.2,371.3 195.9,357 211.6,388.4 182.9,402.7 				"/>
			</defs>
			<clipPath id="SVGID_29_">
				<use xlink:href="#SVGID_28_"  style="overflow:visible;"/>
			</clipPath>
			
				<linearGradient id="SVGID_30_" gradientUnits="userSpaceOnUse" x1="-1407.0549" y1="-1665.7628" x2="-1384.9967" y2="-1665.7628" gradientTransform="matrix(7.774100e-002 -3.890840e-002 -3.890840e-002 -7.774100e-002 229.8128 197.7037)">
				<stop  offset="0" style="stop-color:#C6001C"/>
				<stop  offset="1" style="stop-color:#E5001D"/>
			</linearGradient>
			<polygon class="st22" points="148.9,366.2 202.7,339.2 229.9,393.6 176.1,420.5 			"/>
		</g>
	</g>
</g>
<g>
	<g>
		<defs>
			<path id="SVGID_31_" d="M50.6,370.4l16.2,23.6l7.8-11l-11-12.7L58,351.1C55,359,50.6,370.4,50.6,370.4"/>
		</defs>
		<clipPath id="SVGID_32_">
			<use xlink:href="#SVGID_31_"  style="overflow:visible;"/>
		</clipPath>
		<g class="st23">
			<defs>
				<polygon id="SVGID_33_" points="45.3,351.8 74.2,348.2 79.8,393.4 51,397 				"/>
			</defs>
			<clipPath id="SVGID_34_">
				<use xlink:href="#SVGID_33_"  style="overflow:visible;"/>
			</clipPath>
			
				<linearGradient id="SVGID_35_" gradientUnits="userSpaceOnUse" x1="-461.6412" y1="266.3206" x2="-439.5829" y2="266.3206" gradientTransform="matrix(0.4754 -5.938420e-002 -5.938420e-002 -0.4754 287.0026 473.1687)">
				<stop  offset="0" style="stop-color:#C6001C"/>
				<stop  offset="1" style="stop-color:#E5001D"/>
			</linearGradient>
			<polygon class="st24" points="39.3,349 79.3,344 85.9,396.3 45.9,401.3 			"/>
		</g>
	</g>
</g>
<g>
	<g>
		<defs>
			<path id="SVGID_36_" d="M121.3,370.6l16.9,23.5l6.2-11l-9.9-12.7l-6-18.2C125.5,360.1,121.3,370.6,121.3,370.6"/>
		</defs>
		<clipPath id="SVGID_37_">
			<use xlink:href="#SVGID_36_"  style="overflow:visible;"/>
		</clipPath>
		<g class="st25">
			<defs>
				<polygon id="SVGID_38_" points="116.2,352.9 144.1,349.4 149.6,393.4 121.7,396.9 				"/>
			</defs>
			<clipPath id="SVGID_39_">
				<use xlink:href="#SVGID_38_"  style="overflow:visible;"/>
			</clipPath>
			
				<linearGradient id="SVGID_40_" gradientUnits="userSpaceOnUse" x1="-329.8458" y1="229.87" x2="-307.7876" y2="229.87" gradientTransform="matrix(0.4572 -5.715370e-002 -5.715370e-002 -0.4572 286.407 460.7092)">
				<stop  offset="0" style="stop-color:#C6001C"/>
				<stop  offset="1" style="stop-color:#E5001D"/>
			</linearGradient>
			<polygon class="st26" points="110.3,350.1 149.1,345.3 155.4,396.2 116.7,401 			"/>
		</g>
	</g>
</g>
<g>
	<g>
		<path class="st12" d="M450.3,292.1l-5.9-3.2c-0.4-0.2-10.1-5.3-23.2-5.5c-7.1-0.1-17.4,1.5-26.1,6.7l-2.2,2.7l2.9-1.7
			c8.3-5.1,18.6-6.7,25.4-6.6c12.8,0.2,22.3,5.2,22.7,5.4c0,0,3,1.6,4.7,2.5L450.3,292.1z"/>
	</g>
</g>
<g>
	<g>
		<defs>
			<path id="SVGID_41_" d="M-78.2,337.9L-78.2,337.9l8.4,11.4c1.6-4.3,3.2-8.4,4.4-11.4H-78.2z"/>
		</defs>
		<clipPath id="SVGID_42_">
			<use xlink:href="#SVGID_41_"  style="overflow:visible;"/>
		</clipPath>
		<g class="st27">
			<defs>
				<polygon id="SVGID_43_" points="-76,333.2 -61.1,339.8 -67.5,354.1 -82.4,347.5 				"/>
			</defs>
			<clipPath id="SVGID_44_">
				<use xlink:href="#SVGID_43_"  style="overflow:visible;"/>
			</clipPath>
			
				<linearGradient id="SVGID_45_" gradientUnits="userSpaceOnUse" x1="-582.2662" y1="-118.4816" x2="-560.2079" y2="-118.4816" gradientTransform="matrix(0.3161 0.1404 0.1404 -0.3161 121.5995 384.7095)">
				<stop  offset="0" style="stop-color:#C6001C"/>
				<stop  offset="1" style="stop-color:#E5001D"/>
			</linearGradient>
			<polygon class="st28" points="-78.9,325.3 -53.3,336.6 -64.6,362 -90.2,350.7 			"/>
		</g>
	</g>
</g>
<g>
	<g>
		<path class="st5" d="M194.2,365.8c-24.6-3.5-17.1-23.3-17.1-23.3l19.9-52.4h25.9l-15.7,41.4c0,0-5.5,13.4,8.4,13.4
			c13.4,0,18.1-13.4,18.1-13.4l15.7-41.4h25.9c0,0-11.7,31.3-20.1,53.2c-8.8,22.7-33.4,22.8-33.4,22.8h-0.3
			c-13.7,1.5-27.1-0.2-27.1-0.2H194.2z"/>
		<path class="st5" d="M49,290.1h50.7c0,0,13.8-0.9,5,27.6c0,0-4.2,15.2-20.7,18l9.5,29.1H67.9l-9.2-31.4l-12,31.4H20.7L49,290.1
			l-28.3,74.7 M75.7,319.3c5.3,0,7.4-4.9,7.4-4.9c3-8.4-2.7-7.7-2.7-7.7H68.9l-4.7,12.6H75.7z"/>
		<polygon class="st5" points="281.7,290.1 307.6,290.1 285.7,347.9 311.7,347.9 305.1,364.8 253.4,364.8 		"/>
		<polygon class="st5" points="-121,364.8 -92.3,290.1 -65.7,290.1 -75.5,315.3 -50.5,315.3 -40.7,290.1 -15,290.1 -43.7,364.8 
			-69.5,364.8 -57.1,332.2 -82.1,332.2 -94.5,364.8 		"/>
		<polygon class="st5" points="-37.4,364.7 -8.7,290.1 42.8,290.1 36.3,306.6 10.6,306.6 7.3,315 33.2,315 26.9,331.6 -0.4,331.6 
			-6.2,347.3 21.3,347.3 14.6,364.7 		"/>
		<polygon class="st5" points="172.7,364.9 148,364.9 142.3,334.8 123.8,348.7 117.5,364.8 91.5,364.8 119,290.1 146.1,290.1 
			135.6,318.1 170.3,290.1 196.8,290.1 164.2,316.2 		"/>
		<path class="st5" d="M441.7,293.9c0,0-8.8-4.7-20.7-4.9c0,0-34.1-0.6-35.6,27.1c0,0-1.4,15.6,15.4,21c0,0,8.6,2.7,7.8,8.4
			c0,0,0.2,6.6-11.9,5.8c0,0-11.9-0.3-18.7-5.1L367.8,359c0,0,9.7,8.8,28.8,9c0,0,37.6,2.1,37.6-29.4c0,0,0.8-12.9-14.2-19.5
			c0,0-8.2-2.7-8.2-7.8c0,0,0.4-6.7,9.9-6.6c0,0,6.8,0.2,10.1,1.9L441.7,293.9z"/>
		<polygon class="st5" points="360.7,364.8 367.2,347.9 343.8,347.9 350,331.6 373.3,331.6 379.7,315 356.2,315 359.5,306.7 
			382.8,306.7 389,290.1 339.8,290.1 311.5,364.8 		"/>
		<polygon class="st29" points="360.7,364.8 367.2,347.9 343.8,347.9 350,331.6 373.3,331.6 379.7,315 356.2,315 359.5,306.7 
			382.8,306.7 389,290.1 339.8,290.1 311.5,364.8 		"/>
		<path class="st5" d="M194.2,365.8c-24.6-3.5-17.1-23.3-17.1-23.3l19.9-52.4h25.9l-15.7,41.4c0,0-5.5,13.4,8.4,13.4
			c13.4,0,18.1-13.4,18.1-13.4l15.7-41.4h25.9c0,0-11.7,31.3-20.1,53.2c-8.8,22.7-33.4,22.8-33.4,22.8h-0.3
			c-13.7,1.5-27.1-0.2-27.1-0.2H194.2z"/>
		<path class="st29" d="M194.2,365.8c-24.6-3.5-17.1-23.3-17.1-23.3l19.9-52.4h25.9l-15.7,41.4c0,0-5.5,13.4,8.4,13.4
			c13.4,0,18.1-13.4,18.1-13.4l15.7-41.4h25.9c0,0-11.7,31.3-20.1,53.2c-8.8,22.7-33.4,22.8-33.4,22.8h-0.3
			c-13.7,1.5-27.1-0.2-27.1-0.2H194.2z"/>
		<path class="st5" d="M49,290.1h50.7c0,0,13.8-0.9,5,27.6c0,0-4.2,15.2-20.7,18l9.5,29.1H67.9l-9.2-31.4l-12,31.4H20.7L49,290.1z
			 M75.7,319.3c5.3,0,7.4-4.9,7.4-4.9c3-8.4-2.7-7.7-2.7-7.7H68.9l-4.7,12.6H75.7z"/>
		<path class="st29" d="M49,290.1h50.7c0,0,13.8-0.9,5,27.6c0,0-4.2,15.2-20.7,18l9.5,29.1H67.9l-9.2-31.4l-12,31.4H20.7L49,290.1z
			 M75.7,319.3c5.3,0,7.4-4.9,7.4-4.9c3-8.4-2.7-7.7-2.7-7.7H68.9l-4.7,12.6H75.7z"/>
		<polygon class="st5" points="281.7,290.1 307.6,290.1 285.7,347.9 311.7,347.9 305.1,364.8 253.4,364.8 		"/>
		<polygon class="st29" points="281.7,290.1 307.6,290.1 285.7,347.9 311.7,347.9 305.1,364.8 253.4,364.8 		"/>
		<polygon class="st5" points="-121,364.8 -92.3,290.1 -65.7,290.1 -75.5,315.3 -50.5,315.3 -40.7,290.1 -15,290.1 -43.7,364.8 
			-69.5,364.8 -57.1,332.2 -82.1,332.2 -94.5,364.8 		"/>
		<polygon class="st29" points="-121,364.8 -92.3,290.1 -65.7,290.1 -75.5,315.3 -50.5,315.3 -40.7,290.1 -15,290.1 -43.7,364.8 
			-69.5,364.8 -57.1,332.2 -82.1,332.2 -94.5,364.8 		"/>
		<polygon class="st5" points="-37.4,364.7 -8.7,290.1 42.8,290.1 36.3,306.6 10.6,306.6 7.3,315 33.2,315 26.9,331.6 -0.4,331.6 
			-6.2,347.3 21.3,347.3 14.6,364.7 		"/>
		<polygon class="st29" points="-37.4,364.7 -8.7,290.1 42.8,290.1 36.3,306.6 10.6,306.6 7.3,315 33.2,315 26.9,331.6 -0.4,331.6 
			-6.2,347.3 21.3,347.3 14.6,364.7 		"/>
		<polygon class="st5" points="172.7,364.9 148,364.9 142.3,334.8 123.8,348.7 117.5,364.8 91.5,364.8 119,290.1 146.1,290.1 
			135.6,318.1 170.3,290.1 196.8,290.1 164.2,316.2 		"/>
		<polygon class="st29" points="172.7,364.9 148,364.9 142.3,334.8 123.8,348.7 117.5,364.8 91.5,364.8 119,290.1 146.1,290.1 
			135.6,318.1 170.3,290.1 196.8,290.1 164.2,316.2 		"/>
		<path class="st5" d="M441.7,293.9c0,0-8.8-4.7-20.7-4.9c0,0-34.1-0.6-35.6,27.1c0,0-1.4,15.6,15.4,21c0,0,8.6,2.7,7.8,8.4
			c0,0,0.2,6.6-11.9,5.8c0,0-11.9-0.3-18.7-5.1L367.8,359c0,0,9.7,8.8,28.8,9c0,0,37.6,2.1,37.6-29.4c0,0,0.8-12.9-14.2-19.5
			c0,0-8.2-2.7-8.2-7.8c0,0,0.4-6.7,9.9-6.6c0,0,6.8,0.2,10.1,1.9L441.7,293.9z"/>
		<path class="st29" d="M441.7,293.9c0,0-8.8-4.7-20.7-4.9c0,0-34.1-0.6-35.6,27.1c0,0-1.4,15.6,15.4,21c0,0,8.6,2.7,7.8,8.4
			c0,0,0.2,6.6-11.9,5.8c0,0-11.9-0.3-18.7-5.1L367.8,359c0,0,9.7,8.8,28.8,9c0,0,37.6,2.1,37.6-29.4c0,0,0.8-12.9-14.2-19.5
			c0,0-8.2-2.7-8.2-7.8c0,0,0.4-6.7,9.9-6.6c0,0,6.8,0.2,10.1,1.9L441.7,293.9z"/>
	</g>
</g>
<g>
	<g>
		<defs>
			<path id="SVGID_46_" d="M-67.2,309.6L-67.2,309.6l12.8,0l2.6-10.2l-5.6-15C-57.4,284.4-64.3,302.2-67.2,309.6"/>
		</defs>
		<clipPath id="SVGID_47_">
			<use xlink:href="#SVGID_46_"  style="overflow:visible;"/>
		</clipPath>
		<g class="st30">
			<defs>
				<polygon id="SVGID_48_" points="-70.3,284.8 -52.1,282.5 -48.7,309.3 -66.9,311.5 				"/>
			</defs>
			<clipPath id="SVGID_49_">
				<use xlink:href="#SVGID_48_"  style="overflow:visible;"/>
			</clipPath>
			
				<linearGradient id="SVGID_50_" gradientUnits="userSpaceOnUse" x1="-873.8057" y1="357.56" x2="-851.7474" y2="357.56" gradientTransform="matrix(0.3526 -4.409250e-002 -4.409250e-002 -0.3526 255.7631 385.6586)">
				<stop  offset="0" style="stop-color:#C6001C"/>
				<stop  offset="1" style="stop-color:#E5001D"/>
			</linearGradient>
			<polygon class="st31" points="-73.9,283 -49.1,279.9 -45.2,311.1 -70,314.2 			"/>
		</g>
	</g>
</g>
<g>
	<g>
		<defs>
			<path id="SVGID_51_" d="M315.8,284.4h-70.3l-17.1,45.2c-0.1,0.4-3.6,9.7-12.8,9.7c-2.4,0-3.4-0.5-3.6-0.8
				c-0.5-0.7-0.2-3.2,0.4-4.8c0.1-0.1,18.7-49.3,18.7-49.3l-1.4,1c0,0-18.1,47.8-18.2,47.9c-0.5,1.4-1.2,4.4-0.3,5.7
				c0.5,0.8,2.2,1.3,4.4,1.3c9.8,0,13.6-9.8,13.7-10.3l16.9-44.5h68.2L315.8,284.4L315.8,284.4z"/>
		</defs>
		<clipPath id="SVGID_52_">
			<use xlink:href="#SVGID_51_"  style="overflow:visible;"/>
		</clipPath>
		<g class="st32">
			<defs>
				<polygon id="SVGID_53_" points="309.1,366 196.6,336.7 217,258.6 329.5,288 				"/>
			</defs>
			<clipPath id="SVGID_54_">
				<use xlink:href="#SVGID_53_"  style="overflow:visible;"/>
			</clipPath>
			
				<linearGradient id="SVGID_55_" gradientUnits="userSpaceOnUse" x1="-695.1589" y1="1746.4741" x2="-673.1006" y2="1746.4741" gradientTransform="matrix(-0.1343 -3.504160e-002 -3.504160e-002 0.1343 203.3066 46.3029)">
				<stop  offset="0" style="stop-color:#F4B18E"/>
				<stop  offset="0.628" style="stop-color:#D63F45"/>
				<stop  offset="1" style="stop-color:#C6001C"/>
			</linearGradient>
			<polygon class="st33" points="321,398.5 170.4,359.2 205.1,226.2 355.7,265.5 			"/>
		</g>
	</g>
</g>
<g>
	<g>
		<defs>
			<path id="SVGID_56_" d="M212.4,333.7c-0.6,1.5-0.9,4-0.4,4.8c0.2,0.3,1.2,0.8,3.6,0.8c9.2,0,12.7-9.3,12.8-9.7l10.4-27.4
				l-7.7-17.8C231.1,284.4,212.5,333.6,212.4,333.7"/>
		</defs>
		<clipPath id="SVGID_57_">
			<use xlink:href="#SVGID_56_"  style="overflow:visible;"/>
		</clipPath>
		<g class="st34">
			<defs>
				
					<rect id="SVGID_58_" x="197.9" y="281.7" transform="matrix(-0.8035 0.5953 -0.5953 -0.8035 591.684 428.3692)" width="54.5" height="60.3"/>
			</defs>
			<clipPath id="SVGID_59_">
				<use xlink:href="#SVGID_58_"  style="overflow:visible;"/>
			</clipPath>
			
				<linearGradient id="SVGID_60_" gradientUnits="userSpaceOnUse" x1="-329.0677" y1="378.9598" x2="-307.0095" y2="378.9598" gradientTransform="matrix(0.381 -0.2822 -0.2822 -0.381 438.3311 377.5062)">
				<stop  offset="0" style="stop-color:#C6001C"/>
				<stop  offset="1" style="stop-color:#E5001D"/>
			</linearGradient>
			<polygon class="st35" points="146.6,300 236.8,233.2 303.7,323.6 213.5,390.4 			"/>
		</g>
	</g>
</g>
<g>
	<g>
		<defs>
			<path id="SVGID_61_" d="M148.2,300.7c3.8-3,7.7-6.3,11.2-9.1c0.8-0.6-5.1-7.2-5.1-7.2S149.6,297,148.2,300.7"/>
		</defs>
		<clipPath id="SVGID_62_">
			<use xlink:href="#SVGID_61_"  style="overflow:visible;"/>
		</clipPath>
		<g class="st36">
			<defs>
				<polygon id="SVGID_63_" points="140.4,290.3 155.8,278.6 168,294.8 152.5,306.4 				"/>
			</defs>
			<clipPath id="SVGID_64_">
				<use xlink:href="#SVGID_63_"  style="overflow:visible;"/>
			</clipPath>
			
				<linearGradient id="SVGID_65_" gradientUnits="userSpaceOnUse" x1="-705.7788" y1="258.9073" x2="-683.7206" y2="258.9073" gradientTransform="matrix(0.1747 -0.1311 -0.1311 -0.1747 304.5237 250.4487)">
				<stop  offset="0" style="stop-color:#C6001C"/>
				<stop  offset="1" style="stop-color:#E5001D"/>
			</linearGradient>
			<polygon class="st37" points="127,288.6 158,265.4 181.3,296.4 150.3,319.7 			"/>
		</g>
	</g>
</g>
<g>
	<g>
		<defs>
			<path id="SVGID_66_" d="M222,371.7h-0.3c-2.4,0.2-4.7,0.4-7.1,0.5l14.6,23.9c15.9-2.1,27.8-11.8,27.8-11.8l-5.4-13.9h-6.5h0
				l3.2-8.5C236.8,371.1,222.8,371.7,222,371.7"/>
		</defs>
		<clipPath id="SVGID_67_">
			<use xlink:href="#SVGID_66_"  style="overflow:visible;"/>
		</clipPath>
		<g class="st38">
			<defs>
				<polygon id="SVGID_68_" points="274.1,377.4 237.9,417.3 197.6,380.7 233.8,340.8 				"/>
			</defs>
			<clipPath id="SVGID_69_">
				<use xlink:href="#SVGID_68_"  style="overflow:visible;"/>
			</clipPath>
			
				<linearGradient id="SVGID_70_" gradientUnits="userSpaceOnUse" x1="355.1855" y1="1410.3617" x2="377.2438" y2="1410.3617" gradientTransform="matrix(-0.1756 0.1932 0.1932 0.1756 39.0998 48.128)">
				<stop  offset="0" style="stop-color:#C6001C"/>
				<stop  offset="1" style="stop-color:#E5001D"/>
			</linearGradient>
			<polygon class="st39" points="312.2,375.4 239.5,455.4 159.5,382.7 232.2,302.7 			"/>
		</g>
	</g>
</g>
<g>
	<g>
		<defs>
			<path id="SVGID_71_" d="M200.2,389.7c9.2,6,18.4,7.5,26.8,6.8l-16.2-24.1c-8.4,0.1-15.1-0.6-16.7-0.8h-0.2l-0.4,0
				c-6.2-0.8-11.2-2.7-14.9-5.8L200.2,389.7z"/>
		</defs>
		<clipPath id="SVGID_72_">
			<use xlink:href="#SVGID_71_"  style="overflow:visible;"/>
		</clipPath>
		<g class="st40">
			<defs>
				<polygon id="SVGID_73_" points="183.5,351 236.5,368.9 222,411.8 169.1,393.9 				"/>
			</defs>
			<clipPath id="SVGID_74_">
				<use xlink:href="#SVGID_73_"  style="overflow:visible;"/>
			</clipPath>
			
				<linearGradient id="SVGID_75_" gradientUnits="userSpaceOnUse" x1="-79.8655" y1="533.7483" x2="-57.8073" y2="533.7483" gradientTransform="matrix(1.2438 0.4196 0.4196 -1.2438 51.8888 1069.8798)">
				<stop  offset="0" style="stop-color:#C6001C"/>
				<stop  offset="1" style="stop-color:#E5001D"/>
			</linearGradient>
			<polygon class="st41" points="175.9,330.6 254.9,357.2 229.6,432.2 150.6,405.6 			"/>
		</g>
	</g>
</g>
<g>
	<g>
		<defs>
			<path id="SVGID_76_" d="M438.8,331.5c1,3.1,1.1,5.7,1.1,6.9v0.3c0,9-2.7,16.5-7.9,22.3l-5.1,17.1l12.1,10.5
				c32.3-25.9,4.5-53.2,4.5-53.2l-7.9-10.7L438.8,331.5z"/>
		</defs>
		<clipPath id="SVGID_77_">
			<use xlink:href="#SVGID_76_"  style="overflow:visible;"/>
		</clipPath>
		<g class="st42">
			<defs>
				<rect id="SVGID_78_" x="426.9" y="324.5" width="44.4" height="64"/>
			</defs>
			<clipPath id="SVGID_79_">
				<use xlink:href="#SVGID_78_"  style="overflow:visible;"/>
			</clipPath>
			
				<linearGradient id="SVGID_80_" gradientUnits="userSpaceOnUse" x1="156.6781" y1="1068.5898" x2="178.7363" y2="1068.5898" gradientTransform="matrix(0 0.6622 0.6622 0 -258.5921 227.2153)">
				<stop  offset="0" style="stop-color:#C6001C"/>
				<stop  offset="1" style="stop-color:#E5001D"/>
			</linearGradient>
			<rect x="426.9" y="324.5" class="st43" width="44.4" height="64"/>
		</g>
	</g>
</g>
<g>
	<g>
		<defs>
			<path id="SVGID_81_" d="M200.2,389.7L200.2,389.7l0.8,4c23.7,13.6,47.7,0.2,55.4-5l0.7-4.3C257.1,384.3,228.1,407.9,200.2,389.7"
				/>
		</defs>
		<clipPath id="SVGID_82_">
			<use xlink:href="#SVGID_81_"  style="overflow:visible;"/>
		</clipPath>
		<g class="st44">
			<defs>
				<rect id="SVGID_83_" x="200.2" y="384.3" width="56.9" height="23.6"/>
			</defs>
			<clipPath id="SVGID_84_">
				<use xlink:href="#SVGID_83_"  style="overflow:visible;"/>
			</clipPath>
			
				<linearGradient id="SVGID_85_" gradientUnits="userSpaceOnUse" x1="-120.4688" y1="604.0632" x2="-98.4174" y2="604.0632" gradientTransform="matrix(2.5788 0 0 -2.5788 510.8855 1953.8728)">
				<stop  offset="0" style="stop-color:#89A6D2"/>
				<stop  offset="1" style="stop-color:#005A9A"/>
			</linearGradient>
			<rect x="200.2" y="384.3" class="st45" width="56.9" height="23.6"/>
		</g>
	</g>
</g>
<g>
	<g>
		<path class="st3" d="M400.3,282.8l0.4-1.6l-2.7-3.9c-0.3,2.4-0.7,4.8-1,7.2L400.3,282.8z"/>
		<path class="st3" d="M431.4,284.7c7.2,1.6,12.9,4.2,16.1,5.9l6.3,1.3h0c1,0.2,2.6,0.5,2.6,0.5l-3-3.8l-55.4-11.4l2.6,3.9L415,284
			C419.8,283.5,425.5,283.4,431.4,284.7"/>
		<path class="st3" d="M398.3,251c-0.4-1.6-0.9-3.1-1.4-4.7l-3.9-2c1.3,3.3,2.3,6.7,3.1,10.2L398.3,251z"/>
		<path class="st3" d="M462.7,309l-19.3,26.2l4.2,0c3.3-3.6,19.6-26,19.6-26L462.7,309z"/>
		<path class="st3" d="M384,390.2l-4.7,3.6h-114l-1.9,3.1h116.9c0,0,3-2.3,4.4-3.3L384,390.2z"/>
		<path class="st3" d="M200.2,389.7l-3.6,4.5h-31.1l-1.3,3.1h33.9c0,0,1.9-2.4,2.9-3.6L200.2,389.7z"/>
		<path class="st3" d="M148.4,376l-10.1,18.1H84l-1.3,3.1h57.4c0,0,6.6-11.2,9.1-16L148.4,376z"/>
		<polygon class="st3" points="75,387.9 74.6,383.1 66.8,394.1 -56.5,394.1 -58.1,397.2 68.6,397.2 		"/>
		<polygon class="st3" points="-68.3,385.7 -69.6,379.6 -73.1,394.1 -107.4,394.1 -108.8,397.2 -71.4,397.2 		"/>
		<path class="st3" d="M357.4,199.8c-2-1.1-4.1-2.1-6.2-3l-4.1,1.6c4,1.6,7.9,3.4,11.6,5.6L357.4,199.8z"/>
		<path class="st3" d="M321.3,190c-1.5,0-3-0.1-3-0.1s-1,0-1.8,0l-3.4,3.2c1.7-0.1,3.5-0.2,5.3-0.2c1.9,0,3.7,0.1,5.5,0.2L321.3,190
			z"/>
		<path class="st3" d="M285.4,196.8c-1.7,0.7-3.3,1.5-4.9,2.3l-1.9,4.5c3.3-1.9,6.7-3.6,10.2-5L285.4,196.8z"/>
		<polygon class="st2" points="400.3,282.8 397,284.5 399.1,288.3 400.9,283.7 		"/>
		<path class="st2" d="M431.4,284.7c11.2,2.4,18.8,7.4,18.8,7.4l3.6-0.3c0,0-6.2-4.1-22.4-7.4L431.4,284.7z"/>
		<path class="st2" d="M456.5,292.4l0.2-3.6c0.6-15.5-9.5-42.2-9.9-43.3l-0.9-2.4l-2,3.5c0,0,10.3,27.1,9.7,42.1L456.5,292.4z"/>
		<path class="st2" d="M396.9,246.3c5-1.7,43.7-14.4,43.7-14.4l-4.1-1.9L393,244.3L396.9,246.3z"/>
		<path class="st2" d="M383.2,221.2c-1.2-1.5-2.4-2.9-3.6-4.3l-4.3-0.2c0,0,3.1,3.3,7.3,8.6L383.2,221.2z"/>
		<path class="st2" d="M379.6,217c3.7-3.5,28.1-27,28.1-27l-4.5,0.1l-27.9,26.7L379.6,217z"/>
		<path class="st2" d="M316.6,190c0.6-5.8,3.6-37.8,3.6-37.8l-3.3,2.4l-3.7,38.6L316.6,190z"/>
		<path class="st2" d="M280.5,199.2c-1.8-6.1-13-43.9-13-43.9l-2.2,3.4l13.3,44.9L280.5,199.2z"/>
		<path class="st2" d="M351.3,196.8c2.1-4.8,14.6-32.5,14.6-32.5l-4,1.3l-14.8,32.8L351.3,196.8z"/>
		<path class="st1" d="M431.5,284.4c-18.7-3.8-30.6-0.7-30.6-0.7l-1.8,4.6c0,0,15.2-7.3,32.3-3.6L431.5,284.4z"/>
		<path class="st1" d="M440.5,231.9l-1.2-3.1c-4.3-10.7-18.8-27.3-19.4-28l-1.8-2l-0.6,4.1c0,0,14.7,16.8,18.8,27.1L440.5,231.9z"/>
		<path class="st1" d="M450.2,292.1l12.6,16.9l4.5,0.2c0,0-11.5-14.8-13.4-17.4L450.2,292.1z"/>
		<polygon class="st1" points="-107.5,394.1 -129.2,370.5 -132.8,371.2 -108.8,397.2 		"/>
		<path class="st1" d="M328.5,152.6c0,0-6.3,33-7.2,37.4l2.5,3.2l7.1-37.1L328.5,152.6z"/>
		<path class="st1" d="M288.8,198.7l-6.7-42.9l-3.5-2.6c0,0,6.2,39.4,6.8,43.6L288.8,198.7z"/>
		<path class="st1" d="M374.3,168.8c0,0-14.4,26.5-16.9,31l1.3,4.2l17-31.3L374.3,168.8z"/>
		<path class="st0" d="M445.8,243c0,0-42.7,7.1-47.5,7.9l-2.2,3.5l47.6-7.9L445.8,243z"/>
		<path class="st0" d="M418.2,198.9c0,0-30.8,19.7-34.9,22.3l-0.7,4.1c0,0,35-22.4,35-22.4L418.2,198.9z"/>
		<path class="st0" d="M265.3,393.8l-8.2-9.5l-0.7,4.3c0.1,0,6.9,8.3,6.9,8.3L265.3,393.8z"/>
		<path class="st0" d="M165.5,394.1L148.4,376l0.8,5.2c4.1,4.2,15,16,15,16L165.5,394.1z"/>
		<polygon class="st0" points="82.7,397.2 84,394.1 74.6,383.2 75,387.9 		"/>
		<polygon class="st0" points="-58.1,397.2 -56.5,394.1 -69.5,379.6 -68.3,385.7 		"/>
		<path class="st0" d="M225.2,170.5c0,0,22.1-9.1,40.1-11.8l2.2-3.5l-2.6,0.4c-18.1,2.7-39.9,11.6-40.8,12l-3.8,1.6L225.2,170.5z"/>
		<path class="st0" d="M282.1,155.8c0,0,23.6-3.5,34.7-1.2l3.4-2.5l-2.7-0.6c-11.6-2.4-34.9,1-35.8,1.1l-3.1,0.4L282.1,155.8z"/>
		<path class="st0" d="M159,207c17.4-15.3,51-30.6,51-30.6l0.7-3.8l-2,0.9c-1.4,0.6-34.2,15.7-51.7,31.1l-3.6,3.1L159,207z"/>
		<path class="st0" d="M365.9,164.2l-2.4-1.4c-11-6.4-31.1-9.7-32-9.8l-3-0.5l2.5,3.5c0,0,20.3,3.2,30.9,9.4L365.9,164.2z"/>
		<path class="st0" d="M407.7,190l-2.5-2.2c-0.5-0.5-13.3-12.1-28.4-18l-2.5-1l1.4,3.9c14.7,5.8,27.5,17.4,27.5,17.4L407.7,190z"/>
	</g>
</g>
<g>
	<g>
		<defs>
			<path id="SVGID_86_" d="M438.9,388.5l2,2.4c10.6-8.5,16.2-18.1,16.7-28.5c0-0.5,0-1,0-1.6c0-11.9-6.6-21.4-10.1-25.5l-4.2,0
				C443.4,335.2,471.3,362.5,438.9,388.5"/>
		</defs>
		<clipPath id="SVGID_87_">
			<use xlink:href="#SVGID_86_"  style="overflow:visible;"/>
		</clipPath>
		<g class="st46">
			<defs>
				<polygon id="SVGID_88_" points="498.8,358.7 457.6,406.9 411.5,367.4 452.6,319.2 				"/>
			</defs>
			<clipPath id="SVGID_89_">
				<use xlink:href="#SVGID_88_"  style="overflow:visible;"/>
			</clipPath>
			
				<linearGradient id="SVGID_90_" gradientUnits="userSpaceOnUse" x1="-132.5802" y1="834.9873" x2="-110.522" y2="834.9873" gradientTransform="matrix(-1.5899 1.8588 1.8588 1.5899 -1290.7273 -737.9849)">
				<stop  offset="0" style="stop-color:#89A6D2"/>
				<stop  offset="1" style="stop-color:#005A9A"/>
			</linearGradient>
			<polygon class="st47" points="542.1,356.3 461.9,450 368.2,369.8 448.4,276.1 			"/>
		</g>
	</g>
</g>
<g>
	<g>
		<defs>
			<path id="SVGID_91_" d="M384,390.2l0.6,3.4c38.1,11.3,55.5-2.2,56.3-2.8l-2-2.4C438.9,388.5,422,402.1,384,390.2"/>
		</defs>
		<clipPath id="SVGID_92_">
			<use xlink:href="#SVGID_91_"  style="overflow:visible;"/>
		</clipPath>
		<g class="st48">
			<defs>
				<rect id="SVGID_93_" x="384" y="388.5" width="56.9" height="16.5"/>
			</defs>
			<clipPath id="SVGID_94_">
				<use xlink:href="#SVGID_93_"  style="overflow:visible;"/>
			</clipPath>
			
				<linearGradient id="SVGID_95_" gradientUnits="userSpaceOnUse" x1="-52.4967" y1="603.9136" x2="-30.4353" y2="603.9136" gradientTransform="matrix(2.5806 0 0 -2.5806 519.4403 1955.1732)">
				<stop  offset="0" style="stop-color:#89A6D2"/>
				<stop  offset="1" style="stop-color:#005A9A"/>
			</linearGradient>
			<rect x="384" y="388.5" class="st49" width="56.9" height="16.5"/>
		</g>
	</g>
</g>
<g>
	<path class="st2" d="M255.2,219.4c-2.1-2.2-44.6-46.8-44.6-46.8l-0.7,3.8l31.2,32.8l7,7.4l7.2,7.5L255.2,219.4z"/>
	<path class="st1" d="M262,216.6l-36.7-46.1l-5-1.3c0,0,34.6,43.4,37.6,47.2L262,216.6z"/>
	<path class="st2" d="M240.5,256.4c0.7-3.6,1.8-7.1,3-10.5l-3.8,1.7c-0.5,1.7-1,3.4-1.4,5.1L240.5,256.4z"/>
	<path class="st1" d="M134,228.3l106.5,28.1l-2.2-3.8c-5.7-1.5-105-27.7-105-27.7L134,228.3z"/>
</g>
</svg>
