<?xml version="1.0" encoding="UTF-8" standalone="no"?>
<!-- Created with Inkscape (http://www.inkscape.org/) -->

<svg
   width="105.83334mm"
   height="31.200863mm"
   viewBox="0 0 105.83334 31.200863"
   version="1.1"
   id="svg1"
   inkscape:version="1.4.2 (ebf0e94, 2025-05-08)"
   sodipodi:docname="Höffner Logo 30.07.2025.svg"
   xmlns:inkscape="http://www.inkscape.org/namespaces/inkscape"
   xmlns:sodipodi="http://sodipodi.sourceforge.net/DTD/sodipodi-0.dtd"
   xmlns="http://www.w3.org/2000/svg"
   xmlns:svg="http://www.w3.org/2000/svg">
  <sodipodi:namedview
     id="namedview1"
     pagecolor="#ffffff"
     bordercolor="#111111"
     borderopacity="1"
     inkscape:showpageshadow="0"
     inkscape:pageopacity="0"
     inkscape:pagecheckerboard="1"
     inkscape:deskcolor="#d1d1d1"
     inkscape:document-units="mm"
     inkscape:zoom="3.5724997"
     inkscape:cx="200.00002"
     inkscape:cy="58.922329"
     inkscape:window-width="1920"
     inkscape:window-height="1129"
     inkscape:window-x="-8"
     inkscape:window-y="-8"
     inkscape:window-maximized="1"
     inkscape:current-layer="layer1" />
  <defs
     id="defs1" />
  <g
     inkscape:label="Ebene 1"
     inkscape:groupmode="layer"
     id="layer1"
     transform="translate(-82.550003,-141.81667)">
    <rect
       class="hoeffnerLogo__icon1"
       width="105.83334"
       height="31.200863"
       style="inline-size:169.6px;display:block;fill:#e2001a;stroke-width:0.624017"
       id="rect1"
       x="82.550003"
       y="141.81667" />
    <path
       class="hoeffnerLogo__icon2"
       d="m 180.00901,156.84925 a 2.2339819,2.2339819 0 0 0 -1.24802,-1.87206 c -1.82215,-0.86738 -4.00621,0.7301 -4.94847,1.82215 v -1.83462 h -5.72224 v 3.12009 h 2.57097 v 5.67231 h -2.57097 v 2.8892 h 8.73625 v -2.87672 h -3.02024 v -1.87205 c 0,-0.12477 0,-3.05144 2.17781,-3.78153 a 2.6021521,2.6021521 0 0 0 1.47892,1.04209 2.2339819,2.2339819 0 0 0 1.77221,-0.43056 2.0592571,2.0592571 0 0 0 0.75507,-1.87205 m -62.40174,-3.74411 h -2.85799 v -5.56 h 2.88296 v 5.58496 z m -7.54436,0 h 2.8892 v -5.56 h -2.858 v 5.58496 z m -2.04054,10.60828 v 2.88922 H 99.098932 V 163.7696 H 101.595 v -5.67231 h -6.895388 v 5.67231 h 2.496068 v 2.8892 h -8.910967 v -2.8892 h 3.269851 v -13.32901 h -3.269851 v -2.8892 h 8.854807 v 2.8892 h -2.439908 v 4.52413 h 6.920348 v -4.52413 h -2.414943 v -2.8892 h 8.829843 v 2.8892 h -3.26985 v 13.32901 h 3.26985 z m 56.92285,-4.63644 h -5.74095 a 3.2199293,3.2199293 0 0 1 5.74095,0 m 3.25113,2.70201 a 6.1590508,6.1590508 0 1 0 -0.62401,1.9282 l -3.03896,-0.52417 a 3.4133746,3.4133746 0 0 1 -2.42743,1.09203 3.2760908,3.2760908 0 0 1 -3.22618,-2.49606 z m -54.33318,2.43365 a 3.357213,3.357213 0 1 0 -3.35721,-3.35721 3.3634531,3.3634531 0 0 0 3.35721,3.35721 m 0,-9.5225 a 6.1652909,6.1652909 0 1 1 -6.16529,6.16529 6.1715309,6.1715309 0 0 1 6.16529,-6.16529 m 20.79851,-6.53969 a 4.1809158,4.1809158 0 0 0 -1.24804,2.76439 v 4.04988 h -7.73158 v -4.06861 a 1.5038817,1.5038817 0 0 1 1.24804,-1.39778 1.9344536,1.9344536 0 0 1 1.94068,0.29953 c -1.3541,0.3432 -1.70981,3.23863 0.97972,3.24488 a 2.1341391,2.1341391 0 0 0 2.0967,-1.97189 3.7753045,3.7753045 0 0 0 -0.98595,-2.6708 4.9359767,4.9359767 0 0 0 -3.7441,-1.49764 4.6239682,4.6239682 0 0 0 -3.42587,1.24804 4.1809158,4.1809158 0 0 0 -1.24803,2.76439 v 4.04988 h -2.69575 v 3.12007 h 2.66455 v 5.67233 h -2.66455 v 2.8892 h 8.79864 v -2.88297 h -2.96408 v -5.67231 h 7.70037 v 5.67231 h -2.95783 v 2.8892 h 8.73623 v -2.8892 h -2.60215 v -5.67231 h 6.12786 v 5.67231 h -1.7847 v 2.8892 h 6.72691 v -2.8892 h -1.79094 v -4.24332 a 1.984375,1.984375 0 0 1 0.71139,-1.21682 3.7441038,3.7441038 0 0 1 2.70823,-1.06708 c 1.17316,0.0561 1.92821,0.76755 1.92821,1.45397 v 5.06702 h -1.79092 v 2.8892 h 6.86418 v -2.88297 h -1.92196 v -5.67231 c 0,-1.51637 -1.50389,-3.4009 -4.30573,-3.4009 a 5.1606229,5.1606229 0 0 0 -4.18715,1.84085 v -1.57252 h -9.28538 v -4.06236 a 1.5038817,1.5038817 0 0 1 1.24805,-1.39778 1.9344536,1.9344536 0 0 1 1.94068,0.29953 c -1.39156,0.32448 -1.64741,3.24488 0.97347,3.24488 a 2.1528597,2.1528597 0 0 0 2.10917,-1.97189 3.7753045,3.7753045 0 0 0 -0.98594,-2.6708 4.9359767,4.9359767 0 0 0 -3.74411,-1.49764 4.6239682,4.6239682 0 0 0 -3.42585,1.24804"
       style="display:block;fill:#ffffff;stroke-width:0.624017"
       id="path1" />
  </g>
</svg>
