<?xml version="1.0" encoding="UTF-8" standalone="no"?>
<svg
   xml:space="preserve"
   id="Ebene_2"
   x="0"
   y="0"
   style="enable-background:new 0 0 174.8 40"
   version="1.1"
   viewBox="0 0 174.8 40"
   sodipodi:docname="hugendubel-logo.b8c735e765fea6119c85.svg"
   inkscape:version="1.3.2 (091e20e, 2023-11-25, custom)"
   xmlns:inkscape="http://www.inkscape.org/namespaces/inkscape"
   xmlns:sodipodi="http://sodipodi.sourceforge.net/DTD/sodipodi-0.dtd"
   xmlns="http://www.w3.org/2000/svg"
   xmlns:svg="http://www.w3.org/2000/svg"><defs
     id="defs2" /><sodipodi:namedview
     id="namedview2"
     pagecolor="#505050"
     bordercolor="#eeeeee"
     borderopacity="1"
     inkscape:showpageshadow="0"
     inkscape:pageopacity="0"
     inkscape:pagecheckerboard="0"
     inkscape:deskcolor="#505050"
     inkscape:zoom="4.1475972"
     inkscape:cx="87.400002"
     inkscape:cy="19.891035"
     inkscape:window-width="1920"
     inkscape:window-height="1001"
     inkscape:window-x="-9"
     inkscape:window-y="-9"
     inkscape:window-maximized="1"
     inkscape:current-layer="Ebene_2" /><style
     id="style1">.st0{fill:#1d1d1b}.st1{fill:#e20613}</style><path
     d="M0 23.4V0h5v8.8h9.4V0h5v23.4h-5V13.3H5v10.1H0zM20.9 6.5h4.6V17c0 1.9 1 3 2.9 3 2.2 0 3.4-1.7 3.5-3.8V6.5h4.5v16.9H32V21l-.3.5c-1.2 1.4-2.5 2.4-5.1 2.4-1.5 0-2.9-.5-3.8-1.2-.5-.4-.9-.9-1.3-1.5-.6-1-.7-1.7-.7-4V6.5h.1zM60.1 13.1h7.3c-.1-.8-.2-1.7-.7-2.4-.7-.9-1.7-1.4-2.8-1.4-1.2 0-2.2.6-2.9 1.6-.7.8-.9 1.7-.9 2.2zM55.4 15c0-4.9 3.2-9 8.5-9 1.1 0 2.2.2 3.3.7 1.4.6 2.9 1.9 3.8 3.7.2.4.4.9.6 1.6.3 1.1.4 1.7.4 3.5v.7H60.1v.3c.1 1.8.9 4.1 3.8 4.1 2.6.1 3.3-2 3.5-2.4h4.4c0 .1-.1.3-.1.4-.9 2.5-2.9 5.4-7.7 5.4-4.9-.1-8.5-3.4-8.6-9M73.4 23.4V6.5h4.4v2.4c.7-.9 2-2.8 5.4-2.8.9 0 1.9.2 2.8.5.9.3 1.6 1 2.2 1.8.6.9.9 1.6.9 4.4v10.7h-4.6v-11c-.1-.5-.1-.9-.3-1.1-.5-.9-1.3-1.5-2.6-1.4-1.4 0-2.4.7-3.1 1.8-.3.6-.4 1.2-.4 3v8.8h-4.7v-.2zM95.2 14.9c0 3.2 1.6 5.2 3.9 5.2s4-1.8 3.9-5.3c0-.9-.1-1.7-.3-2.3-.6-1.9-1.9-2.9-3.6-2.9-2.4.1-3.9 1.9-3.9 5.3m-4.6-.1c0-2.5.7-4.7 1.8-6.1C93.7 7 95.5 6.1 97.6 6c1.3-.1 2.7.4 3.6.9.8.5 1.4 1.2 1.7 1.6V0h4.5v23.4h-4.3v-2.2c-.2.3-.3.5-.7.9-1.2 1.1-2.5 1.8-4.4 1.7-4.8-.2-7.4-3.6-7.4-9M109.1 6.5h4.6V17c0 1.9 1 3 2.9 3 2.2 0 3.4-1.7 3.5-3.8V6.5h4.5v16.9h-4.4V21l-.3.5c-1.2 1.4-2.5 2.4-5.1 2.4-1.5 0-2.9-.5-3.8-1.2-.5-.4-.9-.9-1.3-1.5-.6-1-.7-1.7-.7-4V6.5h.1zM130.8 14.8c-.1 3 1.3 5.4 3.9 5.4 1.4 0 2.3-.5 3.1-1.7.6-.9.9-2.2.9-3.6 0-1.7-.6-3.1-1.2-3.8-.7-.8-1.8-1.3-2.8-1.3-1.1 0-2.2.5-2.9 1.4-.6.7-1 1.7-1 3.6m-4.4 8.6V0h4.5v8.5c.3-.5.5-.8 1.2-1.2 1.3-.9 3-1.4 4.5-1.3 1.9.2 3.6 1 4.8 2.4 1.2 1.5 1.9 3.3 1.9 6.2 0 2.5-.6 4.6-1.7 6.2-1.3 1.8-3 2.7-5.3 3-1.3.1-2.7-.3-3.7-.9-.9-.5-1.4-1.3-1.8-1.8v2.2h-4.4v.1zM148.8 13.1h7.3c-.1-.8-.2-1.7-.7-2.4-.7-.9-1.7-1.4-2.8-1.4-1.2 0-2.2.6-2.9 1.6-.6.8-.8 1.7-.9 2.2m-4.6 1.9c0-4.9 3.2-9 8.5-9 1.1 0 2.2.2 3.3.7 1.4.6 2.9 1.9 3.8 3.7.2.4.4.9.6 1.6.3 1.1.4 1.7.4 3.5v.7h-11.9v.3c.1 1.8.9 4.1 3.8 4.1 2.6.1 3.3-2 3.5-2.4h4.4c0 .1-.1.3-.1.4-.9 2.5-2.9 5.4-7.7 5.4-5-.1-8.6-3.4-8.6-9M161.7 0h4.6v23.4h-4.6V0zM42.1 14.3c0 1.1.2 2.1.5 2.8.7 1.5 1.9 2.3 3.3 2.3.9 0 1.6-.2 2.2-.6 1-.8 1.7-2.5 1.7-4.5 0-1-.2-1.8-.5-2.5-.7-1.4-1.8-2.2-3.4-2.2-.7 0-1.4.2-1.9.5-1.2.8-1.9 2.4-1.9 4.2m-4.5.1c0-2.5.7-4.5 1.9-6 1.4-1.6 3.1-2.3 5.2-2.4 1.1 0 2.4.3 3.1.7.3.2.5.3.9.6.5.4.9 1 1.1 1.4V6.5h4.3v15.8c0 1.7-.4 3.3-1.1 4.3-.4.6-1 1.2-1.6 1.7-1.6 1-4.4 1.8-8.1 1.3-1.8-.3-3.2-1.1-4.1-2.3-.4-.5-.7-1.2-.9-1.9-.1-.3-.1-.7-.1-.9h4.5c.1.3.1.9.8 1.4.6.5 1.5.8 2.6.8 1.3-.1 2.3-.5 2.9-1.3.3-.4.5-.9.6-1.4.3-1.2.1-2.4.1-3.6l-.4.6c-.6.9-2.2 2-4.6 2-2.1 0-3.9-.8-5.2-2.2-1.3-1.6-1.9-3.6-1.9-6.4"
     class="st0"
     id="path1"
     style="fill:#000000" /><path
     d="M57.5 29.7c2 0 2.7.1 3.6.6 1.4.8 2.3 2.5 2.3 4.5 0 2.1-.9 3.8-2.4 4.5-.8.4-1.5.5-3.6.5h-1.5V29.7h1.6zm.3 9.1c1.6 0 2.1-.1 2.8-.5 1-.6 1.6-1.9 1.6-3.6 0-1.7-.6-3.1-1.8-3.7-.7-.3-1.1-.4-2.9-.4H57v8.2h.8zM66.4 30.3c0 .4-.3.8-.8.8-.4 0-.8-.3-.8-.8s.3-.8.8-.8.8.4.8.8zm-.2 2.3v7.2H65v-7.2h1.2zM69.1 36.4c0 1.7.8 2.7 2.1 2.7.8 0 1.3-.3 1.7-1.1l1 .1c-.4 1.2-1.4 1.9-2.7 1.9-1.9 0-3.2-1.4-3.2-3.7 0-2.3 1.2-3.9 3.1-3.9 1.8 0 2.9 1.4 2.9 3.7v.3h-4.9zm3.8-.8c-.1-1.5-.8-2.2-1.9-2.2-1 0-1.7.8-1.9 2.2h3.8zM79.6 29.7l2 8.6 2.1-8.6h1l2.1 8.6 2-8.6h1.1l-2.4 10.2h-1.2l-2-7.9-2 7.9H81l-2.4-10.2h1zM91.3 36.4c0 1.7.8 2.7 2.1 2.7.8 0 1.3-.3 1.7-1.1l1 .1c-.4 1.2-1.4 1.9-2.7 1.9-1.9 0-3.2-1.4-3.2-3.7 0-2.3 1.2-3.9 3.1-3.9 1.8 0 2.9 1.4 2.9 3.7v.3h-4.9zm3.9-.8c-.1-1.5-.8-2.2-1.9-2.2-1 0-1.7.8-1.9 2.2h3.8zM99.1 29.6v10.2H98V29.6h1.1zM104.7 32.6v.9H103l-.1 3.6v.7c0 .9.2 1.2.8 1.2.3 0 .7-.1 1-.3v.9c-.5.2-.8.2-1.3.2-.7 0-1.2-.2-1.5-.7-.2-.2-.2-.5-.2-1v-1.2l.1-3.6h-1.1v-.9h1.1v-2.1h1v2.1h1.9zM115.7 37.7c0 1.3 0 1.7.1 2.1h-1c-.1-.3-.1-.5-.1-.8v-.3c-.5.9-1.1 1.2-2 1.2-1.7 0-2.9-1.5-2.9-3.7 0-2.3 1.1-3.9 2.8-3.9.9 0 1.5.4 2 1.2v-4h1.1v8.2zm-4.8-1.5c0 1.7.7 2.8 1.9 2.8s1.9-1.1 1.9-2.9c0-1.7-.7-2.9-1.9-2.9-1.2.1-1.9 1.2-1.9 3zM118.4 36.4c0 1.7.8 2.7 2.1 2.7.8 0 1.3-.3 1.7-1.1l1 .1c-.4 1.2-1.4 1.9-2.7 1.9-1.9 0-3.2-1.4-3.2-3.7 0-2.3 1.2-3.9 3.1-3.9 1.8 0 2.9 1.4 2.9 3.7v.3h-4.9zm3.8-.8c-.1-1.5-.8-2.2-1.9-2.2-1 0-1.7.8-1.9 2.2h3.8zM125.9 32.6c.1.4.1.7.1 1.1v.4c.5-1.2 1.1-1.7 1.9-1.7.3 0 .6.1.9.2v1.1c-.5-.2-.7-.3-1-.3-.6 0-1.1.4-1.4 1.1-.2.5-.3 1.1-.3 2.1v3.2H125v-4.7c0-1.7 0-1.8-.1-2.5h1zM135.7 29.7c1.4 0 1.9.1 2.5.2 1 .3 1.6 1.2 1.6 2.3 0 1.2-.5 1.9-1.7 2.2 1.5.4 2.2 1.2 2.2 2.6 0 1.2-.7 2.2-1.7 2.6-.7.2-1.2.3-3 .3h-1.8V29.7h1.9zm.3 4.3c1 0 1.5-.1 1.9-.3.5-.3.8-.8.8-1.4 0-.7-.3-1.2-.9-1.5-.4-.2-.7-.2-1.8-.2h-1V34h1zm0 4.9c1.2 0 1.7-.1 2.2-.3.6-.2.9-.9.9-1.7 0-.9-.4-1.5-1.2-1.7-.5-.1-.9-.2-1.9-.2h-1v3.9h1zM143.1 32.6V37c0 .8.1 1.2.2 1.4.2.4.7.6 1.2.6.6 0 1.1-.3 1.5-.8.2-.4.3-.8.3-1.5v-4.1h1.1v5c0 1.6 0 1.7.2 2.2h-1c-.1-.3-.1-.6-.2-1-.4.8-1 1.1-1.9 1.1s-1.7-.4-2.1-1.1c-.2-.4-.3-.9-.3-1.9v-4.4h1zm1.1-2.2c0 .5-.3.8-.8.8-.4 0-.8-.4-.8-.8 0-.5.3-.8.8-.8.4 0 .8.4.8.8zm2.6 0c0 .5-.4.8-.8.8s-.8-.4-.8-.8c0-.5.3-.8.8-.8.4 0 .8.4.8.8zM153.7 35c-.2-1.2-.6-1.6-1.6-1.6-1.2 0-1.9 1.1-1.9 2.9s.7 2.9 2 2.9c1 0 1.5-.5 1.6-1.7h1.1c-.1 1.7-1.1 2.7-2.6 2.7-1.9 0-3.1-1.5-3.1-3.8s1.2-3.8 3.1-3.8c1.5 0 2.4.9 2.6 2.5h-1.2zM157.5 29.6v3.8c.5-.7 1.2-1 2.1-1 .9 0 1.6.3 2 .9.3.4.3.9.3 2.3v4.1h-1.1v-4.1c0-1 0-1.3-.2-1.7-.2-.5-.7-.7-1.3-.7-.6 0-1.2.3-1.5.9-.2.4-.3.9-.3 1.6v4h-1.1V29.6h1.1zM164.5 36.4c0 1.7.8 2.7 2.1 2.7.8 0 1.3-.3 1.7-1.1l1 .1c-.4 1.2-1.4 1.9-2.7 1.9-1.9 0-3.2-1.4-3.2-3.7 0-2.3 1.2-3.9 3.1-3.9 1.8 0 2.9 1.4 2.9 3.7v.3h-4.9zm3.9-.8c-.1-1.5-.8-2.2-1.9-2.2-1 0-1.7.8-1.9 2.2h3.8zM172 32.6c.1.4.1.7.1 1.1v.4c.5-1.2 1.1-1.7 1.9-1.7.3 0 .6.1.9.2v1.1c-.5-.2-.7-.3-1-.3-.6 0-1.1.4-1.4 1.1-.2.5-.3 1.1-.3 2.1v3.2h-1.1v-4.7c0-1.7 0-1.8-.1-2.5h1z"
     class="st1"
     id="path2" /></svg>
