<?xml version="1.0" encoding="UTF-8" standalone="no"?>
<!-- Created with Inkscape (http://www.inkscape.org/) -->
<svg
   xmlns:svg="http://www.w3.org/2000/svg"
   xmlns="http://www.w3.org/2000/svg"
   version="1.0"
   width="814.96063"
   height="190.62991"
   id="svg2337">
  <defs
     id="defs2339" />
  <g
     transform="translate(-177.08333,-634.78169)"
     id="layer1">
    <path
       d="M 516.71472,652.42381 C 489.31194,652.42381 475.35527,652.94617 475.9698,653.94051 C 476.48392,654.77236 479.58217,655.43848 482.86049,655.43848 L 488.81494,655.43848 L 488.81494,730.31851 L 488.81494,805.17982 L 481.92425,805.17982 C 478.13182,805.17982 475.39878,805.78582 475.85745,806.528 C 476.49603,807.56123 547.00802,807.83774 561.80378,806.86504 C 564.19518,806.70782 564.43482,804.61735 564.38778,785.1444 L 564.33161,763.59228 L 559.95003,774.69603 C 554.24542,789.15771 548.74823,796.93969 540.98192,801.49106 C 535.43387,804.74242 532.87674,805.17981 519.31746,805.17982 L 503.94449,805.17982 L 503.94449,767.37467 L 503.94449,729.5508 L 511.45309,729.5508 C 521.48693,729.5508 528.24085,735.28963 532.46219,747.39543 L 535.45814,756.02751 L 535.47686,726.53613 C 535.49285,700.65557 535.27472,697.78398 533.60439,703.09281 C 530.90868,711.66067 528.4667,715.98098 523.13729,721.61153 C 519.14503,725.82938 517.44408,726.53613 511.20967,726.53613 L 503.94449,726.53613 L 503.94449,690.97794 L 503.94449,655.43848 L 514.14944,655.28868 C 545.16184,654.7985 547.44167,656.06805 554.93181,678.03918 L 558.32098,687.96327 L 558.35843,670.19354 L 558.39588,652.42381 L 516.71472,652.42381 z M 590.90194,652.42381 C 577.3294,652.42381 570.49204,652.97045 570.49203,654.05285 C 570.49203,655.01309 572.82097,655.48334 576.16561,655.19506 L 581.83919,654.68949 L 582.23241,729.94402 L 582.62563,805.17982 L 575.71622,805.17982 C 571.91601,805.17982 569.14911,805.74605 569.57452,806.43437 C 569.99993,807.12271 608.83743,807.62231 655.87661,807.55785 L 741.39227,807.44551 L 741.31737,784.75118 L 741.24247,762.07559 L 737.83458,771.13833 C 730.95372,789.43926 726.23966,796.43786 716.93782,802.10897 C 712.71347,804.68446 709.30939,805.17507 695.64785,805.17982 L 679.39482,805.17982 L 679.39482,767.37467 L 679.39482,729.5508 L 687.50261,729.5508 C 699.50082,729.5508 705.38655,735.14227 710.5527,751.47741 C 712.23463,756.79568 712.46168,753.87647 712.48135,727.28511 L 712.50007,697.04474 L 708.86748,706.8752 C 703.7927,720.59774 697.18554,726.53613 686.97832,726.53613 L 679.39482,726.53613 L 679.39482,690.97794 L 679.39482,655.43848 L 697.95099,655.43848 C 712.00499,655.43848 717.31504,655.98797 719.76525,657.70417 C 724.31922,660.89391 729.20294,669.30242 732.36697,679.36863 L 735.08205,687.96327 L 735.21312,670.19354 L 735.34419,652.42381 L 693.75666,652.42381 C 668.40568,652.42381 652.16912,652.98713 652.16912,653.86561 C 652.16912,654.65832 653.70537,655.23609 655.57702,655.15761 C 657.44871,655.07912 660.5024,655.11488 662.37408,655.23251 L 665.78197,655.43848 L 665.78197,730.31851 L 665.78197,805.17982 L 660.48289,805.17982 L 655.1838,805.17982 L 655.05273,783.6277 L 654.92165,762.07559 L 652.28147,770.38935 C 646.91681,787.29423 638.58511,799.52482 629.98037,803.1201 C 627.04688,804.3458 619.50283,805.17981 611.38675,805.17982 L 597.71773,805.17982 L 597.71773,730.46831 C 597.71773,672.07951 598.13125,655.62032 599.60892,655.08271 C 600.64874,654.7044 603.70246,654.57739 606.40598,654.80184 C 609.10951,655.02629 611.33059,654.57643 611.33058,653.80943 C 611.33058,653.02724 602.35462,652.42381 590.90194,652.42381 z M 768.61797,652.42381 C 755.50996,652.42381 747.45907,653.00422 747.45907,653.94051 C 747.45907,654.77236 750.17973,655.43848 753.50714,655.43848 L 759.55522,655.43848 L 759.55522,730.31851 L 759.55522,805.17982 L 752.73943,805.17982 C 748.99611,805.17982 745.94238,805.75059 745.94237,806.4531 C 745.94237,808.02565 787.59995,807.8811 789.17767,806.3033 C 789.80137,805.67967 787.11298,805.17981 783.22322,805.17982 L 776.16402,805.17982 L 776.55723,729.92529 L 776.95045,654.68949 L 783.37302,655.08271 C 786.94491,655.30001 789.79558,654.78814 789.79559,653.94051 C 789.79559,652.98757 781.84576,652.42381 768.61797,652.42381 z M 869.95601,652.42381 C 863.60978,652.42381 859.37652,653.05033 859.37653,653.99668 C 859.37653,654.865 860.22797,655.46116 861.26773,655.32613 C 868.87058,654.33887 868.45672,651.20098 868.36438,709.51538 L 868.27079,763.59228 L 862.22269,750.72842 C 858.89712,743.65767 854.92144,734.12599 853.38463,729.5508 C 851.84777,724.97561 843.76176,705.93097 835.40893,687.21428 L 820.22321,653.17279 L 807.28445,652.74213 C 798.54382,652.44699 794.34569,652.84362 794.34569,653.97796 C 794.34569,654.91982 796.17016,655.44907 798.50257,655.17634 L 802.65945,654.68949 L 803.05267,729.92529 L 803.44589,805.17982 L 798.89579,805.17982 C 796.39243,805.17982 794.34569,805.74737 794.34569,806.4531 C 794.34569,807.15881 799.10216,807.68424 804.92514,807.61403 C 810.74807,807.54383 815.5046,806.97627 815.50459,806.34075 C 815.50459,805.70522 813.46877,805.17981 810.97321,805.17982 L 806.44184,805.17982 L 806.46056,733.70768 L 806.49801,662.25427 L 820.20448,692.49464 C 827.73912,709.1317 838.26876,732.17817 843.61034,743.70667 C 848.95194,755.23517 853.31413,765.4517 853.30973,766.40099 C 853.30536,767.35029 857.22918,776.93559 862.01671,787.70968 L 870.72369,807.29571 L 871.47268,730.9926 L 872.22167,654.68949 L 876.37855,655.17634 C 878.66614,655.44383 880.55419,654.92551 880.55419,654.03413 C 880.55419,653.03585 876.47718,652.42381 869.95601,652.42381 z M 402.41922,652.51743 C 393.83931,652.47411 390.51032,652.88869 390.51032,653.86561 C 390.51032,654.84042 392.04655,655.41786 393.91821,655.15761 L 397.30738,654.68949 L 397.7006,729.92529 L 398.09382,805.17982 L 393.01943,805.17982 L 387.92631,805.17982 L 367.10446,732.22843 C 347.30671,662.84852 343.93812,651.62111 343.71732,654.35245 C 343.66459,655.00469 339.80685,671.68046 335.14141,691.40861 C 330.47597,711.13676 326.14658,731.02368 325.51692,735.59887 C 324.88727,740.17406 321.10405,757.70121 317.10954,774.54623 L 309.84436,805.17982 L 304.03971,805.17982 L 298.25378,805.17982 L 298.25378,730.31851 C 298.25378,648.5454 297.62167,654.49168 306.19305,655.36358 C 307.64879,655.51166 308.83322,654.87702 308.83323,653.95923 C 308.83323,652.8423 304.72312,652.4481 296.40003,652.74213 L 283.96684,653.17279 L 279.92231,669.05133 C 277.70034,677.78579 271.31923,702.97533 265.72899,725.01943 C 260.13876,747.06353 255.08301,765.98928 254.49418,767.07508 C 253.27839,769.31695 252.74213,767.5025 238.54074,712.15556 C 232.9912,690.52739 227.30299,668.4103 225.90158,663.00326 L 223.35502,653.17279 L 210.13539,652.74213 C 201.71737,652.46393 196.91576,652.86528 196.91576,653.86561 C 196.91576,654.72985 199.30336,655.43848 202.21485,655.43848 L 207.49521,655.43848 L 207.49521,730.22489 L 207.49521,803.64439 L 194.79987,803.64439 L 194.79987,806.82759 L 221.76342,806.82759 L 221.76342,803.64439 L 209.01191,803.64439 L 209.01191,733.76386 C 209.01191,694.5737 209.29694,662.78272 209.64855,663.13433 C 210.00016,663.48594 218.55122,695.42474 228.65411,734.1009 C 238.75699,772.77705 247.24712,805.09695 247.50987,805.92881 C 248.31218,808.46886 249.22752,805.0528 265.72899,737.86456 C 274.51404,702.09489 282.31614,671.48275 283.06805,669.81904 C 283.90844,667.95957 284.46565,693.43789 284.52858,735.97337 L 284.64093,805.17982 L 277.82514,805.17982 C 274.0818,805.17982 271.02808,805.73743 271.02808,806.41565 C 271.02808,807.09387 283.28042,807.69663 298.25378,807.76383 C 313.38153,807.83172 325.47947,807.28111 325.47947,806.528 C 325.47947,805.78258 322.70252,805.17981 319.31905,805.17982 C 314.18759,805.17982 313.29245,804.74746 313.90762,802.53964 C 314.31324,801.08389 316.81075,790.50312 319.45012,779.04015 L 324.24365,758.19957 L 342.55639,758.63024 L 360.88786,759.04219 L 366.54272,778.70311 C 369.65781,789.5172 372.6049,799.90026 373.07763,801.77193 C 373.87544,804.93061 373.4378,805.17981 367.01084,805.17982 C 363.20256,805.17982 360.4003,805.70334 360.79424,806.34075 C 361.18819,806.97818 377.74195,807.44196 397.56953,807.37061 C 430.7715,807.25115 434.16934,806.98233 440.71121,804.05634 C 462.96607,794.10235 478.1767,759.88032 476.17577,724.25171 C 475.28768,708.43821 471.21027,691.11807 465.97082,680.84788 C 461.41945,671.92647 451.40993,661.7618 442.7522,657.2735 C 435.76483,653.65115 433.25994,653.26838 412.81142,652.70468 C 408.71264,652.59169 405.27919,652.53187 402.41922,652.51743 z M 910.25154,652.7234 C 895.45544,652.77924 885.08556,653.1494 885.08556,653.69709 C 885.08556,654.42351 887.28794,654.89299 889.99143,654.74567 C 892.69498,654.59834 895.76732,654.76504 896.80722,655.12016 C 898.28548,655.62501 898.69838,672.05702 898.69838,730.46831 L 898.69838,805.17982 L 891.88259,805.17982 C 888.13921,805.17982 885.08556,805.73011 885.08556,806.41565 C 885.08556,807.41324 943.70876,807.74358 968.65382,806.88377 L 974.32743,806.69652 L 974.25253,784.37669 L 974.17763,762.07559 L 970.61994,771.30686 C 965.42484,784.79832 962.45813,790.20048 957.13816,795.85492 C 949.43582,804.04144 945.91114,805.17981 928.26469,805.17982 L 912.31126,805.17982 L 912.31126,767.37467 L 912.31126,729.5508 L 919.50154,729.56952 C 931.82268,729.60776 937.54435,734.52474 942.60781,749.39897 L 945.37906,757.52549 L 945.36031,726.53613 L 945.36031,695.52804 L 942.64526,703.16771 C 936.15339,721.40078 931.10623,726.53613 919.67003,726.53613 L 912.31126,726.53613 L 912.31126,690.97794 L 912.31126,655.43848 L 923.26517,655.23251 C 934.43144,655.01309 938.59599,655.01775 945.90335,655.28868 C 952.72753,655.5417 959.67112,664.00689 964.15989,677.55234 L 968.11083,689.47997 L 967.81124,671.31702 L 967.51164,653.17279 L 926.29857,652.77958 C 920.60171,652.72395 915.18354,652.70479 910.25154,652.7234 z M 413.95363,654.82057 L 422.21122,655.26996 C 426.75738,655.51136 432.31765,656.643 434.55079,657.79779 C 445.22181,663.316 456.63232,684.11547 460.18489,704.51589 C 462.81728,719.63217 461.2366,751.73696 457.24511,764.36 C 453.63275,775.78398 445.1695,790.26516 436.96627,799.03812 C 431.50448,804.87927 430.7938,805.17981 422.19249,805.17982 L 413.16719,805.17982 L 413.56041,730.00019 L 413.95363,654.82057 z M 339.89749,685.92227 C 340.27085,685.97629 341.23598,688.57722 342.12572,691.97035 C 343.67396,697.8747 357.70191,747.5789 359.67076,754.13632 C 360.39556,756.55034 358.92487,756.7765 342.96833,756.7765 L 325.47947,756.7765 L 325.47947,751.51486 C 325.47947,746.74193 338.5028,687.29824 339.84131,685.95972 C 339.86077,685.94026 339.87259,685.91867 339.89749,685.92227 z "
       style="fill:#000000"
       id="path13876" />
  </g>
</svg>
