<svg xmlns="http://www.w3.org/2000/svg" height="95.559pt" width="669.65pt" version="1.1" xmlns:xlink="http://www.w3.org/1999/xlink" viewBox="0 0 669.65233 95.558599">
<defs>
<symbol id="f" overflow="visible"></symbol>
<symbol id="c" overflow="visible"></symbol>
<symbol id="e" overflow="visible"></symbol>
<symbol id="n" overflow="visible"></symbol>
<symbol id="m" overflow="visible"></symbol>
<symbol id="l" overflow="visible"></symbol>
<symbol id="k" overflow="visible"></symbol>
<symbol id="b" overflow="visible"></symbol>
<symbol id="a" overflow="visible"></symbol>
<symbol id="j" overflow="visible"></symbol>
<symbol id="i" overflow="visible"></symbol>
<symbol id="d" overflow="visible"></symbol>
<symbol id="h" overflow="visible"></symbol>
<symbol id="g" overflow="visible"></symbol>
<clipPath id="y">
<path d="m363 922h2v0.0586h-2z"/>
</clipPath>
<clipPath id="x">
<path d="m365 922h1v0.0586h-1z"/>
</clipPath>
<clipPath id="w">
<path d="m368 922h2v0.0586h-2z"/>
</clipPath>
<clipPath id="v">
<path d="m369 922h2v0.0586h-2z"/>
</clipPath>
<clipPath id="u">
<path d="m370 922h1v0.0586h-1z"/>
</clipPath>
<clipPath id="t">
<path d="m358.99 917.04h0.0117v4.9609h-0.0117z"/>
</clipPath>
<clipPath id="s">
<path d="m487 977h3v0.082h-3z"/>
</clipPath>
<clipPath id="r">
<path d="m490 977h2v0.082h-2z"/>
</clipPath>
<clipPath id="q">
<path d="m495 977h3v0.082h-3z"/>
</clipPath>
<clipPath id="p">
<path d="m498 977h2v0.082h-2z"/>
</clipPath>
<clipPath id="o">
<path d="m480.92 969.36h0.0781v7.6406h-0.0781z"/>
</clipPath>
</defs>
<g transform="translate(-2.8543 146.58)">
<path style="fill:#ffe800" d="m561.42-84.553c-3.5273 2.2188-12.023 7.707-23.914 7.707-14.766 0-24.566-9.5391-24.566-22.215 0-7.707 4.4453-21.949 23-21.949 11.629 0 19.73 5.3555 24.695 8.8828v-27.047c-4.832-2.0898-13.98-6.0117-29.531-6.0117-39.199 0-50.309 29.27-50.309 46.91 0 23 16.855 45.867 49.656 45.867 14.766 0 22.605-3.5273 30.969-7.4492z"/>
<path style="fill:#000000" d="m561.42-84.553-0.74219-1.1797c-1.7656 1.1133-4.6758 2.9766-8.6016 4.5781-3.9258 1.5977-8.8398 2.918-14.57 2.918-7.0859 0-12.863-2.2773-16.875-5.9844-4.0078-3.7109-6.293-8.8594-6.2969-14.84-0.004-1.793 0.25782-4.0078 0.92579-6.2891 1.0039-3.4297 2.8984-6.9883 6.1367-9.6797 3.2422-2.6875 7.8477-4.582 14.543-4.5898 11.188 0.004 18.965 5.1328 23.891 8.6289l2.1953 1.5586v-30.656l-0.83594-0.36328c-2.4258-1.0508-6.0156-2.5938-10.957-3.8594-4.9375-1.2695-11.238-2.2656-19.129-2.2656-9.9727 0-18.227 1.8633-24.98 4.9766-10.137 4.668-16.848 12.133-20.98 20.09-4.1367 7.9609-5.7344 16.406-5.7383 23.234 0 11.836 4.3359 23.656 12.918 32.523 8.582 8.875 21.406 14.742 38.129 14.734 7.4922 0 13.289-0.89844 18.266-2.3047 4.9726-1.4102 9.1094-3.3125 13.293-5.2773l0.80078-0.375v-28.098l-2.1328 1.3398 0.74219 1.1797h-1.3906v24.695h1.3906l-0.58984-1.2578c-4.1797 1.957-8.1445 3.7773-12.871 5.1133-4.7305 1.3359-10.234 2.1992-17.508 2.2031-16.078-0.0078-28.078-5.5781-36.129-13.887-8.043-8.3125-12.137-19.426-12.137-30.59-0.004-8.5391 2.7148-19.992 10.148-29.195 3.7148-4.6094 8.6016-8.6719 14.953-11.602 6.3555-2.9297 14.188-4.7227 23.816-4.7227 7.6602 0 13.711 0.96485 18.438 2.1797 4.7344 1.2148 8.1328 2.6758 10.543 3.7188l0.55079-1.2773h-1.3906v27.047h1.3906l0.80859-1.1328c-5.0078-3.5586-13.434-9.1445-25.504-9.1406-4.8164-0.004-8.793 0.92579-12.023 2.4805-4.8555 2.332-7.9805 6.0625-9.8438 9.9219-1.8672 3.8633-2.5195 7.8516-2.5234 10.937-0.004 6.6992 2.6094 12.656 7.1953 16.883 4.5781 4.2344 11.082 6.7266 18.762 6.7266 6.1641 0 11.441-1.4258 15.617-3.125 4.1758-1.6992 7.2773-3.6914 9.0391-4.8008l-0.74219-1.1758h-1.3906z"/>
<path style="fill:#ffe800" d="m477-73.838h-33.68v-15.289h31.121v-20.387h-31.121v-14.109h33.039v-20.387h-64.539v90.555h65.18z"/>
<path style="fill:#000000" d="m477-73.838v-1.3906h-32.285v-12.508h31.117v-23.168h-31.117v-11.328h33.039v-23.168h-67.324v93.336h67.961v-23.164h-1.3906v1.3906h-1.3906v18.992h-62.398v-87.773h61.758v17.602h-33.039v16.898h31.121v17.602h-31.121v18.07h35.07v-1.3906h-1.3906z"/>
<path style="fill:#ffe800" d="m312.83-53.455h36.352c16.043 0 23.156-0.65234 30.789-4.0508 15.008-6.793 23.805-23.781 23.805-40.375 0-13.332-5.3047-25.352-13.973-33.453-10.609-9.9297-23.414-12.676-38.422-12.676h-38.551zm31.824-68.863h3.4922c5.9531 0 12.68 0.52343 17.465 5.4883 3.8828 4.0508 6.3398 9.9297 6.3398 18.426 0 9.8008-3.1055 14.633-6.0781 17.77-4.6602 4.8359-10.48 5.2266-16.82 5.2266h-4.3984z"/>
<path style="fill:#000000" d="m312.83-53.455v1.3906h36.352c8.0391 0 13.875-0.16016 18.719-0.76172 4.8438-0.59766 8.7031-1.6562 12.637-3.4062l0.008-0.0078c7.8125-3.5352 13.969-9.7031 18.164-17.09 4.1992-7.3906 6.457-16.008 6.457-24.551 0-13.699-5.4492-26.09-14.414-34.469h0.004c-5.4609-5.1172-11.531-8.3984-18.113-10.379-6.582-1.9805-13.676-2.6719-21.262-2.6719h-39.941v93.336h1.3906v-1.3906h1.3906v-89.164h37.16c7.4219 0 14.238 0.67969 20.461 2.5547 6.2226 1.875 11.863 4.9297 17.012 9.7461 8.3711 7.8242 13.531 19.477 13.531 32.437 0 8.0508-2.1406 16.223-6.0938 23.176-3.9531 6.9531-9.6992 12.676-16.895 15.934l0.004-0.0039h0.004c-3.6992 1.6445-7.2109 2.6094-11.844 3.1875-4.6328 0.57812-10.375 0.74219-18.379 0.74219h-36.352v1.3906h1.3906zm31.824-68.863v1.3906h3.4922c2.9375 0 5.9961 0.13281 8.8359 0.83984 2.8438 0.71094 5.4453 1.9648 7.6289 4.2227h-0.004v-0.004c1.8086 1.8906 3.2852 4.1953 4.3203 7.0586 1.0391 2.8633 1.6328 6.293 1.6328 10.406 0 4.7539-0.75 8.2227-1.8242 10.859-1.0742 2.6406-2.4688 4.4688-3.875 5.9531l0.008-0.0078c-2.1445 2.2148-4.4766 3.3828-7.1133 4.043-2.6289 0.65625-5.5625 0.76172-8.7031 0.75781h-3.0078v-45.52h-1.3906v1.3906-1.3906h-1.3906v48.301h5.7891c3.1992 0 6.3477-0.08984 9.375-0.83984 3.0234-0.74609 5.9297-2.1914 8.4453-4.8125l0.008-0.0078c1.5664-1.6484 3.2109-3.8047 4.4336-6.8203 1.2266-3.0117 2.0274-6.8633 2.0274-11.906 0-4.3828-0.63282-8.1406-1.7969-11.352-1.1602-3.2148-2.8555-5.875-4.9297-8.0352v-0.004h-0.004c-2.6016-2.707-5.7539-4.1992-8.9609-4.9922-3.207-0.79297-6.4844-0.92188-9.5039-0.92188h-4.8828v1.3906z"/>
<path style="fill:#ffe800" d="m249.79-53.455v-38.156c8.3672 0.52344 11.918 0.52344 22.059 24.961l5.4492 13.195h30.926l-11.535-25.348c-7.0977-15.551-11.152-17.25-13.434-18.164 8.2383-3.2656 14.07-10.977 13.941-20.777-0.125-7.4492-2.2812-14.504-9.3789-19.73-5.957-4.4453-12.676-6.5352-26.617-6.5352h-42.59v90.555zm0-75.395h3.6758c4.3125 0 13.691 0.1289 13.691 11.105 0 11.238-10.648 11.238-14.703 11.238h-2.6641z"/>
<path style="fill:#000000" d="m249.79-53.455h1.3945v-38.156h-1.3945l-0.0859 1.3906c2.1016 0.12891 3.8047 0.23047 5.2695 0.63672 1.1055 0.30469 2.0938 0.75781 3.1445 1.5547 1.5664 1.1953 3.2656 3.2227 5.2812 6.6992 2.0117 3.4727 4.3242 8.3672 7.1641 15.211h-0.004l5.8047 14.055h34.02l-12.43-27.32v0.0039c-3.582-7.8477-6.418-12.27-8.7461-14.914-1.1602-1.3203-2.2031-2.1953-3.1289-2.8008-0.92187-0.60547-1.7305-0.93359-2.3086-1.1641l-0.51562 1.293 0.51171 1.293c4.3164-1.7109 8.0234-4.582 10.652-8.3164 2.6328-3.7344 4.1719-8.3359 4.1719-13.441 0-0.10937-0.004-0.21875-0.004-0.33203v-0.004c-0.0664-3.8516-0.65235-7.6641-2.1875-11.227-1.5312-3.5625-4.0195-6.8555-7.7578-9.6016h0.004l0.004 0.004c-3.0938-2.3086-6.4648-4.0469-10.797-5.1641-4.3359-1.1211-9.6133-1.6445-16.652-1.6445h-43.98v93.336h33.965v-1.3906h-1.3945v-1.3906h-29.789v-87.773h41.199c6.9023 0 11.953 0.51954 15.953 1.5586 4.0039 1.0391 6.9688 2.5664 9.832 4.6992l0.004 0.004h0.004c3.3594 2.4805 5.4961 5.332 6.8516 8.4648 1.3477 3.1328 1.8984 6.5742 1.9609 10.172v-0.008c0 0.10156 0.004 0.19922 0.004 0.29687-0.004 4.5469-1.3594 8.5586-3.6641 11.84-2.3047 3.2734-5.5703 5.8086-9.4023 7.332l-3.2461 1.2852 3.2383 1.2969c0.5625 0.22656 1.1211 0.45312 1.8203 0.91016 1.043 0.68359 2.4297 1.9062 4.2344 4.4336 1.7969 2.5195 3.9961 6.332 6.6328 12.105l10.641 23.383h-27.836l-5.0976-12.34c-2.5469-6.1367-4.6836-10.754-6.6094-14.27-1.4492-2.6367-2.7773-4.6523-4.0859-6.2188-1.9531-2.3477-3.9375-3.6875-6.0312-4.3828-2.0898-0.69922-4.1875-0.79297-6.5234-0.94141l-1.4805-0.09375v39.637h1.3906v-1.3906zm0-75.395v1.3906h3.6758c1.0703-0.004 2.4024 0.008 3.7891 0.17969 2.0859 0.2539 4.2383 0.88672 5.793 2.2461 0.78516 0.6836 1.4453 1.5469 1.9297 2.7188 0.48047 1.1719 0.78906 2.6602 0.78906 4.5703-0.004 2.5938-0.60546 4.3945-1.4922 5.7227-0.66797 0.99219-1.5195 1.7383-2.4961 2.3164-1.4648 0.86718-3.2266 1.3359-4.9141 1.5703-1.6875 0.23437-3.2734 0.23828-4.4102 0.23828h-1.2695v-20.953h-1.3945v1.3906-1.3906h-1.3906v23.734h4.0547c1.0156 0 2.5039 0 4.1641-0.18359 2.4844-0.28516 5.4102-0.96875 7.8164-2.8594 1.1992-0.94531 2.25-2.2031 2.9766-3.8008 0.73046-1.5938 1.1367-3.5156 1.1367-5.7852 0-2.9375-0.63281-5.2812-1.7344-7.0898-0.82422-1.3555-1.9023-2.3906-3.0742-3.1523-1.7656-1.1445-3.7305-1.6914-5.543-1.9727-1.8164-0.27734-3.5039-0.28516-4.7305-0.28516h-5.0664v1.3945z"/>
<path style="fill:#ffe800" d="m179.98-53.455h32.066l-37.012-90.555h-32.574l-37.137 90.555h31.941l5.1953-13.98h32.574zm-21.168-60.762 9.6328 27.965h-19.52z"/>
<path style="fill:#000000" d="m179.98-53.455v1.3906h34.137l-38.148-93.336h-34.441l-38.277 93.336h34.98l5.1992-13.98h30.621l4.9453 13.98h0.98437v-1.3906l1.3086-0.46484-5.2695-14.906h-34.523l-5.1992 13.98h-28.902l36-87.773h30.707l35.875 87.773h-29.996v1.3906l1.3086-0.46484zm-21.168-60.762-1.3164 0.45312 9 26.121h-15.605l9.2344-26.109-1.3125-0.46484-1.3164 0.45312 1.3164-0.45312-1.3125-0.46485-10.543 29.82h23.438l-11.566-33.578-1.3281 3.7578z"/>
<path style="fill:#ffe800" d="m99.261-53.455v-90.555h-31.5v32.539h-32.016v-32.539h-31.5v90.555h31.5v-34.105h32.016v34.105z"/>
<path style="fill:#000000" d="m99.261-53.455h1.3945v-91.945h-34.285v32.535h-29.234v-32.535h-34.281v93.336h34.281v-34.105h29.234v34.105h34.285v-1.3906h-1.3945v-1.3906h-30.109v-34.105h-34.797v34.105h-28.719v-87.773h28.719v32.539h34.797v-32.539h28.719v89.164h1.3906v-1.3906z"/>
<path style="fill:#ffe800" d="m603.01-53.455v-42.207l28.617 42.207h38.156l-34.5-47.562 33.844-42.992h-33.844l-32.273 41.293v-41.293h-32.145v90.555z"/>
<path style="fill:#000000" d="m603.01-53.455h1.3906v-37.676l26.488 39.066h41.621l-35.48-48.918 34.965-44.418h-37.387l-30.207 38.645v-38.645h-34.93v93.336h34.93v-1.3906h-1.3906v-1.3906h-30.754v-87.773h29.363v43.941l34.344-43.941h30.301l-32.723 41.566 33.512 46.207h-34.691l-30.742-45.344v46.734h1.3906v-1.3906z"/>
<g style="fill:#000000">
<use xlink:href="#f" height="100%" width="100%" y="871.68768" x="24.165899"/>
</g>
<g style="fill:#000000">
<use xlink:href="#f" height="100%" width="100%" y="871.68768" x="32.3489"/>
</g>
<g style="fill:#000000">
<use xlink:href="#f" height="100%" width="100%" y="871.68768" x="53.2929"/>
</g>
<g style="fill:#000000">
<use xlink:href="#f" height="100%" width="100%" y="871.68768" x="55.0919"/>
</g>
<g style="fill:#000000">
<use xlink:href="#f" height="100%" width="100%" y="871.68781" x="114.5778"/>
</g>
<g style="fill:#000000">
<use xlink:href="#c" height="100%" width="100%" y="689.42743" x="503.11221"/>
</g>
<g style="fill:#ffffff">
<use xlink:href="#e" height="100%" width="100%" y="871.74371" x="431.99069"/>
</g>
<g style="fill:#ffffff">
<use xlink:href="#e" height="100%" width="100%" y="871.74371" x="456.77771"/>
</g>
<g style="fill:#ffffff">
<use xlink:href="#e" height="100%" width="100%" y="871.74371" x="462.00229"/>
</g>
<g style="fill:#ffffff">
<use xlink:href="#e" height="100%" width="100%" y="871.74371" x="485.1492"/>
</g>
<g style="fill:#ffffff">
<use xlink:href="#e" height="100%" width="100%" y="871.74371" x="491.13431"/>
</g>
<g style="fill:#ffffff">
<use xlink:href="#e" height="100%" width="100%" y="871.74371" x="504.62564"/>
</g>
<g style="fill:#ffffff">
<use xlink:href="#e" height="100%" width="100%" y="871.74371" x="515.47162"/>
</g>
<g style="fill:#ffe800">
<use xlink:href="#n" height="100%" width="100%" y="871.74371" x="527.41937"/>
</g>
<g style="fill:#ffffff">
<use xlink:href="#m" height="100%" width="100%" y="857.99323" x="528.06885"/>
</g>
<g style="fill:#ffffff">
<use xlink:href="#l" height="100%" width="100%" y="860.92432" x="534.62903"/>
</g>
<g style="fill:#ffffff">
<use xlink:href="#c" height="100%" width="100%" y="749.53497" x="485.4617"/>
</g>
<g style="fill:#ffffff">
<use xlink:href="#c" height="100%" width="100%" y="749.53497" x="487.5737"/>
</g>
<g style="fill:#ffffff">
<use xlink:href="#c" height="100%" width="100%" y="749.53497" x="489.6857"/>
</g>
<g style="fill:#ffffff">
<use xlink:href="#c" height="100%" width="100%" y="749.53497" x="491.7977"/>
</g>
<g style="fill:#000000">
<use xlink:href="#c" height="100%" width="100%" y="760.53497" x="475.65369"/>
</g>
<g style="fill:#ffffff">
<use xlink:href="#c" height="100%" width="100%" y="769.53497" x="485.31769"/>
</g>
<g style="fill:#ffffff">
<use xlink:href="#c" height="100%" width="100%" y="769.53497" x="487.42969"/>
</g>
<g style="fill:#ffffff">
<use xlink:href="#k" height="100%" width="100%" y="915.20276" x="177.29608"/>
</g>
<g clip-path="url(#y)">
<path style="fill:#000000" d="m363.7 923.53c-0.1289 0-0.23437 0.10938-0.23437 0.2461 0 0.13281 0.10547 0.24218 0.23437 0.24218 0.125 0 0.23047-0.10937 0.23047-0.24218 0-0.13282-0.10547-0.2461-0.23047-0.2461m0.21875 0.77735v-0.11719c-0.0156 0.0195-0.0312 0.0352-0.0351 0.043-0.0664 0.0703-0.16797 0.10937-0.27735 0.10937-0.28906 0-0.51172-0.24609-0.51172-0.57031 0-0.31641 0.22266-0.56641 0.50782-0.56641 0.0547 0 0.10546 0.0156 0.15625 0.0312 0.0703 0.0234 0.10156 0.043 0.16015 0.10938v-0.76172h0.35547v1.7227z"/>
</g>
<g clip-path="url(#x)">
<path style="fill:#000000" d="m365.51 923.55v0.75391h-0.35937v-0.75391h-0.12891v-0.30859h0.12891v-0.23438c0-0.26172 0.13672-0.44922 0.43359-0.44922 0.0547 0 0.125 0.0156 0.17578 0.0391v0.32812c-0.043-0.0273-0.082-0.0391-0.12109-0.0391-0.1211 0-0.12891 0.0977-0.12891 0.20703v0.14844h0.25v0.30859z"/>
</g>
<g clip-path="url(#w)">
<path style="fill:#000000" d="m369.15 924.3-0.39453-0.4336v0.4336h-0.35547v-1.7227h0.35547v1.0391l0.375-0.3789h0.48828l-0.50391 0.48828 0.53516 0.57422z"/>
</g>
<g clip-path="url(#v)">
<path style="fill:#000000" d="m370.18 923.55v0.75391h-0.35937v-0.75391h-0.16406v-0.30859h0.16406v-0.32032h0.35937v0.32032h0.25391v0.30859z"/>
</g>
<g clip-path="url(#u)">
<path style="fill:#000000" d="m370.58 923.24h0.35938v1.0664h-0.35938zm0.17969-0.19922c-0.11719 0-0.21094-0.0937-0.21094-0.21094 0-0.11718 0.0937-0.21093 0.21094-0.21093 0.11719 0 0.21094 0.0937 0.21094 0.21093 0 0.11719-0.0937 0.21094-0.21094 0.21094"/>
</g>
<g clip-path="url(#t)">
<path style="fill:#e3000f" d="m354.46 921.6h4.2461v-4.2109h-4.2461zm2.4961-3.9453c0 0.96094-0.90235 1.6953-1.8594 1.6953h-0.40234c0.0625-0.98438 0.88672-1.7344 1.8906-1.7344 0.125 0 0.25391 0.0156 0.3711 0.0391m0 3.6836c-0.11719 0.0234-0.2461 0.0351-0.3711 0.0351-1.0039 0-1.8281-0.78125-1.8906-1.7656h0.40234c0.95703 0 1.8594 0.76562 1.8594 1.7305m0.2539-3.6133c0.73828 0.25781 1.2656 0.92968 1.2656 1.7539s-0.52735 1.5274-1.2656 1.7891v-3.543"/>
</g>
<g style="fill:#000000">
<use xlink:href="#b" height="100%" width="100%" y="928.56042" x="354.9888"/>
</g>
<g style="fill:#000000">
<use xlink:href="#b" height="100%" width="100%" y="935.56238" x="354.9888"/>
</g>
<g style="fill:#000000">
<use xlink:href="#b" height="100%" width="100%" y="942.56439" x="397.13281"/>
</g>
<g style="fill:#000000">
<use xlink:href="#b" height="100%" width="100%" y="949.56641" x="354.9888"/>
</g>
<g style="fill:#000000">
<use xlink:href="#b" height="100%" width="100%" y="956.56842" x="354.9888"/>
</g>
<g style="fill:#000000">
<use xlink:href="#b" height="100%" width="100%" y="970.57239" x="354.9888"/>
</g>
<g style="fill:#000000">
<use xlink:href="#b" height="100%" width="100%" y="991.57843" x="398.57281"/>
</g>
<g style="fill:#000000">
<use xlink:href="#b" height="100%" width="100%" y="998.58038" x="354.9888"/>
</g>
<g style="fill:#000000">
<use xlink:href="#b" height="100%" width="100%" y="1005.5824" x="406.7868"/>
</g>
<g style="fill:#000000">
<use xlink:href="#b" height="100%" width="100%" y="1012.5844" x="354.9888"/>
</g>
<g style="fill:#000000">
<use xlink:href="#b" height="100%" width="100%" y="1012.5844" x="380.06281"/>
</g>
<g style="fill:#000000">
<use xlink:href="#b" height="100%" width="100%" y="1019.5864" x="354.9888"/>
</g>
<g style="fill:#000000">
<use xlink:href="#b" height="100%" width="100%" y="1033.5905" x="354.9888"/>
</g>
<g style="fill:#000000">
<use xlink:href="#b" height="100%" width="100%" y="1040.5924" x="354.9888"/>
</g>
<g style="fill:#000000">
<use xlink:href="#b" height="100%" width="100%" y="1047.5944" x="356.4288"/>
</g>
<g style="fill:#000000">
<use xlink:href="#b" height="100%" width="100%" y="1054.5964" x="356.4288"/>
</g>
<g style="fill:#000000">
<use xlink:href="#b" height="100%" width="100%" y="1054.5964" x="389.1828"/>
</g>
<g style="fill:#000000">
<use xlink:href="#b" height="100%" width="100%" y="1061.5984" x="354.9888"/>
</g>
<g style="fill:#ffffff">
<use xlink:href="#a" height="100%" width="100%" y="1115.7476" x="452.96701"/>
</g>
<g style="fill:#ffffff">
<use xlink:href="#a" height="100%" width="100%" y="1115.7476" x="454.16525"/>
</g>
<g style="fill:#ffffff">
<use xlink:href="#a" height="100%" width="100%" y="1115.7476" x="471.75461"/>
</g>
<g style="fill:#ffffff">
<use xlink:href="#a" height="100%" width="100%" y="1115.7476" x="476.1575"/>
</g>
<g style="fill:#ffffff">
<use xlink:href="#a" height="100%" width="100%" y="1115.7476" x="497.04623"/>
</g>
<g style="fill:#ffffff">
<use xlink:href="#a" height="100%" width="100%" y="1115.7476" x="501.44913"/>
</g>
<g style="fill:#ffffff">
<use xlink:href="#a" height="100%" width="100%" y="1115.7476" x="520.95569"/>
</g>
<g style="fill:#ffffff">
<use xlink:href="#a" height="100%" width="100%" y="1115.7476" x="522.15393"/>
</g>
<g style="fill:#ffffff">
<use xlink:href="#a" height="100%" width="100%" y="1121.8281" x="454.95111"/>
</g>
<g style="fill:#ffffff">
<use xlink:href="#a" height="100%" width="100%" y="1121.8281" x="464.09131"/>
</g>
<g style="fill:#ffffff">
<use xlink:href="#a" height="100%" width="100%" y="1121.8281" x="503.44995"/>
</g>
<g style="fill:#ffffff">
<use xlink:href="#a" height="100%" width="100%" y="1121.8281" x="507.85287"/>
</g>
<g style="fill:#ffffff">
<use xlink:href="#a" height="100%" width="100%" y="1127.9086" x="464.31424"/>
</g>
<g style="fill:#ffffff">
<use xlink:href="#a" height="100%" width="100%" y="1127.9086" x="469.35806"/>
</g>
<g style="fill:#ffffff">
<use xlink:href="#a" height="100%" width="100%" y="1127.9086" x="480.7276"/>
</g>
<g style="fill:#ffffff">
<use xlink:href="#a" height="100%" width="100%" y="1127.9086" x="481.92587"/>
</g>
<g style="fill:#ffffff">
<use xlink:href="#a" height="100%" width="100%" y="1127.9086" x="491.06607"/>
</g>
<g style="fill:#ffe800">
<use xlink:href="#a" height="100%" width="100%" y="1127.9075" x="506.66531"/>
</g>
<g style="fill:#ffffff">
<use xlink:href="#a" height="100%" width="100%" y="1127.9075" x="507.72421"/>
<use xlink:href="#a" height="100%" width="100%" y="1127.9075" x="509.06183"/>
</g>
<g style="fill:#ffffff">
<use xlink:href="#j" height="100%" width="100%" y="1104.6473" x="526.93427"/>
</g>
<g style="fill:#ffffff">
<use xlink:href="#i" height="100%" width="100%" y="1107.0238" x="532.25378"/>
</g>
<g clip-path="url(#s)">
<path style="fill:#000000" d="m488.16 979.34c-0.19922 0-0.35547 0.16406-0.35547 0.375 0 0.20703 0.15625 0.37109 0.35547 0.37109 0.19531 0 0.35546-0.16406 0.35546-0.37109s-0.16015-0.375-0.35546-0.375m0.33593 1.1914v-0.17969c-0.0234 0.0312-0.043 0.0547-0.0547 0.0664-0.0977 0.10547-0.25391 0.16797-0.42188 0.16797-0.44531 0-0.78516-0.3789-0.78516-0.8789 0-0.48828 0.33594-0.86719 0.77735-0.86719 0.082 0 0.16406 0.0195 0.23828 0.043 0.10937 0.043 0.15625 0.0703 0.24609 0.17187v-1.1719h0.55078v2.6484z"/>
</g>
<g clip-path="url(#r)">
<path style="fill:#000000" d="m490.95 979.38v1.1562h-0.55078v-1.1562h-0.19532v-0.48047h0.19532v-0.35547c0-0.40625 0.20703-0.69141 0.66797-0.69141 0.0859 0 0.1875 0.0234 0.26953 0.0586v0.5039c-0.0664-0.0391-0.12891-0.0547-0.1875-0.0547-0.1875 0-0.19922 0.14063-0.19922 0.3125v0.22657h0.38672v0.48047z"/>
</g>
<g clip-path="url(#q)">
<path style="fill:#000000" d="m496.55 980.54-0.60547-0.66797v0.66797h-0.54687v-2.6484h0.54687v1.6016l0.57422-0.58984h0.75391l-0.77735 0.7539 0.82422 0.88282z"/>
</g>
<g clip-path="url(#p)">
<path style="fill:#000000" d="m498.76 978.9h0.55078v1.6367h-0.55078zm0.27735-0.30469c-0.1836 0-0.32813-0.14453-0.32813-0.32422 0-0.18359 0.14453-0.32812 0.32813-0.32812 0.17968 0 0.32421 0.14453 0.32421 0.32812 0 0.17969-0.14453 0.32422-0.32421 0.32422"/>
</g>
<g clip-path="url(#o)">
<path style="fill:#e3000f" d="m473.96 976.38h6.5274v-6.4805h-6.5274zm3.8398-6.0742c0 1.4805-1.3906 2.6094-2.8672 2.6094h-0.61719c0.10156-1.5156 1.3672-2.6641 2.9062-2.6641 0.19922 0 0.39063 0.0195 0.57813 0.0547m0 5.668c-0.1875 0.0352-0.37891 0.0547-0.57813 0.0547-1.5391 0-2.8047-1.2031-2.9062-2.7188h0.61719c1.4766 0 2.8672 1.1836 2.8672 2.6641m0.38672-5.5586c1.1367 0.39843 1.9492 1.4297 1.9492 2.6953 0 1.2734-0.8125 2.3555-1.9453 2.7539 0-0.26562-0.004-5.1836-0.004-5.4492"/>
</g>
<g style="fill:#000000">
<use xlink:href="#c" height="100%" width="100%" y="994.0813" x="457.18799"/>
</g>
<g style="fill:#ffffff">
<use xlink:href="#d" height="100%" width="100%" y="480.22681" x="463.81555"/>
</g>
<g style="fill:#ffffff">
<use xlink:href="#d" height="100%" width="100%" y="480.22681" x="492.10245"/>
</g>
<g style="fill:#ffffff">
<use xlink:href="#d" height="100%" width="100%" y="480.22681" x="498.06473"/>
</g>
<g style="fill:#ffffff">
<use xlink:href="#d" height="100%" width="100%" y="480.22681" x="524.47992"/>
</g>
<g style="fill:#ffffff">
<use xlink:href="#d" height="100%" width="100%" y="480.22681" x="531.31012"/>
</g>
<g style="fill:#ffffff">
<use xlink:href="#d" height="100%" width="100%" y="480.22681" x="546.70642"/>
</g>
<g style="fill:#ffffff">
<use xlink:href="#d" height="100%" width="100%" y="480.22681" x="548.3291"/>
</g>
<g style="fill:#ffffff">
<use xlink:href="#d" height="100%" width="100%" y="480.22681" x="560.70648"/>
</g>
<g style="fill:#ffffff">
<use xlink:href="#d" height="100%" width="100%" y="480.22681" x="574.3443"/>
</g>
<g style="fill:#ffffff">
<use xlink:href="#d" height="100%" width="100%" y="480.22681" x="575.96692"/>
</g>
<g style="fill:#ffffff">
<use xlink:href="#h" height="100%" width="100%" y="480.22681" x="583.61609"/>
</g>
<g style="fill:#ffffff">
<use xlink:href="#g" height="100%" width="100%" y="468.10501" x="584.43188"/>
</g>
<g style="fill:#ffffff">
<use xlink:href="#c" height="100%" width="100%" y="475.6951" x="744.1861"/>
</g>
<g style="fill:#ffffff">
<use xlink:href="#c" height="100%" width="100%" y="475.6951" x="756.85809"/>
</g>
<g style="fill:#ffffff">
<use xlink:href="#c" height="100%" width="100%" y="475.6951" x="761.57812"/>
</g>
<g style="fill:#ffffff">
<use xlink:href="#c" height="100%" width="100%" y="484.6951" x="681.93811"/>
</g>
</g>
</svg>
