<?xml version="1.0" encoding="UTF-8"?>
<svg id="Logo" xmlns="http://www.w3.org/2000/svg" version="1.1" viewBox="0 0 614.3 145.7">
  <!-- Generator: Adobe Illustrator 30.1.0, SVG Export Plug-In . SVG Version: 2.1.1 Build 136)  -->
  <defs>
    <style>
      .st0 {
        fill: #f56600;
      }
    </style>
  </defs>
  <polygon class="st0" points="614.3 121 577.6 104.7 577.6 41.1 612.5 25.7 612.5 5.4 460.1 5.4 460.1 25.7 495 41.1 495 104.7 458.3 121 458.3 140.3 614.3 140.3 614.3 121"/>
  <path class="st0" d="M439.8,104v-3.7c0-7.4-3.7-14.8-8.3-19.7-4.6-4.9-10.9-8.5-18.3-10.2,6.8-1.7,12.6-5.4,16.8-10.4,4.2-4.9,6.7-10.8,6.7-19.9v-3.3c0-10.6-3.6-17.4-9.4-22.7-5.8-5.3-12.8-8.6-27.3-8.6h-175v22.9l28.8,12.8v63.5l-30.7,13.6v22h179.3c13,0,21.1-3.5,27.3-9.2,6.2-5.7,10.1-13.1,10.1-23.6v-3.5h0ZM323.8,32.3h24.6c8.6,0,10.7,1.2,12.6,3.1s3.1,4.4,3.1,9.2v2.3c0,4.4-1.2,7.2-3.1,9.1-1.9,1.9-3.4,3.1-12.6,3.1h-24.6v-26.8ZM365.7,99.4v1.2c0,4.4-1.2,7.2-3.1,9.1s-3.4,3.1-12.6,3.1h-26.3v-26.8h26.3c8.6,0,10.7,1.2,12.6,3.1s3.1,4.4,3.1,9.2v1.1h0Z"/>
  <path class="st0" d="M190.2,18.9c-10-10-21.4-16.1-80.4-16.1h-7.4C43.4,2.8,32,9,22,18.9,12,28.9,5.7,39.9,5.7,69.9v2.9h0v2.9c0,30,6.2,41.1,16.3,51,10,10,21.4,16.1,80.4,16.1h7.4c59,0,70.4-6.2,80.4-16.1,10-10,16.3-21,16.3-51v-2.9h0v-2.9c0-30-6.2-41.1-16.3-51ZM124.2,46.7v52.3c0,5.6-1.7,9.2-4.5,12s-7.1,4.5-12.3,4.5h-2.4c-5.2,0-9.5-1.7-12.3-4.5s-4.5-6.5-4.5-12v-52.3c0-5.6,1.7-9.2,4.5-12.1,2.8-2.8,7.1-4.5,12.3-4.5h2.4c5.2,0,9.5,1.7,12.3,4.5s4.5,6.5,4.5,12.1Z"/>
</svg>