<svg xmlns="http://www.w3.org/2000/svg" viewBox="0 0 506 100"><style>.cls-1{fill:#861a22;fill-rule:evenodd}</style><path d="M58.35 60.75h24.1c30.6 0 54.15-13.84 58.61-29.91 4.9-17.65-6.7-25.68-28-25.68H55.4l-52.82 93h486.98v-2.61H38.63ZM79 25.59h12.23c7.49 0 15.2 1 13.49 7.14-1.49 5.36-7.24 9.05-21.56 9.05H69.48Z" class="cls-1"/><path d="M182.05 86c39.56 0 71.34-21.77 78.78-48.56 6.76-24.33-10.32-34.94-43.21-34.94-39.56 0-71.33 21.77-78.78 48.56C132.46 74.05 149.16 86 182.05 86m-7.54-34.38c3.28-11.83 15.13-29.25 36.61-29.25 14 0 16.06 7.26 14 14.51-3.24 11.83-15.12 29.24-36.57 29.24-14.01 0-16.06-7.25-14.04-14.51ZM302.84 86c48.36 0 64.16-24 68.53-32.16H336.2c-4.23 7-12 12.28-23.27 12.28-16.45 0-15.88-10.27-14.05-16.85C302 38 313.52 22.36 333.38 22.36c11.08 0 15.11 4.24 12.7 11.72H380c6-23.89-15-31.59-40.88-31.59-39.57 0-69 21.43-76.13 47.22C257 71 269.15 86 302.84 86M457.91 2.49c-39.56 0-71.33 21.77-78.78 48.56-6.39 23 10.32 34.95 43.21 34.95 39.56 0 71.33-21.77 78.78-48.56 6.76-24.34-10.32-34.95-43.21-34.95m7.55 34.38c-3.29 11.84-15.13 29.25-36.62 29.25-14 0-16.06-7.25-14-14.51 3.29-11.83 15.12-29.25 36.61-29.25 13.97 0 16.02 7.26 14.01 14.51" class="cls-1"/></svg>