<?xml version="1.0" encoding="utf-8"?>
<!-- Generator: Adobe Adobe Illustrator 24.2.0, SVG Export Plug-In . SVG Version: 6.00 Build 0)  -->
<svg version="1.1" id="Layer_1" xmlns="http://www.w3.org/2000/svg" xmlns:xlink="http://www.w3.org/1999/xlink" x="0px" y="0px"
	 width="877.1px" height="256px" viewBox="0 0 877.1 256" style="enable-background:new 0 0 877.1 256;" xml:space="preserve">
<style type="text/css">
	.st0{fill:#007D86;}
</style>
<g>
	<polygon class="st0" points="825.2,127.7 872.3,65 823,65 802.2,93.8 789.6,111.5 789.4,111.6 771.5,136.5 771.5,14.7 731,14.7 
		731,203.5 768.5,203.5 799,162.7 826.1,203.5 877.1,203.5 	"/>
	<path class="st0" d="M264.8,59.2c16.3,0,29.6-13.2,29.6-29.6S281.2,0,264.8,0c-16.3,0-29.6,13.2-29.6,29.6S248.5,59.2,264.8,59.2z"
		/>
	<path class="st0" d="M199.8,105.5H242V65h-55.3c-24.4,0-44.1,19.8-44.1,44.1v14.1C137.3,81.7,99,60.9,71.7,60.9
		c-10.7,0-20.8,2.3-29.9,6.6C17.1,78.7,0,103.4,0,132.2V256h41.8v-66.6c9.9,8.4,20.3,14.1,29.9,14.1c39.7,0.3,67.5-27.2,70.9-63v63
		h40.5v-81.3C183.1,112.9,190.5,105.5,199.8,105.5z M71.4,162.1c-16.3,0-29.6-13.3-29.6-29.6c0-16.5,13.3-29.8,29.6-29.8
		c16.5,0,29.8,13.3,29.8,29.8C101.2,148.8,87.9,162.1,71.4,162.1z"/>
	<path class="st0" d="M638.7,111.7v91.8h40.5v-79.5c0-9.2,5.3-18.6,16.7-18.6h28.8V65h-39.2C659.6,65,638.7,85.9,638.7,111.7z"/>
	<polygon class="st0" points="288.7,65 187.1,203.5 237.2,203.5 338.7,65 	"/>
	<path class="st0" d="M470.9,60.6c-10.3-0.5-20.4,4.4-26.3,12.8l-47.2,66.5V86.1c0-12.3-4.4-25.5-21.5-25.5c0,0-18.8-1.4-30.6,15.8
		l-92.7,127.1h52.2l52.1-73.9v50.5c0,12.9,10.6,23.4,23.4,23.4c10.8,0,21-5.2,27.3-14l43.2-60.5v74.5H490v-71.2v-51
		C490,70.6,481.7,61.3,470.9,60.6z"/>
	<path class="st0" d="M590.1,68c-9.2-4.5-19.5-7-30.4-7c-33.2,0-69.7,25.1-69.7,71.3c0,39.2,26.9,71.2,69.7,71.2
		c10.7,0,21.1-5.2,30.4-12.8v12.8h39.1v-69.8C629.1,103.5,613.2,79.3,590.1,68z M560.2,161.8c-16.6,0-30-13.3-30-29.9
		c0-16.5,13.4-29.9,30-29.9c16.5,0,29.9,13.4,29.9,29.9C590.1,148.5,576.6,161.8,560.2,161.8z"/>
</g>
</svg>
