<?xml version="1.0" encoding="UTF-8" standalone="no"?>
<svg xmlns:rdf="http://www.w3.org/1999/02/22-rdf-syntax-ns#" xmlns="http://www.w3.org/2000/svg" height="60.349" width="87.114" version="1.0" xmlns:cc="http://creativecommons.org/ns#" xmlns:dc="http://purl.org/dc/elements/1.1/">
<defs>
<clipPath id="a">
<path d="m9.7617 49.039h62.949v-46.969h-62.949v46.969z"/>
</clipPath>
</defs>
<g transform="translate(414.44 127.96)">
<g transform="matrix(.96481 0 0 .96481 -7.5458 -2.9833)">
<g clip-path="url(#a)" transform="matrix(1.4942 0 0 1.4942 -437.63 -137.68)">
<path d="m10.637 5.4453h60.43v41.863h-60.43v-41.863z" fill="#eb1923"/>
<path d="m31.973 25.008-8.9531-12.281-8.8867 12.301v18.746h53.496l-0.01953-18.766-8.9688-12.293-8.8633 12.293-8.9297-12.281-8.875 12.281" fill="#fff"/>
<g fill="#eb1923">
<path d="m52.273 40.277h-0.74219l-0.11719-0.0078-0.08984-0.01563-0.09375-0.01953-0.07422-0.02344-0.05859-0.03516-0.05859-0.03906-0.04297-0.05078-0.046-0.085-0.02344-0.05859-0.02734-0.07813-0.01563-0.08203-0.01172-0.09375-0.0039-0.10938-0.0078-0.10938v-7.1875h1.4141v1.2227l-0.0078 0.0625 0.0078 0.0039 0.0078-0.02344 0.01563-0.07031 0.02734-0.09375 0.03906-0.11328 0.05078-0.13672 0.10156-0.21875 0.08984-0.14453 0.10156-0.15234 0.13281-0.13281 0.14062-0.12109 0.17578-0.09766 0.19141-0.07031 0.34766-0.05078 0.05078 0.01172h0.10938l0.05469 0.0078 0.05078 0.0078 0.05078 0.0078 0.05078 0.0078 0.06641 0.02734 0.05078 0.0078 0.03906 0.01563 0.04297 0.01563 0.04297 0.01953 0.03906 0.01562 0.04297 0.02344 0.05859 0.02734v1.7383l-0.04297-0.05078-0.03125-0.04297-0.04297-0.05078-0.05078-0.04297-0.05078-0.03516-0.04687-0.03125-0.05859-0.03516-0.08594-0.03906-0.06641-0.02734-0.05859-0.02344-0.06641-0.01953-0.07422-0.01563-0.06641-0.0078-0.07422-0.0078-0.10938-0.0078-0.125 0.0078-0.10547 0.01562-0.11719 0.03516-0.11719 0.05078-0.10938 0.06641-0.09766 0.08203-0.10156 0.11328-0.13281 0.20703-0.07422 0.17188-0.07422 0.19141-0.05859 0.23047-0.05859 0.25391-0.03516 0.28516-0.03125 0.32031-0.0078 0.53906v4.0664"/>
<path d="m46.238 40.445 0.39062-0.01172 0.35156-0.07031 0.32422-0.10156 0.28906-0.14453 0.25781-0.17578 0.22656-0.21875 0.19922-0.24609 0.24219-0.44141 0.13281-0.31641 0.11719-0.35547 0.08203-0.37891 0.06641-0.40625 0.05078-0.42188 0.02344-0.44531l0.02-0.711-0.01953-0.46094-0.02344-0.43359-0.04297-0.41406-0.06641-0.37109-0.08203-0.35156-0.10938-0.32031-0.13281-0.28906-0.23438-0.37891-0.19141-0.21094-0.21484-0.18359-0.24219-0.15234-0.26562-0.12891-0.28906-0.08984-0.32812-0.05859-0.53125-0.04297-0.36719 0.01563-0.33984 0.05078-0.30859 0.07422-0.27344 0.10156-0.25781 0.14453-0.22656 0.16016-0.19922 0.20312-0.25781 0.35547-0.13281 0.26953-0.11719 0.30078-0.09766 0.33984-0.07813 0.36328-0.04687 0.39453-0.036 0.422-0.008 0.691v0.47266l0.01562 0.44922 0.04297 0.4375 0.05859 0.40625 0.07422 0.39453 0.08984 0.36328 0.125 0.33594 0.22656 0.46484 0.18359 0.26172 0.20703 0.23437 0.24219 0.20313 0.27344 0.16797 0.30078 0.12109 0.33203 0.09375 0.57422 0.03906"/>
<path d="m41.086 40.312v-6.9297h1.2891v-1.1094h-1.3125v-0.80078l0.0078-0.3125 0.01563-0.27344 0.04297-0.24219 0.05078-0.20312 0.06641-0.16797 0.07422-0.14453 0.08203-0.10938 0.15234-0.10938 0.10547-0.03516 0.125-0.01563 0.125 0.01563 0.13281 0.02734 0.14062 0.05859 0.14453 0.07422 0.23047 0.13672v-0.78516l-0.06641-0.07422-0.06641-0.07813-0.06641-0.05859-0.07422-0.06641-0.07422-0.05078-0.07422-0.05078-0.08203-0.04297-0.14453-0.05078-0.08984-0.03516-0.10156-0.02344-0.10938-0.01563-0.10547-0.01953-0.11719-0.0078h-0.30078l-0.18359 0.03516-0.15625 0.05078-0.15625 0.05859-0.15234 0.06641-0.13281 0.09375-0.13281 0.10156-0.11719 0.10938-0.14844 0.19531-0.09375 0.14453-0.07422 0.14844-0.05859 0.16797-0.05859 0.17969-0.03125 0.18359-0.03516 0.19531-0.0078 0.3125v1.418h-0.80859v1.0781h0.82422v5.9492l0.0078 0.14062 0.01172 0.13672 0.0078 0.125 0.01563 0.11328 0.02344 0.09766 0.05078 0.125 0.04297 0.07031 0.05859 0.05859 0.07422 0.05078 0.08203 0.04297 0.10156 0.02344 0.11719 0.01953 0.20703 0.0078h0.72266"/>
<path d="m29.445 38.859-0.05078 0.0625-0.05859 0.05078-0.08203 0.05469-0.10156 0.0625-0.10547 0.05078-0.11719 0.05859-0.125 0.03906-0.21094 0.07031-0.14062 0.04297-0.14062 0.02734-0.14062 0.01953-0.14062 0.01953h-0.13672l-0.125-0.0078-0.17188-0.03125-0.19141-0.07813-0.17578-0.10156-0.15625-0.10938-0.13672-0.125-0.13281-0.15625-0.10547-0.16016-0.10156-0.16797-0.125-0.29688-0.06641-0.19922-0.06641-0.21875-0.05078-0.23828-0.04297-0.24609-0.03906-0.25-0.02344-0.26172-0.03516-0.42188h3.8281l-0.0078-0.48047-0.01563-0.45703-0.04297-0.42969-0.05859-0.39844-0.07422-0.37891-0.10156-0.34766-0.125-0.30859-0.212-0.423-0.184-0.246-0.199-0.203-0.226-0.176-0.24609-0.14453-0.27734-0.11719-0.30078-0.07422-0.48828-0.05078-0.41016 0.02344-0.37109 0.05859-0.33594 0.08594-0.28906 0.125-0.27734 0.15234-0.23047 0.1875-0.21094 0.21875-0.25 0.38672-0.14062 0.30469-0.11328 0.33594-0.09375 0.36328-0.06641 0.40625-0.05859 0.4375-0.02344 0.46484-0.01953 0.76953 0.02734 0.35938 0.05078 0.35547 0.06641 0.35547 0.08203 0.35156 0.10938 0.34766 0.125 0.32812 0.14062 0.3125 0.25781 0.4375 0.19922 0.26562 0.22656 0.23438 0.23828 0.19922 0.26953 0.17969 0.29688 0.125 0.31641 0.09375 0.52344 0.05469h0.14453l0.14062-0.01953 0.14062-0.02344 0.14062-0.03516 0.15234-0.04297 0.14062-0.04297 0.14062-0.05859 0.19922-0.09375 0.125-0.05859 0.125-0.07813 0.11719-0.06641 0.10938-0.07422 0.09766-0.07422 0.09375-0.07813 0.125-0.11719v-0.71094"/>
<path d="m22.496 40.285h-0.66797l-0.11719-0.0078-0.09766-0.0078-0.08203-0.01563-0.08594-0.02344-0.06641-0.03906-0.05859-0.03125-0.05078-0.04297-0.06641-0.08203-0.03125-0.05859-0.03516-0.07812-0.02344-0.07813-0.01563-0.08984-0.01953-0.10156-0.0078-0.10938-0.0078-0.19531v-4.6719l-0.0078-0.18359-0.0078-0.17969-0.01563-0.16016-0.01563-0.13672-0.03516-0.125-0.04297-0.10938-0.03906-0.09375-0.09375-0.10937-0.07422-0.05859-0.07422-0.03125-0.10156-0.03516-0.09766-0.01172h-0.11719l-0.13281 0.01172-0.21875 0.04297-0.11719 0.03125-0.09766 0.04297-0.09766 0.04297-0.10156 0.05859-0.08203 0.06641-0.08594 0.06641-0.07422 0.08594-0.09766 0.14453-0.05859 0.10938-0.10156 0.23438-0.03516 0.13672-0.02344 0.15234-0.012 0.154-0.0078 0.24219v5.2461h-0.66797l-0.11719-0.0078-0.09766-0.0078-0.08984-0.01563-0.08594-0.02344-0.06641-0.03906-0.06641-0.03125-0.05078-0.05078-0.06641-0.07422-0.03125-0.06641-0.03516-0.07813-0.02344-0.07422-0.01563-0.09375-0.01172-0.10547-0.01563-0.11328v-7.2578h1.4062v1.2695l0.06641-0.17969 0.09375-0.16797 0.09766-0.15234 0.10938-0.14453 0.10938-0.125 0.125-0.11719 0.13281-0.10156 0.20703-0.12891 0.14844-0.07813 0.15234-0.05469 0.14844-0.05078 0.14844-0.04297 0.16016-0.02734 0.15625-0.01563 0.23438-0.01563 0.125 0.01563 0.125 0.02734 0.13281 0.03906 0.125 0.05078 0.125 0.07422 0.11719 0.08594 0.11719 0.10156 0.15625 0.17969 0.09375 0.125 0.08203 0.14453 0.07422 0.14453 0.06641 0.15625 0.05078 0.17188 0.03125 0.17578 0.02734 0.26953v6.4102"/>
<path d="m35.418 39.035-0.0078 0.17188v0.15234l-0.0078 0.14453v0.125l0.0078 0.11719 0.0078 0.10938 0.01953 0.09375 0.03906 0.125 0.04297 0.07031 0.05859 0.05469 0.06641 0.05469 0.07422 0.04297 0.10156 0.02344 0.11719 0.01953 0.21484 0.0078h0.71484v-8.0938h-1.4648l-0.01563 5.293-0.0078 0.16797-0.01563 0.16016-0.02734 0.15234-0.02344 0.13281-0.04297 0.125-0.05078 0.12891-0.05859 0.10938-0.08984 0.14062-0.07422 0.09766-0.08594 0.07422-0.08203 0.06641-0.08984 0.07031-0.10156 0.04687-0.10156 0.04687-0.15625 0.03906-0.15625 0.03516-0.13672 0.02344h-0.23047l-0.10156-0.02344-0.08984-0.02734-0.07422-0.04687-0.09375-0.10156-0.05859-0.08594-0.03906-0.10156-0.03516-0.11328-0.02344-0.13281-0.01563-0.14844-0.01953-0.16016v-5.9688h-1.4219l-0.0078 6.1875 0.0078 0.22266 0.01563 0.21484 0.04297 0.20312 0.05078 0.18359 0.06641 0.17578 0.07422 0.16797 0.08203 0.15625 0.14844 0.20312 0.10938 0.11719 0.11719 0.09766 0.11719 0.09375 0.13281 0.07031 0.13281 0.05859 0.14062 0.03125 0.21875 0.01563h0.13281l0.14844-0.0078 0.14844-0.02344 0.15234-0.02734 0.15625-0.03906 0.15234-0.05078 0.14844-0.07031 0.22266-0.11719 0.14453-0.09375 0.13281-0.10938 0.125-0.11328 0.11719-0.14844 0.10547-0.14844 0.09375-0.16797 0.10547-0.30078"/>
<path d="m60.684 33.527 0.07031-0.20703 0.08203-0.1875 0.09766-0.16797 0.10156-0.15234 0.11719-0.125 0.125-0.10938 0.125-0.10156 0.20703-0.12109 0.14453-0.05859 0.14844-0.04297 0.14844-0.03906 0.14844-0.02734 0.16016-0.01563 0.14844-0.01563 0.23438-0.01172 0.125 0.01953l0.134 0.025 0.13281 0.04297 0.13281 0.05078 0.125 0.05859 0.11719 0.07422 0.117 0.085 0.15625 0.16016 0.10156 0.11719 0.08203 0.13672 0.06641 0.15234 0.05859 0.16016 0.05078 0.17578 0.03516 0.19531 0.01563 0.3125v6.3594h-0.66797l-0.11719-0.0078-0.09766-0.01953-0.08594-0.01172-0.08203-0.01953-0.06641-0.03516-0.05859-0.03125-0.05078-0.04297-0.05469-0.06641-0.03516-0.05859-0.03516-0.07812-0.01563-0.07813-0.01563-0.08203-0.01953-0.10156-0.0039-0.10938-0.0078-0.18359v-4.625l-0.01172-0.21094-0.016-0.188-0.023-0.168-0.028-0.152-0.03906-0.125-0.04297-0.10938-0.05859-0.09375-0.09375-0.10547-0.07031-0.05078-0.08594-0.04297-0.08984-0.02734-0.10938-0.0078-0.10938 0.0078-0.125 0.0078-0.19922 0.04297-0.10547 0.03125-0.10156 0.04297-0.10156 0.04297-0.08984 0.05078-0.09375 0.06641-0.07422 0.07031-0.08203 0.08203-0.10156 0.13672-0.05469 0.10156-0.05078 0.11719-0.04297 0.125-0.03906 0.13672-0.02734 0.15234-0.01563 0.16016-0.01172 0.26172v5.1953h-0.65625l-0.11328-0.0078-0.10156-0.01953-0.08203-0.01172-0.08594-0.01953-0.06641-0.03516-0.05859-0.03125-0.04687-0.04297-0.0625-0.06641-0.03125-0.05859-0.03125-0.07812-0.01563-0.07813-0.01953-0.08203-0.01563-0.10156-0.0078-0.10938-0.01172-0.18359v-4.625l-0.0078-0.16797-0.0078-0.16016-0.0078-0.14453-0.02344-0.14453-0.02344-0.11719-0.03516-0.11719-0.05078-0.09375-0.08203-0.125-0.06641-0.07031-0.08594-0.05078-0.08984-0.03125-0.09766-0.02344-0.11719-0.0078-0.13281 0.0078-0.22656 0.03125-0.11719 0.03516-0.09766 0.03906-0.10156 0.05078-0.09766 0.05078-0.08594 0.07031-0.08203 0.07422-0.07422 0.08594-0.10938 0.13281-0.05859 0.10938-0.05078 0.10938-0.03906 0.12891-0.04297 0.13672-0.02344 0.14062-0.02734 0.15234-0.0078 0.24609v5.2188h-0.68359l-0.11328-0.0078-0.10156-0.01563-0.08203-0.01953-0.08594-0.02344-0.07422-0.03516-0.05859-0.03516-0.05469-0.03906-0.07031-0.08594-0.04297-0.05469-0.02344-0.07031-0.02344-0.08203-0.02344-0.09375-0.01953-0.09375-0.0078-0.10938-0.0078-0.19531v-7.0781l1.4727 0.0078v1.25l0.06641-0.17578 0.08594-0.17188 0.09766-0.14844 0.10156-0.13672 0.11719-0.125 0.11328-0.10938 0.13281-0.09375 0.21094-0.12891 0.14063-0.06641 0.14062-0.05859 0.14844-0.05078 0.16016-0.03516 0.14844-0.02344 0.14844-0.01563 0.23438-0.01953 0.10938 0.01172 0.10938 0.02344 0.11719 0.03516 0.11328 0.03906 0.10938 0.05078 0.11719 0.06641 0.10547 0.07813 0.15234 0.13672 0.09766 0.08984 0.08594 0.10938 0.08203 0.12109 0.07422 0.125 0.05859 0.13672 0.05078 0.14062 0.04687 0.21875"/>
</g>
<path d="m26.164 35.438 0.0078-0.16406 0.01172-0.17578 0.01563-0.18359 0.01563-0.20312 0.02344-0.20313 0.02734-0.20312 0.04297-0.20313 0.08203-0.29297 0.06641-0.17969 0.07422-0.16406 0.10156-0.15625 0.10547-0.125 0.13281-0.10156 0.15234-0.07422 0.26562-0.05078 0.15625 0.03516 0.14453 0.05859 0.125 0.09766 0.10547 0.12891 0.10156 0.15234 0.08203 0.16797 0.06641 0.19141 0.08203 0.30469 0.05078 0.20312 0.03516 0.21094 0.02344 0.20313 0.02734 0.19531 0.0078 0.17578 0.01563 0.16016 0.0078 0.19531h-2.1562" fill="#fff"/>
<path d="m46.238 39.609-0.20703-0.01172-0.17578-0.07031-0.14844-0.10938-0.13281-0.14453-0.11719-0.16797-0.09375-0.20312-0.07422-0.22656-0.08203-0.37109-0.04297-0.26172-0.02344-0.27734-0.02734-0.28125-0.0078-0.28516-0.0078-0.27734v-0.26953l0.0078-0.39844-0.0078-0.29297v-0.60156l0.0078-0.28516 0.01563-0.28906 0.02734-0.26953 0.03125-0.25391 0.07812-0.35156 0.06641-0.21094 0.07422-0.19531 0.09766-0.16016 0.11719-0.13672 0.14062-0.10547 0.16016-0.07031 0.28906-0.05078 0.21094 0.02734 0.18359 0.05859 0.15625 0.08984 0.13281 0.13672 0.11719 0.16016 0.10156 0.1875 0.07422 0.19922 0.08984 0.35547 0.04297 0.26172 0.03125 0.26172 0.01953 0.28125 0.0078 0.28516 0.0078 0.28516v0.29688l-0.0078 0.42187-0.0078 0.25391-0.0078 0.25781-0.01172 0.27344-0.0078 0.27734-0.01563 0.27734-0.02344 0.27734-0.03516 0.26953-0.07422 0.38281-0.06641 0.23438-0.08203 0.21094-0.10156 0.1875-0.11719 0.16016-0.13281 0.125-0.16797 0.08203-0.28125 0.05078" fill="#fff"/>
</g>
</g>
</g>
</svg>
