<?xml version="1.0" encoding="UTF-8" standalone="no"?>
<!DOCTYPE svg PUBLIC "-//W3C//DTD SVG 1.1//EN" "http://www.w3.org/Graphics/SVG/1.1/DTD/svg11.dtd">
<svg width="100%" height="100%" viewBox="0 0 2515 2277" version="1.1" xmlns="http://www.w3.org/2000/svg" xmlns:xlink="http://www.w3.org/1999/xlink" xml:space="preserve" xmlns:serif="http://www.serif.com/" style="fill-rule:evenodd;clip-rule:evenodd;stroke-linejoin:round;stroke-miterlimit:1.41421;">
    <g transform="matrix(1,0,0,1,-2250.48,-2093.17)">
        <g transform="matrix(4.16667,0,0,4.16667,0,0)">
            <g transform="matrix(1,0,0,1,550.471,996.586)">
                <path d="M0,-448.367C21.02,-500.599 148.505,-495.313 209.983,-492.706C237.125,-491.553 264.19,-488.774 291.33,-487.498C343.507,-485.05 438.933,-483.65 491.094,-480.886C542.31,-478.169 575.974,-451.421 589.644,-404.311C598.621,-373.362 587.778,-249.269 587.463,-149.861C589.24,-38.417 546.877,-43.107 507.103,-38.417C467.329,-33.728 432.075,-29.662 415.842,-27.273C407.776,-26.084 405.18,-24.621 403.969,-22.566C402.759,-20.512 404.005,-16.443 404.705,-11.33C406.142,-0.831 419.677,9.037 437.275,17.911C448.158,24.429 475.29,34.815 493.54,42.327C503.647,46.487 507.692,47.594 507.651,49.182C507.593,51.397 496.234,52.232 492.378,52.232C446.851,52.232 340.699,27.914 308.1,-13.667C301.894,-21.577 293.783,-26.748 284.722,-30.407C278.106,-31.621 271.444,-32.627 265.143,-33.938C261.973,-34.627 206.658,-40.697 203.656,-41.896C177.013,-46.918 73.235,-44.013 49.051,-54.575C37.681,-59.545 28.271,-67.392 21.767,-78.296C1.628,-112.067 -0.36,-139.497 -3.672,-178.158C-7.161,-218.84 -5.519,-274.022 -9.11,-337.586C-11.22,-374.967 -12.014,-412.06 0,-448.367" style="fill:rgb(205,19,22);fill-rule:nonzero;"/>
            </g>
        </g>
        <g transform="matrix(4.16667,0,0,4.16667,0,0)">
            <clipPath id="_clip1">
                <path d="M550.471,548.218C538.457,584.526 539.251,621.619 541.361,658.999C544.952,722.563 543.309,777.746 546.799,818.427C550.111,857.088 552.099,884.518 572.238,918.289C578.742,929.194 588.152,937.041 599.522,942.01C623.705,952.572 727.483,949.668 754.126,954.69C757.129,955.889 812.443,961.959 815.614,962.648C821.914,963.959 828.577,964.964 835.193,966.178C844.254,969.838 852.365,975.008 858.571,982.918C891.169,1024.5 997.322,1048.82 1042.85,1048.82C1046.7,1048.82 1058.06,1047.98 1058.12,1045.77C1058.16,1044.18 1054.12,1043.07 1044.01,1038.91C1025.76,1031.4 998.629,1021.01 987.746,1014.5C970.148,1005.62 956.613,995.755 955.175,985.256C954.476,980.143 953.23,976.074 954.439,974.019C955.651,971.965 958.246,970.502 966.313,969.313C982.546,966.923 1017.8,962.857 1057.57,958.169C1097.35,953.479 1139.71,958.169 1137.93,846.724C1138.25,747.317 1149.09,623.223 1140.12,592.275C1126.44,545.165 1092.78,518.417 1041.57,515.699C989.404,512.935 893.978,511.535 841.801,509.088C814.661,507.812 787.596,505.033 760.454,503.881C744.631,503.209 724.446,502.361 702.818,502.361C640.416,502.362 566.081,509.43 550.471,548.218Z" clip-rule="nonzero"/>
            </clipPath>
            <g clip-path="url(#_clip1)">
                <g transform="matrix(1,0,0,1,919.866,652.66)">
                    <path d="M0,15.282L0.433,15.282L10.242,-38.438C11.363,-44.568 13.878,-46.717 20.945,-46.717L30.785,-46.717C35.986,-46.717 38.933,-44.705 38.933,-40.016C38.933,-38.933 38.79,-37.727 38.498,-36.345L16.817,53.319C15.502,59.371 13.501,61.999 6.033,61.999L-5.769,61.999C-12.479,61.999 -14.409,59.649 -15.921,53.584L-29.458,-4.917L-29.709,-4.917L-43.418,53.677C-44.778,59.849 -46.705,61.999 -53.376,61.999L-65.202,61.999C-72.82,61.999 -74.715,59.56 -76.098,53.584L-97.629,-36.345C-97.895,-37.727 -98.237,-38.933 -98.237,-40.016C-98.237,-44.705 -95.168,-46.717 -89.938,-46.717L-78.232,-46.717C-71.131,-46.717 -68.574,-44.568 -67.445,-38.438L-57.672,15.282L-57.419,15.282L-44.91,-38.438C-43.482,-44.568 -40.956,-46.717 -34.238,-46.717L-23.173,-46.717C-16.527,-46.717 -13.973,-44.568 -12.479,-38.438L0,15.282ZM-273.111,61.999C-279.032,61.999 -281.555,59.56 -281.555,53.584L-281.555,-38.181C-281.555,-44.198 -279.032,-46.717 -273.111,-46.717L-241.978,-46.717C-208.328,-46.717 -195.574,-34.045 -195.574,-12.44C-195.574,0.724 -202.685,11.742 -218.48,17.233L-193.593,51.596C-192.084,53.677 -191.457,55.332 -191.457,56.768C-191.457,60.263 -195.539,61.999 -200.078,61.999L-218.48,61.999C-223.903,61.999 -226.003,59.849 -229.828,53.677L-250.281,20.909L-250.603,20.909L-250.603,53.584C-250.603,59.56 -253.146,61.999 -259.259,61.999L-273.111,61.999ZM57.326,61.999C51.42,61.999 49.125,59.849 49.125,53.881L49.125,-38.438C49.125,-44.568 51.42,-46.717 57.326,-46.717L112.487,-46.717C118.525,-46.717 120.739,-44.568 120.739,-38.438L120.739,-30.596C120.739,-24.727 118.525,-22.501 112.487,-22.501L80.806,-22.501L80.806,-4.494L107.682,-4.494C113.751,-4.494 115.889,-2.275 115.889,3.819L115.889,11.05C115.889,16.961 113.751,19.15 107.682,19.15L80.806,19.15L80.806,37.721L117.157,37.721C123.316,37.721 125.6,39.986 125.6,46.02L125.6,53.881C125.6,59.849 123.316,61.999 117.157,61.999L57.326,61.999ZM-170.167,61.999C-176.123,61.999 -178.616,59.56 -178.616,53.584L-178.616,-38.181C-178.616,-44.198 -176.123,-46.717 -170.167,-46.717L-115.679,-46.717C-109.684,-46.717 -107.142,-44.198 -107.142,-38.181L-107.142,-30.915C-107.142,-25.02 -109.684,-22.501 -115.679,-22.501L-147.06,-22.501L-147.06,-4.494L-120.575,-4.494C-114.445,-4.494 -111.899,-2.018 -111.899,4.105L-111.899,10.693C-111.899,16.615 -114.445,19.15 -120.575,19.15L-147.06,19.15L-147.06,37.721L-110.917,37.721C-104.876,37.721 -102.26,40.203 -102.26,46.415L-102.26,53.584C-102.26,59.56 -104.876,61.999 -110.917,61.999L-170.167,61.999ZM-241.679,2.195C-232.221,2.195 -228.207,-1.768 -228.207,-10.42C-228.207,-19.037 -232.221,-23.054 -241.679,-23.054L-250.603,-23.054L-250.603,2.195L-241.679,2.195Z" style="fill:white;fill-rule:nonzero;"/>
                </g>
                <g transform="matrix(1,0,0,1,648.257,842.934)">
                    <path d="M0,-94.644C0,-94.644 -0.177,-94.634 -0.173,-94.451C-0.169,-94.31 0.021,-94.002 0,-93.904C-0.047,-93.679 0,-91.543 0,-91.543L0,-89.71C0,-89.429 0,-89.006 -0.141,-88.443L-0.141,-86.892C-0.141,-85.624 0.306,-84.495 0.447,-83.79L0.791,-82.099C0.791,-81.394 0.791,-80.689 0.65,-80.266C0.791,-80.125 0.791,-79.843 0.791,-79.28C0.791,-78.434 0.65,-77.73 0.51,-77.306L0.51,-76.32C0.65,-75.897 0.65,-75.616 0.65,-75.474L0.65,-73.782C0.65,-73.642 0.65,-73.5 0.51,-73.078L0.51,-71.387C0.65,-70.963 1.059,-70.822 1.059,-70.682L1.059,-52.215C1.059,-51.51 1.059,-51.089 1.2,-50.667L1.2,-48.551C1.2,-47.562 1.2,-47 1.059,-46.576C1.2,-46.154 1.2,-31.746 1.2,-30.762L1.2,-19.905C1.2,-18.497 0.791,-17.37 0.933,-16.665C0.791,-15.538 0.65,-14.549 0.65,-13.847L0.65,-12.858L0.306,-9.334L0,-6.235C0,-4.681 0.142,-2.813 0,-1.826L2.055,-1.826C3.654,-1.826 4.962,-1.25 6.163,-1.455C7.515,-1.683 8.928,-2.206 10.098,-2.692C10.988,-3.063 11.418,-3.051 12.103,-3.574C13.12,-4.35 14.292,-5.769 15.065,-7.03C15.63,-7.955 15.752,-8.952 16.102,-10.29C16.442,-11.588 17.015,-13.215 17.237,-14.62C17.31,-15.072 17.307,-15.08 17.377,-15.55C17.452,-16.05 17.273,-16.01 17.327,-17.244C17.438,-19.821 17.842,-42.392 17.944,-46.242C18.091,-51.909 17.72,-53.037 17.802,-53.091C17.965,-53.199 17.653,-54.451 17.653,-54.98C17.653,-55.163 17.927,-55.166 17.927,-55.378C17.934,-60.433 18.341,-73.018 18.007,-78.152C17.966,-78.79 17.785,-79.274 17.736,-79.644C17.613,-80.526 17.309,-82.305 17.345,-83.169C17.449,-85.592 16.463,-86.668 15.524,-88.267C14.979,-89.193 14.513,-89.951 13.872,-90.575C13.181,-91.248 11.793,-91.764 10.845,-92.247C10.639,-92.351 10.368,-92.61 10.15,-92.705C9.496,-92.992 10.163,-92.985 9.465,-93.186C7.841,-93.651 4.685,-94.644 2.259,-94.644L0,-94.644ZM-9.388,3.583C-9.388,3.158 -9.381,1.745 -9.523,1.043L-9.523,-0.792L-9.523,-2.621C-9.381,-3.47 -9.381,-4.176 -9.381,-4.597C-9.523,-5.583 -9.216,-6.994 -9.216,-8.966L-8.872,-12.493C-8.872,-14.041 -8.872,-15.167 -9.014,-16.156L-9.014,-18.834L-8.605,-20.245L-8.605,-24.471L-8.605,-28.419L-8.605,-28.981C-8.605,-29.264 -8.605,-29.686 -8.746,-30.391L-8.746,-45.786L-8.746,-46.492L-8.746,-48.464C-8.605,-49.45 -8.605,-50.156 -8.463,-50.861C-8.605,-52.694 -8.746,-54.244 -8.746,-55.372L-8.746,-60.305L-8.746,-63.547L-8.746,-65.239C-8.746,-65.944 -8.746,-66.79 -8.888,-68.057L-8.888,-70.737L-9.295,-76.093L-9.295,-81.167L-9.639,-84.269L-9.639,-85.82L-9.946,-87.933C-9.946,-88.92 -9.946,-89.484 -9.805,-89.906L-9.805,-91.175L-9.805,-93.572L-9.805,-96.532C-9.663,-97.801 -9.663,-98.787 -9.523,-99.35C-9.381,-99.775 -9.393,-100.165 -9.253,-100.729C-9.128,-101.104 -8.917,-101.44 -8.622,-101.736C-8.382,-101.976 -8.004,-101.972 -7.71,-102.1C-7.382,-102.242 -7.132,-102.502 -6.734,-102.502C-6.734,-102.502 -5.569,-102.507 -5.263,-102.354C-4.957,-102.202 1.34,-102.502 1.34,-102.502C1.801,-102.502 1.74,-102.349 2.182,-102.337C2.675,-102.325 3.06,-101.9 3.54,-101.878C5.27,-101.796 7.458,-101.622 9.049,-101.351C9.81,-101.222 10.028,-101.083 10.628,-100.91C11.328,-100.708 12.397,-100.465 13.16,-100.205C13.559,-100.07 13.889,-100.063 14.267,-99.907C15.162,-99.535 15.97,-99.259 16.765,-98.751C17.522,-98.269 17.438,-98.152 18.125,-97.527C18.586,-97.107 18.823,-97.111 19.45,-96.542C20.117,-95.934 21.169,-94.749 21.595,-94.235C23.907,-91.446 25.848,-87.789 26.97,-83.267C27.504,-81.113 27.845,-76.44 28.056,-70.873C28.174,-67.787 27.688,-63.129 27.621,-59.746C27.616,-59.528 27.278,-59.351 27.275,-59.143C27.272,-58.889 27.396,-58.714 27.395,-58.478C27.395,-58.228 27.396,-57.99 27.399,-57.762C27.425,-55.708 27.854,-55.947 27.854,-54.595C27.854,-52.169 28.08,-33.198 27.854,-28.003C27.736,-25.286 27.366,-21.858 27.282,-19.689C27.18,-17.03 26.832,-14.634 26.779,-13.395C26.724,-12.158 26.963,-12.079 26.714,-11.059C26.302,-9.371 26.307,-8.629 25.775,-7.199C25.47,-6.381 25.127,-5.971 24.693,-5.108C24.356,-4.437 23.558,-2.709 23.17,-1.989C22.629,-0.986 22.489,-1.02 21.953,-0.396C21.299,0.363 20.766,1.068 20.051,1.694C19.105,2.529 18.591,2.636 17.445,3.24C16.438,3.768 14.816,4.813 13.671,5.164C12.651,5.479 11.627,5.743 10.569,5.965C10.122,6.058 9.67,6.013 9.208,6.089C9.003,6.126 8.796,6.286 8.587,6.314C7.395,6.491 5.566,5.991 4.216,6.058C3.348,6.103 2.811,6.235 1.85,6.235L-0.533,6.041L-6.22,6.325L-6.734,6.235C-7.484,6.235 -8.112,5.982 -8.622,5.471C-9.132,4.96 -9.388,4.333 -9.388,3.583M39.506,6.845C38.758,6.845 38.129,6.589 37.62,6.078C37.509,5.968 37.41,5.853 37.324,5.732C37.07,5.732 36.807,5.117 36.809,3.734L36.81,2.728L36.812,1.723L36.815,0.211L37.407,-3.686L37.285,-7.424L37.414,-22.903L37.414,-23.279L37.417,-24.788L37.419,-26.424L37.419,-27.05L37.421,-28.309L37.423,-29.189C37.549,-29.565 37.551,-30.321 37.679,-31.201L37.681,-33.212C37.683,-33.589 37.683,-33.839 37.556,-34.218L37.693,-40.507L37.829,-40.248C37.705,-42.889 37.835,-44.775 37.709,-46.157L37.709,-46.284C37.709,-46.534 37.711,-46.787 37.837,-47.29L37.839,-48.169L37.839,-48.296C37.712,-48.922 37.715,-49.802 37.589,-50.934L37.593,-53.45L37.593,-53.575L37.594,-54.331C37.721,-54.833 37.722,-55.086 37.722,-55.211L37.722,-55.336C37.598,-57.222 38.214,-66.911 38.091,-70.306C37.981,-80.867 37.353,-87.598 37.482,-89.234C37.485,-90.868 37.385,-92.628 37.261,-94.515L37.265,-98.035C37.267,-99.166 37.395,-100.046 37.777,-100.674C37.864,-100.8 38.252,-100.9 38.367,-101.014C38.877,-101.524 39.218,-101.801 39.967,-101.801C39.967,-101.801 41.407,-101.952 42.041,-101.801C42.151,-101.774 42.788,-101.878 43.836,-101.868C44.009,-101.865 44.365,-102.014 44.386,-101.862C44.387,-101.848 44.338,-101.736 44.612,-101.725C44.768,-101.719 45.571,-101.837 45.805,-101.833C47.831,-101.798 52.428,-101.455 56.188,-101.456C59.41,-101.456 62.005,-101.188 62.005,-101.188C62.752,-101.188 63.57,-100.924 64.08,-100.414C64.59,-99.904 64.657,-99.283 64.657,-98.536C64.657,-98.536 64.52,-96.983 64.52,-96.799C64.52,-96.618 64.657,-95.779 64.657,-95.779C64.657,-95.03 64.581,-94.083 63.928,-93.779C63.244,-93.46 62.752,-93.127 62.005,-93.127C62.005,-93.127 61.212,-93.243 60.36,-93.269C58.625,-93.321 55.83,-93.71 53.3,-93.701C51.857,-93.697 49.151,-93.777 49.063,-93.739C48.845,-93.645 47.669,-93.95 47.044,-93.981C46.938,-93.986 46.659,-94.001 46.813,-93.915C46.968,-93.829 46.702,-93.739 46.702,-93.739L47.277,-83.712C47.12,-82.588 47.264,-82.866 47.507,-80.467L47.493,-79.621L47.471,-78.352C47.319,-77.65 47.03,-77.231 46.885,-76.953L46.882,-76.811L47.002,-75.541C47.124,-74.412 47.381,-72.857 47.35,-71.023C47.342,-70.46 46.791,-61.142 46.861,-56.912L46.702,-53.783C46.702,-53.783 48.359,-53.707 48.669,-53.622C48.981,-53.535 50.845,-53.988 51.242,-53.988C51.639,-53.988 51.864,-53.894 51.864,-53.894L54.793,-53.89L56.902,-53.988C57.651,-53.988 58.28,-53.733 58.79,-53.223C59.302,-52.713 59.556,-52.082 59.556,-51.333L59.556,-49.667L59.466,-49.582L59.556,-48.579C59.556,-48.175 59.112,-47.503 58.964,-47.172C58.837,-46.885 59.026,-46.927 58.79,-46.691C58.28,-46.18 57.651,-45.924 56.902,-45.924L53.102,-45.865L52.649,-45.963L50.461,-45.618C50.461,-45.618 48.561,-45.772 48.412,-45.722C47.932,-45.562 47.055,-45.722 47.055,-45.722C47.055,-45.722 46.516,-45.845 46.497,-45.668C46.48,-45.497 46.702,-45.34 46.702,-45.34C46.702,-45.34 46.604,-24.578 46.805,-23.358C47.004,-22.136 47.146,-7.637 47.176,-7.429C47.207,-7.221 46.61,-3.816 46.702,-3.512C46.795,-3.212 46.242,-1.321 46.242,-1.321C46.242,-1.321 46.274,-1.023 46.216,-0.764C46.156,-0.503 47.393,-1.447 48.003,-1.326C48.342,-1.264 51.478,-0.68 54.379,-0.686C56.603,-0.691 57.87,-0.551 59.5,-0.61C60.933,-0.66 63.421,-0.357 63.421,-0.357C64.168,-0.357 64.798,-0.101 65.308,0.408C65.586,0.689 65.747,0.677 65.874,1.026C65.931,1.183 65.882,1.425 65.919,1.683C65.951,1.903 66.073,2.138 66.073,2.296L65.981,2.447L66.073,5.153C66.073,5.903 65.554,6.589 65.044,7.101C64.534,7.612 64.168,7.806 63.421,7.806C62.744,7.927 62.082,7.634 60.612,7.539C60.499,7.539 60.274,7.542 60.049,7.657L58.807,7.668L56.788,7.41L39.428,6.724L39.506,6.845ZM87.094,0.197C87.094,0.197 89.475,0.627 89.697,0.652C89.919,0.68 91.276,0.708 91.276,0.708C91.956,0.843 92.534,1.166 93.011,1.675C93.486,2.186 93.725,2.785 93.725,3.462L93.725,3.667C93.725,4.414 93.486,5.027 93.011,5.502C92.534,5.979 91.956,6.218 91.276,6.218L83.912,6.218L80.168,6.378L75.488,6.075L74.431,6.218L73.625,6.218C72.875,6.218 72.262,5.979 71.787,5.502C71.311,5.027 71.073,4.414 71.073,3.667L71.073,3.462C71.073,2.785 71.311,2.186 71.787,1.675C72.262,1.166 72.841,0.843 73.522,0.708C73.522,0.708 74.403,0.632 74.618,0.739C74.833,0.843 77.705,0.197 77.705,0.197C77.708,-0.031 77.852,-0.787 77.979,-2.503C78.105,-4.336 78.116,-6.05 78.129,-7.769L78.417,-23.443C78.42,-23.9 78.425,-24.701 78.319,-25.848C78.327,-26.991 78.556,-30.655 78.446,-31.456C78.566,-32.029 78.57,-32.83 78.576,-33.631L78.591,-35.691L78.49,-37.753L78.505,-39.928L78.424,-44.623L78.597,-49.774L78.501,-52.522L78.441,-60.306L78.736,-70.034L78.652,-74.271L78.673,-77.247L78.691,-79.88L78.711,-82.857L78.462,-96.122L78.626,-96.187C78.628,-96.217 78.72,-96.22 78.621,-96.355C78.521,-96.491 77.83,-96.491 77.779,-96.425C77.654,-96.264 74.583,-96.66 74.583,-96.66C74.222,-96.725 73.757,-97.066 73.466,-97.209C73.157,-97.365 73.026,-97.332 72.797,-97.577C72.355,-98.054 72.134,-98.665 72.134,-99.415L72.134,-99.619C72.134,-100.299 72.372,-100.876 72.848,-101.354C73.323,-101.829 73.902,-102.068 74.583,-102.068L76.727,-102.17L78.338,-102.143C78.338,-102.143 79.525,-102.395 80.563,-102.384C80.992,-102.379 83.164,-102.198 85.405,-102.177C88.582,-102.146 92.032,-102.477 92.032,-102.477C92.711,-102.477 93.29,-102.238 93.766,-101.761C94.241,-101.284 94.481,-100.706 94.481,-100.026L94.481,-99.822C94.481,-99.074 94.259,-98.461 93.818,-97.986C93.374,-97.51 92.78,-97.204 92.032,-97.067C92.032,-97.067 90.124,-96.959 89.774,-96.732C89.425,-96.503 87.847,-96.251 87.847,-96.251L87.732,-82.247C87.656,-73.18 87.639,-71.113 87.739,-69.39L87.718,-66.751L87.705,-65.259L87.691,-63.651L87.669,-60.896L87.654,-59.175C87.763,-58.37 87.757,-57.68 87.754,-57.336L87.747,-56.533C87.843,-54.351 87.947,-52.973 88.055,-52.168C87.921,-49.875 87.91,-48.495 87.907,-48.152L87.903,-47.691L87.73,-43.446C87.837,-42.412 87.815,-39.77 88.009,-35.407C87.972,-30.931 87.553,-10.658 87.532,-8.25C87.506,-5.035 87.23,-2.442 87.094,0.197M318.065,4.319C318.084,4.114 318.006,3.881 317.964,3.65C317.964,3.65 318.014,2.582 317.815,1.54C317.567,0.247 316.685,-1.281 316.28,-3.869C316.202,-4.361 316.151,-5.698 316.072,-6.21C316.025,-6.516 315.659,-6.848 315.612,-7.157C315.48,-7.991 315.665,-8.817 315.53,-9.666C314.468,-16.468 313.395,-30.664 313.372,-31.04C313.327,-31.788 312.847,-33.836 312.847,-33.836C312.726,-34.477 312.361,-35.485 312.245,-36.019C312.102,-36.668 312.209,-36.817 312.068,-37.326C311.299,-40.108 310.517,-41.004 309.36,-42.207C308.699,-42.895 308.109,-43.28 307.283,-43.78C307.165,-43.85 306.752,-44.12 306.631,-44.188C306.522,-44.249 306.519,-44.331 306.407,-44.387C305.544,-44.831 304.648,-45.151 303.788,-45.32L303.861,-45.494C305.628,-45.977 306.988,-46.604 308.292,-47.037C309.598,-47.475 310.456,-48.894 311.301,-49.956C311.509,-50.215 312.293,-51.742 312.479,-52.019C312.746,-52.425 312.678,-51.787 312.9,-52.231C313.608,-53.64 314.269,-55.865 314.777,-58.623C314.89,-59.22 314.752,-59.837 314.847,-60.482C315.016,-61.64 315.429,-62.973 315.586,-64.257C315.825,-66.206 315.783,-71.222 315.783,-73.359C315.783,-75.118 315.724,-79.926 315.589,-81.647C315.536,-82.345 315.207,-83.493 315.128,-84.175C315.007,-85.176 315.123,-86.108 314.943,-87.059C314.738,-88.145 314.49,-89.19 314.195,-90.182C314.125,-90.424 314.238,-90.468 314.103,-90.696C313.971,-90.922 313.591,-91.331 313.507,-91.56C312.644,-93.897 311.695,-95.88 310.399,-97.246C310.174,-97.483 309.958,-97.711 309.747,-97.929C309.63,-98.051 309.512,-98.172 309.393,-98.288C309.02,-98.659 308.795,-99.022 308.393,-99.341C307.932,-99.705 307.281,-100.022 306.685,-100.335C306.3,-100.536 305.904,-100.509 305.446,-100.692C305.016,-100.865 304.693,-101.129 304.22,-101.317C303.425,-101.635 302.462,-101.865 301.697,-102.027C300.722,-102.233 299.494,-102.299 298.424,-102.401C298,-102.441 297.564,-102.361 297.123,-102.385C296.451,-102.422 295.766,-102.143 295.06,-102.143C295.06,-102.143 293.619,-102.127 291.958,-102.115C291.795,-102.114 291.717,-102.025 291.554,-102.025C291.374,-102.024 291.11,-102.11 290.933,-102.108C289.067,-102.1 287.238,-102.101 287.066,-102.143C286.707,-102.233 285.788,-102.143 285.788,-102.143C285.038,-102.143 284.459,-101.883 283.947,-101.374L283.846,-101.324C283.228,-101.066 282.944,-98.991 282.891,-95.006C282.925,-93.139 283.363,-91.522 283.259,-90.275L283.293,-88.533C283.18,-87.784 283.189,-87.285 283.195,-86.911C283.203,-86.414 283.653,-85.546 283.798,-84.179C283.695,-83.056 283.602,-81.311 283.644,-78.947L283.711,-75.089L283.869,-66.378C283.9,-64.635 283.619,-63.141 283.759,-62.148C283.776,-61.277 283.265,-60.031 283.172,-58.286L283.183,-57.54L283.209,-56.17C283.096,-55.546 283.104,-55.048 283.116,-54.549C283.119,-54.302 283.124,-54.053 283.253,-53.681L283.27,-52.81L283.284,-51.938C283.166,-51.563 283.175,-51.19 283.18,-50.942C283.2,-49.695 283.231,-48.079 283.144,-45.837L283.228,-41.232L283.29,-37.747L283.318,-36.126C283.231,-34.01 283.135,-32.389 283.152,-31.394C283.071,-29.028 282.807,-26.539 282.734,-23.799C282.658,-21.057 282.905,-4.383 282.804,-2.888L282.675,1.219C282.708,3.085 282.416,3.835 282.509,4.465C282.52,5.089 282.734,5.634 283.144,6.106C283.36,6.359 283.195,6.401 283.473,6.55C283.599,6.617 283.739,6.718 283.962,6.794C284.29,6.907 284.732,6.988 284.97,7.005C284.97,7.005 285.234,7.042 285.572,6.921C285.911,6.803 289.042,7.297 289.042,7.297C289.786,7.353 290.402,7.32 290.947,6.848C291.492,6.376 291.823,5.589 291.877,4.841L292.026,2.209C291.602,2.023 292.071,0.728 292.062,0.511C292.054,0.295 292.338,-0.32 292.22,-0.542C292.102,-0.764 292.506,-4.094 292.425,-4.538C292.34,-4.982 291.899,-20.177 292.02,-21.86C292.141,-23.549 292.52,-25.988 292.52,-25.988L292.621,-30.549C292.621,-30.549 292.481,-30.759 292.52,-30.911C292.565,-31.06 292.031,-43.87 292.135,-44.044C292.318,-44.098 292.52,-43.555 292.52,-43.555C292.52,-43.555 293.018,-43.409 293.448,-43.555C293.577,-43.597 294.546,-43.555 294.546,-43.555C294.659,-43.555 294.704,-43.597 294.819,-43.595C294.951,-43.592 295.069,-43.552 295.215,-43.539C295.355,-43.524 295.26,-43.493 295.412,-43.477C295.648,-43.446 296.139,-43.42 296.364,-43.361C296.519,-43.316 296.583,-43.376 296.735,-43.325C296.991,-43.238 297.092,-43.137 297.348,-43.008C297.659,-42.847 297.991,-42.6 298.342,-42.386C298.576,-42.243 298.834,-42.142 299.034,-41.982C299.491,-41.611 299.947,-41.248 300.298,-40.838C300.638,-40.439 300.874,-39.998 301.276,-39.329C301.478,-38.995 301.649,-38.961 301.818,-38.627C302.344,-37.556 302.728,-35.997 303.206,-33.249C303.206,-33.249 303.571,-24.637 303.987,-21.838C304.077,-21.248 304.249,-20.849 304.336,-20.256C304.364,-20.082 304.308,-19.703 304.336,-19.528C304.389,-19.171 304.561,-19.051 304.611,-18.711C304.664,-18.373 304.597,-17.817 304.648,-17.505C304.886,-15.974 305.083,-13.628 305.156,-13.355C305.412,-12.417 305.581,-12.397 305.6,-12.065C305.617,-11.737 305.468,-11.003 305.6,-10.483C305.648,-10.298 305.982,-8.615 306.336,-6.325C306.572,-4.774 306.662,-2.81 306.896,-1.189C307.292,1.545 308.126,3.65 308.126,3.65C308.18,3.951 308.275,4.215 308.396,4.448C308.475,4.603 308.688,4.673 308.786,4.799C308.868,4.903 308.831,5.066 308.919,5.153C309.059,5.285 309.104,5.555 309.245,5.639C309.551,5.828 310.197,5.769 310.843,5.842C311.315,5.895 311.773,6.1 312.172,6.1L316.227,6.1C316.907,6.1 317.396,5.895 317.773,5.387L317.927,5.12C318,4.968 317.918,4.833 317.935,4.67C317.947,4.555 318.051,4.448 318.065,4.319M303.17,-53.72C302.892,-53.449 302.341,-53.086 301.998,-52.863C301.433,-52.486 300.778,-52.175 300.034,-51.929C299.373,-51.71 299.331,-51.327 298.525,-51.209C297.966,-51.125 296.682,-51.28 296.05,-51.246C295.603,-51.221 295.136,-51.209 294.653,-51.209L292.829,-51.209L292.829,-51.218C292.442,-51.473 293.026,-54.573 293.026,-60.378L293.026,-63.991L293.026,-65.927L292.852,-69.409C292.852,-70.571 293.026,-76.662 293.155,-77.179L293.155,-82.986L292.849,-88.146L292.442,-92.147C292.312,-92.792 292.312,-93.437 292.442,-94.082L294.653,-94.082C294.987,-94.082 295.178,-94.177 295.496,-94.166C296.094,-94.145 296.575,-94.454 297.115,-94.391C300.222,-94.023 302.442,-93.016 303.718,-91.429C304.403,-90.573 304.611,-91.463 304.965,-89.467C305.137,-88.5 305.167,-87.053 305.344,-85.653C305.508,-84.366 305.819,-82.743 305.912,-81.335C306.03,-79.538 305.988,-74.559 305.988,-73.258C305.988,-71.873 306.204,-66.134 306.17,-64.82C306.148,-63.809 305.893,-64.181 305.769,-63.109C305.432,-60.14 304.687,-56.996 304.01,-55.414C303.883,-55.121 303.909,-54.841 303.768,-54.629C303.527,-54.258 303.49,-54.029 303.17,-53.72M365.869,-102.677L366.009,-102.676C366.29,-102.531 366.711,-102.527 367.136,-102.523C367.276,-102.521 367.698,-102.517 368.262,-102.653L369.533,-102.437L370.238,-102.43C370.378,-102.287 370.8,-102.281 371.365,-102.277C371.786,-102.273 372.21,-102.269 372.916,-102.403L374.467,-102.388L375.172,-102.176L388.283,-102.124L394.537,-101.861C395.285,-101.861 395.917,-101.605 396.426,-101.095C396.937,-100.585 397.193,-99.955 397.193,-99.207C397.193,-99.207 397.173,-97.19 397.12,-96.958C397.063,-96.727 397.193,-96.35 397.193,-96.35C397.193,-96.2 397.235,-96.024 397.193,-95.866C397.086,-95.48 396.805,-95.115 396.634,-94.828C396.524,-94.647 396.586,-94.622 396.426,-94.463C395.917,-93.953 395.285,-93.697 394.537,-93.697C394.537,-93.697 391.75,-93.977 390.179,-93.981C389.334,-93.983 389.803,-93.911 389.075,-93.913C387.704,-93.92 387.428,-93.961 387.173,-93.901C386.529,-93.75 384.897,-94.106 384.897,-94.106C384.922,-92.494 384.964,-89.766 384.902,-85.921L385.015,-78.853C385.386,-55.419 383.95,-38.587 384.433,-8.084L384.444,-7.216L384.473,-5.606C384.481,-4.985 384.487,-4.844 384.366,-4.594C384.374,-4.223 384.38,-3.726 384.27,-2.858C384.284,-1.989 384.293,-1.368 384.177,-0.871C384.315,-0.003 384.447,0.489 384.453,0.736C384.453,0.86 384.456,1.11 384.338,1.36L384.346,1.855C384.349,2.105 384.355,2.476 384.239,2.973L384.284,3.583C384.284,4.333 384.029,4.96 383.52,5.471C383.009,5.982 382.379,6.235 381.632,6.235C381.632,6.235 379.69,6.156 379.294,6.235C378.898,6.314 377.549,6.235 377.549,6.235C376.799,6.235 375.655,5.929 375.13,5.17C374.719,4.575 374.897,4.333 374.897,3.583C374.888,2.714 374.902,2.057 375.009,0.691C375.006,0.32 375.121,-0.424 375.234,-1.416C375.231,-1.666 375.225,-2.037 375.096,-2.655L375.082,-3.771L375.077,-4.265L375.062,-5.274L375.034,-7.628C375.155,-8.002 375.144,-8.744 375.135,-9.612C375.248,-10.481 375.242,-11.102 375.239,-11.349L375.717,-22.998C375.652,-28.576 375.599,-46.756 375.683,-50.105C375.661,-52.089 375.644,-53.575 375.756,-54.567L375.748,-55.435C375.737,-56.18 375.849,-57.42 375.95,-59.281C375.945,-59.777 375.936,-60.52 375.798,-61.634L375.771,-63.988L375.712,-69.069L375.652,-74.274L375.709,-79.853L375.686,-81.835C375.672,-83.2 375.801,-82.581 375.917,-83.451C375.911,-83.822 375.9,-84.69 375.765,-85.804C375.751,-86.92 375.74,-87.787 375.61,-88.405L375.562,-92.494L375.543,-94.106L375.509,-94.106C375.509,-94.106 375.571,-94.394 375.405,-94.255C375.22,-94.103 374.039,-94.402 373.761,-94.31C373.464,-94.211 369.125,-94.536 366.919,-94.568C366.031,-94.581 365.869,-94.515 365.869,-94.515C365.118,-94.515 365,-94.259 364.492,-94.769C363.98,-95.279 363.216,-96.418 363.216,-97.167L363.216,-100.025C363.216,-100.772 363.132,-100.99 363.64,-101.5C364.152,-102.01 364.112,-102.548 365.869,-102.677M336.874,1.913C336.874,2.664 336.197,3.639 335.685,4.147C335.177,4.659 334.969,4.566 334.221,4.566C334.221,4.566 330.554,4.406 330.38,4.462C330.206,4.518 330.139,4.566 330.139,4.566C328.753,4.42 327.587,3.987 327.472,3.481C327.596,3.481 327.725,3.358 327.728,3.108C327.733,2.855 327.615,2.346 327.497,1.714L327.649,-3.085C327.694,-5.988 327.966,-23.74 327.936,-29.925C327.905,-35.986 328.177,-38.998 328.222,-41.9L328.233,-42.659L328.248,-43.668L328.264,-44.553L328.275,-45.309L328.464,-47.708L328.475,-48.467L328.486,-49.096L328.498,-49.855C328.377,-50.108 328.383,-50.487 328.388,-50.99L328.413,-52.506L328.419,-53.01L328.298,-53.265C328.301,-53.393 328.427,-53.516 328.557,-53.64C328.453,-55.031 328.189,-56.042 328.197,-56.673L328.292,-62.733L328.231,-67.026L328.253,-68.414L328.169,-71.193L328.003,-73.718C328.012,-74.35 328.02,-74.854 327.899,-75.235L327.919,-76.37L327.938,-77.632L327.955,-78.895L327.733,-85.713L327.792,-89.626L327.52,-93.415C327.537,-94.425 327.545,-95.056 327.68,-95.559L327.683,-95.811L327.697,-96.694C327.576,-97.076 327.581,-97.328 327.581,-97.328C327.584,-97.58 327.587,-97.832 327.714,-97.83C327.728,-98.714 327.61,-99.221 327.486,-99.474C327.486,-99.873 328.039,-100.733 328.183,-101.065C328.312,-101.355 328.012,-101.123 328.253,-101.362C328.762,-101.872 329.405,-102.18 330.153,-102.18C330.153,-102.18 330.234,-102.211 330.327,-102.141C330.42,-102.07 330.962,-102.048 330.962,-102.048L334.221,-102.128C334.969,-102.128 335.598,-101.872 336.109,-101.362C336.256,-101.216 336.191,-101.174 336.295,-101.008C336.556,-100.595 336.874,-100.008 336.874,-99.474C336.997,-99.227 336.989,-99.019 336.986,-98.649L336.854,-97.538L336.877,-90.38C336.862,-88.652 336.851,-87.417 336.969,-86.552L336.818,-83.221C336.924,-81.367 337.242,-79.885 337.228,-78.527L337.101,-68.283C337.217,-67.172 337.208,-66.185 337.205,-65.566C337.306,-63.098 337.158,-59.764 337.245,-55.567L337.174,-47.048L337.174,-46.924L337.112,-35.988L337.18,-29.197L337.042,-26.974C337.158,-26.112 337.149,-25.37 337.149,-24.999L336.938,-24.26C337.056,-23.886 337.053,-23.395 337.048,-22.777L336.913,-21.296L336.907,-20.557L336.896,-19.197C337.014,-18.702 337.014,-4.49 337.012,-4.366L336.874,1.913ZM346.658,-51.406C347.217,-49.248 347.79,-47.464 348.13,-46.32L349.768,-40.844C351.521,-32.85 354.168,-19.326 355.627,-13.858C355.733,-13.352 355.964,-12.588 356.306,-11.571C356.52,-10.427 356.748,-9.666 356.857,-9.157L358.546,-3.717C359.886,1.492 360.17,4.234 360.637,5.384C360.805,6.083 360.881,6.598 360.687,6.915C360.389,7.398 359.92,7.629 359.31,7.629C359.31,7.629 355.469,7.384 355.382,7.553C355.295,7.724 355.115,7.629 355.115,7.629C354.298,7.629 353.48,7.488 352.755,7.101C352.356,6.887 352.061,7.382 351.769,7.086C351.508,6.82 351.235,5.774 351.134,5.384C351.134,5.384 348.304,-7.595 346.933,-11.956C346.63,-12.934 346.422,-15.218 345.654,-18.32C345.497,-18.958 344.921,-19.717 344.75,-20.411C344.626,-20.922 344.5,-21.448 344.367,-21.984C341.69,-32.985 338.04,-48.675 338.04,-48.675C337.787,-49.566 337.638,-50.105 337.672,-50.923C337.705,-51.738 337.894,-52.259 338.172,-53.064C338.301,-53.471 338.29,-53.405 338.408,-54.217C338.52,-55.3 338.779,-55.98 338.905,-56.385C339.417,-57.881 340.049,-59.916 340.675,-62.357L343.811,-76.467C344.443,-78.773 344.803,-80.939 345.303,-82.972L346.194,-85.822C346.43,-87.446 346.686,-88.26 346.683,-88.395C348.203,-93.417 349.886,-100.362 349.864,-101.441C349.999,-101.937 350.218,-102.561 350.662,-102.781C351.448,-103.178 352.87,-103.583 354.09,-103.583C354.09,-103.583 355.351,-103.633 355.464,-103.583C355.57,-103.536 357.405,-103.583 357.405,-103.583C357.95,-103.583 358.355,-103.343 358.631,-102.87C358.846,-102.5 358.709,-102.059 358.529,-101.441C358.535,-101.32 358.2,-100.696 357.658,-99.335C357.248,-97.736 356.27,-91.83 355.674,-89.007C355.079,-86.186 354.739,-85.685 354.242,-83.354C353.744,-81.022 353.12,-78.806 352.485,-76.832L348.928,-59.601C348.436,-57.148 347.18,-54.389 346.523,-51.919L346.318,-51.91L346.208,-51.684C345.995,-51.513 346.658,-51.406 346.658,-51.406M137.101,6.727C137.101,6.727 133.701,6.654 132.398,6.693C132.29,6.699 132.092,6.249 132.028,6.241C131.918,6.227 131.975,6.648 131.939,6.668C131.61,6.842 130.922,6.727 130.922,6.727C130.172,6.727 129.458,6.539 128.779,6.165C128.098,5.791 127.36,5.344 127.145,4.378C127.077,2.06 125.961,-0.379 125.06,-6.465C124.046,-12.453 123.052,-16.314 122.665,-18.138C122.344,-19.43 122.013,-22.4 121.677,-26.224C121.387,-26.561 121.242,-27.418 121.332,-28.573C121.34,-28.677 121.347,-28.781 121.468,-28.983L121.494,-29.298C121.203,-29.638 121.05,-30.388 120.825,-31.566L120.583,-33.906C120.6,-34.117 120.572,-35.713 120.178,-38.804C120.131,-39.546 119.15,-40.077 119.128,-41.136C118.991,-42.097 118.942,-42.836 118.862,-43.162L115.846,-58.634C115.466,-60.39 115.312,-63.965 115.091,-66.614C115.022,-67.452 114.796,-67.372 114.74,-68.18C114.663,-69.291 114.668,-69.934 114.612,-70.86C114.532,-72.151 114.301,-70.693 114.255,-71.27C114.106,-73.119 114.122,-75.953 113.698,-77.871C113.237,-79.957 112.854,-83.188 112.585,-84.859L112.142,-84.859C112.288,-83.497 112.457,-80.3 112.574,-79.077C112.61,-78.692 112.533,-78.424 112.566,-77.976C112.624,-77.22 112.749,-76.223 112.798,-75.154C112.967,-71.446 112.919,-61.67 112.919,-57.589L112.84,-56.914L112.531,-52.569C112.523,-51.519 112.722,-50.771 112.794,-50.246L112.704,-48.222C112.772,-47.099 112.84,-46.199 112.835,-45.373L112.846,-39.155C112.916,-38.481 112.912,-37.879 112.909,-37.506C112.974,-36.008 112.68,-33.985 112.738,-31.436L113.519,-26.266L113.519,-26.191L113.411,-18.621L114.035,-9.09L113.61,-7.741C113.681,-7.218 113.679,-6.766 113.677,-6.541L113.9,-4.293L113.897,-3.844L113.89,-3.02C113.963,-2.72 113.962,-2.495 113.962,-2.419L114.008,2.83C114.008,3.299 113.86,3.442 113.661,3.816C113.542,4.041 113.433,4.527 113.242,4.718C112.732,5.226 112.323,5.482 111.575,5.482C111.575,5.482 109.464,5.26 108.918,5.35C108.373,5.443 108.207,5.482 108.207,5.482C107.458,5.482 106.889,5.308 106.379,4.799L106.121,4.563L106.076,4.206L105.892,4.161C105.746,4.015 105.306,3.734 105.202,3.566C104.977,3.175 104.879,2.678 104.879,2.18L104.883,-0.525L104.883,-0.649C104.883,-1.014 105.007,-1.748 105.13,-2.602C105.13,-2.846 105.132,-3.214 105.01,-3.824L105.011,-4.926L105.195,-5.415L105.198,-6.637L104.995,-8.958C105.119,-9.323 105.119,-10.056 105.122,-10.913L105.123,-11.11L104.353,-26.339C104.481,-30.619 104.078,-34.038 104.082,-36.851L103.97,-42.594L103.912,-44.55L104.096,-46.992L104.096,-47.849L104.098,-48.09C104.098,-48.824 104.221,-50.046 104.346,-51.634C104.346,-52.123 104.247,-52.857 104.126,-53.956C104.005,-54.936 104.311,-55.669 104.313,-56.278L104.196,-68.282L104.592,-70.524L104.719,-73.947L104.905,-75.551L104.907,-76.407C104.908,-77.262 105.032,-78.118 105.156,-78.851C105.156,-79.218 105.157,-80.073 105.036,-81.174C105.037,-82.272 104.915,-83.129 104.794,-83.739L104.8,-87.771L104.679,-89.36L104.682,-91.071C104.684,-91.805 104.684,-92.294 104.563,-92.538C104.563,-92.66 104.564,-93.027 104.807,-93.514C104.808,-93.881 104.932,-94.248 104.932,-94.492C104.932,-94.614 104.932,-94.737 104.81,-94.737L104.81,-95.103C104.932,-95.348 105.056,-95.592 105.056,-95.715L105.056,-95.835L104.811,-96.57C104.811,-97.07 104.588,-97.104 104.816,-97.499C104.929,-97.694 105.408,-98.29 105.577,-98.457C106.087,-98.967 106.714,-99.221 107.462,-99.221C107.462,-99.221 107.854,-99.19 108.173,-99.012C108.279,-98.953 110.771,-98.998 111.516,-99.027C113.02,-99.089 113.252,-99.221 113.252,-99.221C115.625,-99.491 116.669,-98.523 117.022,-96.878L118.325,-91.68C119.819,-80.956 121.698,-72.842 122.705,-68.061L123.323,-65.193C123.399,-64.972 123.401,-64.602 123.48,-64.234C123.557,-63.793 123.635,-63.425 123.711,-63.132L123.939,-62.397L124.556,-59.675L128.009,-42.572C128.279,-41.234 128.317,-39.622 128.581,-38.279C128.798,-37.183 129.257,-36.34 129.368,-35.328C129.503,-34.114 129.359,-32.718 129.416,-32.105C129.758,-28.45 130.204,-22.577 130.381,-20.905C130.495,-19.829 130.323,-18.806 130.454,-17.649C130.825,-17.446 131.023,-15.139 131.165,-14.058C131.383,-12.397 131.482,-9.463 131.772,-7.331L131.853,-7.213L132.116,-7.654C131.843,-10.034 132.196,-11.414 131.749,-15.117C131.321,-18.669 131.402,-32.473 131.402,-36.284C131.355,-37.531 131.411,-39.436 131.461,-42.061C131.429,-44.662 131.508,-46.124 131.505,-46.483C131.51,-49.995 131.648,-52.28 131.919,-53.341C131.895,-53.785 131.783,-55.287 131.751,-57.888L131.336,-84.975C131.39,-87.24 130.81,-88.573 130.745,-88.826C130.807,-89.293 130.864,-90.128 130.857,-91.927L130.835,-96.137L130.919,-96.158C130.895,-96.602 130.721,-97.728 130.484,-98.658C130.484,-99.199 130.72,-99.733 130.987,-100.148C131.089,-100.309 131.107,-100.404 131.249,-100.546C131.759,-101.056 132.387,-101.31 133.136,-101.31C133.136,-101.31 133.771,-101.323 133.944,-101.242C134.115,-101.161 136.096,-101.31 136.096,-101.31C136.681,-101.31 137.099,-101.126 137.539,-100.816C137.663,-100.729 137.872,-100.657 137.984,-100.546C138.495,-100.035 138.749,-99.405 138.749,-98.658C138.749,-98.408 138.746,-98.158 138.619,-97.908C138.745,-97.908 138.745,-97.781 138.743,-97.531C138.74,-97.031 138.737,-96.529 138.61,-96.156C138.732,-95.779 138.729,-95.154 138.726,-94.527C138.847,-93.901 138.844,-93.401 138.843,-93.15C138.831,-91.399 139.545,-81.27 139.63,-74.263C139.62,-72.511 139.613,-71.134 139.732,-70.257C139.722,-68.505 139.717,-67.002 139.836,-65.875C139.708,-65.5 139.578,-64.625 139.569,-63.25C139.691,-62.623 139.534,-61.871 139.527,-60.746L139.514,-58.493C139.506,-56.866 139.624,-55.614 139.743,-54.737C139.616,-54.237 139.61,-53.36 139.603,-52.11L139.739,-49.231C139.826,-42.347 139.568,-25.201 139.496,-12.563L139.894,-7.786C140.016,-7.159 140.01,-6.283 140.003,-5.159C139.999,-4.406 139.998,-3.906 139.87,-3.532C139.742,-3.155 139.738,-2.532 139.734,-1.529C139.728,-0.778 139.828,-0.152 139.7,0.222C139.824,0.349 139.824,0.599 139.821,0.972L139.816,1.723C139.689,2.099 139.687,2.349 139.687,2.476L139.686,2.726C139.684,3.099 139.795,3.706 139.668,4.083C139.668,4.83 139.413,5.46 138.903,5.968C138.392,6.477 137.849,6.727 137.101,6.727M276.988,6.409C276.926,5.788 276.383,3.091 275.911,-0.315C275.004,-6.881 273.683,-17.969 273.672,-18.202C273.551,-18.315 273.273,-19.368 272.84,-21.36C270.966,-29.914 269.949,-41.071 267.749,-58.005L265.953,-64.93C265.931,-65.52 265.754,-65.896 265.585,-67.19C265.411,-68.601 265.383,-69.309 265.377,-69.427C265.36,-69.899 265.209,-70.721 265.046,-71.897C264.885,-72.953 264.855,-73.779 264.711,-74.365C264.186,-78.718 263.503,-84.128 262.652,-90.714C262.505,-91.417 262.469,-92.361 262.419,-93.659L262.382,-94.603C262.371,-94.839 262.236,-95.306 262.095,-95.892C261.952,-96.477 261.938,-96.832 261.93,-97.067C261.916,-97.421 261.901,-97.776 262.011,-98.016C261.873,-98.484 261.918,-98.831 261.916,-98.949C261.91,-99.067 261.82,-99.311 261.924,-99.669C261.834,-100.001 261.876,-100.275 261.699,-100.553C261.475,-100.9 261.011,-101.239 260.651,-101.503C260.005,-101.978 259.308,-102.217 258.563,-102.217C258.563,-102.217 256.476,-102.232 255.006,-102.184C254,-102.15 253.444,-102.038 253.393,-102.072C253.272,-102.158 252.654,-102.217 252.654,-102.217C252.421,-102.217 252,-102.149 251.724,-102.054C251.452,-101.957 251.325,-101.833 251.112,-101.74C250.856,-101.628 250.808,-101.681 250.566,-101.503C250.28,-101.125 249.386,-100.292 249.229,-99.825C248.976,-99.047 248.535,-93.471 248.411,-93.007L247.355,-89.758L246.984,-86.074C246.992,-85.922 247.004,-85.77 246.872,-85.457C246.728,-85.294 246.74,-85.143 246.748,-84.991C246.759,-84.839 247.094,-84.543 246.961,-84.229C246.981,-83.926 246.686,-83.614 246.543,-83.452L246.571,-82.997L246.582,-82.845C246.461,-82.38 246.124,-81.606 245.888,-80.523C245.804,-79.451 245.706,-78.681 245.582,-78.216C245.59,-78.065 245.47,-77.598 245.357,-76.983C245.245,-76.364 245.273,-75.909 245.141,-75.596C245.039,-74.826 245.332,-72.835 244.953,-69.305L239.586,-34.761L238.355,-26.278C237.321,-21.029 237.371,-18.115 237.259,-17.497C237.268,-17.345 237.279,-17.193 237.147,-16.879L237.175,-16.423C237.074,-15.654 236.961,-15.038 236.829,-14.723C236.84,-14.572 236.849,-14.42 236.717,-14.108C236.725,-13.956 236.736,-13.802 236.596,-13.642C236.604,-13.49 236.616,-13.338 236.472,-13.175C236.329,-13.015 236.34,-12.863 236.349,-12.711C236.228,-12.245 236.259,-11.79 236.143,-11.172C236.031,-10.557 236.051,-10.253 236.062,-10.101C236.07,-9.95 236.082,-9.798 235.939,-9.635L235.961,-9.331C235.776,-7.488 235.455,-6.409 235.475,-6.106C235.242,-5.027 235.154,-3.869 235.202,-3.11C235.101,-2.341 234.865,-1.259 234.5,0.138C234.275,1.371 234.272,2.45 234.182,3.372C233.963,4.159 234.12,4.864 234.564,5.443C234.736,5.673 234.938,5.853 235.171,5.979L235.371,6.039L235.472,6.106C235.677,6.173 235.899,6.207 236.143,6.207C236.143,6.207 236.411,6.184 236.585,6.114C236.756,6.044 240.12,6.207 240.12,6.207C240.867,6.207 241.665,5.968 242.311,5.493C242.814,5.111 242.682,4.794 242.91,4.246C243.193,3.847 243.663,1.824 244.194,-2.09C244.41,-4.661 244.733,-6.617 244.896,-7.561C245.048,-8.098 245.082,-9.045 245.253,-10.261C245.292,-11.481 245.461,-12.557 245.618,-13.231C245.77,-13.768 245.795,-14.58 245.97,-15.797C246.003,-16.879 246.029,-17.691 246.183,-18.23C246.194,-18.635 246.363,-19.714 246.835,-21.731L247.38,-25.862L249.524,-25.783C251.797,-25.814 253.674,-25.738 255.149,-25.648C255.416,-25.651 255.95,-25.763 256.754,-25.884L258.223,-25.904L259.564,-25.924C259.965,-25.817 260.367,-25.822 260.502,-25.825L262.795,-25.862C262.795,-25.862 263.615,-20.225 263.686,-18.958C263.753,-17.694 264.177,-14.308 264.177,-14.308C264.177,-14.308 264.638,-8.104 264.773,-7.421C264.905,-6.741 265.756,-4.802 265.723,-4.69C265.689,-4.574 266.234,-0.68 266.158,-0.565C266.085,-0.452 266.259,0.323 266.209,0.408L266.234,0.624C266.186,0.689 266.366,1 266.293,1.135C266.22,1.27 266.406,1.495 266.361,1.72C266.318,1.942 266.307,2.211 266.296,2.352C266.276,2.613 266.518,2.816 266.549,2.956C266.628,3.31 267.058,5.906 267.058,5.906C267.237,6.665 268.156,7.767 268.788,8.264C269.111,8.506 269.103,8.691 269.373,8.806C269.572,8.888 270.047,8.927 270.294,8.947C270.376,8.952 270.463,8.958 270.559,8.958L271.011,8.989C271.036,8.955 272.239,8.893 273.191,8.896C274.242,8.896 275.052,8.958 275.052,8.958C275.731,8.958 276.257,8.702 276.63,8.194C277.004,7.685 277.122,7.089 276.988,6.409M256.9,-33.822C255.158,-33.833 253.851,-33.583 252.961,-33.589C252.202,-33.592 251.747,-33.85 251.586,-33.898L248.47,-33.808C248.532,-34.392 248.704,-34.991 248.658,-35.449L249.01,-38.014L249.347,-40.481L250.207,-45.904C250.345,-46.843 250.589,-47.91 251.039,-49.234C251.005,-49.577 250.822,-50.102 250.856,-50.917C250.996,-51.861 251.041,-52.562 250.999,-53.02C251.078,-53.377 251.409,-53.862 251.379,-54.207C251.561,-54.689 251.516,-55.15 251.691,-55.746C251.632,-56.322 251.806,-56.794 251.887,-57.148L252.14,-59.15L252.191,-61.182C252.351,-61.894 252.694,-61.676 252.637,-62.251C252.615,-62.48 252.581,-62.825 252.767,-63.307C253.121,-65.822 253.646,-69.066 253.826,-70.847C253.893,-71.512 253.669,-70.78 253.725,-71.456C253.826,-72.74 254.523,-77.612 254.599,-79.246C254.795,-81.705 255.048,-89.578 255.076,-91.01L255.492,-91.01C255.515,-90.36 255.63,-88.672 255.737,-86.43C255.754,-86.056 255.54,-85.328 255.557,-84.947C255.59,-84.27 255.79,-83.919 255.824,-83.271C255.9,-81.722 255.804,-80.02 255.852,-79.246L256.091,-76.447C256.206,-74.672 256.669,-70.96 256.776,-69.525C256.953,-67.19 257.128,-65.19 257.673,-61.616C257.673,-61.616 257.689,-61.535 257.653,-61.434C257.602,-61.304 257.501,-61.123 257.563,-60.863C257.962,-59.222 258.639,-56.221 259.075,-53.092C259.477,-50.198 259.637,-46.947 260.036,-44.441C260.263,-43.024 260.631,-41.926 260.797,-40.998C260.969,-40.054 260.831,-39.686 260.921,-39.506C261.196,-38.958 261.047,-38.59 261.176,-37.466C261.323,-36.154 261.716,-33.808 261.716,-33.808L256.9,-33.822ZM198.612,-31.012C197.859,-31.366 197.349,-32.01 197.07,-32.754C197.07,-32.754 196.842,-32.996 196.758,-33.437C196.661,-33.943 196.696,-34.693 196.518,-35.359C196.329,-36.059 196.015,-36.935 195.894,-37.548C195.744,-38.309 195.796,-38.72 195.7,-38.795C195.393,-39.045 191.793,-59.182 191.793,-59.182C191.682,-59.663 191.685,-61.374 191.585,-61.845C191.231,-63.529 190.828,-63.949 190.499,-65.79C190.034,-68.4 189.171,-71.318 188.927,-73.434C188.743,-74.379 188.776,-75.855 188.517,-77.896C188.146,-80.787 187.483,-84.398 187.355,-85.639C187.244,-86.712 187.72,-86.338 187.377,-87.707C186.98,-89.3 186.893,-92.638 186.863,-92.94L186.343,-92.94C186.411,-91.378 186.581,-89.746 186.718,-85.911C186.853,-82.074 186.922,-78.661 186.922,-73.434L186.696,-68.699L186.706,-66.87L186.711,-65.842C186.602,-64.812 186.609,-63.668 186.616,-62.411C186.623,-61.038 186.631,-59.552 186.755,-57.952L186.697,-51.808C186.701,-51.007 186.79,-51.434 186.914,-49.835L187.24,-46.059L187.259,-42.628C187.154,-41.029 187.159,-39.886 187.164,-39.197C187.182,-35.884 187.911,-30.964 187.946,-24.448C187.754,-17.814 188.004,1.644 188.02,4.389C188.02,5.139 187.573,5.898 187.064,6.28C186.487,6.713 186.114,7.042 185.367,7.042C185.367,7.042 182.643,6.983 182.533,7.042C182.423,7.101 181.999,7.042 181.999,7.042C181.249,7.042 180.929,7.101 180.419,6.589C180.174,6.345 179.68,5.76 179.553,5.462C179.421,5.215 179.396,4.934 179.386,4.558L179.362,3.552L179.344,2.802L179.81,1.043C179.789,0.166 179.226,-16.266 179.025,-19.402L179.026,-27.18C179.015,-27.683 178.588,-28.433 178.438,-29.433L178.381,-31.692L178.351,-32.948C178.317,-34.328 178.286,-35.584 178.14,-36.458C178.244,-37.337 178.33,-38.972 178.273,-41.229C178.12,-42.358 178.081,-43.988 178.029,-46.121C178.116,-47.63 177.755,-49.886 177.68,-52.898L178.309,-56.274C178.311,-61.294 177.738,-64.584 177.699,-66.215C177.772,-68.351 177.675,-71.38 177.699,-75.523C177.723,-79.666 177.929,-83.281 177.977,-86.42C178.029,-89.435 177.901,-92.32 178.088,-94.962C178.085,-95.087 177.86,-95.473 177.973,-95.977C178.087,-96.482 178.203,-96.861 178.199,-96.986C178.321,-97.115 178.316,-97.367 178.309,-97.617L178.297,-98.118L178.287,-98.495L178.262,-99.613C178.262,-100.359 178.518,-100.989 179.026,-101.499C179.538,-102.009 180.162,-102.261 180.912,-102.261C180.912,-102.261 180.978,-102.138 181.076,-102.077C181.174,-102.019 189.443,-102.261 189.443,-102.261C190.19,-102.261 190.887,-102.023 191.534,-101.548C192.18,-101.07 192.339,-101.296 192.612,-100.549C192.612,-100.549 194.249,-95.809 194.129,-95.549C193.921,-95.095 195.766,-86.758 196.043,-86.004C196.009,-85.689 197.458,-76.117 197.713,-76.008C198.081,-75.85 198.452,-71.799 198.452,-71.695C198.455,-71.245 199.155,-68.524 199.424,-67.22C199.515,-66.781 199.41,-66.567 199.41,-66.567C200.071,-62.936 201.588,-55.19 201.611,-52.375C201.951,-50.428 202.133,-48.644 202.147,-47.436C202.161,-46.295 202.015,-45.719 202.049,-44.348C202.113,-41.659 202.187,-41.189 202.226,-39.127L202.555,-39.127C202.572,-41.167 202.594,-41.914 202.659,-44.348C202.726,-46.961 202.715,-47.276 202.816,-47.93C202.872,-50.538 204.991,-62.328 205.78,-66.305C205.78,-66.305 205.814,-67.856 206.089,-68.09C206.123,-68.118 206.118,-68.517 206.269,-69.281C206.028,-69.586 208.537,-82.882 208.402,-83.367C208.312,-83.673 210.36,-91.685 210.973,-94.918C211.187,-96.042 211.417,-96.709 211.535,-97.337C211.647,-97.948 211.552,-98.138 211.552,-98.138C211.785,-98.898 212.538,-99.99 213.184,-100.466C213.831,-100.942 214.227,-100.688 214.977,-100.688C214.977,-100.688 216.357,-100.931 216.882,-100.758C217.405,-100.587 224.171,-100.688 224.171,-100.688C224.918,-100.688 225.977,-100.125 226.486,-99.615C226.997,-99.105 226.823,-98.783 226.823,-98.035L226.812,-97.294L226.863,-92.681C227.012,-91.984 227.023,-91.005 227.034,-89.748C227.186,-88.492 227.2,-87.514 227.203,-87.094C227.076,-86.115 226.927,-86.811 226.944,-85.273L227.104,-84.551L227.034,-78.26L227.096,-72.39L227.158,-66.659L227.464,-64.004C227.616,-62.748 227.175,-62.012 227.177,-61.451C227.062,-59.354 226.846,-57.853 226.857,-57.015L226.868,-56.035C226.739,-54.915 226.759,-53.238 226.781,-51.001C226.683,-47.228 226.568,-42.336 226.635,-36.047L227.183,-23.321C227.183,-23.041 227.191,-22.344 227.062,-21.363C227.073,-20.385 226.88,-20.057 226.742,-19.635L226.77,-4.513L226.787,-3.116L226.792,-2.554L226.806,-1.298C226.955,-0.598 226.958,-0.18 226.961,0.098C226.835,1.219 226.708,1.908 226.714,2.324C226.714,3.074 226.458,3.703 225.947,4.212C225.438,4.723 224.809,4.979 224.058,4.979C224.058,4.979 222.816,4.943 221.858,4.943C221.403,4.945 220.858,4.988 220.83,4.982C220.749,4.962 220.776,4.903 220.684,4.884C220.588,4.864 219.979,4.979 219.979,4.979C219.228,4.979 218.602,4.723 218.09,4.212C217.916,4.038 217.773,3.852 217.657,3.65C217.304,3.65 217.776,1.658 217.792,-2.326L217.753,-22.437C217.753,-22.878 217.759,-23.676 217.849,-24.651L217.86,-27.042L218.028,-28.017C218.031,-28.815 217.652,-30.318 217.75,-32.445C217.666,-33.684 217.677,-35.309 217.689,-38.144C217.444,-43.55 217.843,-49.838 217.781,-56.837L217.902,-60.912L218.028,-62.152C218.034,-63.393 217.871,-64.366 217.961,-65.075C217.874,-65.342 217.877,-65.873 217.88,-66.492C217.882,-66.848 217.882,-67.379 217.975,-67.998L217.978,-69.416C217.981,-69.858 217.655,-69.999 217.745,-70.972C217.75,-71.948 217.593,-73.085 217.579,-73.536C217.579,-79.51 217.525,-81.647 217.697,-85.213C217.812,-87.675 218.045,-89.086 218.13,-90.148C218.166,-90.623 218.529,-91.421 218.551,-91.821L217.849,-91.427C217.809,-91.126 217.433,-89.135 217.261,-87.656C217.101,-86.245 217.149,-85.369 216.997,-84.173C216.742,-82.189 215.837,-76.824 215.404,-74.656C215.23,-73.171 215.41,-75.439 215.008,-72.99C214.682,-71.012 214.423,-69.628 213.937,-66.738C213.727,-65.486 213.05,-62.843 212.83,-61.707C212.659,-60.809 212.954,-61.42 212.729,-60.448C212.729,-60.448 210.158,-48.371 210.22,-47.714C210.282,-47.056 207.593,-33.465 207.593,-33.465C207.486,-32.634 206.969,-32.032 206.323,-31.518C205.674,-30.998 204.94,-30.745 204.195,-30.7C204.195,-30.7 202.257,-30.712 201.832,-30.551C201.408,-30.391 200.841,-30.49 200.841,-30.49C200.093,-30.442 199.36,-30.619 198.612,-31.012" style="fill:white;fill-rule:nonzero;"/>
                </g>
            </g>
        </g>
    </g>
</svg>
