<?xml version="1.0" encoding="UTF-8"?>
<svg width="24" height="24" viewBox="0 0 102 49" fill="none" xmlns="http://www.w3.org/2000/svg" font-size="24" data-testid="boss-logo" class="icon Logo_icon__RsiSX"><rect width="102" height="48" transform="translate(0 0.756836)" fill="#CB3178"></rect><path d="M12.0085 10.715C11.9818 10.5557 11.9282 10.4054 11.8502 10.2685C11.7699 10.1317 11.6517 10.0128 11.4911 9.91407C11.3306 9.81536 11.1254 9.74133 10.8734 9.68748C10.6214 9.63364 10.3136 9.60672 9.95012 9.60672C9.41936 9.60672 9.01124 9.68524 8.73025 9.84004C8.44702 9.99483 8.30653 10.2304 8.30653 10.54C8.30653 10.8496 8.54069 11.047 9.00901 11.1278C9.20303 11.1636 9.48626 11.2108 9.85869 11.2668C10.2311 11.3252 10.6214 11.388 11.034 11.453C11.4443 11.5204 11.8457 11.5832 12.2338 11.6393C12.624 11.6976 12.9318 11.7447 13.1637 11.7783C13.6053 11.8591 14.0023 11.9645 14.3524 12.0991C14.7025 12.2315 14.9991 12.4065 15.2422 12.6196C15.4853 12.8327 15.6704 13.093 15.7997 13.4003C15.9268 13.7077 15.9915 14.0711 15.9915 14.4884C15.9915 15.0223 15.8867 15.4755 15.6793 15.8501C15.4719 16.2248 15.1998 16.5299 14.8631 16.7722C14.5263 17.0122 14.1539 17.1984 13.7413 17.333C13.331 17.4654 12.9229 17.5619 12.5215 17.6202C12.1178 17.6785 11.7387 17.7144 11.3796 17.7279C11.0206 17.7413 10.7351 17.7481 10.5233 17.7481C9.71819 17.7481 8.97779 17.7032 8.29984 17.6157C7.62411 17.526 7.03313 17.3644 6.52912 17.1289C6.02511 16.8933 5.62146 16.5658 5.32262 16.1485C5.02156 15.7312 4.84984 15.1883 4.80524 14.5198H8.54515C8.56299 14.697 8.60759 14.8608 8.67896 15.0066C8.75032 15.1524 8.86406 15.2781 9.02462 15.3813C9.18519 15.4845 9.39705 15.5607 9.66244 15.6146C9.92782 15.6684 10.2646 15.6953 10.6705 15.6953C10.8645 15.6953 11.063 15.6819 11.2614 15.655C11.4599 15.628 11.6406 15.5764 11.7989 15.5024C11.9572 15.4261 12.0866 15.3252 12.1847 15.1951C12.2828 15.0649 12.3297 14.8989 12.3297 14.6948C12.3297 14.4458 12.2159 14.264 11.9907 14.1474C11.7654 14.0307 11.3774 13.9298 10.8288 13.84L7.67094 13.3599C6.69861 13.2186 6.00281 12.9113 5.58801 12.4379C5.17321 11.9668 4.96358 11.3745 4.96358 10.6634C4.96358 10.3515 5.02602 10.0173 5.14868 9.66281C5.27356 9.30611 5.51218 8.98081 5.86454 8.68244C6.21913 8.38406 6.71868 8.13505 7.36318 7.93538C8.00992 7.73572 8.84844 7.63477 9.88545 7.63477C10.744 7.63477 11.5157 7.69085 12.2003 7.80078C12.885 7.91295 13.4693 8.09018 13.951 8.33471C14.4327 8.57924 14.814 8.8978 15.0928 9.28816C15.3715 9.68075 15.5366 10.1564 15.5901 10.7172H12.0063L12.0085 10.715Z" fill="white"></path><path d="M17.2491 7.92627H25.0902C25.6656 7.92627 26.1294 8.00703 26.484 8.16631C26.8386 8.3256 27.1107 8.52526 27.3002 8.76082C27.4898 8.99638 27.6191 9.25212 27.686 9.52806C27.753 9.804 27.7864 10.053 27.7864 10.2751C27.7864 10.7193 27.6749 11.1209 27.4541 11.4753C27.2333 11.832 26.9546 12.0721 26.6178 12.1955V12.2224C27.1218 12.3391 27.5232 12.597 27.8176 12.9964C28.1142 13.3979 28.2614 13.9364 28.2614 14.6116C28.2614 14.8965 28.219 15.2039 28.1343 15.5337C28.0496 15.8635 27.8845 16.1708 27.637 16.4557C27.3894 16.7406 27.0393 16.9784 26.5888 17.1691C26.1383 17.3598 25.5496 17.4563 24.8248 17.4563H17.2491V7.92627ZM20.4069 11.5965H23.5514C23.8882 11.5965 24.1335 11.5157 24.2873 11.3564C24.4412 11.1972 24.5193 11.0042 24.5193 10.7821C24.5193 10.56 24.4412 10.3806 24.2873 10.2213C24.1335 10.062 23.8882 9.98123 23.5514 9.98123H20.4069V11.5965ZM23.8034 15.4013C24.1402 15.4013 24.41 15.3138 24.6129 15.1411C24.8159 14.9683 24.9185 14.726 24.9185 14.4142C24.9185 14.1024 24.8159 13.8668 24.6129 13.7075C24.41 13.5483 24.1402 13.4675 23.8034 13.4675H20.4069V15.4036H23.8034V15.4013Z" fill="white"></path><path d="M29.6285 12.5591H34.392V14.614H29.6285V12.5591Z" fill="white"></path><path d="M36.1588 7.92627H40.7773L42.9405 14.2123H42.9673L45.1305 7.92627H49.7491V17.4563H46.7764V10.329H46.7496L44.2541 17.4563H41.6538L39.1583 10.329H39.1315V17.4563H36.1588V7.92627Z" fill="white"></path><path d="M51.1654 12.6915C51.1654 11.7044 51.3282 10.8856 51.656 10.235C51.9839 9.58437 52.4299 9.06615 52.9963 8.68028C53.5628 8.29217 54.2162 8.02072 54.9611 7.86592C55.7037 7.71113 56.4954 7.63261 57.3361 7.63261C58.1769 7.63261 58.9574 7.71113 59.7045 7.86592C60.4516 8.02072 61.1095 8.29217 61.6737 8.68028C62.238 9.06839 62.6862 9.58662 63.014 10.235C63.3419 10.8856 63.5047 11.7022 63.5047 12.6915C63.5047 13.6808 63.3396 14.4974 63.014 15.148C62.6862 15.7986 62.2402 16.3168 61.6737 16.7027C61.1073 17.0886 60.4516 17.3623 59.7045 17.5171C58.9574 17.6719 58.168 17.7504 57.3361 17.7504C56.5043 17.7504 55.7037 17.6719 54.9611 17.5171C54.2184 17.3623 53.5628 17.0908 52.9963 16.7027C52.4299 16.3146 51.9839 15.7964 51.656 15.148C51.3282 14.4997 51.1654 13.6808 51.1654 12.6915ZM53.8862 5.25684H56.6983V6.96631H53.8862V5.25684ZM54.5106 12.6915C54.5106 13.1895 54.5797 13.6248 54.7158 13.9927C54.8518 14.3628 55.0458 14.6657 55.2934 14.908C55.5409 15.148 55.8375 15.3253 56.1832 15.4419C56.5288 15.5586 56.9124 15.6147 57.3384 15.6147C57.7643 15.6147 58.1501 15.5563 58.5003 15.4419C58.8504 15.3253 59.147 15.148 59.3901 14.908C59.6332 14.6679 59.8227 14.3628 59.961 13.9927C60.0993 13.6225 60.1662 13.1895 60.1662 12.6915C60.1662 11.6954 59.9075 10.9596 59.3901 10.4817C58.8727 10.0061 58.1903 9.76833 57.3406 9.76833C56.9169 9.76833 56.5311 9.8289 56.1854 9.94781C55.8397 10.0667 55.5431 10.2484 55.2956 10.4885C55.048 10.7285 54.8563 11.0336 54.718 11.4038C54.5797 11.7739 54.5128 12.2024 54.5128 12.6915H54.5106ZM57.9472 5.25684H60.7594V6.96631H57.9472V5.25684Z" fill="white"></path><path d="M64.9246 7.92627H72.7657C73.3411 7.92627 73.805 8.00703 74.1596 8.16631C74.5141 8.3256 74.7862 8.52526 74.9758 8.76082C75.1653 8.99638 75.2947 9.25212 75.3616 9.52806C75.4285 9.804 75.4619 10.053 75.4619 10.2751C75.4619 10.7193 75.3504 11.1209 75.1297 11.4753C74.9089 11.832 74.6301 12.0721 74.2934 12.1955V12.2224C74.7974 12.3391 75.1988 12.597 75.4932 12.9964C75.7898 13.3979 75.937 13.9364 75.937 14.6116C75.937 14.8965 75.8946 15.2039 75.8098 15.5337C75.7251 15.8635 75.5601 16.1708 75.3125 16.4557C75.065 16.7406 74.7149 16.9784 74.2644 17.1691C73.8139 17.3598 73.2251 17.4563 72.5003 17.4563H64.9246V7.92627ZM68.0825 11.5965H71.2269C71.5637 11.5965 71.809 11.5157 71.9629 11.3564C72.1168 11.1972 72.1948 11.0042 72.1948 10.7821C72.1948 10.56 72.1168 10.3806 71.9629 10.2213C71.809 10.062 71.5637 9.98123 71.2269 9.98123H68.0825V11.5965ZM71.4789 15.4013C71.8157 15.4013 72.0855 15.3138 72.2885 15.1411C72.4914 14.9683 72.594 14.726 72.594 14.4142C72.594 14.1024 72.4914 13.8668 72.2885 13.7075C72.0855 13.5483 71.8157 13.4675 71.4789 13.4675H68.0825V15.4036H71.4789V15.4013Z" fill="white"></path><path d="M77.4512 7.92627H86.9382V9.98123H80.6091V11.7042H86.5412V13.6806H80.6091V15.4036H86.9382V17.4585H77.4512V7.92627Z" fill="white"></path><path d="M88.2654 7.92627H91.4233V15.242H97.1948V17.4585H88.2654V7.92627Z" fill="white"></path><path d="M18.5433 36.5087C18.5433 38.224 17.6274 38.8675 15.229 38.8675H14.9132V33.9347H15.6388C17.8155 33.9347 18.5433 35.0065 18.5433 36.5087ZM18.2902 27.8694C18.2902 29.4933 17.437 30.1064 15.1663 30.1064H14.9132V25.665H15.5447C17.6587 25.665 18.2902 26.615 18.2902 27.8716M25.2637 32.3434C27.6308 31.026 28.325 29.3107 28.325 27.4411C28.325 24.8063 26.8089 21.0692 19.2039 21.0692H4.5V43.8915H20.9103C26.4013 43.8915 28.9587 41.1045 28.9587 37.5805C28.9587 35.6196 28.2331 33.8739 25.2659 32.3412M45.6042 32.4782C45.6042 34.4956 43.8731 36.1326 41.739 36.1326C39.6048 36.1326 37.8738 34.4956 37.8738 32.4782C37.8738 30.4607 39.6048 28.8238 41.739 28.8238C43.8731 28.8238 45.6042 30.4586 45.6042 32.4782ZM53.7936 32.463C53.7936 25.8759 48.4908 20.6997 41.739 20.6997C34.9872 20.6997 29.6843 25.878 29.6843 32.463C29.6843 39.0479 34.9872 44.2567 41.739 44.2567C48.4908 44.2567 53.7936 39.0783 53.7936 32.463ZM65.4072 27.4389C65.4072 26.6433 65.976 26.0911 67.2368 26.0911C67.4137 26.0911 67.5906 26.102 67.7653 26.1193C68.876 26.1911 71.9865 26.5672 73.4085 28.502L75.6636 22.2301C73.1712 21.3105 69.4471 20.6975 66.2604 20.6975C58.8435 20.6975 54.994 23.3019 54.994 28.3564C54.994 35.2804 64.2091 34.5456 64.2091 37.2718C64.2091 38.0066 63.4522 38.5588 62.4736 38.5588C62.2743 38.5588 62.0705 38.5414 61.8644 38.5131C60.7268 38.4327 57.5961 38.037 56.1697 36.1087L54.0154 42.5415C57.361 43.798 60.8634 44.2567 64.7757 44.2567C72.412 44.2567 76.0734 41.5001 76.0734 36.75C76.0734 34.9739 75.5046 33.5326 74.432 32.4912C71.7805 29.9173 65.4072 29.0912 65.4072 27.4368M94.9157 28.2781L97.0902 22.228C94.5977 21.3084 90.8736 20.6953 87.6847 20.6953C80.2678 20.6953 76.4183 23.2997 76.4183 28.3542C76.4183 35.2782 85.6334 34.5434 85.6334 37.2696C85.6334 38.0044 84.8765 38.5566 83.8979 38.5566C83.5844 38.5566 83.2641 38.5196 82.9394 38.4544C81.4704 38.2783 78.8234 37.7044 77.6813 35.8543L75.4419 42.5393C78.7876 43.7958 82.29 44.2545 86.2022 44.2545C93.8386 44.2545 97.5 41.498 97.5 36.7478C97.5 34.9717 96.9312 33.5304 95.8585 32.4891C93.2071 29.9151 86.8337 29.089 86.8337 27.4346C86.8337 26.6389 87.4025 26.0867 88.6633 26.0867C88.7887 26.0867 88.9141 26.0911 89.0396 26.0998V26.0954C89.0396 26.0954 93.0705 26.1172 94.9135 28.2737" fill="white"></path></svg>