<?xml version="1.0" encoding="UTF-8"?>
<svg id="Ebene_1" data-name="Ebene 1" xmlns="http://www.w3.org/2000/svg" xmlns:xlink="http://www.w3.org/1999/xlink" viewBox="0 0 364.45 364.45">
  <defs>
    <style>
      .cls-1 {
        fill: none;
      }

      .cls-2 {
        fill: #1a1a18;
      }

      .cls-3 {
        fill: #fff;
      }

      .cls-4 {
        fill: #d2041c;
      }

      .cls-5 {
        clip-path: url(#clippath);
      }
    </style>
    <clipPath id="clippath">
      <rect class="cls-1" width="364.45" height="364.45"/>
    </clipPath>
  </defs>
  <g class="cls-5">
    <path class="cls-3" d="M323.96,182.23c0,78.28-63.45,141.73-141.73,141.73S40.49,260.5,40.49,182.23,103.95,40.5,182.23,40.5s141.73,63.46,141.73,141.73"/>
    <path class="cls-4" d="M45.22,182.23c0-75.67,61.34-137.01,137.01-137.01s137.01,61.34,137.01,137.01H45.22Z"/>
    <path class="cls-2" d="M45.22,182.23c0,75.67,61.34,137.01,137.01,137.01s137.01-61.34,137.01-137.01H45.22Z"/>
    <path class="cls-3" d="M266.64,136.5v32.51c0,.41.41.82.82.82h7.68c.41,0,.82-.41.82-.82v-32.51h14.82c.41,0,.96-.55.96-.96v-5.89c0-.41-.55-.96-.96-.96h-38.95c-.41,0-.96.55-.96.96v5.89c0,.41.55.96.96.96h14.82ZM230.96,136.5c5.15,0,8.44,2.54,8.44,6.59s-3.29,6.45-8.44,6.45h-9.95v-13.04h9.95ZM211.69,169.01c0,.41.41.82.82.82h7.68c.41,0,.82-.41.82-.82v-12.07h8.85l8.37,12.21c.27.41.76.69,1.1.69h9.11c.41,0,.55-.21.55-.48,0-.14-.07-.41-.41-.89l-6.92-10.15c-.96-1.44-2.19-2.74-2.19-2.74v-.14c5.48-1.92,9.25-6.1,9.25-12.34,0-8.99-7.13-14.4-17.14-14.4h-19.07c-.41,0-.82.41-.82.82v39.5ZM181.37,135.81c7.27,0,13.38,5.15,13.38,13.45s-6.11,13.45-13.38,13.45-13.38-5.15-13.38-13.45,6.11-13.45,13.38-13.45M181.37,128c-12.35,0-22.7,8.57-22.7,21.26s10.35,21.26,22.7,21.26,22.7-8.36,22.7-21.26-10.35-21.26-22.7-21.26M136.3,136.5c5.08,0,8.51,2.88,8.51,7.62s-3.09,7.76-8.51,7.76h-8.3v-15.37h8.3ZM127.18,169.83c.41,0,.82-.41.82-.82v-9.74h9.06c9.67,0,17.08-5.62,17.08-15.15s-7.13-15.43-17.08-15.43h-17.56c-.41,0-.82.41-.82.82v39.5c0,.41.41.82.82.82h7.67ZM74.02,155.98c-.75,0-1.3.55-1.3,1.24v.55c0,6.79,6.92,12.75,19.48,12.75,13.31,0,18.86-7.19,18.86-13.65,0-5.7-3.77-10.49-13.37-11.31l-10.64-.89c-3.78-.27-5.01-1.65-5.01-3.5,0-3.02,3.23-5.36,8.99-5.36s8.37,2.33,8.78,4.74c.14.82.55,1.03,1.24,1.03h6.79c.82,0,1.3-.55,1.3-1.17,0-6.59-5.48-12.41-18.04-12.41s-18.38,6.58-18.38,13.71c0,6.17,4.45,10.01,12.82,10.7l10.71.89c4.12.34,5.49,2.06,5.49,3.98,0,2.95-2.95,5.42-9.54,5.42s-9.47-2.2-10.16-5.7c-.14-.69-.55-1.03-1.37-1.03h-6.65Z"/>
    <path class="cls-3" d="M236.65,217.05c0-8.1,3.16-13.45,8.99-13.45s8.99,5.35,8.99,13.45-3.16,13.45-8.99,13.45-8.99-5.35-8.99-13.45M227.33,217.05c0,12.56,6.85,21.26,18.31,21.26s18.31-8.7,18.31-21.26-6.85-21.26-18.31-21.26-18.31,8.7-18.31,21.26M194.12,217.05c0-8.1,3.16-13.45,8.99-13.45s8.99,5.35,8.99,13.45-3.16,13.45-8.99,13.45-8.99-5.35-8.99-13.45M184.8,217.05c0,12.56,6.85,21.26,18.31,21.26s18.31-8.7,18.31-21.26-6.85-21.26-18.31-21.26-18.31,8.7-18.31,21.26M151.6,217.05c0-8.1,3.16-13.45,8.99-13.45s8.99,5.35,8.99,13.45-3.16,13.45-8.99,13.45-8.99-5.35-8.99-13.45M142.28,217.05c0,12.56,6.85,21.26,18.31,21.26s18.31-8.7,18.31-21.26-6.85-21.26-18.31-21.26-18.31,8.7-18.31,21.26M100.5,237.63h34.49c.41,0,.96-.55.96-.96v-5.89c0-.41-.55-.96-.96-.96h-17.35v-.27s1.85-.82,2.61-1.3l5.49-3.71c6.51-4.39,9.6-8.71,9.6-14.34,0-7.27-5.62-14.4-17.01-14.4-12.21,0-17.14,7.4-17.14,16.32,0,.48.41.96,1.17.96h7.06c.68,0,1.1-.34,1.1-1.3,0-5.08,2.33-8.17,7.82-8.17,4.94,0,7.69,2.81,7.69,6.59,0,3.57-1.92,6.04-6.04,8.78l-19.48,13.1v5.55Z"/>
  </g>
</svg>