<?xml version="1.0" encoding="UTF-8" standalone="no"?>
<!-- Created with Inkscape (http://www.inkscape.org/) -->

<svg
   xmlns:dc="http://purl.org/dc/elements/1.1/"
   xmlns:cc="http://creativecommons.org/ns#"
   xmlns:rdf="http://www.w3.org/1999/02/22-rdf-syntax-ns#"
   xmlns:svg="http://www.w3.org/2000/svg"
   xmlns="http://www.w3.org/2000/svg"
   xmlns:sodipodi="http://sodipodi.sourceforge.net/DTD/sodipodi-0.dtd"
   xmlns:inkscape="http://www.inkscape.org/namespaces/inkscape"
   id="svg3336"
   version="1.1"
   inkscape:version="0.91 r13725"
   width="759"
   height="990"
   viewBox="0 0 759 990"
   sodipodi:docname="Spreadshirt logo.svg">
  <metadata
     id="metadata3342">
    <rdf:RDF>
      <cc:Work
         rdf:about="">
        <dc:format>image/svg+xml</dc:format>
        <dc:type
           rdf:resource="http://purl.org/dc/dcmitype/StillImage" />
        <dc:title></dc:title>
      </cc:Work>
    </rdf:RDF>
  </metadata>
  <defs
     id="defs3340" />
  <sodipodi:namedview
     pagecolor="#ffffff"
     bordercolor="#666666"
     borderopacity="1"
     objecttolerance="10"
     gridtolerance="10"
     guidetolerance="10"
     inkscape:pageopacity="0"
     inkscape:pageshadow="2"
     inkscape:window-width="1920"
     inkscape:window-height="1058"
     id="namedview3338"
     showgrid="false"
     fit-margin-top="0"
     fit-margin-left="0"
     fit-margin-right="0"
     fit-margin-bottom="0"
     inkscape:zoom="0.45757576"
     inkscape:cx="1366.681"
     inkscape:cy="313.0773"
     inkscape:window-x="1592"
     inkscape:window-y="-8"
     inkscape:window-maximized="1"
     inkscape:current-layer="svg3336" />
  <rect
     style="color:#000000;clip-rule:nonzero;display:inline;overflow:visible;visibility:visible;opacity:1;isolation:auto;mix-blend-mode:normal;color-interpolation:sRGB;color-interpolation-filters:linearRGB;solid-color:#000000;solid-opacity:1;fill:#00b2a5;fill-opacity:1;fill-rule:nonzero;stroke:none;stroke-width:0.5;stroke-linecap:butt;stroke-linejoin:miter;stroke-miterlimit:4;stroke-dasharray:none;stroke-dashoffset:0;stroke-opacity:1;color-rendering:auto;image-rendering:auto;shape-rendering:auto;text-rendering:auto;enable-background:accumulate"
     id="rect4163"
     width="759"
     height="990"
     x="0"
     y="0" />
  <path
     style="color:#000000;clip-rule:nonzero;display:inline;overflow:visible;visibility:visible;opacity:1;isolation:auto;mix-blend-mode:normal;color-interpolation:sRGB;color-interpolation-filters:linearRGB;solid-color:#000000;solid-opacity:1;fill:#ffffff;fill-opacity:1;fill-rule:nonzero;stroke:none;stroke-width:0.5;stroke-linecap:butt;stroke-linejoin:miter;stroke-miterlimit:4;stroke-dasharray:none;stroke-dashoffset:0;stroke-opacity:1;color-rendering:auto;image-rendering:auto;shape-rendering:auto;text-rendering:auto;enable-background:accumulate"
     d="m 667.19922,494.40039 0,49.94922 -4.04883,-4.0957 c -2.2275,-2.25278 -3.97547,-4.33106 -3.88477,-4.61914 0.0907,-0.28807 -0.0713,-0.37923 -0.35937,-0.20118 -0.28806,0.17805 -2.27446,-0.60409 -4.41406,-1.74023 -5.60634,-2.97696 -10.48492,-4.09849 -17.89258,-4.11133 -7.49154,-0.013 -11.2605,0.7946 -17.69922,3.79492 -12.62694,5.88391 -20.94025,18.27076 -23.98633,35.73828 -1.8213,10.44415 -0.98506,26.83358 1.88282,36.88477 4.55853,15.97662 15.99307,27.88801 30.53124,31.80469 5.36484,1.44534 16.49175,1.58792 21.59571,0.27734 7.25334,-1.86258 13.07294,-5.70074 17.16992,-11.32226 l 1.70703,-2.33985 0,6.08985 0,6.08984 27,0 0,-142.19922 z m -563.46289,34.21094 c -0.0758,0.001 -0.26316,0.12032 -0.57031,0.35742 -0.8049,0.62173 -7.40753,1.56365 -11.765629,1.67969 -1.045,0.0278 -1.785585,0.16555 -1.646485,0.30468 0.1392,0.13914 -1.571581,0.83543 -3.800781,1.54883 -14.704,4.70604 -21.753906,13.53116 -21.753906,27.23438 0,2.86591 0.430478,6.82028 0.955078,8.78711 0.5246,1.96684 1.01399,3.92365 1.087891,4.34765 0.164698,0.9439 3.665424,5.24483 5.890624,7.23633 0.8984,0.80396 1.518254,1.64831 1.376954,1.87696 -0.1413,0.22864 0.0691,0.42506 0.466796,0.4375 1.2665,0.0396 7.602997,4.19651 7.154297,4.69335 -0.2369,0.26229 -0.09926,0.28599 0.306641,0.0527 0.4057,-0.23317 1.350309,-0.0857 2.099609,0.32617 0.7493,0.41189 1.632891,0.80756 1.962891,0.88086 0.33,0.0733 2.799128,0.9505 5.486328,1.94922 2.6872,0.99872 9.437202,2.92506 15.000002,4.2793 5.5628,1.35423 10.51867,2.62166 11.01367,2.81836 0.495,0.19668 1.38216,0.45302 1.97266,0.56835 2.1292,0.41589 5.70831,2.59375 7.22851,4.40039 1.744,2.07259 2.53233,5.19827 1.92383,7.62305 -0.5538,2.2065 -4.39051,5.76157 -5.81641,5.38867 -0.6101,-0.15954 -0.97098,-0.0645 -0.80078,0.21094 0.7089,1.14702 -8.42903,2.62631 -13.74023,2.22461 -4.8909,-0.3699 -9.49138,-1.55363 -9.01758,-2.32031 0.1714,-0.27726 -0.06665,-0.35783 -0.53125,-0.17969 -1.3172,0.50544 -5.878128,-3.35478 -7.423828,-6.2832 -0.7676,-1.4544 -1.394531,-3.54534 -1.394531,-4.64844 l 0,-2.00586 -14.728516,0 -14.726563,0 0.300782,1.94922 c 0.1655,1.0725 0.469028,3.30117 0.673828,4.95117 0.6526,5.25528 4.103412,11.44842 9.195312,16.5 2.354345,3.79028 5.10227,4.76555 8.558594,6.59961 1.774,0.9777 5.339728,2.48646 7.923828,3.35352 8.1312,2.72844 12.250449,3.2242 25.001954,3.00586 10.2544,-0.17562 12.42177,-0.39157 17.54297,-1.74415 13.3959,-3.53795 22.52417,-11.11179 25.67187,-21.30273 1.3424,-4.34628 1.61153,-14.10027 0.51563,-18.71289 -0.3529,-1.485 -0.69166,-2.97824 -0.75196,-3.31836 -0.06,-0.34012 -0.83043,-1.84713 -1.71093,-3.34961 -3.0604,-5.22204 -8.1683,-8.71622 -17.8125,-12.17969 -4.2127,-1.51292 -23.84489,-7.23675 -27.05469,-7.88867 -3.1815,-0.64618 -7.64052,-2.28522 -10.953125,-4.02344 -5.320699,-2.79185 -7.050497,-6.5723 -4.904297,-10.72265 1.2692,-2.45434 5.157675,-4.08706 11.171872,-4.69336 8.3495,-0.84171 15.04248,0.60861 18.70508,4.05664 1.819,1.71233 4.27022,7.00644 4.27022,8.93458 L 153,563.99996 l 0,-2.07031 c 0,-2.94489 -1.12463,-7.93035 -2.57812,-11.42969 -3.9328,-9.46826 -11.48874,-15.77443 -22.58594,-18.84961 -4.9681,-1.37675 -17.51213,-2.71129 -21.70313,-2.30859 -2.0043,0.1926 -2.77174,0.0766 -2.49804,-0.38086 0.14025,-0.23431 0.17738,-0.35091 0.10156,-0.34961 z m 429.96094,0.0664 c -1.71311,-0.0103 -3.64175,9.6e-4 -5.84766,0.0352 -6.5175,0.1 -11.84961,0.39691 -11.84961,0.66016 0,0.26325 -0.3375,0.41992 -0.75,0.34765 -0.4125,-0.0723 -1.96617,0.21018 -3.45117,0.62696 -16.49966,4.63076 -24.78325,14.18902 -26.33008,30.38281 l -0.42578,4.46875 13.05469,0 13.05664,0 0.68554,-2.54883 c 2.2354,-8.30918 6.91864,-11.79484 16.54493,-12.3125 7.43913,-0.40005 12.89186,1.17449 16.0039,4.61914 2.03895,2.25686 2.13418,2.55345 2.02539,6.37305 -0.10912,3.83085 -0.21369,4.09305 -2.37695,5.96289 -2.82942,2.44566 -6.33544,3.42674 -19.33789,5.41211 -21.75267,3.32145 -30.23841,6.58296 -36.24805,13.93164 -4.89901,5.99059 -6.36925,15.94168 -6.46679,24.33398 -0.05,4.30377 1.15356,8.81457 3.02539,12.55274 5.42305,10.8591 20.99775,16.60811 38.5957,14.24609 l 0.002,0 c 2.58138,-0.3465 6.58258,-1.20595 8.89258,-1.91015 4.43317,-1.3515 12.52094,-5.85769 14.17188,-7.89649 0.93555,-1.15536 1.00996,-1.01934 1.70703,3.11328 l 0.73047,4.32422 13.14453,0 13.14648,0 -0.006,-36.45117 C 575.38948,559.07563 575.2315,556.62958 572.14258,549 567.82166,538.32737 558.98835,531.97496 545,529.47852 c -2.95975,-0.52821 -6.16343,-0.76998 -11.30273,-0.80079 z m -177.29688,0.52149 -3.15039,0.006 c -11.6673,0.0182 -19.21156,2.8797 -25.34375,7.8789 -2.46288,2.00784 -4.30303,3.65894 -5.71076,5.4321 l 0.004,-10.31491 -26.39844,0 0,104.39844 27.51953,0 0.21485,-30.44922 c 0.2074,-29.56019 0.25192,-30.56801 1.54492,-34.44336 2.437,-7.30422 8.29198,-12.12332 16.58008,-13.65039 5.36746,-1.71401 9.25433,-0.6658 14.74023,-0.19726 z m -125.20508,0.1914 c -5.40254,0.10842 -10.79081,1.25804 -15.79492,3.55079 -2.7736,1.27078 -5.04915,2.96905 -7.87695,5.87695 l -4.65264,3.99131 -0.16182,-10.61045 -26.9082,0 0.39844,159.20117 27.20117,0.40039 0.0195,-34.05078 c 0.02,-33.90786 0.0255,-34.04336 1.19727,-32.63672 0.6472,0.77688 1.00131,1.6944 0.78711,2.04102 -0.2142,0.34662 -0.11957,0.464 0.21093,0.25976 0.3305,-0.2043 1.38575,0.45779 2.34375,1.47071 2.7016,2.85648 8.26438,6.42271 12.70508,8.14453 5.4886,2.12814 17.62206,2.66741 23.56446,1.04687 2.1295,-0.58074 4.45306,-1.08217 5.16406,-1.11523 0.711,-0.033 1.17931,-0.24306 1.04101,-0.4668 -0.1383,-0.22374 0.36013,-0.59938 1.10743,-0.83398 4.6625,-1.464 12.94914,-8.90803 16.55664,-14.87305 6.2165,-10.27884 8.6875,-20.37329 8.6875,-35.48633 0,-11.65502 -1.23991,-19.14313 -4.56641,-27.55469 -1.0541,-2.66556 -1.88064,-5.1809 -1.83594,-5.58984 0.045,-0.40895 -0.15847,-0.59499 -0.45117,-0.41406 -0.2928,0.18092 -0.53125,-0.0697 -0.53125,-0.55664 0,-0.48698 -0.20367,-0.97594 -0.45117,-1.08594 -0.2475,-0.11 -1.26,-1.40391 -2.25,-2.875 -7.8011,-11.592 -21.69742,-18.11102 -35.50391,-17.83399 z m 187.00391,0.2168 c -8.777,-0.011 -13.61054,0.69724 -20.02344,2.9336 -2.2684,0.79107 -4.42918,1.26483 -4.80078,1.05273 -0.3715,-0.2121 -0.47713,-0.1686 -0.23633,0.0977 0.2408,0.26623 -1.20253,1.45477 -3.20703,2.64062 -10.0873,5.96735 -17.86155,16.87017 -20.59375,28.88281 -1.6767,7.37202 -1.82582,8.93097 -1.76562,18.58594 0.067,10.76977 1.44973,17.45626 3.91015,25.79883 0.9382,3.18118 2.59224,6.44441 4.08594,9.07227 1.7878,3.18088 7.95374,9.7393 11.39844,12.12304 5.0498,3.49458 11.43179,5.97253 18.83789,7.31641 5.8768,1.06644 20.09388,1.0802 25.08008,0.0234 9.64213,-2.04372 17.36801,-7.46173 24.25195,-13.68946 2.72047,-2.46114 4.90583,-6.11797 6.33984,-8.99609 1.03943,-2.05914 2.37804,-5.16249 2.97461,-6.89649 l 1.08399,-3.15234 -29.20508,0 -0.35352,1.4082 c -0.3914,1.55946 -4.39121,6.39063 -5.29101,6.39063 -0.3138,0 -0.95809,0.38582 -1.42969,0.85742 -1.6674,1.6674 -7.48107,2.88717 -12.41797,2.60547 -11.3839,-0.64956 -19.13554,-8.80542 -21.15234,-22.25391 l -0.42188,-2.80859 71.53711,0 0,-4.46875 c 0,-5.5546 -1.4394,-16.56686 -2.94531,-22.53125 -0.6249,-2.475 -0.98619,-4.74448 -0.80274,-5.04297 0.18346,-0.29848 0.0216,-0.34875 -0.35937,-0.11328 -0.40257,0.2488 -0.69336,0.0609 -0.69336,-0.44727 0,-0.48093 -1.25397,-3.39832 -2.78711,-6.48437 -2.30075,-4.63115 -3.69022,-6.50438 -7.95117,-10.72656 -8.83238,-8.752 -18.0815,-12.15887 -33.0625,-12.17774 z m -1.84961,22.45313 c 2.86142,-0.0822 5.82859,0.29666 8.15039,1.15625 6.9513,2.57353 12.145,9.60157 13.25,17.93164 l 0.4043,3.05078 -21,0 -21,0 0.51758,-2.84961 c 1.4633,-8.07871 5.81535,-14.40846 12.16015,-17.68359 1.9003,-0.9809 4.65615,-1.52326 7.51758,-1.60547 z M 223.60547,552.625 c 0.75836,-0.003 1.65052,0.0356 2.78125,0.0977 5.7664,0.31655 8.69226,1.59413 13.09766,5.71484 3.56928,3.33867 6.66662,9.31269 8.04882,15.52539 1.5554,6.99114 0.99132,19.30267 -1.17968,25.73633 -1.6522,4.89666 -4.98918,10.2465 -6.83008,10.94922 -0.5626,0.21474 -1.50726,0.83856 -2.09766,1.38672 -3.0344,2.8176 -13.93072,3.8894 -19.76562,1.94336 -3.2038,-1.06854 -7.87549,-4.74337 -7.27149,-5.72071 0.2248,-0.36372 0.1163,-0.47046 -0.25,-0.24414 -1.5497,0.95778 -5.09449,-6.64061 -6.49219,-13.91601 -1.1272,-5.8675 -1.09318,-16.87885 0.0664,-21.42188 2.2573,-8.8415 7.05139,-15.2129 13.83789,-18.38867 2.70645,-1.2665 3.77961,-1.65266 6.05469,-1.66211 z m 421.58203,0.92188 c 1.5201,-0.0188 2.99656,0.0651 4.20703,0.2832 12.27114,2.21136 18.4383,12.66026 18.58008,31.4707 0.0755,10.01502 -1.98351,17.00087 -6.82227,23.14649 -2.1735,2.76048 -6.25924,5.60455 -7.20898,5.01757 -0.42588,-0.26322 -0.57423,-0.1997 -0.35547,0.1543 0.64794,1.04838 -2.71413,2.13751 -7.53711,2.44141 -3.35394,0.21132 -4.65039,0.096 -4.65039,-0.41797 0,-0.39192 -0.29366,-0.53225 -0.65234,-0.31055 -0.7656,0.47316 -5.34766,-1.46131 -5.34766,-2.25781 0,-0.29934 -0.26798,-0.38024 -0.5957,-0.17774 -0.98598,0.60942 -6.38764,-5.3009 -8.29102,-9.07226 -2.66076,-5.27213 -3.72936,-9.46261 -4.125,-16.16797 -0.59364,-10.06128 1.57526,-20.37667 5.4668,-25.99219 1.95936,-2.82735 6.66739,-6.29932 7.90039,-5.82617 0.49872,0.19137 0.75836,0.11 0.57812,-0.18164 -0.661,-1.06955 4.29322,-2.05302 8.85352,-2.10937 z m -568.037109,31.7246 c -0.13939,0.0282 -0.165113,0.14463 -0.04687,0.33594 0.3523,0.57013 1.496093,0.84337 1.496093,0.35742 0,-0.12969 -0.41954,-0.39722 -0.93164,-0.59375 -0.1335,-0.0512 -0.247413,-0.0837 -0.341797,-0.0976 -0.07079,-0.0106 -0.129318,-0.0114 -0.175781,-0.002 z m 469.498049,0.62696 c 0.58333,0.0267 0.62114,1.38284 0.4414,7.34765 -0.20578,6.82951 -0.40487,8.01353 -1.85351,10.99805 -4.87358,10.04052 -18.65861,16.29484 -28.32813,12.85156 -1.31563,-0.46848 -2.73352,-1.31855 -3.15039,-1.88867 -0.41687,-0.57012 -0.76703,-0.78328 -0.77734,-0.47265 -0.0103,0.31056 -0.68308,-0.51399 -1.49609,-1.83399 -1.16233,-1.88712 -1.47805,-3.21366 -1.48047,-6.20898 -0.007,-9.13633 4.66443,-12.55198 22.28711,-16.28907 4.50532,-0.9554 9.19181,-2.15533 10.41406,-2.66601 1.22224,-0.51069 2.50563,-0.75286 2.85156,-0.53906 0.34593,0.2138 0.45432,0.10422 0.24024,-0.24219 -0.21411,-0.3464 0.04,-0.79414 0.5664,-0.9961 0.10653,-0.0409 0.20182,-0.0644 0.28516,-0.0605 z M 279.90039,643.82422 277.5,646.20703 c -5.3276,5.28798 -12.37301,9.4683 -20.09961,11.92578 -5.2003,1.65396 -13.66861,3.06641 -18.37891,3.06641 l -3.82031,0 0,119 0,119 44.9336,-0.39841 1.16211,-107.40039 c 0.38729,-1.485 1.0082,-3.84373 1.3789,-5.24023 0.3707,-1.39656 0.90641,-2.39491 1.19141,-2.21875 0.285,0.17616 0.36337,-0.0869 0.17187,-0.58594 -0.9655,-2.51592 9.86352,-17.42757 11.79102,-16.23633 0.457,0.28248 0.605,0.2238 0.375,-0.14844 -0.5213,-0.84348 5.80854,-4.12917 10.11914,-5.25195 4.8866,-1.27284 20.029,-1.10666 19.2207,0.21094 -0.125,0.20364 0.53119,0.39804 1.45899,0.43164 3.2721,0.11862 10.67375,4.97975 9.78125,6.42383 -0.2043,0.33048 -0.0941,0.42998 0.24414,0.2207 1.0252,-0.6336 4.20674,6.18627 5.24804,11.25195 l 1.54688,118.54297 45.57617,0 -0.61351,-126.52539 c -0.8445,-8.01762 -2.01824,-12.10977 -5.52734,-19.27539 -2.729,-5.57274 -3.74727,-6.95802 -8.82227,-12 -6.5535,-6.5109 -11.74613,-9.74322 -20.14062,-12.54102 -14.318,-4.77198 -32.47101,-4.95538 -45.59571,-0.45898 -7.9461,2.7222 -14.26315,6.18205 -18.84375,10.32031 -1.4279,1.29 -2.70335,1.99811 -3.12695,1.73633 -0.4161,-0.25716 -0.55873,-0.18621 -0.33985,0.16797 0.207,0.33492 -0.81764,2.14559 -2.27734,4.02539 -1.4597,1.8798 -2.86901,4.01059 -3.13281,4.73438 -0.2638,0.72378 -0.6143,-22.64116 -0.7793,-51.92188 z m 136.5,17.97656 0,40.19922 45,0 0,-40.19922 z m 192.59961,0 0.63084,186.29883 c 0.9849,6.82122 1.15302,7.55834 2.98242,13.02734 2.17014,6.48768 5.28283,11.58599 8.45117,17.09766 0.71694,1.2472 1.46641,2.48907 2.38086,3.59961 1.32098,1.60423 2.86398,3.02245 4.44336,4.37305 3.26284,2.79021 6.63579,5.5122 10.34961,7.66601 3.87349,2.24641 8.02141,4.08038 12.30078,5.39844 6.9541,2.14189 9.54944,2.70036 21.46094,3.99414 2.52852,0.27462 15.90441,-0.23974 20.09961,-0.77344 l 3,-0.38281 L 694.80076,864 l -9.45117,-0.01 c -10.40628,-0.01 -13.67621,-0.35833 -19.64063,-3.26953 -2.66747,-1.30198 -4.85355,-3.59434 -6.55664,-6.02539 -0.30996,-0.44244 -0.37943,-1.01392 -0.62304,-1.49609 -0.15619,-0.30913 -0.39294,-0.57483 -0.53516,-0.89063 -1.80953,-4.01813 -3.26418,-7.63705 -3.97266,-12.60937 l -0.62107,-81.29883 41.40039,0 0,-34.20117 -41.40039,0 0,-62.39844 z m -192.59961,62.39844 0,174.60156 45,0 0,-174.60156 z m 73.79883,0 0,174.59961 45.56055,0 c 2.84474,-30.03489 -5.57499,-90.1083 4.61718,-110.91992 2.36583,-4.84488 8.71542,-11.8012 10.23828,-11.2168 0.46561,0.17862 0.69552,0.078 0.50977,-0.22266 -0.48158,-0.77922 5.53025,-3.48967 10.95703,-4.93945 3.55261,-0.94914 6.62539,-1.25085 13.31836,-1.31055 4.785,-0.0426 9.71172,0.13539 10.94922,0.39453 l 2.25,0.47071 0,-23.20117 0,-23.20313 -10.65039,0.32617 c -5.8575,0.17952 -11.55565,0.5057 -12.66406,0.72266 -4.41718,0.86442 -11.26355,3.4683 -15.27735,5.8125 -4.40573,2.57304 -12.06176,9.6822 -15.30469,14.21094 l -1.87695,2.62304 -0.16406,-12.07422 c -0.0895,-6.64038 -0.36383,-12.07274 -0.61133,-12.07226 z m -352.06836,0.67969 c -1.22556,-0.007 -2.44922,-0.007 -3.6582,0.004 -5.80312,0.0511 -11.27943,0.31233 -15.13282,0.80274 -27.237794,3.46656 -44.217865,13.6039 -51.417965,30.69922 -1.1862,2.81634 -2.884953,11.08168 -3.189453,15.51562 -0.1734,2.52642 0.581841,9.385 1.61914,14.6875 3.353702,17.1435 17.496254,28.88783 45.847658,38.07227 3.795,1.2294 7.30578,2.3893 7.80078,2.57812 0.495,0.18882 1.17,0.41053 1.5,0.49219 0.33,0.0816 5.73,1.39282 12,2.91406 17.7704,4.31136 21.30078,5.28547 21.30078,5.87695 0,0.30258 0.2513,0.39309 0.5586,0.20313 0.74478,-0.46026 4.87467,1.53641 4.48437,2.16797 -0.168,0.27186 0.0725,0.34806 0.53711,0.16992 1.2873,-0.49398 5.94247,3.3739 7.54297,6.26758 2.0475,3.70188 2.40959,9.28078 0.80469,12.40234 -1.8954,3.6867 -7.13471,8.02989 -8.59571,7.12696 -0.4171,-0.25776 -0.5621,-0.19196 -0.3457,0.1582 0.3442,0.55692 -3.82211,2.04494 -8.28711,2.95898 -5.6085,1.14816 -24.1611,0.85552 -23.4043,-0.36914 0.1685,-0.27264 -0.20026,-0.36287 -0.81836,-0.20117 -1.4218,0.37176 -8.60098,-2.45552 -11.83398,-4.66016 -5.1921,-3.5406 -8.94849,-9.57314 -9.65039,-15.5 l -0.35938,-3.04687 -46.798824,0 0.408203,4.5039 c 0.743,8.19864 3.630615,17.01171 7.666015,23.39649 0.8343,1.32 1.514872,2.53617 1.513672,2.70117 0,0.165 1.721925,2.14924 3.828125,4.41016 15.4407,16.57536 40.574039,25.00022 71.648439,24.01562 4.95,-0.15684 11.8277,-0.67925 15.2832,-1.16015 7.6038,-1.05816 15.58155,-3.12815 22.31055,-5.78711 2.7536,-1.0881 5.341,-1.94119 5.75,-1.89649 0.4089,0.045 0.59691,-0.15843 0.41601,-0.45117 -0.181,-0.29274 -0.0789,-0.53125 0.22852,-0.53125 1.2566,0 9.65504,-6.02563 13.02344,-9.34375 3.4726,-3.42072 6.86008,-7.21841 7.48828,-8.39453 0.165,-0.30888 0.52292,-0.48721 0.79492,-0.39649 0.2721,0.0907 0.33031,-0.10193 0.12891,-0.42773 -0.2013,-0.3258 0.31107,-1.92936 1.13867,-3.5625 4.0726,-8.03682 5.56333,-21.34369 3.73633,-33.35351 -0.5003,-3.28837 -0.75215,-6.23283 -0.56055,-6.54297 0.1917,-0.31014 0.0762,-0.39655 -0.25586,-0.19141 -0.3361,0.20772 -0.93125,-0.74745 -1.34375,-2.15625 -1.1006,-3.75798 -3.40179,-7.40765 -7.33789,-11.63867 -1.9334,-2.07822 -3.5799,-3.73598 -3.6582,-3.6836 -0.078,0.0522 -1.3568,-0.6738 -2.8418,-1.61328 -8.0073,-5.06586 -20.95461,-9.68204 -47.09961,-16.79492 -26.4091,-7.18476 -33.23695,-9.75229 -38.00195,-14.29297 -2.8529,-2.71866 -3.69922,-4.67423 -3.69922,-8.54687 0,-8.20944 5.7378,-12.10495 20,-13.57813 6.8174,-0.70416 19.09353,0.10643 19.49023,1.28711 0.1038,0.309 0.55034,0.42419 0.99414,0.25391 1.3174,-0.5055 7.49928,2.7591 10.04688,5.30664 2.8271,2.82708 5.72299,8.67702 6.24609,12.61914 l 0.37891,2.84961 43.79883,0 -0.41797,-4.34961 c -0.2304,-2.3925 -0.65536,-5.43 -0.94336,-6.75 -0.288,-1.32 -0.64854,-3.07539 -0.80274,-3.90039 -0.1542,-0.825 -1.0005,-3.47397 -1.8789,-5.88867 -6.623,-18.20616 -22.14981,-29.71217 -45.91211,-34.02149 -4.79227,-0.86906 -13.48943,-1.35825 -22.06836,-1.41015 z"
     id="path4165"
     inkscape:connector-curvature="0"
     sodipodi:nodetypes="cccscsssssscccccccccccccsscccccccsssccscccscccscccsccccssscccssssscccssssccccscscccccsssssssacccscccccssccccscccccsccccsccccccccscssscscsscccsssssssccscccaccscaccccsscccccccsssssscccccssccsscccsccscscccssccsscscssscscccsscccsssccscssscccccssccccccccccsccccsccccccccccsscccccccccccccccaaaaaccccsaaaacccccccccccccccccccccscccsscsscccsscsscccscccsccsccccssccssccsscccsccccscsssssccscccccsccssssscc" />
  <path
     style="color:#000000;clip-rule:nonzero;display:inline;overflow:visible;visibility:visible;opacity:1;isolation:auto;mix-blend-mode:normal;color-interpolation:sRGB;color-interpolation-filters:linearRGB;solid-color:#000000;solid-opacity:1;fill:#ffffff;fill-opacity:1;fill-rule:nonzero;stroke:none;stroke-width:0.5;stroke-linecap:butt;stroke-linejoin:miter;stroke-miterlimit:4;stroke-dasharray:none;stroke-dashoffset:0;stroke-opacity:1;color-rendering:auto;image-rendering:auto;shape-rendering:auto;text-rendering:auto;enable-background:accumulate"
     d="m 306.29102,124.19531 -136.62696,137.07031 0.0137,0.79688 209.45899,207.73828 209.29297,-209.19726 -136.60547,-136.06641 -72.75586,72.40625 z m 0.006,64.20508 72.90234,72.89649 72.56445,-72.55665 72.33594,71.61915 -145.22266,145.26367 -144.8789,-144.91797 z"
     id="rect4149"
     inkscape:connector-curvature="0"
     sodipodi:nodetypes="ccccccccccccccc" />
</svg>
