<?xml version="1.0" encoding="UTF-8" standalone="no"?>
<svg
   width="400"
   height="53.871281"
   viewBox="0 0 400 53.871281"
   version="1.1"
   id="svg5"
   sodipodi:docname="Swarovski Logo 05.2022.svg"
   inkscape:version="1.1.1 (3bf5ae0d25, 2021-09-20)"
   xmlns:inkscape="http://www.inkscape.org/namespaces/inkscape"
   xmlns:sodipodi="http://sodipodi.sourceforge.net/DTD/sodipodi-0.dtd"
   xmlns="http://www.w3.org/2000/svg"
   xmlns:svg="http://www.w3.org/2000/svg">
  <defs
     id="defs9" />
  <sodipodi:namedview
     id="namedview7"
     pagecolor="#ffffff"
     bordercolor="#111111"
     borderopacity="1"
     inkscape:pageshadow="0"
     inkscape:pageopacity="0"
     inkscape:pagecheckerboard="1"
     showgrid="false"
     inkscape:zoom="2.5402161"
     inkscape:cx="198.21148"
     inkscape:cy="33.264887"
     inkscape:window-width="1600"
     inkscape:window-height="829"
     inkscape:window-x="-8"
     inkscape:window-y="-8"
     inkscape:window-maximized="1"
     inkscape:current-layer="svg5" />
  <path
     style="fill:#191717;fill-opacity:1;fill-rule:nonzero;stroke:none;stroke-width:0.240174"
     d="m 305.32537,20.89141 c 4.62054,1.804122 10.81723,2.55279 15.54379,4.005095 5.41706,1.664331 9.86496,4.907623 9.84527,12.49 -0.0197,9.030928 -6.52693,16.527932 -19.39972,16.47633 -4.91886,0.03941 -11.54712,-1.971117 -15.75862,-4.524845 l -1.06294,-12.628851 1.26559,0.0056 c 1.63057,8.806701 7.65931,14.399198 16.40691,14.434849 6.75209,0.02815 12.14475,-3.118514 13.38316,-9.135067 1.68965,-8.213774 -4.48732,-10.233675 -6.06159,-10.794708 -3.99571,-1.431665 -10.1061,-2.226303 -15.51845,-4.019165 -5.83175,-1.933593 -9.76648,-5.63753 -9.7524,-12.22825 0.0226,-9.3339611 8.56279,-15.04279123 19.53292,-14.96304592 6.7324,0.0487854 12.20385,2.27227402 13.02571,2.72541542 l 0.85562,11.0771005 h -1.10987 C 325.21857,6.6479395 319.64576,2.5518422 312.5109,2.5236966 c -7.80004,-0.030022 -12.43747,4.613035 -13.06229,9.0412484 -0.7374,5.263194 2.29948,7.936071 5.87395,9.332085 z M 11.104362,20.89701 C 7.5280169,19.501026 4.4939403,16.828149 5.2322884,11.564955 5.8571169,7.1367412 10.496421,2.4936845 18.294579,2.5237062 25.428506,2.5518518 31.000362,6.6479491 32.302556,13.811898 h 1.10987 L 32.557741,2.7347971 C 31.734957,2.2807174 26.260672,0.05722897 19.53204,0.00938169 8.5618922,-0.06754902 0.0206941,5.6412811 5.4120206e-5,14.972427 -0.01683313,21.563148 3.9197734,25.267084 9.749629,27.200677 c 5.413303,1.792863 11.522736,2.587501 15.520324,4.019166 1.573331,0.561032 7.75125,2.580934 6.061586,10.794707 -1.239336,6.015617 -6.631061,9.163214 -13.384087,9.135068 C 9.1998552,51.113966 3.1720433,45.52147 1.5405468,36.714768 l -1.2646674,-0.0056 1.0610823,12.630728 c 4.2096173,2.552791 10.8388023,4.563311 15.7614373,4.523908 12.871841,0.05348 19.379064,-7.447279 19.397826,-16.476331 0.01876,-7.582376 -4.427274,-10.825668 -9.84527,-12.490002 -4.725616,-1.452313 -10.9223,-2.200043 -15.543779,-4.005103 z M 394.8738,5.4057977 c 0,-3.4815888 3.08285,-3.3549346 5.1262,-3.3549346 V 0.9212934 h -16.57296 v 1.1295697 c 2.05743,0 5.13844,-0.1257161 5.13844,3.3549346 l -0.0122,43.2445063 c 0,3.484403 -3.08382,3.354935 -5.12624,3.354935 v 1.129568 h 16.57016 v -1.129568 c -2.05743,0 -5.14122,0.129468 -5.14122,-3.354935 z M 249.94363,8.6265726 266.11129,53.13387 h 4.79316 L 286.74659,7.4369591 c 1.70279,-4.9076237 3.96943,-5.3898487 7.23335,-5.3898487 V 0.9203553 h -15.70889 v 1.1267551 c 1.24591,-0.054414 2.49369,0.031898 3.7199,0.2551852 2.19814,0.5469594 2.32104,2.4430228 2.14562,3.7405269 -0.23175,1.1905514 -0.56948,2.3567102 -1.01138,3.4862795 l -12.64011,36.87332 h -0.1501 L 257.75585,11.773231 c -0.72708,-1.826638 -1.29,-3.714258 -1.67935,-5.6412813 -0.26926,-1.8144418 0.37904,-2.9740332 1.18586,-3.4768981 0.78715,-0.4887922 1.55458,-0.6032501 3.47129,-0.6032501 V 0.924108 h -18.27109 v 1.1276935 c 4.24714,0 5.75669,1.8256997 7.48107,6.5766473 z M 119.9249,6.0099861 c 0.77587,-2.1653213 -0.0263,-3.2545491 -1.22527,-3.6917415 -0.80402,-0.224225 -1.63994,-0.3133523 -2.47304,-0.2645669 V 0.9250462 h 10.09951 l 16.78312,44.5101118 c 1.8135,4.53329 3.07817,6.576647 7.56643,6.576647 v 1.126756 h -18.27201 v -1.126756 c 1.9167,0 2.6832,-0.112582 3.46189,-0.603251 0.80214,-0.502864 1.4326,-1.662455 1.1427,-3.476897 -0.41561,-1.929839 -1.00292,-3.817457 -1.7544,-5.64222 l -2.60251,-6.913453 h -20.41763 l -3.24892,9.150076 c -0.45596,1.127695 -0.80777,2.294791 -1.0517,3.486281 -0.19233,1.297503 -0.0919,3.191691 2.09871,3.741464 1.22151,0.221412 2.46366,0.305847 3.70488,0.25237 v 1.126756 H 98.032441 v -1.126756 c 3.262999,0 5.555909,-0.514122 7.303739,-5.387032 L 119.92208,6.0052953 Z M 131.7122,32.881361 122.22156,7.6536789 h -0.15104 l -8.95306,25.2276821 z m 34.39183,-3.581037 v 0.137913 l 21.0115,23.693755 h 11.14371 v -1.128629 c -2.19722,0 -5.50243,-1.190554 -8.81515,-4.912316 L 174.94545,30.785466 c 9.2589,-1.032 17.0702,-5.878643 17.0702,-15.723911 0,-8.3122824 -6.62919,-14.1430759 -19.10418,-14.1430759 h -19.59109 v 1.1295694 c 2.05931,0 5.14217,-0.1285307 5.14217,3.3549346 l -0.016,43.2454449 c 0,3.481588 -3.0838,3.354935 -5.12622,3.354935 v 1.128629 h 16.57484 v -1.128629 c -2.05837,0 -5.14216,0.125714 -5.14216,-3.354935 l 0.0141,-45.3751152 h 4.06701 c 4.99675,0 17.043,-0.2429889 17.043,12.2864162 0,13.019136 -12.04531,13.740595 -17.043,13.740595 z M 344.34149,5.4029831 c 0,-3.4815888 3.081,-3.3549346 5.12342,-3.3549346 V 0.9175407 h -16.57203 v 1.1305078 c 2.05743,0 5.14122,-0.1266542 5.14122,3.3549346 l -0.015,43.2445059 c 0,3.483466 -3.08379,3.354935 -5.12621,3.354935 v 1.129568 h 16.57203 v -1.129568 c -2.05743,0 -5.13843,0.128531 -5.13843,-3.354935 z M 371.84051,47.79562 351.32062,24.429289 c 0,0 14.9593,-16.3477997 16.55233,-18.0627942 2.29947,-2.4974372 4.62054,-4.3184463 9.36211,-4.3184463 V 0.9184791 h -17.18934 v 1.1295694 c 0.48877,0 3.1823,-0.046909 4.07825,0.2673817 1.70469,0.596683 1.93641,2.3144919 -0.16793,4.6224169 L 345.58458,26.963315 v 0.06755 l 22.70024,26.102067 h 11.03488 v -1.126756 c -2.47963,0 -5.6,-2.071503 -7.47919,-4.210555 z M 94.427015,0.9203553 V 2.049925 c 1.245904,-0.055353 2.493683,0.030022 3.720823,0.2523706 2.200042,0.5478976 2.416762,2.4439612 2.244132,3.741465 -0.22047,1.1886752 -0.547901,2.354834 -0.977588,3.4853414 L 86.77615,46.403361 H 86.633546 L 74.998226,11.769478 C 74.313355,9.940026 73.799233,8.0524057 73.45961,6.1291351 73.240076,4.3156317 73.915566,3.1532256 74.736475,2.6503607 75.556444,2.1484339 76.344516,2.0536777 78.212435,2.049925 V 0.9203553 H 60.113989 V 2.049925 c 4.247144,0 5.700386,1.8228854 7.303736,6.5728946 l 4.3738,13.0819934 -8.316972,24.696672 H 63.33195 L 51.513684,11.76854 C 50.819432,9.940026 50.293111,8.0524057 49.941294,6.1291351 49.712377,4.3146933 50.383177,3.1522875 51.198455,2.6503607 51.995911,2.1606302 52.776477,2.0489869 54.691303,2.0489869 V 0.9194172 H 36.479338 v 1.1295697 c 4.247144,0 5.712582,1.8238235 7.342203,6.5738327 L 58.960965,53.131992 h 4.855085 l 9.266412,-27.56938 9.213873,27.570319 h 4.856963 L 102.87909,7.4360209 c 1.6784,-4.8860456 3.9929,-5.387034 7.25777,-5.387034 V 0.9194172 Z M 222.14439,0 c 17.058,0 23.82791,14.491141 23.82791,26.289703 0,13.91791 -9.76365,27.581577 -24.95748,27.581577 -15.46404,0 -24.0681,-12.130677 -24.0681,-26.770988 C 196.94672,11.257231 208.62426,0 222.14439,0 Z m -16.11232,38.332191 c 2.78733,5.108394 6.74833,8.90615 11.22721,10.788141 4.01166,1.651199 8.50461,1.691541 12.54535,0.112582 9.92502,-3.972257 10.22617,-16.71932 10.29372,-18.105952 0.51693,-10.292781 -3.93473,-21.002115 -12.12786,-25.454721 -4.35222,-2.361401 -11.05928,-3.3483672 -17.03924,0.075055 -4.27435,2.4458374 -8.22785,7.280284 -8.74948,16.512921 -0.23735,5.611258 1.09674,11.177485 3.85217,16.071036"
     id="path2" />
</svg>
