<?xml version="1.0" encoding="UTF-8" standalone="no"?>
<svg
   xmlns:dc="http://purl.org/dc/elements/1.1/"
   xmlns:cc="http://creativecommons.org/ns#"
   xmlns:rdf="http://www.w3.org/1999/02/22-rdf-syntax-ns#"
   xmlns:svg="http://www.w3.org/2000/svg"
   xmlns="http://www.w3.org/2000/svg"
   viewBox="0 0 126 126"
   height="126"
   width="126"
   xml:space="preserve"
   id="svg2"
   version="1.1"><metadata
     id="metadata8"><rdf:RDF><cc:Work
         rdf:about=""><dc:format>image/svg+xml</dc:format><dc:type
           rdf:resource="http://purl.org/dc/dcmitype/StillImage" /><dc:title></dc:title></cc:Work></rdf:RDF></metadata><defs
     id="defs6"><clipPath
       id="clipPath350"
       clipPathUnits="userSpaceOnUse"><path
         id="path348"
         d="m 279.43,709.61 h 94.568 V 817.2 H 279.43 Z" /></clipPath><clipPath
       id="clipPath364"
       clipPathUnits="userSpaceOnUse"><path
         id="path362"
         d="m 279.427,709.61 h 94.571 v 107.594 h -94.571 z" /></clipPath><clipPath
       id="clipPath376"
       clipPathUnits="userSpaceOnUse"><path
         id="path374"
         d="M 0,0 H 653.622 V 900.236 H 0 Z" /></clipPath><clipPath
       id="clipPath396"
       clipPathUnits="userSpaceOnUse"><path
         id="path394"
         d="M 0,0 H 653.622 V 900.236 H 0 Z" /></clipPath><clipPath
       id="clipPath556"
       clipPathUnits="userSpaceOnUse"><path
         id="path554"
         d="M 0,0 H 653.622 V 900.236 H 0 Z" /></clipPath></defs><g
     transform="matrix(1.3333333,0,0,-1.3333333,-372.57332,1089.5107)"
     id="g10"><g
       id="g344"><g
         clip-path="url(#clipPath350)"
         id="g346"><g
           transform="translate(320.9122,709.7398)"
           id="g352" /><path
           id="path356"
           style="fill:#003976;fill-opacity:1;fill-rule:nonzero;stroke:none"
           d="m 279.427,722.633 h 94.571 v 94.571 h -94.571 z" /></g></g><g
       id="g358"><g
         clip-path="url(#clipPath364)"
         id="g360"><g
           transform="translate(317.9065,788.5817)"
           id="g366"><path
             id="path368"
             style="fill:#e0bf78;fill-opacity:1;fill-rule:nonzero;stroke:none"
             d="m 0,0 c 0,-1.951 1.976,-3.091 5.27,-3.091 7.095,0 12.846,3.573 19.384,3.573 2.153,0 3.217,-0.634 3.217,-1.951 0,-2.661 -5.599,-4.688 -10.54,-5.017 -0.887,1.343 -2.787,2.052 -5.144,2.052 -6.765,0 -11.833,-6.714 -11.833,-12.694 0,-3.699 2.154,-5.802 5.904,-5.802 6.74,0 11.199,6.79 11.478,11.706 -5.143,-0.304 -8.615,-2.585 -10.135,-7.576 -0.33,-1.064 -0.608,-1.774 -1.318,-1.774 -0.38,0 -0.835,0.178 -0.835,1.014 0,1.52 2.432,3.901 3.597,6.461 0.938,2.052 1.14,6.309 2.787,6.309 0.482,0 0.761,-0.127 0.761,-0.811 0,-1.444 -1.748,-3.927 -2.382,-5.22 1.621,1.47 4.408,2.458 7.398,2.559 6.284,0.254 12.745,3.472 12.745,8.64 -0.05,3.193 -2.407,5.068 -6.334,5.068 -5.347,0 -10.11,-3.877 -15.253,-3.877 -1.293,0 -1.977,0.431 -1.977,1.217 0,3.319 12.923,0.583 12.923,5.954 0,1.571 -2.154,2.052 -3.015,2.23 C 16.977,8.691 17.204,8.311 17.204,7.905 17.204,2.458 0,6.081 0,0 m 14.721,-30.203 -0.785,-1.925 h 2.457 c 1.14,0 1.926,0.609 2.407,1.825 l 0.76,1.926 h -2.407 c -1.064,0 -1.9,-0.558 -2.432,-1.826 M -10.591,-31.9 c 1.267,0 2.153,0.634 2.711,2.028 l 0.608,1.495 h -14.392 c -2.482,0 -8.057,-3.295 -8.057,-5.474 0.05,-1.647 1.495,-3.572 2.914,-4.535 l 2.306,3.673 c -0.634,0.381 -1.369,0.938 -1.394,1.673 0,0.684 0.76,1.14 1.419,1.14 h 4.206 l -5.448,-13.429 h 3.928 c 0.557,0 0.937,0.304 1.216,0.912 l 5.093,12.517 z m 61.62,-0.075 c -1.595,-1.775 -3.799,-2.636 -6.968,-2.889 -0.556,0.962 -1.747,1.444 -3.394,1.444 -2.965,0 -4.181,-2.027 -7.044,-2.027 -2.585,0 -4.815,1.545 -6.436,1.672 l -0.989,-1.469 c 0.811,-0.482 1.268,-1.166 1.268,-2.382 0,-2.027 -1.9,-5.422 -3.928,-5.422 -0.81,0 -1.064,0.988 -0.608,2.103 l 5.143,12.568 h -2.255 c -1.215,0 -2.102,-0.635 -2.66,-1.926 l -2.685,-6.436 c -1.597,-3.8 -4.029,-5.625 -5.423,-5.625 -0.76,0 -0.937,0.558 -0.633,1.292 l 2.964,7.297 h -2.483 c -0.81,0 -1.647,-0.228 -2.331,-1.824 l -0.634,-1.546 c -1.545,-3.775 -3.774,-5.219 -5.067,-5.219 -0.684,0 -0.988,0.431 -0.634,1.317 l 1.547,3.801 c 0.784,2.204 0.76,3.699 -1.444,3.699 -2.332,0 -4.46,-2.077 -5.652,-3.42 l 3.523,8.59 h -2.66 c -0.938,0 -1.648,-0.305 -2.256,-1.826 l -2.635,-6.536 c -1.622,-4.028 -5.979,-5.853 -7.652,-5.853 -1.114,0 -1.671,0.507 -1.671,1.52 0,1.926 1.925,4.232 4.078,4.232 h 0.786 c 0.887,0 1.495,0.456 1.9,1.393 l 0.71,1.672 h -2.737 c -4.839,0 -9.248,-4.383 -9.071,-9.071 0.051,-1.773 1.141,-2.711 3.117,-2.711 2.838,0 5.954,1.47 8.691,4.282 l -1.647,-4.054 h 2.61 c 1.089,0 1.748,0.507 2.305,1.825 1.318,3.116 2.863,6.512 4.789,6.512 0.583,0 0.861,-0.456 0.583,-1.14 l -1.47,-3.573 c -0.887,-2.154 -0.735,-3.877 1.621,-3.877 1.951,0 4.106,1.115 6.31,3.396 -0.557,-1.977 -0.279,-3.396 1.9,-3.396 2.103,0 4.612,1.444 6.892,3.978 -0.38,-2.432 0.963,-3.953 3.674,-3.953 4.408,0 8.969,4.105 8.969,8.565 0,0 0.456,-0.052 0.887,-0.052 0.709,0 1.698,0.254 2.306,0.508 -1.09,-1.343 -1.8,-3.218 -1.8,-5.144 0,-2.382 1.319,-3.902 3.776,-3.902 4.435,0 7.247,4.282 7.602,7.475 -2.914,-0.178 -5.752,-1.951 -6.589,-4.84 -0.202,-0.735 -0.431,-1.267 -0.988,-1.267 -0.431,0 -0.658,0.279 -0.658,0.786 0,1.14 1.621,2.635 2.306,4.13 0.785,1.723 0.861,4.51 2.077,4.51 0.431,0 0.583,-0.178 0.583,-0.659 0,-1.038 -1.292,-2.863 -1.546,-3.446 1.217,0.912 3.217,1.47 5.017,1.698 3.979,0.532 6.234,1.748 6.714,5.169 z" /></g></g></g></g></svg>