<?xml version="1.0" encoding="UTF-8" standalone="no"?>
<svg
   xmlns:dc="http://purl.org/dc/elements/1.1/"
   xmlns:cc="http://creativecommons.org/ns#"
   xmlns:rdf="http://www.w3.org/1999/02/22-rdf-syntax-ns#"
   xmlns:svg="http://www.w3.org/2000/svg"
   xmlns="http://www.w3.org/2000/svg"
   xmlns:sodipodi="http://sodipodi.sourceforge.net/DTD/sodipodi-0.dtd"
   xmlns:inkscape="http://www.inkscape.org/namespaces/inkscape"
   width="300"
   height="66.714806"
   viewBox="0 0 300 66.714806"
   version="1.1"
   id="svg64"
   sodipodi:docname="Logo-100-Jahre.svg"
   inkscape:version="0.92.1 r15371">
  <metadata
     id="metadata70">
    <rdf:RDF>
      <cc:Work
         rdf:about="">
        <dc:format>image/svg+xml</dc:format>
        <dc:type
           rdf:resource="http://purl.org/dc/dcmitype/StillImage" />
        <dc:title>Logo-100-Jahre</dc:title>
      </cc:Work>
    </rdf:RDF>
  </metadata>
  <defs
     id="defs68" />
  <sodipodi:namedview
     pagecolor="#ffffff"
     bordercolor="#666666"
     borderopacity="1"
     objecttolerance="10"
     gridtolerance="10"
     guidetolerance="10"
     inkscape:pageopacity="0"
     inkscape:pageshadow="2"
     inkscape:window-width="1920"
     inkscape:window-height="1001"
     id="namedview66"
     showgrid="false"
     fit-margin-top="0"
     fit-margin-left="0"
     fit-margin-right="0"
     fit-margin-bottom="0"
     inkscape:zoom="2.2731959"
     inkscape:cx="97.042148"
     inkscape:cy="22.88"
     inkscape:window-x="-9"
     inkscape:window-y="-9"
     inkscape:window-maximized="1"
     inkscape:current-layer="svg64" />
  <!-- Generator: Sketch 54.1 (76490) - https://sketchapp.com -->
  <title
     id="title2">Logo-100-Jahre</title>
  <desc
     id="desc4">Created with Sketch.</desc>
  <path
     d="m 289.89004,29.156282 v 2.86449 c -2.85951,-2.420784 -6.46523,-3.783343 -10.21107,-3.858637 -10.09729,0.303309 -18.12552,8.576313 -18.12552,18.678162 0,10.101849 8.02823,18.374852 18.12552,18.678161 3.77392,-0.07178 7.39692,-1.494689 10.21107,-4.010286 v 3.150939 H 300 V 29.156282 Z m -9.06527,26.673459 c -3.61357,0.0067 -6.87512,-2.164694 -8.26269,-5.501235 -1.38758,-3.336543 -0.62768,-7.180457 1.92509,-9.738049 2.55276,-2.55759 6.39522,-3.324738 9.73439,-1.943464 3.33916,1.381274 5.51683,4.638709 5.51683,8.252278 0.0101,4.909755 -3.95339,8.902636 -8.86307,8.93047 z"
     id="Shape"
     inkscape:connector-curvature="0"
     style="fill:#1a1aaa;fill-rule:evenodd;stroke:none;stroke-width:1.68499422" />
  <polygon
     id="polygon19"
     points="75.45,35.09 66.46,35.09 66.46,59.63 59.68,59.66 59.68,35.09 50.68,35.09 50.68,28.97 75.45,28.97 "
     style="fill:#1a1aaa;fill-rule:evenodd;stroke:none;stroke-width:1"
     transform="matrix(1.6849943,0,0,1.6849943,-1.613975,-35.867647)" />
  <path
     d="m 248.84358,11.93564 c 2.42829,-0.03419 4.63624,1.403154 5.58772,3.637532 0.9515,2.234377 0.45763,4.822267 -1.24981,6.549226 -1.70745,1.72696 -4.28955,2.250195 -6.53461,1.324163 -2.24503,-0.926033 -3.70739,-3.11752 -3.70078,-5.546041 0.0179,-3.260719 2.63716,-5.909973 5.89748,-5.96488 z"
     id="path21"
     inkscape:connector-curvature="0"
     style="fill:#1a1aaa;fill-rule:evenodd;stroke:none;stroke-width:1.68499422" />
  <rect
     id="Rectangle"
     x="222.33862"
     y="12.946635"
     width="10.615464"
     height="51.712475"
     style="fill:#1a1aaa;fill-rule:evenodd;stroke:none;stroke-width:1.68499422" />
  <rect
     id="rect24"
     x="243.60324"
     y="29.156282"
     width="10.615464"
     height="35.502831"
     style="fill:#1a1aaa;fill-rule:evenodd;stroke:none;stroke-width:1.68499422" />
  <path
     d="m 151.72051,28.162135 c -3.57871,-0.134698 -7.09852,0.93964 -9.99202,3.04984 V 12.997186 h -10.61546 v 51.661925 h 10.61546 V 44.809878 c 0,-3.764263 3.05154,-6.815801 6.8158,-6.815801 3.76427,0 6.8158,3.051538 6.8158,6.815801 v 19.849233 h 10.63248 l -1.6e-4,-22.157675 c 0.0179,-3.796807 -1.47779,-7.444261 -4.15624,-10.135357 -2.67845,-2.691095 -6.31881,-4.203986 -10.11566,-4.203944 z"
     id="path26"
     inkscape:connector-curvature="0"
     style="fill:#1a1aaa;fill-rule:evenodd;stroke:none;stroke-width:1.68499422" />
  <path
     d="m 201.56264,29.156282 v 2.86449 c -2.86842,-2.428028 -6.4873,-3.791057 -10.24477,-3.858637 -6.80684,-0.204469 -13.18597,3.310173 -16.6498,9.173348 -3.46381,5.863175 -3.46381,13.146452 0,19.009627 3.46383,5.863175 9.84296,9.377817 16.6498,9.173348 3.79461,-0.08081 7.43251,-1.528794 10.24477,-4.077686 v 3.150939 H 211.6726 V 29.156282 Z m -9.06527,26.673459 c -3.61356,0.0067 -6.8751,-2.164694 -8.26269,-5.501235 -1.38758,-3.336543 -0.62768,-7.180457 1.92509,-9.738049 2.55276,-2.55759 6.39522,-3.324738 9.73439,-1.943464 3.33916,1.381274 5.51683,4.638709 5.51683,8.252278 0.005,2.366957 -0.93266,4.638503 -2.60477,6.313777 -1.67212,1.675273 -3.94189,2.616698 -6.30885,2.616693 z"
     id="path28"
     inkscape:connector-curvature="0"
     style="fill:#1a1aaa;fill-rule:evenodd;stroke:none;stroke-width:1.68499422" />
  <path
     d="m 16.044765,28.937232 c 7.548737,0.322239 15.075248,-1.030003 22.039725,-3.959736 1.994676,-0.828488 4.030584,-1.553991 6.099679,-2.173643 6.874777,-2.123093 8.138523,-1.533345 8.138523,-1.533345 -0.556048,-1.684994 -2.712841,-1.684994 -7.279176,-0.741397 -4.566334,0.943597 -6.824226,2.224192 -11.373711,2.81394 -4.549485,0.589748 -9.115819,-3.369988 -8.424971,-7.936323 4.490658,1.2388 9.277652,0.813954 13.479954,-1.196346 -2.527492,0 -4.785384,-1.010996 -3.757537,-4.7348336 4.886483,4.9370336 10.581764,-1.6849942 15.653596,-5.7289805 0.568944,-0.4930259 1.177608,-0.938252 1.819794,-1.3311455 0.634318,-0.4303273 1.319051,-0.7811819 2.038843,-1.0446964 l 0.522349,-0.2021993 c 2.200958,-0.82753273 4.540995,-1.22230673 6.891626,-1.16264613 1.029855,-0.00859 2.034791,0.3166054 2.86449,0.9267469 0.294462,0.30295863 0.42055,0.73165653 0.336999,1.14579613 2.392692,0.3369988 4.263036,3.5721878 4.263036,5.7626804 0.874252,0.7957234 1.822105,1.5066123 2.83079,2.1230928 0.1348,0.08425 0.08425,0.1516492 0.11795,0.2864492 -0.06088,0.642672 -0.415409,1.221117 -0.960447,1.567044 0,0 0,0.15165 0,0.286449 0.03666,0.04785 0.0825,0.08796 0.1348,0.11795 0.909896,0.303299 0.623447,1.044696 0.101099,1.246896 0.22604,0.05699 0.40141,0.235308 0.454603,0.46227 0.0532,0.226962 -0.02467,0.464638 -0.201854,0.616126 -0.151649,0.15165 -0.286449,0.286449 -0.269599,0.404399 0,0.404398 0.539198,0.438098 0.724548,1.128946 0.247608,0.599872 0.06093,1.291265 -0.454949,1.684994 -0.456335,0.328815 -1.004585,0.505671 -1.567044,0.505499 -1.786219,0.0248 -3.532628,0.531263 -5.054983,1.465945 -0.854009,0.592297 -1.520574,1.416733 -1.920894,2.375842 -0.117477,0.369182 -0.207586,0.746519 -0.269599,1.128946 -0.219003,1.375663 -0.08566,2.784392 0.387549,4.094536 v 0.117949 c 1.415395,4.347286 -0.825647,10.261616 -7.161226,15.822097 -3.369988,2.999289 -14.187651,11.79496 -11.980309,23.43827 0,0 -24.162818,-8.205922 -17.338591,-17.65874 2.021993,-2.79709 6.167079,-4.498935 10.986163,-6.739977 l 0.370698,-0.1685 c 5.054983,-2.342142 8.559771,-6.739977 6.655728,-9.469667 -0.357136,-0.563533 -1.062598,-0.796335 -1.684995,-0.556048 -5.206632,1.196346 -19.343734,0.909896 -27.296907,0 -0.842497,-0.1011 -1.684994,-0.1685 -2.342142,-0.2022 H 12.607377 C 11.086249,31.970362 9.5759859,31.646321 8.2095417,30.976075 7.109554,30.413823 5.926103,30.032615 4.7047536,29.847129 3.9465062,29.69548 2.80071,29.62808 2.8512599,29.055182 c 0.1179496,-1.347995 2.5443413,-0.269599 4.1787858,-0.320149 0.1179496,0 0,-0.235899 -0.1516495,-0.320149 -2.7473217,-1.051396 -5.1178345,-2.899691 -6.80737686,-5.307732 -0.26959908,-0.471798 0.30329897,-0.758247 0.4717984,-0.606598 3.50619706,3.012758 7.74193146,5.052184 12.28360826,5.91433 0.556048,0.1348 2.173642,0.370699 3.150939,0.471799"
     id="path30"
     inkscape:connector-curvature="0"
     style="fill:#00a04b;fill-rule:nonzero;stroke:none;stroke-width:1.68499422" />
</svg>
