<?xml version="1.0" encoding="UTF-8" standalone="no"?>
<svg
   id="8a50d141-1553-4c16-aca6-27c1737fbd9f"
   data-name="Ebene 2"
   viewBox="0 0 1719.4384 307.38621"
   version="1.1"
   width="1719.4385"
   height="307.3862"
   xmlns="http://www.w3.org/2000/svg"
   xmlns:svg="http://www.w3.org/2000/svg">
  <defs
     id="defs6" />
  <g
     id="g6"
     transform="scale(2.3)">
    <path
       d="M 43.41,11.52 H 35.9 L 0,51.81 v 5.57 h 13.54 v 40 c 0,24.5 14.31,35.58 33.7,36.13 0,0 12.44,1.56 30.59,-5.88 V 106 c -8.41,4 -15.07,6 -20.15,5.52 C 44.25,110.11 43.34,100.78 43.34,97.37 v -40 H 77.79 V 37.11 H 43.41 Z"
       id="path1" />
    <path
       d="m 607.9,35.27 c -22.15,-0.31 -31.75,15 -31.75,15 V 37 h -30.06 v 94.86 h 30.06 V 71 c 0,0 7.48,-15.6 21,-15.8 0,0 14.14,-1.06 14.14,18.46 v 58.2 h 29.8 V 72.25 C 641.25,46.62 624.58,35.51 607.9,35.27 Z"
       id="path2" />
    <path
       d="m 714.29,35.27 c -22.22,-0.31 -31.85,15 -31.85,15 V 37 h -30.15 v 94.86 h 30.15 V 71 c 0,0 7.51,-15.6 21.11,-15.8 0,0 14.18,-1.06 14.18,18.46 v 58.2 h 29.85 V 72.25 C 747.79,46.62 731,35.51 714.29,35.27 Z"
       id="path3" />
    <path
       d="M 162.1,87.25 C 162.1,63.12 173.46,50.9 173.46,50.9 168.34,42.65 159.34,34.7 142.27,35.47 124.08,36.29 113.58,51.3 113.58,51.3 V 0 H 83.87 v 131.81 h 29.61 V 71.54 c 0,0 8.83,-14.54 19.05,-14.54 0,0 15.39,-2 16.1,19.54 l 0.06,55.31 h 35.23 C 172.84,124 162.1,107.94 162.1,87.25 Z"
       id="path4" />
    <path
       d="M 405.12,35.81 C 382.75,35.81 368.41,55.9 368.41,55.9 359.25,34.61 335.65,35.61 335.65,35.61 312,35.61 301.45,50 301.45,50 V 37.69 H 260 c 12.78,6.86 26.32,21.56 27.18,47.25 0.76,22.75 -10.76,40.22 -23.36,46.83 h 37.73 V 68.44 c 0,0 11.41,-12.82 21.41,-12.82 0,0 19.34,-1.16 19.34,19.18 l 0.1,57 h 29.79 V 71.69 c 0,0 9.43,-16.13 22.93,-16.13 17.17,0 17.68,18.74 17.68,18.74 v 57.51 h 30 V 71.56 C 441.08,33.12 405.12,35.81 405.12,35.81 Z"
       id="path5" />
    <circle
       cx="224.46001"
       cy="86.400002"
       r="25.129999"
       fill="#00b5bd"
       id="circle5" />
    <path
       d="m 533,105.81 v -44 c 0,0 1.23,-27.49 -41,-26.51 C 464.9,35.93 451.87,47 451.87,47 v 24.09 c 0,0 12.32,-12.75 30.38,-15.44 23.5,-3.5 21,15.07 21,15.07 l -22.8,7.43 c 0,0 -11,4 -15.84,6.34 -18.92,9.13 -17.49,26.5 -17.49,26.5 a 22.39,22.39 0 0 0 11.38,18.43 c 21,12.27 46.07,-6.3 46.07,-6.3 0,0 2.43,10.88 16.25,10.5 8.71,-0.24 19.88,-4.45 19.88,-4.45 v -15.9 c -8.45,2.35 -7.7,-7.46 -7.7,-7.46 z M 487.79,92.46 c 3.84,-2.15 7.17,-3.17 15.48,-6.47 v 22.92 c 0,0 -16.66,11.84 -23.44,3.65 -0.04,0 -10.16,-10 7.96,-20.1 z"
       id="path6" />
  </g>
</svg>
