<?xml version="1.0" encoding="UTF-8" standalone="no"?>
<svg
   width="800"
   height="800"
   viewBox="0 0 7280 7280"
   fill="none"
   version="1.1"
   id="svg9"
   xmlns="http://www.w3.org/2000/svg"
   xmlns:svg="http://www.w3.org/2000/svg">
  <g
     clip-path="url(#clip0_55_228)"
     fill="none"
     id="g9"
     transform="scale(10)">
    <path
       d="M 728,0 H 0 v 728 h 728 z"
       fill="#ffffff"
       id="path1" />
    <mask
       id="mask0_55_228"
       maskUnits="userSpaceOnUse"
       x="0"
       y="0"
       width="728"
       height="728"
       fill="none">
      <path
         d="M 728,0 H 0 v 728 h 728 z"
         fill="#ffffff"
         id="path2" />
    </mask>
    <g
       mask="url(#mask0_55_228)"
       fill="none"
       id="g8">
      <path
         fill-rule="evenodd"
         clip-rule="evenodd"
         d="m 216.849,463.854 c 5.195,0 9.439,4.243 9.439,9.439 0,5.196 -4.244,9.439 -9.439,9.439 -5.196,0 -9.439,-4.243 -9.439,-9.439 0,-5.196 4.243,-9.439 9.439,-9.439 z m -59.222,109.574 -0.234,-76.999 h 12.898 v 11.762 c 3.283,-5.482 6.332,-9.117 9.102,-10.868 2.792,-1.752 5.863,-2.646 9.212,-2.646 4.829,0 9.739,1.422 14.715,4.236 l -4.932,12.209 c -3.495,-1.905 -7.006,-2.858 -10.501,-2.858 -3.13,0 -5.951,0.872 -8.428,2.587 -2.499,1.729 -4.287,4.141 -5.335,7.211 -1.598,4.661 -2.426,9.784 -2.397,15.339 l 0.213,40.027 z m 53.601,-0.373 -0.213,-76.414 13.822,0.264 -0.367,76.142 h -13.242 z m 27.635,9.3 13.99,0.065 c 2.038,11.528 7.695,14.723 26.082,14.342 18.387,-0.381 26.067,-16.43 25.994,-33.447 -7.6,8.208 -9.842,12.261 -31.051,12.341 -21.208,0.081 -41.552,-18.16 -41.552,-40.196 0,-22.037 15.067,-41.824 42.351,-41.824 12.092,0 23.532,5.416 31.366,12.803 v -9.593 h 13.843 l 0.242,66.858 c 0.118,32.347 -14.334,44.307 -41.332,44.996 -26.998,0.689 -38.929,-8.479 -39.933,-26.367 z m 37.287,-76.004 c 16.475,0 29.915,12.964 29.915,28.86 0,15.895 -13.433,28.859 -29.915,28.859 -16.481,0 -29.914,-12.964 -29.914,-28.859 0,-15.896 13.433,-28.86 29.914,-28.86 z m 123.631,39.31 13.712,-0.088 c -2.346,18.211 -24.763,30.149 -44.777,30.149 -28.435,0 -44.359,-19.046 -45.121,-39.134 -0.828,-21.86 17.61,-42.541 44.447,-42.541 24.198,0 45.297,15.763 44.644,37.866 h -73.812 c -1.392,15.148 6.823,32.296 30.194,32.296 19.588,0 25.444,-7.863 30.713,-18.548 z m -59.39,-23.136 55.99,0.117 c -2.455,-11.96 -17.735,-16.364 -28.259,-16.364 -10.523,0 -25.246,5.467 -27.731,16.254 m 78.034,50.42 -0.228,-76.157 h 15.009 l 0.029,10.245 c 5.438,-7.651 15.068,-13.125 23.422,-13.125 8.355,0 16.79,2.499 22.726,10.333 7.394,-7.966 13.718,-9.571 27.738,-9.571 14.019,0 28.376,13.345 28.288,30.677 l -0.25,48.111 -13.491,-0.066 -0.227,-48.258 c -0.052,-10.457 -6.948,-18.863 -16.489,-18.672 -9.549,0.19 -20.41,3.012 -20.491,20.307 l -0.227,46.484 -14.364,0.117 0.257,-46.096 c 0.095,-18.079 -9.131,-20.996 -18.292,-21.237 -9.168,-0.242 -18.438,4.081 -18.35,19.808 l 0.256,47.064 -15.302,0.029 z M 614.6,531.283 c -7.483,4.235 -19.948,5.54 -32.912,6.903 -8.575,0.901 -26.126,-0.022 -25.877,14.415 0.139,7.915 14.759,11.154 23.033,11.154 15.207,0 35.756,-2.235 35.756,-17.581 z m -38.819,44.901 c -17.478,0 -36.276,-6.742 -36.276,-22.96 0,-18.519 20.857,-23.217 40.534,-24.264 6.419,-0.338 34.238,-1.877 34.238,-10.495 0,-10.897 -16.709,-12.575 -28.39,-12.106 -11.689,0.469 -24.668,2.814 -27.797,11.879 h -14.95 c 6.281,-17.39 30.025,-23.209 41.86,-23.385 11.843,-0.176 45.349,-0.63 44.205,28.31 0.389,12.399 -0.293,25.488 1.121,31.754 1.408,6.266 3.335,8.413 9.088,8.369 H 691.24 V 373.538 H 399.173 l -37.492,44.19 -37.332,-44.19 H 37.441 v 123.257 l 69.349,0.059 v -27.768 l 14.247,0.242 v 27.526 h 28.69 v 9.746 h -28.69 l -0.323,52.663 c -0.015,2.828 3.144,3.972 6.764,3.972 1.59,0 19.186,0.329 21.773,-0.015 l -0.044,9.769 -30.816,0.022 c -7.71,0 -11.161,-6.757 -11.264,-12.891 L 106.783,506.6 37.4337,506.542 V 691.028 H 691.226 l -0.073,-117.9 -55.447,-0.051 c -14.818,0.264 -19.157,-2.521 -20.821,-7.959 -12.451,7.592 -23.582,11.051 -39.104,11.051"
         fill="#1a171c"
         id="path3" />
      <path
         d="m 216.849,463.854 c 5.195,0 9.439,4.243 9.439,9.439 0,5.196 -4.244,9.439 -9.439,9.439 -5.196,0 -9.439,-4.243 -9.439,-9.439 0,-5.196 4.243,-9.439 9.439,-9.439 z m -59.222,109.574 -0.234,-76.999 h 12.898 v 11.762 c 3.283,-5.482 6.332,-9.117 9.102,-10.868 2.792,-1.752 5.863,-2.646 9.212,-2.646 4.829,0 9.739,1.422 14.715,4.236 l -4.932,12.209 c -3.495,-1.905 -7.006,-2.858 -10.501,-2.858 -3.13,0 -5.951,0.872 -8.428,2.587 -2.499,1.729 -4.287,4.14 -5.335,7.211 -1.598,4.661 -2.426,9.784 -2.397,15.339 l 0.213,40.027 z m 53.601,-0.373 -0.213,-76.414 13.822,0.264 -0.367,76.142 h -13.242 z m 27.635,9.3 13.99,0.065 c 2.037,11.528 7.695,14.723 26.082,14.342 18.387,-0.381 26.067,-16.43 25.994,-33.447 -7.6,8.208 -9.842,12.261 -31.051,12.341 -21.208,0.081 -41.552,-18.16 -41.552,-40.196 0,-22.037 15.067,-41.824 42.351,-41.824 12.092,0 23.532,5.416 31.366,12.803 v -9.593 h 13.843 l 0.242,66.858 c 0.118,32.347 -14.334,44.307 -41.332,44.996 -26.998,0.689 -38.929,-8.479 -39.933,-26.367 z m 37.287,-76.004 c 16.475,0 29.915,12.964 29.915,28.86 0,15.895 -13.433,28.859 -29.915,28.859 -16.481,0 -29.914,-12.964 -29.914,-28.859 0,-15.896 13.433,-28.86 29.914,-28.86 z m 123.631,39.31 13.712,-0.088 c -2.346,18.211 -24.763,30.149 -44.777,30.149 -28.435,0 -44.359,-19.046 -45.121,-39.134 -0.829,-21.86 17.61,-42.541 44.447,-42.541 24.198,0 45.297,15.763 44.644,37.866 h -73.812 c -1.392,15.148 6.823,32.296 30.194,32.296 19.589,0 25.444,-7.863 30.713,-18.548 z m -59.39,-23.136 55.99,0.117 c -2.455,-11.96 -17.735,-16.364 -28.259,-16.364 -10.523,0 -25.246,5.467 -27.731,16.254 z m 78.034,50.42 -0.228,-76.157 h 15.009 l 0.029,10.245 c 5.438,-7.651 15.068,-13.125 23.422,-13.125 8.355,0 16.79,2.499 22.726,10.333 7.394,-7.966 13.718,-9.571 27.738,-9.571 14.019,0 28.376,13.345 28.288,30.677 l -0.25,48.111 -13.491,-0.066 -0.227,-48.258 c -0.052,-10.458 -6.948,-18.863 -16.489,-18.673 -9.549,0.191 -20.41,3.012 -20.491,20.307 l -0.227,46.485 -14.364,0.117 0.257,-46.096 c 0.095,-18.079 -9.131,-20.996 -18.292,-21.238 -9.168,-0.242 -18.438,4.082 -18.35,19.809 l 0.256,47.063 -15.302,0.029 z M 614.6,531.275 c -7.483,4.236 -19.948,5.541 -32.912,6.904 -8.575,0.901 -26.126,-0.022 -25.877,14.415 0.139,7.914 14.759,11.154 23.033,11.154 15.207,0 35.756,-2.236 35.756,-17.581 z m -38.819,44.902 c -17.478,0 -36.276,-6.742 -36.276,-22.96 0,-18.519 20.857,-23.217 40.534,-24.265 6.419,-0.337 34.238,-1.876 34.238,-10.494 0,-10.898 -16.709,-12.576 -28.39,-12.107 -11.689,0.469 -24.668,2.814 -27.797,11.88 h -14.95 c 6.281,-17.391 30.025,-23.209 41.86,-23.385 11.843,-0.176 45.349,-0.631 44.205,28.309 0.389,12.4 -0.293,25.489 1.122,31.755 1.407,6.265 3.334,8.413 9.087,8.369 h 51.827 V 373.538 H 399.173 l -37.492,44.19 -37.332,-44.19 H 37.441 v 123.257 l 69.349,0.059 v -27.768 l 14.247,0.242 v 27.526 h 28.69 v 9.746 h -28.69 l -0.323,52.663 c -0.015,2.828 3.144,3.972 6.764,3.972 1.59,0 19.186,0.329 21.773,-0.015 l -0.044,9.769 -30.816,0.022 c -7.71,0 -11.161,-6.757 -11.264,-12.891 L 106.783,506.6 37.4337,506.542 V 691.028 H 691.226 l -0.073,-117.9 -55.447,-0.051 c -14.819,0.264 -19.157,-2.521 -20.821,-7.959 -12.451,7.592 -23.582,11.051 -39.104,11.051 z"
         stroke="#1a171c"
         stroke-width="0.22px"
         stroke-miterlimit="22.93"
         fill="none"
         id="path4" />
      <path
         fill-rule="evenodd"
         clip-rule="evenodd"
         d="M 502.313,236.232 C 440.586,264.154 393.449,300.928 361.981,343.616 333.715,299.066 268.961,262.622 205.174,226.376 133.751,190.745 62.2697,125.089 33.894,47.884 c 11.5863,90.558 79.733,172.709 185.541,234.459 41.392,29.284 103.647,66.952 142.333,120.589 36.188,-50.441 81.383,-80.422 148.46,-123.271 78.993,-46.697 173.56,-136.243 183.9,-232.6637 C 663.495,139.233 582.054,192.885 502.313,236.232 Z"
         fill="#e2001a"
         id="path5" />
      <path
         fill-rule="evenodd"
         clip-rule="evenodd"
         d="M 689.386,43.6775 C 638.337,89.2091 591.596,118.897 525.845,140.508 412.247,174.124 364.766,248.097 362.259,248.097 316.999,186.963 253.505,157.254 196.644,138.705 119.849,118.061 37.1405,43.5089 36.5176,43.5089 81.441,138.969 173.669,180.045 208.333,196.388 c 20.153,9.446 112.323,51.878 154.205,101.161 32.692,-36.349 101.037,-73.922 124.144,-84.98 100.004,-48.133 170.327,-88.11 202.712,-168.8989"
         fill="#005ea8"
         id="path6" />
      <path
         fill-rule="evenodd"
         clip-rule="evenodd"
         d="M 21.7874,21.7874 H 706.205 V 706.213 H 21.7874 Z M 10.509,10.509 H 717.491 V 717.491 H 10.509 Z"
         fill="#1a171c"
         id="path7" />
      <path
         d="M 21.7874,21.7874 H 706.205 V 706.213 H 21.7874 Z M 10.509,10.509 H 717.491 V 717.491 H 10.509 Z"
         stroke="#1a171c"
         stroke-width="0.22px"
         stroke-miterlimit="22.93"
         fill="none"
         id="path8" />
    </g>
  </g>
  <defs
     id="defs9">
    <clipPath
       id="clip0_55_228">
      <rect
         width="728"
         height="728"
         fill="#ffffff"
         id="rect9"
         x="0"
         y="0" />
    </clipPath>
  </defs>
</svg>
