<?xml version="1.0" encoding="UTF-8" standalone="no"?>
<!-- Created with Inkscape (http://www.inkscape.org/) -->
<svg
   xmlns:svg="http://www.w3.org/2000/svg"
   xmlns="http://www.w3.org/2000/svg"
   version="1.0"
   width="956.69287"
   height="956.69287"
   id="svg2">
  <defs
     id="defs4" />
  <g
     transform="translate(426.86037,685.03842)"
     id="layer1">
    <g
       transform="matrix(0.8296804,0,0,0.8296804,6.7968118,98.991878)"
       id="g3126">
      <path
         d="M 587.69939,-368.44063 C 587.69939,-73.611029 348.69282,165.40545 53.873122,165.40545 C -240.9763,165.40545 -479.97296,-73.611029 -479.97296,-368.44063 C -479.97296,-663.28014 -240.9763,-902.27681 53.873122,-902.27681 C 348.69282,-902.27681 587.69939,-663.28014 587.69939,-368.44063"
         id="path2886"
         style="fill:#0072bb;fill-opacity:1;fill-rule:nonzero;stroke:none" />
      <path
         d="M -292.00373,-173.72389 L -260.21809,-72.858003 L -229.38365,-173.72389 L -193.41674,-173.72389 L -251.88526,-4.8577489 L -277.55752,-4.8577489 L -332.14201,-173.72389 L -292.00373,-173.72389"
         id="path2890"
         style="fill:#ffffff;fill-opacity:1;fill-rule:nonzero;stroke:none" />
      <path
         d="M -90.707918,-111.40106 L -141.74526,-111.40106 C -139.49609,-129.90965 -132.43152,-144.64321 -116.38017,-144.64321 C -100.00185,-144.64321 -93.254336,-132.54525 -90.707918,-111.40106 z M -142.3893,-83.073401 L -45.744323,-83.073401 C -45.744323,-149.54779 -78.491058,-177.48902 -114.45797,-177.48902 C -152.9713,-177.48902 -186.68904,-143.88027 -186.68904,-89.870454 C -186.68904,-36.613661 -156.84542,-3.7381198 -113.1699,-3.7381198 C -73.665745,-3.7381198 -62.4298,-12.031317 -52.808898,-16.559383 L -61.161545,-44.153832 C -66.938049,-41.894754 -77.202986,-36.22724 -97.762585,-36.22724 C -129.22125,-36.22724 -142.3893,-56.628307 -142.3893,-83.073401"
         id="path2894"
         style="fill:#ffffff;fill-opacity:1;fill-rule:nonzero;stroke:none" />
      <path
         d="M 251.53261,-111.40106 L 200.45563,-111.40106 C 202.7048,-129.90965 209.76938,-144.64321 225.82073,-144.64321 C 242.19905,-144.64321 248.93665,-132.54525 251.53261,-111.40106 z M 199.8215,-83.073401 L 296.45657,-83.073401 C 296.45657,-149.54779 263.69993,-177.48902 227.76274,-177.48902 C 189.20978,-177.48902 155.51185,-143.88027 155.51185,-89.870454 C 155.51185,-36.613661 185.37529,-3.7381198 229.02109,-3.7381198 C 268.51533,-3.7381198 279.75128,-12.031317 289.38209,-16.559383 L 281.04926,-44.153832 C 275.26285,-41.894754 264.988,-36.22724 244.43831,-36.22724 C 212.97965,-36.22724 199.8215,-56.628307 199.8215,-83.073401"
         id="path2898"
         style="fill:#ffffff;fill-opacity:1;fill-rule:nonzero;stroke:none" />
      <path
         d="M 366.49793,-34.711275 C 374.5137,-34.711275 381.91515,-39.229433 381.91515,-47.552355 C 381.91515,-59.253986 366.49793,-66.457277 353.31006,-73.98754 C 340.49871,-81.180922 318.01691,-96.281081 318.01691,-125.74819 C 318.01691,-156.71144 338.5666,-177.48902 369.39114,-177.48902 C 394.41935,-177.48902 407.27034,-170.72169 416.58409,-165.7973 L 405.97236,-137.08321 C 398.27366,-140.85825 385.74964,-146.90228 372.91847,-146.90228 C 364.55591,-146.90228 356.22308,-143.13715 356.22308,-134.82414 C 356.22308,-123.4792 370.35224,-117.43517 384.47148,-109.50858 C 396.03439,-103.44474 421.38958,-87.224949 421.38958,-59.253986 C 421.38958,-25.268722 392.18009,-3.7381155 365.8638,-3.7381155 C 336.30752,-3.7381155 320.24626,-13.933695 311.92334,-18.461761 L 322.51525,-47.938776 C 330.54093,-43.41071 349.15851,-34.711275 366.49793,-34.711275"
         id="path2902"
         style="fill:#ffffff;fill-opacity:1;fill-rule:nonzero;stroke:none" />
      <path
         d="M 85.153441,-219.25225 L 85.153441,-167.67986 C 80.030881,-170.31545 68.785028,-177.48902 43.410024,-177.48902 C 8.1069636,-177.48902 -24.649679,-143.51366 -24.649679,-87.224947 C -24.649679,-34.344668 2.9546786,-3.7381131 41.487826,-3.7381131 C 66.208885,-3.7381131 79.059873,-16.192771 85.153441,-21.087442 L 87.085548,-7.5131527 L 127.20401,-7.5131527 L 127.20401,-232.43021 C 113.60991,-227.40673 99.589747,-223.5227 85.153441,-219.25225 z M 85.153441,-50.960787 C 80.030881,-46.809234 68.785028,-37.733286 53.684869,-37.733286 C 37.306548,-37.733286 20.63098,-47.938773 20.63098,-87.958156 C 20.63098,-129.53313 37.306548,-145.39623 53.684869,-145.39623 C 71.02429,-145.39623 79.367029,-140.85825 85.153441,-137.85606 L 85.153441,-50.960787"
         id="path2906"
         style="fill:#ffffff;fill-opacity:1;fill-rule:nonzero;stroke:none" />
      <path
         d="M 319.05727,-618.15801 C 319.04736,-616.25563 319.04736,-614.36315 319.00773,-612.45086 C 314.91563,-458.1102 122.15081,-363.4766 -90.906085,-352.63698 C -106.11523,-299.66753 -124.76254,-251.96926 -145.67884,-211.57337 C 94.972505,-202.06145 333.78092,-305.74128 342.91631,-493.5718 C 345.00695,-536.64292 336.53541,-578.67367 319.05727,-618.15801"
         id="path2910"
         style="fill:#f15c28;fill-opacity:1;fill-rule:nonzero;stroke:none" />
      <path
         d="M 218.53817,-743.74496 C 231.59723,-647.81338 90.583153,-562.31517 -54.641926,-545.64951 C -55.840823,-533.21467 -57.277518,-520.68074 -58.932194,-508.04774 C -64.996037,-461.93479 -73.655839,-417.80348 -84.396372,-376.50594 C -69.405204,-377.0608 -54.205963,-378.15071 -38.858099,-379.77566 C 143.95884,-399.16608 320.88039,-513.71525 306.4639,-642.34403 C 284.93329,-680.36195 255.92196,-713.28703 218.53817,-743.74496"
         id="path2914"
         style="fill:#ffca05;fill-opacity:1;fill-rule:nonzero;stroke:none" />
      <path
         d="M 56.171837,-830.93747 C 55.973672,-788.14378 7.1854965,-751.53283 -53.621375,-736.1057 C -48.776245,-686.53477 -48.102485,-632.04936 -52.174772,-574.75001 C 79.396752,-590.02851 206.80682,-667.73884 201.7338,-756.7842 C 160.42634,-787.29167 110.32037,-812.80539 56.171837,-830.93747"
         id="path2918"
         style="fill:#8bc542;fill-opacity:1;fill-rule:nonzero;stroke:none" />
      <path
         d="M 5.0849499,-845.5224 C -22.559041,-852.03211 -50.034591,-856.28275 -77.054363,-858.45265 C -67.978415,-829.20353 -60.973289,-796.09019 -56.316416,-759.98456 C -8.4199818,-774.60912 30.796834,-804.37348 30.222156,-838.97305 C 22.325288,-841.17268 13.179982,-843.62993 5.0849499,-845.5224"
         id="path2922"
         style="fill:#45c7f4;fill-opacity:1;fill-rule:nonzero;stroke:none" />
    </g>
  </g>
</svg>
