<?xml version="1.0" encoding="UTF-8"?>
<svg id="Ebene_1" xmlns="http://www.w3.org/2000/svg" version="1.1" viewBox="0 0 1204.2 233.2">
  <!-- Generator: Adobe Illustrator 30.1.0, SVG Export Plug-In . SVG Version: 2.1.1 Build 136)  -->
  <defs>
    <style>
      .st0 {
        fill: #0222d0;
      }
    </style>
  </defs>
  <path class="st0" d="M1196.5,140.6v46.6c0,22.7-11.5,38-37.7,38h-8.3c-23.9,0-35.7-11.2-35.7-33.1v-59.6h35.7v54.7c0,3.5.9,5.8,3.7,5.8s4-2.3,4-6v-43.4c0-6.9-.9-9.8-6.3-14.7l-19.3-16.1c-12.4-10.4-17.8-22.2-17.8-38.3v-34c0-19.9,10.7-33.4,36.5-33.4h8.4c26.2,0,34.5,13.2,34.5,30.5v43.2h-35.1v-36.9c0-3.2-1.2-4.6-3.7-4.6s-3.8,1.4-3.8,4.6v27.9c0,5.8,1.2,8.1,5.8,12.1l18.4,16.1c14.7,12.1,20.7,21.9,20.7,40.6ZM421.2,43.4h16.1v179.8h36.5V43.4h16.1V9.1h-68.8v34.3h0ZM143.7,223.2h58.5v-34.3h-21.9v-70.7h21.9v-34h-21.9v-40.9h21.9V9.1h-58.5v214.1h0ZM963.9,223.2h58.5v-34.3h-21.9v-70.7h21.9v-34h-21.9v-40.9h21.9V9.1h-58.5v214.1h0ZM207.7,223.2h36.6V9.1h-36.6v214.1h0ZM295.2,186.8c0,3.9-1.2,6-4.1,6s-4.1-2.1-4.1-6V45.2c0-3.5,1.2-5.5,4.1-5.5s4,2,4,5.5v38.9h34.5v-42.7c0-17.3-8.1-34.2-37.4-34.2h-4c-28.8,0-38,17-38,37.1v146.5c0,19,6.8,34.5,26.5,34.5s22.7-18.3,22.7-18.3l5.9,16.3h24.5v-105h-34.5v68.6c0,0,0,0,0,0ZM380.3,84.1h-7.8V9.1h-36.6v214.1h36.6v-105h7.8v105h36.3V9.1h-36.3v75h0ZM707.9,9.1l19.3,214.1h-35.4l-1.6-34.4h-15.1l-1.8,34.4h-31.4l17.8-214.1h48.1ZM688.6,154.6l-4.2-90.8h-2.7l-4.7,90.8h11.7ZM718,43.3h16.4v179.9h36V43.3h16.4V9.1h-68.8v34.2h0ZM834.5,7.1h-6.3c-27.6,0-38,16.4-38.3,38.8v139.3c0,25,11.2,40,38.6,40h6c25.6,0,36.3-17.3,36.3-36.6v-70.5h-35.7v68.8c0,3.5-.8,5.8-3.9,5.8s-3.9-2.3-3.9-5.8V45.1c0-3.7,1.5-5.5,3.9-5.5s3.9,1.6,3.9,5.5v39h35.7v-42.2c0-21-10.9-34.8-36.3-34.8ZM921.2,84.1h-7.8V9.1h-36.6v214.1h36.6v-104.9h7.8v104.9h36.3V9.1h-36.3v75h0ZM1108.7,115.6v107.6h-36.6v-102.4c0-2.9-1.4-4.9-4.9-4.9h-2.9v107.3h-36.5V9.1h57.8c12.7,0,22.7,8.1,22.7,25.6v38c0,14.4-7.2,20.4-13.2,23,6,2.6,13.5,8.9,13.5,19.9h0ZM1072.2,43.9c0-3.5-.9-4.9-4-4.9h-3.7v47.2h2.9c2.9,0,4.9-1.7,4.9-4.9v-37.5ZM100.8,149h-2.5l-4.5-139.9h-37.3l-4.2,139.9h-2.8l-3.3-139.9H7.1l17.6,214.1h44.8l3.5-122h2.7l3.5,122h44L140.7,9.1h-36.4l-3.6,139.9h0ZM613.6,9.1l-3.6,139.9h-2.5l-4.5-139.9h-37.3l-4.2,139.9h-2.8l-3.3-139.9h-39l17.6,214.1h44.8l3.5-122h2.7l3.5,122h44l17.6-214.1h-36.4Z"/>
</svg>