<?xml version="1.0" encoding="utf-8"?>
<!-- Generator: Adobe Illustrator 27.9.0, SVG Export Plug-In . SVG Version: 6.00 Build 0)  -->
<svg version="1.1" xmlns="http://www.w3.org/2000/svg" xmlns:xlink="http://www.w3.org/1999/xlink" x="0px" y="0px"
	 viewBox="0 0 1150.5 345.5" style="enable-background:new 0 0 1150.5 345.5;" xml:space="preserve">
<style type="text/css">
	.st0{display:none;}
	.st1{display:inline;}
	.st2{fill:none;stroke:#AEAEB2;stroke-width:0.5;stroke-miterlimit:10;}
	.st3{fill:#1D1D1F;}
</style>
<g id="Framework" class="st0">
	<g class="st1">
		<rect x="0.25" y="0.25" class="st2" width="1150" height="345"/>
		<line class="st2" x1="0.25" y1="115.25" x2="1150.25" y2="115.25"/>
		<line class="st2" x1="0.25" y1="230.25" x2="1150.25" y2="230.25"/>
		<line class="st2" x1="115.25" y1="0.25" x2="115.25" y2="345.25"/>
		<line class="st2" x1="1035.25" y1="0.25" x2="1035.25" y2="345.25"/>
	</g>
</g>
<g id="Wordmark">
	<path class="st3" d="M881.5,115.25V118c5.75,1.5,5.75,7.5,5.75,13v69.75l-69.5-85.5H795l8.75,10.5v88.5c0,5.5,0,11.5-6,13.25v2.75
		H819v-2.75c-6-1.75-6-7.75-6-13.25v-78.5l75.75,94.5h8V131c0-5.5,0-11.5,6-13v-2.75H881.5z M712,118c5.75,1.5,3.75,7.5,2.25,13
		l-24.75,76.5l-31.25-91.75v-0.5h-11.5L618,207.75L593.25,131c-1.5-5.5-3.75-11.5,2-13v-2.75h-29.5V118c6.25,1.75,8,7.5,9.75,13
		l32.25,99.25h13l27.75-91l30.25,91h12.75L724,131c1.5-5.5,3.5-11.25,9.75-13v-2.75H712V118z M243.75,115.25V118
		c21.75,7,14.5,30.25,9.75,45l-14.75,44.5L208,115.25h-11.75l-28.5,92.5l-25-77.75c-1.75-5.25-3.25-10.75,2-12v-2.75h-29.5V118
		c6.5,1.75,7.75,6.25,9.75,13l32.25,99.25h13l28-91l30,91h12L277,117.75v-2.5H243.75z M472.5,129h2.75
		c1.75-5.75,7.75-5.75,13.5-5.75H505v91.25c0,5.5,0,11.5-6,13v2.75h29.25v-2.75c-6-1.5-6-7.5-6-13v-91.25h16.5
		c5.5,0,11.5,0,13.25,5.75h2.75v-14H472.5V129z M770.5,214.5v-84.75c0-5,0.5-10.25,6-11.75v-2.75h-28V118
		c5.5,1.5,5.75,6.75,5.75,11.75v84.75c0,5.5,0,11.25-5.75,13v2.75h28v-2.75C770.5,225.75,770.5,220,770.5,214.5z M994.92,172.12
		v2.76c32.57,8.52,20.54,49.6-12.78,49.6c-27.31,0-45.09-24.3-45.09-52.11c0-36.58,25.3-52.36,45.09-52.36
		c8.52,0,29.31,2,39.58,24.8h2v-22.05c-12.78-6.76-26.56-10.27-41.34-10.27c-35.82,0-64.63,23.55-64.63,59.87
		c0,35.82,29.81,60.13,64.38,60.13c23.8,0,53.11-16.28,53.11-57.87v-2.51H994.92z M353.25,222h-37.5v-47H345c5.25,0,11.25,0,13.25,6
		h2.5v-19.75h-2.5c-2,5.75-8,5.75-13.25,5.75h-29.25v-43.75H351c5.75,0,11.75,0,13.5,5.75h2.75v-13.75H292.5V118c6,1.5,6,7.5,6,13
		v83.25c0,5.5,0,11.5-6,13.25v2.75h77v-14h-2.75C365,222,359,222,353.25,222z M432.51,163.61l-12.03-4.51
		c-12.28-4.26-17.29-10.77-17.29-20.29c0-11.52,11.27-18.79,23.8-18.79c12.78,0,21.8,6.26,25.05,17.79l0.25,0.75h2.76v-18.79
		c-6.76-4.01-15.03-7.27-28.56-7.27c-21.54,0-38.58,10.77-38.58,31.32c0,14.03,8.77,24.05,25.3,30.06l12.53,4.51
		c16.28,6.01,23.05,13.78,23.05,25.05c0,13.53-11.27,21.29-26.05,21.29c-13.53,0-26.3-6.26-32.07-22.8l-0.25-1h-2.76v22.05
		c9.52,6.51,21.8,9.52,36.33,9.52c24.3,0,39.83-13.78,39.83-35.57C463.83,175.38,445.79,168.37,432.51,163.61z"/>
</g>
</svg>
