<svg id="CMYK" xmlns="http://www.w3.org/2000/svg" viewBox="0 0 283.46 68.03"><defs><style>.cls-1{fill:#fff;}.cls-2{fill:#e30613;}.cls-3{fill:#00151d;}</style></defs><title>XXXLutz-2018</title><rect class="cls-1" x="1.21" y="0.81" width="142.02" height="66.41"/><rect class="cls-2" x="143.15" y="0.99" width="139.49" height="65.89"/><path class="cls-3" d="M2,2H281.46V66H2ZM0,68H283.46V0H0Z"/><path class="cls-1" d="M210.56,53.63h-8.9v-3c-2.37,3.79-20.82,7.71-20.82-9V23.38h9.24V40.92c0,7.32,11.23,7.41,11.23-1.34V23.38h9.24ZM218,41.53c0,12.47,10,12.91,16.82,12.11V46c-3,0-7.58.55-7.58-3.73V31h7.58V23.38h-7.58V14.14H218Zm23.93,6.7v5.39h25.57V46.05H253.32l14-17.28v-5.4H241.86V31h14.29Z"/><path class="cls-3" d="M40.05,53.63,32.44,41.14,24.82,53.63H13.61l12.75-20L14,14.14H25.17L32.44,26l7.26-11.9H50.83L38.52,33.59l12.75,20Zm96,0-12.75-20,12.31-19.45H124.49L117.23,26,110,14.14H98.84l12.31,19.45-12.75,20h11.21l7.62-12.49,7.62,12.49Zm-42.28,0L81,33.59,93.35,14.14H82.22L75,26l-7.26-11.9H56.56L68.88,33.59l-12.75,20H67.34L75,41.14l7.62,12.49Zm81-9H161.63V14.21h-9.7V53.63h22.88Z"/></svg>