<?xml version="1.0" encoding="UTF-8"?><svg id="a" xmlns="http://www.w3.org/2000/svg" viewBox="0 0 458.35 407.51"><defs><style>.b{fill:#164194;}.c{fill:#fd0;}</style></defs><path class="b" d="M277.63,2.01c14.62-5.04,29.66-.29,33.48,10.73,3.82,10.94-4.97,24.05-19.58,29.16-14.69,5.11-29.66,.29-33.55-10.66-3.82-11.02,5.04-24.12,19.66-29.23h0Z"/><path class="b" d="M91.94,154.94c48.96,0,89.06,38.74,91.3,87.12v4.54h-11.38v-.22c0-43.99-35.93-79.92-79.92-79.92S12.1,202.39,12.1,246.38v.22H.65v-4.46c2.23-48.38,42.41-87.19,91.3-87.19h0Z"/><polygon class="b" points="0 266.39 141.19 266.39 141.19 407.51 0 407.51 0 266.39 0 266.39"/><polygon class="b" points="158.69 266.39 299.81 266.39 299.81 407.51 158.69 407.51 158.69 266.39 158.69 266.39"/><polygon class="b" points="317.16 266.39 458.35 266.39 458.35 407.51 317.16 407.51 317.16 266.39 317.16 266.39"/><polygon class="b" points=".65 242.06 458.35 242.06 458.35 254.95 .65 254.95 .65 242.06 .65 242.06"/><path class="b" d="M239.83,35.71c9.58,0,14.9,8.64,13.46,15.34-5.62,25.7-71.64,78.05-74.38,78.05,4.54,.29,14.11-.72,18.72-.43,37.58-2.16,81.86,1.15,85.25,36.07,2.59,26.78-35.42,49.97-64.51,67.54-7.13,4.25-44.28,25.13-54.5,15.55-.72-10.08,8.5-19.44,16.7-24.91,25.92-17.21,67.18-41.69,71.93-54.29,5.4-14.04-37.51-8.35-68.11-7.34-18.43,.65-31.32-6.77-37.51-18.58-16.99-32.26,67.32-94.46,87.12-105.19,2.02-1.15,3.53-1.73,5.83-1.8h0Z"/><path class="b" d="M256.39,63.64c2.3-.86,5.97-.5,9.36,2.09,7.7,5.83,17.86,19.15,25.63,23.98,7.99,3.31,21.89,9.07,29.88,12.46,6.12,2.52,13.32,4.32,19.37,6.91,2.38,1.22,5.69,5.76,2.59,10.51-4.25,6.34-29.59,1.73-49.03-6.7-21.89-9.43-52.27-28.94-46.22-41.47,2.09-4.39,5.26-6.34,8.42-7.78h0Z"/><path class="c" d="M443.88,327.81c.14,2.23,.29,4.39,.29,6.62,0,6.48-.58,12.24-1.66,17.64-1.15,5.33-2.81,10.15-5.11,14.18-5.18,9.65-12.1,17.06-20.45,22.18-8.42,5.04-17.86,7.63-28.58,7.63-7.78,0-15.12-1.44-21.89-4.25-6.77-2.81-12.67-7.06-17.86-12.53-5.26-5.69-9.07-12.02-11.74-19.08-2.66-7.2-3.96-14.9-3.96-23.26s1.3-16.2,3.96-23.4c2.66-7.2,6.62-13.54,11.74-18.86,5.19-5.54,11.09-9.72,17.86-12.74,6.77-2.81,14.11-4.18,21.89-4.18,10.73,0,20.16,2.52,28.44,7.56,8.35,5.11,15.12,12.46,20.3,22.18l-30.17,12.24c-3.96-7.99-10.58-13.39-18-13.39-12.17,0-22.03,13.54-22.03,30.17s9.86,30.17,22.03,30.17c8.28,0,15.62-6.48,19.3-16.06h-21.6v-22.82h57.24Z"/><path class="c" d="M193.97,393.91v-114.05h70.85v28.08h-39.24v14.76h39.24v28.22h-39.24v14.83h39.24v28.15h-70.85Z"/><path class="c" d="M114.12,394.05H12.89l57.38-85.82H22.46v-28.22H123.41l-57.53,86.04h48.24v28.01h0Z"/><path class="b" d="M366.98,154.94c48.96,0,89.13,38.74,91.37,87.12v4.54h-11.45v-.22c0-43.99-35.86-79.92-79.92-79.92s-79.85,35.93-79.85,79.92v.22h-11.52v-.22c0-50.4,41.04-91.44,91.37-91.44h0Z"/></svg>